<?xml version="1.0" encoding="UTF-8" standalone="no"?>
<!DOCTYPE svg PUBLIC "-//W3C//DTD SVG 1.1//EN"
 "http://www.w3.org/Graphics/SVG/1.1/DTD/svg11.dtd">
<!-- Generated by graphviz version 2.38.0 (20140413.2041)
 -->
<!-- Title: Graph Legend Pages: 1 -->
<svg width="541pt" height="159pt"
 viewBox="0.00 0.00 541.36 159.00" xmlns="http://www.w3.org/2000/svg" xmlns:xlink="http://www.w3.org/1999/xlink">
<g id="graph0" class="graph" transform="scale(1 1) rotate(0) translate(4 155)">
<title>Graph Legend</title>
<polygon fill="white" stroke="none" points="-4,4 -4,-155 537.356,-155 537.356,4 -4,4"/>
<!-- Node9 -->
<g id="node1" class="node"><title>Node9</title>
<polygon fill="#bfbfbf" stroke="black" points="312.824,-19 254.208,-19 254.208,-0 312.824,-0 312.824,-19"/>
<text text-anchor="middle" x="283.516" y="-6.2" font-family="Helvetica,sans-Serif" font-size="11.00">Inherited</text>
</g>
<!-- Node10 -->
<g id="node2" class="node"><title>Node10</title>
<g id="a_node2"><a xlink:href="$classPublicBase.html" xlink:title="PublicBase">
<polygon fill="none" stroke="black" points="71.0483,-85 -0.0161206,-85 -0.0161206,-66 71.0483,-66 71.0483,-85"/>
<text text-anchor="middle" x="35.5161" y="-72.2" font-family="Helvetica,sans-Serif" font-size="11.00">PublicBase</text>
</a>
</g>
</g>
<!-- Node10&#45;&gt;Node9 -->
<g id="edge1" class="edge"><title>Node10&#45;&gt;Node9</title>
<path fill="none" stroke="midnightblue" d="M78.6153,-63.3776C128.839,-50.4166 210.484,-29.3469 254.004,-18.1161"/>
<polygon fill="midnightblue" stroke="midnightblue" points="77.5133,-60.0473 68.7052,-65.9351 79.2625,-66.8252 77.5133,-60.0473"/>
</g>
<!-- Node11 -->
<g id="node3" class="node"><title>Node11</title>
<g id="a_node3"><a xlink:href="$classTruncated.html" xlink:title="Truncated">
<polygon fill="none" stroke="red" points="68.1403,-151 2.89197,-151 2.89197,-132 68.1403,-132 68.1403,-151"/>
<text text-anchor="middle" x="35.5161" y="-138.2" font-family="Helvetica,sans-Serif" font-size="11.00">Truncated</text>
</a>
</g>
</g>
<!-- Node11&#45;&gt;Node10 -->
<g id="edge2" class="edge"><title>Node11&#45;&gt;Node10</title>
<path fill="none" stroke="midnightblue" d="M35.5161,-121.584C35.5161,-109.625 35.5161,-94.7211 35.5161,-85.4052"/>
<polygon fill="midnightblue" stroke="midnightblue" points="32.0162,-121.869 35.5161,-131.869 39.0162,-121.869 32.0162,-121.869"/>
</g>
<!-- Node13 -->
<g id="node4" class="node"><title>Node13</title>
<g id="a_node4"><a xlink:href="$classProtectedBase.html" xlink:title="ProtectedBase">
<polygon fill="none" stroke="black" points="177.672,-85 89.3607,-85 89.3607,-66 177.672,-66 177.672,-85"/>
<text text-anchor="middle" x="133.516" y="-72.2" font-family="Helvetica,sans-Serif" font-size="11.00">ProtectedBase</text>
</a>
</g>
</g>
<!-- Node13&#45;&gt;Node9 -->
<g id="edge3" class="edge"><title>Node13&#45;&gt;Node9</title>
<path fill="none" stroke="darkgreen" d="M163.144,-61.8588C192.704,-49.2465 237.33,-30.2063 263.128,-19.199"/>
<polygon fill="darkgreen" stroke="darkgreen" points="161.57,-58.725 153.746,-65.8687 164.317,-65.1635 161.57,-58.725"/>
</g>
<!-- Node14 -->
<g id="node5" class="node"><title>Node14</title>
<g id="a_node5"><a xlink:href="$classPrivateBase.html" xlink:title="PrivateBase">
<polygon fill="none" stroke="black" points="271.324,-85 195.708,-85 195.708,-66 271.324,-66 271.324,-85"/>
<text text-anchor="middle" x="233.516" y="-72.2" font-family="Helvetica,sans-Serif" font-size="11.00">PrivateBase</text>
</a>
</g>
</g>
<!-- Node14&#45;&gt;Node9 -->
<g id="edge4" class="edge"><title>Node14&#45;&gt;Node9</title>
<path fill="none" stroke="#8b1a1a" d="M246.589,-57.7673C256.18,-45.4902 268.831,-29.2973 276.559,-19.4052"/>
<polygon fill="#8b1a1a" stroke="#8b1a1a" points="243.658,-55.8336 240.259,-65.8687 249.174,-60.1432 243.658,-55.8336"/>
</g>
<!-- Node15 -->
<g id="node6" class="node"><title>Node15</title>
<polygon fill="none" stroke="#bfbfbf" points="379.621,-85 289.411,-85 289.411,-66 379.621,-66 379.621,-85"/>
<text text-anchor="middle" x="334.516" y="-72.2" font-family="Helvetica,sans-Serif" font-size="11.00">Undocumented</text>
</g>
<!-- Node15&#45;&gt;Node9 -->
<g id="edge5" class="edge"><title>Node15&#45;&gt;Node9</title>
<path fill="none" stroke="midnightblue" d="M321.182,-57.7673C311.399,-45.4902 298.495,-29.2973 290.612,-19.4052"/>
<polygon fill="midnightblue" stroke="midnightblue" points="318.669,-60.2293 327.638,-65.8687 324.143,-55.8668 318.669,-60.2293"/>
</g>
<!-- Node16 -->
<g id="node7" class="node"><title>Node16</title>
<g id="a_node7"><a xlink:href="$classTempl.html" xlink:title="Templ&lt; int &gt;">
<polygon fill="none" stroke="black" points="473.436,-85 397.596,-85 397.596,-66 473.436,-66 473.436,-85"/>
<text text-anchor="middle" x="435.516" y="-72.2" font-family="Helvetica,sans-Serif" font-size="11.00">Templ&lt; int &gt;</text>
</a>
</g>
</g>
<!-- Node16&#45;&gt;Node9 -->
<g id="edge6" class="edge"><title>Node16&#45;&gt;Node9</title>
<path fill="none" stroke="midnightblue" d="M405.493,-61.8588C375.539,-49.2465 330.318,-30.2063 304.176,-19.199"/>
<polygon fill="midnightblue" stroke="midnightblue" points="404.442,-65.2138 415.017,-65.8687 407.159,-58.7623 404.442,-65.2138"/>
</g>
<!-- Node17 -->
<g id="node8" class="node"><title>Node17</title>
<g id="a_node8"><a xlink:href="$classTempl.html" xlink:title="Templ&lt; T &gt;">
<polygon fill="none" stroke="black" points="470.652,-151 400.38,-151 400.38,-132 470.652,-132 470.652,-151"/>
<text text-anchor="middle" x="435.516" y="-138.2" font-family="Helvetica,sans-Serif" font-size="11.00">Templ&lt; T &gt;</text>
</a>
</g>
</g>
<!-- Node17&#45;&gt;Node16 -->
<g id="edge7" class="edge"><title>Node17&#45;&gt;Node16</title>
<path fill="none" stroke="orange" stroke-dasharray="5,2" d="M435.516,-121.584C435.516,-109.625 435.516,-94.7211 435.516,-85.4052"/>
<polygon fill="orange" stroke="orange" points="432.016,-121.869 435.516,-131.869 439.016,-121.869 432.016,-121.869"/>
<text text-anchor="middle" x="450.805" y="-105.2" font-family="Helvetica,sans-Serif" font-size="11.00">&lt; int &gt;</text>
</g>
<!-- Node18 -->
<g id="node9" class="node"><title>Node18</title>
<g id="a_node9"><a xlink:href="$classUsed.html" xlink:title="Used">
<polygon fill="none" stroke="black" points="533.197,-85 491.836,-85 491.836,-66 533.197,-66 533.197,-85"/>
<text text-anchor="middle" x="512.516" y="-72.2" font-family="Helvetica,sans-Serif" font-size="11.00">Used</text>
</a>
</g>
</g>
<!-- Node18&#45;&gt;Node9 -->
<g id="edge8" class="edge"><title>Node18&#45;&gt;Node9</title>
<path fill="none" stroke="#9a32cd" stroke-dasharray="5,2" d="M481.791,-65.8047C415.717,-47.241 349.87,-28.9227 312.861,-18.6436"/>
<polygon fill="#9a32cd" stroke="#9a32cd" points="480.964,-69.2078 491.538,-68.5444 482.859,-62.4689 480.964,-69.2078"/>
<text text-anchor="middle" x="450.836" y="-39.2" font-family="Helvetica,sans-Serif" font-size="11.00">m_usedClass</text>
</g>
</g>
</svg>
