<?xml version="1.0" encoding="UTF-8" standalone="no"?>
<!DOCTYPE svg PUBLIC "-//W3C//DTD SVG 1.1//EN"
 "http://www.w3.org/Graphics/SVG/1.1/DTD/svg11.dtd">
<!-- Generated by graphviz version 2.38.0 (20140413.2041)
 -->
<!-- Title: maximum_potential_recharge__gridded_data::maximum_potential_recharge_initialize Pages: 1 -->
<svg width="361pt" height="50pt"
 viewBox="0.00 0.00 360.96 50.00" xmlns="http://www.w3.org/2000/svg" xmlns:xlink="http://www.w3.org/1999/xlink">
<g id="graph0" class="graph" transform="scale(1 1) rotate(0) translate(4 46)">
<title>maximum_potential_recharge__gridded_data::maximum_potential_recharge_initialize</title>
<polygon fill="white" stroke="none" points="-4,4 -4,-46 356.958,-46 356.958,4 -4,4"/>
<!-- Node1 -->
<g id="node1" class="node"><title>Node1</title>
<polygon fill="#bfbfbf" stroke="black" points="0,-0.5 0,-41.5 160.907,-41.5 160.907,-0.5 0,-0.5"/>
<text text-anchor="start" x="8" y="-28.7" font-family="Helvetica,sans-Serif" font-size="11.00">maximum_potential_recharge</text>
<text text-anchor="start" x="8" y="-17.7" font-family="Helvetica,sans-Serif" font-size="11.00">__gridded_data::maximum</text>
<text text-anchor="middle" x="80.4534" y="-6.7" font-family="Helvetica,sans-Serif" font-size="11.00">_potential_recharge_initialize</text>
</g>
<!-- Node2 -->
<g id="node2" class="node"><title>Node2</title>
<g id="a_node2"><a xlink:href="namespacemodel__domain.html#ad38bc313e8a8991afc18facdccd5cce3" target="_top" xlink:title="model_domain::model\l_initialize_maximum\l_potential_recharge_gridded">
<polygon fill="white" stroke="black" points="196.907,-0.5 196.907,-41.5 352.958,-41.5 352.958,-0.5 196.907,-0.5"/>
<text text-anchor="start" x="204.907" y="-28.7" font-family="Helvetica,sans-Serif" font-size="11.00">model_domain::model</text>
<text text-anchor="start" x="204.907" y="-17.7" font-family="Helvetica,sans-Serif" font-size="11.00">_initialize_maximum</text>
<text text-anchor="middle" x="274.932" y="-6.7" font-family="Helvetica,sans-Serif" font-size="11.00">_potential_recharge_gridded</text>
</a>
</g>
</g>
<!-- Node1&#45;&gt;Node2 -->
<g id="edge1" class="edge"><title>Node1&#45;&gt;Node2</title>
<path fill="none" stroke="midnightblue" d="M171.144,-21C179.715,-21 188.355,-21 196.791,-21"/>
<polygon fill="midnightblue" stroke="midnightblue" points="171.131,-17.5001 161.131,-21 171.131,-24.5001 171.131,-17.5001"/>
</g>
</g>
</svg>
