<?xml version="1.0" encoding="UTF-8" standalone="no"?>
<!DOCTYPE svg PUBLIC "-//W3C//DTD SVG 1.1//EN"
 "http://www.w3.org/Graphics/SVG/1.1/DTD/svg11.dtd">
<!-- Generated by graphviz version 2.38.0 (20140413.2041)
 -->
<!-- Title: netcdf4_support::nf_get_variable_id_and_type Pages: 1 -->
<svg width="934pt" height="269pt"
 viewBox="0.00 0.00 934.06 269.00" xmlns="http://www.w3.org/2000/svg" xmlns:xlink="http://www.w3.org/1999/xlink">
<g id="graph0" class="graph" transform="scale(1 1) rotate(0) translate(4 265)">
<title>netcdf4_support::nf_get_variable_id_and_type</title>
<polygon fill="white" stroke="none" points="-4,4 -4,-265 930.061,-265 930.061,4 -4,4"/>
<!-- Node545 -->
<g id="node1" class="node"><title>Node545</title>
<polygon fill="#bfbfbf" stroke="black" points="0,-121 0,-151 148.107,-151 148.107,-121 0,-121"/>
<text text-anchor="start" x="8" y="-138.2" font-family="Helvetica,sans-Serif" font-size="11.00">netcdf4_support::nf</text>
<text text-anchor="middle" x="74.0537" y="-127.2" font-family="Helvetica,sans-Serif" font-size="11.00">_get_variable_id_and_type</text>
</g>
<!-- Node546 -->
<g id="node2" class="node"><title>Node546</title>
<g id="a_node2"><a xlink:href="namespacenetcdf4__support.html#a6d3d402059d71a8bd24a01dc6116ff7d" target="_top" xlink:title="netcdf4_support::netcdf\l_open_and_prepare_as_input">
<polygon fill="white" stroke="black" points="187.472,-170 187.472,-200 350.27,-200 350.27,-170 187.472,-170"/>
<text text-anchor="start" x="195.472" y="-187.2" font-family="Helvetica,sans-Serif" font-size="11.00">netcdf4_support::netcdf</text>
<text text-anchor="middle" x="268.871" y="-176.2" font-family="Helvetica,sans-Serif" font-size="11.00">_open_and_prepare_as_input</text>
</a>
</g>
</g>
<!-- Node545&#45;&gt;Node546 -->
<g id="edge1" class="edge"><title>Node545&#45;&gt;Node546</title>
<path fill="none" stroke="midnightblue" d="M144.113,-153.55C165.287,-158.931 188.379,-164.799 208.821,-169.994"/>
<polygon fill="midnightblue" stroke="midnightblue" points="144.77,-150.105 134.216,-151.035 143.046,-156.89 144.77,-150.105"/>
</g>
<!-- Node550 -->
<g id="node6" class="node"><title>Node550</title>
<g id="a_node6"><a xlink:href="namespacenetcdf4__support.html#a4bc9b9f951c1dc1cc1f50ba727794071" target="_top" xlink:title="netcdf4_support::netcdf\l_open_and_prepare_as_output">
<polygon fill="white" stroke="black" points="184.107,-121 184.107,-151 353.635,-151 353.635,-121 184.107,-121"/>
<text text-anchor="start" x="192.107" y="-138.2" font-family="Helvetica,sans-Serif" font-size="11.00">netcdf4_support::netcdf</text>
<text text-anchor="middle" x="268.871" y="-127.2" font-family="Helvetica,sans-Serif" font-size="11.00">_open_and_prepare_as_output</text>
</a>
</g>
</g>
<!-- Node545&#45;&gt;Node550 -->
<g id="edge6" class="edge"><title>Node545&#45;&gt;Node550</title>
<path fill="none" stroke="midnightblue" d="M158.491,-136C166.978,-136 175.602,-136 184.093,-136"/>
<polygon fill="midnightblue" stroke="midnightblue" points="158.225,-132.5 148.225,-136 158.225,-139.5 158.225,-132.5"/>
</g>
<!-- Node554 -->
<g id="node10" class="node"><title>Node554</title>
<g id="a_node10"><a xlink:href="namespacenetcdf4__support.html#a6c0e12debd35545980fa63ade1094e93" target="_top" xlink:title="netcdf4_support::netcdf\l_open_and_prepare_as_output\l_archive">
<polygon fill="white" stroke="black" points="184.107,-60.5 184.107,-101.5 353.635,-101.5 353.635,-60.5 184.107,-60.5"/>
<text text-anchor="start" x="192.107" y="-88.7" font-family="Helvetica,sans-Serif" font-size="11.00">netcdf4_support::netcdf</text>
<text text-anchor="start" x="192.107" y="-77.7" font-family="Helvetica,sans-Serif" font-size="11.00">_open_and_prepare_as_output</text>
<text text-anchor="middle" x="268.871" y="-66.7" font-family="Helvetica,sans-Serif" font-size="11.00">_archive</text>
</a>
</g>
</g>
<!-- Node545&#45;&gt;Node554 -->
<g id="edge10" class="edge"><title>Node545&#45;&gt;Node554</title>
<path fill="none" stroke="midnightblue" d="M137.547,-118.174C156.114,-112.878 176.603,-107.034 195.73,-101.578"/>
<polygon fill="midnightblue" stroke="midnightblue" points="136.398,-114.862 127.742,-120.971 138.318,-121.594 136.398,-114.862"/>
</g>
<!-- Node556 -->
<g id="node12" class="node"><title>Node556</title>
<g id="a_node12"><a xlink:href="namespacenetcdf4__support.html#a8be734b602e654816c17b5e27d0fbffb" target="_top" xlink:title="netcdf4_support::netcdf\l_open_and_prepare_for\l_merging">
<polygon fill="white" stroke="black" points="201.848,-0.5 201.848,-41.5 335.894,-41.5 335.894,-0.5 201.848,-0.5"/>
<text text-anchor="start" x="209.848" y="-28.7" font-family="Helvetica,sans-Serif" font-size="11.00">netcdf4_support::netcdf</text>
<text text-anchor="start" x="209.848" y="-17.7" font-family="Helvetica,sans-Serif" font-size="11.00">_open_and_prepare_for</text>
<text text-anchor="middle" x="268.871" y="-6.7" font-family="Helvetica,sans-Serif" font-size="11.00">_merging</text>
</a>
</g>
</g>
<!-- Node545&#45;&gt;Node556 -->
<g id="edge12" class="edge"><title>Node545&#45;&gt;Node556</title>
<path fill="none" stroke="midnightblue" d="M98.3825,-114.212C119.468,-95.4376 152.031,-68.6483 184.107,-51 190.333,-47.5748 197.026,-44.4118 203.817,-41.5275"/>
<polygon fill="midnightblue" stroke="midnightblue" points="95.9645,-111.68 90.8884,-120.98 100.656,-116.875 95.9645,-111.68"/>
</g>
<!-- Node557 -->
<g id="node13" class="node"><title>Node557</title>
<g id="a_node13"><a xlink:href="namespacenetcdf4__support.html#a7b3b3cf3aab614eb336e12694c5d76ef" target="_top" xlink:title="netcdf4_support::netcdf\l_open_file">
<polygon fill="white" stroke="black" points="203.387,-219 203.387,-249 334.355,-249 334.355,-219 203.387,-219"/>
<text text-anchor="start" x="211.387" y="-236.2" font-family="Helvetica,sans-Serif" font-size="11.00">netcdf4_support::netcdf</text>
<text text-anchor="middle" x="268.871" y="-225.2" font-family="Helvetica,sans-Serif" font-size="11.00">_open_file</text>
</a>
</g>
</g>
<!-- Node545&#45;&gt;Node557 -->
<g id="edge13" class="edge"><title>Node545&#45;&gt;Node557</title>
<path fill="none" stroke="midnightblue" d="M101.157,-157.222C122.401,-173.6 153.737,-195.79 184.107,-210 191.232,-213.334 198.919,-216.303 206.645,-218.919"/>
<polygon fill="midnightblue" stroke="midnightblue" points="103.289,-154.446 93.2565,-151.039 98.9748,-159.959 103.289,-154.446"/>
</g>
<!-- Node547 -->
<g id="node3" class="node"><title>Node547</title>
<g id="a_node3"><a xlink:href="namespacedata__catalog__entry.html#aeb285131f87ed64deba0a9041a9c6405" target="_top" xlink:title="data_catalog_entry\l::getvalues_dynamic\l_netcdf_sub">
<polygon fill="white" stroke="black" points="411.96,-219.5 411.96,-260.5 528.238,-260.5 528.238,-219.5 411.96,-219.5"/>
<text text-anchor="start" x="419.96" y="-247.7" font-family="Helvetica,sans-Serif" font-size="11.00">data_catalog_entry</text>
<text text-anchor="start" x="419.96" y="-236.7" font-family="Helvetica,sans-Serif" font-size="11.00">::getvalues_dynamic</text>
<text text-anchor="middle" x="470.099" y="-225.7" font-family="Helvetica,sans-Serif" font-size="11.00">_netcdf_sub</text>
</a>
</g>
</g>
<!-- Node546&#45;&gt;Node547 -->
<g id="edge2" class="edge"><title>Node546&#45;&gt;Node547</title>
<path fill="none" stroke="midnightblue" d="M334.087,-202.728C359.135,-209.643 387.616,-217.505 411.941,-224.221"/>
<polygon fill="midnightblue" stroke="midnightblue" points="334.882,-199.316 324.311,-200.029 333.019,-206.064 334.882,-199.316"/>
</g>
<!-- Node549 -->
<g id="node5" class="node"><title>Node549</title>
<g id="a_node5"><a xlink:href="namespacedata__catalog__entry.html#ac3e1f0d9d9e146fbb77c0084e1e9fc14" target="_top" xlink:title="data_catalog_entry\l::getvalues_static_netcdf_sub">
<polygon fill="white" stroke="black" points="389.635,-170 389.635,-200 550.563,-200 550.563,-170 389.635,-170"/>
<text text-anchor="start" x="397.635" y="-187.2" font-family="Helvetica,sans-Serif" font-size="11.00">data_catalog_entry</text>
<text text-anchor="middle" x="470.099" y="-176.2" font-family="Helvetica,sans-Serif" font-size="11.00">::getvalues_static_netcdf_sub</text>
</a>
</g>
</g>
<!-- Node546&#45;&gt;Node549 -->
<g id="edge4" class="edge"><title>Node546&#45;&gt;Node549</title>
<path fill="none" stroke="midnightblue" d="M360.427,-185C370.172,-185 380.033,-185 389.634,-185"/>
<polygon fill="midnightblue" stroke="midnightblue" points="360.33,-181.5 350.33,-185 360.33,-188.5 360.33,-181.5"/>
</g>
<!-- Node548 -->
<g id="node4" class="node"><title>Node548</title>
<g id="a_node4"><a xlink:href="namespacedata__catalog__entry.html#a9e0a89ab19a5bfd61f2dfb8265648234" target="_top" xlink:title="data_catalog_entry\l::getvalues_sub">
<polygon fill="white" stroke="black" points="607.653,-197 607.653,-227 717.222,-227 717.222,-197 607.653,-197"/>
<text text-anchor="start" x="615.653" y="-214.2" font-family="Helvetica,sans-Serif" font-size="11.00">data_catalog_entry</text>
<text text-anchor="middle" x="662.438" y="-203.2" font-family="Helvetica,sans-Serif" font-size="11.00">::getvalues_sub</text>
</a>
</g>
</g>
<!-- Node547&#45;&gt;Node548 -->
<g id="edge3" class="edge"><title>Node547&#45;&gt;Node548</title>
<path fill="none" stroke="midnightblue" d="M538.653,-230.062C561.219,-226.743 586.052,-223.09 607.446,-219.942"/>
<polygon fill="midnightblue" stroke="midnightblue" points="537.849,-226.643 528.465,-231.561 538.868,-233.568 537.849,-226.643"/>
</g>
<!-- Node549&#45;&gt;Node548 -->
<g id="edge5" class="edge"><title>Node549&#45;&gt;Node548</title>
<path fill="none" stroke="midnightblue" d="M560.652,-197.703C576.679,-199.977 592.919,-202.281 607.546,-204.355"/>
<polygon fill="midnightblue" stroke="midnightblue" points="561.109,-194.233 550.717,-196.294 560.126,-201.164 561.109,-194.233"/>
</g>
<!-- Node551 -->
<g id="node7" class="node"><title>Node551</title>
<g id="a_node7"><a xlink:href="namespacefog____monthly__grid.html#a8e7386e0dfea998459a45c270e0afecc" target="_top" xlink:title="Initialize the fog drip algorithm. ">
<polygon fill="white" stroke="black" points="397.283,-121 397.283,-151 542.915,-151 542.915,-121 397.283,-121"/>
<text text-anchor="start" x="405.283" y="-138.2" font-family="Helvetica,sans-Serif" font-size="11.00">fog__monthly_grid::</text>
<text text-anchor="middle" x="470.099" y="-127.2" font-family="Helvetica,sans-Serif" font-size="11.00">fog_monthly_grid_initialize</text>
</a>
</g>
</g>
<!-- Node550&#45;&gt;Node551 -->
<g id="edge7" class="edge"><title>Node550&#45;&gt;Node551</title>
<path fill="none" stroke="midnightblue" d="M364.012,-136C375.194,-136 386.469,-136 397.27,-136"/>
<polygon fill="midnightblue" stroke="midnightblue" points="363.784,-132.5 353.784,-136 363.784,-139.5 363.784,-132.5"/>
</g>
<!-- Node552 -->
<g id="node8" class="node"><title>Node552</title>
<g id="a_node8"><a xlink:href="namespacemodel__domain.html#ad24a97a20a893d728e39930306e8b1d4" target="_top" xlink:title="model_domain::model\l_initialize_fog_monthly_grid">
<polygon fill="white" stroke="black" points="586.563,-121 586.563,-151 738.312,-151 738.312,-121 586.563,-121"/>
<text text-anchor="start" x="594.563" y="-138.2" font-family="Helvetica,sans-Serif" font-size="11.00">model_domain::model</text>
<text text-anchor="middle" x="662.438" y="-127.2" font-family="Helvetica,sans-Serif" font-size="11.00">_initialize_fog_monthly_grid</text>
</a>
</g>
</g>
<!-- Node551&#45;&gt;Node552 -->
<g id="edge8" class="edge"><title>Node551&#45;&gt;Node552</title>
<path fill="none" stroke="midnightblue" d="M553.154,-136C564.241,-136 575.571,-136 586.524,-136"/>
<polygon fill="midnightblue" stroke="midnightblue" points="553.058,-132.5 543.058,-136 553.058,-139.5 553.058,-132.5"/>
</g>
<!-- Node553 -->
<g id="node9" class="node"><title>Node553</title>
<g id="a_node9"><a xlink:href="namespacemodel__domain.html#aac78dbf26ba37cf86ebed4edd7acf89b" target="_top" xlink:title="model_domain::set_method\l_pointers_sub">
<polygon fill="white" stroke="black" points="774.312,-121 774.312,-151 926.061,-151 926.061,-121 774.312,-121"/>
<text text-anchor="start" x="782.312" y="-138.2" font-family="Helvetica,sans-Serif" font-size="11.00">model_domain::set_method</text>
<text text-anchor="middle" x="850.187" y="-127.2" font-family="Helvetica,sans-Serif" font-size="11.00">_pointers_sub</text>
</a>
</g>
</g>
<!-- Node552&#45;&gt;Node553 -->
<g id="edge9" class="edge"><title>Node552&#45;&gt;Node553</title>
<path fill="none" stroke="midnightblue" d="M748.47,-136C757.053,-136 765.726,-136 774.193,-136"/>
<polygon fill="midnightblue" stroke="midnightblue" points="748.453,-132.5 738.453,-136 748.453,-139.5 748.453,-132.5"/>
</g>
<!-- Node555 -->
<g id="node11" class="node"><title>Node555</title>
<g id="a_node11"><a xlink:href="namespacedata__catalog__entry.html#a3ea40e0b58c61d01a18065ea3c1b4fcd" target="_top" xlink:title="data_catalog_entry\l::put_values_to_local\l_netcdf_sub">
<polygon fill="white" stroke="black" points="410.424,-60.5 410.424,-101.5 529.774,-101.5 529.774,-60.5 410.424,-60.5"/>
<text text-anchor="start" x="418.424" y="-88.7" font-family="Helvetica,sans-Serif" font-size="11.00">data_catalog_entry</text>
<text text-anchor="start" x="418.424" y="-77.7" font-family="Helvetica,sans-Serif" font-size="11.00">::put_values_to_local</text>
<text text-anchor="middle" x="470.099" y="-66.7" font-family="Helvetica,sans-Serif" font-size="11.00">_netcdf_sub</text>
</a>
</g>
</g>
<!-- Node554&#45;&gt;Node555 -->
<g id="edge11" class="edge"><title>Node554&#45;&gt;Node555</title>
<path fill="none" stroke="midnightblue" d="M364.105,-81C379.875,-81 395.825,-81 410.369,-81"/>
<polygon fill="midnightblue" stroke="midnightblue" points="363.784,-77.5001 353.784,-81 363.784,-84.5001 363.784,-77.5001"/>
</g>
<!-- Node557&#45;&gt;Node547 -->
<g id="edge14" class="edge"><title>Node557&#45;&gt;Node547</title>
<path fill="none" stroke="midnightblue" d="M344.628,-236.251C366.859,-236.921 390.856,-237.644 411.79,-238.274"/>
<polygon fill="midnightblue" stroke="midnightblue" points="344.656,-232.751 334.555,-235.948 344.445,-239.748 344.656,-232.751"/>
</g>
<!-- Node557&#45;&gt;Node549 -->
<g id="edge15" class="edge"><title>Node557&#45;&gt;Node549</title>
<path fill="none" stroke="midnightblue" d="M340.93,-216.523C362.888,-211.123 386.869,-205.224 408.086,-200.006"/>
<polygon fill="midnightblue" stroke="midnightblue" points="339.875,-213.178 331,-218.965 341.546,-219.976 339.875,-213.178"/>
</g>
</g>
</svg>
