<?xml version="1.0" encoding="UTF-8" standalone="no"?>
<!DOCTYPE svg PUBLIC "-//W3C//DTD SVG 1.1//EN"
 "http://www.w3.org/Graphics/SVG/1.1/DTD/svg11.dtd">
<!-- Generated by graphviz version 2.38.0 (20140413.2041)
 -->
<!-- Title: grid::grid_lookupcolumn Pages: 1 -->
<svg width="310pt" height="66pt"
 viewBox="0.00 0.00 310.18 66.00" xmlns="http://www.w3.org/2000/svg" xmlns:xlink="http://www.w3.org/1999/xlink">
<g id="graph0" class="graph" transform="scale(1 1) rotate(0) translate(4 62)">
<title>grid::grid_lookupcolumn</title>
<polygon fill="white" stroke="none" points="-4,4 -4,-62 306.18,-62 306.18,4 -4,4"/>
<!-- Node99 -->
<g id="node1" class="node"><title>Node99</title>
<polygon fill="#bfbfbf" stroke="black" points="0,-19.5 0,-38.5 132.789,-38.5 132.789,-19.5 0,-19.5"/>
<text text-anchor="middle" x="66.3945" y="-25.7" font-family="Helvetica,sans-Serif" font-size="11.00">grid::grid_lookupcolumn</text>
</g>
<!-- Node100 -->
<g id="node2" class="node"><title>Node100</title>
<g id="a_node2"><a xlink:href="namespacegrid.html#af0be888e30050cab5dd00635c8054550" target="_top" xlink:title="grid::grid_interpolate">
<polygon fill="white" stroke="black" points="177.343,-38.5 177.343,-57.5 293.626,-57.5 293.626,-38.5 177.343,-38.5"/>
<text text-anchor="middle" x="235.484" y="-44.7" font-family="Helvetica,sans-Serif" font-size="11.00">grid::grid_interpolate</text>
</a>
</g>
</g>
<!-- Node99&#45;&gt;Node100 -->
<g id="edge1" class="edge"><title>Node99&#45;&gt;Node100</title>
<path fill="none" stroke="midnightblue" d="M142.993,-37.5964C154.502,-38.9051 166.214,-40.2369 177.245,-41.4912"/>
<polygon fill="midnightblue" stroke="midnightblue" points="143.285,-34.1071 132.953,-36.4548 142.494,-41.0623 143.285,-34.1071"/>
</g>
<!-- Node101 -->
<g id="node3" class="node"><title>Node101</title>
<g id="a_node3"><a xlink:href="namespacegrid.html#afd7fda66a536b307e496c9eb2ac768de" target="_top" xlink:title="grid::grid_searchcolumn">
<polygon fill="white" stroke="black" points="168.789,-0.5 168.789,-19.5 302.18,-19.5 302.18,-0.5 168.789,-0.5"/>
<text text-anchor="middle" x="235.484" y="-6.7" font-family="Helvetica,sans-Serif" font-size="11.00">grid::grid_searchcolumn</text>
</a>
</g>
</g>
<!-- Node99&#45;&gt;Node101 -->
<g id="edge2" class="edge"><title>Node99&#45;&gt;Node101</title>
<path fill="none" stroke="midnightblue" d="M142.923,-20.4116C151.479,-19.4387 160.147,-18.453 168.566,-17.4957"/>
<polygon fill="midnightblue" stroke="midnightblue" points="142.494,-16.9377 132.953,-21.5452 143.285,-23.8929 142.494,-16.9377"/>
</g>
</g>
</svg>
