<?xml version="1.0" encoding="UTF-8" standalone="no"?>
<!DOCTYPE svg PUBLIC "-//W3C//DTD SVG 1.1//EN"
 "http://www.w3.org/Graphics/SVG/1.1/DTD/svg11.dtd">
<!-- Generated by graphviz version 2.38.0 (20140413.2041)
 -->
<!-- Title: model_domain::model_initialize_crop_coefficient_fao56 Pages: 1 -->
<svg width="374pt" height="39pt"
 viewBox="0.00 0.00 373.80 39.00" xmlns="http://www.w3.org/2000/svg" xmlns:xlink="http://www.w3.org/1999/xlink">
<g id="graph0" class="graph" transform="scale(1 1) rotate(0) translate(4 35)">
<title>model_domain::model_initialize_crop_coefficient_fao56</title>
<polygon fill="white" stroke="none" points="-4,4 -4,-35 369.8,-35 369.8,4 -4,4"/>
<!-- Node452 -->
<g id="node1" class="node"><title>Node452</title>
<polygon fill="#bfbfbf" stroke="black" points="0,-0.5 0,-30.5 178.051,-30.5 178.051,-0.5 0,-0.5"/>
<text text-anchor="start" x="8" y="-17.7" font-family="Helvetica,sans-Serif" font-size="11.00">model_domain::model</text>
<text text-anchor="middle" x="89.0256" y="-6.7" font-family="Helvetica,sans-Serif" font-size="11.00">_initialize_crop_coefficient_fao56</text>
</g>
<!-- Node453 -->
<g id="node2" class="node"><title>Node453</title>
<g id="a_node2"><a xlink:href="namespacemodel__domain.html#aac78dbf26ba37cf86ebed4edd7acf89b" target="_top" xlink:title="model_domain::set_method\l_pointers_sub">
<polygon fill="white" stroke="black" points="214.051,-0.5 214.051,-30.5 365.8,-30.5 365.8,-0.5 214.051,-0.5"/>
<text text-anchor="start" x="222.051" y="-17.7" font-family="Helvetica,sans-Serif" font-size="11.00">model_domain::set_method</text>
<text text-anchor="middle" x="289.926" y="-6.7" font-family="Helvetica,sans-Serif" font-size="11.00">_pointers_sub</text>
</a>
</g>
</g>
<!-- Node452&#45;&gt;Node453 -->
<g id="edge1" class="edge"><title>Node452&#45;&gt;Node453</title>
<path fill="none" stroke="midnightblue" d="M188.254,-15.5C196.893,-15.5 205.543,-15.5 213.946,-15.5"/>
<polygon fill="midnightblue" stroke="midnightblue" points="188.135,-12.0001 178.135,-15.5 188.135,-19.0001 188.135,-12.0001"/>
</g>
</g>
</svg>
