<?xml version="1.0" encoding="UTF-8" standalone="no"?>
<!DOCTYPE svg PUBLIC "-//W3C//DTD SVG 1.1//EN"
 "http://www.w3.org/Graphics/SVG/1.1/DTD/svg11.dtd">
<!-- Generated by graphviz version 2.38.0 (20140413.2041)
 -->
<!-- Title: model_domain::model_calculate_gdd Pages: 1 -->
<svg width="293pt" height="50pt"
 viewBox="0.00 0.00 293.08 50.00" xmlns="http://www.w3.org/2000/svg" xmlns:xlink="http://www.w3.org/1999/xlink">
<g id="graph0" class="graph" transform="scale(1 1) rotate(0) translate(4 46)">
<title>model_domain::model_calculate_gdd</title>
<polygon fill="white" stroke="none" points="-4,4 -4,-46 289.083,-46 289.083,4 -4,4"/>
<!-- Node1 -->
<g id="node1" class="node"><title>Node1</title>
<polygon fill="#bfbfbf" stroke="black" points="0,-6 0,-36 124.228,-36 124.228,-6 0,-6"/>
<text text-anchor="start" x="8" y="-23.2" font-family="Helvetica,sans-Serif" font-size="11.00">model_domain::model</text>
<text text-anchor="middle" x="62.1138" y="-12.2" font-family="Helvetica,sans-Serif" font-size="11.00">_calculate_gdd</text>
</g>
<!-- Node2 -->
<g id="node2" class="node"><title>Node2</title>
<g id="a_node2"><a xlink:href="namespacegrowing__degree__day.html#a4804f8053abdc19f729942333b8e6685" target="_top" xlink:title="growing_degree_day\l::growing_degree_day\l_calculate">
<polygon fill="white" stroke="black" points="160.228,-0.5 160.228,-41.5 285.083,-41.5 285.083,-0.5 160.228,-0.5"/>
<text text-anchor="start" x="168.228" y="-28.7" font-family="Helvetica,sans-Serif" font-size="11.00">growing_degree_day</text>
<text text-anchor="start" x="168.228" y="-17.7" font-family="Helvetica,sans-Serif" font-size="11.00">::growing_degree_day</text>
<text text-anchor="middle" x="222.656" y="-6.7" font-family="Helvetica,sans-Serif" font-size="11.00">_calculate</text>
</a>
</g>
</g>
<!-- Node1&#45;&gt;Node2 -->
<g id="edge1" class="edge"><title>Node1&#45;&gt;Node2</title>
<path fill="none" stroke="midnightblue" d="M124.41,-21C132.711,-21 141.29,-21 149.755,-21"/>
<polygon fill="midnightblue" stroke="midnightblue" points="149.999,-24.5001 159.999,-21 149.999,-17.5001 149.999,-24.5001"/>
</g>
</g>
</svg>
