<?xml version="1.0" encoding="UTF-8" standalone="no"?>
<!DOCTYPE svg PUBLIC "-//W3C//DTD SVG 1.1//EN"
 "http://www.w3.org/Graphics/SVG/1.1/DTD/svg11.dtd">
<!-- Generated by graphviz version 2.38.0 (20140413.2041)
 -->
<!-- Title: netcdf4_support::nf_put_attribute Pages: 1 -->
<!--zoomable 100 -->
<svg id="main" version="1.1" xmlns="http://www.w3.org/2000/svg" xmlns:xlink="http://www.w3.org/1999/xlink" xml:space="preserve" onload="init(evt)">
<style type="text/css"><![CDATA[
.edge:hover path { stroke: red; }
.edge:hover polygon { stroke: red; fill: red; }
]]></style>
<script type="text/javascript"><![CDATA[
var edges = document.getElementsByTagName('g');
if (edges && edges.length) {
  for (var i=0;i<edges.length;i++) {
    if (edges[i].id.substr(0,4)=='edge') {
      edges[i].setAttribute('class','edge');
    }
  }
}
]]></script>
        <defs>
                <circle id="rim" cx="0" cy="0" r="7"/>
                <circle id="rim2" cx="0" cy="0" r="3.5"/>
                <g id="zoomPlus">
                        <use xlink:href="#rim" fill="#404040">
                                <set attributeName="fill" to="#808080" begin="zoomplus.mouseover" end="zoomplus.mouseout"/>
                        </use>
                        <path d="M-4,0h8M0,-4v8" fill="none" stroke="white" stroke-width="1.5" pointer-events="none"/>
                </g>
                <g id="zoomMin">
                        <use xlink:href="#rim" fill="#404040">
                                <set attributeName="fill" to="#808080" begin="zoomminus.mouseover" end="zoomminus.mouseout"/>
                        </use>
                        <path d="M-4,0h8" fill="none" stroke="white" stroke-width="1.5" pointer-events="none"/>
                </g>
                <g id="dirArrow">
                        <path fill="none" stroke="white" stroke-width="1.5" d="M0,-3.0v7 M-2.5,-0.5L0,-3.0L2.5,-0.5"/>
                </g>
               <g id="resetDef">
                       <use xlink:href="#rim2" fill="#404040">
                               <set attributeName="fill" to="#808080" begin="reset.mouseover" end="reset.mouseout"/>
                       </use>
               </g>
        </defs>

<script type="text/javascript">
var viewWidth = 1027;
var viewHeight = 100;
var sectionId = 'dynsection-98';
</script>
<script xlink:href="svgpan.js"/>
<svg id="graph" class="graph">
<g id="viewport">
<title>netcdf4_support::nf_put_attribute</title>
<polygon fill="white" stroke="none" points="-4,4 -4,-95.5 1023.01,-95.5 1023.01,4 -4,4"/>
<!-- Node689 -->
<g id="node1" class="node"><title>Node689</title>
<polygon fill="#bfbfbf" stroke="black" points="0,-27.5 0,-57.5 110.177,-57.5 110.177,-27.5 0,-27.5"/>
<text text-anchor="start" x="8" y="-44.7" font-family="Helvetica,sans-Serif" font-size="11.00">netcdf4_support::nf</text>
<text text-anchor="middle" x="55.0884" y="-33.7" font-family="Helvetica,sans-Serif" font-size="11.00">_put_attribute</text>
</g>
<!-- Node690 -->
<g id="node2" class="node"><title>Node690</title>
<g id="a_node2"><a xlink:href="namespacenetcdf4__support.html#a552fe7031185ea4d81868f4d62c44021" target="_top" xlink:title="netcdf4_support::nf\l_put_attributes">
<polygon fill="white" stroke="black" points="146.177,-27.5 146.177,-57.5 256.354,-57.5 256.354,-27.5 146.177,-27.5"/>
<text text-anchor="start" x="154.177" y="-44.7" font-family="Helvetica,sans-Serif" font-size="11.00">netcdf4_support::nf</text>
<text text-anchor="middle" x="201.265" y="-33.7" font-family="Helvetica,sans-Serif" font-size="11.00">_put_attributes</text>
</a>
</g>
</g>
<!-- Node689&#45;&gt;Node690 -->
<g id="edge1" class="edge"><title>Node689&#45;&gt;Node690</title>
<path fill="none" stroke="midnightblue" d="M120.437,-42.5C128.928,-42.5 137.564,-42.5 145.866,-42.5"/>
<polygon fill="midnightblue" stroke="midnightblue" points="120.185,-39.0001 110.185,-42.5 120.185,-46.0001 120.185,-39.0001"/>
</g>
<!-- Node691 -->
<g id="node3" class="node"><title>Node691</title>
<g id="a_node3"><a xlink:href="namespacenetcdf4__support.html#a6c0e12debd35545980fa63ade1094e93" target="_top" xlink:title="netcdf4_support::netcdf\l_open_and_prepare_as_output\l_archive">
<polygon fill="white" stroke="black" points="292.354,-50 292.354,-91 461.881,-91 461.881,-50 292.354,-50"/>
<text text-anchor="start" x="300.354" y="-78.2" font-family="Helvetica,sans-Serif" font-size="11.00">netcdf4_support::netcdf</text>
<text text-anchor="start" x="300.354" y="-67.2" font-family="Helvetica,sans-Serif" font-size="11.00">_open_and_prepare_as_output</text>
<text text-anchor="middle" x="377.117" y="-56.2" font-family="Helvetica,sans-Serif" font-size="11.00">_archive</text>
</a>
</g>
</g>
<!-- Node690&#45;&gt;Node691 -->
<g id="edge2" class="edge"><title>Node690&#45;&gt;Node691</title>
<path fill="none" stroke="midnightblue" d="M266.744,-52.8847C275.036,-54.2203 283.621,-55.6029 292.168,-56.9794"/>
<polygon fill="midnightblue" stroke="midnightblue" points="267.225,-49.4172 256.796,-51.2826 266.112,-56.3282 267.225,-49.4172"/>
</g>
<!-- Node693 -->
<g id="node5" class="node"><title>Node693</title>
<g id="a_node5"><a xlink:href="namespacenetcdf4__support.html#a4bc9b9f951c1dc1cc1f50ba727794071" target="_top" xlink:title="netcdf4_support::netcdf\l_open_and_prepare_as_output">
<polygon fill="white" stroke="black" points="292.354,-0.5 292.354,-30.5 461.881,-30.5 461.881,-0.5 292.354,-0.5"/>
<text text-anchor="start" x="300.354" y="-17.7" font-family="Helvetica,sans-Serif" font-size="11.00">netcdf4_support::netcdf</text>
<text text-anchor="middle" x="377.117" y="-6.7" font-family="Helvetica,sans-Serif" font-size="11.00">_open_and_prepare_as_output</text>
</a>
</g>
</g>
<!-- Node690&#45;&gt;Node693 -->
<g id="edge4" class="edge"><title>Node690&#45;&gt;Node693</title>
<path fill="none" stroke="midnightblue" d="M266.744,-32.4862C275.036,-31.1983 283.621,-29.865 292.168,-28.5377"/>
<polygon fill="midnightblue" stroke="midnightblue" points="266.14,-29.0378 256.796,-34.0311 267.215,-35.9549 266.14,-29.0378"/>
</g>
<!-- Node692 -->
<g id="node4" class="node"><title>Node692</title>
<g id="a_node4"><a xlink:href="namespacedata__catalog__entry.html#a3ea40e0b58c61d01a18065ea3c1b4fcd" target="_top" xlink:title="data_catalog_entry\l::put_values_to_local\l_netcdf_sub">
<polygon fill="white" stroke="black" points="511.021,-50 511.021,-91 630.372,-91 630.372,-50 511.021,-50"/>
<text text-anchor="start" x="519.021" y="-78.2" font-family="Helvetica,sans-Serif" font-size="11.00">data_catalog_entry</text>
<text text-anchor="start" x="519.021" y="-67.2" font-family="Helvetica,sans-Serif" font-size="11.00">::put_values_to_local</text>
<text text-anchor="middle" x="570.697" y="-56.2" font-family="Helvetica,sans-Serif" font-size="11.00">_netcdf_sub</text>
</a>
</g>
</g>
<!-- Node691&#45;&gt;Node692 -->
<g id="edge3" class="edge"><title>Node691&#45;&gt;Node692</title>
<path fill="none" stroke="midnightblue" d="M472.174,-70.5C485.32,-70.5 498.508,-70.5 510.75,-70.5"/>
<polygon fill="midnightblue" stroke="midnightblue" points="472.147,-67.0001 462.147,-70.5 472.147,-74.0001 472.147,-67.0001"/>
</g>
<!-- Node694 -->
<g id="node6" class="node"><title>Node694</title>
<g id="a_node6"><a xlink:href="namespacefog____monthly__grid.html#a8e7386e0dfea998459a45c270e0afecc" target="_top" xlink:title="Initialize the fog drip algorithm. ">
<polygon fill="white" stroke="black" points="497.881,-0.5 497.881,-30.5 643.512,-30.5 643.512,-0.5 497.881,-0.5"/>
<text text-anchor="start" x="505.881" y="-17.7" font-family="Helvetica,sans-Serif" font-size="11.00">fog__monthly_grid::</text>
<text text-anchor="middle" x="570.697" y="-6.7" font-family="Helvetica,sans-Serif" font-size="11.00">fog_monthly_grid_initialize</text>
</a>
</g>
</g>
<!-- Node693&#45;&gt;Node694 -->
<g id="edge5" class="edge"><title>Node693&#45;&gt;Node694</title>
<path fill="none" stroke="midnightblue" d="M472.198,-15.5C480.781,-15.5 489.383,-15.5 497.727,-15.5"/>
<polygon fill="midnightblue" stroke="midnightblue" points="472.147,-12.0001 462.147,-15.5 472.147,-19.0001 472.147,-12.0001"/>
</g>
<!-- Node695 -->
<g id="node7" class="node"><title>Node695</title>
<g id="a_node7"><a xlink:href="namespacemodel__domain.html#ad24a97a20a893d728e39930306e8b1d4" target="_top" xlink:title="model_domain::model\l_initialize_fog_monthly_grid">
<polygon fill="white" stroke="black" points="679.512,-0.5 679.512,-30.5 831.261,-30.5 831.261,-0.5 679.512,-0.5"/>
<text text-anchor="start" x="687.512" y="-17.7" font-family="Helvetica,sans-Serif" font-size="11.00">model_domain::model</text>
<text text-anchor="middle" x="755.387" y="-6.7" font-family="Helvetica,sans-Serif" font-size="11.00">_initialize_fog_monthly_grid</text>
</a>
</g>
</g>
<!-- Node694&#45;&gt;Node695 -->
<g id="edge6" class="edge"><title>Node694&#45;&gt;Node695</title>
<path fill="none" stroke="midnightblue" d="M653.668,-15.5C662.272,-15.5 670.988,-15.5 679.506,-15.5"/>
<polygon fill="midnightblue" stroke="midnightblue" points="653.638,-12.0001 643.638,-15.5 653.638,-19.0001 653.638,-12.0001"/>
</g>
<!-- Node696 -->
<g id="node8" class="node"><title>Node696</title>
<g id="a_node8"><a xlink:href="namespacemodel__domain.html#aac78dbf26ba37cf86ebed4edd7acf89b" target="_top" xlink:title="model_domain::set_method\l_pointers_sub">
<polygon fill="white" stroke="black" points="867.261,-0.5 867.261,-30.5 1019.01,-30.5 1019.01,-0.5 867.261,-0.5"/>
<text text-anchor="start" x="875.261" y="-17.7" font-family="Helvetica,sans-Serif" font-size="11.00">model_domain::set_method</text>
<text text-anchor="middle" x="943.136" y="-6.7" font-family="Helvetica,sans-Serif" font-size="11.00">_pointers_sub</text>
</a>
</g>
</g>
<!-- Node695&#45;&gt;Node696 -->
<g id="edge7" class="edge"><title>Node695&#45;&gt;Node696</title>
<path fill="none" stroke="midnightblue" d="M841.419,-15.5C850.002,-15.5 858.675,-15.5 867.142,-15.5"/>
<polygon fill="midnightblue" stroke="midnightblue" points="841.403,-12.0001 831.403,-15.5 841.403,-19.0001 841.403,-12.0001"/>
</g>
</g>
</svg>
        <g id="navigator" transform="translate(0 0)" fill="#404254">
                <rect fill="#f2f5e9" fill-opacity="0.5" stroke="#606060" stroke-width=".5" x="0" y="0" width="60" height="60"/>
                <use id="zoomplus" xlink:href="#zoomPlus" x="17" y="9" onmousedown="handleZoom(evt,'in')"/>
                <use id="zoomminus" xlink:href="#zoomMin" x="42" y="9" onmousedown="handleZoom(evt,'out')"/>
                <use id="reset" xlink:href="#resetDef" x="30" y="36" onmousedown="handleReset()"/>
                <g id="arrowUp" xlink:href="#dirArrow" transform="translate(30 24)" onmousedown="handlePan(0,-1)">
                  <use xlink:href="#rim" fill="#404040">
                        <set attributeName="fill" to="#808080" begin="arrowUp.mouseover" end="arrowUp.mouseout"/>
                  </use>
                  <path fill="none" stroke="white" stroke-width="1.5" d="M0,-3.0v7 M-2.5,-0.5L0,-3.0L2.5,-0.5"/>
                </g>
                <g id="arrowRight" xlink:href="#dirArrow" transform="rotate(90) translate(36 -43)" onmousedown="handlePan(1,0)">
                  <use xlink:href="#rim" fill="#404040">
                        <set attributeName="fill" to="#808080" begin="arrowRight.mouseover" end="arrowRight.mouseout"/>
                  </use>
                  <path fill="none" stroke="white" stroke-width="1.5" d="M0,-3.0v7 M-2.5,-0.5L0,-3.0L2.5,-0.5"/>
                </g>
                <g id="arrowDown" xlink:href="#dirArrow" transform="rotate(180) translate(-30 -48)" onmousedown="handlePan(0,1)">
                  <use xlink:href="#rim" fill="#404040">
                        <set attributeName="fill" to="#808080" begin="arrowDown.mouseover" end="arrowDown.mouseout"/>
                  </use>
                  <path fill="none" stroke="white" stroke-width="1.5" d="M0,-3.0v7 M-2.5,-0.5L0,-3.0L2.5,-0.5"/>
                </g>
                <g id="arrowLeft" xlink:href="#dirArrow" transform="rotate(270) translate(-36 17)" onmousedown="handlePan(-1,0)">
                  <use xlink:href="#rim" fill="#404040">
                        <set attributeName="fill" to="#808080" begin="arrowLeft.mouseover" end="arrowLeft.mouseout"/>
                  </use>
                  <path fill="none" stroke="white" stroke-width="1.5" d="M0,-3.0v7 M-2.5,-0.5L0,-3.0L2.5,-0.5"/>
                </g>
        </g>
        <svg viewBox="0 0 15 15" width="100%" height="30px" preserveAspectRatio="xMaxYMin meet">
         <g id="arrow_out" transform="scale(0.3 0.3)">
          <a xlink:href="namespacenetcdf4__support_ac357b1ab9f92cd64fde8c8863e4b0dfb_icgraph_org.svg" target="_base">
           <rect id="button" ry="5" rx="5" y="6" x="6" height="38" width="38"
                fill="#f2f5e9" fill-opacity="0.5" stroke="#606060" stroke-width="1.0"/>
           <path id="arrow"
             d="M 11.500037,31.436501 C 11.940474,20.09759 22.043105,11.32322 32.158766,21.979434 L 37.068811,17.246167 C 37.068811,17.246167 37.088388,32 37.088388,32 L 22.160133,31.978069 C 22.160133,31.978069 26.997745,27.140456 26.997745,27.140456 C 18.528582,18.264221 13.291696,25.230495 11.500037,31.436501 z"
             style="fill:#404040;"/>
          </a>
         </g>
        </svg>
</svg>
