<?xml version="1.0" encoding="UTF-8" standalone="no"?>
<!DOCTYPE svg PUBLIC "-//W3C//DTD SVG 1.1//EN"
 "http://www.w3.org/Graphics/SVG/1.1/DTD/svg11.dtd">
<!-- Generated by graphviz version 2.38.0 (20140413.2041)
 -->
<!-- Title: storm_drain_capture::storm_drain_capture_initialize Pages: 1 -->
<svg width="569pt" height="50pt"
 viewBox="0.00 0.00 568.86 50.00" xmlns="http://www.w3.org/2000/svg" xmlns:xlink="http://www.w3.org/1999/xlink">
<g id="graph0" class="graph" transform="scale(1 1) rotate(0) translate(4 46)">
<title>storm_drain_capture::storm_drain_capture_initialize</title>
<polygon fill="white" stroke="none" points="-4,4 -4,-46 564.856,-46 564.856,4 -4,4"/>
<!-- Node1 -->
<g id="node1" class="node"><title>Node1</title>
<polygon fill="#bfbfbf" stroke="black" points="0,-0.5 0,-41.5 122.998,-41.5 122.998,-0.5 0,-0.5"/>
<text text-anchor="start" x="8" y="-28.7" font-family="Helvetica,sans-Serif" font-size="11.00">storm_drain_capture</text>
<text text-anchor="start" x="8" y="-17.7" font-family="Helvetica,sans-Serif" font-size="11.00">::storm_drain_capture</text>
<text text-anchor="middle" x="61.4988" y="-6.7" font-family="Helvetica,sans-Serif" font-size="11.00">_initialize</text>
</g>
<!-- Node2 -->
<g id="node2" class="node"><title>Node2</title>
<g id="a_node2"><a xlink:href="namespacemodel__initialize.html#a39e959b59f3ec67f64a1b37a5b30ebc2" target="_top" xlink:title="model_initialize::initialize\l_ancillary_values">
<polygon fill="white" stroke="black" points="158.998,-6 158.998,-36 295.444,-36 295.444,-6 158.998,-6"/>
<text text-anchor="start" x="166.998" y="-23.2" font-family="Helvetica,sans-Serif" font-size="11.00">model_initialize::initialize</text>
<text text-anchor="middle" x="227.221" y="-12.2" font-family="Helvetica,sans-Serif" font-size="11.00">_ancillary_values</text>
</a>
</g>
</g>
<!-- Node1&#45;&gt;Node2 -->
<g id="edge1" class="edge"><title>Node1&#45;&gt;Node2</title>
<path fill="none" stroke="midnightblue" d="M133.239,-21C141.722,-21 150.368,-21 158.802,-21"/>
<polygon fill="midnightblue" stroke="midnightblue" points="132.998,-17.5001 122.998,-21 132.998,-24.5001 132.998,-17.5001"/>
</g>
<!-- Node3 -->
<g id="node3" class="node"><title>Node3</title>
<g id="a_node3"><a xlink:href="namespacemodel__initialize.html#a46370bf2e9ea112d1f219277ba7fd3ce" target="_top" xlink:title="model_initialize::initialize_all">
<polygon fill="white" stroke="black" points="331.444,-11.5 331.444,-30.5 485.014,-30.5 485.014,-11.5 331.444,-11.5"/>
<text text-anchor="middle" x="408.229" y="-17.7" font-family="Helvetica,sans-Serif" font-size="11.00">model_initialize::initialize_all</text>
</a>
</g>
</g>
<!-- Node2&#45;&gt;Node3 -->
<g id="edge2" class="edge"><title>Node2&#45;&gt;Node3</title>
<path fill="none" stroke="midnightblue" d="M305.809,-21C314.219,-21 322.772,-21 331.164,-21"/>
<polygon fill="midnightblue" stroke="midnightblue" points="305.641,-17.5001 295.641,-21 305.641,-24.5001 305.641,-17.5001"/>
</g>
<!-- Node4 -->
<g id="node4" class="node"><title>Node4</title>
<g id="a_node4"><a xlink:href="main_8F90.html#a8ec2266d83cd6c0b762cbcbc92c0af3d" target="_top" xlink:title="Main program which references all other modules; execution begins here. ">
<polygon fill="white" stroke="black" points="521.014,-11.5 521.014,-30.5 560.856,-30.5 560.856,-11.5 521.014,-11.5"/>
<text text-anchor="middle" x="540.935" y="-17.7" font-family="Helvetica,sans-Serif" font-size="11.00">main</text>
</a>
</g>
</g>
<!-- Node3&#45;&gt;Node4 -->
<g id="edge3" class="edge"><title>Node3&#45;&gt;Node4</title>
<path fill="none" stroke="midnightblue" d="M495.354,-21C504.849,-21 513.691,-21 520.956,-21"/>
<polygon fill="midnightblue" stroke="midnightblue" points="495.262,-17.5001 485.262,-21 495.261,-24.5001 495.262,-17.5001"/>
</g>
</g>
</svg>
