<?xml version="1.0" encoding="UTF-8" standalone="no"?>
<!DOCTYPE svg PUBLIC "-//W3C//DTD SVG 1.1//EN"
 "http://www.w3.org/Graphics/SVG/1.1/DTD/svg11.dtd">
<!-- Generated by graphviz version 2.38.0 (20140413.2041)
 -->
<!-- Title: awc__gridded_values::awc_gridded_values_read Pages: 1 -->
<svg width="509pt" height="50pt"
 viewBox="0.00 0.00 508.97 50.00" xmlns="http://www.w3.org/2000/svg" xmlns:xlink="http://www.w3.org/1999/xlink">
<g id="graph0" class="graph" transform="scale(1 1) rotate(0) translate(4 46)">
<title>awc__gridded_values::awc_gridded_values_read</title>
<polygon fill="white" stroke="none" points="-4,4 -4,-46 504.972,-46 504.972,4 -4,4"/>
<!-- Node1 -->
<g id="node1" class="node"><title>Node1</title>
<polygon fill="#bfbfbf" stroke="black" points="0,-6 0,-36 150.535,-36 150.535,-6 0,-6"/>
<text text-anchor="start" x="8" y="-23.2" font-family="Helvetica,sans-Serif" font-size="11.00">awc__gridded_values</text>
<text text-anchor="middle" x="75.2676" y="-12.2" font-family="Helvetica,sans-Serif" font-size="11.00">::awc_gridded_values_read</text>
</g>
<!-- Node2 -->
<g id="node2" class="node"><title>Node2</title>
<g id="a_node2"><a xlink:href="namespacemodel__domain.html#a1865c8bd569fa350c86066c146360dd9" target="_top" xlink:title="model_domain::model\l_read_available_water\l_content_gridded">
<polygon fill="white" stroke="black" points="186.535,-0.5 186.535,-41.5 313.223,-41.5 313.223,-0.5 186.535,-0.5"/>
<text text-anchor="start" x="194.535" y="-28.7" font-family="Helvetica,sans-Serif" font-size="11.00">model_domain::model</text>
<text text-anchor="start" x="194.535" y="-17.7" font-family="Helvetica,sans-Serif" font-size="11.00">_read_available_water</text>
<text text-anchor="middle" x="249.879" y="-6.7" font-family="Helvetica,sans-Serif" font-size="11.00">_content_gridded</text>
</a>
</g>
</g>
<!-- Node1&#45;&gt;Node2 -->
<g id="edge1" class="edge"><title>Node1&#45;&gt;Node2</title>
<path fill="none" stroke="midnightblue" d="M160.783,-21C169.379,-21 177.999,-21 186.302,-21"/>
<polygon fill="midnightblue" stroke="midnightblue" points="160.723,-17.5001 150.723,-21 160.723,-24.5001 160.723,-17.5001"/>
</g>
<!-- Node3 -->
<g id="node3" class="node"><title>Node3</title>
<g id="a_node3"><a xlink:href="namespacemodel__domain.html#aac78dbf26ba37cf86ebed4edd7acf89b" target="_top" xlink:title="model_domain::set_method\l_pointers_sub">
<polygon fill="white" stroke="black" points="349.223,-6 349.223,-36 500.972,-36 500.972,-6 349.223,-6"/>
<text text-anchor="start" x="357.223" y="-23.2" font-family="Helvetica,sans-Serif" font-size="11.00">model_domain::set_method</text>
<text text-anchor="middle" x="425.097" y="-12.2" font-family="Helvetica,sans-Serif" font-size="11.00">_pointers_sub</text>
</a>
</g>
</g>
<!-- Node2&#45;&gt;Node3 -->
<g id="edge2" class="edge"><title>Node2&#45;&gt;Node3</title>
<path fill="none" stroke="midnightblue" d="M323.548,-21C331.947,-21 340.525,-21 348.956,-21"/>
<polygon fill="midnightblue" stroke="midnightblue" points="323.415,-17.5001 313.415,-21 323.415,-24.5001 323.415,-17.5001"/>
</g>
</g>
</svg>
