<?xml version="1.0" encoding="UTF-8" standalone="no"?>
<!DOCTYPE svg PUBLIC "-//W3C//DTD SVG 1.1//EN"
 "http://www.w3.org/Graphics/SVG/1.1/DTD/svg11.dtd">
<!-- Generated by graphviz version 2.38.0 (20140413.2041)
 -->
<!-- Title: model_domain::model_initialize_maximum_potential_recharge_gridded Pages: 1 -->
<svg width="361pt" height="50pt"
 viewBox="0.00 0.00 360.96 50.00" xmlns="http://www.w3.org/2000/svg" xmlns:xlink="http://www.w3.org/1999/xlink">
<g id="graph0" class="graph" transform="scale(1 1) rotate(0) translate(4 46)">
<title>model_domain::model_initialize_maximum_potential_recharge_gridded</title>
<polygon fill="white" stroke="none" points="-4,4 -4,-46 356.958,-46 356.958,4 -4,4"/>
<!-- Node1 -->
<g id="node1" class="node"><title>Node1</title>
<polygon fill="#bfbfbf" stroke="black" points="0,-0.5 0,-41.5 156.051,-41.5 156.051,-0.5 0,-0.5"/>
<text text-anchor="start" x="8" y="-28.7" font-family="Helvetica,sans-Serif" font-size="11.00">model_domain::model</text>
<text text-anchor="start" x="8" y="-17.7" font-family="Helvetica,sans-Serif" font-size="11.00">_initialize_maximum</text>
<text text-anchor="middle" x="78.0256" y="-6.7" font-family="Helvetica,sans-Serif" font-size="11.00">_potential_recharge_gridded</text>
</g>
<!-- Node2 -->
<g id="node2" class="node"><title>Node2</title>
<g id="a_node2"><a xlink:href="namespacemaximum__potential__recharge____gridded__data.html#acdc31744ab674d2b78d362df6587cf42" target="_top" xlink:title="Initialize the routine to establish maximum potential recharge rates. ">
<polygon fill="white" stroke="black" points="192.051,-0.5 192.051,-41.5 352.958,-41.5 352.958,-0.5 192.051,-0.5"/>
<text text-anchor="start" x="200.051" y="-28.7" font-family="Helvetica,sans-Serif" font-size="11.00">maximum_potential_recharge</text>
<text text-anchor="start" x="200.051" y="-17.7" font-family="Helvetica,sans-Serif" font-size="11.00">__gridded_data::maximum</text>
<text text-anchor="middle" x="272.505" y="-6.7" font-family="Helvetica,sans-Serif" font-size="11.00">_potential_recharge_initialize</text>
</a>
</g>
</g>
<!-- Node1&#45;&gt;Node2 -->
<g id="edge1" class="edge"><title>Node1&#45;&gt;Node2</title>
<path fill="none" stroke="midnightblue" d="M156.205,-21C164.533,-21 173.059,-21 181.521,-21"/>
<polygon fill="midnightblue" stroke="midnightblue" points="181.792,-24.5001 191.792,-21 181.792,-17.5001 181.792,-24.5001"/>
</g>
</g>
</svg>
