<?xml version="1.0" encoding="UTF-8" standalone="no"?>
<!DOCTYPE svg PUBLIC "-//W3C//DTD SVG 1.1//EN"
 "http://www.w3.org/Graphics/SVG/1.1/DTD/svg11.dtd">
<!-- Generated by graphviz version 2.38.0 (20140413.2041)
 -->
<!-- Title: model_domain::model_initialize_interception_gash Pages: 1 -->
<svg width="350pt" height="39pt"
 viewBox="0.00 0.00 349.95 39.00" xmlns="http://www.w3.org/2000/svg" xmlns:xlink="http://www.w3.org/1999/xlink">
<g id="graph0" class="graph" transform="scale(1 1) rotate(0) translate(4 35)">
<title>model_domain::model_initialize_interception_gash</title>
<polygon fill="white" stroke="none" points="-4,4 -4,-35 345.953,-35 345.953,4 -4,4"/>
<!-- Node188 -->
<g id="node1" class="node"><title>Node188</title>
<polygon fill="#bfbfbf" stroke="black" points="0,-0.5 0,-30.5 154.204,-30.5 154.204,-0.5 0,-0.5"/>
<text text-anchor="start" x="8" y="-17.7" font-family="Helvetica,sans-Serif" font-size="11.00">model_domain::model</text>
<text text-anchor="middle" x="77.1018" y="-6.7" font-family="Helvetica,sans-Serif" font-size="11.00">_initialize_interception_gash</text>
</g>
<!-- Node189 -->
<g id="node2" class="node"><title>Node189</title>
<g id="a_node2"><a xlink:href="namespacemodel__domain.html#aac78dbf26ba37cf86ebed4edd7acf89b" target="_top" xlink:title="model_domain::set_method\l_pointers_sub">
<polygon fill="white" stroke="black" points="190.204,-0.5 190.204,-30.5 341.953,-30.5 341.953,-0.5 190.204,-0.5"/>
<text text-anchor="start" x="198.204" y="-17.7" font-family="Helvetica,sans-Serif" font-size="11.00">model_domain::set_method</text>
<text text-anchor="middle" x="266.078" y="-6.7" font-family="Helvetica,sans-Serif" font-size="11.00">_pointers_sub</text>
</a>
</g>
</g>
<!-- Node188&#45;&gt;Node189 -->
<g id="edge1" class="edge"><title>Node188&#45;&gt;Node189</title>
<path fill="none" stroke="midnightblue" d="M164.654,-15.5C173.089,-15.5 181.6,-15.5 189.91,-15.5"/>
<polygon fill="midnightblue" stroke="midnightblue" points="164.422,-12.0001 154.422,-15.5 164.422,-19.0001 164.422,-12.0001"/>
</g>
</g>
</svg>
