<?xml version="1.0" encoding="UTF-8" standalone="no"?>
<!DOCTYPE svg PUBLIC "-//W3C//DTD SVG 1.1//EN"
 "http://www.w3.org/Graphics/SVG/1.1/DTD/svg11.dtd">
<!-- Generated by graphviz version 2.38.0 (20140413.2041)
 -->
<!-- Title: netcdf4_support::nf_put_attributes Pages: 1 -->
<svg width="624pt" height="39pt"
 viewBox="0.00 0.00 623.97 39.00" xmlns="http://www.w3.org/2000/svg" xmlns:xlink="http://www.w3.org/1999/xlink">
<g id="graph0" class="graph" transform="scale(1 1) rotate(0) translate(4 35)">
<title>netcdf4_support::nf_put_attributes</title>
<polygon fill="white" stroke="none" points="-4,4 -4,-35 619.969,-35 619.969,4 -4,4"/>
<!-- Node697 -->
<g id="node1" class="node"><title>Node697</title>
<polygon fill="#bfbfbf" stroke="black" points="0,-0.5 0,-30.5 110.177,-30.5 110.177,-0.5 0,-0.5"/>
<text text-anchor="start" x="8" y="-17.7" font-family="Helvetica,sans-Serif" font-size="11.00">netcdf4_support::nf</text>
<text text-anchor="middle" x="55.0884" y="-6.7" font-family="Helvetica,sans-Serif" font-size="11.00">_put_attributes</text>
</g>
<!-- Node698 -->
<g id="node2" class="node"><title>Node698</title>
<g id="a_node2"><a xlink:href="namespacenetcdf4__support.html#ac357b1ab9f92cd64fde8c8863e4b0dfb" target="_top" xlink:title="netcdf4_support::nf\l_put_attribute">
<polygon fill="white" stroke="black" points="146.177,-0.5 146.177,-30.5 256.354,-30.5 256.354,-0.5 146.177,-0.5"/>
<text text-anchor="start" x="154.177" y="-17.7" font-family="Helvetica,sans-Serif" font-size="11.00">netcdf4_support::nf</text>
<text text-anchor="middle" x="201.265" y="-6.7" font-family="Helvetica,sans-Serif" font-size="11.00">_put_attribute</text>
</a>
</g>
</g>
<!-- Node697&#45;&gt;Node698 -->
<g id="edge1" class="edge"><title>Node697&#45;&gt;Node698</title>
<path fill="none" stroke="midnightblue" d="M110.185,-15.5C118.478,-15.5 127.112,-15.5 135.606,-15.5"/>
<polygon fill="midnightblue" stroke="midnightblue" points="135.866,-19.0001 145.866,-15.5 135.866,-12.0001 135.866,-19.0001"/>
</g>
<!-- Node699 -->
<g id="node3" class="node"><title>Node699</title>
<g id="a_node3"><a xlink:href="namespacenetcdf4__support.html#ac8c7276a5849ae6d17ffef1787e3f234" target="_top" xlink:title="netcdf4_support::nf_trap">
<polygon fill="white" stroke="black" points="292.354,-6 292.354,-25 427.603,-25 427.603,-6 292.354,-6"/>
<text text-anchor="middle" x="359.978" y="-12.2" font-family="Helvetica,sans-Serif" font-size="11.00">netcdf4_support::nf_trap</text>
</a>
</g>
</g>
<!-- Node698&#45;&gt;Node699 -->
<g id="edge2" class="edge"><title>Node698&#45;&gt;Node699</title>
<path fill="none" stroke="midnightblue" d="M256.636,-15.5C264.896,-15.5 273.55,-15.5 282.178,-15.5"/>
<polygon fill="midnightblue" stroke="midnightblue" points="282.271,-19.0001 292.271,-15.5 282.271,-12.0001 282.271,-19.0001"/>
</g>
<!-- Node700 -->
<g id="node4" class="node"><title>Node700</title>
<g id="a_node4"><a xlink:href="namespaceconstants__and__conversions.html#ac13fba285229deab77131132e6f62caf" target="_top" xlink:title="constants_and_conversions\l::char_ptr_to_fortran_string">
<polygon fill="white" stroke="black" points="463.603,-0.5 463.603,-30.5 615.969,-30.5 615.969,-0.5 463.603,-0.5"/>
<text text-anchor="start" x="471.603" y="-17.7" font-family="Helvetica,sans-Serif" font-size="11.00">constants_and_conversions</text>
<text text-anchor="middle" x="539.786" y="-6.7" font-family="Helvetica,sans-Serif" font-size="11.00">::char_ptr_to_fortran_string</text>
</a>
</g>
</g>
<!-- Node699&#45;&gt;Node700 -->
<g id="edge3" class="edge"><title>Node699&#45;&gt;Node700</title>
<path fill="none" stroke="midnightblue" d="M427.693,-15.5C436.051,-15.5 444.688,-15.5 453.282,-15.5"/>
<polygon fill="midnightblue" stroke="midnightblue" points="453.333,-19.0001 463.333,-15.5 453.333,-12.0001 453.333,-19.0001"/>
</g>
</g>
</svg>
