<?xml version="1.0" encoding="UTF-8" standalone="no"?>
<!DOCTYPE svg PUBLIC "-//W3C//DTD SVG 1.1//EN"
 "http://www.w3.org/Graphics/SVG/1.1/DTD/svg11.dtd">
<!-- Generated by graphviz version 2.38.0 (20140413.2041)
 -->
<!-- Title: grid::grid_readarcgrid_fn Pages: 1 -->
<svg width="584pt" height="39pt"
 viewBox="0.00 0.00 584.21 39.00" xmlns="http://www.w3.org/2000/svg" xmlns:xlink="http://www.w3.org/1999/xlink">
<g id="graph0" class="graph" transform="scale(1 1) rotate(0) translate(4 35)">
<title>grid::grid_readarcgrid_fn</title>
<polygon fill="white" stroke="none" points="-4,4 -4,-35 580.212,-35 580.212,4 -4,4"/>
<!-- Node44 -->
<g id="node1" class="node"><title>Node44</title>
<polygon fill="#bfbfbf" stroke="black" points="0,-6 0,-25 135.845,-25 135.845,-6 0,-6"/>
<text text-anchor="middle" x="67.9226" y="-12.2" font-family="Helvetica,sans-Serif" font-size="11.00">grid::grid_readarcgrid_fn</text>
</g>
<!-- Node45 -->
<g id="node2" class="node"><title>Node45</title>
<g id="a_node2"><a xlink:href="namespacegrid.html#a6668cfaf4657e4e5ebc2d49d0cdbb204" target="_top" xlink:title="grid::grid_read">
<polygon fill="white" stroke="black" points="171.845,-6 171.845,-25 258.776,-25 258.776,-6 171.845,-6"/>
<text text-anchor="middle" x="215.311" y="-12.2" font-family="Helvetica,sans-Serif" font-size="11.00">grid::grid_read</text>
</a>
</g>
</g>
<!-- Node44&#45;&gt;Node45 -->
<g id="edge1" class="edge"><title>Node44&#45;&gt;Node45</title>
<path fill="none" stroke="midnightblue" d="M146.273,-15.5C154.943,-15.5 163.524,-15.5 171.52,-15.5"/>
<polygon fill="midnightblue" stroke="midnightblue" points="146.084,-12.0001 136.084,-15.5 146.084,-19.0001 146.084,-12.0001"/>
</g>
<!-- Node46 -->
<g id="node3" class="node"><title>Node46</title>
<g id="a_node3"><a xlink:href="namespacedata__catalog__entry.html#a25575c8a43161050427bd7a7d471e83d" target="_top" xlink:title="data_catalog_entry\l::getvalues_gridded_sub">
<polygon fill="white" stroke="black" points="294.776,-0.5 294.776,-30.5 430.643,-30.5 430.643,-0.5 294.776,-0.5"/>
<text text-anchor="start" x="302.776" y="-17.7" font-family="Helvetica,sans-Serif" font-size="11.00">data_catalog_entry</text>
<text text-anchor="middle" x="362.709" y="-6.7" font-family="Helvetica,sans-Serif" font-size="11.00">::getvalues_gridded_sub</text>
</a>
</g>
</g>
<!-- Node45&#45;&gt;Node46 -->
<g id="edge2" class="edge"><title>Node45&#45;&gt;Node46</title>
<path fill="none" stroke="midnightblue" d="M269.335,-15.5C277.559,-15.5 286.145,-15.5 294.629,-15.5"/>
<polygon fill="midnightblue" stroke="midnightblue" points="269.149,-12.0001 259.149,-15.5 269.149,-19.0001 269.149,-12.0001"/>
</g>
<!-- Node47 -->
<g id="node4" class="node"><title>Node47</title>
<g id="a_node4"><a xlink:href="namespacedata__catalog__entry.html#a9e0a89ab19a5bfd61f2dfb8265648234" target="_top" xlink:title="data_catalog_entry\l::getvalues_sub">
<polygon fill="white" stroke="black" points="466.643,-0.5 466.643,-30.5 576.212,-30.5 576.212,-0.5 466.643,-0.5"/>
<text text-anchor="start" x="474.643" y="-17.7" font-family="Helvetica,sans-Serif" font-size="11.00">data_catalog_entry</text>
<text text-anchor="middle" x="521.427" y="-6.7" font-family="Helvetica,sans-Serif" font-size="11.00">::getvalues_sub</text>
</a>
</g>
</g>
<!-- Node46&#45;&gt;Node47 -->
<g id="edge3" class="edge"><title>Node46&#45;&gt;Node47</title>
<path fill="none" stroke="midnightblue" d="M441.356,-15.5C449.805,-15.5 458.265,-15.5 466.343,-15.5"/>
<polygon fill="midnightblue" stroke="midnightblue" points="441.081,-12.0001 431.081,-15.5 441.081,-19.0001 441.081,-12.0001"/>
</g>
</g>
</svg>
