<?xml version="1.0" encoding="UTF-8" standalone="no"?>
<!DOCTYPE svg PUBLIC "-//W3C//DTD SVG 1.1//EN"
 "http://www.w3.org/Graphics/SVG/1.1/DTD/svg11.dtd">
<!-- Generated by graphviz version 2.38.0 (20140413.2041)
 -->
<!-- Title: interception__gash::interception_gash_initialize Pages: 1 -->
<svg width="495pt" height="50pt"
 viewBox="0.00 0.00 494.91 50.00" xmlns="http://www.w3.org/2000/svg" xmlns:xlink="http://www.w3.org/1999/xlink">
<g id="graph0" class="graph" transform="scale(1 1) rotate(0) translate(4 46)">
<title>interception__gash::interception_gash_initialize</title>
<polygon fill="white" stroke="none" points="-4,4 -4,-46 490.91,-46 490.91,4 -4,4"/>
<!-- Node1 -->
<g id="node1" class="node"><title>Node1</title>
<polygon fill="#bfbfbf" stroke="black" points="0,-0.5 0,-41.5 108.958,-41.5 108.958,-0.5 0,-0.5"/>
<text text-anchor="start" x="8" y="-28.7" font-family="Helvetica,sans-Serif" font-size="11.00">interception__gash</text>
<text text-anchor="start" x="8" y="-17.7" font-family="Helvetica,sans-Serif" font-size="11.00">::interception_gash</text>
<text text-anchor="middle" x="54.4788" y="-6.7" font-family="Helvetica,sans-Serif" font-size="11.00">_initialize</text>
</g>
<!-- Node2 -->
<g id="node2" class="node"><title>Node2</title>
<g id="a_node2"><a xlink:href="namespacemodel__domain.html#ab12b607e458d5176b9989a39a0710ebe" target="_top" xlink:title="model_domain::model\l_initialize_interception_gash">
<polygon fill="white" stroke="black" points="144.958,-6 144.958,-36 299.161,-36 299.161,-6 144.958,-6"/>
<text text-anchor="start" x="152.958" y="-23.2" font-family="Helvetica,sans-Serif" font-size="11.00">model_domain::model</text>
<text text-anchor="middle" x="222.059" y="-12.2" font-family="Helvetica,sans-Serif" font-size="11.00">_initialize_interception_gash</text>
</a>
</g>
</g>
<!-- Node1&#45;&gt;Node2 -->
<g id="edge1" class="edge"><title>Node1&#45;&gt;Node2</title>
<path fill="none" stroke="midnightblue" d="M119.249,-21C127.586,-21 136.196,-21 144.714,-21"/>
<polygon fill="midnightblue" stroke="midnightblue" points="119.238,-17.5001 109.238,-21 119.238,-24.5001 119.238,-17.5001"/>
</g>
<!-- Node3 -->
<g id="node3" class="node"><title>Node3</title>
<g id="a_node3"><a xlink:href="namespacemodel__domain.html#aac78dbf26ba37cf86ebed4edd7acf89b" target="_top" xlink:title="model_domain::set_method\l_pointers_sub">
<polygon fill="white" stroke="black" points="335.161,-6 335.161,-36 486.91,-36 486.91,-6 335.161,-6"/>
<text text-anchor="start" x="343.161" y="-23.2" font-family="Helvetica,sans-Serif" font-size="11.00">model_domain::set_method</text>
<text text-anchor="middle" x="411.036" y="-12.2" font-family="Helvetica,sans-Serif" font-size="11.00">_pointers_sub</text>
</a>
</g>
</g>
<!-- Node2&#45;&gt;Node3 -->
<g id="edge2" class="edge"><title>Node2&#45;&gt;Node3</title>
<path fill="none" stroke="midnightblue" d="M309.612,-21C318.047,-21 326.557,-21 334.867,-21"/>
<polygon fill="midnightblue" stroke="midnightblue" points="309.379,-17.5001 299.379,-21 309.379,-24.5001 309.379,-17.5001"/>
</g>
</g>
</svg>
