<?xml version="1.0" encoding="UTF-8" standalone="no"?>
<!DOCTYPE svg PUBLIC "-//W3C//DTD SVG 1.1//EN"
 "http://www.w3.org/Graphics/SVG/1.1/DTD/svg11.dtd">
<!-- Generated by graphviz version 2.38.0 (20140413.2041)
 -->
<!-- Title: irrigation::irrigation__initialize Pages: 1 -->
<svg width="491pt" height="39pt"
 viewBox="0.00 0.00 491.21 39.00" xmlns="http://www.w3.org/2000/svg" xmlns:xlink="http://www.w3.org/1999/xlink">
<g id="graph0" class="graph" transform="scale(1 1) rotate(0) translate(4 35)">
<title>irrigation::irrigation__initialize</title>
<polygon fill="white" stroke="none" points="-4,4 -4,-35 487.215,-35 487.215,4 -4,4"/>
<!-- Node0 -->
<g id="node1" class="node"><title>Node0</title>
<polygon fill="#bfbfbf" stroke="black" points="0,-0.5 0,-30.5 106.481,-30.5 106.481,-0.5 0,-0.5"/>
<text text-anchor="start" x="8" y="-17.7" font-family="Helvetica,sans-Serif" font-size="11.00">irrigation::irrigation</text>
<text text-anchor="middle" x="53.2407" y="-6.7" font-family="Helvetica,sans-Serif" font-size="11.00">__initialize</text>
</g>
<!-- Node1 -->
<g id="node2" class="node"><title>Node1</title>
<g id="a_node2"><a xlink:href="namespaceconstants__and__conversions.html#a928051f0e8ed684010c21875b1eec5ff" target="_top" xlink:title="Determine if string contains numeric values. ">
<polygon fill="white" stroke="black" points="142.481,-0.5 142.481,-30.5 294.848,-30.5 294.848,-0.5 142.481,-0.5"/>
<text text-anchor="start" x="150.481" y="-17.7" font-family="Helvetica,sans-Serif" font-size="11.00">constants_and_conversions</text>
<text text-anchor="middle" x="218.665" y="-6.7" font-family="Helvetica,sans-Serif" font-size="11.00">::is_numeric</text>
</a>
</g>
</g>
<!-- Node0&#45;&gt;Node1 -->
<g id="edge1" class="edge"><title>Node0&#45;&gt;Node1</title>
<path fill="none" stroke="midnightblue" d="M106.849,-15.5C114.964,-15.5 123.519,-15.5 132.131,-15.5"/>
<polygon fill="midnightblue" stroke="midnightblue" points="132.244,-19.0001 142.244,-15.5 132.244,-12.0001 132.244,-19.0001"/>
</g>
<!-- Node2 -->
<g id="node3" class="node"><title>Node2</title>
<g id="a_node3"><a xlink:href="namespaceconstants__and__conversions.html#a9bb5e4e1e57429b60fb5be3ec64b680c" target="_top" xlink:title="Strip everything except numeric characters from a text string. ">
<polygon fill="white" stroke="black" points="330.848,-0.5 330.848,-30.5 483.215,-30.5 483.215,-0.5 330.848,-0.5"/>
<text text-anchor="start" x="338.848" y="-17.7" font-family="Helvetica,sans-Serif" font-size="11.00">constants_and_conversions</text>
<text text-anchor="middle" x="407.031" y="-6.7" font-family="Helvetica,sans-Serif" font-size="11.00">::keepnumeric</text>
</a>
</g>
</g>
<!-- Node1&#45;&gt;Node2 -->
<g id="edge2" class="edge"><title>Node1&#45;&gt;Node2</title>
<path fill="none" stroke="midnightblue" d="M294.93,-15.5C303.425,-15.5 312.127,-15.5 320.739,-15.5"/>
<polygon fill="midnightblue" stroke="midnightblue" points="320.788,-19.0001 330.788,-15.5 320.788,-12.0001 320.788,-19.0001"/>
</g>
</g>
</svg>
