<?xml version="1.0" encoding="UTF-8" standalone="no"?>
<!DOCTYPE svg PUBLIC "-//W3C//DTD SVG 1.1//EN"
 "http://www.w3.org/Graphics/SVG/1.1/DTD/svg11.dtd">
<!-- Generated by graphviz version 2.38.0 (20140413.2041)
 -->
<!-- Title: actual_et__thornthwaite_mather::calculate_actual_et_thornthwaite_mather Pages: 1 -->
<svg width="497pt" height="50pt"
 viewBox="0.00 0.00 497.33 50.00" xmlns="http://www.w3.org/2000/svg" xmlns:xlink="http://www.w3.org/1999/xlink">
<g id="graph0" class="graph" transform="scale(1 1) rotate(0) translate(4 46)">
<title>actual_et__thornthwaite_mather::calculate_actual_et_thornthwaite_mather</title>
<polygon fill="white" stroke="none" points="-4,4 -4,-46 493.327,-46 493.327,4 -4,4"/>
<!-- Node1 -->
<g id="node1" class="node"><title>Node1</title>
<polygon fill="#bfbfbf" stroke="black" points="0,-0.5 0,-41.5 141.351,-41.5 141.351,-0.5 0,-0.5"/>
<text text-anchor="start" x="8" y="-28.7" font-family="Helvetica,sans-Serif" font-size="11.00">actual_et__thornthwaite</text>
<text text-anchor="start" x="8" y="-17.7" font-family="Helvetica,sans-Serif" font-size="11.00">_mather::calculate_actual</text>
<text text-anchor="middle" x="70.6753" y="-6.7" font-family="Helvetica,sans-Serif" font-size="11.00">_et_thornthwaite_mather</text>
</g>
<!-- Node2 -->
<g id="node2" class="node"><title>Node2</title>
<g id="a_node2"><a xlink:href="namespacemodel__domain.html#ae38bccf283c685d28668cdca230a7647" target="_top" xlink:title="model_domain::model\l_calculate_actual_et\l_thornthwaite_mather">
<polygon fill="white" stroke="black" points="177.351,-0.5 177.351,-41.5 301.578,-41.5 301.578,-0.5 177.351,-0.5"/>
<text text-anchor="start" x="185.351" y="-28.7" font-family="Helvetica,sans-Serif" font-size="11.00">model_domain::model</text>
<text text-anchor="start" x="185.351" y="-17.7" font-family="Helvetica,sans-Serif" font-size="11.00">_calculate_actual_et</text>
<text text-anchor="middle" x="239.464" y="-6.7" font-family="Helvetica,sans-Serif" font-size="11.00">_thornthwaite_mather</text>
</a>
</g>
</g>
<!-- Node1&#45;&gt;Node2 -->
<g id="edge1" class="edge"><title>Node1&#45;&gt;Node2</title>
<path fill="none" stroke="midnightblue" d="M151.528,-21C160.157,-21 168.838,-21 177.198,-21"/>
<polygon fill="midnightblue" stroke="midnightblue" points="151.443,-17.5001 141.442,-21 151.442,-24.5001 151.443,-17.5001"/>
</g>
<!-- Node3 -->
<g id="node3" class="node"><title>Node3</title>
<g id="a_node3"><a xlink:href="namespacemodel__domain.html#aac78dbf26ba37cf86ebed4edd7acf89b" target="_top" xlink:title="model_domain::set_method\l_pointers_sub">
<polygon fill="white" stroke="black" points="337.578,-6 337.578,-36 489.327,-36 489.327,-6 337.578,-6"/>
<text text-anchor="start" x="345.578" y="-23.2" font-family="Helvetica,sans-Serif" font-size="11.00">model_domain::set_method</text>
<text text-anchor="middle" x="413.453" y="-12.2" font-family="Helvetica,sans-Serif" font-size="11.00">_pointers_sub</text>
</a>
</g>
</g>
<!-- Node2&#45;&gt;Node3 -->
<g id="edge2" class="edge"><title>Node2&#45;&gt;Node3</title>
<path fill="none" stroke="midnightblue" d="M311.775,-21C320.227,-21 328.874,-21 337.376,-21"/>
<polygon fill="midnightblue" stroke="midnightblue" points="311.585,-17.5001 301.585,-21 311.585,-24.5001 311.585,-17.5001"/>
</g>
</g>
</svg>
