<?xml version="1.0" encoding="UTF-8" standalone="no"?>
<!DOCTYPE svg PUBLIC "-//W3C//DTD SVG 1.1//EN"
 "http://www.w3.org/Graphics/SVG/1.1/DTD/svg11.dtd">
<!-- Generated by graphviz version 2.38.0 (20140413.2041)
 -->
<!-- Title: model_domain::model_calculate_runoff_curve_number Pages: 1 -->
<!--zoomable 110 -->
<svg id="main" version="1.1" xmlns="http://www.w3.org/2000/svg" xmlns:xlink="http://www.w3.org/1999/xlink" xml:space="preserve" onload="init(evt)">
<style type="text/css"><![CDATA[
.edge:hover path { stroke: red; }
.edge:hover polygon { stroke: red; fill: red; }
]]></style>
<script type="text/javascript"><![CDATA[
var edges = document.getElementsByTagName('g');
if (edges && edges.length) {
  for (var i=0;i<edges.length;i++) {
    if (edges[i].id.substr(0,4)=='edge') {
      edges[i].setAttribute('class','edge');
    }
  }
}
]]></script>
        <defs>
                <circle id="rim" cx="0" cy="0" r="7"/>
                <circle id="rim2" cx="0" cy="0" r="3.5"/>
                <g id="zoomPlus">
                        <use xlink:href="#rim" fill="#404040">
                                <set attributeName="fill" to="#808080" begin="zoomplus.mouseover" end="zoomplus.mouseout"/>
                        </use>
                        <path d="M-4,0h8M0,-4v8" fill="none" stroke="white" stroke-width="1.5" pointer-events="none"/>
                </g>
                <g id="zoomMin">
                        <use xlink:href="#rim" fill="#404040">
                                <set attributeName="fill" to="#808080" begin="zoomminus.mouseover" end="zoomminus.mouseout"/>
                        </use>
                        <path d="M-4,0h8" fill="none" stroke="white" stroke-width="1.5" pointer-events="none"/>
                </g>
                <g id="dirArrow">
                        <path fill="none" stroke="white" stroke-width="1.5" d="M0,-3.0v7 M-2.5,-0.5L0,-3.0L2.5,-0.5"/>
                </g>
               <g id="resetDef">
                       <use xlink:href="#rim2" fill="#404040">
                               <set attributeName="fill" to="#808080" begin="reset.mouseover" end="reset.mouseout"/>
                       </use>
               </g>
        </defs>

<script type="text/javascript">
var viewWidth = 687;
var viewHeight = 110;
var sectionId = 'dynsection-39';
</script>
<script xlink:href="svgpan.js"/>
<svg id="graph" class="graph">
<g id="viewport">
<title>model_domain::model_calculate_runoff_curve_number</title>
<polygon fill="white" stroke="none" points="-4,4 -4,-106 682.58,-106 682.58,4 -4,4"/>
<!-- Node288 -->
<g id="node1" class="node"><title>Node288</title>
<polygon fill="#bfbfbf" stroke="black" points="0,-30.5 0,-71.5 132.601,-71.5 132.601,-30.5 0,-30.5"/>
<text text-anchor="start" x="8" y="-58.7" font-family="Helvetica,sans-Serif" font-size="11.00">model_domain::model</text>
<text text-anchor="start" x="8" y="-47.7" font-family="Helvetica,sans-Serif" font-size="11.00">_calculate_runoff_curve</text>
<text text-anchor="middle" x="66.3005" y="-36.7" font-family="Helvetica,sans-Serif" font-size="11.00">_number</text>
</g>
<!-- Node289 -->
<g id="node2" class="node"><title>Node289</title>
<g id="a_node2"><a xlink:href="namespacerunoff____curve__number.html#aae766175dfa1f5c369ce3fb79fba8ce4" target="_top" xlink:title="Calculate the runoff by means of the curve number method. ">
<polygon fill="white" stroke="black" points="175.13,-60.5 175.13,-101.5 301.613,-101.5 301.613,-60.5 175.13,-60.5"/>
<text text-anchor="start" x="183.13" y="-88.7" font-family="Helvetica,sans-Serif" font-size="11.00">runoff__curve_number</text>
<text text-anchor="start" x="183.13" y="-77.7" font-family="Helvetica,sans-Serif" font-size="11.00">::runoff_curve_number</text>
<text text-anchor="middle" x="238.371" y="-66.7" font-family="Helvetica,sans-Serif" font-size="11.00">_calculate</text>
</a>
</g>
</g>
<!-- Node288&#45;&gt;Node289 -->
<g id="edge1" class="edge"><title>Node288&#45;&gt;Node289</title>
<path fill="none" stroke="midnightblue" d="M133.054,-62.5988C143.467,-64.4356 154.287,-66.3441 164.844,-68.2064"/>
<polygon fill="midnightblue" stroke="midnightblue" points="164.407,-71.6833 174.863,-69.9737 165.623,-64.7897 164.407,-71.6833"/>
</g>
<!-- Node292 -->
<g id="node5" class="node"><title>Node292</title>
<g id="a_node5"><a xlink:href="namespacerunoff____curve__number.html#a8ea014bd82d53fdd339b4bc30739c9b4" target="_top" xlink:title="runoff__curve_number\l::update_previous_5_day\l_rainfall">
<polygon fill="white" stroke="black" points="168.601,-0.5 168.601,-41.5 308.142,-41.5 308.142,-0.5 168.601,-0.5"/>
<text text-anchor="start" x="176.601" y="-28.7" font-family="Helvetica,sans-Serif" font-size="11.00">runoff__curve_number</text>
<text text-anchor="start" x="176.601" y="-17.7" font-family="Helvetica,sans-Serif" font-size="11.00">::update_previous_5_day</text>
<text text-anchor="middle" x="238.371" y="-6.7" font-family="Helvetica,sans-Serif" font-size="11.00">_rainfall</text>
</a>
</g>
</g>
<!-- Node288&#45;&gt;Node292 -->
<g id="edge4" class="edge"><title>Node288&#45;&gt;Node292</title>
<path fill="none" stroke="midnightblue" d="M133.054,-39.4012C141.385,-37.9317 149.976,-36.4162 158.485,-34.9153"/>
<polygon fill="midnightblue" stroke="midnightblue" points="159.175,-38.3476 168.415,-33.1636 157.959,-31.4541 159.175,-38.3476"/>
</g>
<!-- Node290 -->
<g id="node3" class="node"><title>Node290</title>
<g id="a_node3"><a xlink:href="namespacerunoff____curve__number.html#a72b4da037428312946ee9c28a6790b92" target="_top" xlink:title="runoff__curve_number\l::update_curve_number_fn">
<polygon fill="white" stroke="black" points="344.142,-66 344.142,-96 491.621,-96 491.621,-66 344.142,-66"/>
<text text-anchor="start" x="352.142" y="-83.2" font-family="Helvetica,sans-Serif" font-size="11.00">runoff__curve_number</text>
<text text-anchor="middle" x="417.881" y="-72.2" font-family="Helvetica,sans-Serif" font-size="11.00">::update_curve_number_fn</text>
</a>
</g>
</g>
<!-- Node289&#45;&gt;Node290 -->
<g id="edge2" class="edge"><title>Node289&#45;&gt;Node290</title>
<path fill="none" stroke="midnightblue" d="M301.955,-81C312.242,-81 323.045,-81 333.738,-81"/>
<polygon fill="midnightblue" stroke="midnightblue" points="333.937,-84.5001 343.937,-81 333.937,-77.5001 333.937,-84.5001"/>
</g>
<!-- Node291 -->
<g id="node4" class="node"><title>Node291</title>
<g id="a_node4"><a xlink:href="namespacerunoff____curve__number.html#acc6ef2f95ff3082c5a264f71094740de" target="_top" xlink:title="runoff__curve_number\l::prob_runoff_enhancement">
<polygon fill="white" stroke="black" points="527.621,-66 527.621,-96 678.58,-96 678.58,-66 527.621,-66"/>
<text text-anchor="start" x="535.621" y="-83.2" font-family="Helvetica,sans-Serif" font-size="11.00">runoff__curve_number</text>
<text text-anchor="middle" x="603.1" y="-72.2" font-family="Helvetica,sans-Serif" font-size="11.00">::prob_runoff_enhancement</text>
</a>
</g>
</g>
<!-- Node290&#45;&gt;Node291 -->
<g id="edge3" class="edge"><title>Node290&#45;&gt;Node291</title>
<path fill="none" stroke="midnightblue" d="M491.821,-81C500.284,-81 508.97,-81 517.572,-81"/>
<polygon fill="midnightblue" stroke="midnightblue" points="517.613,-84.5001 527.613,-81 517.613,-77.5001 517.613,-84.5001"/>
</g>
</g>
</svg>
        <g id="navigator" transform="translate(0 0)" fill="#404254">
                <rect fill="#f2f5e9" fill-opacity="0.5" stroke="#606060" stroke-width=".5" x="0" y="0" width="60" height="60"/>
                <use id="zoomplus" xlink:href="#zoomPlus" x="17" y="9" onmousedown="handleZoom(evt,'in')"/>
                <use id="zoomminus" xlink:href="#zoomMin" x="42" y="9" onmousedown="handleZoom(evt,'out')"/>
                <use id="reset" xlink:href="#resetDef" x="30" y="36" onmousedown="handleReset()"/>
                <g id="arrowUp" xlink:href="#dirArrow" transform="translate(30 24)" onmousedown="handlePan(0,-1)">
                  <use xlink:href="#rim" fill="#404040">
                        <set attributeName="fill" to="#808080" begin="arrowUp.mouseover" end="arrowUp.mouseout"/>
                  </use>
                  <path fill="none" stroke="white" stroke-width="1.5" d="M0,-3.0v7 M-2.5,-0.5L0,-3.0L2.5,-0.5"/>
                </g>
                <g id="arrowRight" xlink:href="#dirArrow" transform="rotate(90) translate(36 -43)" onmousedown="handlePan(1,0)">
                  <use xlink:href="#rim" fill="#404040">
                        <set attributeName="fill" to="#808080" begin="arrowRight.mouseover" end="arrowRight.mouseout"/>
                  </use>
                  <path fill="none" stroke="white" stroke-width="1.5" d="M0,-3.0v7 M-2.5,-0.5L0,-3.0L2.5,-0.5"/>
                </g>
                <g id="arrowDown" xlink:href="#dirArrow" transform="rotate(180) translate(-30 -48)" onmousedown="handlePan(0,1)">
                  <use xlink:href="#rim" fill="#404040">
                        <set attributeName="fill" to="#808080" begin="arrowDown.mouseover" end="arrowDown.mouseout"/>
                  </use>
                  <path fill="none" stroke="white" stroke-width="1.5" d="M0,-3.0v7 M-2.5,-0.5L0,-3.0L2.5,-0.5"/>
                </g>
                <g id="arrowLeft" xlink:href="#dirArrow" transform="rotate(270) translate(-36 17)" onmousedown="handlePan(-1,0)">
                  <use xlink:href="#rim" fill="#404040">
                        <set attributeName="fill" to="#808080" begin="arrowLeft.mouseover" end="arrowLeft.mouseout"/>
                  </use>
                  <path fill="none" stroke="white" stroke-width="1.5" d="M0,-3.0v7 M-2.5,-0.5L0,-3.0L2.5,-0.5"/>
                </g>
        </g>
        <svg viewBox="0 0 15 15" width="100%" height="30px" preserveAspectRatio="xMaxYMin meet">
         <g id="arrow_out" transform="scale(0.3 0.3)">
          <a xlink:href="namespacemodel__domain_a4cf0da1e10aa8b3c8105cf8e636da443_cgraph_org.svg" target="_base">
           <rect id="button" ry="5" rx="5" y="6" x="6" height="38" width="38"
                fill="#f2f5e9" fill-opacity="0.5" stroke="#606060" stroke-width="1.0"/>
           <path id="arrow"
             d="M 11.500037,31.436501 C 11.940474,20.09759 22.043105,11.32322 32.158766,21.979434 L 37.068811,17.246167 C 37.068811,17.246167 37.088388,32 37.088388,32 L 22.160133,31.978069 C 22.160133,31.978069 26.997745,27.140456 26.997745,27.140456 C 18.528582,18.264221 13.291696,25.230495 11.500037,31.436501 z"
             style="fill:#404040;"/>
          </a>
         </g>
        </svg>
</svg>
