<?xml version="1.0" encoding="UTF-8" standalone="no"?>
<!DOCTYPE svg PUBLIC "-//W3C//DTD SVG 1.1//EN"
 "http://www.w3.org/Graphics/SVG/1.1/DTD/svg11.dtd">
<!-- Generated by graphviz version 2.38.0 (20140413.2041)
 -->
<!-- Title: interception__bucket::interception_bucket_initialize Pages: 1 -->
<svg width="473pt" height="50pt"
 viewBox="0.00 0.00 473.50 50.00" xmlns="http://www.w3.org/2000/svg" xmlns:xlink="http://www.w3.org/1999/xlink">
<g id="graph0" class="graph" transform="scale(1 1) rotate(0) translate(4 46)">
<title>interception__bucket::interception_bucket_initialize</title>
<polygon fill="white" stroke="none" points="-4,4 -4,-46 469.496,-46 469.496,4 -4,4"/>
<!-- Node2 -->
<g id="node1" class="node"><title>Node2</title>
<polygon fill="#bfbfbf" stroke="black" points="0,-0.5 0,-41.5 117.514,-41.5 117.514,-0.5 0,-0.5"/>
<text text-anchor="start" x="8" y="-28.7" font-family="Helvetica,sans-Serif" font-size="11.00">interception__bucket</text>
<text text-anchor="start" x="8" y="-17.7" font-family="Helvetica,sans-Serif" font-size="11.00">::interception_bucket</text>
<text text-anchor="middle" x="58.7568" y="-6.7" font-family="Helvetica,sans-Serif" font-size="11.00">_initialize</text>
</g>
<!-- Node3 -->
<g id="node2" class="node"><title>Node3</title>
<g id="a_node2"><a xlink:href="namespacemodel__domain.html#afeecc1fb3ada218a644101f62fb60a31" target="_top" xlink:title="model_domain::model\l_initialize_interception\l_bucket">
<polygon fill="white" stroke="black" points="153.514,-0.5 153.514,-41.5 277.747,-41.5 277.747,-0.5 153.514,-0.5"/>
<text text-anchor="start" x="161.514" y="-28.7" font-family="Helvetica,sans-Serif" font-size="11.00">model_domain::model</text>
<text text-anchor="start" x="161.514" y="-17.7" font-family="Helvetica,sans-Serif" font-size="11.00">_initialize_interception</text>
<text text-anchor="middle" x="215.63" y="-6.7" font-family="Helvetica,sans-Serif" font-size="11.00">_bucket</text>
</a>
</g>
</g>
<!-- Node2&#45;&gt;Node3 -->
<g id="edge1" class="edge"><title>Node2&#45;&gt;Node3</title>
<path fill="none" stroke="midnightblue" d="M128.042,-21C136.466,-21 145.037,-21 153.348,-21"/>
<polygon fill="midnightblue" stroke="midnightblue" points="127.867,-17.5001 117.867,-21 127.867,-24.5001 127.867,-17.5001"/>
</g>
<!-- Node4 -->
<g id="node3" class="node"><title>Node4</title>
<g id="a_node3"><a xlink:href="namespacemodel__domain.html#aac78dbf26ba37cf86ebed4edd7acf89b" target="_top" xlink:title="model_domain::set_method\l_pointers_sub">
<polygon fill="white" stroke="black" points="313.747,-6 313.747,-36 465.496,-36 465.496,-6 313.747,-6"/>
<text text-anchor="start" x="321.747" y="-23.2" font-family="Helvetica,sans-Serif" font-size="11.00">model_domain::set_method</text>
<text text-anchor="middle" x="389.621" y="-12.2" font-family="Helvetica,sans-Serif" font-size="11.00">_pointers_sub</text>
</a>
</g>
</g>
<!-- Node3&#45;&gt;Node4 -->
<g id="edge2" class="edge"><title>Node3&#45;&gt;Node4</title>
<path fill="none" stroke="midnightblue" d="M287.942,-21C296.394,-21 305.041,-21 313.543,-21"/>
<polygon fill="midnightblue" stroke="midnightblue" points="287.752,-17.5001 277.752,-21 287.752,-24.5001 287.752,-17.5001"/>
</g>
</g>
</svg>
