<?xml version="1.0" encoding="UTF-8" standalone="no"?>
<!DOCTYPE svg PUBLIC "-//W3C//DTD SVG 1.1//EN"
 "http://www.w3.org/Graphics/SVG/1.1/DTD/svg11.dtd">
<!-- Generated by graphviz version 2.38.0 (20140413.2041)
 -->
<!-- Title: solar_calculations::extraterrestrial_radiation__ra Pages: 1 -->
<svg width="714pt" height="39pt"
 viewBox="0.00 0.00 714.43 39.00" xmlns="http://www.w3.org/2000/svg" xmlns:xlink="http://www.w3.org/1999/xlink">
<g id="graph0" class="graph" transform="scale(1 1) rotate(0) translate(4 35)">
<title>solar_calculations::extraterrestrial_radiation__ra</title>
<polygon fill="white" stroke="none" points="-4,4 -4,-35 710.429,-35 710.429,4 -4,4"/>
<!-- Node3 -->
<g id="node1" class="node"><title>Node3</title>
<polygon fill="#bfbfbf" stroke="black" points="0,-0.5 0,-30.5 162.738,-30.5 162.738,-0.5 0,-0.5"/>
<text text-anchor="start" x="8" y="-17.7" font-family="Helvetica,sans-Serif" font-size="11.00">solar_calculations</text>
<text text-anchor="middle" x="81.3691" y="-6.7" font-family="Helvetica,sans-Serif" font-size="11.00">::extraterrestrial_radiation__ra</text>
</g>
<!-- Node4 -->
<g id="node2" class="node"><title>Node4</title>
<g id="a_node2"><a xlink:href="namespaceet____hargreaves__samani.html#a7e98ab45c36ffcbbd21626348162801c" target="_top" xlink:title="et__hargreaves_samani\l::et_hargreaves_calculate">
<polygon fill="white" stroke="black" points="198.738,-0.5 198.738,-30.5 340.707,-30.5 340.707,-0.5 198.738,-0.5"/>
<text text-anchor="start" x="206.738" y="-17.7" font-family="Helvetica,sans-Serif" font-size="11.00">et__hargreaves_samani</text>
<text text-anchor="middle" x="269.722" y="-6.7" font-family="Helvetica,sans-Serif" font-size="11.00">::et_hargreaves_calculate</text>
</a>
</g>
</g>
<!-- Node3&#45;&gt;Node4 -->
<g id="edge1" class="edge"><title>Node3&#45;&gt;Node4</title>
<path fill="none" stroke="midnightblue" d="M172.859,-15.5C181.495,-15.5 190.163,-15.5 198.564,-15.5"/>
<polygon fill="midnightblue" stroke="midnightblue" points="172.752,-12.0001 162.752,-15.5 172.752,-19.0001 172.752,-12.0001"/>
</g>
<!-- Node5 -->
<g id="node3" class="node"><title>Node5</title>
<g id="a_node3"><a xlink:href="namespacemodel__domain.html#a37864c313f4ed6b63b5e90f4ef3f2e1f" target="_top" xlink:title="model_domain::model\l_calculate_et_hargreaves">
<polygon fill="white" stroke="black" points="376.707,-0.5 376.707,-30.5 518.68,-30.5 518.68,-0.5 376.707,-0.5"/>
<text text-anchor="start" x="384.707" y="-17.7" font-family="Helvetica,sans-Serif" font-size="11.00">model_domain::model</text>
<text text-anchor="middle" x="447.693" y="-6.7" font-family="Helvetica,sans-Serif" font-size="11.00">_calculate_et_hargreaves</text>
</a>
</g>
</g>
<!-- Node4&#45;&gt;Node5 -->
<g id="edge2" class="edge"><title>Node4&#45;&gt;Node5</title>
<path fill="none" stroke="midnightblue" d="M350.81,-15.5C359.414,-15.5 368.119,-15.5 376.593,-15.5"/>
<polygon fill="midnightblue" stroke="midnightblue" points="350.776,-12.0001 340.776,-15.5 350.776,-19.0001 350.776,-12.0001"/>
</g>
<!-- Node6 -->
<g id="node4" class="node"><title>Node6</title>
<g id="a_node4"><a xlink:href="namespacemodel__domain.html#aac78dbf26ba37cf86ebed4edd7acf89b" target="_top" xlink:title="model_domain::set_method\l_pointers_sub">
<polygon fill="white" stroke="black" points="554.68,-0.5 554.68,-30.5 706.429,-30.5 706.429,-0.5 554.68,-0.5"/>
<text text-anchor="start" x="562.68" y="-17.7" font-family="Helvetica,sans-Serif" font-size="11.00">model_domain::set_method</text>
<text text-anchor="middle" x="630.555" y="-6.7" font-family="Helvetica,sans-Serif" font-size="11.00">_pointers_sub</text>
</a>
</g>
</g>
<!-- Node5&#45;&gt;Node6 -->
<g id="edge3" class="edge"><title>Node5&#45;&gt;Node6</title>
<path fill="none" stroke="midnightblue" d="M529.138,-15.5C537.614,-15.5 546.209,-15.5 554.62,-15.5"/>
<polygon fill="midnightblue" stroke="midnightblue" points="528.878,-12.0001 518.878,-15.5 528.878,-19.0001 528.878,-12.0001"/>
</g>
</g>
</svg>
