<?xml version="1.0" encoding="UTF-8" standalone="no"?>
<!DOCTYPE svg PUBLIC "-//W3C//DTD SVG 1.1//EN"
 "http://www.w3.org/Graphics/SVG/1.1/DTD/svg11.dtd">
<!-- Generated by graphviz version 2.38.0 (20140413.2041)
 -->
<!-- Title: netcdf4_support::nf_get_variable_slice_int Pages: 1 -->
<svg width="645pt" height="100pt"
 viewBox="0.00 0.00 645.37 99.50" xmlns="http://www.w3.org/2000/svg" xmlns:xlink="http://www.w3.org/1999/xlink">
<g id="graph0" class="graph" transform="scale(1 1) rotate(0) translate(4 95.5)">
<title>netcdf4_support::nf_get_variable_slice_int</title>
<polygon fill="white" stroke="none" points="-4,4 -4,-95.5 641.373,-95.5 641.373,4 -4,4"/>
<!-- Node383 -->
<g id="node1" class="node"><title>Node383</title>
<polygon fill="#bfbfbf" stroke="black" points="0,-27.5 0,-57.5 127.907,-57.5 127.907,-27.5 0,-27.5"/>
<text text-anchor="start" x="8" y="-44.7" font-family="Helvetica,sans-Serif" font-size="11.00">netcdf4_support::nf</text>
<text text-anchor="middle" x="63.9534" y="-33.7" font-family="Helvetica,sans-Serif" font-size="11.00">_get_variable_slice_int</text>
</g>
<!-- Node384 -->
<g id="node2" class="node"><title>Node384</title>
<g id="a_node2"><a xlink:href="namespacenetcdf4__support.html#a997d4ec63d37cb56378ab434c9b3075b" target="_top" xlink:title="netcdf4_support::netcdf\l_get_variable_slice">
<polygon fill="white" stroke="black" points="163.907,-27.5 163.907,-57.5 294.875,-57.5 294.875,-27.5 163.907,-27.5"/>
<text text-anchor="start" x="171.907" y="-44.7" font-family="Helvetica,sans-Serif" font-size="11.00">netcdf4_support::netcdf</text>
<text text-anchor="middle" x="229.391" y="-33.7" font-family="Helvetica,sans-Serif" font-size="11.00">_get_variable_slice</text>
</a>
</g>
</g>
<!-- Node383&#45;&gt;Node384 -->
<g id="edge1" class="edge"><title>Node383&#45;&gt;Node384</title>
<path fill="none" stroke="midnightblue" d="M138.378,-42.5C146.838,-42.5 155.418,-42.5 163.75,-42.5"/>
<polygon fill="midnightblue" stroke="midnightblue" points="138.143,-39.0001 128.143,-42.5 138.143,-46.0001 138.143,-39.0001"/>
</g>
<!-- Node385 -->
<g id="node3" class="node"><title>Node385</title>
<g id="a_node3"><a xlink:href="namespacedata__catalog__entry.html#aeb285131f87ed64deba0a9041a9c6405" target="_top" xlink:title="data_catalog_entry\l::getvalues_dynamic\l_netcdf_sub">
<polygon fill="white" stroke="black" points="353.2,-50 353.2,-91 469.478,-91 469.478,-50 353.2,-50"/>
<text text-anchor="start" x="361.2" y="-78.2" font-family="Helvetica,sans-Serif" font-size="11.00">data_catalog_entry</text>
<text text-anchor="start" x="361.2" y="-67.2" font-family="Helvetica,sans-Serif" font-size="11.00">::getvalues_dynamic</text>
<text text-anchor="middle" x="411.339" y="-56.2" font-family="Helvetica,sans-Serif" font-size="11.00">_netcdf_sub</text>
</a>
</g>
</g>
<!-- Node384&#45;&gt;Node385 -->
<g id="edge2" class="edge"><title>Node384&#45;&gt;Node385</title>
<path fill="none" stroke="midnightblue" d="M304.995,-54.1084C321.053,-56.607 337.784,-59.2105 353.06,-61.5874"/>
<polygon fill="midnightblue" stroke="midnightblue" points="305.521,-50.6483 295.102,-52.5691 304.445,-57.5651 305.521,-50.6483"/>
</g>
<!-- Node387 -->
<g id="node5" class="node"><title>Node387</title>
<g id="a_node5"><a xlink:href="namespacedata__catalog__entry.html#ac3e1f0d9d9e146fbb77c0084e1e9fc14" target="_top" xlink:title="data_catalog_entry\l::getvalues_static_netcdf_sub">
<polygon fill="white" stroke="black" points="330.875,-0.5 330.875,-30.5 491.803,-30.5 491.803,-0.5 330.875,-0.5"/>
<text text-anchor="start" x="338.875" y="-17.7" font-family="Helvetica,sans-Serif" font-size="11.00">data_catalog_entry</text>
<text text-anchor="middle" x="411.339" y="-6.7" font-family="Helvetica,sans-Serif" font-size="11.00">::getvalues_static_netcdf_sub</text>
</a>
</g>
</g>
<!-- Node384&#45;&gt;Node387 -->
<g id="edge4" class="edge"><title>Node384&#45;&gt;Node387</title>
<path fill="none" stroke="midnightblue" d="M305.004,-31.3048C313.53,-30.0256 322.245,-28.7179 330.832,-27.4296"/>
<polygon fill="midnightblue" stroke="midnightblue" points="304.472,-27.8454 295.102,-32.7905 305.511,-34.7679 304.472,-27.8454"/>
</g>
<!-- Node386 -->
<g id="node4" class="node"><title>Node386</title>
<g id="a_node4"><a xlink:href="namespacedata__catalog__entry.html#a9e0a89ab19a5bfd61f2dfb8265648234" target="_top" xlink:title="data_catalog_entry\l::getvalues_sub">
<polygon fill="white" stroke="black" points="527.803,-27.5 527.803,-57.5 637.373,-57.5 637.373,-27.5 527.803,-27.5"/>
<text text-anchor="start" x="535.803" y="-44.7" font-family="Helvetica,sans-Serif" font-size="11.00">data_catalog_entry</text>
<text text-anchor="middle" x="582.588" y="-33.7" font-family="Helvetica,sans-Serif" font-size="11.00">::getvalues_sub</text>
</a>
</g>
</g>
<!-- Node385&#45;&gt;Node386 -->
<g id="edge3" class="edge"><title>Node385&#45;&gt;Node386</title>
<path fill="none" stroke="midnightblue" d="M479.942,-59.3161C495.841,-56.6858 512.576,-53.9172 527.775,-51.4027"/>
<polygon fill="midnightblue" stroke="midnightblue" points="478.934,-55.9351 469.639,-61.0205 480.076,-62.8413 478.934,-55.9351"/>
</g>
<!-- Node387&#45;&gt;Node386 -->
<g id="edge5" class="edge"><title>Node387&#45;&gt;Node386</title>
<path fill="none" stroke="midnightblue" d="M502.146,-29.8267C510.772,-31.2028 519.326,-32.5674 527.448,-33.8631"/>
<polygon fill="midnightblue" stroke="midnightblue" points="502.434,-26.3285 492.008,-28.2094 501.331,-33.2411 502.434,-26.3285"/>
</g>
</g>
</svg>
