<?xml version="1.0" encoding="UTF-8" standalone="no"?>
<!DOCTYPE svg PUBLIC "-//W3C//DTD SVG 1.1//EN"
 "http://www.w3.org/Graphics/SVG/1.1/DTD/svg11.dtd">
<!-- Generated by graphviz version 2.38.0 (20140413.2041)
 -->
<!-- Title: data_catalog_entry::getvalues_gridded_sub Pages: 1 -->
<svg width="289pt" height="39pt"
 viewBox="0.00 0.00 289.44 39.00" xmlns="http://www.w3.org/2000/svg" xmlns:xlink="http://www.w3.org/1999/xlink">
<g id="graph0" class="graph" transform="scale(1 1) rotate(0) translate(4 35)">
<title>data_catalog_entry::getvalues_gridded_sub</title>
<polygon fill="white" stroke="none" points="-4,4 -4,-35 285.437,-35 285.437,4 -4,4"/>
<!-- Node106 -->
<g id="node1" class="node"><title>Node106</title>
<polygon fill="#bfbfbf" stroke="black" points="0,-0.5 0,-30.5 135.867,-30.5 135.867,-0.5 0,-0.5"/>
<text text-anchor="start" x="8" y="-17.7" font-family="Helvetica,sans-Serif" font-size="11.00">data_catalog_entry</text>
<text text-anchor="middle" x="67.9333" y="-6.7" font-family="Helvetica,sans-Serif" font-size="11.00">::getvalues_gridded_sub</text>
</g>
<!-- Node107 -->
<g id="node2" class="node"><title>Node107</title>
<g id="a_node2"><a xlink:href="namespacedata__catalog__entry.html#a9e0a89ab19a5bfd61f2dfb8265648234" target="_top" xlink:title="data_catalog_entry\l::getvalues_sub">
<polygon fill="white" stroke="black" points="171.867,-0.5 171.867,-30.5 281.437,-30.5 281.437,-0.5 171.867,-0.5"/>
<text text-anchor="start" x="179.867" y="-17.7" font-family="Helvetica,sans-Serif" font-size="11.00">data_catalog_entry</text>
<text text-anchor="middle" x="226.652" y="-6.7" font-family="Helvetica,sans-Serif" font-size="11.00">::getvalues_sub</text>
</a>
</g>
</g>
<!-- Node106&#45;&gt;Node107 -->
<g id="edge1" class="edge"><title>Node106&#45;&gt;Node107</title>
<path fill="none" stroke="midnightblue" d="M146.58,-15.5C155.029,-15.5 163.489,-15.5 171.567,-15.5"/>
<polygon fill="midnightblue" stroke="midnightblue" points="146.306,-12.0001 136.306,-15.5 146.305,-19.0001 146.306,-12.0001"/>
</g>
</g>
</svg>
