<?xml version="1.0" encoding="UTF-8" standalone="no"?>
<!DOCTYPE svg PUBLIC "-//W3C//DTD SVG 1.1//EN"
 "http://www.w3.org/Graphics/SVG/1.1/DTD/svg11.dtd">
<!-- Generated by graphviz version 2.38.0 (20140413.2041)
 -->
<!-- Title: model_domain::model_initialize_growing_season Pages: 1 -->
<svg width="614pt" height="66pt"
 viewBox="0.00 0.00 613.53 66.00" xmlns="http://www.w3.org/2000/svg" xmlns:xlink="http://www.w3.org/1999/xlink">
<g id="graph0" class="graph" transform="scale(1 1) rotate(0) translate(4 62)">
<title>model_domain::model_initialize_growing_season</title>
<polygon fill="white" stroke="none" points="-4,4 -4,-62 609.528,-62 609.528,4 -4,4"/>
<!-- Node1 -->
<g id="node1" class="node"><title>Node1</title>
<polygon fill="#bfbfbf" stroke="black" points="0,-8.5 0,-49.5 124.228,-49.5 124.228,-8.5 0,-8.5"/>
<text text-anchor="start" x="8" y="-36.7" font-family="Helvetica,sans-Serif" font-size="11.00">model_domain::model</text>
<text text-anchor="start" x="8" y="-25.7" font-family="Helvetica,sans-Serif" font-size="11.00">_initialize_growing</text>
<text text-anchor="middle" x="62.1138" y="-14.7" font-family="Helvetica,sans-Serif" font-size="11.00">_season</text>
</g>
<!-- Node2 -->
<g id="node2" class="node"><title>Node2</title>
<g id="a_node2"><a xlink:href="namespacegrowing__season.html#add2a4f3df5a65bcd0406e7a24f8493f7" target="_top" xlink:title="growing_season::growing\l_season_initialize">
<polygon fill="white" stroke="black" points="160.228,-14 160.228,-44 300.971,-44 300.971,-14 160.228,-14"/>
<text text-anchor="start" x="168.228" y="-31.2" font-family="Helvetica,sans-Serif" font-size="11.00">growing_season::growing</text>
<text text-anchor="middle" x="230.599" y="-20.2" font-family="Helvetica,sans-Serif" font-size="11.00">_season_initialize</text>
</a>
</g>
</g>
<!-- Node1&#45;&gt;Node2 -->
<g id="edge1" class="edge"><title>Node1&#45;&gt;Node2</title>
<path fill="none" stroke="midnightblue" d="M124.634,-29C132.956,-29 141.589,-29 150.169,-29"/>
<polygon fill="midnightblue" stroke="midnightblue" points="150.193,-32.5001 160.193,-29 150.193,-25.5001 150.193,-32.5001"/>
</g>
<!-- Node3 -->
<g id="node3" class="node"><title>Node3</title>
<g id="a_node3"><a xlink:href="namespacedatetime.html#a45ad8eb2d0529ecfc6bcb3671ebc8415" target="_top" xlink:title="datetime::mmdd2doy">
<polygon fill="white" stroke="black" points="336.971,-38.5 336.971,-57.5 455.688,-57.5 455.688,-38.5 336.971,-38.5"/>
<text text-anchor="middle" x="396.33" y="-44.7" font-family="Helvetica,sans-Serif" font-size="11.00">datetime::mmdd2doy</text>
</a>
</g>
</g>
<!-- Node2&#45;&gt;Node3 -->
<g id="edge2" class="edge"><title>Node2&#45;&gt;Node3</title>
<path fill="none" stroke="midnightblue" d="M301.036,-37.0577C309.618,-38.0536 318.387,-39.0712 326.953,-40.0653"/>
<polygon fill="midnightblue" stroke="midnightblue" points="326.556,-43.5426 336.893,-41.2187 327.363,-36.5893 326.556,-43.5426"/>
</g>
<!-- Node5 -->
<g id="node5" class="node"><title>Node5</title>
<g id="a_node5"><a xlink:href="namespaceexceptions.html#a84dd04476b06e0a398bfe6d106a82a4d" target="_top" xlink:title="exceptions::warn">
<polygon fill="white" stroke="black" points="347.058,-0.5 347.058,-19.5 445.601,-19.5 445.601,-0.5 347.058,-0.5"/>
<text text-anchor="middle" x="396.33" y="-6.7" font-family="Helvetica,sans-Serif" font-size="11.00">exceptions::warn</text>
</a>
</g>
</g>
<!-- Node2&#45;&gt;Node5 -->
<g id="edge4" class="edge"><title>Node2&#45;&gt;Node5</title>
<path fill="none" stroke="midnightblue" d="M301.036,-20.9423C312.9,-19.5655 325.121,-18.1473 336.67,-16.8071"/>
<polygon fill="midnightblue" stroke="midnightblue" points="337.091,-20.2819 346.621,-15.6524 336.284,-13.3285 337.091,-20.2819"/>
</g>
<!-- Node4 -->
<g id="node4" class="node"><title>Node4</title>
<g id="a_node4"><a xlink:href="namespacedatetime.html#a9ac1a0a808a83a072ebc08cf0b3b4d8a" target="_top" xlink:title="datetime::julian_day">
<polygon fill="white" stroke="black" points="491.688,-38.5 491.688,-57.5 605.528,-57.5 605.528,-38.5 491.688,-38.5"/>
<text text-anchor="middle" x="548.608" y="-44.7" font-family="Helvetica,sans-Serif" font-size="11.00">datetime::julian_day</text>
</a>
</g>
</g>
<!-- Node3&#45;&gt;Node4 -->
<g id="edge3" class="edge"><title>Node3&#45;&gt;Node4</title>
<path fill="none" stroke="midnightblue" d="M455.861,-48C464.181,-48 472.787,-48 481.243,-48"/>
<polygon fill="midnightblue" stroke="midnightblue" points="481.453,-51.5001 491.453,-48 481.453,-44.5001 481.453,-51.5001"/>
</g>
</g>
</svg>
