<?xml version="1.0" encoding="UTF-8" standalone="no"?>
<!DOCTYPE svg PUBLIC "-//W3C//DTD SVG 1.1//EN"
 "http://www.w3.org/Graphics/SVG/1.1/DTD/svg11.dtd">
<!-- Generated by graphviz version 2.38.0 (20140413.2041)
 -->
<!-- Title: model_domain::model_calculate_runoff_curve_number Pages: 1 -->
<svg width="328pt" height="50pt"
 viewBox="0.00 0.00 328.35 50.00" xmlns="http://www.w3.org/2000/svg" xmlns:xlink="http://www.w3.org/1999/xlink">
<g id="graph0" class="graph" transform="scale(1 1) rotate(0) translate(4 46)">
<title>model_domain::model_calculate_runoff_curve_number</title>
<polygon fill="white" stroke="none" points="-4,4 -4,-46 324.35,-46 324.35,4 -4,4"/>
<!-- Node293 -->
<g id="node1" class="node"><title>Node293</title>
<polygon fill="#bfbfbf" stroke="black" points="0,-0.5 0,-41.5 132.601,-41.5 132.601,-0.5 0,-0.5"/>
<text text-anchor="start" x="8" y="-28.7" font-family="Helvetica,sans-Serif" font-size="11.00">model_domain::model</text>
<text text-anchor="start" x="8" y="-17.7" font-family="Helvetica,sans-Serif" font-size="11.00">_calculate_runoff_curve</text>
<text text-anchor="middle" x="66.3005" y="-6.7" font-family="Helvetica,sans-Serif" font-size="11.00">_number</text>
</g>
<!-- Node294 -->
<g id="node2" class="node"><title>Node294</title>
<g id="a_node2"><a xlink:href="namespacemodel__domain.html#aac78dbf26ba37cf86ebed4edd7acf89b" target="_top" xlink:title="model_domain::set_method\l_pointers_sub">
<polygon fill="white" stroke="black" points="168.601,-6 168.601,-36 320.35,-36 320.35,-6 168.601,-6"/>
<text text-anchor="start" x="176.601" y="-23.2" font-family="Helvetica,sans-Serif" font-size="11.00">model_domain::set_method</text>
<text text-anchor="middle" x="244.476" y="-12.2" font-family="Helvetica,sans-Serif" font-size="11.00">_pointers_sub</text>
</a>
</g>
</g>
<!-- Node293&#45;&gt;Node294 -->
<g id="edge1" class="edge"><title>Node293&#45;&gt;Node294</title>
<path fill="none" stroke="midnightblue" d="M143.03,-21C151.412,-21 159.947,-21 168.322,-21"/>
<polygon fill="midnightblue" stroke="midnightblue" points="142.902,-17.5001 132.902,-21 142.902,-24.5001 142.902,-17.5001"/>
</g>
</g>
</svg>
