<?xml version="1.0" encoding="UTF-8" standalone="no"?>
<!DOCTYPE svg PUBLIC "-//W3C//DTD SVG 1.1//EN"
 "http://www.w3.org/Graphics/SVG/1.1/DTD/svg11.dtd">
<!-- Generated by graphviz version 2.38.0 (20140413.2041)
 -->
<!-- Title: model_domain::model_initialize_interception_bucket Pages: 1 -->
<svg width="420pt" height="50pt"
 viewBox="0.00 0.00 420.29 50.00" xmlns="http://www.w3.org/2000/svg" xmlns:xlink="http://www.w3.org/1999/xlink">
<g id="graph0" class="graph" transform="scale(1 1) rotate(0) translate(4 46)">
<title>model_domain::model_initialize_interception_bucket</title>
<polygon fill="white" stroke="none" points="-4,4 -4,-46 416.29,-46 416.29,4 -4,4"/>
<!-- Node1 -->
<g id="node1" class="node"><title>Node1</title>
<polygon fill="#bfbfbf" stroke="black" points="0,-0.5 0,-41.5 124.233,-41.5 124.233,-0.5 0,-0.5"/>
<text text-anchor="start" x="8" y="-28.7" font-family="Helvetica,sans-Serif" font-size="11.00">model_domain::model</text>
<text text-anchor="start" x="8" y="-17.7" font-family="Helvetica,sans-Serif" font-size="11.00">_initialize_interception</text>
<text text-anchor="middle" x="62.1165" y="-6.7" font-family="Helvetica,sans-Serif" font-size="11.00">_bucket</text>
</g>
<!-- Node2 -->
<g id="node2" class="node"><title>Node2</title>
<g id="a_node2"><a xlink:href="namespaceinterception____bucket.html#ac38375085610e4aff3186aef6b786dbe" target="_top" xlink:title="interception__bucket\l::interception_bucket\l_initialize">
<polygon fill="white" stroke="black" points="160.233,-0.5 160.233,-41.5 277.747,-41.5 277.747,-0.5 160.233,-0.5"/>
<text text-anchor="start" x="168.233" y="-28.7" font-family="Helvetica,sans-Serif" font-size="11.00">interception__bucket</text>
<text text-anchor="start" x="168.233" y="-17.7" font-family="Helvetica,sans-Serif" font-size="11.00">::interception_bucket</text>
<text text-anchor="middle" x="218.99" y="-6.7" font-family="Helvetica,sans-Serif" font-size="11.00">_initialize</text>
</a>
</g>
</g>
<!-- Node1&#45;&gt;Node2 -->
<g id="edge1" class="edge"><title>Node1&#45;&gt;Node2</title>
<path fill="none" stroke="midnightblue" d="M124.326,-21C132.682,-21 141.301,-21 149.771,-21"/>
<polygon fill="midnightblue" stroke="midnightblue" points="150.001,-24.5001 160.001,-21 150.001,-17.5001 150.001,-24.5001"/>
</g>
<!-- Node3 -->
<g id="node3" class="node"><title>Node3</title>
<g id="a_node3"><a xlink:href="namespaceexceptions.html#a84dd04476b06e0a398bfe6d106a82a4d" target="_top" xlink:title="exceptions::warn">
<polygon fill="white" stroke="black" points="313.747,-11.5 313.747,-30.5 412.29,-30.5 412.29,-11.5 313.747,-11.5"/>
<text text-anchor="middle" x="363.018" y="-17.7" font-family="Helvetica,sans-Serif" font-size="11.00">exceptions::warn</text>
</a>
</g>
</g>
<!-- Node2&#45;&gt;Node3 -->
<g id="edge2" class="edge"><title>Node2&#45;&gt;Node3</title>
<path fill="none" stroke="midnightblue" d="M277.758,-21C286.166,-21 294.832,-21 303.259,-21"/>
<polygon fill="midnightblue" stroke="midnightblue" points="303.388,-24.5001 313.388,-21 303.388,-17.5001 303.388,-24.5001"/>
</g>
</g>
</svg>
