<?xml version="1.0" encoding="UTF-8" standalone="no"?>
<!DOCTYPE svg PUBLIC "-//W3C//DTD SVG 1.1//EN"
 "http://www.w3.org/Graphics/SVG/1.1/DTD/svg11.dtd">
<!-- Generated by graphviz version 2.38.0 (20140413.2041)
 -->
<!-- Title: continuous_frozen_ground_index::initialize_continuous_frozen_ground_index Pages: 1 -->
<svg width="322pt" height="50pt"
 viewBox="0.00 0.00 322.45 50.00" xmlns="http://www.w3.org/2000/svg" xmlns:xlink="http://www.w3.org/1999/xlink">
<g id="graph0" class="graph" transform="scale(1 1) rotate(0) translate(4 46)">
<title>continuous_frozen_ground_index::initialize_continuous_frozen_ground_index</title>
<polygon fill="white" stroke="none" points="-4,4 -4,-46 318.453,-46 318.453,4 -4,4"/>
<!-- Node1 -->
<g id="node1" class="node"><title>Node1</title>
<polygon fill="#bfbfbf" stroke="black" points="0,-0.5 0,-41.5 152.979,-41.5 152.979,-0.5 0,-0.5"/>
<text text-anchor="start" x="8" y="-28.7" font-family="Helvetica,sans-Serif" font-size="11.00">continuous_frozen_ground</text>
<text text-anchor="start" x="8" y="-17.7" font-family="Helvetica,sans-Serif" font-size="11.00">_index::initialize_continuous</text>
<text text-anchor="middle" x="76.4895" y="-6.7" font-family="Helvetica,sans-Serif" font-size="11.00">_frozen_ground_index</text>
</g>
<!-- Node2 -->
<g id="node2" class="node"><title>Node2</title>
<g id="a_node2"><a xlink:href="namespacemodel__domain.html#a39564a7c295d9025d2885feb604eab7e" target="_top" xlink:title="model_domain::model\l_initialize_continuous\l_frozen_ground_index">
<polygon fill="white" stroke="black" points="188.979,-0.5 188.979,-41.5 314.453,-41.5 314.453,-0.5 188.979,-0.5"/>
<text text-anchor="start" x="196.979" y="-28.7" font-family="Helvetica,sans-Serif" font-size="11.00">model_domain::model</text>
<text text-anchor="start" x="196.979" y="-17.7" font-family="Helvetica,sans-Serif" font-size="11.00">_initialize_continuous</text>
<text text-anchor="middle" x="251.716" y="-6.7" font-family="Helvetica,sans-Serif" font-size="11.00">_frozen_ground_index</text>
</a>
</g>
</g>
<!-- Node1&#45;&gt;Node2 -->
<g id="edge1" class="edge"><title>Node1&#45;&gt;Node2</title>
<path fill="none" stroke="midnightblue" d="M163.326,-21C171.958,-21 180.601,-21 188.911,-21"/>
<polygon fill="midnightblue" stroke="midnightblue" points="163.217,-17.5001 153.217,-21 163.217,-24.5001 163.217,-17.5001"/>
</g>
</g>
</svg>
