<?xml version="1.0" encoding="UTF-8" standalone="no"?>
<!DOCTYPE svg PUBLIC "-//W3C//DTD SVG 1.1//EN"
 "http://www.w3.org/Graphics/SVG/1.1/DTD/svg11.dtd">
<!-- Generated by graphviz version 2.38.0 (20140413.2041)
 -->
<!-- Title: solar_calculations::solar_declination__delta Pages: 1 -->
<svg width="270pt" height="50pt"
 viewBox="0.00 0.00 270.46 50.00" xmlns="http://www.w3.org/2000/svg" xmlns:xlink="http://www.w3.org/1999/xlink">
<g id="graph0" class="graph" transform="scale(1 1) rotate(0) translate(4 46)">
<title>solar_calculations::solar_declination__delta</title>
<polygon fill="white" stroke="none" points="-4,4 -4,-46 266.46,-46 266.46,4 -4,4"/>
<!-- Node16 -->
<g id="node1" class="node"><title>Node16</title>
<polygon fill="#bfbfbf" stroke="black" points="0,-0.5 0,-41.5 104.666,-41.5 104.666,-0.5 0,-0.5"/>
<text text-anchor="start" x="8" y="-28.7" font-family="Helvetica,sans-Serif" font-size="11.00">solar_calculations</text>
<text text-anchor="start" x="8" y="-17.7" font-family="Helvetica,sans-Serif" font-size="11.00">::solar_declination</text>
<text text-anchor="middle" x="52.333" y="-6.7" font-family="Helvetica,sans-Serif" font-size="11.00">__delta</text>
</g>
<!-- Node17 -->
<g id="node2" class="node"><title>Node17</title>
<g id="a_node2"><a xlink:href="namespacesolar__calculations.html#a4c711b1d41eba9fa8e0797aef21e43f0" target="_top" xlink:title="Calculate the day angle in RADIANS. ">
<polygon fill="white" stroke="black" points="140.666,-6 140.666,-36 262.46,-36 262.46,-6 140.666,-6"/>
<text text-anchor="start" x="148.666" y="-23.2" font-family="Helvetica,sans-Serif" font-size="11.00">solar_calculations</text>
<text text-anchor="middle" x="201.563" y="-12.2" font-family="Helvetica,sans-Serif" font-size="11.00">::day_angle__gamma</text>
</a>
</g>
</g>
<!-- Node16&#45;&gt;Node17 -->
<g id="edge1" class="edge"><title>Node16&#45;&gt;Node17</title>
<path fill="none" stroke="midnightblue" d="M104.827,-21C113.112,-21 121.808,-21 130.441,-21"/>
<polygon fill="midnightblue" stroke="midnightblue" points="130.517,-24.5001 140.516,-21 130.516,-17.5001 130.517,-24.5001"/>
</g>
</g>
</svg>
