<?xml version="1.0" encoding="UTF-8" standalone="no"?>
<!DOCTYPE svg PUBLIC "-//W3C//DTD SVG 1.1//EN"
 "http://www.w3.org/Graphics/SVG/1.1/DTD/svg11.dtd">
<!-- Generated by graphviz version 2.38.0 (20140413.2041)
 -->
<!-- Title: awc__depth_integrated::awc_depth_integrated_read Pages: 1 -->
<svg width="537pt" height="50pt"
 viewBox="0.00 0.00 537.13 50.00" xmlns="http://www.w3.org/2000/svg" xmlns:xlink="http://www.w3.org/1999/xlink">
<g id="graph0" class="graph" transform="scale(1 1) rotate(0) translate(4 46)">
<title>awc__depth_integrated::awc_depth_integrated_read</title>
<polygon fill="white" stroke="none" points="-4,4 -4,-46 533.132,-46 533.132,4 -4,4"/>
<!-- Node1 -->
<g id="node1" class="node"><title>Node1</title>
<polygon fill="#bfbfbf" stroke="black" points="0,-6 0,-36 158.495,-36 158.495,-6 0,-6"/>
<text text-anchor="start" x="8" y="-23.2" font-family="Helvetica,sans-Serif" font-size="11.00">awc__depth_integrated</text>
<text text-anchor="middle" x="79.2476" y="-12.2" font-family="Helvetica,sans-Serif" font-size="11.00">::awc_depth_integrated_read</text>
</g>
<!-- Node2 -->
<g id="node2" class="node"><title>Node2</title>
<g id="a_node2"><a xlink:href="namespacemodel__domain.html#aa32681a44cb562491620df76e9887cdb" target="_top" xlink:title="model_domain::model\l_read_available_water\l_content_depth_integrated">
<polygon fill="white" stroke="black" points="194.495,-0.5 194.495,-41.5 341.383,-41.5 341.383,-0.5 194.495,-0.5"/>
<text text-anchor="start" x="202.495" y="-28.7" font-family="Helvetica,sans-Serif" font-size="11.00">model_domain::model</text>
<text text-anchor="start" x="202.495" y="-17.7" font-family="Helvetica,sans-Serif" font-size="11.00">_read_available_water</text>
<text text-anchor="middle" x="267.939" y="-6.7" font-family="Helvetica,sans-Serif" font-size="11.00">_content_depth_integrated</text>
</a>
</g>
</g>
<!-- Node1&#45;&gt;Node2 -->
<g id="edge1" class="edge"><title>Node1&#45;&gt;Node2</title>
<path fill="none" stroke="midnightblue" d="M168.69,-21C177.314,-21 185.994,-21 194.434,-21"/>
<polygon fill="midnightblue" stroke="midnightblue" points="168.61,-17.5001 158.61,-21 168.61,-24.5001 168.61,-17.5001"/>
</g>
<!-- Node3 -->
<g id="node3" class="node"><title>Node3</title>
<g id="a_node3"><a xlink:href="namespacemodel__domain.html#aac78dbf26ba37cf86ebed4edd7acf89b" target="_top" xlink:title="model_domain::set_method\l_pointers_sub">
<polygon fill="white" stroke="black" points="377.383,-6 377.383,-36 529.132,-36 529.132,-6 377.383,-6"/>
<text text-anchor="start" x="385.383" y="-23.2" font-family="Helvetica,sans-Serif" font-size="11.00">model_domain::set_method</text>
<text text-anchor="middle" x="453.258" y="-12.2" font-family="Helvetica,sans-Serif" font-size="11.00">_pointers_sub</text>
</a>
</g>
</g>
<!-- Node2&#45;&gt;Node3 -->
<g id="edge2" class="edge"><title>Node2&#45;&gt;Node3</title>
<path fill="none" stroke="midnightblue" d="M351.443,-21C360.064,-21 368.793,-21 377.323,-21"/>
<polygon fill="midnightblue" stroke="midnightblue" points="351.392,-17.5001 341.392,-21 351.392,-24.5001 351.392,-17.5001"/>
</g>
</g>
</svg>
