<?xml version="1.0" encoding="UTF-8" standalone="no"?>
<!DOCTYPE svg PUBLIC "-//W3C//DTD SVG 1.1//EN"
 "http://www.w3.org/Graphics/SVG/1.1/DTD/svg11.dtd">
<!-- Generated by graphviz version 2.38.0 (20140413.2041)
 -->
<!-- Title: actual_et__fao56::calculate_actual_et_fao56 Pages: 1 -->
<svg width="532pt" height="39pt"
 viewBox="0.00 0.00 531.62 39.00" xmlns="http://www.w3.org/2000/svg" xmlns:xlink="http://www.w3.org/1999/xlink">
<g id="graph0" class="graph" transform="scale(1 1) rotate(0) translate(4 35)">
<title>actual_et__fao56::calculate_actual_et_fao56</title>
<polygon fill="white" stroke="none" points="-4,4 -4,-35 527.622,-35 527.622,4 -4,4"/>
<!-- Node1 -->
<g id="node1" class="node"><title>Node1</title>
<polygon fill="#bfbfbf" stroke="black" points="0,-0.5 0,-30.5 149.934,-30.5 149.934,-0.5 0,-0.5"/>
<text text-anchor="start" x="8" y="-17.7" font-family="Helvetica,sans-Serif" font-size="11.00">actual_et__fao56::calculate</text>
<text text-anchor="middle" x="74.9668" y="-6.7" font-family="Helvetica,sans-Serif" font-size="11.00">_actual_et_fao56</text>
</g>
<!-- Node2 -->
<g id="node2" class="node"><title>Node2</title>
<g id="a_node2"><a xlink:href="namespacemodel__domain.html#abc504689fe438ebd0011fb27942079ce" target="_top" xlink:title="model_domain::model\l_calculate_actual_et_fao56">
<polygon fill="white" stroke="black" points="185.934,-0.5 185.934,-30.5 335.873,-30.5 335.873,-0.5 185.934,-0.5"/>
<text text-anchor="start" x="193.934" y="-17.7" font-family="Helvetica,sans-Serif" font-size="11.00">model_domain::model</text>
<text text-anchor="middle" x="260.903" y="-6.7" font-family="Helvetica,sans-Serif" font-size="11.00">_calculate_actual_et_fao56</text>
</a>
</g>
</g>
<!-- Node1&#45;&gt;Node2 -->
<g id="edge1" class="edge"><title>Node1&#45;&gt;Node2</title>
<path fill="none" stroke="midnightblue" d="M160.003,-15.5C168.589,-15.5 177.267,-15.5 185.736,-15.5"/>
<polygon fill="midnightblue" stroke="midnightblue" points="159.986,-12.0001 149.986,-15.5 159.986,-19.0001 159.986,-12.0001"/>
</g>
<!-- Node3 -->
<g id="node3" class="node"><title>Node3</title>
<g id="a_node3"><a xlink:href="namespacemodel__domain.html#aac78dbf26ba37cf86ebed4edd7acf89b" target="_top" xlink:title="model_domain::set_method\l_pointers_sub">
<polygon fill="white" stroke="black" points="371.873,-0.5 371.873,-30.5 523.622,-30.5 523.622,-0.5 371.873,-0.5"/>
<text text-anchor="start" x="379.873" y="-17.7" font-family="Helvetica,sans-Serif" font-size="11.00">model_domain::set_method</text>
<text text-anchor="middle" x="447.747" y="-6.7" font-family="Helvetica,sans-Serif" font-size="11.00">_pointers_sub</text>
</a>
</g>
</g>
<!-- Node2&#45;&gt;Node3 -->
<g id="edge2" class="edge"><title>Node2&#45;&gt;Node3</title>
<path fill="none" stroke="midnightblue" d="M346.296,-15.5C354.771,-15.5 363.338,-15.5 371.708,-15.5"/>
<polygon fill="midnightblue" stroke="midnightblue" points="346.021,-12.0001 336.021,-15.5 346.021,-19.0001 346.021,-12.0001"/>
</g>
</g>
</svg>
