<?xml version="1.0" encoding="UTF-8" standalone="no"?>
<!DOCTYPE svg PUBLIC "-//W3C//DTD SVG 1.1//EN"
 "http://www.w3.org/Graphics/SVG/1.1/DTD/svg11.dtd">
<!-- Generated by graphviz version 2.38.0 (20140413.2041)
 -->
<!-- Title: model_initialize::initialize_soils_landuse_awc_flowdir_values Pages: 1 -->
<svg width="528pt" height="235pt"
 viewBox="0.00 0.00 528.48 235.00" xmlns="http://www.w3.org/2000/svg" xmlns:xlink="http://www.w3.org/1999/xlink">
<g id="graph0" class="graph" transform="scale(1 1) rotate(0) translate(4 231)">
<title>model_initialize::initialize_soils_landuse_awc_flowdir_values</title>
<polygon fill="white" stroke="none" points="-4,4 -4,-231 524.479,-231 524.479,4 -4,4"/>
<!-- Node40 -->
<g id="node1" class="node"><title>Node40</title>
<polygon fill="#bfbfbf" stroke="black" points="0,-98.5 0,-128.5 190.271,-128.5 190.271,-98.5 0,-98.5"/>
<text text-anchor="start" x="8" y="-115.7" font-family="Helvetica,sans-Serif" font-size="11.00">model_initialize::initialize</text>
<text text-anchor="middle" x="95.1353" y="-104.7" font-family="Helvetica,sans-Serif" font-size="11.00">_soils_landuse_awc_flowdir_values</text>
</g>
<!-- Node41 -->
<g id="node2" class="node"><title>Node41</title>
<g id="a_node2"><a xlink:href="namespacemodel__initialize.html#aa14822f91bc376101bbb19e39f63705c" target="_top" xlink:title="model_initialize::create\l_rooting_depth_table">
<polygon fill="white" stroke="black" points="230.549,-196.5 230.549,-226.5 358.439,-226.5 358.439,-196.5 230.549,-196.5"/>
<text text-anchor="start" x="238.549" y="-213.7" font-family="Helvetica,sans-Serif" font-size="11.00">model_initialize::create</text>
<text text-anchor="middle" x="294.494" y="-202.7" font-family="Helvetica,sans-Serif" font-size="11.00">_rooting_depth_table</text>
</a>
</g>
</g>
<!-- Node40&#45;&gt;Node41 -->
<g id="edge1" class="edge"><title>Node40&#45;&gt;Node41</title>
<path fill="none" stroke="midnightblue" d="M119.934,-128.711C145.534,-144.669 187.763,-169.841 226.271,-187.5 230.136,-189.272 234.172,-191.001 238.265,-192.665"/>
<polygon fill="midnightblue" stroke="midnightblue" points="237.274,-196.036 247.862,-196.424 239.827,-189.518 237.274,-196.036"/>
</g>
<!-- Node44 -->
<g id="node5" class="node"><title>Node44</title>
<g id="a_node5"><a xlink:href="namespacemodel__initialize.html#ac7a4106cec2a5f9f5fc824cc58ee003c" target="_top" xlink:title="model_initialize::initialize\l_hydrologic_soil_groups">
<polygon fill="white" stroke="black" points="226.271,-0.5 226.271,-30.5 362.717,-30.5 362.717,-0.5 226.271,-0.5"/>
<text text-anchor="start" x="234.271" y="-17.7" font-family="Helvetica,sans-Serif" font-size="11.00">model_initialize::initialize</text>
<text text-anchor="middle" x="294.494" y="-6.7" font-family="Helvetica,sans-Serif" font-size="11.00">_hydrologic_soil_groups</text>
</a>
</g>
</g>
<!-- Node40&#45;&gt;Node44 -->
<g id="edge4" class="edge"><title>Node40&#45;&gt;Node44</title>
<path fill="none" stroke="midnightblue" d="M119.934,-98.2893C145.534,-82.3311 187.763,-57.1595 226.271,-39.5 230.136,-37.7275 234.172,-35.999 238.265,-34.3346"/>
<polygon fill="midnightblue" stroke="midnightblue" points="239.827,-37.4818 247.862,-30.5765 237.274,-30.9637 239.827,-37.4818"/>
</g>
<!-- Node46 -->
<g id="node7" class="node"><title>Node46</title>
<g id="a_node7"><a xlink:href="namespacemodel__initialize.html#a18de5456cd8bede53f6d00a60e97a9a0" target="_top" xlink:title="Match landuse codes from table with those contained in the gridded landuse. ">
<polygon fill="white" stroke="black" points="226.271,-49.5 226.271,-79.5 362.717,-79.5 362.717,-49.5 226.271,-49.5"/>
<text text-anchor="start" x="234.271" y="-66.7" font-family="Helvetica,sans-Serif" font-size="11.00">model_initialize::initialize</text>
<text text-anchor="middle" x="294.494" y="-55.7" font-family="Helvetica,sans-Serif" font-size="11.00">_landuse_codes</text>
</a>
</g>
</g>
<!-- Node40&#45;&gt;Node46 -->
<g id="edge6" class="edge"><title>Node40&#45;&gt;Node46</title>
<path fill="none" stroke="midnightblue" d="M156.691,-98.4654C177.718,-93.2446 201.475,-87.3463 223.221,-81.9474"/>
<polygon fill="midnightblue" stroke="midnightblue" points="224.191,-85.3128 233.053,-79.5062 222.504,-78.519 224.191,-85.3128"/>
</g>
<!-- Node48 -->
<g id="node9" class="node"><title>Node48</title>
<g id="a_node9"><a xlink:href="namespacemodel__initialize.html#ab60a4a907017b668494f60a20fe0c505" target="_top" xlink:title="model_initialize::read\l_hydrologic_soil_groups">
<polygon fill="white" stroke="black" points="227.178,-98.5 227.178,-128.5 361.81,-128.5 361.81,-98.5 227.178,-98.5"/>
<text text-anchor="start" x="235.178" y="-115.7" font-family="Helvetica,sans-Serif" font-size="11.00">model_initialize::read</text>
<text text-anchor="middle" x="294.494" y="-104.7" font-family="Helvetica,sans-Serif" font-size="11.00">_hydrologic_soil_groups</text>
</a>
</g>
</g>
<!-- Node40&#45;&gt;Node48 -->
<g id="edge9" class="edge"><title>Node40&#45;&gt;Node48</title>
<path fill="none" stroke="midnightblue" d="M190.479,-113.5C199.383,-113.5 208.334,-113.5 217.042,-113.5"/>
<polygon fill="midnightblue" stroke="midnightblue" points="217.134,-117 227.134,-113.5 217.134,-110 217.134,-117"/>
</g>
<!-- Node49 -->
<g id="node10" class="node"><title>Node49</title>
<g id="a_node10"><a xlink:href="namespacemodel__initialize.html#ada372cfa561700f3374fc97ce280ce63" target="_top" xlink:title="model_initialize::read\l_landuse_codes">
<polygon fill="white" stroke="black" points="234.827,-147.5 234.827,-177.5 354.161,-177.5 354.161,-147.5 234.827,-147.5"/>
<text text-anchor="start" x="242.827" y="-164.7" font-family="Helvetica,sans-Serif" font-size="11.00">model_initialize::read</text>
<text text-anchor="middle" x="294.494" y="-153.7" font-family="Helvetica,sans-Serif" font-size="11.00">_landuse_codes</text>
</a>
</g>
</g>
<!-- Node40&#45;&gt;Node49 -->
<g id="edge12" class="edge"><title>Node40&#45;&gt;Node49</title>
<path fill="none" stroke="midnightblue" d="M156.691,-128.535C178.21,-133.877 202.587,-139.93 224.741,-145.43"/>
<polygon fill="midnightblue" stroke="midnightblue" points="224.197,-148.901 234.746,-147.914 225.884,-142.108 224.197,-148.901"/>
</g>
<!-- Node42 -->
<g id="node3" class="node"><title>Node42</title>
<g id="a_node3"><a xlink:href="namespacegrid.html#a02803f7fe27d0354d3d16a15bd1338da" target="_top" xlink:title="grid::grid_writearcgrid">
<polygon fill="white" stroke="black" points="398.717,-153 398.717,-172 520.479,-172 520.479,-153 398.717,-153"/>
<text text-anchor="middle" x="459.598" y="-159.2" font-family="Helvetica,sans-Serif" font-size="11.00">grid::grid_writearcgrid</text>
</a>
</g>
</g>
<!-- Node41&#45;&gt;Node42 -->
<g id="edge2" class="edge"><title>Node41&#45;&gt;Node42</title>
<path fill="none" stroke="midnightblue" d="M345.762,-196.399C368.651,-189.522 395.417,-181.481 417.134,-174.957"/>
<polygon fill="midnightblue" stroke="midnightblue" points="418.155,-178.305 426.725,-172.075 416.141,-171.601 418.155,-178.305"/>
</g>
<!-- Node43 -->
<g id="node4" class="node"><title>Node43</title>
<g id="a_node4"><a xlink:href="namespacegrid.html#adfcb9064d9b58a49eb61093cd4809a43" target="_top" xlink:title="grid::grid_destroy">
<polygon fill="white" stroke="black" points="409.105,-202 409.105,-221 510.092,-221 510.092,-202 409.105,-202"/>
<text text-anchor="middle" x="459.598" y="-208.2" font-family="Helvetica,sans-Serif" font-size="11.00">grid::grid_destroy</text>
</a>
</g>
</g>
<!-- Node41&#45;&gt;Node43 -->
<g id="edge3" class="edge"><title>Node41&#45;&gt;Node43</title>
<path fill="none" stroke="midnightblue" d="M358.554,-211.5C371.711,-211.5 385.545,-211.5 398.588,-211.5"/>
<polygon fill="midnightblue" stroke="midnightblue" points="398.85,-215 408.85,-211.5 398.85,-208 398.85,-215"/>
</g>
<!-- Node45 -->
<g id="node6" class="node"><title>Node45</title>
<g id="a_node6"><a xlink:href="namespaceexceptions.html#a22a1bf2808fdc249e6b378ee3f221156" target="_top" xlink:title="exceptions::die">
<polygon fill="white" stroke="black" points="414.908,-30 414.908,-49 504.288,-49 504.288,-30 414.908,-30"/>
<text text-anchor="middle" x="459.598" y="-36.2" font-family="Helvetica,sans-Serif" font-size="11.00">exceptions::die</text>
</a>
</g>
</g>
<!-- Node44&#45;&gt;Node45 -->
<g id="edge5" class="edge"><title>Node44&#45;&gt;Node45</title>
<path fill="none" stroke="midnightblue" d="M362.776,-25.4003C376.762,-27.4582 391.325,-29.6011 404.752,-31.5767"/>
<polygon fill="midnightblue" stroke="midnightblue" points="404.366,-35.0575 414.769,-33.0507 405.385,-28.1321 404.366,-35.0575"/>
</g>
<!-- Node46&#45;&gt;Node45 -->
<g id="edge7" class="edge"><title>Node46&#45;&gt;Node45</title>
<path fill="none" stroke="midnightblue" d="M362.776,-54.1872C376.762,-52.0436 391.325,-49.8114 404.752,-47.7534"/>
<polygon fill="midnightblue" stroke="midnightblue" points="405.414,-51.1928 414.769,-46.218 404.354,-44.2736 405.414,-51.1928"/>
</g>
<!-- Node47 -->
<g id="node8" class="node"><title>Node47</title>
<g id="a_node8"><a xlink:href="namespaceexceptions.html#a84dd04476b06e0a398bfe6d106a82a4d" target="_top" xlink:title="exceptions::warn">
<polygon fill="white" stroke="black" points="410.327,-104 410.327,-123 508.87,-123 508.87,-104 410.327,-104"/>
<text text-anchor="middle" x="459.598" y="-110.2" font-family="Helvetica,sans-Serif" font-size="11.00">exceptions::warn</text>
</a>
</g>
</g>
<!-- Node46&#45;&gt;Node47 -->
<g id="edge8" class="edge"><title>Node46&#45;&gt;Node47</title>
<path fill="none" stroke="midnightblue" d="M345.762,-79.6014C368.651,-86.4781 395.417,-94.519 417.134,-101.043"/>
<polygon fill="midnightblue" stroke="midnightblue" points="416.141,-104.399 426.725,-103.925 418.155,-97.6953 416.141,-104.399"/>
</g>
<!-- Node48&#45;&gt;Node42 -->
<g id="edge10" class="edge"><title>Node48&#45;&gt;Node42</title>
<path fill="none" stroke="midnightblue" d="M345.762,-128.601C368.651,-135.478 395.417,-143.519 417.134,-150.043"/>
<polygon fill="midnightblue" stroke="midnightblue" points="416.141,-153.399 426.725,-152.925 418.155,-146.695 416.141,-153.399"/>
</g>
<!-- Node48&#45;&gt;Node47 -->
<g id="edge11" class="edge"><title>Node48&#45;&gt;Node47</title>
<path fill="none" stroke="midnightblue" d="M361.835,-113.5C374.513,-113.5 387.7,-113.5 400.11,-113.5"/>
<polygon fill="midnightblue" stroke="midnightblue" points="400.324,-117 410.324,-113.5 400.324,-110 400.324,-117"/>
</g>
<!-- Node49&#45;&gt;Node42 -->
<g id="edge13" class="edge"><title>Node49&#45;&gt;Node42</title>
<path fill="none" stroke="midnightblue" d="M354.378,-162.5C365.417,-162.5 377.057,-162.5 388.398,-162.5"/>
<polygon fill="midnightblue" stroke="midnightblue" points="388.704,-166 398.704,-162.5 388.704,-159 388.704,-166"/>
</g>
<!-- Node49&#45;&gt;Node47 -->
<g id="edge14" class="edge"><title>Node49&#45;&gt;Node47</title>
<path fill="none" stroke="midnightblue" d="M345.762,-147.399C368.651,-140.522 395.417,-132.481 417.134,-125.957"/>
<polygon fill="midnightblue" stroke="midnightblue" points="418.155,-129.305 426.725,-123.075 416.141,-122.601 418.155,-129.305"/>
</g>
</g>
</svg>
