<?xml version="1.0" encoding="UTF-8" standalone="no"?>
<!DOCTYPE svg PUBLIC "-//W3C//DTD SVG 1.1//EN"
 "http://www.w3.org/Graphics/SVG/1.1/DTD/svg11.dtd">
<!-- Generated by graphviz version 2.38.0 (20140413.2041)
 -->
<!-- Title: datetime::isleap Pages: 1 -->
<svg width="266pt" height="50pt"
 viewBox="0.00 0.00 266.19 50.00" xmlns="http://www.w3.org/2000/svg" xmlns:xlink="http://www.w3.org/1999/xlink">
<g id="graph0" class="graph" transform="scale(1 1) rotate(0) translate(4 46)">
<title>datetime::isleap</title>
<polygon fill="white" stroke="none" points="-4,4 -4,-46 262.19,-46 262.19,4 -4,4"/>
<!-- Node138 -->
<g id="node1" class="node"><title>Node138</title>
<polygon fill="#bfbfbf" stroke="black" points="0,-11.5 0,-30.5 93.043,-30.5 93.043,-11.5 0,-11.5"/>
<text text-anchor="middle" x="46.5215" y="-17.7" font-family="Helvetica,sans-Serif" font-size="11.00">datetime::isleap</text>
</g>
<!-- Node139 -->
<g id="node2" class="node"><title>Node139</title>
<g id="a_node2"><a xlink:href="namespacedata__catalog__entry.html#a604992b3b08d345ebf92abc3f18d8fd6" target="_top" xlink:title="data_catalog_entry\l::test_for_need_to_pad\l_values_fn">
<polygon fill="white" stroke="black" points="129.043,-0.5 129.043,-41.5 258.19,-41.5 258.19,-0.5 129.043,-0.5"/>
<text text-anchor="start" x="137.043" y="-28.7" font-family="Helvetica,sans-Serif" font-size="11.00">data_catalog_entry</text>
<text text-anchor="start" x="137.043" y="-17.7" font-family="Helvetica,sans-Serif" font-size="11.00">::test_for_need_to_pad</text>
<text text-anchor="middle" x="193.617" y="-6.7" font-family="Helvetica,sans-Serif" font-size="11.00">_values_fn</text>
</a>
</g>
</g>
<!-- Node138&#45;&gt;Node139 -->
<g id="edge1" class="edge"><title>Node138&#45;&gt;Node139</title>
<path fill="none" stroke="midnightblue" d="M103.441,-21C111.8,-21 120.471,-21 128.976,-21"/>
<polygon fill="midnightblue" stroke="midnightblue" points="103.431,-17.5001 93.4305,-21 103.43,-24.5001 103.431,-17.5001"/>
</g>
</g>
</svg>
