<?xml version="1.0" encoding="UTF-8" standalone="no"?>
<!DOCTYPE svg PUBLIC "-//W3C//DTD SVG 1.1//EN"
 "http://www.w3.org/Graphics/SVG/1.1/DTD/svg11.dtd">
<!-- Generated by graphviz version 2.38.0 (20140413.2041)
 -->
<!-- Title: model_domain::model_get_precip_method_of_fragments Pages: 1 -->
<svg width="327pt" height="50pt"
 viewBox="0.00 0.00 327.33 50.00" xmlns="http://www.w3.org/2000/svg" xmlns:xlink="http://www.w3.org/1999/xlink">
<g id="graph0" class="graph" transform="scale(1 1) rotate(0) translate(4 46)">
<title>model_domain::model_get_precip_method_of_fragments</title>
<polygon fill="white" stroke="none" points="-4,4 -4,-46 323.335,-46 323.335,4 -4,4"/>
<!-- Node1 -->
<g id="node1" class="node"><title>Node1</title>
<polygon fill="#bfbfbf" stroke="black" points="0,-0.5 0,-41.5 131.586,-41.5 131.586,-0.5 0,-0.5"/>
<text text-anchor="start" x="8" y="-28.7" font-family="Helvetica,sans-Serif" font-size="11.00">model_domain::model</text>
<text text-anchor="start" x="8" y="-17.7" font-family="Helvetica,sans-Serif" font-size="11.00">_get_precip_method_of</text>
<text text-anchor="middle" x="65.793" y="-6.7" font-family="Helvetica,sans-Serif" font-size="11.00">_fragments</text>
</g>
<!-- Node2 -->
<g id="node2" class="node"><title>Node2</title>
<g id="a_node2"><a xlink:href="namespacemodel__domain.html#aac78dbf26ba37cf86ebed4edd7acf89b" target="_top" xlink:title="model_domain::set_method\l_pointers_sub">
<polygon fill="white" stroke="black" points="167.586,-6 167.586,-36 319.335,-36 319.335,-6 167.586,-6"/>
<text text-anchor="start" x="175.586" y="-23.2" font-family="Helvetica,sans-Serif" font-size="11.00">model_domain::set_method</text>
<text text-anchor="middle" x="243.46" y="-12.2" font-family="Helvetica,sans-Serif" font-size="11.00">_pointers_sub</text>
</a>
</g>
</g>
<!-- Node1&#45;&gt;Node2 -->
<g id="edge1" class="edge"><title>Node1&#45;&gt;Node2</title>
<path fill="none" stroke="midnightblue" d="M141.915,-21C150.367,-21 158.98,-21 167.431,-21"/>
<polygon fill="midnightblue" stroke="midnightblue" points="141.706,-17.5001 131.706,-21 141.706,-24.5001 141.706,-17.5001"/>
</g>
</g>
</svg>
