<?xml version="1.0" encoding="UTF-8" standalone="no"?>
<!DOCTYPE svg PUBLIC "-//W3C//DTD SVG 1.1//EN"
 "http://www.w3.org/Graphics/SVG/1.1/DTD/svg11.dtd">
<!-- Generated by graphviz version 2.38.0 (20140413.2041)
 -->
<!-- Title: model_initialize::read_landuse_codes Pages: 1 -->
<svg width="619pt" height="39pt"
 viewBox="0.00 0.00 619.02 39.00" xmlns="http://www.w3.org/2000/svg" xmlns:xlink="http://www.w3.org/1999/xlink">
<g id="graph0" class="graph" transform="scale(1 1) rotate(0) translate(4 35)">
<title>model_initialize::read_landuse_codes</title>
<polygon fill="white" stroke="none" points="-4,4 -4,-35 615.017,-35 615.017,4 -4,4"/>
<!-- Node134 -->
<g id="node1" class="node"><title>Node134</title>
<polygon fill="#bfbfbf" stroke="black" points="0,-0.5 0,-30.5 119.334,-30.5 119.334,-0.5 0,-0.5"/>
<text text-anchor="start" x="8" y="-17.7" font-family="Helvetica,sans-Serif" font-size="11.00">model_initialize::read</text>
<text text-anchor="middle" x="59.6672" y="-6.7" font-family="Helvetica,sans-Serif" font-size="11.00">_landuse_codes</text>
</g>
<!-- Node135 -->
<g id="node2" class="node"><title>Node135</title>
<g id="a_node2"><a xlink:href="namespacemodel__initialize.html#ad5de643aae8f976ef39b44ec8276c528" target="_top" xlink:title="Initialize soils, landuse, and available water content values. ">
<polygon fill="white" stroke="black" points="155.334,-0.5 155.334,-30.5 345.605,-30.5 345.605,-0.5 155.334,-0.5"/>
<text text-anchor="start" x="163.334" y="-17.7" font-family="Helvetica,sans-Serif" font-size="11.00">model_initialize::initialize</text>
<text text-anchor="middle" x="250.47" y="-6.7" font-family="Helvetica,sans-Serif" font-size="11.00">_soils_landuse_awc_flowdir_values</text>
</a>
</g>
</g>
<!-- Node134&#45;&gt;Node135 -->
<g id="edge1" class="edge"><title>Node134&#45;&gt;Node135</title>
<path fill="none" stroke="midnightblue" d="M129.411,-15.5C137.776,-15.5 146.432,-15.5 155.088,-15.5"/>
<polygon fill="midnightblue" stroke="midnightblue" points="129.371,-12.0001 119.371,-15.5 129.371,-19.0001 129.371,-12.0001"/>
</g>
<!-- Node136 -->
<g id="node3" class="node"><title>Node136</title>
<g id="a_node3"><a xlink:href="namespacemodel__initialize.html#a46370bf2e9ea112d1f219277ba7fd3ce" target="_top" xlink:title="model_initialize::initialize_all">
<polygon fill="white" stroke="black" points="381.605,-6 381.605,-25 535.175,-25 535.175,-6 381.605,-6"/>
<text text-anchor="middle" x="458.39" y="-12.2" font-family="Helvetica,sans-Serif" font-size="11.00">model_initialize::initialize_all</text>
</a>
</g>
</g>
<!-- Node135&#45;&gt;Node136 -->
<g id="edge2" class="edge"><title>Node135&#45;&gt;Node136</title>
<path fill="none" stroke="midnightblue" d="M355.812,-15.5C364.44,-15.5 373.055,-15.5 381.415,-15.5"/>
<polygon fill="midnightblue" stroke="midnightblue" points="355.692,-12.0001 345.692,-15.5 355.692,-19.0001 355.692,-12.0001"/>
</g>
<!-- Node137 -->
<g id="node4" class="node"><title>Node137</title>
<g id="a_node4"><a xlink:href="main_8F90.html#a8ec2266d83cd6c0b762cbcbc92c0af3d" target="_top" xlink:title="Main program which references all other modules; execution begins here. ">
<polygon fill="white" stroke="black" points="571.175,-6 571.175,-25 611.017,-25 611.017,-6 571.175,-6"/>
<text text-anchor="middle" x="591.096" y="-12.2" font-family="Helvetica,sans-Serif" font-size="11.00">main</text>
</a>
</g>
</g>
<!-- Node136&#45;&gt;Node137 -->
<g id="edge3" class="edge"><title>Node136&#45;&gt;Node137</title>
<path fill="none" stroke="midnightblue" d="M545.514,-15.5C555.009,-15.5 563.851,-15.5 571.116,-15.5"/>
<polygon fill="midnightblue" stroke="midnightblue" points="545.422,-12.0001 535.422,-15.5 545.422,-19.0001 545.422,-12.0001"/>
</g>
</g>
</svg>
