<?xml version="1.0" encoding="UTF-8" standalone="no"?>
<!DOCTYPE svg PUBLIC "-//W3C//DTD SVG 1.1//EN"
 "http://www.w3.org/Graphics/SVG/1.1/DTD/svg11.dtd">
<!-- Generated by graphviz version 2.38.0 (20140413.2041)
 -->
<!-- Title: fog__monthly_grid::fog_monthly_grid_initialize Pages: 1 -->
<svg width="529pt" height="39pt"
 viewBox="0.00 0.00 529.13 39.00" xmlns="http://www.w3.org/2000/svg" xmlns:xlink="http://www.w3.org/1999/xlink">
<g id="graph0" class="graph" transform="scale(1 1) rotate(0) translate(4 35)">
<title>fog__monthly_grid::fog_monthly_grid_initialize</title>
<polygon fill="white" stroke="none" points="-4,4 -4,-35 525.129,-35 525.129,4 -4,4"/>
<!-- Node23 -->
<g id="node1" class="node"><title>Node23</title>
<polygon fill="#bfbfbf" stroke="black" points="0,-0.5 0,-30.5 145.631,-30.5 145.631,-0.5 0,-0.5"/>
<text text-anchor="start" x="8" y="-17.7" font-family="Helvetica,sans-Serif" font-size="11.00">fog__monthly_grid::</text>
<text text-anchor="middle" x="72.8157" y="-6.7" font-family="Helvetica,sans-Serif" font-size="11.00">fog_monthly_grid_initialize</text>
</g>
<!-- Node24 -->
<g id="node2" class="node"><title>Node24</title>
<g id="a_node2"><a xlink:href="namespacemodel__domain.html#ad24a97a20a893d728e39930306e8b1d4" target="_top" xlink:title="model_domain::model\l_initialize_fog_monthly_grid">
<polygon fill="white" stroke="black" points="181.631,-0.5 181.631,-30.5 333.38,-30.5 333.38,-0.5 181.631,-0.5"/>
<text text-anchor="start" x="189.631" y="-17.7" font-family="Helvetica,sans-Serif" font-size="11.00">model_domain::model</text>
<text text-anchor="middle" x="257.506" y="-6.7" font-family="Helvetica,sans-Serif" font-size="11.00">_initialize_fog_monthly_grid</text>
</a>
</g>
</g>
<!-- Node23&#45;&gt;Node24 -->
<g id="edge1" class="edge"><title>Node23&#45;&gt;Node24</title>
<path fill="none" stroke="midnightblue" d="M155.787,-15.5C164.391,-15.5 173.107,-15.5 181.625,-15.5"/>
<polygon fill="midnightblue" stroke="midnightblue" points="155.757,-12.0001 145.757,-15.5 155.757,-19.0001 155.757,-12.0001"/>
</g>
<!-- Node25 -->
<g id="node3" class="node"><title>Node25</title>
<g id="a_node3"><a xlink:href="namespacemodel__domain.html#aac78dbf26ba37cf86ebed4edd7acf89b" target="_top" xlink:title="model_domain::set_method\l_pointers_sub">
<polygon fill="white" stroke="black" points="369.38,-0.5 369.38,-30.5 521.129,-30.5 521.129,-0.5 369.38,-0.5"/>
<text text-anchor="start" x="377.38" y="-17.7" font-family="Helvetica,sans-Serif" font-size="11.00">model_domain::set_method</text>
<text text-anchor="middle" x="445.255" y="-6.7" font-family="Helvetica,sans-Serif" font-size="11.00">_pointers_sub</text>
</a>
</g>
</g>
<!-- Node24&#45;&gt;Node25 -->
<g id="edge2" class="edge"><title>Node24&#45;&gt;Node25</title>
<path fill="none" stroke="midnightblue" d="M343.538,-15.5C352.121,-15.5 360.794,-15.5 369.261,-15.5"/>
<polygon fill="midnightblue" stroke="midnightblue" points="343.522,-12.0001 333.522,-15.5 343.522,-19.0001 343.522,-12.0001"/>
</g>
</g>
</svg>
