<?xml version="1.0" encoding="UTF-8" standalone="no"?>
<!DOCTYPE svg PUBLIC "-//W3C//DTD SVG 1.1//EN"
 "http://www.w3.org/Graphics/SVG/1.1/DTD/svg11.dtd">
<!-- Generated by graphviz version 2.38.0 (20140413.2041)
 -->
<!-- Title: model_domain::model_initialize_available_water_content_gridded Pages: 1 -->
<svg width="330pt" height="50pt"
 viewBox="0.00 0.00 329.78 50.00" xmlns="http://www.w3.org/2000/svg" xmlns:xlink="http://www.w3.org/1999/xlink">
<g id="graph0" class="graph" transform="scale(1 1) rotate(0) translate(4 46)">
<title>model_domain::model_initialize_available_water_content_gridded</title>
<polygon fill="white" stroke="none" points="-4,4 -4,-46 325.779,-46 325.779,4 -4,4"/>
<!-- Node347 -->
<g id="node1" class="node"><title>Node347</title>
<polygon fill="#bfbfbf" stroke="black" points="0,-0.5 0,-41.5 134.03,-41.5 134.03,-0.5 0,-0.5"/>
<text text-anchor="start" x="8" y="-28.7" font-family="Helvetica,sans-Serif" font-size="11.00">model_domain::model</text>
<text text-anchor="start" x="8" y="-17.7" font-family="Helvetica,sans-Serif" font-size="11.00">_initialize_available</text>
<text text-anchor="middle" x="67.0149" y="-6.7" font-family="Helvetica,sans-Serif" font-size="11.00">_water_content_gridded</text>
</g>
<!-- Node348 -->
<g id="node2" class="node"><title>Node348</title>
<g id="a_node2"><a xlink:href="namespacemodel__domain.html#aac78dbf26ba37cf86ebed4edd7acf89b" target="_top" xlink:title="model_domain::set_method\l_pointers_sub">
<polygon fill="white" stroke="black" points="170.03,-6 170.03,-36 321.779,-36 321.779,-6 170.03,-6"/>
<text text-anchor="start" x="178.03" y="-23.2" font-family="Helvetica,sans-Serif" font-size="11.00">model_domain::set_method</text>
<text text-anchor="middle" x="245.904" y="-12.2" font-family="Helvetica,sans-Serif" font-size="11.00">_pointers_sub</text>
</a>
</g>
</g>
<!-- Node347&#45;&gt;Node348 -->
<g id="edge1" class="edge"><title>Node347&#45;&gt;Node348</title>
<path fill="none" stroke="midnightblue" d="M144.378,-21C152.855,-21 161.484,-21 169.944,-21"/>
<polygon fill="midnightblue" stroke="midnightblue" points="144.134,-17.5001 134.134,-21 144.133,-24.5001 144.134,-17.5001"/>
</g>
</g>
</svg>
