<?xml version="1.0" encoding="UTF-8" standalone="no"?>
<!DOCTYPE svg PUBLIC "-//W3C//DTD SVG 1.1//EN"
 "http://www.w3.org/Graphics/SVG/1.1/DTD/svg11.dtd">
<!-- Generated by graphviz version 2.38.0 (20140413.2041)
 -->
<!-- Title: grid::grid_gridtopoint_int Pages: 1 -->
<svg width="503pt" height="161pt"
 viewBox="0.00 0.00 503.42 161.00" xmlns="http://www.w3.org/2000/svg" xmlns:xlink="http://www.w3.org/1999/xlink">
<g id="graph0" class="graph" transform="scale(1 1) rotate(0) translate(4 157)">
<title>grid::grid_gridtopoint_int</title>
<polygon fill="white" stroke="none" points="-4,4 -4,-157 499.423,-157 499.423,4 -4,4"/>
<!-- Node210 -->
<g id="node1" class="node"><title>Node210</title>
<polygon fill="#bfbfbf" stroke="black" points="0,-76.5 0,-95.5 134.019,-95.5 134.019,-76.5 0,-76.5"/>
<text text-anchor="middle" x="67.0095" y="-82.7" font-family="Helvetica,sans-Serif" font-size="11.00">grid::grid_gridtopoint_int</text>
</g>
<!-- Node211 -->
<g id="node2" class="node"><title>Node211</title>
<g id="a_node2"><a xlink:href="namespaceexceptions.html#a22a1bf2808fdc249e6b378ee3f221156" target="_top" xlink:title="exceptions::die">
<polygon fill="white" stroke="black" points="201.196,-133.5 201.196,-152.5 290.575,-152.5 290.575,-133.5 201.196,-133.5"/>
<text text-anchor="middle" x="245.885" y="-139.7" font-family="Helvetica,sans-Serif" font-size="11.00">exceptions::die</text>
</a>
</g>
</g>
<!-- Node210&#45;&gt;Node211 -->
<g id="edge1" class="edge"><title>Node210&#45;&gt;Node211</title>
<path fill="none" stroke="midnightblue" d="M91.6668,-95.6426C112.182,-103.804 142.778,-115.497 170.019,-124 177.754,-126.415 186.009,-128.748 194.108,-130.904"/>
<polygon fill="midnightblue" stroke="midnightblue" points="193.304,-134.311 203.863,-133.439 195.065,-127.536 193.304,-134.311"/>
</g>
<!-- Node212 -->
<g id="node3" class="node"><title>Node212</title>
<g id="a_node3"><a xlink:href="namespacegrid.html#a54795390c62b55fd83c35818f8cd4ce3" target="_top" xlink:title="grid::grid_getgridcolrownum">
<polygon fill="white" stroke="black" points="170.019,-95.5 170.019,-114.5 321.752,-114.5 321.752,-95.5 170.019,-95.5"/>
<text text-anchor="middle" x="245.885" y="-101.7" font-family="Helvetica,sans-Serif" font-size="11.00">grid::grid_getgridcolrownum</text>
</a>
</g>
</g>
<!-- Node210&#45;&gt;Node212 -->
<g id="edge2" class="edge"><title>Node210&#45;&gt;Node212</title>
<path fill="none" stroke="midnightblue" d="M134.123,-93.1019C142.516,-94.0034 151.195,-94.9358 159.832,-95.8635"/>
<polygon fill="midnightblue" stroke="midnightblue" points="159.614,-99.3602 169.931,-96.9484 160.362,-92.4002 159.614,-99.3602"/>
</g>
<!-- Node215 -->
<g id="node6" class="node"><title>Node215</title>
<g id="a_node6"><a xlink:href="namespacegrid.html#aad55d9adaeb57f8da93ceee8597869f9" target="_top" xlink:title="grid::grid_majorityfilter_int">
<polygon fill="white" stroke="black" points="174.917,-57.5 174.917,-76.5 316.854,-76.5 316.854,-57.5 174.917,-57.5"/>
<text text-anchor="middle" x="245.885" y="-63.7" font-family="Helvetica,sans-Serif" font-size="11.00">grid::grid_majorityfilter_int</text>
</a>
</g>
</g>
<!-- Node210&#45;&gt;Node215 -->
<g id="edge5" class="edge"><title>Node210&#45;&gt;Node215</title>
<path fill="none" stroke="midnightblue" d="M134.123,-78.8981C144.058,-77.8309 154.395,-76.7205 164.587,-75.6257"/>
<polygon fill="midnightblue" stroke="midnightblue" points="165.141,-79.0864 174.71,-74.5382 164.393,-72.1264 165.141,-79.0864"/>
</g>
<!-- Node216 -->
<g id="node7" class="node"><title>Node216</title>
<g id="a_node7"><a xlink:href="namespacegrid.html#ace8ea960868faf40cf79d5303f881ed8" target="_top" xlink:title="grid::grid_populatexy">
<polygon fill="white" stroke="black" points="186.825,-19.5 186.825,-38.5 304.946,-38.5 304.946,-19.5 186.825,-19.5"/>
<text text-anchor="middle" x="245.885" y="-25.7" font-family="Helvetica,sans-Serif" font-size="11.00">grid::grid_populatexy</text>
</a>
</g>
</g>
<!-- Node210&#45;&gt;Node216 -->
<g id="edge6" class="edge"><title>Node210&#45;&gt;Node216</title>
<path fill="none" stroke="midnightblue" d="M91.6668,-76.3574C112.182,-68.1961 142.778,-56.5032 170.019,-48 177.754,-45.5854 186.009,-43.2521 194.108,-41.0962"/>
<polygon fill="midnightblue" stroke="midnightblue" points="195.065,-44.4638 203.863,-38.5609 193.304,-37.6889 195.065,-44.4638"/>
</g>
<!-- Node213 -->
<g id="node4" class="node"><title>Node213</title>
<g id="a_node4"><a xlink:href="namespacegrid.html#a6b5506d49fb44b008286c59a82e98c1e" target="_top" xlink:title="grid::grid_getgridcolnum">
<polygon fill="white" stroke="black" points="359.583,-123.5 359.583,-142.5 493.592,-142.5 493.592,-123.5 359.583,-123.5"/>
<text text-anchor="middle" x="426.588" y="-129.7" font-family="Helvetica,sans-Serif" font-size="11.00">grid::grid_getgridcolnum</text>
</a>
</g>
</g>
<!-- Node212&#45;&gt;Node213 -->
<g id="edge3" class="edge"><title>Node212&#45;&gt;Node213</title>
<path fill="none" stroke="midnightblue" d="M307.885,-114.558C322.98,-116.923 339.28,-119.477 354.799,-121.908"/>
<polygon fill="midnightblue" stroke="midnightblue" points="354.442,-125.395 364.863,-123.485 355.526,-118.48 354.442,-125.395"/>
</g>
<!-- Node214 -->
<g id="node5" class="node"><title>Node214</title>
<g id="a_node5"><a xlink:href="namespacegrid.html#a9aa473ecf87cf6e11795f2b6e78c920e" target="_top" xlink:title="grid::grid_getgridrownum">
<polygon fill="white" stroke="black" points="357.752,-85.5 357.752,-104.5 495.423,-104.5 495.423,-85.5 357.752,-85.5"/>
<text text-anchor="middle" x="426.588" y="-91.7" font-family="Helvetica,sans-Serif" font-size="11.00">grid::grid_getgridrownum</text>
</a>
</g>
</g>
<!-- Node212&#45;&gt;Node214 -->
<g id="edge4" class="edge"><title>Node212&#45;&gt;Node214</title>
<path fill="none" stroke="midnightblue" d="M321.895,-100.803C330.315,-100.331 338.91,-99.8504 347.369,-99.377"/>
<polygon fill="midnightblue" stroke="midnightblue" points="347.811,-102.858 357.6,-98.8045 347.42,-95.8688 347.811,-102.858"/>
</g>
<!-- Node217 -->
<g id="node8" class="node"><title>Node217</title>
<g id="a_node8"><a xlink:href="namespacegrid.html#ad3fbf6446fa8a58df8888c05b7165324" target="_top" xlink:title="grid::grid_getgridx">
<polygon fill="white" stroke="black" points="374.563,-38.5 374.563,-57.5 478.612,-57.5 478.612,-38.5 374.563,-38.5"/>
<text text-anchor="middle" x="426.588" y="-44.7" font-family="Helvetica,sans-Serif" font-size="11.00">grid::grid_getgridx</text>
</a>
</g>
</g>
<!-- Node216&#45;&gt;Node217 -->
<g id="edge7" class="edge"><title>Node216&#45;&gt;Node217</title>
<path fill="none" stroke="midnightblue" d="M305.399,-35.2213C324.295,-37.2304 345.289,-39.4625 364.375,-41.4917"/>
<polygon fill="midnightblue" stroke="midnightblue" points="364.143,-44.9867 374.457,-42.5637 364.883,-38.026 364.143,-44.9867"/>
</g>
<!-- Node218 -->
<g id="node9" class="node"><title>Node218</title>
<g id="a_node9"><a xlink:href="namespacegrid.html#a93d74de05bc5c8aee4cb556f461be266" target="_top" xlink:title="grid::grid_getgridy">
<polygon fill="white" stroke="black" points="374.563,-0.5 374.563,-19.5 478.612,-19.5 478.612,-0.5 374.563,-0.5"/>
<text text-anchor="middle" x="426.588" y="-6.7" font-family="Helvetica,sans-Serif" font-size="11.00">grid::grid_getgridy</text>
</a>
</g>
</g>
<!-- Node216&#45;&gt;Node218 -->
<g id="edge8" class="edge"><title>Node216&#45;&gt;Node218</title>
<path fill="none" stroke="midnightblue" d="M305.399,-22.7787C324.295,-20.7696 345.289,-18.5375 364.375,-16.5083"/>
<polygon fill="midnightblue" stroke="midnightblue" points="364.883,-19.974 374.457,-15.4363 364.143,-13.0133 364.883,-19.974"/>
</g>
</g>
</svg>
