<?xml version="1.0" encoding="UTF-8" standalone="no"?>
<!DOCTYPE svg PUBLIC "-//W3C//DTD SVG 1.1//EN"
 "http://www.w3.org/Graphics/SVG/1.1/DTD/svg11.dtd">
<!-- Generated by graphviz version 2.38.0 (20140413.2041)
 -->
<!-- Title: routing__d8::routing_d8_initialize Pages: 1 -->
<svg width="481pt" height="192pt"
 viewBox="0.00 0.00 480.83 192.00" xmlns="http://www.w3.org/2000/svg" xmlns:xlink="http://www.w3.org/1999/xlink">
<g id="graph0" class="graph" transform="scale(1 1) rotate(0) translate(4 188)">
<title>routing__d8::routing_d8_initialize</title>
<polygon fill="white" stroke="none" points="-4,4 -4,-188 476.827,-188 476.827,4 -4,4"/>
<!-- Node1 -->
<g id="node1" class="node"><title>Node1</title>
<polygon fill="#bfbfbf" stroke="black" points="0,-96 0,-126 113.851,-126 113.851,-96 0,-96"/>
<text text-anchor="start" x="8" y="-113.2" font-family="Helvetica,sans-Serif" font-size="11.00">routing__d8::routing</text>
<text text-anchor="middle" x="56.9253" y="-102.2" font-family="Helvetica,sans-Serif" font-size="11.00">_d8_initialize</text>
</g>
<!-- Node2 -->
<g id="node2" class="node"><title>Node2</title>
<g id="a_node2"><a xlink:href="namespaceexceptions.html#a22a1bf2808fdc249e6b378ee3f221156" target="_top" xlink:title="exceptions::die">
<polygon fill="white" stroke="black" points="187.768,-164.5 187.768,-183.5 277.148,-183.5 277.148,-164.5 187.768,-164.5"/>
<text text-anchor="middle" x="232.458" y="-170.7" font-family="Helvetica,sans-Serif" font-size="11.00">exceptions::die</text>
</a>
</g>
</g>
<!-- Node1&#45;&gt;Node2 -->
<g id="edge1" class="edge"><title>Node1&#45;&gt;Node2</title>
<path fill="none" stroke="midnightblue" d="M90.7491,-126.013C108.126,-133.683 129.937,-142.874 149.851,-150 161.474,-154.159 174.208,-158.161 186.088,-161.665"/>
<polygon fill="midnightblue" stroke="midnightblue" points="185.244,-165.064 195.823,-164.484 187.191,-158.341 185.244,-165.064"/>
</g>
<!-- Node3 -->
<g id="node3" class="node"><title>Node3</title>
<g id="a_node3"><a xlink:href="namespacegrid.html#a02803f7fe27d0354d3d16a15bd1338da" target="_top" xlink:title="grid::grid_writearcgrid">
<polygon fill="white" stroke="black" points="351.065,-107.5 351.065,-126.5 472.827,-126.5 472.827,-107.5 351.065,-107.5"/>
<text text-anchor="middle" x="411.946" y="-113.7" font-family="Helvetica,sans-Serif" font-size="11.00">grid::grid_writearcgrid</text>
</a>
</g>
</g>
<!-- Node1&#45;&gt;Node3 -->
<g id="edge2" class="edge"><title>Node1&#45;&gt;Node3</title>
<path fill="none" stroke="midnightblue" d="M114.29,-115.262C126.035,-115.986 138.342,-116.625 149.851,-117 214.516,-119.108 288.239,-118.865 340.816,-118.238"/>
<polygon fill="midnightblue" stroke="midnightblue" points="341.086,-121.735 351.041,-118.108 340.997,-114.736 341.086,-121.735"/>
</g>
<!-- Node4 -->
<g id="node4" class="node"><title>Node4</title>
<g id="a_node4"><a xlink:href="namespacerouting____d8.html#a4ffeb4be9d01e7cae56e0886d9161b18" target="_top" xlink:title="routing__d8::routing\l_d8_assign_downstream\l_row_col">
<polygon fill="white" stroke="black" points="163.308,-66.5 163.308,-107.5 301.608,-107.5 301.608,-66.5 163.308,-66.5"/>
<text text-anchor="start" x="171.308" y="-94.7" font-family="Helvetica,sans-Serif" font-size="11.00">routing__d8::routing</text>
<text text-anchor="start" x="171.308" y="-83.7" font-family="Helvetica,sans-Serif" font-size="11.00">_d8_assign_downstream</text>
<text text-anchor="middle" x="232.458" y="-72.7" font-family="Helvetica,sans-Serif" font-size="11.00">_row_col</text>
</a>
</g>
</g>
<!-- Node1&#45;&gt;Node4 -->
<g id="edge3" class="edge"><title>Node1&#45;&gt;Node4</title>
<path fill="none" stroke="midnightblue" d="M114.266,-103.208C126.727,-101.485 140.146,-99.6287 153.298,-97.8097"/>
<polygon fill="midnightblue" stroke="midnightblue" points="153.857,-101.266 163.284,-96.4287 152.898,-94.3317 153.857,-101.266"/>
</g>
<!-- Node5 -->
<g id="node5" class="node"><title>Node5</title>
<g id="a_node5"><a xlink:href="namespacerouting____d8.html#ae2756c01d52d156a1b6c7ce48ca1e941" target="_top" xlink:title="routing__d8::routing\l_d8_determine_solution_order">
<polygon fill="white" stroke="black" points="149.851,-17 149.851,-47 315.065,-47 315.065,-17 149.851,-17"/>
<text text-anchor="start" x="157.851" y="-34.2" font-family="Helvetica,sans-Serif" font-size="11.00">routing__d8::routing</text>
<text text-anchor="middle" x="232.458" y="-23.2" font-family="Helvetica,sans-Serif" font-size="11.00">_d8_determine_solution_order</text>
</a>
</g>
</g>
<!-- Node1&#45;&gt;Node5 -->
<g id="edge4" class="edge"><title>Node1&#45;&gt;Node5</title>
<path fill="none" stroke="midnightblue" d="M80.1827,-95.923C98.3299,-84.13 124.943,-67.9502 149.851,-57 155.151,-54.6696 160.736,-52.4681 166.393,-50.4104"/>
<polygon fill="midnightblue" stroke="midnightblue" points="167.652,-53.6783 175.946,-47.0861 165.351,-47.0672 167.652,-53.6783"/>
</g>
<!-- Node5&#45;&gt;Node3 -->
<g id="edge6" class="edge"><title>Node5&#45;&gt;Node3</title>
<path fill="none" stroke="midnightblue" d="M289.495,-47.0316C298.197,-49.9736 306.977,-53.3082 315.065,-57 322.575,-60.4282 361.595,-85.245 387.485,-101.87"/>
<polygon fill="midnightblue" stroke="midnightblue" points="385.718,-104.895 396.022,-107.36 389.504,-99.007 385.718,-104.895"/>
</g>
<!-- Node6 -->
<g id="node6" class="node"><title>Node6</title>
<g id="a_node6"><a xlink:href="namespacerouting____d8.html#a8ff5176982b0ac8b08696510dad5b894" target="_top" xlink:title="routing__d8::routing\l_d8_get_index">
<polygon fill="white" stroke="black" points="355.021,-39 355.021,-69 468.871,-69 468.871,-39 355.021,-39"/>
<text text-anchor="start" x="363.021" y="-56.2" font-family="Helvetica,sans-Serif" font-size="11.00">routing__d8::routing</text>
<text text-anchor="middle" x="411.946" y="-45.2" font-family="Helvetica,sans-Serif" font-size="11.00">_d8_get_index</text>
</a>
</g>
</g>
<!-- Node5&#45;&gt;Node6 -->
<g id="edge5" class="edge"><title>Node5&#45;&gt;Node6</title>
<path fill="none" stroke="midnightblue" d="M315.189,-42.1307C325.182,-43.3694 335.295,-44.6229 345.016,-45.8279"/>
<polygon fill="midnightblue" stroke="midnightblue" points="344.629,-49.3066 354.984,-47.0634 345.49,-42.3598 344.629,-49.3066"/>
</g>
<!-- Node7 -->
<g id="node7" class="node"><title>Node7</title>
<g id="a_node7"><a xlink:href="namespacegrid.html#adfcb9064d9b58a49eb61093cd4809a43" target="_top" xlink:title="grid::grid_destroy">
<polygon fill="white" stroke="black" points="361.453,-0.5 361.453,-19.5 462.439,-19.5 462.439,-0.5 361.453,-0.5"/>
<text text-anchor="middle" x="411.946" y="-6.7" font-family="Helvetica,sans-Serif" font-size="11.00">grid::grid_destroy</text>
</a>
</g>
</g>
<!-- Node5&#45;&gt;Node7 -->
<g id="edge7" class="edge"><title>Node5&#45;&gt;Node7</title>
<path fill="none" stroke="midnightblue" d="M315.189,-21.8693C327.292,-20.3691 339.57,-18.8472 351.116,-17.4161"/>
<polygon fill="midnightblue" stroke="midnightblue" points="351.556,-20.8883 361.05,-16.1847 350.695,-13.9415 351.556,-20.8883"/>
</g>
</g>
</svg>
