<?xml version="1.0" encoding="UTF-8" standalone="no"?>
<!DOCTYPE svg PUBLIC "-//W3C//DTD SVG 1.1//EN"
 "http://www.w3.org/Graphics/SVG/1.1/DTD/svg11.dtd">
<!-- Generated by graphviz version 2.38.0 (20140413.2041)
 -->
<!-- Title: runoff__curve_number::update_curve_number_fn Pages: 1 -->
<svg width="342pt" height="39pt"
 viewBox="0.00 0.00 342.44 39.00" xmlns="http://www.w3.org/2000/svg" xmlns:xlink="http://www.w3.org/1999/xlink">
<g id="graph0" class="graph" transform="scale(1 1) rotate(0) translate(4 35)">
<title>runoff__curve_number::update_curve_number_fn</title>
<polygon fill="white" stroke="none" points="-4,4 -4,-35 338.438,-35 338.438,4 -4,4"/>
<!-- Node1 -->
<g id="node1" class="node"><title>Node1</title>
<polygon fill="#bfbfbf" stroke="black" points="0,-0.5 0,-30.5 147.479,-30.5 147.479,-0.5 0,-0.5"/>
<text text-anchor="start" x="8" y="-17.7" font-family="Helvetica,sans-Serif" font-size="11.00">runoff__curve_number</text>
<text text-anchor="middle" x="73.7395" y="-6.7" font-family="Helvetica,sans-Serif" font-size="11.00">::update_curve_number_fn</text>
</g>
<!-- Node2 -->
<g id="node2" class="node"><title>Node2</title>
<g id="a_node2"><a xlink:href="namespacerunoff____curve__number.html#acc6ef2f95ff3082c5a264f71094740de" target="_top" xlink:title="runoff__curve_number\l::prob_runoff_enhancement">
<polygon fill="white" stroke="black" points="183.479,-0.5 183.479,-30.5 334.438,-30.5 334.438,-0.5 183.479,-0.5"/>
<text text-anchor="start" x="191.479" y="-17.7" font-family="Helvetica,sans-Serif" font-size="11.00">runoff__curve_number</text>
<text text-anchor="middle" x="258.959" y="-6.7" font-family="Helvetica,sans-Serif" font-size="11.00">::prob_runoff_enhancement</text>
</a>
</g>
</g>
<!-- Node1&#45;&gt;Node2 -->
<g id="edge1" class="edge"><title>Node1&#45;&gt;Node2</title>
<path fill="none" stroke="midnightblue" d="M147.679,-15.5C156.143,-15.5 164.828,-15.5 173.43,-15.5"/>
<polygon fill="midnightblue" stroke="midnightblue" points="173.472,-19.0001 183.472,-15.5 173.472,-12.0001 173.472,-19.0001"/>
</g>
</g>
</svg>
