<?xml version="1.0" encoding="UTF-8" standalone="no"?>
<!DOCTYPE svg PUBLIC "-//W3C//DTD SVG 1.1//EN"
 "http://www.w3.org/Graphics/SVG/1.1/DTD/svg11.dtd">
<!-- Generated by graphviz version 2.38.0 (20140413.2041)
 -->
<!-- Title: model_domain::model_initialize_irrigation Pages: 1 -->
<svg width="275pt" height="39pt"
 viewBox="0.00 0.00 274.71 39.00" xmlns="http://www.w3.org/2000/svg" xmlns:xlink="http://www.w3.org/1999/xlink">
<g id="graph0" class="graph" transform="scale(1 1) rotate(0) translate(4 35)">
<title>model_domain::model_initialize_irrigation</title>
<polygon fill="white" stroke="none" points="-4,4 -4,-35 270.709,-35 270.709,4 -4,4"/>
<!-- Node1 -->
<g id="node1" class="node"><title>Node1</title>
<polygon fill="#bfbfbf" stroke="black" points="0,-0.5 0,-30.5 124.228,-30.5 124.228,-0.5 0,-0.5"/>
<text text-anchor="start" x="8" y="-17.7" font-family="Helvetica,sans-Serif" font-size="11.00">model_domain::model</text>
<text text-anchor="middle" x="62.1138" y="-6.7" font-family="Helvetica,sans-Serif" font-size="11.00">_initialize_irrigation</text>
</g>
<!-- Node2 -->
<g id="node2" class="node"><title>Node2</title>
<g id="a_node2"><a xlink:href="namespaceirrigation.html#a4967e74e2a8b2077014603a91e590ff3" target="_top" xlink:title="Estimate the irrigation water required to sustain plant growth. ">
<polygon fill="white" stroke="black" points="160.228,-0.5 160.228,-30.5 266.709,-30.5 266.709,-0.5 160.228,-0.5"/>
<text text-anchor="start" x="168.228" y="-17.7" font-family="Helvetica,sans-Serif" font-size="11.00">irrigation::irrigation</text>
<text text-anchor="middle" x="213.468" y="-6.7" font-family="Helvetica,sans-Serif" font-size="11.00">__initialize</text>
</a>
</g>
</g>
<!-- Node1&#45;&gt;Node2 -->
<g id="edge1" class="edge"><title>Node1&#45;&gt;Node2</title>
<path fill="none" stroke="midnightblue" d="M124.293,-15.5C132.769,-15.5 141.486,-15.5 149.985,-15.5"/>
<polygon fill="midnightblue" stroke="midnightblue" points="150.215,-19.0001 160.215,-15.5 150.215,-12.0001 150.215,-19.0001"/>
</g>
</g>
</svg>
