<?xml version="1.0" encoding="UTF-8" standalone="no"?>
<!DOCTYPE svg PUBLIC "-//W3C//DTD SVG 1.1//EN"
 "http://www.w3.org/Graphics/SVG/1.1/DTD/svg11.dtd">
<!-- Generated by graphviz version 2.38.0 (20140413.2041)
 -->
<!-- Title: model_domain::model_calculate_et_monthly_grid Pages: 1 -->
<svg width="306pt" height="50pt"
 viewBox="0.00 0.00 305.94 50.00" xmlns="http://www.w3.org/2000/svg" xmlns:xlink="http://www.w3.org/1999/xlink">
<g id="graph0" class="graph" transform="scale(1 1) rotate(0) translate(4 46)">
<title>model_domain::model_calculate_et_monthly_grid</title>
<polygon fill="white" stroke="none" points="-4,4 -4,-46 301.937,-46 301.937,4 -4,4"/>
<!-- Node268 -->
<g id="node1" class="node"><title>Node268</title>
<polygon fill="#bfbfbf" stroke="black" points="0,-6 0,-36 149.917,-36 149.917,-6 0,-6"/>
<text text-anchor="start" x="8" y="-23.2" font-family="Helvetica,sans-Serif" font-size="11.00">model_domain::model</text>
<text text-anchor="middle" x="74.9587" y="-12.2" font-family="Helvetica,sans-Serif" font-size="11.00">_calculate_et_monthly_grid</text>
</g>
<!-- Node269 -->
<g id="node2" class="node"><title>Node269</title>
<g id="a_node2"><a xlink:href="namespaceet____gridded__values.html#a47620ef47e89b4af2dadbae1b0b7b70b" target="_top" xlink:title="et__gridded_values\l::et_gridded_values\l_calculate">
<polygon fill="white" stroke="black" points="185.917,-0.5 185.917,-41.5 297.937,-41.5 297.937,-0.5 185.917,-0.5"/>
<text text-anchor="start" x="193.917" y="-28.7" font-family="Helvetica,sans-Serif" font-size="11.00">et__gridded_values</text>
<text text-anchor="start" x="193.917" y="-17.7" font-family="Helvetica,sans-Serif" font-size="11.00">::et_gridded_values</text>
<text text-anchor="middle" x="241.927" y="-6.7" font-family="Helvetica,sans-Serif" font-size="11.00">_calculate</text>
</a>
</g>
</g>
<!-- Node268&#45;&gt;Node269 -->
<g id="edge1" class="edge"><title>Node268&#45;&gt;Node269</title>
<path fill="none" stroke="midnightblue" d="M150.239,-21C158.751,-21 167.381,-21 175.761,-21"/>
<polygon fill="midnightblue" stroke="midnightblue" points="175.834,-24.5001 185.834,-21 175.834,-17.5001 175.834,-24.5001"/>
</g>
</g>
</svg>
