<?xml version="1.0" encoding="UTF-8" standalone="no"?>
<!DOCTYPE svg PUBLIC "-//W3C//DTD SVG 1.1//EN"
 "http://www.w3.org/Graphics/SVG/1.1/DTD/svg11.dtd">
<!-- Generated by graphviz version 2.38.0 (20140413.2041)
 -->
<!-- Title: model_domain::model_calculate_fog_monthly_grid Pages: 1 -->
<svg width="900pt" height="127pt"
 viewBox="0.00 0.00 900.38 126.50" xmlns="http://www.w3.org/2000/svg" xmlns:xlink="http://www.w3.org/1999/xlink">
<g id="graph0" class="graph" transform="scale(1 1) rotate(0) translate(4 122.5)">
<title>model_domain::model_calculate_fog_monthly_grid</title>
<polygon fill="white" stroke="none" points="-4,4 -4,-122.5 896.384,-122.5 896.384,4 -4,4"/>
<!-- Node1 -->
<g id="node1" class="node"><title>Node1</title>
<polygon fill="#bfbfbf" stroke="black" points="0,-49.5 0,-79.5 156.035,-79.5 156.035,-49.5 0,-49.5"/>
<text text-anchor="start" x="8" y="-66.7" font-family="Helvetica,sans-Serif" font-size="11.00">model_domain::model</text>
<text text-anchor="middle" x="78.0176" y="-55.7" font-family="Helvetica,sans-Serif" font-size="11.00">_calculate_fog_monthly_grid</text>
</g>
<!-- Node2 -->
<g id="node2" class="node"><title>Node2</title>
<g id="a_node2"><a xlink:href="namespacefog____monthly__grid.html#acef2be3cd8295a3fb9bbeae7706207f7" target="_top" xlink:title="fog__monthly_grid::\lfog_monthly_grid_calculate">
<polygon fill="white" stroke="black" points="192.035,-49.5 192.035,-79.5 341.953,-79.5 341.953,-49.5 192.035,-49.5"/>
<text text-anchor="start" x="200.035" y="-66.7" font-family="Helvetica,sans-Serif" font-size="11.00">fog__monthly_grid::</text>
<text text-anchor="middle" x="266.994" y="-55.7" font-family="Helvetica,sans-Serif" font-size="11.00">fog_monthly_grid_calculate</text>
</a>
</g>
</g>
<!-- Node1&#45;&gt;Node2 -->
<g id="edge1" class="edge"><title>Node1&#45;&gt;Node2</title>
<path fill="none" stroke="midnightblue" d="M156.147,-64.5C164.515,-64.5 173.063,-64.5 181.512,-64.5"/>
<polygon fill="midnightblue" stroke="midnightblue" points="181.75,-68.0001 191.75,-64.5 181.75,-61.0001 181.75,-68.0001"/>
</g>
<!-- Node3 -->
<g id="node3" class="node"><title>Node3</title>
<g id="a_node3"><a xlink:href="namespaceexceptions.html#a22a1bf2808fdc249e6b378ee3f221156" target="_top" xlink:title="exceptions::die">
<polygon fill="white" stroke="black" points="410.671,-99 410.671,-118 500.051,-118 500.051,-99 410.671,-99"/>
<text text-anchor="middle" x="455.361" y="-105.2" font-family="Helvetica,sans-Serif" font-size="11.00">exceptions::die</text>
</a>
</g>
</g>
<!-- Node2&#45;&gt;Node3 -->
<g id="edge2" class="edge"><title>Node2&#45;&gt;Node3</title>
<path fill="none" stroke="midnightblue" d="M331.609,-79.5192C355.293,-85.1108 381.82,-91.3735 404.137,-96.6426"/>
<polygon fill="midnightblue" stroke="midnightblue" points="403.533,-100.096 414.07,-98.9876 405.142,-93.2834 403.533,-100.096"/>
</g>
<!-- Node4 -->
<g id="node4" class="node"><title>Node4</title>
<g id="a_node4"><a xlink:href="namespacenetcdf4__support.html#a19c28f8a9dc9d4fe18b9a04e65848b82" target="_top" xlink:title="netcdf4_support::netcdf\l_put_packed_variable_array">
<polygon fill="white" stroke="black" points="377.953,-49.5 377.953,-79.5 532.769,-79.5 532.769,-49.5 377.953,-49.5"/>
<text text-anchor="start" x="385.953" y="-66.7" font-family="Helvetica,sans-Serif" font-size="11.00">netcdf4_support::netcdf</text>
<text text-anchor="middle" x="455.361" y="-55.7" font-family="Helvetica,sans-Serif" font-size="11.00">_put_packed_variable_array</text>
</a>
</g>
</g>
<!-- Node2&#45;&gt;Node4 -->
<g id="edge3" class="edge"><title>Node2&#45;&gt;Node4</title>
<path fill="none" stroke="midnightblue" d="M342.186,-64.5C350.485,-64.5 358.994,-64.5 367.434,-64.5"/>
<polygon fill="midnightblue" stroke="midnightblue" points="367.677,-68.0001 377.677,-64.5 367.677,-61.0001 367.677,-68.0001"/>
</g>
<!-- Node7 -->
<g id="node7" class="node"><title>Node7</title>
<g id="a_node7"><a xlink:href="namespacenetcdf4__support.html#ad886108ada01049368a1eaf046a33a32" target="_top" xlink:title="netcdf4_support::netcdf\l_put_variable_vector">
<polygon fill="white" stroke="black" points="389.876,-0.5 389.876,-30.5 520.845,-30.5 520.845,-0.5 389.876,-0.5"/>
<text text-anchor="start" x="397.876" y="-17.7" font-family="Helvetica,sans-Serif" font-size="11.00">netcdf4_support::netcdf</text>
<text text-anchor="middle" x="455.361" y="-6.7" font-family="Helvetica,sans-Serif" font-size="11.00">_put_variable_vector</text>
</a>
</g>
</g>
<!-- Node2&#45;&gt;Node7 -->
<g id="edge6" class="edge"><title>Node2&#45;&gt;Node7</title>
<path fill="none" stroke="midnightblue" d="M325.177,-49.4654C344.854,-44.2917 367.063,-38.4525 387.446,-33.0934"/>
<polygon fill="midnightblue" stroke="midnightblue" points="388.505,-36.434 397.286,-30.5062 386.725,-29.6641 388.505,-36.434"/>
</g>
<!-- Node5 -->
<g id="node5" class="node"><title>Node5</title>
<g id="a_node5"><a xlink:href="namespacenetcdf4__support.html#ac8c7276a5849ae6d17ffef1787e3f234" target="_top" xlink:title="netcdf4_support::nf_trap">
<polygon fill="white" stroke="black" points="568.769,-30 568.769,-49 704.018,-49 704.018,-30 568.769,-30"/>
<text text-anchor="middle" x="636.393" y="-36.2" font-family="Helvetica,sans-Serif" font-size="11.00">netcdf4_support::nf_trap</text>
</a>
</g>
</g>
<!-- Node4&#45;&gt;Node5 -->
<g id="edge4" class="edge"><title>Node4&#45;&gt;Node5</title>
<path fill="none" stroke="midnightblue" d="M532.806,-53.8252C541.345,-52.6329 550.045,-51.4179 558.589,-50.2249"/>
<polygon fill="midnightblue" stroke="midnightblue" points="559.106,-53.6867 568.526,-48.8373 558.138,-46.754 559.106,-53.6867"/>
</g>
<!-- Node6 -->
<g id="node6" class="node"><title>Node6</title>
<g id="a_node6"><a xlink:href="namespaceconstants__and__conversions.html#ac13fba285229deab77131132e6f62caf" target="_top" xlink:title="constants_and_conversions\l::char_ptr_to_fortran_string">
<polygon fill="white" stroke="black" points="740.018,-24.5 740.018,-54.5 892.384,-54.5 892.384,-24.5 740.018,-24.5"/>
<text text-anchor="start" x="748.018" y="-41.7" font-family="Helvetica,sans-Serif" font-size="11.00">constants_and_conversions</text>
<text text-anchor="middle" x="816.201" y="-30.7" font-family="Helvetica,sans-Serif" font-size="11.00">::char_ptr_to_fortran_string</text>
</a>
</g>
</g>
<!-- Node5&#45;&gt;Node6 -->
<g id="edge5" class="edge"><title>Node5&#45;&gt;Node6</title>
<path fill="none" stroke="midnightblue" d="M704.108,-39.5C712.466,-39.5 721.103,-39.5 729.697,-39.5"/>
<polygon fill="midnightblue" stroke="midnightblue" points="729.748,-43.0001 739.748,-39.5 729.748,-36.0001 729.748,-43.0001"/>
</g>
<!-- Node7&#45;&gt;Node5 -->
<g id="edge7" class="edge"><title>Node7&#45;&gt;Node5</title>
<path fill="none" stroke="midnightblue" d="M520.995,-24.1646C533.245,-25.8067 546.171,-27.5394 558.75,-29.2256"/>
<polygon fill="midnightblue" stroke="midnightblue" points="558.367,-32.7056 568.744,-30.5654 559.298,-25.7677 558.367,-32.7056"/>
</g>
</g>
</svg>
