<?xml version="1.0" encoding="UTF-8" standalone="no"?>
<!DOCTYPE svg PUBLIC "-//W3C//DTD SVG 1.1//EN"
 "http://www.w3.org/Graphics/SVG/1.1/DTD/svg11.dtd">
<!-- Generated by graphviz version 2.38.0 (20140413.2041)
 -->
<!-- Title: netcdf4_support::nf_create Pages: 1 -->
<svg width="495pt" height="83pt"
 viewBox="0.00 0.00 494.91 83.00" xmlns="http://www.w3.org/2000/svg" xmlns:xlink="http://www.w3.org/1999/xlink">
<g id="graph0" class="graph" transform="scale(1 1) rotate(0) translate(4 79)">
<title>netcdf4_support::nf_create</title>
<polygon fill="white" stroke="none" points="-4,4 -4,-79 490.91,-79 490.91,4 -4,4"/>
<!-- Node1 -->
<g id="node1" class="node"><title>Node1</title>
<polygon fill="#bfbfbf" stroke="black" points="0,-22.5 0,-52.5 110.177,-52.5 110.177,-22.5 0,-22.5"/>
<text text-anchor="start" x="8" y="-39.7" font-family="Helvetica,sans-Serif" font-size="11.00">netcdf4_support::nf</text>
<text text-anchor="middle" x="55.0884" y="-28.7" font-family="Helvetica,sans-Serif" font-size="11.00">_create</text>
</g>
<!-- Node2 -->
<g id="node2" class="node"><title>Node2</title>
<g id="a_node2"><a xlink:href="namespaceconstants__and__conversions.html#a7685661976b5b344a61522a38564dab2" target="_top" xlink:title="constants_and_conversions\l::fortran_to_c_string">
<polygon fill="white" stroke="black" points="146.177,-44.5 146.177,-74.5 298.543,-74.5 298.543,-44.5 146.177,-44.5"/>
<text text-anchor="start" x="154.177" y="-61.7" font-family="Helvetica,sans-Serif" font-size="11.00">constants_and_conversions</text>
<text text-anchor="middle" x="222.36" y="-50.7" font-family="Helvetica,sans-Serif" font-size="11.00">::fortran_to_c_string</text>
</a>
</g>
</g>
<!-- Node1&#45;&gt;Node2 -->
<g id="edge1" class="edge"><title>Node1&#45;&gt;Node2</title>
<path fill="none" stroke="midnightblue" d="M110.205,-44.7036C118.549,-45.8144 127.336,-46.9841 136.162,-48.159"/>
<polygon fill="midnightblue" stroke="midnightblue" points="135.748,-51.6346 146.122,-49.4848 136.671,-44.6958 135.748,-51.6346"/>
</g>
<!-- Node3 -->
<g id="node3" class="node"><title>Node3</title>
<g id="a_node3"><a xlink:href="namespacenetcdf4__support.html#ac8c7276a5849ae6d17ffef1787e3f234" target="_top" xlink:title="netcdf4_support::nf_trap">
<polygon fill="white" stroke="black" points="154.736,-6 154.736,-25 289.985,-25 289.985,-6 154.736,-6"/>
<text text-anchor="middle" x="222.36" y="-12.2" font-family="Helvetica,sans-Serif" font-size="11.00">netcdf4_support::nf_trap</text>
</a>
</g>
</g>
<!-- Node1&#45;&gt;Node3 -->
<g id="edge2" class="edge"><title>Node1&#45;&gt;Node3</title>
<path fill="none" stroke="midnightblue" d="M110.205,-30.2964C121.199,-28.8328 132.962,-27.2671 144.569,-25.7219"/>
<polygon fill="midnightblue" stroke="midnightblue" points="145.256,-29.1614 154.707,-24.3724 144.333,-22.2226 145.256,-29.1614"/>
</g>
<!-- Node4 -->
<g id="node4" class="node"><title>Node4</title>
<g id="a_node4"><a xlink:href="namespaceconstants__and__conversions.html#ac13fba285229deab77131132e6f62caf" target="_top" xlink:title="constants_and_conversions\l::char_ptr_to_fortran_string">
<polygon fill="white" stroke="black" points="334.543,-0.5 334.543,-30.5 486.91,-30.5 486.91,-0.5 334.543,-0.5"/>
<text text-anchor="start" x="342.543" y="-17.7" font-family="Helvetica,sans-Serif" font-size="11.00">constants_and_conversions</text>
<text text-anchor="middle" x="410.727" y="-6.7" font-family="Helvetica,sans-Serif" font-size="11.00">::char_ptr_to_fortran_string</text>
</a>
</g>
</g>
<!-- Node3&#45;&gt;Node4 -->
<g id="edge3" class="edge"><title>Node3&#45;&gt;Node4</title>
<path fill="none" stroke="midnightblue" d="M290.116,-15.5C301.183,-15.5 312.793,-15.5 324.246,-15.5"/>
<polygon fill="midnightblue" stroke="midnightblue" points="324.253,-19.0001 334.253,-15.5 324.253,-12.0001 324.253,-19.0001"/>
</g>
</g>
</svg>
