<?xml version="1.0" encoding="UTF-8" standalone="no"?>
<!DOCTYPE svg PUBLIC "-//W3C//DTD SVG 1.1//EN"
 "http://www.w3.org/Graphics/SVG/1.1/DTD/svg11.dtd">
<!-- Generated by graphviz version 2.38.0 (20140413.2041)
 -->
<!-- Title: runoff__gridded_values::runoff_gridded_values_update_ratios Pages: 1 -->
<svg width="505pt" height="110pt"
 viewBox="0.00 0.00 504.93 110.00" xmlns="http://www.w3.org/2000/svg" xmlns:xlink="http://www.w3.org/1999/xlink">
<g id="graph0" class="graph" transform="scale(1 1) rotate(0) translate(4 106)">
<title>runoff__gridded_values::runoff_gridded_values_update_ratios</title>
<polygon fill="white" stroke="none" points="-4,4 -4,-106 500.927,-106 500.927,4 -4,4"/>
<!-- Node14 -->
<g id="node1" class="node"><title>Node14</title>
<polygon fill="#bfbfbf" stroke="black" points="0,-30.5 0,-71.5 130.78,-71.5 130.78,-30.5 0,-30.5"/>
<text text-anchor="start" x="8" y="-58.7" font-family="Helvetica,sans-Serif" font-size="11.00">runoff__gridded_values</text>
<text text-anchor="start" x="8" y="-47.7" font-family="Helvetica,sans-Serif" font-size="11.00">::runoff_gridded_values</text>
<text text-anchor="middle" x="65.3901" y="-36.7" font-family="Helvetica,sans-Serif" font-size="11.00">_update_ratios</text>
</g>
<!-- Node15 -->
<g id="node2" class="node"><title>Node15</title>
<g id="a_node2"><a xlink:href="namespacemodel__domain.html#a64aba1b1bb30b69f9c00f7272b2d7b13" target="_top" xlink:title="model_domain::model\l_calculate_runoff_gridded\l_values">
<polygon fill="white" stroke="black" points="166.78,-60.5 166.78,-101.5 309.178,-101.5 309.178,-60.5 166.78,-60.5"/>
<text text-anchor="start" x="174.78" y="-88.7" font-family="Helvetica,sans-Serif" font-size="11.00">model_domain::model</text>
<text text-anchor="start" x="174.78" y="-77.7" font-family="Helvetica,sans-Serif" font-size="11.00">_calculate_runoff_gridded</text>
<text text-anchor="middle" x="237.979" y="-66.7" font-family="Helvetica,sans-Serif" font-size="11.00">_values</text>
</a>
</g>
</g>
<!-- Node14&#45;&gt;Node15 -->
<g id="edge1" class="edge"><title>Node14&#45;&gt;Node15</title>
<path fill="none" stroke="midnightblue" d="M140.865,-64.0972C149.444,-65.606 158.172,-67.1409 166.694,-68.6395"/>
<polygon fill="midnightblue" stroke="midnightblue" points="141.338,-60.6267 130.883,-62.3417 140.125,-67.5209 141.338,-60.6267"/>
</g>
<!-- Node17 -->
<g id="node4" class="node"><title>Node17</title>
<g id="a_node4"><a xlink:href="namespacemodel__domain.html#a88a992fcd1bcf220cdba23ee7f6db209" target="_top" xlink:title="model_domain::model\l_initialize_runoff_gridded\l_values">
<polygon fill="white" stroke="black" points="168.923,-0.5 168.923,-41.5 307.035,-41.5 307.035,-0.5 168.923,-0.5"/>
<text text-anchor="start" x="176.923" y="-28.7" font-family="Helvetica,sans-Serif" font-size="11.00">model_domain::model</text>
<text text-anchor="start" x="176.923" y="-17.7" font-family="Helvetica,sans-Serif" font-size="11.00">_initialize_runoff_gridded</text>
<text text-anchor="middle" x="237.979" y="-6.7" font-family="Helvetica,sans-Serif" font-size="11.00">_values</text>
</a>
</g>
</g>
<!-- Node14&#45;&gt;Node17 -->
<g id="edge3" class="edge"><title>Node14&#45;&gt;Node17</title>
<path fill="none" stroke="midnightblue" d="M140.842,-37.9068C150.103,-36.2782 159.537,-34.6191 168.698,-33.008"/>
<polygon fill="midnightblue" stroke="midnightblue" points="140.125,-34.4791 130.883,-39.6583 141.338,-41.3733 140.125,-34.4791"/>
</g>
<!-- Node16 -->
<g id="node3" class="node"><title>Node16</title>
<g id="a_node3"><a xlink:href="namespacemodel__domain.html#aac78dbf26ba37cf86ebed4edd7acf89b" target="_top" xlink:title="model_domain::set_method\l_pointers_sub">
<polygon fill="white" stroke="black" points="345.178,-36 345.178,-66 496.927,-66 496.927,-36 345.178,-36"/>
<text text-anchor="start" x="353.178" y="-53.2" font-family="Helvetica,sans-Serif" font-size="11.00">model_domain::set_method</text>
<text text-anchor="middle" x="421.053" y="-42.2" font-family="Helvetica,sans-Serif" font-size="11.00">_pointers_sub</text>
</a>
</g>
</g>
<!-- Node15&#45;&gt;Node16 -->
<g id="edge2" class="edge"><title>Node15&#45;&gt;Node16</title>
<path fill="none" stroke="midnightblue" d="M319.239,-67.7027C327.815,-66.2818 336.517,-64.8401 345.03,-63.4297"/>
<polygon fill="midnightblue" stroke="midnightblue" points="318.54,-64.2708 309.246,-69.3583 319.684,-71.1766 318.54,-64.2708"/>
</g>
<!-- Node17&#45;&gt;Node16 -->
<g id="edge4" class="edge"><title>Node17&#45;&gt;Node16</title>
<path fill="none" stroke="midnightblue" d="M317.11,-33.9446C326.344,-35.4744 335.753,-37.0334 344.944,-38.5561"/>
<polygon fill="midnightblue" stroke="midnightblue" points="317.615,-30.4806 307.177,-32.299 316.471,-37.3865 317.615,-30.4806"/>
</g>
</g>
</svg>
