<?xml version="1.0" encoding="UTF-8" standalone="no"?>
<!DOCTYPE svg PUBLIC "-//W3C//DTD SVG 1.1//EN"
 "http://www.w3.org/Graphics/SVG/1.1/DTD/svg11.dtd">
<!-- Generated by graphviz version 2.38.0 (20140413.2041)
 -->
<!-- Title: runoff__curve_number::prob_runoff_enhancement Pages: 1 -->
<svg width="861pt" height="50pt"
 viewBox="0.00 0.00 861.27 50.00" xmlns="http://www.w3.org/2000/svg" xmlns:xlink="http://www.w3.org/1999/xlink">
<g id="graph0" class="graph" transform="scale(1 1) rotate(0) translate(4 46)">
<title>runoff__curve_number::prob_runoff_enhancement</title>
<polygon fill="white" stroke="none" points="-4,4 -4,-46 857.272,-46 857.272,4 -4,4"/>
<!-- Node9 -->
<g id="node1" class="node"><title>Node9</title>
<polygon fill="#bfbfbf" stroke="black" points="0,-6 0,-36 150.959,-36 150.959,-6 0,-6"/>
<text text-anchor="start" x="8" y="-23.2" font-family="Helvetica,sans-Serif" font-size="11.00">runoff__curve_number</text>
<text text-anchor="middle" x="75.4797" y="-12.2" font-family="Helvetica,sans-Serif" font-size="11.00">::prob_runoff_enhancement</text>
</g>
<!-- Node10 -->
<g id="node2" class="node"><title>Node10</title>
<g id="a_node2"><a xlink:href="namespacerunoff____curve__number.html#a72b4da037428312946ee9c28a6790b92" target="_top" xlink:title="runoff__curve_number\l::update_curve_number_fn">
<polygon fill="white" stroke="black" points="186.959,-6 186.959,-36 334.438,-36 334.438,-6 186.959,-6"/>
<text text-anchor="start" x="194.959" y="-23.2" font-family="Helvetica,sans-Serif" font-size="11.00">runoff__curve_number</text>
<text text-anchor="middle" x="260.699" y="-12.2" font-family="Helvetica,sans-Serif" font-size="11.00">::update_curve_number_fn</text>
</a>
</g>
</g>
<!-- Node9&#45;&gt;Node10 -->
<g id="edge1" class="edge"><title>Node9&#45;&gt;Node10</title>
<path fill="none" stroke="midnightblue" d="M161.024,-21C169.61,-21 178.279,-21 186.727,-21"/>
<polygon fill="midnightblue" stroke="midnightblue" points="161.002,-17.5001 151.002,-21 161.002,-24.5001 161.002,-17.5001"/>
</g>
<!-- Node11 -->
<g id="node3" class="node"><title>Node11</title>
<g id="a_node3"><a xlink:href="namespacerunoff____curve__number.html#aae766175dfa1f5c369ce3fb79fba8ce4" target="_top" xlink:title="Calculate the runoff by means of the curve number method. ">
<polygon fill="white" stroke="black" points="370.438,-0.5 370.438,-41.5 496.922,-41.5 496.922,-0.5 370.438,-0.5"/>
<text text-anchor="start" x="378.438" y="-28.7" font-family="Helvetica,sans-Serif" font-size="11.00">runoff__curve_number</text>
<text text-anchor="start" x="378.438" y="-17.7" font-family="Helvetica,sans-Serif" font-size="11.00">::runoff_curve_number</text>
<text text-anchor="middle" x="433.68" y="-6.7" font-family="Helvetica,sans-Serif" font-size="11.00">_calculate</text>
</a>
</g>
</g>
<!-- Node10&#45;&gt;Node11 -->
<g id="edge2" class="edge"><title>Node10&#45;&gt;Node11</title>
<path fill="none" stroke="midnightblue" d="M344.796,-21C353.421,-21 362.079,-21 370.418,-21"/>
<polygon fill="midnightblue" stroke="midnightblue" points="344.706,-17.5001 334.706,-21 344.706,-24.5001 344.706,-17.5001"/>
</g>
<!-- Node12 -->
<g id="node4" class="node"><title>Node12</title>
<g id="a_node4"><a xlink:href="namespacemodel__domain.html#a4cf0da1e10aa8b3c8105cf8e636da443" target="_top" xlink:title="model_domain::model\l_calculate_runoff_curve\l_number">
<polygon fill="white" stroke="black" points="532.922,-0.5 532.922,-41.5 665.523,-41.5 665.523,-0.5 532.922,-0.5"/>
<text text-anchor="start" x="540.922" y="-28.7" font-family="Helvetica,sans-Serif" font-size="11.00">model_domain::model</text>
<text text-anchor="start" x="540.922" y="-17.7" font-family="Helvetica,sans-Serif" font-size="11.00">_calculate_runoff_curve</text>
<text text-anchor="middle" x="599.222" y="-6.7" font-family="Helvetica,sans-Serif" font-size="11.00">_number</text>
</a>
</g>
</g>
<!-- Node11&#45;&gt;Node12 -->
<g id="edge3" class="edge"><title>Node11&#45;&gt;Node12</title>
<path fill="none" stroke="midnightblue" d="M506.988,-21C515.592,-21 524.339,-21 532.839,-21"/>
<polygon fill="midnightblue" stroke="midnightblue" points="506.975,-17.5001 496.975,-21 506.975,-24.5001 506.975,-17.5001"/>
</g>
<!-- Node13 -->
<g id="node5" class="node"><title>Node13</title>
<g id="a_node5"><a xlink:href="namespacemodel__domain.html#aac78dbf26ba37cf86ebed4edd7acf89b" target="_top" xlink:title="model_domain::set_method\l_pointers_sub">
<polygon fill="white" stroke="black" points="701.523,-6 701.523,-36 853.272,-36 853.272,-6 701.523,-6"/>
<text text-anchor="start" x="709.523" y="-23.2" font-family="Helvetica,sans-Serif" font-size="11.00">model_domain::set_method</text>
<text text-anchor="middle" x="777.397" y="-12.2" font-family="Helvetica,sans-Serif" font-size="11.00">_pointers_sub</text>
</a>
</g>
</g>
<!-- Node12&#45;&gt;Node13 -->
<g id="edge4" class="edge"><title>Node12&#45;&gt;Node13</title>
<path fill="none" stroke="midnightblue" d="M675.952,-21C684.334,-21 692.869,-21 701.244,-21"/>
<polygon fill="midnightblue" stroke="midnightblue" points="675.824,-17.5001 665.823,-21 675.823,-24.5001 675.824,-17.5001"/>
</g>
</g>
</svg>
