<?xml version="1.0" encoding="UTF-8" standalone="no"?>
<!DOCTYPE svg PUBLIC "-//W3C//DTD SVG 1.1//EN"
 "http://www.w3.org/Graphics/SVG/1.1/DTD/svg11.dtd">
<!-- Generated by graphviz version 2.38.0 (20140413.2041)
 -->
<!-- Title: netcdf4_support::nf_enddef Pages: 1 -->
<svg width="881pt" height="100pt"
 viewBox="0.00 0.00 880.83 99.50" xmlns="http://www.w3.org/2000/svg" xmlns:xlink="http://www.w3.org/1999/xlink">
<g id="graph0" class="graph" transform="scale(1 1) rotate(0) translate(4 95.5)">
<title>netcdf4_support::nf_enddef</title>
<polygon fill="white" stroke="none" points="-4,4 -4,-95.5 876.833,-95.5 876.833,4 -4,4"/>
<!-- Node1 -->
<g id="node1" class="node"><title>Node1</title>
<polygon fill="#bfbfbf" stroke="black" points="0,-33 0,-63 110.177,-63 110.177,-33 0,-33"/>
<text text-anchor="start" x="8" y="-50.2" font-family="Helvetica,sans-Serif" font-size="11.00">netcdf4_support::nf</text>
<text text-anchor="middle" x="55.0884" y="-39.2" font-family="Helvetica,sans-Serif" font-size="11.00">_enddef</text>
</g>
<!-- Node2 -->
<g id="node2" class="node"><title>Node2</title>
<g id="a_node2"><a xlink:href="namespacenetcdf4__support.html#a37516733165a5b76f3d401654aa0e7ca" target="_top" xlink:title="netcdf4_support::netcdf\l_open_and_prepare_as_output">
<polygon fill="white" stroke="black" points="146.177,-61 146.177,-91 315.704,-91 315.704,-61 146.177,-61"/>
<text text-anchor="start" x="154.177" y="-78.2" font-family="Helvetica,sans-Serif" font-size="11.00">netcdf4_support::netcdf</text>
<text text-anchor="middle" x="230.94" y="-67.2" font-family="Helvetica,sans-Serif" font-size="11.00">_open_and_prepare_as_output</text>
</a>
</g>
</g>
<!-- Node1&#45;&gt;Node2 -->
<g id="edge1" class="edge"><title>Node1&#45;&gt;Node2</title>
<path fill="none" stroke="midnightblue" d="M120.567,-58.3847C128.859,-59.7203 137.445,-61.1029 145.991,-62.4794"/>
<polygon fill="midnightblue" stroke="midnightblue" points="121.049,-54.9172 110.619,-56.7826 119.935,-61.8282 121.049,-54.9172"/>
</g>
<!-- Node6 -->
<g id="node6" class="node"><title>Node6</title>
<g id="a_node6"><a xlink:href="namespacenetcdf4__support.html#a13cacde9c54b298cd00fd53fed078736" target="_top" xlink:title="netcdf4_support::netcdf\l_open_and_prepare_as_output\l_archive">
<polygon fill="white" stroke="black" points="146.177,-0.5 146.177,-41.5 315.704,-41.5 315.704,-0.5 146.177,-0.5"/>
<text text-anchor="start" x="154.177" y="-28.7" font-family="Helvetica,sans-Serif" font-size="11.00">netcdf4_support::netcdf</text>
<text text-anchor="start" x="154.177" y="-17.7" font-family="Helvetica,sans-Serif" font-size="11.00">_open_and_prepare_as_output</text>
<text text-anchor="middle" x="230.94" y="-6.7" font-family="Helvetica,sans-Serif" font-size="11.00">_archive</text>
</a>
</g>
</g>
<!-- Node1&#45;&gt;Node6 -->
<g id="edge5" class="edge"><title>Node1&#45;&gt;Node6</title>
<path fill="none" stroke="midnightblue" d="M120.567,-37.9862C128.859,-36.6983 137.445,-35.365 145.991,-34.0377"/>
<polygon fill="midnightblue" stroke="midnightblue" points="119.964,-34.5378 110.619,-39.5311 121.038,-41.4549 119.964,-34.5378"/>
</g>
<!-- Node3 -->
<g id="node3" class="node"><title>Node3</title>
<g id="a_node3"><a xlink:href="namespacefog____monthly__grid.html#ac06ec0e265221edc2cb7bdcae6b6bb91" target="_top" xlink:title="Initialize the fog drip algorithm. ">
<polygon fill="white" stroke="black" points="351.704,-61 351.704,-91 497.335,-91 497.335,-61 351.704,-61"/>
<text text-anchor="start" x="359.704" y="-78.2" font-family="Helvetica,sans-Serif" font-size="11.00">fog__monthly_grid::</text>
<text text-anchor="middle" x="424.52" y="-67.2" font-family="Helvetica,sans-Serif" font-size="11.00">fog_monthly_grid_initialize</text>
</a>
</g>
</g>
<!-- Node2&#45;&gt;Node3 -->
<g id="edge2" class="edge"><title>Node2&#45;&gt;Node3</title>
<path fill="none" stroke="midnightblue" d="M326.021,-76C334.604,-76 343.206,-76 351.55,-76"/>
<polygon fill="midnightblue" stroke="midnightblue" points="325.97,-72.5001 315.97,-76 325.97,-79.5001 325.97,-72.5001"/>
</g>
<!-- Node4 -->
<g id="node4" class="node"><title>Node4</title>
<g id="a_node4"><a xlink:href="namespacemodel__domain.html#ad24a97a20a893d728e39930306e8b1d4" target="_top" xlink:title="model_domain::model\l_initialize_fog_monthly_grid">
<polygon fill="white" stroke="black" points="533.335,-61 533.335,-91 685.084,-91 685.084,-61 533.335,-61"/>
<text text-anchor="start" x="541.335" y="-78.2" font-family="Helvetica,sans-Serif" font-size="11.00">model_domain::model</text>
<text text-anchor="middle" x="609.21" y="-67.2" font-family="Helvetica,sans-Serif" font-size="11.00">_initialize_fog_monthly_grid</text>
</a>
</g>
</g>
<!-- Node3&#45;&gt;Node4 -->
<g id="edge3" class="edge"><title>Node3&#45;&gt;Node4</title>
<path fill="none" stroke="midnightblue" d="M507.492,-76C516.095,-76 524.811,-76 533.329,-76"/>
<polygon fill="midnightblue" stroke="midnightblue" points="507.462,-72.5001 497.462,-76 507.461,-79.5001 507.462,-72.5001"/>
</g>
<!-- Node5 -->
<g id="node5" class="node"><title>Node5</title>
<g id="a_node5"><a xlink:href="namespacemodel__domain.html#aac78dbf26ba37cf86ebed4edd7acf89b" target="_top" xlink:title="model_domain::set_method\l_pointers_sub">
<polygon fill="white" stroke="black" points="721.084,-61 721.084,-91 872.833,-91 872.833,-61 721.084,-61"/>
<text text-anchor="start" x="729.084" y="-78.2" font-family="Helvetica,sans-Serif" font-size="11.00">model_domain::set_method</text>
<text text-anchor="middle" x="796.959" y="-67.2" font-family="Helvetica,sans-Serif" font-size="11.00">_pointers_sub</text>
</a>
</g>
</g>
<!-- Node4&#45;&gt;Node5 -->
<g id="edge4" class="edge"><title>Node4&#45;&gt;Node5</title>
<path fill="none" stroke="midnightblue" d="M695.242,-76C703.825,-76 712.498,-76 720.965,-76"/>
<polygon fill="midnightblue" stroke="midnightblue" points="695.226,-72.5001 685.226,-76 695.226,-79.5001 695.226,-72.5001"/>
</g>
<!-- Node7 -->
<g id="node7" class="node"><title>Node7</title>
<g id="a_node7"><a xlink:href="namespacedata__catalog__entry.html#a3ea40e0b58c61d01a18065ea3c1b4fcd" target="_top" xlink:title="data_catalog_entry\l::put_values_to_local\l_netcdf_sub">
<polygon fill="white" stroke="black" points="364.844,-0.5 364.844,-41.5 484.195,-41.5 484.195,-0.5 364.844,-0.5"/>
<text text-anchor="start" x="372.844" y="-28.7" font-family="Helvetica,sans-Serif" font-size="11.00">data_catalog_entry</text>
<text text-anchor="start" x="372.844" y="-17.7" font-family="Helvetica,sans-Serif" font-size="11.00">::put_values_to_local</text>
<text text-anchor="middle" x="424.52" y="-6.7" font-family="Helvetica,sans-Serif" font-size="11.00">_netcdf_sub</text>
</a>
</g>
</g>
<!-- Node6&#45;&gt;Node7 -->
<g id="edge6" class="edge"><title>Node6&#45;&gt;Node7</title>
<path fill="none" stroke="midnightblue" d="M325.997,-21C339.143,-21 352.332,-21 364.573,-21"/>
<polygon fill="midnightblue" stroke="midnightblue" points="325.97,-17.5001 315.97,-21 325.97,-24.5001 325.97,-17.5001"/>
</g>
</g>
</svg>
