<?xml version="1.0" encoding="UTF-8" standalone="no"?>
<!DOCTYPE svg PUBLIC "-//W3C//DTD SVG 1.1//EN"
 "http://www.w3.org/Graphics/SVG/1.1/DTD/svg11.dtd">
<!-- Generated by graphviz version 2.38.0 (20140413.2041)
 -->
<!-- Title: routing__d8::routing_d8_determine_solution_order Pages: 1 -->
<svg width="671pt" height="39pt"
 viewBox="0.00 0.00 671.04 39.00" xmlns="http://www.w3.org/2000/svg" xmlns:xlink="http://www.w3.org/1999/xlink">
<g id="graph0" class="graph" transform="scale(1 1) rotate(0) translate(4 35)">
<title>routing__d8::routing_d8_determine_solution_order</title>
<polygon fill="white" stroke="none" points="-4,4 -4,-35 667.042,-35 667.042,4 -4,4"/>
<!-- Node1 -->
<g id="node1" class="node"><title>Node1</title>
<polygon fill="#bfbfbf" stroke="black" points="0,-0.5 0,-30.5 165.214,-30.5 165.214,-0.5 0,-0.5"/>
<text text-anchor="start" x="8" y="-17.7" font-family="Helvetica,sans-Serif" font-size="11.00">routing__d8::routing</text>
<text text-anchor="middle" x="82.6072" y="-6.7" font-family="Helvetica,sans-Serif" font-size="11.00">_d8_determine_solution_order</text>
</g>
<!-- Node2 -->
<g id="node2" class="node"><title>Node2</title>
<g id="a_node2"><a xlink:href="namespacerouting____d8.html#a0008fcb9bc5678e484885bc650fae726" target="_top" xlink:title="routing__d8::routing\l_d8_initialize">
<polygon fill="white" stroke="black" points="201.214,-0.5 201.214,-30.5 315.065,-30.5 315.065,-0.5 201.214,-0.5"/>
<text text-anchor="start" x="209.214" y="-17.7" font-family="Helvetica,sans-Serif" font-size="11.00">routing__d8::routing</text>
<text text-anchor="middle" x="258.14" y="-6.7" font-family="Helvetica,sans-Serif" font-size="11.00">_d8_initialize</text>
</a>
</g>
</g>
<!-- Node1&#45;&gt;Node2 -->
<g id="edge1" class="edge"><title>Node1&#45;&gt;Node2</title>
<path fill="none" stroke="midnightblue" d="M175.538,-15.5C184.257,-15.5 192.906,-15.5 201.132,-15.5"/>
<polygon fill="midnightblue" stroke="midnightblue" points="175.292,-12.0001 165.292,-15.5 175.292,-19.0001 175.292,-12.0001"/>
</g>
<!-- Node3 -->
<g id="node3" class="node"><title>Node3</title>
<g id="a_node3"><a xlink:href="namespacemodel__domain.html#a18aeded59e98fc5ba71f5b4d6b53d732" target="_top" xlink:title="model_domain::model\l_initialize_routing_d8">
<polygon fill="white" stroke="black" points="351.065,-0.5 351.065,-30.5 475.292,-30.5 475.292,-0.5 351.065,-0.5"/>
<text text-anchor="start" x="359.065" y="-17.7" font-family="Helvetica,sans-Serif" font-size="11.00">model_domain::model</text>
<text text-anchor="middle" x="413.179" y="-6.7" font-family="Helvetica,sans-Serif" font-size="11.00">_initialize_routing_d8</text>
</a>
</g>
</g>
<!-- Node2&#45;&gt;Node3 -->
<g id="edge2" class="edge"><title>Node2&#45;&gt;Node3</title>
<path fill="none" stroke="midnightblue" d="M325.458,-15.5C333.914,-15.5 342.539,-15.5 350.91,-15.5"/>
<polygon fill="midnightblue" stroke="midnightblue" points="325.257,-12.0001 315.257,-15.5 325.257,-19.0001 325.257,-12.0001"/>
</g>
<!-- Node4 -->
<g id="node4" class="node"><title>Node4</title>
<g id="a_node4"><a xlink:href="namespacemodel__domain.html#aac78dbf26ba37cf86ebed4edd7acf89b" target="_top" xlink:title="model_domain::set_method\l_pointers_sub">
<polygon fill="white" stroke="black" points="511.292,-0.5 511.292,-30.5 663.042,-30.5 663.042,-0.5 511.292,-0.5"/>
<text text-anchor="start" x="519.292" y="-17.7" font-family="Helvetica,sans-Serif" font-size="11.00">model_domain::set_method</text>
<text text-anchor="middle" x="587.167" y="-6.7" font-family="Helvetica,sans-Serif" font-size="11.00">_pointers_sub</text>
</a>
</g>
</g>
<!-- Node3&#45;&gt;Node4 -->
<g id="edge3" class="edge"><title>Node3&#45;&gt;Node4</title>
<path fill="none" stroke="midnightblue" d="M485.489,-15.5C493.941,-15.5 502.588,-15.5 511.09,-15.5"/>
<polygon fill="midnightblue" stroke="midnightblue" points="485.3,-12.0001 475.3,-15.5 485.3,-19.0001 485.3,-12.0001"/>
</g>
</g>
</svg>
