<?xml version="1.0" encoding="UTF-8" standalone="no"?>
<!DOCTYPE svg PUBLIC "-//W3C//DTD SVG 1.1//EN"
 "http://www.w3.org/Graphics/SVG/1.1/DTD/svg11.dtd">
<!-- Generated by graphviz version 2.38.0 (20140413.2041)
 -->
<!-- Title: netcdf4_support::nf_get_variable_slice_float Pages: 1 -->
<!--zoomable 100 -->
<svg id="main" version="1.1" xmlns="http://www.w3.org/2000/svg" xmlns:xlink="http://www.w3.org/1999/xlink" xml:space="preserve" onload="init(evt)">
<style type="text/css"><![CDATA[
.edge:hover path { stroke: red; }
.edge:hover polygon { stroke: red; fill: red; }
]]></style>
<script type="text/javascript"><![CDATA[
var edges = document.getElementsByTagName('g');
if (edges && edges.length) {
  for (var i=0;i<edges.length;i++) {
    if (edges[i].id.substr(0,4)=='edge') {
      edges[i].setAttribute('class','edge');
    }
  }
}
]]></script>
        <defs>
                <circle id="rim" cx="0" cy="0" r="7"/>
                <circle id="rim2" cx="0" cy="0" r="3.5"/>
                <g id="zoomPlus">
                        <use xlink:href="#rim" fill="#404040">
                                <set attributeName="fill" to="#808080" begin="zoomplus.mouseover" end="zoomplus.mouseout"/>
                        </use>
                        <path d="M-4,0h8M0,-4v8" fill="none" stroke="white" stroke-width="1.5" pointer-events="none"/>
                </g>
                <g id="zoomMin">
                        <use xlink:href="#rim" fill="#404040">
                                <set attributeName="fill" to="#808080" begin="zoomminus.mouseover" end="zoomminus.mouseout"/>
                        </use>
                        <path d="M-4,0h8" fill="none" stroke="white" stroke-width="1.5" pointer-events="none"/>
                </g>
                <g id="dirArrow">
                        <path fill="none" stroke="white" stroke-width="1.5" d="M0,-3.0v7 M-2.5,-0.5L0,-3.0L2.5,-0.5"/>
                </g>
               <g id="resetDef">
                       <use xlink:href="#rim2" fill="#404040">
                               <set attributeName="fill" to="#808080" begin="reset.mouseover" end="reset.mouseout"/>
                       </use>
               </g>
        </defs>

<script type="text/javascript">
var viewWidth = 655;
var viewHeight = 100;
var sectionId = 'dynsection-45';
</script>
<script xlink:href="svgpan.js"/>
<svg id="graph" class="graph">
<g id="viewport">
<title>netcdf4_support::nf_get_variable_slice_float</title>
<polygon fill="white" stroke="none" points="-4,4 -4,-95.5 650.547,-95.5 650.547,4 -4,4"/>
<!-- Node394 -->
<g id="node1" class="node"><title>Node394</title>
<polygon fill="#bfbfbf" stroke="black" points="0,-27.5 0,-57.5 137.081,-57.5 137.081,-27.5 0,-27.5"/>
<text text-anchor="start" x="8" y="-44.7" font-family="Helvetica,sans-Serif" font-size="11.00">netcdf4_support::nf</text>
<text text-anchor="middle" x="68.5403" y="-33.7" font-family="Helvetica,sans-Serif" font-size="11.00">_get_variable_slice_float</text>
</g>
<!-- Node395 -->
<g id="node2" class="node"><title>Node395</title>
<g id="a_node2"><a xlink:href="namespacenetcdf4__support.html#a997d4ec63d37cb56378ab434c9b3075b" target="_top" xlink:title="netcdf4_support::netcdf\l_get_variable_slice">
<polygon fill="white" stroke="black" points="173.081,-27.5 173.081,-57.5 304.049,-57.5 304.049,-27.5 173.081,-27.5"/>
<text text-anchor="start" x="181.081" y="-44.7" font-family="Helvetica,sans-Serif" font-size="11.00">netcdf4_support::netcdf</text>
<text text-anchor="middle" x="238.565" y="-33.7" font-family="Helvetica,sans-Serif" font-size="11.00">_get_variable_slice</text>
</a>
</g>
</g>
<!-- Node394&#45;&gt;Node395 -->
<g id="edge1" class="edge"><title>Node394&#45;&gt;Node395</title>
<path fill="none" stroke="midnightblue" d="M147.673,-42.5C156.149,-42.5 164.705,-42.5 172.993,-42.5"/>
<polygon fill="midnightblue" stroke="midnightblue" points="147.398,-39.0001 137.398,-42.5 147.398,-46.0001 147.398,-39.0001"/>
</g>
<!-- Node396 -->
<g id="node3" class="node"><title>Node396</title>
<g id="a_node3"><a xlink:href="namespacedata__catalog__entry.html#aeb285131f87ed64deba0a9041a9c6405" target="_top" xlink:title="data_catalog_entry\l::getvalues_dynamic\l_netcdf_sub">
<polygon fill="white" stroke="black" points="362.374,-50 362.374,-91 478.652,-91 478.652,-50 362.374,-50"/>
<text text-anchor="start" x="370.374" y="-78.2" font-family="Helvetica,sans-Serif" font-size="11.00">data_catalog_entry</text>
<text text-anchor="start" x="370.374" y="-67.2" font-family="Helvetica,sans-Serif" font-size="11.00">::getvalues_dynamic</text>
<text text-anchor="middle" x="420.513" y="-56.2" font-family="Helvetica,sans-Serif" font-size="11.00">_netcdf_sub</text>
</a>
</g>
</g>
<!-- Node395&#45;&gt;Node396 -->
<g id="edge2" class="edge"><title>Node395&#45;&gt;Node396</title>
<path fill="none" stroke="midnightblue" d="M314.168,-54.1084C330.227,-56.607 346.958,-59.2105 362.234,-61.5874"/>
<polygon fill="midnightblue" stroke="midnightblue" points="314.695,-50.6483 304.276,-52.5691 313.619,-57.5651 314.695,-50.6483"/>
</g>
<!-- Node398 -->
<g id="node5" class="node"><title>Node398</title>
<g id="a_node5"><a xlink:href="namespacedata__catalog__entry.html#ac3e1f0d9d9e146fbb77c0084e1e9fc14" target="_top" xlink:title="data_catalog_entry\l::getvalues_static_netcdf_sub">
<polygon fill="white" stroke="black" points="340.049,-0.5 340.049,-30.5 500.977,-30.5 500.977,-0.5 340.049,-0.5"/>
<text text-anchor="start" x="348.049" y="-17.7" font-family="Helvetica,sans-Serif" font-size="11.00">data_catalog_entry</text>
<text text-anchor="middle" x="420.513" y="-6.7" font-family="Helvetica,sans-Serif" font-size="11.00">::getvalues_static_netcdf_sub</text>
</a>
</g>
</g>
<!-- Node395&#45;&gt;Node398 -->
<g id="edge4" class="edge"><title>Node395&#45;&gt;Node398</title>
<path fill="none" stroke="midnightblue" d="M314.178,-31.3048C322.704,-30.0256 331.419,-28.7179 340.005,-27.4296"/>
<polygon fill="midnightblue" stroke="midnightblue" points="313.646,-27.8454 304.276,-32.7905 314.685,-34.7679 313.646,-27.8454"/>
</g>
<!-- Node397 -->
<g id="node4" class="node"><title>Node397</title>
<g id="a_node4"><a xlink:href="namespacedata__catalog__entry.html#a9e0a89ab19a5bfd61f2dfb8265648234" target="_top" xlink:title="data_catalog_entry\l::getvalues_sub">
<polygon fill="white" stroke="black" points="536.977,-27.5 536.977,-57.5 646.547,-57.5 646.547,-27.5 536.977,-27.5"/>
<text text-anchor="start" x="544.977" y="-44.7" font-family="Helvetica,sans-Serif" font-size="11.00">data_catalog_entry</text>
<text text-anchor="middle" x="591.762" y="-33.7" font-family="Helvetica,sans-Serif" font-size="11.00">::getvalues_sub</text>
</a>
</g>
</g>
<!-- Node396&#45;&gt;Node397 -->
<g id="edge3" class="edge"><title>Node396&#45;&gt;Node397</title>
<path fill="none" stroke="midnightblue" d="M489.116,-59.3161C505.014,-56.6858 521.75,-53.9172 536.949,-51.4027"/>
<polygon fill="midnightblue" stroke="midnightblue" points="488.108,-55.9351 478.813,-61.0205 489.25,-62.8413 488.108,-55.9351"/>
</g>
<!-- Node398&#45;&gt;Node397 -->
<g id="edge5" class="edge"><title>Node398&#45;&gt;Node397</title>
<path fill="none" stroke="midnightblue" d="M511.319,-29.8267C519.946,-31.2028 528.5,-32.5674 536.621,-33.8631"/>
<polygon fill="midnightblue" stroke="midnightblue" points="511.608,-26.3285 501.182,-28.2094 510.505,-33.2411 511.608,-26.3285"/>
</g>
</g>
</svg>
        <g id="navigator" transform="translate(0 0)" fill="#404254">
                <rect fill="#f2f5e9" fill-opacity="0.5" stroke="#606060" stroke-width=".5" x="0" y="0" width="60" height="60"/>
                <use id="zoomplus" xlink:href="#zoomPlus" x="17" y="9" onmousedown="handleZoom(evt,'in')"/>
                <use id="zoomminus" xlink:href="#zoomMin" x="42" y="9" onmousedown="handleZoom(evt,'out')"/>
                <use id="reset" xlink:href="#resetDef" x="30" y="36" onmousedown="handleReset()"/>
                <g id="arrowUp" xlink:href="#dirArrow" transform="translate(30 24)" onmousedown="handlePan(0,-1)">
                  <use xlink:href="#rim" fill="#404040">
                        <set attributeName="fill" to="#808080" begin="arrowUp.mouseover" end="arrowUp.mouseout"/>
                  </use>
                  <path fill="none" stroke="white" stroke-width="1.5" d="M0,-3.0v7 M-2.5,-0.5L0,-3.0L2.5,-0.5"/>
                </g>
                <g id="arrowRight" xlink:href="#dirArrow" transform="rotate(90) translate(36 -43)" onmousedown="handlePan(1,0)">
                  <use xlink:href="#rim" fill="#404040">
                        <set attributeName="fill" to="#808080" begin="arrowRight.mouseover" end="arrowRight.mouseout"/>
                  </use>
                  <path fill="none" stroke="white" stroke-width="1.5" d="M0,-3.0v7 M-2.5,-0.5L0,-3.0L2.5,-0.5"/>
                </g>
                <g id="arrowDown" xlink:href="#dirArrow" transform="rotate(180) translate(-30 -48)" onmousedown="handlePan(0,1)">
                  <use xlink:href="#rim" fill="#404040">
                        <set attributeName="fill" to="#808080" begin="arrowDown.mouseover" end="arrowDown.mouseout"/>
                  </use>
                  <path fill="none" stroke="white" stroke-width="1.5" d="M0,-3.0v7 M-2.5,-0.5L0,-3.0L2.5,-0.5"/>
                </g>
                <g id="arrowLeft" xlink:href="#dirArrow" transform="rotate(270) translate(-36 17)" onmousedown="handlePan(-1,0)">
                  <use xlink:href="#rim" fill="#404040">
                        <set attributeName="fill" to="#808080" begin="arrowLeft.mouseover" end="arrowLeft.mouseout"/>
                  </use>
                  <path fill="none" stroke="white" stroke-width="1.5" d="M0,-3.0v7 M-2.5,-0.5L0,-3.0L2.5,-0.5"/>
                </g>
        </g>
        <svg viewBox="0 0 15 15" width="100%" height="30px" preserveAspectRatio="xMaxYMin meet">
         <g id="arrow_out" transform="scale(0.3 0.3)">
          <a xlink:href="namespacenetcdf4__support_a67ae6168c1f09c755c4e314978ec9ecf_icgraph_org.svg" target="_base">
           <rect id="button" ry="5" rx="5" y="6" x="6" height="38" width="38"
                fill="#f2f5e9" fill-opacity="0.5" stroke="#606060" stroke-width="1.0"/>
           <path id="arrow"
             d="M 11.500037,31.436501 C 11.940474,20.09759 22.043105,11.32322 32.158766,21.979434 L 37.068811,17.246167 C 37.068811,17.246167 37.088388,32 37.088388,32 L 22.160133,31.978069 C 22.160133,31.978069 26.997745,27.140456 26.997745,27.140456 C 18.528582,18.264221 13.291696,25.230495 11.500037,31.436501 z"
             style="fill:#404040;"/>
          </a>
         </g>
        </svg>
</svg>
