<?xml version="1.0" encoding="UTF-8" standalone="no"?>
<!DOCTYPE svg PUBLIC "-//W3C//DTD SVG 1.1//EN"
 "http://www.w3.org/Graphics/SVG/1.1/DTD/svg11.dtd">
<!-- Generated by graphviz version 2.38.0 (20140413.2041)
 -->
<!-- Title: grid::grid_interpolate Pages: 1 -->
<svg width="293pt" height="66pt"
 viewBox="0.00 0.00 293.07 66.00" xmlns="http://www.w3.org/2000/svg" xmlns:xlink="http://www.w3.org/1999/xlink">
<g id="graph0" class="graph" transform="scale(1 1) rotate(0) translate(4 62)">
<title>grid::grid_interpolate</title>
<polygon fill="white" stroke="none" points="-4,4 -4,-62 289.073,-62 289.073,4 -4,4"/>
<!-- Node135 -->
<g id="node1" class="node"><title>Node135</title>
<polygon fill="#bfbfbf" stroke="black" points="0,-19.5 0,-38.5 116.284,-38.5 116.284,-19.5 0,-19.5"/>
<text text-anchor="middle" x="58.1418" y="-25.7" font-family="Helvetica,sans-Serif" font-size="11.00">grid::grid_interpolate</text>
</g>
<!-- Node136 -->
<g id="node2" class="node"><title>Node136</title>
<g id="a_node2"><a xlink:href="namespacegrid.html#aff598db238950c555092a49674632ea7" target="_top" xlink:title="grid::grid_lookupcolumn">
<polygon fill="white" stroke="black" points="152.284,-38.5 152.284,-57.5 285.073,-57.5 285.073,-38.5 152.284,-38.5"/>
<text text-anchor="middle" x="218.678" y="-44.7" font-family="Helvetica,sans-Serif" font-size="11.00">grid::grid_lookupcolumn</text>
</a>
</g>
</g>
<!-- Node135&#45;&gt;Node136 -->
<g id="edge1" class="edge"><title>Node135&#45;&gt;Node136</title>
<path fill="none" stroke="midnightblue" d="M116.377,-35.8594C124.728,-36.8603 133.434,-37.9036 142.081,-38.9399"/>
<polygon fill="midnightblue" stroke="midnightblue" points="141.834,-42.4354 152.18,-40.1503 142.667,-35.4851 141.834,-42.4354"/>
</g>
<!-- Node137 -->
<g id="node3" class="node"><title>Node137</title>
<g id="a_node3"><a xlink:href="namespacegrid.html#aa43c0a405e2c05652606242d0d9ca08d" target="_top" xlink:title="grid::grid_lookuprow">
<polygon fill="white" stroke="black" points="161.151,-0.5 161.151,-19.5 276.205,-19.5 276.205,-0.5 161.151,-0.5"/>
<text text-anchor="middle" x="218.678" y="-6.7" font-family="Helvetica,sans-Serif" font-size="11.00">grid::grid_lookuprow</text>
</a>
</g>
</g>
<!-- Node135&#45;&gt;Node137 -->
<g id="edge2" class="edge"><title>Node135&#45;&gt;Node137</title>
<path fill="none" stroke="midnightblue" d="M116.377,-22.1406C127.627,-20.7923 139.521,-19.3669 151.048,-17.9854"/>
<polygon fill="midnightblue" stroke="midnightblue" points="151.546,-21.4508 161.058,-16.7857 150.713,-14.5006 151.546,-21.4508"/>
</g>
</g>
</svg>
