<?xml version="1.0" encoding="UTF-8" standalone="no"?>
<!DOCTYPE svg PUBLIC "-//W3C//DTD SVG 1.1//EN"
 "http://www.w3.org/Graphics/SVG/1.1/DTD/svg11.dtd">
<!-- Generated by graphviz version 2.38.0 (20140413.2041)
 -->
<!-- Title: model_domain::model_calculate_direct_recharge_gridded Pages: 1 -->
<svg width="333pt" height="50pt"
 viewBox="0.00 0.00 333.44 50.00" xmlns="http://www.w3.org/2000/svg" xmlns:xlink="http://www.w3.org/1999/xlink">
<g id="graph0" class="graph" transform="scale(1 1) rotate(0) translate(4 46)">
<title>model_domain::model_calculate_direct_recharge_gridded</title>
<polygon fill="white" stroke="none" points="-4,4 -4,-46 329.442,-46 329.442,4 -4,4"/>
<!-- Node1 -->
<g id="node1" class="node"><title>Node1</title>
<polygon fill="#bfbfbf" stroke="black" points="0,-0.5 0,-41.5 148.081,-41.5 148.081,-0.5 0,-0.5"/>
<text text-anchor="start" x="8" y="-28.7" font-family="Helvetica,sans-Serif" font-size="11.00">model_domain::model</text>
<text text-anchor="start" x="8" y="-17.7" font-family="Helvetica,sans-Serif" font-size="11.00">_calculate_direct_recharge</text>
<text text-anchor="middle" x="74.0403" y="-6.7" font-family="Helvetica,sans-Serif" font-size="11.00">_gridded</text>
</g>
<!-- Node2 -->
<g id="node2" class="node"><title>Node2</title>
<g id="a_node2"><a xlink:href="namespacedirect__recharge____gridded__data.html#a8a0e9620fa8e86323249ae5807593f75" target="_top" xlink:title="direct_recharge__gridded\l_data::direct_recharge\l_calculate">
<polygon fill="white" stroke="black" points="184.081,-0.5 184.081,-41.5 325.442,-41.5 325.442,-0.5 184.081,-0.5"/>
<text text-anchor="start" x="192.081" y="-28.7" font-family="Helvetica,sans-Serif" font-size="11.00">direct_recharge__gridded</text>
<text text-anchor="start" x="192.081" y="-17.7" font-family="Helvetica,sans-Serif" font-size="11.00">_data::direct_recharge</text>
<text text-anchor="middle" x="254.761" y="-6.7" font-family="Helvetica,sans-Serif" font-size="11.00">_calculate</text>
</a>
</g>
</g>
<!-- Node1&#45;&gt;Node2 -->
<g id="edge1" class="edge"><title>Node1&#45;&gt;Node2</title>
<path fill="none" stroke="midnightblue" d="M148.249,-21C156.61,-21 165.166,-21 173.611,-21"/>
<polygon fill="midnightblue" stroke="midnightblue" points="173.837,-24.5001 183.837,-21 173.837,-17.5001 173.837,-24.5001"/>
</g>
</g>
</svg>
