<?xml version="1.0" encoding="UTF-8" standalone="no"?>
<!DOCTYPE svg PUBLIC "-//W3C//DTD SVG 1.1//EN"
 "http://www.w3.org/Graphics/SVG/1.1/DTD/svg11.dtd">
<!-- Generated by graphviz version 2.38.0 (20140413.2041)
 -->
<!-- Title: interception__bucket::interception_bucket_initialize Pages: 1 -->
<svg width="260pt" height="50pt"
 viewBox="0.00 0.00 260.06 50.00" xmlns="http://www.w3.org/2000/svg" xmlns:xlink="http://www.w3.org/1999/xlink">
<g id="graph0" class="graph" transform="scale(1 1) rotate(0) translate(4 46)">
<title>interception__bucket::interception_bucket_initialize</title>
<polygon fill="white" stroke="none" points="-4,4 -4,-46 256.057,-46 256.057,4 -4,4"/>
<!-- Node0 -->
<g id="node1" class="node"><title>Node0</title>
<polygon fill="#bfbfbf" stroke="black" points="0,-0.5 0,-41.5 117.514,-41.5 117.514,-0.5 0,-0.5"/>
<text text-anchor="start" x="8" y="-28.7" font-family="Helvetica,sans-Serif" font-size="11.00">interception__bucket</text>
<text text-anchor="start" x="8" y="-17.7" font-family="Helvetica,sans-Serif" font-size="11.00">::interception_bucket</text>
<text text-anchor="middle" x="58.7568" y="-6.7" font-family="Helvetica,sans-Serif" font-size="11.00">_initialize</text>
</g>
<!-- Node1 -->
<g id="node2" class="node"><title>Node1</title>
<g id="a_node2"><a xlink:href="namespaceexceptions.html#a84dd04476b06e0a398bfe6d106a82a4d" target="_top" xlink:title="exceptions::warn">
<polygon fill="white" stroke="black" points="153.514,-11.5 153.514,-30.5 252.057,-30.5 252.057,-11.5 153.514,-11.5"/>
<text text-anchor="middle" x="202.785" y="-17.7" font-family="Helvetica,sans-Serif" font-size="11.00">exceptions::warn</text>
</a>
</g>
</g>
<!-- Node0&#45;&gt;Node1 -->
<g id="edge1" class="edge"><title>Node0&#45;&gt;Node1</title>
<path fill="none" stroke="midnightblue" d="M117.525,-21C125.934,-21 134.599,-21 143.026,-21"/>
<polygon fill="midnightblue" stroke="midnightblue" points="143.155,-24.5001 153.155,-21 143.155,-17.5001 143.155,-24.5001"/>
</g>
</g>
</svg>
