<?xml version="1.0" encoding="UTF-8" standalone="no"?>
<!DOCTYPE svg PUBLIC "-//W3C//DTD SVG 1.1//EN"
 "http://www.w3.org/Graphics/SVG/1.1/DTD/svg11.dtd">
<!-- Generated by graphviz version 2.38.0 (20140413.2041)
 -->
<!-- Title: precipitation__method_of_fragments::precipitation_method_of_fragments_calculate Pages: 1 -->
<svg width="511pt" height="88pt"
 viewBox="0.00 0.00 510.81 88.00" xmlns="http://www.w3.org/2000/svg" xmlns:xlink="http://www.w3.org/1999/xlink">
<g id="graph0" class="graph" transform="scale(1 1) rotate(0) translate(4 84)">
<title>precipitation__method_of_fragments::precipitation_method_of_fragments_calculate</title>
<polygon fill="white" stroke="none" points="-4,4 -4,-84 506.809,-84 506.809,4 -4,4"/>
<!-- Node34 -->
<g id="node1" class="node"><title>Node34</title>
<polygon fill="#bfbfbf" stroke="black" points="0,-24.5 0,-65.5 178.658,-65.5 178.658,-24.5 0,-24.5"/>
<text text-anchor="start" x="8" y="-52.7" font-family="Helvetica,sans-Serif" font-size="11.00">precipitation__method</text>
<text text-anchor="start" x="8" y="-41.7" font-family="Helvetica,sans-Serif" font-size="11.00">_of_fragments::precipitation</text>
<text text-anchor="middle" x="89.3291" y="-30.7" font-family="Helvetica,sans-Serif" font-size="11.00">_method_of_fragments_calculate</text>
</g>
<!-- Node35 -->
<g id="node2" class="node"><title>Node35</title>
<g id="a_node2"><a xlink:href="namespaceexceptions.html#a22a1bf2808fdc249e6b378ee3f221156" target="_top" xlink:title="exceptions::die">
<polygon fill="white" stroke="black" points="395.081,-60.5 395.081,-79.5 484.461,-79.5 484.461,-60.5 395.081,-60.5"/>
<text text-anchor="middle" x="439.771" y="-66.7" font-family="Helvetica,sans-Serif" font-size="11.00">exceptions::die</text>
</a>
</g>
</g>
<!-- Node34&#45;&gt;Node35 -->
<g id="edge1" class="edge"><title>Node34&#45;&gt;Node35</title>
<path fill="none" stroke="midnightblue" d="M178.706,-51.3409C243.675,-56.0022 329.876,-62.187 384.851,-66.1313"/>
<polygon fill="midnightblue" stroke="midnightblue" points="384.852,-69.6403 395.077,-66.865 385.353,-62.6583 384.852,-69.6403"/>
</g>
<!-- Node36 -->
<g id="node3" class="node"><title>Node36</title>
<g id="a_node3"><a xlink:href="namespaceprecipitation____method__of__fragments.html#a9218dbc0310b272327ea652a5cd8c44a" target="_top" xlink:title="Update rainfall fragments on daily basis. ">
<polygon fill="white" stroke="black" points="214.658,-0.5 214.658,-41.5 340.733,-41.5 340.733,-0.5 214.658,-0.5"/>
<text text-anchor="start" x="222.658" y="-28.7" font-family="Helvetica,sans-Serif" font-size="11.00">precipitation__method</text>
<text text-anchor="start" x="222.658" y="-17.7" font-family="Helvetica,sans-Serif" font-size="11.00">_of_fragments::update</text>
<text text-anchor="middle" x="277.696" y="-6.7" font-family="Helvetica,sans-Serif" font-size="11.00">_fragments</text>
</a>
</g>
</g>
<!-- Node34&#45;&gt;Node36 -->
<g id="edge2" class="edge"><title>Node34&#45;&gt;Node36</title>
<path fill="none" stroke="midnightblue" d="M178.873,-33.5974C187.42,-32.4968 196.018,-31.3895 204.381,-30.3126"/>
<polygon fill="midnightblue" stroke="midnightblue" points="204.973,-33.7653 214.444,-29.0167 204.079,-26.8227 204.973,-33.7653"/>
</g>
<!-- Node36&#45;&gt;Node35 -->
<g id="edge3" class="edge"><title>Node36&#45;&gt;Node35</title>
<path fill="none" stroke="midnightblue" d="M341.043,-40.085C360.123,-45.9254 380.615,-52.198 397.881,-57.4834"/>
<polygon fill="midnightblue" stroke="midnightblue" points="397.053,-60.8902 407.64,-60.4706 399.102,-54.1968 397.053,-60.8902"/>
</g>
<!-- Node37 -->
<g id="node4" class="node"><title>Node37</title>
<g id="a_node4"><a xlink:href="namespaceprecipitation____method__of__fragments.html#af58f294376d619358b6bc642bd766df4" target="_top" xlink:title="precipitation__method\l_of_fragments::update\l_random_values">
<polygon fill="white" stroke="black" points="376.733,-0.5 376.733,-41.5 502.809,-41.5 502.809,-0.5 376.733,-0.5"/>
<text text-anchor="start" x="384.733" y="-28.7" font-family="Helvetica,sans-Serif" font-size="11.00">precipitation__method</text>
<text text-anchor="start" x="384.733" y="-17.7" font-family="Helvetica,sans-Serif" font-size="11.00">_of_fragments::update</text>
<text text-anchor="middle" x="439.771" y="-6.7" font-family="Helvetica,sans-Serif" font-size="11.00">_random_values</text>
</a>
</g>
</g>
<!-- Node36&#45;&gt;Node37 -->
<g id="edge4" class="edge"><title>Node36&#45;&gt;Node37</title>
<path fill="none" stroke="midnightblue" d="M341.043,-21C349.344,-21 357.912,-21 366.365,-21"/>
<polygon fill="midnightblue" stroke="midnightblue" points="366.594,-24.5001 376.594,-21 366.594,-17.5001 366.594,-24.5001"/>
</g>
</g>
</svg>
