<?xml version="1.0" encoding="UTF-8" standalone="no"?>
<!DOCTYPE svg PUBLIC "-//W3C//DTD SVG 1.1//EN"
 "http://www.w3.org/Graphics/SVG/1.1/DTD/svg11.dtd">
<!-- Generated by graphviz version 2.38.0 (20140413.2041)
 -->
<!-- Title: model_domain::model_update_crop_coefficient_fao56 Pages: 1 -->
<svg width="368pt" height="39pt"
 viewBox="0.00 0.00 368.32 39.00" xmlns="http://www.w3.org/2000/svg" xmlns:xlink="http://www.w3.org/1999/xlink">
<g id="graph0" class="graph" transform="scale(1 1) rotate(0) translate(4 35)">
<title>model_domain::model_update_crop_coefficient_fao56</title>
<polygon fill="white" stroke="none" points="-4,4 -4,-35 364.316,-35 364.316,4 -4,4"/>
<!-- Node458 -->
<g id="node1" class="node"><title>Node458</title>
<polygon fill="#bfbfbf" stroke="black" points="0,-0.5 0,-30.5 172.567,-30.5 172.567,-0.5 0,-0.5"/>
<text text-anchor="start" x="8" y="-17.7" font-family="Helvetica,sans-Serif" font-size="11.00">model_domain::model</text>
<text text-anchor="middle" x="86.2837" y="-6.7" font-family="Helvetica,sans-Serif" font-size="11.00">_update_crop_coefficient_fao56</text>
</g>
<!-- Node459 -->
<g id="node2" class="node"><title>Node459</title>
<g id="a_node2"><a xlink:href="namespacemodel__domain.html#aac78dbf26ba37cf86ebed4edd7acf89b" target="_top" xlink:title="model_domain::set_method\l_pointers_sub">
<polygon fill="white" stroke="black" points="208.567,-0.5 208.567,-30.5 360.316,-30.5 360.316,-0.5 208.567,-0.5"/>
<text text-anchor="start" x="216.567" y="-17.7" font-family="Helvetica,sans-Serif" font-size="11.00">model_domain::set_method</text>
<text text-anchor="middle" x="284.442" y="-6.7" font-family="Helvetica,sans-Serif" font-size="11.00">_pointers_sub</text>
</a>
</g>
</g>
<!-- Node458&#45;&gt;Node459 -->
<g id="edge1" class="edge"><title>Node458&#45;&gt;Node459</title>
<path fill="none" stroke="midnightblue" d="M182.812,-15.5C191.407,-15.5 200.028,-15.5 208.41,-15.5"/>
<polygon fill="midnightblue" stroke="midnightblue" points="182.751,-12.0001 172.751,-15.5 182.751,-19.0001 182.751,-12.0001"/>
</g>
</g>
</svg>
