<?xml version="1.0" encoding="UTF-8" standalone="no"?>
<!DOCTYPE svg PUBLIC "-//W3C//DTD SVG 1.1//EN"
 "http://www.w3.org/Graphics/SVG/1.1/DTD/svg11.dtd">
<!-- Generated by graphviz version 2.38.0 (20140413.2041)
 -->
<!-- Title: model_initialize::create_rooting_depth_table Pages: 1 -->
<svg width="628pt" height="39pt"
 viewBox="0.00 0.00 627.57 39.00" xmlns="http://www.w3.org/2000/svg" xmlns:xlink="http://www.w3.org/1999/xlink">
<g id="graph0" class="graph" transform="scale(1 1) rotate(0) translate(4 35)">
<title>model_initialize::create_rooting_depth_table</title>
<polygon fill="white" stroke="none" points="-4,4 -4,-35 623.573,-35 623.573,4 -4,4"/>
<!-- Node110 -->
<g id="node1" class="node"><title>Node110</title>
<polygon fill="#bfbfbf" stroke="black" points="0,-0.5 0,-30.5 127.891,-30.5 127.891,-0.5 0,-0.5"/>
<text text-anchor="start" x="8" y="-17.7" font-family="Helvetica,sans-Serif" font-size="11.00">model_initialize::create</text>
<text text-anchor="middle" x="63.9453" y="-6.7" font-family="Helvetica,sans-Serif" font-size="11.00">_rooting_depth_table</text>
</g>
<!-- Node111 -->
<g id="node2" class="node"><title>Node111</title>
<g id="a_node2"><a xlink:href="namespacemodel__initialize.html#ad5de643aae8f976ef39b44ec8276c528" target="_top" xlink:title="Initialize soils, landuse, and available water content values. ">
<polygon fill="white" stroke="black" points="163.891,-0.5 163.891,-30.5 354.161,-30.5 354.161,-0.5 163.891,-0.5"/>
<text text-anchor="start" x="171.891" y="-17.7" font-family="Helvetica,sans-Serif" font-size="11.00">model_initialize::initialize</text>
<text text-anchor="middle" x="259.026" y="-6.7" font-family="Helvetica,sans-Serif" font-size="11.00">_soils_landuse_awc_flowdir_values</text>
</a>
</g>
</g>
<!-- Node110&#45;&gt;Node111 -->
<g id="edge1" class="edge"><title>Node110&#45;&gt;Node111</title>
<path fill="none" stroke="midnightblue" d="M137.987,-15.5C146.374,-15.5 155.013,-15.5 163.629,-15.5"/>
<polygon fill="midnightblue" stroke="midnightblue" points="137.9,-12.0001 127.9,-15.5 137.9,-19.0001 137.9,-12.0001"/>
</g>
<!-- Node112 -->
<g id="node3" class="node"><title>Node112</title>
<g id="a_node3"><a xlink:href="namespacemodel__initialize.html#a46370bf2e9ea112d1f219277ba7fd3ce" target="_top" xlink:title="model_initialize::initialize_all">
<polygon fill="white" stroke="black" points="390.161,-6 390.161,-25 543.731,-25 543.731,-6 390.161,-6"/>
<text text-anchor="middle" x="466.946" y="-12.2" font-family="Helvetica,sans-Serif" font-size="11.00">model_initialize::initialize_all</text>
</a>
</g>
</g>
<!-- Node111&#45;&gt;Node112 -->
<g id="edge2" class="edge"><title>Node111&#45;&gt;Node112</title>
<path fill="none" stroke="midnightblue" d="M364.368,-15.5C372.996,-15.5 381.611,-15.5 389.971,-15.5"/>
<polygon fill="midnightblue" stroke="midnightblue" points="364.248,-12.0001 354.248,-15.5 364.248,-19.0001 364.248,-12.0001"/>
</g>
<!-- Node113 -->
<g id="node4" class="node"><title>Node113</title>
<g id="a_node4"><a xlink:href="main_8F90.html#a8ec2266d83cd6c0b762cbcbc92c0af3d" target="_top" xlink:title="Main program which references all other modules; execution begins here. ">
<polygon fill="white" stroke="black" points="579.731,-6 579.731,-25 619.573,-25 619.573,-6 579.731,-6"/>
<text text-anchor="middle" x="599.652" y="-12.2" font-family="Helvetica,sans-Serif" font-size="11.00">main</text>
</a>
</g>
</g>
<!-- Node112&#45;&gt;Node113 -->
<g id="edge3" class="edge"><title>Node112&#45;&gt;Node113</title>
<path fill="none" stroke="midnightblue" d="M554.071,-15.5C563.565,-15.5 572.408,-15.5 579.673,-15.5"/>
<polygon fill="midnightblue" stroke="midnightblue" points="553.978,-12.0001 543.978,-15.5 553.978,-19.0001 553.978,-12.0001"/>
</g>
</g>
</svg>
