<?xml version="1.0" encoding="UTF-8" standalone="no"?>
<!DOCTYPE svg PUBLIC "-//W3C//DTD SVG 1.1//EN"
 "http://www.w3.org/Graphics/SVG/1.1/DTD/svg11.dtd">
<!-- Generated by graphviz version 2.38.0 (20140413.2041)
 -->
<!-- Title: netcdf4_support::netcdf_coord_to_col_row Pages: 1 -->
<svg width="680pt" height="100pt"
 viewBox="0.00 0.00 680.26 99.50" xmlns="http://www.w3.org/2000/svg" xmlns:xlink="http://www.w3.org/1999/xlink">
<g id="graph0" class="graph" transform="scale(1 1) rotate(0) translate(4 95.5)">
<title>netcdf4_support::netcdf_coord_to_col_row</title>
<polygon fill="white" stroke="none" points="-4,4 -4,-95.5 676.264,-95.5 676.264,4 -4,4"/>
<!-- Node1 -->
<g id="node1" class="node"><title>Node1</title>
<polygon fill="#bfbfbf" stroke="black" points="0,-27.5 0,-57.5 130.968,-57.5 130.968,-27.5 0,-27.5"/>
<text text-anchor="start" x="8" y="-44.7" font-family="Helvetica,sans-Serif" font-size="11.00">netcdf4_support::netcdf</text>
<text text-anchor="middle" x="65.4841" y="-33.7" font-family="Helvetica,sans-Serif" font-size="11.00">_coord_to_col_row</text>
</g>
<!-- Node2 -->
<g id="node2" class="node"><title>Node2</title>
<g id="a_node2"><a xlink:href="namespacenetcdf4__support.html#a137d06ed171ec8d77e5af2fbb44b0c4c" target="_top" xlink:title="netcdf4_support::netcdf\l_open_and_prepare_as_input">
<polygon fill="white" stroke="black" points="166.968,-27.5 166.968,-57.5 329.766,-57.5 329.766,-27.5 166.968,-27.5"/>
<text text-anchor="start" x="174.968" y="-44.7" font-family="Helvetica,sans-Serif" font-size="11.00">netcdf4_support::netcdf</text>
<text text-anchor="middle" x="248.367" y="-33.7" font-family="Helvetica,sans-Serif" font-size="11.00">_open_and_prepare_as_input</text>
</a>
</g>
</g>
<!-- Node1&#45;&gt;Node2 -->
<g id="edge1" class="edge"><title>Node1&#45;&gt;Node2</title>
<path fill="none" stroke="midnightblue" d="M141.185,-42.5C149.612,-42.5 158.226,-42.5 166.724,-42.5"/>
<polygon fill="midnightblue" stroke="midnightblue" points="141.021,-39.0001 131.021,-42.5 141.021,-46.0001 141.021,-39.0001"/>
</g>
<!-- Node3 -->
<g id="node3" class="node"><title>Node3</title>
<g id="a_node3"><a xlink:href="namespacedata__catalog__entry.html#aeb285131f87ed64deba0a9041a9c6405" target="_top" xlink:title="data_catalog_entry\l::getvalues_dynamic\l_netcdf_sub">
<polygon fill="white" stroke="black" points="388.091,-50 388.091,-91 504.369,-91 504.369,-50 388.091,-50"/>
<text text-anchor="start" x="396.091" y="-78.2" font-family="Helvetica,sans-Serif" font-size="11.00">data_catalog_entry</text>
<text text-anchor="start" x="396.091" y="-67.2" font-family="Helvetica,sans-Serif" font-size="11.00">::getvalues_dynamic</text>
<text text-anchor="middle" x="446.23" y="-56.2" font-family="Helvetica,sans-Serif" font-size="11.00">_netcdf_sub</text>
</a>
</g>
</g>
<!-- Node2&#45;&gt;Node3 -->
<g id="edge2" class="edge"><title>Node2&#45;&gt;Node3</title>
<path fill="none" stroke="midnightblue" d="M340.013,-55.4585C356.37,-57.7968 372.999,-60.1741 388.062,-62.3275"/>
<polygon fill="midnightblue" stroke="midnightblue" points="340.274,-51.9604 329.88,-54.0099 339.284,-58.8899 340.274,-51.9604"/>
</g>
<!-- Node5 -->
<g id="node5" class="node"><title>Node5</title>
<g id="a_node5"><a xlink:href="namespacedata__catalog__entry.html#ac3e1f0d9d9e146fbb77c0084e1e9fc14" target="_top" xlink:title="data_catalog_entry\l::getvalues_static_netcdf_sub">
<polygon fill="white" stroke="black" points="365.766,-0.5 365.766,-30.5 526.694,-30.5 526.694,-0.5 365.766,-0.5"/>
<text text-anchor="start" x="373.766" y="-17.7" font-family="Helvetica,sans-Serif" font-size="11.00">data_catalog_entry</text>
<text text-anchor="middle" x="446.23" y="-6.7" font-family="Helvetica,sans-Serif" font-size="11.00">::getvalues_static_netcdf_sub</text>
</a>
</g>
</g>
<!-- Node2&#45;&gt;Node5 -->
<g id="edge4" class="edge"><title>Node2&#45;&gt;Node5</title>
<path fill="none" stroke="midnightblue" d="M339.918,-30.0175C348.512,-28.8327 357.182,-27.6375 365.662,-26.4686"/>
<polygon fill="midnightblue" stroke="midnightblue" points="339.308,-26.5683 329.88,-31.4012 340.264,-33.5027 339.308,-26.5683"/>
</g>
<!-- Node4 -->
<g id="node4" class="node"><title>Node4</title>
<g id="a_node4"><a xlink:href="namespacedata__catalog__entry.html#a9e0a89ab19a5bfd61f2dfb8265648234" target="_top" xlink:title="data_catalog_entry\l::getvalues_sub">
<polygon fill="white" stroke="black" points="562.694,-27.5 562.694,-57.5 672.264,-57.5 672.264,-27.5 562.694,-27.5"/>
<text text-anchor="start" x="570.694" y="-44.7" font-family="Helvetica,sans-Serif" font-size="11.00">data_catalog_entry</text>
<text text-anchor="middle" x="617.479" y="-33.7" font-family="Helvetica,sans-Serif" font-size="11.00">::getvalues_sub</text>
</a>
</g>
</g>
<!-- Node3&#45;&gt;Node4 -->
<g id="edge3" class="edge"><title>Node3&#45;&gt;Node4</title>
<path fill="none" stroke="midnightblue" d="M514.832,-59.3161C530.731,-56.6858 547.466,-53.9172 562.666,-51.4027"/>
<polygon fill="midnightblue" stroke="midnightblue" points="513.824,-55.9351 504.53,-61.0205 514.967,-62.8413 513.824,-55.9351"/>
</g>
<!-- Node5&#45;&gt;Node4 -->
<g id="edge5" class="edge"><title>Node5&#45;&gt;Node4</title>
<path fill="none" stroke="midnightblue" d="M537.036,-29.8267C545.662,-31.2028 554.216,-32.5674 562.338,-33.8631"/>
<polygon fill="midnightblue" stroke="midnightblue" points="537.325,-26.3285 526.898,-28.2094 536.222,-33.2411 537.325,-26.3285"/>
</g>
</g>
</svg>
