<?xml version="1.0" encoding="UTF-8" standalone="no"?>
<!DOCTYPE svg PUBLIC "-//W3C//DTD SVG 1.1//EN"
 "http://www.w3.org/Graphics/SVG/1.1/DTD/svg11.dtd">
<!-- Generated by graphviz version 2.38.0 (20140413.2041)
 -->
<!-- Title: netcdf4_support::nf_return_varindex Pages: 1 -->
<svg width="804pt" height="137pt"
 viewBox="0.00 0.00 804.39 137.00" xmlns="http://www.w3.org/2000/svg" xmlns:xlink="http://www.w3.org/1999/xlink">
<g id="graph0" class="graph" transform="scale(1 1) rotate(0) translate(4 133)">
<title>netcdf4_support::nf_return_varindex</title>
<polygon fill="white" stroke="none" points="-4,4 -4,-133 800.387,-133 800.387,4 -4,4"/>
<!-- Node1 -->
<g id="node1" class="node"><title>Node1</title>
<polygon fill="#bfbfbf" stroke="black" points="0,-49.5 0,-79.5 110.177,-79.5 110.177,-49.5 0,-49.5"/>
<text text-anchor="start" x="8" y="-66.7" font-family="Helvetica,sans-Serif" font-size="11.00">netcdf4_support::nf</text>
<text text-anchor="middle" x="55.0884" y="-55.7" font-family="Helvetica,sans-Serif" font-size="11.00">_return_varindex</text>
</g>
<!-- Node2 -->
<g id="node2" class="node"><title>Node2</title>
<g id="a_node2"><a xlink:href="namespacenetcdf4__support.html#a67ae6168c1f09c755c4e314978ec9ecf" target="_top" xlink:title="netcdf4_support::nf\l_get_variable_slice_float">
<polygon fill="white" stroke="black" points="148.008,-98.5 148.008,-128.5 285.089,-128.5 285.089,-98.5 148.008,-98.5"/>
<text text-anchor="start" x="156.008" y="-115.7" font-family="Helvetica,sans-Serif" font-size="11.00">netcdf4_support::nf</text>
<text text-anchor="middle" x="216.549" y="-104.7" font-family="Helvetica,sans-Serif" font-size="11.00">_get_variable_slice_float</text>
</a>
</g>
</g>
<!-- Node1&#45;&gt;Node2 -->
<g id="edge1" class="edge"><title>Node1&#45;&gt;Node2</title>
<path fill="none" stroke="midnightblue" d="M115.033,-82.6129C131.986,-87.8222 150.286,-93.4457 166.566,-98.4484"/>
<polygon fill="midnightblue" stroke="midnightblue" points="115.82,-79.1932 105.233,-79.6014 113.764,-85.8844 115.82,-79.1932"/>
</g>
<!-- Node7 -->
<g id="node7" class="node"><title>Node7</title>
<g id="a_node7"><a xlink:href="namespacenetcdf4__support.html#a03478999542c85e3a93b618472e57409" target="_top" xlink:title="netcdf4_support::nf\l_get_variable_slice_int">
<polygon fill="white" stroke="black" points="152.595,-49.5 152.595,-79.5 280.502,-79.5 280.502,-49.5 152.595,-49.5"/>
<text text-anchor="start" x="160.595" y="-66.7" font-family="Helvetica,sans-Serif" font-size="11.00">netcdf4_support::nf</text>
<text text-anchor="middle" x="216.549" y="-55.7" font-family="Helvetica,sans-Serif" font-size="11.00">_get_variable_slice_int</text>
</a>
</g>
</g>
<!-- Node1&#45;&gt;Node7 -->
<g id="edge7" class="edge"><title>Node1&#45;&gt;Node7</title>
<path fill="none" stroke="midnightblue" d="M120.845,-64.5C131.318,-64.5 142.148,-64.5 152.578,-64.5"/>
<polygon fill="midnightblue" stroke="midnightblue" points="120.52,-61.0001 110.52,-64.5 120.52,-68.0001 120.52,-61.0001"/>
</g>
<!-- Node8 -->
<g id="node8" class="node"><title>Node8</title>
<g id="a_node8"><a xlink:href="namespacenetcdf4__support.html#a01e484c5f5d08b52dc1a21a37fe8f82b" target="_top" xlink:title="netcdf4_support::nf\l_get_variable_slice_short">
<polygon fill="white" stroke="black" points="146.177,-0.5 146.177,-30.5 286.92,-30.5 286.92,-0.5 146.177,-0.5"/>
<text text-anchor="start" x="154.177" y="-17.7" font-family="Helvetica,sans-Serif" font-size="11.00">netcdf4_support::nf</text>
<text text-anchor="middle" x="216.549" y="-6.7" font-family="Helvetica,sans-Serif" font-size="11.00">_get_variable_slice_short</text>
</a>
</g>
</g>
<!-- Node1&#45;&gt;Node8 -->
<g id="edge9" class="edge"><title>Node1&#45;&gt;Node8</title>
<path fill="none" stroke="midnightblue" d="M115.033,-46.3871C131.986,-41.1778 150.286,-35.5543 166.566,-30.5516"/>
<polygon fill="midnightblue" stroke="midnightblue" points="113.764,-43.1156 105.233,-49.3986 115.82,-49.8068 113.764,-43.1156"/>
</g>
<!-- Node3 -->
<g id="node3" class="node"><title>Node3</title>
<g id="a_node3"><a xlink:href="namespacenetcdf4__support.html#a997d4ec63d37cb56378ab434c9b3075b" target="_top" xlink:title="netcdf4_support::netcdf\l_get_variable_slice">
<polygon fill="white" stroke="black" points="322.92,-49.5 322.92,-79.5 453.889,-79.5 453.889,-49.5 322.92,-49.5"/>
<text text-anchor="start" x="330.92" y="-66.7" font-family="Helvetica,sans-Serif" font-size="11.00">netcdf4_support::netcdf</text>
<text text-anchor="middle" x="388.405" y="-55.7" font-family="Helvetica,sans-Serif" font-size="11.00">_get_variable_slice</text>
</a>
</g>
</g>
<!-- Node2&#45;&gt;Node3 -->
<g id="edge2" class="edge"><title>Node2&#45;&gt;Node3</title>
<path fill="none" stroke="midnightblue" d="M279.577,-95.6059C297.847,-90.3356 317.644,-84.6245 335.229,-79.5516"/>
<polygon fill="midnightblue" stroke="midnightblue" points="278.535,-92.2639 269.897,-98.3986 280.475,-98.9896 278.535,-92.2639"/>
</g>
<!-- Node4 -->
<g id="node4" class="node"><title>Node4</title>
<g id="a_node4"><a xlink:href="namespacedata__catalog__entry.html#aeb285131f87ed64deba0a9041a9c6405" target="_top" xlink:title="data_catalog_entry\l::getvalues_dynamic\l_netcdf_sub">
<polygon fill="white" stroke="black" points="512.214,-72 512.214,-113 628.492,-113 628.492,-72 512.214,-72"/>
<text text-anchor="start" x="520.214" y="-100.2" font-family="Helvetica,sans-Serif" font-size="11.00">data_catalog_entry</text>
<text text-anchor="start" x="520.214" y="-89.2" font-family="Helvetica,sans-Serif" font-size="11.00">::getvalues_dynamic</text>
<text text-anchor="middle" x="570.353" y="-78.2" font-family="Helvetica,sans-Serif" font-size="11.00">_netcdf_sub</text>
</a>
</g>
</g>
<!-- Node3&#45;&gt;Node4 -->
<g id="edge3" class="edge"><title>Node3&#45;&gt;Node4</title>
<path fill="none" stroke="midnightblue" d="M464.008,-76.1084C480.067,-78.607 496.798,-81.2105 512.074,-83.5874"/>
<polygon fill="midnightblue" stroke="midnightblue" points="464.535,-72.6483 454.116,-74.5691 463.459,-79.5651 464.535,-72.6483"/>
</g>
<!-- Node6 -->
<g id="node6" class="node"><title>Node6</title>
<g id="a_node6"><a xlink:href="namespacedata__catalog__entry.html#ac3e1f0d9d9e146fbb77c0084e1e9fc14" target="_top" xlink:title="data_catalog_entry\l::getvalues_static_netcdf_sub">
<polygon fill="white" stroke="black" points="489.889,-22.5 489.889,-52.5 650.817,-52.5 650.817,-22.5 489.889,-22.5"/>
<text text-anchor="start" x="497.889" y="-39.7" font-family="Helvetica,sans-Serif" font-size="11.00">data_catalog_entry</text>
<text text-anchor="middle" x="570.353" y="-28.7" font-family="Helvetica,sans-Serif" font-size="11.00">::getvalues_static_netcdf_sub</text>
</a>
</g>
</g>
<!-- Node3&#45;&gt;Node6 -->
<g id="edge5" class="edge"><title>Node3&#45;&gt;Node6</title>
<path fill="none" stroke="midnightblue" d="M464.018,-53.3048C472.544,-52.0256 481.259,-50.7179 489.845,-49.4296"/>
<polygon fill="midnightblue" stroke="midnightblue" points="463.486,-49.8454 454.116,-54.7905 464.524,-56.7679 463.486,-49.8454"/>
</g>
<!-- Node5 -->
<g id="node5" class="node"><title>Node5</title>
<g id="a_node5"><a xlink:href="namespacedata__catalog__entry.html#a9e0a89ab19a5bfd61f2dfb8265648234" target="_top" xlink:title="data_catalog_entry\l::getvalues_sub">
<polygon fill="white" stroke="black" points="686.817,-49.5 686.817,-79.5 796.387,-79.5 796.387,-49.5 686.817,-49.5"/>
<text text-anchor="start" x="694.817" y="-66.7" font-family="Helvetica,sans-Serif" font-size="11.00">data_catalog_entry</text>
<text text-anchor="middle" x="741.602" y="-55.7" font-family="Helvetica,sans-Serif" font-size="11.00">::getvalues_sub</text>
</a>
</g>
</g>
<!-- Node4&#45;&gt;Node5 -->
<g id="edge4" class="edge"><title>Node4&#45;&gt;Node5</title>
<path fill="none" stroke="midnightblue" d="M638.955,-81.3161C654.854,-78.6858 671.589,-75.9172 686.789,-73.4027"/>
<polygon fill="midnightblue" stroke="midnightblue" points="637.947,-77.9351 628.653,-83.0205 639.09,-84.8413 637.947,-77.9351"/>
</g>
<!-- Node6&#45;&gt;Node5 -->
<g id="edge6" class="edge"><title>Node6&#45;&gt;Node5</title>
<path fill="none" stroke="midnightblue" d="M661.159,-51.8267C669.785,-53.2028 678.34,-54.5674 686.461,-55.8631"/>
<polygon fill="midnightblue" stroke="midnightblue" points="661.448,-48.3285 651.021,-50.2094 660.345,-55.2411 661.448,-48.3285"/>
</g>
<!-- Node7&#45;&gt;Node3 -->
<g id="edge8" class="edge"><title>Node7&#45;&gt;Node3</title>
<path fill="none" stroke="midnightblue" d="M290.853,-64.5C301.443,-64.5 312.279,-64.5 322.686,-64.5"/>
<polygon fill="midnightblue" stroke="midnightblue" points="290.797,-61.0001 280.797,-64.5 290.797,-68.0001 290.797,-61.0001"/>
</g>
<!-- Node8&#45;&gt;Node3 -->
<g id="edge10" class="edge"><title>Node8&#45;&gt;Node3</title>
<path fill="none" stroke="midnightblue" d="M279.577,-33.3941C297.847,-38.6644 317.644,-44.3755 335.229,-49.4484"/>
<polygon fill="midnightblue" stroke="midnightblue" points="280.475,-30.0104 269.897,-30.6014 278.535,-36.7361 280.475,-30.0104"/>
</g>
</g>
</svg>
