<?xml version="1.0" encoding="UTF-8" standalone="no"?>
<!DOCTYPE svg PUBLIC "-//W3C//DTD SVG 1.1//EN"
 "http://www.w3.org/Graphics/SVG/1.1/DTD/svg11.dtd">
<!-- Generated by graphviz version 2.38.0 (20140413.2041)
 -->
<!-- Title: grid::grid_readexisting Pages: 1 -->
<svg width="450pt" height="39pt"
 viewBox="0.00 0.00 449.66 39.00" xmlns="http://www.w3.org/2000/svg" xmlns:xlink="http://www.w3.org/1999/xlink">
<g id="graph0" class="graph" transform="scale(1 1) rotate(0) translate(4 35)">
<title>grid::grid_readexisting</title>
<polygon fill="white" stroke="none" points="-4,4 -4,-35 445.664,-35 445.664,4 -4,4"/>
<!-- Node1 -->
<g id="node1" class="node"><title>Node1</title>
<polygon fill="#bfbfbf" stroke="black" points="0,-6 0,-25 124.228,-25 124.228,-6 0,-6"/>
<text text-anchor="middle" x="62.1138" y="-12.2" font-family="Helvetica,sans-Serif" font-size="11.00">grid::grid_readexisting</text>
</g>
<!-- Node2 -->
<g id="node2" class="node"><title>Node2</title>
<g id="a_node2"><a xlink:href="namespacedata__catalog__entry.html#a25575c8a43161050427bd7a7d471e83d" target="_top" xlink:title="data_catalog_entry\l::getvalues_gridded_sub">
<polygon fill="white" stroke="black" points="160.228,-0.5 160.228,-30.5 296.094,-30.5 296.094,-0.5 160.228,-0.5"/>
<text text-anchor="start" x="168.228" y="-17.7" font-family="Helvetica,sans-Serif" font-size="11.00">data_catalog_entry</text>
<text text-anchor="middle" x="228.161" y="-6.7" font-family="Helvetica,sans-Serif" font-size="11.00">::getvalues_gridded_sub</text>
</a>
</g>
</g>
<!-- Node1&#45;&gt;Node2 -->
<g id="edge1" class="edge"><title>Node1&#45;&gt;Node2</title>
<path fill="none" stroke="midnightblue" d="M134.799,-15.5C143.186,-15.5 151.72,-15.5 160.042,-15.5"/>
<polygon fill="midnightblue" stroke="midnightblue" points="134.666,-12.0001 124.666,-15.5 134.666,-19.0001 134.666,-12.0001"/>
</g>
<!-- Node3 -->
<g id="node3" class="node"><title>Node3</title>
<g id="a_node3"><a xlink:href="namespacedata__catalog__entry.html#a9e0a89ab19a5bfd61f2dfb8265648234" target="_top" xlink:title="data_catalog_entry\l::getvalues_sub">
<polygon fill="white" stroke="black" points="332.094,-0.5 332.094,-30.5 441.664,-30.5 441.664,-0.5 332.094,-0.5"/>
<text text-anchor="start" x="340.094" y="-17.7" font-family="Helvetica,sans-Serif" font-size="11.00">data_catalog_entry</text>
<text text-anchor="middle" x="386.879" y="-6.7" font-family="Helvetica,sans-Serif" font-size="11.00">::getvalues_sub</text>
</a>
</g>
</g>
<!-- Node2&#45;&gt;Node3 -->
<g id="edge2" class="edge"><title>Node2&#45;&gt;Node3</title>
<path fill="none" stroke="midnightblue" d="M306.807,-15.5C315.256,-15.5 323.717,-15.5 331.795,-15.5"/>
<polygon fill="midnightblue" stroke="midnightblue" points="306.533,-12.0001 296.533,-15.5 306.533,-19.0001 306.533,-12.0001"/>
</g>
</g>
</svg>
