<?xml version="1.0" encoding="UTF-8" standalone="no"?>
<!DOCTYPE svg PUBLIC "-//W3C//DTD SVG 1.1//EN"
 "http://www.w3.org/Graphics/SVG/1.1/DTD/svg11.dtd">
<!-- Generated by graphviz version 2.38.0 (20140413.2041)
 -->
<!-- Title: netcdf4_support::nf_get_variable_array_as_vector_short Pages: 1 -->
<svg width="807pt" height="100pt"
 viewBox="0.00 0.00 807.44 99.50" xmlns="http://www.w3.org/2000/svg" xmlns:xlink="http://www.w3.org/1999/xlink">
<g id="graph0" class="graph" transform="scale(1 1) rotate(0) translate(4 95.5)">
<title>netcdf4_support::nf_get_variable_array_as_vector_short</title>
<polygon fill="white" stroke="none" points="-4,4 -4,-95.5 803.438,-95.5 803.438,4 -4,4"/>
<!-- Node1 -->
<g id="node1" class="node"><title>Node1</title>
<polygon fill="#bfbfbf" stroke="black" points="0,-22 0,-63 113.228,-63 113.228,-22 0,-22"/>
<text text-anchor="start" x="8" y="-50.2" font-family="Helvetica,sans-Serif" font-size="11.00">netcdf4_support::nf</text>
<text text-anchor="start" x="8" y="-39.2" font-family="Helvetica,sans-Serif" font-size="11.00">_get_variable_array</text>
<text text-anchor="middle" x="56.6138" y="-28.2" font-family="Helvetica,sans-Serif" font-size="11.00">_as_vector_short</text>
</g>
<!-- Node2 -->
<g id="node2" class="node"><title>Node2</title>
<g id="a_node2"><a xlink:href="namespacenetcdf4__support.html#a01e484c5f5d08b52dc1a21a37fe8f82b" target="_top" xlink:title="netcdf4_support::nf\l_get_variable_slice_short">
<polygon fill="white" stroke="black" points="149.228,-27.5 149.228,-57.5 289.971,-57.5 289.971,-27.5 149.228,-27.5"/>
<text text-anchor="start" x="157.228" y="-44.7" font-family="Helvetica,sans-Serif" font-size="11.00">netcdf4_support::nf</text>
<text text-anchor="middle" x="219.599" y="-33.7" font-family="Helvetica,sans-Serif" font-size="11.00">_get_variable_slice_short</text>
</a>
</g>
</g>
<!-- Node1&#45;&gt;Node2 -->
<g id="edge1" class="edge"><title>Node1&#45;&gt;Node2</title>
<path fill="none" stroke="midnightblue" d="M123.63,-42.5C132.072,-42.5 140.734,-42.5 149.227,-42.5"/>
<polygon fill="midnightblue" stroke="midnightblue" points="123.467,-39.0001 113.467,-42.5 123.467,-46.0001 123.467,-39.0001"/>
</g>
<!-- Node3 -->
<g id="node3" class="node"><title>Node3</title>
<g id="a_node3"><a xlink:href="namespacenetcdf4__support.html#a997d4ec63d37cb56378ab434c9b3075b" target="_top" xlink:title="netcdf4_support::netcdf\l_get_variable_slice">
<polygon fill="white" stroke="black" points="325.971,-27.5 325.971,-57.5 456.939,-57.5 456.939,-27.5 325.971,-27.5"/>
<text text-anchor="start" x="333.971" y="-44.7" font-family="Helvetica,sans-Serif" font-size="11.00">netcdf4_support::netcdf</text>
<text text-anchor="middle" x="391.455" y="-33.7" font-family="Helvetica,sans-Serif" font-size="11.00">_get_variable_slice</text>
</a>
</g>
</g>
<!-- Node2&#45;&gt;Node3 -->
<g id="edge2" class="edge"><title>Node2&#45;&gt;Node3</title>
<path fill="none" stroke="midnightblue" d="M300.224,-42.5C308.831,-42.5 317.51,-42.5 325.906,-42.5"/>
<polygon fill="midnightblue" stroke="midnightblue" points="300.176,-39.0001 290.176,-42.5 300.176,-46.0001 300.176,-39.0001"/>
</g>
<!-- Node4 -->
<g id="node4" class="node"><title>Node4</title>
<g id="a_node4"><a xlink:href="namespacedata__catalog__entry.html#aeb285131f87ed64deba0a9041a9c6405" target="_top" xlink:title="data_catalog_entry\l::getvalues_dynamic\l_netcdf_sub">
<polygon fill="white" stroke="black" points="515.264,-50 515.264,-91 631.543,-91 631.543,-50 515.264,-50"/>
<text text-anchor="start" x="523.264" y="-78.2" font-family="Helvetica,sans-Serif" font-size="11.00">data_catalog_entry</text>
<text text-anchor="start" x="523.264" y="-67.2" font-family="Helvetica,sans-Serif" font-size="11.00">::getvalues_dynamic</text>
<text text-anchor="middle" x="573.404" y="-56.2" font-family="Helvetica,sans-Serif" font-size="11.00">_netcdf_sub</text>
</a>
</g>
</g>
<!-- Node3&#45;&gt;Node4 -->
<g id="edge3" class="edge"><title>Node3&#45;&gt;Node4</title>
<path fill="none" stroke="midnightblue" d="M467.059,-54.1084C483.117,-56.607 499.849,-59.2105 515.125,-61.5874"/>
<polygon fill="midnightblue" stroke="midnightblue" points="467.586,-50.6483 457.167,-52.5691 466.509,-57.5651 467.586,-50.6483"/>
</g>
<!-- Node6 -->
<g id="node6" class="node"><title>Node6</title>
<g id="a_node6"><a xlink:href="namespacedata__catalog__entry.html#ac3e1f0d9d9e146fbb77c0084e1e9fc14" target="_top" xlink:title="data_catalog_entry\l::getvalues_static_netcdf_sub">
<polygon fill="white" stroke="black" points="492.939,-0.5 492.939,-30.5 653.868,-30.5 653.868,-0.5 492.939,-0.5"/>
<text text-anchor="start" x="500.939" y="-17.7" font-family="Helvetica,sans-Serif" font-size="11.00">data_catalog_entry</text>
<text text-anchor="middle" x="573.404" y="-6.7" font-family="Helvetica,sans-Serif" font-size="11.00">::getvalues_static_netcdf_sub</text>
</a>
</g>
</g>
<!-- Node3&#45;&gt;Node6 -->
<g id="edge5" class="edge"><title>Node3&#45;&gt;Node6</title>
<path fill="none" stroke="midnightblue" d="M467.069,-31.3048C475.594,-30.0256 484.31,-28.7179 492.896,-27.4296"/>
<polygon fill="midnightblue" stroke="midnightblue" points="466.536,-27.8454 457.167,-32.7905 467.575,-34.7679 466.536,-27.8454"/>
</g>
<!-- Node5 -->
<g id="node5" class="node"><title>Node5</title>
<g id="a_node5"><a xlink:href="namespacedata__catalog__entry.html#a9e0a89ab19a5bfd61f2dfb8265648234" target="_top" xlink:title="data_catalog_entry\l::getvalues_sub">
<polygon fill="white" stroke="black" points="689.868,-27.5 689.868,-57.5 799.438,-57.5 799.438,-27.5 689.868,-27.5"/>
<text text-anchor="start" x="697.868" y="-44.7" font-family="Helvetica,sans-Serif" font-size="11.00">data_catalog_entry</text>
<text text-anchor="middle" x="744.653" y="-33.7" font-family="Helvetica,sans-Serif" font-size="11.00">::getvalues_sub</text>
</a>
</g>
</g>
<!-- Node4&#45;&gt;Node5 -->
<g id="edge4" class="edge"><title>Node4&#45;&gt;Node5</title>
<path fill="none" stroke="midnightblue" d="M642.006,-59.3161C657.905,-56.6858 674.64,-53.9172 689.84,-51.4027"/>
<polygon fill="midnightblue" stroke="midnightblue" points="640.998,-55.9351 631.704,-61.0205 642.141,-62.8413 640.998,-55.9351"/>
</g>
<!-- Node6&#45;&gt;Node5 -->
<g id="edge6" class="edge"><title>Node6&#45;&gt;Node5</title>
<path fill="none" stroke="midnightblue" d="M664.21,-29.8267C672.836,-31.2028 681.39,-32.5674 689.512,-33.8631"/>
<polygon fill="midnightblue" stroke="midnightblue" points="664.499,-26.3285 654.072,-28.2094 663.396,-33.2411 664.499,-26.3285"/>
</g>
</g>
</svg>
