<?xml version="1.0" encoding="UTF-8" standalone="no"?>
<!DOCTYPE svg PUBLIC "-//W3C//DTD SVG 1.1//EN"
 "http://www.w3.org/Graphics/SVG/1.1/DTD/svg11.dtd">
<!-- Generated by graphviz version 2.38.0 (20140413.2041)
 -->
<!-- Title: crop_coefficients__fao56::update_crop_coefficient_date_as_threshold Pages: 1 -->
<svg width="696pt" height="61pt"
 viewBox="0.00 0.00 695.53 61.00" xmlns="http://www.w3.org/2000/svg" xmlns:xlink="http://www.w3.org/1999/xlink">
<g id="graph0" class="graph" transform="scale(1 1) rotate(0) translate(4 57)">
<title>crop_coefficients__fao56::update_crop_coefficient_date_as_threshold</title>
<polygon fill="white" stroke="none" points="-4,4 -4,-57 691.534,-57 691.534,4 -4,4"/>
<!-- Node1 -->
<g id="node1" class="node"><title>Node1</title>
<polygon fill="#bfbfbf" stroke="black" points="0,-0.5 0,-52.5 116.917,-52.5 116.917,-0.5 0,-0.5"/>
<text text-anchor="start" x="8" y="-39.7" font-family="Helvetica,sans-Serif" font-size="11.00">crop_coefficients_</text>
<text text-anchor="start" x="8" y="-28.7" font-family="Helvetica,sans-Serif" font-size="11.00">_fao56::update_crop</text>
<text text-anchor="start" x="8" y="-17.7" font-family="Helvetica,sans-Serif" font-size="11.00">_coefficient_date_as</text>
<text text-anchor="middle" x="58.4587" y="-6.7" font-family="Helvetica,sans-Serif" font-size="11.00">_threshold</text>
</g>
<!-- Node2 -->
<g id="node2" class="node"><title>Node2</title>
<g id="a_node2"><a xlink:href="namespacecrop__coefficients____fao56.html#ac360e63a2ef8c2821ccd7c65beb525ea" target="_top" xlink:title="crop_coefficients_\l_fao56::crop_coefficients\l_fao56_calculate">
<polygon fill="white" stroke="black" points="152.917,-6 152.917,-47 291.217,-47 291.217,-6 152.917,-6"/>
<text text-anchor="start" x="160.917" y="-34.2" font-family="Helvetica,sans-Serif" font-size="11.00">crop_coefficients_</text>
<text text-anchor="start" x="160.917" y="-23.2" font-family="Helvetica,sans-Serif" font-size="11.00">_fao56::crop_coefficients</text>
<text text-anchor="middle" x="222.067" y="-12.2" font-family="Helvetica,sans-Serif" font-size="11.00">_fao56_calculate</text>
</a>
</g>
</g>
<!-- Node1&#45;&gt;Node2 -->
<g id="edge1" class="edge"><title>Node1&#45;&gt;Node2</title>
<path fill="none" stroke="midnightblue" d="M127.466,-26.5C135.859,-26.5 144.441,-26.5 152.837,-26.5"/>
<polygon fill="midnightblue" stroke="midnightblue" points="127.347,-23.0001 117.347,-26.5 127.347,-30.0001 127.347,-23.0001"/>
</g>
<!-- Node3 -->
<g id="node3" class="node"><title>Node3</title>
<g id="a_node3"><a xlink:href="namespacemodel__domain.html#a95b2e2fe14b8b2913da8f4841445038d" target="_top" xlink:title="model_domain::model\l_update_crop_coefficient_fao56">
<polygon fill="white" stroke="black" points="327.217,-11.5 327.217,-41.5 499.785,-41.5 499.785,-11.5 327.217,-11.5"/>
<text text-anchor="start" x="335.217" y="-28.7" font-family="Helvetica,sans-Serif" font-size="11.00">model_domain::model</text>
<text text-anchor="middle" x="413.501" y="-17.7" font-family="Helvetica,sans-Serif" font-size="11.00">_update_crop_coefficient_fao56</text>
</a>
</g>
</g>
<!-- Node2&#45;&gt;Node3 -->
<g id="edge2" class="edge"><title>Node2&#45;&gt;Node3</title>
<path fill="none" stroke="midnightblue" d="M301.598,-26.5C309.999,-26.5 318.574,-26.5 327.05,-26.5"/>
<polygon fill="midnightblue" stroke="midnightblue" points="301.457,-23.0001 291.457,-26.5 301.457,-30.0001 301.457,-23.0001"/>
</g>
<!-- Node4 -->
<g id="node4" class="node"><title>Node4</title>
<g id="a_node4"><a xlink:href="namespacemodel__domain.html#aac78dbf26ba37cf86ebed4edd7acf89b" target="_top" xlink:title="model_domain::set_method\l_pointers_sub">
<polygon fill="white" stroke="black" points="535.785,-11.5 535.785,-41.5 687.534,-41.5 687.534,-11.5 535.785,-11.5"/>
<text text-anchor="start" x="543.785" y="-28.7" font-family="Helvetica,sans-Serif" font-size="11.00">model_domain::set_method</text>
<text text-anchor="middle" x="611.659" y="-17.7" font-family="Helvetica,sans-Serif" font-size="11.00">_pointers_sub</text>
</a>
</g>
</g>
<!-- Node3&#45;&gt;Node4 -->
<g id="edge3" class="edge"><title>Node3&#45;&gt;Node4</title>
<path fill="none" stroke="midnightblue" d="M510.03,-26.5C518.624,-26.5 527.245,-26.5 535.628,-26.5"/>
<polygon fill="midnightblue" stroke="midnightblue" points="509.968,-23.0001 499.968,-26.5 509.968,-30.0001 509.968,-23.0001"/>
</g>
</g>
</svg>
