<?xml version="1.0" encoding="UTF-8" standalone="no"?>
<!DOCTYPE svg PUBLIC "-//W3C//DTD SVG 1.1//EN"
 "http://www.w3.org/Graphics/SVG/1.1/DTD/svg11.dtd">
<!-- Generated by graphviz version 2.38.0 (20140413.2041)
 -->
<!-- Title: model_domain::model_initialize_direct_recharge_gridded Pages: 1 -->
<svg width="464pt" height="50pt"
 viewBox="0.00 0.00 463.70 50.00" xmlns="http://www.w3.org/2000/svg" xmlns:xlink="http://www.w3.org/1999/xlink">
<g id="graph0" class="graph" transform="scale(1 1) rotate(0) translate(4 46)">
<title>model_domain::model_initialize_direct_recharge_gridded</title>
<polygon fill="white" stroke="none" points="-4,4 -4,-46 459.699,-46 459.699,4 -4,4"/>
<!-- Node412 -->
<g id="node1" class="node"><title>Node412</title>
<polygon fill="#bfbfbf" stroke="black" points="0,-0.5 0,-41.5 143.794,-41.5 143.794,-0.5 0,-0.5"/>
<text text-anchor="start" x="8" y="-28.7" font-family="Helvetica,sans-Serif" font-size="11.00">model_domain::model</text>
<text text-anchor="start" x="8" y="-17.7" font-family="Helvetica,sans-Serif" font-size="11.00">_initialize_direct_recharge</text>
<text text-anchor="middle" x="71.8972" y="-6.7" font-family="Helvetica,sans-Serif" font-size="11.00">_gridded</text>
</g>
<!-- Node413 -->
<g id="node2" class="node"><title>Node413</title>
<g id="a_node2"><a xlink:href="namespacedirect__recharge____gridded__data.html#a0ee82768174b55911b15e24aa80e3560" target="_top" xlink:title="Initialize the routine to enable input/output of arbitrary sources/sink terms. ">
<polygon fill="white" stroke="black" points="179.794,-0.5 179.794,-41.5 321.156,-41.5 321.156,-0.5 179.794,-0.5"/>
<text text-anchor="start" x="187.794" y="-28.7" font-family="Helvetica,sans-Serif" font-size="11.00">direct_recharge__gridded</text>
<text text-anchor="start" x="187.794" y="-17.7" font-family="Helvetica,sans-Serif" font-size="11.00">_data::direct_recharge</text>
<text text-anchor="middle" x="250.475" y="-6.7" font-family="Helvetica,sans-Serif" font-size="11.00">_initialize</text>
</a>
</g>
</g>
<!-- Node412&#45;&gt;Node413 -->
<g id="edge1" class="edge"><title>Node412&#45;&gt;Node413</title>
<path fill="none" stroke="midnightblue" d="M143.955,-21C152.427,-21 161.12,-21 169.704,-21"/>
<polygon fill="midnightblue" stroke="midnightblue" points="169.711,-24.5001 179.711,-21 169.711,-17.5001 169.711,-24.5001"/>
</g>
<!-- Node414 -->
<g id="node3" class="node"><title>Node414</title>
<g id="a_node3"><a xlink:href="namespaceexceptions.html#a84dd04476b06e0a398bfe6d106a82a4d" target="_top" xlink:title="exceptions::warn">
<polygon fill="white" stroke="black" points="357.156,-11.5 357.156,-30.5 455.699,-30.5 455.699,-11.5 357.156,-11.5"/>
<text text-anchor="middle" x="406.427" y="-17.7" font-family="Helvetica,sans-Serif" font-size="11.00">exceptions::warn</text>
</a>
</g>
</g>
<!-- Node413&#45;&gt;Node414 -->
<g id="edge2" class="edge"><title>Node413&#45;&gt;Node414</title>
<path fill="none" stroke="midnightblue" d="M321.244,-21C329.841,-21 338.56,-21 346.965,-21"/>
<polygon fill="midnightblue" stroke="midnightblue" points="347.033,-24.5001 357.033,-21 347.033,-17.5001 347.033,-24.5001"/>
</g>
</g>
</svg>
