<?xml version="1.0" encoding="UTF-8" standalone="no"?>
<!DOCTYPE svg PUBLIC "-//W3C//DTD SVG 1.1//EN"
 "http://www.w3.org/Graphics/SVG/1.1/DTD/svg11.dtd">
<!-- Generated by graphviz version 2.38.0 (20140413.2041)
 -->
<!-- Title: datetime::julian_day Pages: 1 -->
<!--zoomable 409 -->
<svg id="main" version="1.1" xmlns="http://www.w3.org/2000/svg" xmlns:xlink="http://www.w3.org/1999/xlink" xml:space="preserve" onload="init(evt)">
<style type="text/css"><![CDATA[
.edge:hover path { stroke: red; }
.edge:hover polygon { stroke: red; fill: red; }
]]></style>
<script type="text/javascript"><![CDATA[
var edges = document.getElementsByTagName('g');
if (edges && edges.length) {
  for (var i=0;i<edges.length;i++) {
    if (edges[i].id.substr(0,4)=='edge') {
      edges[i].setAttribute('class','edge');
    }
  }
}
]]></script>
        <defs>
                <circle id="rim" cx="0" cy="0" r="7"/>
                <circle id="rim2" cx="0" cy="0" r="3.5"/>
                <g id="zoomPlus">
                        <use xlink:href="#rim" fill="#404040">
                                <set attributeName="fill" to="#808080" begin="zoomplus.mouseover" end="zoomplus.mouseout"/>
                        </use>
                        <path d="M-4,0h8M0,-4v8" fill="none" stroke="white" stroke-width="1.5" pointer-events="none"/>
                </g>
                <g id="zoomMin">
                        <use xlink:href="#rim" fill="#404040">
                                <set attributeName="fill" to="#808080" begin="zoomminus.mouseover" end="zoomminus.mouseout"/>
                        </use>
                        <path d="M-4,0h8" fill="none" stroke="white" stroke-width="1.5" pointer-events="none"/>
                </g>
                <g id="dirArrow">
                        <path fill="none" stroke="white" stroke-width="1.5" d="M0,-3.0v7 M-2.5,-0.5L0,-3.0L2.5,-0.5"/>
                </g>
               <g id="resetDef">
                       <use xlink:href="#rim2" fill="#404040">
                               <set attributeName="fill" to="#808080" begin="reset.mouseover" end="reset.mouseout"/>
                       </use>
               </g>
        </defs>

<script type="text/javascript">
var viewWidth = 890;
var viewHeight = 409;
var sectionId = 'dynsection-3';
</script>
<script xlink:href="svgpan.js"/>
<svg id="graph" class="graph">
<g id="viewport">
<title>datetime::julian_day</title>
<polygon fill="white" stroke="none" points="-4,4 -4,-405 885.98,-405 885.98,4 -4,4"/>
<!-- Node1 -->
<g id="node1" class="node"><title>Node1</title>
<polygon fill="#bfbfbf" stroke="black" points="0,-144 0,-163 113.84,-163 113.84,-144 0,-144"/>
<text text-anchor="middle" x="56.9199" y="-150.2" font-family="Helvetica,sans-Serif" font-size="11.00">datetime::julian_day</text>
</g>
<!-- Node2 -->
<g id="node2" class="node"><title>Node2</title>
<g id="a_node2"><a xlink:href="namespacedatetime.html#a9575f695885d806cc658b68cbdb75a70" target="_top" xlink:title="datetime::day_of_year">
<polygon fill="white" stroke="black" points="161.75,-303 161.75,-322 286.595,-322 286.595,-303 161.75,-303"/>
<text text-anchor="middle" x="224.173" y="-309.2" font-family="Helvetica,sans-Serif" font-size="11.00">datetime::day_of_year</text>
</a>
</g>
</g>
<!-- Node1&#45;&gt;Node2 -->
<g id="edge1" class="edge"><title>Node1&#45;&gt;Node2</title>
<path fill="none" stroke="midnightblue" d="M75.7773,-170.682C110.515,-204.105 186.153,-276.881 213.26,-302.962"/>
<polygon fill="midnightblue" stroke="midnightblue" points="77.8901,-167.857 68.2572,-163.446 73.0366,-172.902 77.8901,-167.857"/>
</g>
<!-- Node8 -->
<g id="node8" class="node"><title>Node8</title>
<g id="a_node8"><a xlink:href="namespacedatetime.html#a45ad8eb2d0529ecfc6bcb3671ebc8415" target="_top" xlink:title="datetime::mmdd2doy">
<polygon fill="white" stroke="black" points="164.814,-201 164.814,-220 283.531,-220 283.531,-201 164.814,-201"/>
<text text-anchor="middle" x="224.173" y="-207.2" font-family="Helvetica,sans-Serif" font-size="11.00">datetime::mmdd2doy</text>
</a>
</g>
</g>
<!-- Node1&#45;&gt;Node8 -->
<g id="edge7" class="edge"><title>Node1&#45;&gt;Node8</title>
<path fill="none" stroke="midnightblue" d="M88.0545,-167.196C105.808,-174.952 128.837,-184.475 149.84,-191.5 160.192,-194.962 171.54,-198.177 182.15,-200.94"/>
<polygon fill="midnightblue" stroke="midnightblue" points="89.3418,-163.939 78.7805,-163.097 86.5116,-170.341 89.3418,-163.939"/>
</g>
<!-- Node14 -->
<g id="node14" class="node"><title>Node14</title>
<g id="a_node14"><a xlink:href="namespacedatetime.html#a2e198eedb86c02c720b30c84186b7af6" target="_top" xlink:title="datetime::mmddyyyy2doy">
<polygon fill="white" stroke="black" points="153.814,-163 153.814,-182 294.531,-182 294.531,-163 153.814,-163"/>
<text text-anchor="middle" x="224.173" y="-169.2" font-family="Helvetica,sans-Serif" font-size="11.00">datetime::mmddyyyy2doy</text>
</a>
</g>
</g>
<!-- Node1&#45;&gt;Node14 -->
<g id="edge13" class="edge"><title>Node1&#45;&gt;Node14</title>
<path fill="none" stroke="midnightblue" d="M123.956,-161.092C133.774,-162.221 143.918,-163.388 153.802,-164.524"/>
<polygon fill="midnightblue" stroke="midnightblue" points="124.201,-157.598 113.867,-159.933 123.402,-164.552 124.201,-157.598"/>
</g>
<!-- Node15 -->
<g id="node15" class="node"><title>Node15</title>
<g id="a_node15"><a xlink:href="namespacedatetime.html#ac7d7f4ca4c13b5a5b0f768bdb3f30331" target="_top" xlink:title="datetime::mmddyyyy2julian">
<polygon fill="white" stroke="black" points="149.84,-125 149.84,-144 298.506,-144 298.506,-125 149.84,-125"/>
<text text-anchor="middle" x="224.173" y="-131.2" font-family="Helvetica,sans-Serif" font-size="11.00">datetime::mmddyyyy2julian</text>
</a>
</g>
</g>
<!-- Node1&#45;&gt;Node15 -->
<g id="edge14" class="edge"><title>Node1&#45;&gt;Node15</title>
<path fill="none" stroke="midnightblue" d="M124.024,-145.9C132.468,-144.929 141.153,-143.93 149.706,-142.947"/>
<polygon fill="midnightblue" stroke="midnightblue" points="123.402,-142.448 113.867,-147.067 124.201,-149.402 123.402,-142.448"/>
</g>
<!-- Node16 -->
<g id="node16" class="node"><title>Node16</title>
<g id="a_node16"><a xlink:href="namespacenetcdf4__support.html#ad118f90a290289cde5043fc1ec23bca1" target="_top" xlink:title="netcdf4_support::nf\l_calculate_time_range">
<polygon fill="white" stroke="black" points="160.832,-75.5 160.832,-105.5 287.514,-105.5 287.514,-75.5 160.832,-75.5"/>
<text text-anchor="start" x="168.832" y="-92.7" font-family="Helvetica,sans-Serif" font-size="11.00">netcdf4_support::nf</text>
<text text-anchor="middle" x="224.173" y="-81.7" font-family="Helvetica,sans-Serif" font-size="11.00">_calculate_time_range</text>
</a>
</g>
</g>
<!-- Node1&#45;&gt;Node16 -->
<g id="edge15" class="edge"><title>Node1&#45;&gt;Node16</title>
<path fill="none" stroke="midnightblue" d="M89.3238,-139.939C106.994,-132.454 129.524,-123.153 149.84,-115.5 158.777,-112.133 168.397,-108.711 177.635,-105.523"/>
<polygon fill="midnightblue" stroke="midnightblue" points="87.8806,-136.749 80.0519,-143.888 90.6237,-143.189 87.8806,-136.749"/>
</g>
<!-- Node23 -->
<g id="node23" class="node"><title>Node23</title>
<g id="a_node23"><a xlink:href="namespacedatetime.html#a6ba366beea462b03744897b6b74956b6" target="_top" xlink:title="datetime::parse_text\l_to_date_sub">
<polygon fill="white" stroke="black" points="166.34,-26.5 166.34,-56.5 282.006,-56.5 282.006,-26.5 166.34,-26.5"/>
<text text-anchor="start" x="174.34" y="-43.7" font-family="Helvetica,sans-Serif" font-size="11.00">datetime::parse_text</text>
<text text-anchor="middle" x="224.173" y="-32.7" font-family="Helvetica,sans-Serif" font-size="11.00">_to_date_sub</text>
</a>
</g>
</g>
<!-- Node1&#45;&gt;Node23 -->
<g id="edge25" class="edge"><title>Node1&#45;&gt;Node23</title>
<path fill="none" stroke="midnightblue" d="M71.9754,-135.953C88.6313,-116.232 118.147,-84.4956 149.84,-65.5 155.47,-62.1255 161.632,-59.1635 167.915,-56.5798"/>
<polygon fill="midnightblue" stroke="midnightblue" points="69.1315,-133.9 65.4606,-143.839 74.528,-138.359 69.1315,-133.9"/>
</g>
<!-- Node3 -->
<g id="node3" class="node"><title>Node3</title>
<g id="a_node3"><a xlink:href="namespacedatetime.html#a5e943042ca778d305fabbbe6f8d96aac" target="_top" xlink:title="datetime::get_day_of\l_year_fn">
<polygon fill="white" stroke="black" points="356.535,-370.5 356.535,-400.5 475.274,-400.5 475.274,-370.5 356.535,-370.5"/>
<text text-anchor="start" x="364.535" y="-387.7" font-family="Helvetica,sans-Serif" font-size="11.00">datetime::get_day_of</text>
<text text-anchor="middle" x="415.905" y="-376.7" font-family="Helvetica,sans-Serif" font-size="11.00">_year_fn</text>
</a>
</g>
</g>
<!-- Node2&#45;&gt;Node3 -->
<g id="edge2" class="edge"><title>Node2&#45;&gt;Node3</title>
<path fill="none" stroke="midnightblue" d="M253.643,-326.499C275.461,-336.922 306.481,-351.088 334.506,-361.5 342.972,-364.645 352.053,-367.675 360.955,-370.46"/>
<polygon fill="midnightblue" stroke="midnightblue" points="255.129,-323.33 244.601,-322.142 252.09,-329.636 255.129,-323.33"/>
</g>
<!-- Node4 -->
<g id="node4" class="node"><title>Node4</title>
<g id="a_node4"><a xlink:href="namespacemodel__initialize.html#aa901fa3beec7f5be635326923f7cd49b" target="_top" xlink:title="model_initialize::initialize\l_start_and_end_dates">
<polygon fill="white" stroke="black" points="347.681,-321.5 347.681,-351.5 484.128,-351.5 484.128,-321.5 347.681,-321.5"/>
<text text-anchor="start" x="355.681" y="-338.7" font-family="Helvetica,sans-Serif" font-size="11.00">model_initialize::initialize</text>
<text text-anchor="middle" x="415.905" y="-327.7" font-family="Helvetica,sans-Serif" font-size="11.00">_start_and_end_dates</text>
</a>
</g>
</g>
<!-- Node2&#45;&gt;Node4 -->
<g id="edge3" class="edge"><title>Node2&#45;&gt;Node4</title>
<path fill="none" stroke="midnightblue" d="M296.928,-321.577C313.477,-323.67 331.024,-325.89 347.385,-327.959"/>
<polygon fill="midnightblue" stroke="midnightblue" points="297.133,-318.075 286.773,-320.292 296.255,-325.019 297.133,-318.075"/>
</g>
<!-- Node7 -->
<g id="node7" class="node"><title>Node7</title>
<g id="a_node7"><a xlink:href="namespacesimulation__datetime.html#a614317d68d6d6e98353e087670dc7a98" target="_top" xlink:title="simulation_datetime\l::increment_by_one_day_sub">
<polygon fill="white" stroke="black" points="335.744,-272.5 335.744,-302.5 496.065,-302.5 496.065,-272.5 335.744,-272.5"/>
<text text-anchor="start" x="343.744" y="-289.7" font-family="Helvetica,sans-Serif" font-size="11.00">simulation_datetime</text>
<text text-anchor="middle" x="415.905" y="-278.7" font-family="Helvetica,sans-Serif" font-size="11.00">::increment_by_one_day_sub</text>
</a>
</g>
</g>
<!-- Node2&#45;&gt;Node7 -->
<g id="edge6" class="edge"><title>Node2&#45;&gt;Node7</title>
<path fill="none" stroke="midnightblue" d="M296.798,-303.062C309.478,-301.391 322.749,-299.643 335.626,-297.946"/>
<polygon fill="midnightblue" stroke="midnightblue" points="296.23,-299.607 286.773,-304.383 297.145,-306.547 296.23,-299.607"/>
</g>
<!-- Node5 -->
<g id="node5" class="node"><title>Node5</title>
<g id="a_node5"><a xlink:href="namespacemodel__initialize.html#a46370bf2e9ea112d1f219277ba7fd3ce" target="_top" xlink:title="model_initialize::initialize_all">
<polygon fill="white" stroke="black" points="536.982,-327 536.982,-346 690.552,-346 690.552,-327 536.982,-327"/>
<text text-anchor="middle" x="613.767" y="-333.2" font-family="Helvetica,sans-Serif" font-size="11.00">model_initialize::initialize_all</text>
</a>
</g>
</g>
<!-- Node4&#45;&gt;Node5 -->
<g id="edge4" class="edge"><title>Node4&#45;&gt;Node5</title>
<path fill="none" stroke="midnightblue" d="M494.367,-336.5C508.345,-336.5 522.905,-336.5 536.838,-336.5"/>
<polygon fill="midnightblue" stroke="midnightblue" points="494.309,-333 484.309,-336.5 494.309,-340 494.309,-333"/>
</g>
<!-- Node6 -->
<g id="node6" class="node"><title>Node6</title>
<g id="a_node6"><a xlink:href="main_8F90.html#a8ec2266d83cd6c0b762cbcbc92c0af3d" target="_top" xlink:title="Main program which references all other modules; execution begins here. ">
<polygon fill="white" stroke="black" points="786.185,-327 786.185,-346 826.027,-346 826.027,-327 786.185,-327"/>
<text text-anchor="middle" x="806.106" y="-333.2" font-family="Helvetica,sans-Serif" font-size="11.00">main</text>
</a>
</g>
</g>
<!-- Node5&#45;&gt;Node6 -->
<g id="edge5" class="edge"><title>Node5&#45;&gt;Node6</title>
<path fill="none" stroke="midnightblue" d="M701.03,-336.5C732.691,-336.5 765.678,-336.5 785.81,-336.5"/>
<polygon fill="midnightblue" stroke="midnightblue" points="700.815,-333 690.815,-336.5 700.815,-340 700.815,-333"/>
</g>
<!-- Node9 -->
<g id="node9" class="node"><title>Node9</title>
<g id="a_node9"><a xlink:href="namespacegrowing__degree__day.html#a0e7f6a6149d6eb2f4aa96cadc1dc86de" target="_top" xlink:title="growing_degree_day\l::growing_degree_day\l_initialize">
<polygon fill="white" stroke="black" points="353.477,-212 353.477,-253 478.333,-253 478.333,-212 353.477,-212"/>
<text text-anchor="start" x="361.477" y="-240.2" font-family="Helvetica,sans-Serif" font-size="11.00">growing_degree_day</text>
<text text-anchor="start" x="361.477" y="-229.2" font-family="Helvetica,sans-Serif" font-size="11.00">::growing_degree_day</text>
<text text-anchor="middle" x="415.905" y="-218.2" font-family="Helvetica,sans-Serif" font-size="11.00">_initialize</text>
</a>
</g>
</g>
<!-- Node8&#45;&gt;Node9 -->
<g id="edge8" class="edge"><title>Node8&#45;&gt;Node9</title>
<path fill="none" stroke="midnightblue" d="M293.675,-218.443C313.172,-220.704 334.281,-223.151 353.338,-225.361"/>
<polygon fill="midnightblue" stroke="midnightblue" points="293.983,-214.955 283.647,-217.28 293.177,-221.909 293.983,-214.955"/>
</g>
<!-- Node12 -->
<g id="node12" class="node"><title>Node12</title>
<g id="a_node12"><a xlink:href="namespacegrowing__season.html#add2a4f3df5a65bcd0406e7a24f8493f7" target="_top" xlink:title="growing_season::growing\l_season_initialize">
<polygon fill="white" stroke="black" points="345.533,-162.5 345.533,-192.5 486.276,-192.5 486.276,-162.5 345.533,-162.5"/>
<text text-anchor="start" x="353.533" y="-179.7" font-family="Helvetica,sans-Serif" font-size="11.00">growing_season::growing</text>
<text text-anchor="middle" x="415.905" y="-168.7" font-family="Helvetica,sans-Serif" font-size="11.00">_season_initialize</text>
</a>
</g>
</g>
<!-- Node8&#45;&gt;Node12 -->
<g id="edge11" class="edge"><title>Node8&#45;&gt;Node12</title>
<path fill="none" stroke="midnightblue" d="M289.848,-199.251C307.76,-196.136 327.274,-192.742 345.446,-189.581"/>
<polygon fill="midnightblue" stroke="midnightblue" points="289.049,-195.837 279.797,-200.999 290.248,-202.734 289.049,-195.837"/>
</g>
<!-- Node10 -->
<g id="node10" class="node"><title>Node10</title>
<g id="a_node10"><a xlink:href="namespacemodel__domain.html#acda9accebb6158cde99b20eb39898053" target="_top" xlink:title="model_domain::model\l_initialize_gdd">
<polygon fill="white" stroke="black" points="551.654,-217.5 551.654,-247.5 675.881,-247.5 675.881,-217.5 551.654,-217.5"/>
<text text-anchor="start" x="559.654" y="-234.7" font-family="Helvetica,sans-Serif" font-size="11.00">model_domain::model</text>
<text text-anchor="middle" x="613.767" y="-223.7" font-family="Helvetica,sans-Serif" font-size="11.00">_initialize_gdd</text>
</a>
</g>
</g>
<!-- Node9&#45;&gt;Node10 -->
<g id="edge9" class="edge"><title>Node9&#45;&gt;Node10</title>
<path fill="none" stroke="midnightblue" d="M488.357,-232.5C509.081,-232.5 531.514,-232.5 551.551,-232.5"/>
<polygon fill="midnightblue" stroke="midnightblue" points="488.339,-229 478.339,-232.5 488.339,-236 488.339,-229"/>
</g>
<!-- Node11 -->
<g id="node11" class="node"><title>Node11</title>
<g id="a_node11"><a xlink:href="namespacemodel__domain.html#aac78dbf26ba37cf86ebed4edd7acf89b" target="_top" xlink:title="model_domain::set_method\l_pointers_sub">
<polygon fill="white" stroke="black" points="730.231,-217.5 730.231,-247.5 881.98,-247.5 881.98,-217.5 730.231,-217.5"/>
<text text-anchor="start" x="738.231" y="-234.7" font-family="Helvetica,sans-Serif" font-size="11.00">model_domain::set_method</text>
<text text-anchor="middle" x="806.106" y="-223.7" font-family="Helvetica,sans-Serif" font-size="11.00">_pointers_sub</text>
</a>
</g>
</g>
<!-- Node10&#45;&gt;Node11 -->
<g id="edge10" class="edge"><title>Node10&#45;&gt;Node11</title>
<path fill="none" stroke="midnightblue" d="M686.274,-232.5C700.541,-232.5 715.566,-232.5 729.952,-232.5"/>
<polygon fill="midnightblue" stroke="midnightblue" points="686.039,-229 676.039,-232.5 686.039,-236 686.039,-229"/>
</g>
<!-- Node13 -->
<g id="node13" class="node"><title>Node13</title>
<g id="a_node13"><a xlink:href="namespacemodel__domain.html#ae57b872047925a2673ad1c369a759d42" target="_top" xlink:title="model_domain::model\l_initialize_growing\l_season">
<polygon fill="white" stroke="black" points="551.654,-157 551.654,-198 675.881,-198 675.881,-157 551.654,-157"/>
<text text-anchor="start" x="559.654" y="-185.2" font-family="Helvetica,sans-Serif" font-size="11.00">model_domain::model</text>
<text text-anchor="start" x="559.654" y="-174.2" font-family="Helvetica,sans-Serif" font-size="11.00">_initialize_growing</text>
<text text-anchor="middle" x="613.767" y="-163.2" font-family="Helvetica,sans-Serif" font-size="11.00">_season</text>
</a>
</g>
</g>
<!-- Node12&#45;&gt;Node13 -->
<g id="edge12" class="edge"><title>Node12&#45;&gt;Node13</title>
<path fill="none" stroke="midnightblue" d="M496.582,-177.5C514.908,-177.5 534.117,-177.5 551.519,-177.5"/>
<polygon fill="midnightblue" stroke="midnightblue" points="496.51,-174 486.51,-177.5 496.51,-181 496.51,-174"/>
</g>
<!-- Node17 -->
<g id="node17" class="node"><title>Node17</title>
<g id="a_node17"><a xlink:href="namespacenetcdf4__support.html#a8be734b602e654816c17b5e27d0fbffb" target="_top" xlink:title="netcdf4_support::netcdf\l_open_and_prepare_for\l_merging">
<polygon fill="white" stroke="black" points="348.882,-102 348.882,-143 482.927,-143 482.927,-102 348.882,-102"/>
<text text-anchor="start" x="356.882" y="-130.2" font-family="Helvetica,sans-Serif" font-size="11.00">netcdf4_support::netcdf</text>
<text text-anchor="start" x="356.882" y="-119.2" font-family="Helvetica,sans-Serif" font-size="11.00">_open_and_prepare_for</text>
<text text-anchor="middle" x="415.905" y="-108.2" font-family="Helvetica,sans-Serif" font-size="11.00">_merging</text>
</a>
</g>
</g>
<!-- Node16&#45;&gt;Node17 -->
<g id="edge16" class="edge"><title>Node16&#45;&gt;Node17</title>
<path fill="none" stroke="midnightblue" d="M297.807,-102.75C314.495,-105.565 332.157,-108.544 348.564,-111.311"/>
<polygon fill="midnightblue" stroke="midnightblue" points="298.004,-99.2342 287.561,-101.022 296.84,-106.137 298.004,-99.2342"/>
</g>
<!-- Node18 -->
<g id="node18" class="node"><title>Node18</title>
<g id="a_node18"><a xlink:href="namespacenetcdf4__support.html#a137d06ed171ec8d77e5af2fbb44b0c4c" target="_top" xlink:title="netcdf4_support::netcdf\l_open_and_prepare_as_input">
<polygon fill="white" stroke="black" points="334.506,-52.5 334.506,-82.5 497.303,-82.5 497.303,-52.5 334.506,-52.5"/>
<text text-anchor="start" x="342.506" y="-69.7" font-family="Helvetica,sans-Serif" font-size="11.00">netcdf4_support::netcdf</text>
<text text-anchor="middle" x="415.905" y="-58.7" font-family="Helvetica,sans-Serif" font-size="11.00">_open_and_prepare_as_input</text>
</a>
</g>
</g>
<!-- Node16&#45;&gt;Node18 -->
<g id="edge17" class="edge"><title>Node16&#45;&gt;Node18</title>
<path fill="none" stroke="midnightblue" d="M297.499,-81.7324C309.494,-80.2783 322,-78.7623 334.187,-77.2849"/>
<polygon fill="midnightblue" stroke="midnightblue" points="297.067,-78.259 287.561,-82.9371 297.909,-85.2081 297.067,-78.259"/>
</g>
<!-- Node22 -->
<g id="node22" class="node"><title>Node22</title>
<g id="a_node22"><a xlink:href="namespacenetcdf4__support.html#a7b3b3cf3aab614eb336e12694c5d76ef" target="_top" xlink:title="netcdf4_support::netcdf\l_open_file">
<polygon fill="white" stroke="black" points="350.42,-3.5 350.42,-33.5 481.389,-33.5 481.389,-3.5 350.42,-3.5"/>
<text text-anchor="start" x="358.42" y="-20.7" font-family="Helvetica,sans-Serif" font-size="11.00">netcdf4_support::netcdf</text>
<text text-anchor="middle" x="415.905" y="-9.7" font-family="Helvetica,sans-Serif" font-size="11.00">_open_file</text>
</a>
</g>
</g>
<!-- Node16&#45;&gt;Node22 -->
<g id="edge22" class="edge"><title>Node16&#45;&gt;Node22</title>
<path fill="none" stroke="midnightblue" d="M284.204,-71.7767C289.102,-69.8016 293.927,-67.7038 298.506,-65.5 315.614,-57.2664 317.242,-50.403 334.506,-42.5 341.658,-39.2258 349.37,-36.2651 357.088,-33.6312"/>
<polygon fill="midnightblue" stroke="midnightblue" points="282.814,-68.5611 274.739,-75.4194 285.329,-75.0939 282.814,-68.5611"/>
</g>
<!-- Node19 -->
<g id="node19" class="node"><title>Node19</title>
<g id="a_node19"><a xlink:href="namespacedata__catalog__entry.html#aeb285131f87ed64deba0a9041a9c6405" target="_top" xlink:title="data_catalog_entry\l::getvalues_dynamic\l_netcdf_sub">
<polygon fill="white" stroke="black" points="555.628,-50 555.628,-91 671.906,-91 671.906,-50 555.628,-50"/>
<text text-anchor="start" x="563.628" y="-78.2" font-family="Helvetica,sans-Serif" font-size="11.00">data_catalog_entry</text>
<text text-anchor="start" x="563.628" y="-67.2" font-family="Helvetica,sans-Serif" font-size="11.00">::getvalues_dynamic</text>
<text text-anchor="middle" x="613.767" y="-56.2" font-family="Helvetica,sans-Serif" font-size="11.00">_netcdf_sub</text>
</a>
</g>
</g>
<!-- Node18&#45;&gt;Node19 -->
<g id="edge18" class="edge"><title>Node18&#45;&gt;Node19</title>
<path fill="none" stroke="midnightblue" d="M507.55,-68.8884C523.907,-69.1389 540.537,-69.3937 555.6,-69.6244"/>
<polygon fill="midnightblue" stroke="midnightblue" points="507.47,-65.3869 497.417,-68.7332 507.363,-72.386 507.47,-65.3869"/>
</g>
<!-- Node21 -->
<g id="node21" class="node"><title>Node21</title>
<g id="a_node21"><a xlink:href="namespacedata__catalog__entry.html#ac3e1f0d9d9e146fbb77c0084e1e9fc14" target="_top" xlink:title="data_catalog_entry\l::getvalues_static_netcdf_sub">
<polygon fill="white" stroke="black" points="533.303,-0.5 533.303,-30.5 694.231,-30.5 694.231,-0.5 533.303,-0.5"/>
<text text-anchor="start" x="541.303" y="-17.7" font-family="Helvetica,sans-Serif" font-size="11.00">data_catalog_entry</text>
<text text-anchor="middle" x="613.767" y="-6.7" font-family="Helvetica,sans-Serif" font-size="11.00">::getvalues_static_netcdf_sub</text>
</a>
</g>
</g>
<!-- Node18&#45;&gt;Node21 -->
<g id="edge20" class="edge"><title>Node18&#45;&gt;Node21</title>
<path fill="none" stroke="midnightblue" d="M483.505,-49.8182C507.15,-43.5405 533.519,-36.5397 556.243,-30.5068"/>
<polygon fill="midnightblue" stroke="midnightblue" points="482.323,-46.5105 473.556,-52.4594 484.119,-53.2762 482.323,-46.5105"/>
</g>
<!-- Node20 -->
<g id="node20" class="node"><title>Node20</title>
<g id="a_node20"><a xlink:href="namespacedata__catalog__entry.html#a9e0a89ab19a5bfd61f2dfb8265648234" target="_top" xlink:title="data_catalog_entry\l::getvalues_sub">
<polygon fill="white" stroke="black" points="751.321,-28.5 751.321,-58.5 860.891,-58.5 860.891,-28.5 751.321,-28.5"/>
<text text-anchor="start" x="759.321" y="-45.7" font-family="Helvetica,sans-Serif" font-size="11.00">data_catalog_entry</text>
<text text-anchor="middle" x="806.106" y="-34.7" font-family="Helvetica,sans-Serif" font-size="11.00">::getvalues_sub</text>
</a>
</g>
</g>
<!-- Node19&#45;&gt;Node20 -->
<g id="edge19" class="edge"><title>Node19&#45;&gt;Node20</title>
<path fill="none" stroke="midnightblue" d="M682.321,-60.9173C704.887,-57.7163 729.721,-54.1936 751.115,-51.1588"/>
<polygon fill="midnightblue" stroke="midnightblue" points="681.543,-57.4926 672.133,-62.3625 682.526,-64.4233 681.543,-57.4926"/>
</g>
<!-- Node21&#45;&gt;Node20 -->
<g id="edge21" class="edge"><title>Node21&#45;&gt;Node20</title>
<path fill="none" stroke="midnightblue" d="M704.32,-28.6738C720.348,-31.0315 736.588,-33.4206 751.215,-35.5723"/>
<polygon fill="midnightblue" stroke="midnightblue" points="704.788,-25.205 694.385,-27.2123 703.769,-32.1305 704.788,-25.205"/>
</g>
<!-- Node22&#45;&gt;Node19 -->
<g id="edge23" class="edge"><title>Node22&#45;&gt;Node19</title>
<path fill="none" stroke="midnightblue" d="M483.416,-36.1584C506.85,-42.3797 532.967,-49.3137 555.564,-55.3131"/>
<polygon fill="midnightblue" stroke="midnightblue" points="484.119,-32.7238 473.556,-33.5406 482.323,-39.4895 484.119,-32.7238"/>
</g>
<!-- Node22&#45;&gt;Node21 -->
<g id="edge24" class="edge"><title>Node22&#45;&gt;Node21</title>
<path fill="none" stroke="midnightblue" d="M491.788,-17.353C505.319,-17.1458 519.472,-16.929 533.133,-16.7197"/>
<polygon fill="midnightblue" stroke="midnightblue" points="491.525,-13.8565 481.58,-17.5094 491.633,-20.8557 491.525,-13.8565"/>
</g>
</g>
</svg>
        <g id="navigator" transform="translate(0 0)" fill="#404254">
                <rect fill="#f2f5e9" fill-opacity="0.5" stroke="#606060" stroke-width=".5" x="0" y="0" width="60" height="60"/>
                <use id="zoomplus" xlink:href="#zoomPlus" x="17" y="9" onmousedown="handleZoom(evt,'in')"/>
                <use id="zoomminus" xlink:href="#zoomMin" x="42" y="9" onmousedown="handleZoom(evt,'out')"/>
                <use id="reset" xlink:href="#resetDef" x="30" y="36" onmousedown="handleReset()"/>
                <g id="arrowUp" xlink:href="#dirArrow" transform="translate(30 24)" onmousedown="handlePan(0,-1)">
                  <use xlink:href="#rim" fill="#404040">
                        <set attributeName="fill" to="#808080" begin="arrowUp.mouseover" end="arrowUp.mouseout"/>
                  </use>
                  <path fill="none" stroke="white" stroke-width="1.5" d="M0,-3.0v7 M-2.5,-0.5L0,-3.0L2.5,-0.5"/>
                </g>
                <g id="arrowRight" xlink:href="#dirArrow" transform="rotate(90) translate(36 -43)" onmousedown="handlePan(1,0)">
                  <use xlink:href="#rim" fill="#404040">
                        <set attributeName="fill" to="#808080" begin="arrowRight.mouseover" end="arrowRight.mouseout"/>
                  </use>
                  <path fill="none" stroke="white" stroke-width="1.5" d="M0,-3.0v7 M-2.5,-0.5L0,-3.0L2.5,-0.5"/>
                </g>
                <g id="arrowDown" xlink:href="#dirArrow" transform="rotate(180) translate(-30 -48)" onmousedown="handlePan(0,1)">
                  <use xlink:href="#rim" fill="#404040">
                        <set attributeName="fill" to="#808080" begin="arrowDown.mouseover" end="arrowDown.mouseout"/>
                  </use>
                  <path fill="none" stroke="white" stroke-width="1.5" d="M0,-3.0v7 M-2.5,-0.5L0,-3.0L2.5,-0.5"/>
                </g>
                <g id="arrowLeft" xlink:href="#dirArrow" transform="rotate(270) translate(-36 17)" onmousedown="handlePan(-1,0)">
                  <use xlink:href="#rim" fill="#404040">
                        <set attributeName="fill" to="#808080" begin="arrowLeft.mouseover" end="arrowLeft.mouseout"/>
                  </use>
                  <path fill="none" stroke="white" stroke-width="1.5" d="M0,-3.0v7 M-2.5,-0.5L0,-3.0L2.5,-0.5"/>
                </g>
        </g>
        <svg viewBox="0 0 15 15" width="100%" height="30px" preserveAspectRatio="xMaxYMin meet">
         <g id="arrow_out" transform="scale(0.3 0.3)">
          <a xlink:href="namespacedatetime_a9ac1a0a808a83a072ebc08cf0b3b4d8a_icgraph_org.svg" target="_base">
           <rect id="button" ry="5" rx="5" y="6" x="6" height="38" width="38"
                fill="#f2f5e9" fill-opacity="0.5" stroke="#606060" stroke-width="1.0"/>
           <path id="arrow"
             d="M 11.500037,31.436501 C 11.940474,20.09759 22.043105,11.32322 32.158766,21.979434 L 37.068811,17.246167 C 37.068811,17.246167 37.088388,32 37.088388,32 L 22.160133,31.978069 C 22.160133,31.978069 26.997745,27.140456 26.997745,27.140456 C 18.528582,18.264221 13.291696,25.230495 11.500037,31.436501 z"
             style="fill:#404040;"/>
          </a>
         </g>
        </svg>
</svg>
