<?xml version="1.0" encoding="UTF-8" standalone="no"?>
<!DOCTYPE svg PUBLIC "-//W3C//DTD SVG 1.1//EN"
 "http://www.w3.org/Graphics/SVG/1.1/DTD/svg11.dtd">
<!-- Generated by graphviz version 2.38.0 (20140413.2041)
 -->
<!-- Title: grid::grid_read Pages: 1 -->
<svg width="493pt" height="66pt"
 viewBox="0.00 0.00 493.04 66.00" xmlns="http://www.w3.org/2000/svg" xmlns:xlink="http://www.w3.org/1999/xlink">
<g id="graph0" class="graph" transform="scale(1 1) rotate(0) translate(4 62)">
<title>grid::grid_read</title>
<polygon fill="white" stroke="none" points="-4,4 -4,-62 489.036,-62 489.036,4 -4,4"/>
<!-- Node28 -->
<g id="node1" class="node"><title>Node28</title>
<polygon fill="#bfbfbf" stroke="black" points="0,-19.5 0,-38.5 86.9307,-38.5 86.9307,-19.5 0,-19.5"/>
<text text-anchor="middle" x="43.4653" y="-25.7" font-family="Helvetica,sans-Serif" font-size="11.00">grid::grid_read</text>
</g>
<!-- Node29 -->
<g id="node2" class="node"><title>Node29</title>
<g id="a_node2"><a xlink:href="namespacegrid.html#a1244933daa130a43754e6e0b1f29a4ba" target="_top" xlink:title="grid::grid_readarcgrid_fn">
<polygon fill="white" stroke="black" points="129.349,-38.5 129.349,-57.5 265.194,-57.5 265.194,-38.5 129.349,-38.5"/>
<text text-anchor="middle" x="197.272" y="-44.7" font-family="Helvetica,sans-Serif" font-size="11.00">grid::grid_readarcgrid_fn</text>
</a>
</g>
</g>
<!-- Node28&#45;&gt;Node29 -->
<g id="edge1" class="edge"><title>Node28&#45;&gt;Node29</title>
<path fill="none" stroke="midnightblue" d="M87.1559,-34.3431C97.1601,-35.5952 108.123,-36.9674 119.121,-38.3439"/>
<polygon fill="midnightblue" stroke="midnightblue" points="118.847,-41.8369 129.205,-39.6059 119.717,-34.891 118.847,-41.8369"/>
</g>
<!-- Node31 -->
<g id="node4" class="node"><title>Node31</title>
<g id="a_node4"><a xlink:href="namespacegrid.html#ad5fd78ff423561891920ae052dc9ccf7" target="_top" xlink:title="grid::grid_readsurfergrid_fn">
<polygon fill="white" stroke="black" points="122.931,-0.5 122.931,-19.5 271.613,-19.5 271.613,-0.5 122.931,-0.5"/>
<text text-anchor="middle" x="197.272" y="-6.7" font-family="Helvetica,sans-Serif" font-size="11.00">grid::grid_readsurfergrid_fn</text>
</a>
</g>
</g>
<!-- Node28&#45;&gt;Node31 -->
<g id="edge3" class="edge"><title>Node28&#45;&gt;Node31</title>
<path fill="none" stroke="midnightblue" d="M87.1559,-23.6569C95.2479,-22.6441 103.967,-21.5528 112.825,-20.4441"/>
<polygon fill="midnightblue" stroke="midnightblue" points="113.371,-23.9032 122.859,-19.1884 112.501,-16.9574 113.371,-23.9032"/>
</g>
<!-- Node30 -->
<g id="node3" class="node"><title>Node30</title>
<g id="a_node3"><a xlink:href="namespacegrid.html#a16412abb2c65185817c6fa21595b05aa" target="_top" xlink:title="grid::grid_checkintegergridvalues">
<polygon fill="white" stroke="black" points="307.613,-19.5 307.613,-38.5 485.036,-38.5 485.036,-19.5 307.613,-19.5"/>
<text text-anchor="middle" x="396.324" y="-25.7" font-family="Helvetica,sans-Serif" font-size="11.00">grid::grid_checkintegergridvalues</text>
</a>
</g>
</g>
<!-- Node29&#45;&gt;Node30 -->
<g id="edge2" class="edge"><title>Node29&#45;&gt;Node30</title>
<path fill="none" stroke="midnightblue" d="M265.26,-41.541C275.681,-40.5361 286.629,-39.4805 297.565,-38.4261"/>
<polygon fill="midnightblue" stroke="midnightblue" points="297.971,-41.9033 307.588,-37.4596 297.299,-34.9356 297.971,-41.9033"/>
</g>
<!-- Node31&#45;&gt;Node30 -->
<g id="edge4" class="edge"><title>Node31&#45;&gt;Node30</title>
<path fill="none" stroke="midnightblue" d="M271.647,-17.0749C280.062,-17.8863 288.74,-18.723 297.411,-19.5591"/>
<polygon fill="midnightblue" stroke="midnightblue" points="297.282,-23.0628 307.572,-20.5388 297.954,-16.0951 297.282,-23.0628"/>
</g>
</g>
</svg>
