<?xml version="1.0" encoding="UTF-8" standalone="no"?>
<!DOCTYPE svg PUBLIC "-//W3C//DTD SVG 1.1//EN"
 "http://www.w3.org/Graphics/SVG/1.1/DTD/svg11.dtd">
<!-- Generated by graphviz version 2.38.0 (20140413.2041)
 -->
<!-- Title: netcdf4_support::nf_get_variable_array_short Pages: 1 -->
<svg width="511pt" height="39pt"
 viewBox="0.00 0.00 511.42 39.00" xmlns="http://www.w3.org/2000/svg" xmlns:xlink="http://www.w3.org/1999/xlink">
<g id="graph0" class="graph" transform="scale(1 1) rotate(0) translate(4 35)">
<title>netcdf4_support::nf_get_variable_array_short</title>
<polygon fill="white" stroke="none" points="-4,4 -4,-35 507.416,-35 507.416,4 -4,4"/>
<!-- Node410 -->
<g id="node1" class="node"><title>Node410</title>
<polygon fill="#bfbfbf" stroke="black" points="0,-0.5 0,-30.5 143.8,-30.5 143.8,-0.5 0,-0.5"/>
<text text-anchor="start" x="8" y="-17.7" font-family="Helvetica,sans-Serif" font-size="11.00">netcdf4_support::nf</text>
<text text-anchor="middle" x="71.8999" y="-6.7" font-family="Helvetica,sans-Serif" font-size="11.00">_get_variable_array_short</text>
</g>
<!-- Node411 -->
<g id="node2" class="node"><title>Node411</title>
<g id="a_node2"><a xlink:href="namespacenetcdf4__support.html#ac8c7276a5849ae6d17ffef1787e3f234" target="_top" xlink:title="netcdf4_support::nf_trap">
<polygon fill="white" stroke="black" points="179.8,-6 179.8,-25 315.049,-25 315.049,-6 179.8,-6"/>
<text text-anchor="middle" x="247.424" y="-12.2" font-family="Helvetica,sans-Serif" font-size="11.00">netcdf4_support::nf_trap</text>
</a>
</g>
</g>
<!-- Node410&#45;&gt;Node411 -->
<g id="edge1" class="edge"><title>Node410&#45;&gt;Node411</title>
<path fill="none" stroke="midnightblue" d="M143.98,-15.5C152.364,-15.5 160.95,-15.5 169.411,-15.5"/>
<polygon fill="midnightblue" stroke="midnightblue" points="169.647,-19.0001 179.647,-15.5 169.647,-12.0001 169.647,-19.0001"/>
</g>
<!-- Node412 -->
<g id="node3" class="node"><title>Node412</title>
<g id="a_node3"><a xlink:href="namespaceconstants__and__conversions.html#ac13fba285229deab77131132e6f62caf" target="_top" xlink:title="constants_and_conversions\l::char_ptr_to_fortran_string">
<polygon fill="white" stroke="black" points="351.049,-0.5 351.049,-30.5 503.416,-30.5 503.416,-0.5 351.049,-0.5"/>
<text text-anchor="start" x="359.049" y="-17.7" font-family="Helvetica,sans-Serif" font-size="11.00">constants_and_conversions</text>
<text text-anchor="middle" x="427.232" y="-6.7" font-family="Helvetica,sans-Serif" font-size="11.00">::char_ptr_to_fortran_string</text>
</a>
</g>
</g>
<!-- Node411&#45;&gt;Node412 -->
<g id="edge2" class="edge"><title>Node411&#45;&gt;Node412</title>
<path fill="none" stroke="midnightblue" d="M315.139,-15.5C323.497,-15.5 332.134,-15.5 340.729,-15.5"/>
<polygon fill="midnightblue" stroke="midnightblue" points="340.779,-19.0001 350.779,-15.5 340.779,-12.0001 340.779,-19.0001"/>
</g>
</g>
</svg>
