<?xml version="1.0" encoding="UTF-8" standalone="no"?>
<!DOCTYPE svg PUBLIC "-//W3C//DTD SVG 1.1//EN"
 "http://www.w3.org/Graphics/SVG/1.1/DTD/svg11.dtd">
<!-- Generated by graphviz version 2.38.0 (20140413.2041)
 -->
<!-- Title: model_iterate::iterate_over_simulation_days Pages: 1 -->
<svg width="516pt" height="230pt"
 viewBox="0.00 0.00 516.26 230.00" xmlns="http://www.w3.org/2000/svg" xmlns:xlink="http://www.w3.org/1999/xlink">
<g id="graph0" class="graph" transform="scale(1 1) rotate(0) translate(4 226)">
<title>model_iterate::iterate_over_simulation_days</title>
<polygon fill="white" stroke="none" points="-4,4 -4,-226 512.26,-226 512.26,4 -4,4"/>
<!-- Node0 -->
<g id="node1" class="node"><title>Node0</title>
<polygon fill="#bfbfbf" stroke="black" points="0,-74 0,-104 128.508,-104 128.508,-74 0,-74"/>
<text text-anchor="start" x="8" y="-91.2" font-family="Helvetica,sans-Serif" font-size="11.00">model_iterate::iterate</text>
<text text-anchor="middle" x="64.2542" y="-80.2" font-family="Helvetica,sans-Serif" font-size="11.00">_over_simulation_days</text>
</g>
<!-- Node1 -->
<g id="node2" class="node"><title>Node1</title>
<g id="a_node2"><a xlink:href="namespacedaily__calculation.html#ac74b5b0ab616d2c459e1668bc36c1784" target="_top" xlink:title="daily_calculation::\lperform_daily_calculation">
<polygon fill="white" stroke="black" points="164.508,-96 164.508,-126 305.241,-126 305.241,-96 164.508,-96"/>
<text text-anchor="start" x="172.508" y="-113.2" font-family="Helvetica,sans-Serif" font-size="11.00">daily_calculation::</text>
<text text-anchor="middle" x="234.875" y="-102.2" font-family="Helvetica,sans-Serif" font-size="11.00">perform_daily_calculation</text>
</a>
</g>
</g>
<!-- Node0&#45;&gt;Node1 -->
<g id="edge1" class="edge"><title>Node0&#45;&gt;Node1</title>
<path fill="none" stroke="midnightblue" d="M128.522,-97.2546C136.918,-98.35 145.611,-99.4842 154.239,-100.61"/>
<polygon fill="midnightblue" stroke="midnightblue" points="153.947,-104.101 164.316,-101.925 154.853,-97.1602 153.947,-104.101"/>
</g>
<!-- Node6 -->
<g id="node7" class="node"><title>Node6</title>
<g id="a_node7"><a xlink:href="namespaceoutput.html#acb098f182892e57870d853725cb267dc" target="_top" xlink:title="output::write_output">
<polygon fill="white" stroke="black" points="178.564,-57.5 178.564,-76.5 291.185,-76.5 291.185,-57.5 178.564,-57.5"/>
<text text-anchor="middle" x="234.875" y="-63.7" font-family="Helvetica,sans-Serif" font-size="11.00">output::write_output</text>
</a>
</g>
</g>
<!-- Node0&#45;&gt;Node6 -->
<g id="edge6" class="edge"><title>Node0&#45;&gt;Node6</title>
<path fill="none" stroke="midnightblue" d="M128.522,-80.7454C141.628,-79.0354 155.46,-77.2308 168.635,-75.5118"/>
<polygon fill="midnightblue" stroke="midnightblue" points="169.097,-78.9814 178.56,-74.217 168.191,-72.0402 169.097,-78.9814"/>
</g>
<!-- Node2 -->
<g id="node3" class="node"><title>Node2</title>
<g id="a_node3"><a xlink:href="namespacemass__balance____impervious__surface.html#abb91d0c6c821510af2c4a21f6d0ab5bf" target="_top" xlink:title="mass_balance__impervious\l_surface::calculate_impervious\l_surface_mass_balance">
<polygon fill="white" stroke="black" points="341.241,-180.5 341.241,-221.5 508.26,-221.5 508.26,-180.5 341.241,-180.5"/>
<text text-anchor="start" x="349.241" y="-208.7" font-family="Helvetica,sans-Serif" font-size="11.00">mass_balance__impervious</text>
<text text-anchor="start" x="349.241" y="-197.7" font-family="Helvetica,sans-Serif" font-size="11.00">_surface::calculate_impervious</text>
<text text-anchor="middle" x="424.751" y="-186.7" font-family="Helvetica,sans-Serif" font-size="11.00">_surface_mass_balance</text>
</a>
</g>
</g>
<!-- Node1&#45;&gt;Node2 -->
<g id="edge2" class="edge"><title>Node1&#45;&gt;Node2</title>
<path fill="none" stroke="midnightblue" d="M259.535,-126.011C280.499,-138.935 312.2,-157.569 341.241,-171 345.32,-172.886 349.554,-174.736 353.853,-176.533"/>
<polygon fill="midnightblue" stroke="midnightblue" points="352.751,-179.863 363.333,-180.375 355.38,-173.375 352.751,-179.863"/>
</g>
<!-- Node3 -->
<g id="node4" class="node"><title>Node3</title>
<g id="a_node4"><a xlink:href="namespacemass__balance____interception.html#a004c469e89dbfd2c40a7af3204905fcb" target="_top" xlink:title="mass_balance__interception\l::calculate_interception\l_mass_balance">
<polygon fill="white" stroke="black" points="346.733,-120.5 346.733,-161.5 502.768,-161.5 502.768,-120.5 346.733,-120.5"/>
<text text-anchor="start" x="354.733" y="-148.7" font-family="Helvetica,sans-Serif" font-size="11.00">mass_balance__interception</text>
<text text-anchor="start" x="354.733" y="-137.7" font-family="Helvetica,sans-Serif" font-size="11.00">::calculate_interception</text>
<text text-anchor="middle" x="424.751" y="-126.7" font-family="Helvetica,sans-Serif" font-size="11.00">_mass_balance</text>
</a>
</g>
</g>
<!-- Node1&#45;&gt;Node3 -->
<g id="edge3" class="edge"><title>Node1&#45;&gt;Node3</title>
<path fill="none" stroke="midnightblue" d="M305.299,-122.086C315.518,-123.717 326.152,-125.415 336.672,-127.095"/>
<polygon fill="midnightblue" stroke="midnightblue" points="336.278,-130.577 346.704,-128.697 337.381,-123.664 336.278,-130.577"/>
</g>
<!-- Node4 -->
<g id="node5" class="node"><title>Node4</title>
<g id="a_node5"><a xlink:href="namespacemass__balance____snow.html#a27b03800b1294c02771c841bde512909" target="_top" xlink:title="mass_balance__snow\l::calculate_snow_mass\l_balance">
<polygon fill="white" stroke="black" points="359.89,-60.5 359.89,-101.5 489.612,-101.5 489.612,-60.5 359.89,-60.5"/>
<text text-anchor="start" x="367.89" y="-88.7" font-family="Helvetica,sans-Serif" font-size="11.00">mass_balance__snow</text>
<text text-anchor="start" x="367.89" y="-77.7" font-family="Helvetica,sans-Serif" font-size="11.00">::calculate_snow_mass</text>
<text text-anchor="middle" x="424.751" y="-66.7" font-family="Helvetica,sans-Serif" font-size="11.00">_balance</text>
</a>
</g>
</g>
<!-- Node1&#45;&gt;Node4 -->
<g id="edge4" class="edge"><title>Node1&#45;&gt;Node4</title>
<path fill="none" stroke="midnightblue" d="M305.299,-99.9143C319.737,-97.6089 335.006,-95.1708 349.606,-92.8394"/>
<polygon fill="midnightblue" stroke="midnightblue" points="350.266,-96.2784 359.589,-91.2453 349.162,-89.366 350.266,-96.2784"/>
</g>
<!-- Node5 -->
<g id="node6" class="node"><title>Node5</title>
<g id="a_node6"><a xlink:href="namespacemass__balance____soil.html#a084c7ffaa89c8e868d06076b2488a9a8" target="_top" xlink:title="mass_balance__soil\l::calculate_soil_mass\l_balance">
<polygon fill="white" stroke="black" points="364.477,-0.5 364.477,-41.5 485.025,-41.5 485.025,-0.5 364.477,-0.5"/>
<text text-anchor="start" x="372.477" y="-28.7" font-family="Helvetica,sans-Serif" font-size="11.00">mass_balance__soil</text>
<text text-anchor="start" x="372.477" y="-17.7" font-family="Helvetica,sans-Serif" font-size="11.00">::calculate_soil_mass</text>
<text text-anchor="middle" x="424.751" y="-6.7" font-family="Helvetica,sans-Serif" font-size="11.00">_balance</text>
</a>
</g>
</g>
<!-- Node1&#45;&gt;Node5 -->
<g id="edge5" class="edge"><title>Node1&#45;&gt;Node5</title>
<path fill="none" stroke="midnightblue" d="M285.97,-95.8672C292.664,-93.0137 299.271,-89.7316 305.241,-86 324.164,-74.1726 322.335,-62.8541 341.241,-51 345.569,-48.2863 350.178,-45.769 354.921,-43.4432"/>
<polygon fill="midnightblue" stroke="midnightblue" points="356.534,-46.5539 364.166,-39.2051 353.617,-40.1907 356.534,-46.5539"/>
</g>
</g>
</svg>
