<?xml version="1.0" encoding="UTF-8" standalone="no"?>
<!DOCTYPE svg PUBLIC "-//W3C//DTD SVG 1.1//EN"
 "http://www.w3.org/Graphics/SVG/1.1/DTD/svg11.dtd">
<!-- Generated by graphviz version 2.38.0 (20140413.2041)
 -->
<!-- Title: exceptions::check_for_fatal_warnings Pages: 1 -->
<svg width="396pt" height="39pt"
 viewBox="0.00 0.00 395.80 39.00" xmlns="http://www.w3.org/2000/svg" xmlns:xlink="http://www.w3.org/1999/xlink">
<g id="graph0" class="graph" transform="scale(1 1) rotate(0) translate(4 35)">
<title>exceptions::check_for_fatal_warnings</title>
<polygon fill="white" stroke="none" points="-4,4 -4,-35 391.803,-35 391.803,4 -4,4"/>
<!-- Node1 -->
<g id="node1" class="node"><title>Node1</title>
<polygon fill="#bfbfbf" stroke="black" points="0,-0.5 0,-30.5 122.391,-30.5 122.391,-0.5 0,-0.5"/>
<text text-anchor="start" x="8" y="-17.7" font-family="Helvetica,sans-Serif" font-size="11.00">exceptions::check_for</text>
<text text-anchor="middle" x="61.1953" y="-6.7" font-family="Helvetica,sans-Serif" font-size="11.00">_fatal_warnings</text>
</g>
<!-- Node2 -->
<g id="node2" class="node"><title>Node2</title>
<g id="a_node2"><a xlink:href="namespacemodel__initialize.html#a46370bf2e9ea112d1f219277ba7fd3ce" target="_top" xlink:title="model_initialize::initialize_all">
<polygon fill="white" stroke="black" points="158.391,-6 158.391,-25 311.96,-25 311.96,-6 158.391,-6"/>
<text text-anchor="middle" x="235.176" y="-12.2" font-family="Helvetica,sans-Serif" font-size="11.00">model_initialize::initialize_all</text>
</a>
</g>
</g>
<!-- Node1&#45;&gt;Node2 -->
<g id="edge1" class="edge"><title>Node1&#45;&gt;Node2</title>
<path fill="none" stroke="midnightblue" d="M132.867,-15.5C141.195,-15.5 149.721,-15.5 158.119,-15.5"/>
<polygon fill="midnightblue" stroke="midnightblue" points="132.829,-12.0001 122.829,-15.5 132.829,-19.0001 132.829,-12.0001"/>
</g>
<!-- Node3 -->
<g id="node3" class="node"><title>Node3</title>
<g id="a_node3"><a xlink:href="main_8F90.html#a8ec2266d83cd6c0b762cbcbc92c0af3d" target="_top" xlink:title="Main program which references all other modules; execution begins here. ">
<polygon fill="white" stroke="black" points="347.96,-6 347.96,-25 387.803,-25 387.803,-6 347.96,-6"/>
<text text-anchor="middle" x="367.882" y="-12.2" font-family="Helvetica,sans-Serif" font-size="11.00">main</text>
</a>
</g>
</g>
<!-- Node2&#45;&gt;Node3 -->
<g id="edge2" class="edge"><title>Node2&#45;&gt;Node3</title>
<path fill="none" stroke="midnightblue" d="M322.3,-15.5C331.795,-15.5 340.637,-15.5 347.902,-15.5"/>
<polygon fill="midnightblue" stroke="midnightblue" points="322.208,-12.0001 312.208,-15.5 322.208,-19.0001 322.208,-12.0001"/>
</g>
</g>
</svg>
