<?xml version="1.0" encoding="UTF-8" standalone="no"?>
<!DOCTYPE svg PUBLIC "-//W3C//DTD SVG 1.1//EN"
 "http://www.w3.org/Graphics/SVG/1.1/DTD/svg11.dtd">
<!-- Generated by graphviz version 2.38.0 (20140413.2041)
 -->
<!-- Title: netcdf4_support::nf_get_variable_array_as_vector_int Pages: 1 -->
<svg width="795pt" height="100pt"
 viewBox="0.00 0.00 794.60 99.50" xmlns="http://www.w3.org/2000/svg" xmlns:xlink="http://www.w3.org/1999/xlink">
<g id="graph0" class="graph" transform="scale(1 1) rotate(0) translate(4 95.5)">
<title>netcdf4_support::nf_get_variable_array_as_vector_int</title>
<polygon fill="white" stroke="none" points="-4,4 -4,-95.5 790.601,-95.5 790.601,4 -4,4"/>
<!-- Node426 -->
<g id="node1" class="node"><title>Node426</title>
<polygon fill="#bfbfbf" stroke="black" points="0,-22 0,-63 113.228,-63 113.228,-22 0,-22"/>
<text text-anchor="start" x="8" y="-50.2" font-family="Helvetica,sans-Serif" font-size="11.00">netcdf4_support::nf</text>
<text text-anchor="start" x="8" y="-39.2" font-family="Helvetica,sans-Serif" font-size="11.00">_get_variable_array</text>
<text text-anchor="middle" x="56.6138" y="-28.2" font-family="Helvetica,sans-Serif" font-size="11.00">_as_vector_int</text>
</g>
<!-- Node427 -->
<g id="node2" class="node"><title>Node427</title>
<g id="a_node2"><a xlink:href="namespacenetcdf4__support.html#a03478999542c85e3a93b618472e57409" target="_top" xlink:title="netcdf4_support::nf\l_get_variable_slice_int">
<polygon fill="white" stroke="black" points="149.228,-27.5 149.228,-57.5 277.134,-57.5 277.134,-27.5 149.228,-27.5"/>
<text text-anchor="start" x="157.228" y="-44.7" font-family="Helvetica,sans-Serif" font-size="11.00">netcdf4_support::nf</text>
<text text-anchor="middle" x="213.181" y="-33.7" font-family="Helvetica,sans-Serif" font-size="11.00">_get_variable_slice_int</text>
</a>
</g>
</g>
<!-- Node426&#45;&gt;Node427 -->
<g id="edge1" class="edge"><title>Node426&#45;&gt;Node427</title>
<path fill="none" stroke="midnightblue" d="M123.612,-42.5C132.068,-42.5 140.709,-42.5 149.117,-42.5"/>
<polygon fill="midnightblue" stroke="midnightblue" points="123.416,-39.0001 113.416,-42.5 123.416,-46.0001 123.416,-39.0001"/>
</g>
<!-- Node428 -->
<g id="node3" class="node"><title>Node428</title>
<g id="a_node3"><a xlink:href="namespacenetcdf4__support.html#a997d4ec63d37cb56378ab434c9b3075b" target="_top" xlink:title="netcdf4_support::netcdf\l_get_variable_slice">
<polygon fill="white" stroke="black" points="313.134,-27.5 313.134,-57.5 444.103,-57.5 444.103,-27.5 313.134,-27.5"/>
<text text-anchor="start" x="321.134" y="-44.7" font-family="Helvetica,sans-Serif" font-size="11.00">netcdf4_support::netcdf</text>
<text text-anchor="middle" x="378.618" y="-33.7" font-family="Helvetica,sans-Serif" font-size="11.00">_get_variable_slice</text>
</a>
</g>
</g>
<!-- Node427&#45;&gt;Node428 -->
<g id="edge2" class="edge"><title>Node427&#45;&gt;Node428</title>
<path fill="none" stroke="midnightblue" d="M287.606,-42.5C296.066,-42.5 304.646,-42.5 312.978,-42.5"/>
<polygon fill="midnightblue" stroke="midnightblue" points="287.37,-39.0001 277.37,-42.5 287.37,-46.0001 287.37,-39.0001"/>
</g>
<!-- Node429 -->
<g id="node4" class="node"><title>Node429</title>
<g id="a_node4"><a xlink:href="namespacedata__catalog__entry.html#aeb285131f87ed64deba0a9041a9c6405" target="_top" xlink:title="data_catalog_entry\l::getvalues_dynamic\l_netcdf_sub">
<polygon fill="white" stroke="black" points="502.427,-50 502.427,-91 618.706,-91 618.706,-50 502.427,-50"/>
<text text-anchor="start" x="510.427" y="-78.2" font-family="Helvetica,sans-Serif" font-size="11.00">data_catalog_entry</text>
<text text-anchor="start" x="510.427" y="-67.2" font-family="Helvetica,sans-Serif" font-size="11.00">::getvalues_dynamic</text>
<text text-anchor="middle" x="560.567" y="-56.2" font-family="Helvetica,sans-Serif" font-size="11.00">_netcdf_sub</text>
</a>
</g>
</g>
<!-- Node428&#45;&gt;Node429 -->
<g id="edge3" class="edge"><title>Node428&#45;&gt;Node429</title>
<path fill="none" stroke="midnightblue" d="M454.222,-54.1084C470.28,-56.607 487.012,-59.2105 502.288,-61.5874"/>
<polygon fill="midnightblue" stroke="midnightblue" points="454.749,-50.6483 444.33,-52.5691 453.673,-57.5651 454.749,-50.6483"/>
</g>
<!-- Node431 -->
<g id="node6" class="node"><title>Node431</title>
<g id="a_node6"><a xlink:href="namespacedata__catalog__entry.html#ac3e1f0d9d9e146fbb77c0084e1e9fc14" target="_top" xlink:title="data_catalog_entry\l::getvalues_static_netcdf_sub">
<polygon fill="white" stroke="black" points="480.103,-0.5 480.103,-30.5 641.031,-30.5 641.031,-0.5 480.103,-0.5"/>
<text text-anchor="start" x="488.103" y="-17.7" font-family="Helvetica,sans-Serif" font-size="11.00">data_catalog_entry</text>
<text text-anchor="middle" x="560.567" y="-6.7" font-family="Helvetica,sans-Serif" font-size="11.00">::getvalues_static_netcdf_sub</text>
</a>
</g>
</g>
<!-- Node428&#45;&gt;Node431 -->
<g id="edge5" class="edge"><title>Node428&#45;&gt;Node431</title>
<path fill="none" stroke="midnightblue" d="M454.232,-31.3048C462.757,-30.0256 471.473,-28.7179 480.059,-27.4296"/>
<polygon fill="midnightblue" stroke="midnightblue" points="453.7,-27.8454 444.33,-32.7905 454.738,-34.7679 453.7,-27.8454"/>
</g>
<!-- Node430 -->
<g id="node5" class="node"><title>Node430</title>
<g id="a_node5"><a xlink:href="namespacedata__catalog__entry.html#a9e0a89ab19a5bfd61f2dfb8265648234" target="_top" xlink:title="data_catalog_entry\l::getvalues_sub">
<polygon fill="white" stroke="black" points="677.031,-27.5 677.031,-57.5 786.601,-57.5 786.601,-27.5 677.031,-27.5"/>
<text text-anchor="start" x="685.031" y="-44.7" font-family="Helvetica,sans-Serif" font-size="11.00">data_catalog_entry</text>
<text text-anchor="middle" x="731.816" y="-33.7" font-family="Helvetica,sans-Serif" font-size="11.00">::getvalues_sub</text>
</a>
</g>
</g>
<!-- Node429&#45;&gt;Node430 -->
<g id="edge4" class="edge"><title>Node429&#45;&gt;Node430</title>
<path fill="none" stroke="midnightblue" d="M629.169,-59.3161C645.068,-56.6858 661.803,-53.9172 677.003,-51.4027"/>
<polygon fill="midnightblue" stroke="midnightblue" points="628.161,-55.9351 618.867,-61.0205 629.304,-62.8413 628.161,-55.9351"/>
</g>
<!-- Node431&#45;&gt;Node430 -->
<g id="edge6" class="edge"><title>Node431&#45;&gt;Node430</title>
<path fill="none" stroke="midnightblue" d="M651.373,-29.8267C659.999,-31.2028 668.553,-32.5674 676.675,-33.8631"/>
<polygon fill="midnightblue" stroke="midnightblue" points="651.662,-26.3285 641.235,-28.2094 650.559,-33.2411 651.662,-26.3285"/>
</g>
</g>
</svg>
