<?xml version="1.0" encoding="UTF-8" standalone="no"?>
<!DOCTYPE svg PUBLIC "-//W3C//DTD SVG 1.1//EN"
 "http://www.w3.org/Graphics/SVG/1.1/DTD/svg11.dtd">
<!-- Generated by graphviz version 2.38.0 (20140413.2041)
 -->
<!-- Title: dictionary::get_values_as_float_given_list_of_keys_sub Pages: 1 -->
<svg width="270pt" height="50pt"
 viewBox="0.00 0.00 270.46 50.00" xmlns="http://www.w3.org/2000/svg" xmlns:xlink="http://www.w3.org/1999/xlink">
<g id="graph0" class="graph" transform="scale(1 1) rotate(0) translate(4 46)">
<title>dictionary::get_values_as_float_given_list_of_keys_sub</title>
<polygon fill="white" stroke="none" points="-4,4 -4,-46 266.455,-46 266.455,4 -4,4"/>
<!-- Node52 -->
<g id="node1" class="node"><title>Node52</title>
<polygon fill="#bfbfbf" stroke="black" points="0,-0.5 0,-41.5 127.912,-41.5 127.912,-0.5 0,-0.5"/>
<text text-anchor="start" x="8" y="-28.7" font-family="Helvetica,sans-Serif" font-size="11.00">dictionary::get_values</text>
<text text-anchor="start" x="8" y="-17.7" font-family="Helvetica,sans-Serif" font-size="11.00">_as_float_given_list_of</text>
<text text-anchor="middle" x="63.9561" y="-6.7" font-family="Helvetica,sans-Serif" font-size="11.00">_keys_sub</text>
</g>
<!-- Node53 -->
<g id="node2" class="node"><title>Node53</title>
<g id="a_node2"><a xlink:href="namespaceexceptions.html#a84dd04476b06e0a398bfe6d106a82a4d" target="_top" xlink:title="exceptions::warn">
<polygon fill="white" stroke="black" points="163.912,-11.5 163.912,-30.5 262.455,-30.5 262.455,-11.5 163.912,-11.5"/>
<text text-anchor="middle" x="213.184" y="-17.7" font-family="Helvetica,sans-Serif" font-size="11.00">exceptions::warn</text>
</a>
</g>
</g>
<!-- Node52&#45;&gt;Node53 -->
<g id="edge1" class="edge"><title>Node52&#45;&gt;Node53</title>
<path fill="none" stroke="midnightblue" d="M128.248,-21C136.67,-21 145.276,-21 153.613,-21"/>
<polygon fill="midnightblue" stroke="midnightblue" points="153.619,-24.5001 163.619,-21 153.619,-17.5001 153.619,-24.5001"/>
</g>
</g>
</svg>
