<?xml version="1.0" encoding="UTF-8" standalone="no"?>
<!DOCTYPE svg PUBLIC "-//W3C//DTD SVG 1.1//EN"
 "http://www.w3.org/Graphics/SVG/1.1/DTD/svg11.dtd">
<!-- Generated by graphviz version 2.38.0 (20140413.2041)
 -->
<!-- Title: growing_degree_day::growing_degree_day_calculate Pages: 1 -->
<svg width="481pt" height="50pt"
 viewBox="0.00 0.00 480.83 50.00" xmlns="http://www.w3.org/2000/svg" xmlns:xlink="http://www.w3.org/1999/xlink">
<g id="graph0" class="graph" transform="scale(1 1) rotate(0) translate(4 46)">
<title>growing_degree_day::growing_degree_day_calculate</title>
<polygon fill="white" stroke="none" points="-4,4 -4,-46 476.833,-46 476.833,4 -4,4"/>
<!-- Node7 -->
<g id="node1" class="node"><title>Node7</title>
<polygon fill="#bfbfbf" stroke="black" points="0,-0.5 0,-41.5 124.856,-41.5 124.856,-0.5 0,-0.5"/>
<text text-anchor="start" x="8" y="-28.7" font-family="Helvetica,sans-Serif" font-size="11.00">growing_degree_day</text>
<text text-anchor="start" x="8" y="-17.7" font-family="Helvetica,sans-Serif" font-size="11.00">::growing_degree_day</text>
<text text-anchor="middle" x="62.428" y="-6.7" font-family="Helvetica,sans-Serif" font-size="11.00">_calculate</text>
</g>
<!-- Node8 -->
<g id="node2" class="node"><title>Node8</title>
<g id="a_node2"><a xlink:href="namespacemodel__domain.html#aba9e4716447f9ac55caf1655eda4fda5" target="_top" xlink:title="model_domain::model\l_calculate_gdd">
<polygon fill="white" stroke="black" points="160.856,-6 160.856,-36 285.083,-36 285.083,-6 160.856,-6"/>
<text text-anchor="start" x="168.856" y="-23.2" font-family="Helvetica,sans-Serif" font-size="11.00">model_domain::model</text>
<text text-anchor="middle" x="222.97" y="-12.2" font-family="Helvetica,sans-Serif" font-size="11.00">_calculate_gdd</text>
</a>
</g>
</g>
<!-- Node7&#45;&gt;Node8 -->
<g id="edge1" class="edge"><title>Node7&#45;&gt;Node8</title>
<path fill="none" stroke="midnightblue" d="M135.389,-21C143.826,-21 152.375,-21 160.649,-21"/>
<polygon fill="midnightblue" stroke="midnightblue" points="135.178,-17.5001 125.178,-21 135.178,-24.5001 135.178,-17.5001"/>
</g>
<!-- Node9 -->
<g id="node3" class="node"><title>Node9</title>
<g id="a_node3"><a xlink:href="namespacemodel__domain.html#aac78dbf26ba37cf86ebed4edd7acf89b" target="_top" xlink:title="model_domain::set_method\l_pointers_sub">
<polygon fill="white" stroke="black" points="321.083,-6 321.083,-36 472.833,-36 472.833,-6 321.083,-6"/>
<text text-anchor="start" x="329.083" y="-23.2" font-family="Helvetica,sans-Serif" font-size="11.00">model_domain::set_method</text>
<text text-anchor="middle" x="396.958" y="-12.2" font-family="Helvetica,sans-Serif" font-size="11.00">_pointers_sub</text>
</a>
</g>
</g>
<!-- Node8&#45;&gt;Node9 -->
<g id="edge2" class="edge"><title>Node8&#45;&gt;Node9</title>
<path fill="none" stroke="midnightblue" d="M295.28,-21C303.732,-21 312.379,-21 320.881,-21"/>
<polygon fill="midnightblue" stroke="midnightblue" points="295.091,-17.5001 285.091,-21 295.091,-24.5001 295.091,-17.5001"/>
</g>
</g>
</svg>
