<?xml version="1.0" encoding="UTF-8" standalone="no"?>
<!DOCTYPE svg PUBLIC "-//W3C//DTD SVG 1.1//EN"
 "http://www.w3.org/Graphics/SVG/1.1/DTD/svg11.dtd">
<!-- Generated by graphviz version 2.38.0 (20140413.2041)
 -->
<!-- Title: precipitation__method_of_fragments::read_fragments_sequence Pages: 1 -->
<svg width="303pt" height="50pt"
 viewBox="0.00 0.00 302.85 50.00" xmlns="http://www.w3.org/2000/svg" xmlns:xlink="http://www.w3.org/1999/xlink">
<g id="graph0" class="graph" transform="scale(1 1) rotate(0) translate(4 46)">
<title>precipitation__method_of_fragments::read_fragments_sequence</title>
<polygon fill="white" stroke="none" points="-4,4 -4,-46 298.854,-46 298.854,4 -4,4"/>
<!-- Node19 -->
<g id="node1" class="node"><title>Node19</title>
<polygon fill="#bfbfbf" stroke="black" points="0,-0.5 0,-41.5 169.474,-41.5 169.474,-0.5 0,-0.5"/>
<text text-anchor="start" x="8" y="-28.7" font-family="Helvetica,sans-Serif" font-size="11.00">precipitation__method</text>
<text text-anchor="start" x="8" y="-17.7" font-family="Helvetica,sans-Serif" font-size="11.00">_of_fragments::read_fragments</text>
<text text-anchor="middle" x="84.7368" y="-6.7" font-family="Helvetica,sans-Serif" font-size="11.00">_sequence</text>
</g>
<!-- Node20 -->
<g id="node2" class="node"><title>Node20</title>
<g id="a_node2"><a xlink:href="namespaceexceptions.html#a22a1bf2808fdc249e6b378ee3f221156" target="_top" xlink:title="exceptions::die">
<polygon fill="white" stroke="black" points="205.474,-11.5 205.474,-30.5 294.854,-30.5 294.854,-11.5 205.474,-11.5"/>
<text text-anchor="middle" x="250.164" y="-17.7" font-family="Helvetica,sans-Serif" font-size="11.00">exceptions::die</text>
</a>
</g>
</g>
<!-- Node19&#45;&gt;Node20 -->
<g id="edge1" class="edge"><title>Node19&#45;&gt;Node20</title>
<path fill="none" stroke="midnightblue" d="M169.844,-21C178.422,-21 186.966,-21 195.095,-21"/>
<polygon fill="midnightblue" stroke="midnightblue" points="195.143,-24.5001 205.143,-21 195.143,-17.5001 195.143,-24.5001"/>
</g>
</g>
</svg>
