<?xml version="1.0" encoding="UTF-8" standalone="no"?>
<!DOCTYPE svg PUBLIC "-//W3C//DTD SVG 1.1//EN"
 "http://www.w3.org/Graphics/SVG/1.1/DTD/svg11.dtd">
<!-- Generated by graphviz version 2.38.0 (20140413.2041)
 -->
<!-- Title: model_domain::model_dump_variables_by_cell Pages: 1 -->
<svg width="308pt" height="39pt"
 viewBox="0.00 0.00 308.36 39.00" xmlns="http://www.w3.org/2000/svg" xmlns:xlink="http://www.w3.org/1999/xlink">
<g id="graph0" class="graph" transform="scale(1 1) rotate(0) translate(4 35)">
<title>model_domain::model_dump_variables_by_cell</title>
<polygon fill="white" stroke="none" points="-4,4 -4,-35 304.359,-35 304.359,4 -4,4"/>
<!-- Node1 -->
<g id="node1" class="node"><title>Node1</title>
<polygon fill="#bfbfbf" stroke="black" points="0,-0.5 0,-30.5 140.131,-30.5 140.131,-0.5 0,-0.5"/>
<text text-anchor="start" x="8" y="-17.7" font-family="Helvetica,sans-Serif" font-size="11.00">model_domain::model</text>
<text text-anchor="middle" x="70.0657" y="-6.7" font-family="Helvetica,sans-Serif" font-size="11.00">_dump_variables_by_cell</text>
</g>
<!-- Node2 -->
<g id="node2" class="node"><title>Node2</title>
<g id="a_node2"><a xlink:href="namespacemodel__domain.html#a1d80ea806e23bbe4d5fd787f0c1011fb" target="_top" xlink:title="model_domain::model\l_dump_variables">
<polygon fill="white" stroke="black" points="176.131,-0.5 176.131,-30.5 300.359,-30.5 300.359,-0.5 176.131,-0.5"/>
<text text-anchor="start" x="184.131" y="-17.7" font-family="Helvetica,sans-Serif" font-size="11.00">model_domain::model</text>
<text text-anchor="middle" x="238.245" y="-6.7" font-family="Helvetica,sans-Serif" font-size="11.00">_dump_variables</text>
</a>
</g>
</g>
<!-- Node1&#45;&gt;Node2 -->
<g id="edge1" class="edge"><title>Node1&#45;&gt;Node2</title>
<path fill="none" stroke="midnightblue" d="M140.578,-15.5C148.924,-15.5 157.459,-15.5 165.832,-15.5"/>
<polygon fill="midnightblue" stroke="midnightblue" points="165.941,-19.0001 175.941,-15.5 165.941,-12.0001 165.941,-19.0001"/>
</g>
</g>
</svg>
