<?xml version="1.0" encoding="UTF-8" standalone="no"?>
<!DOCTYPE svg PUBLIC "-//W3C//DTD SVG 1.1//EN"
 "http://www.w3.org/Graphics/SVG/1.1/DTD/svg11.dtd">
<!-- Generated by graphviz version 2.38.0 (20140413.2041)
 -->
<!-- Title: runoff__curve_number::runoff_curve_number_calculate Pages: 1 -->
<svg width="505pt" height="50pt"
 viewBox="0.00 0.00 504.92 50.00" xmlns="http://www.w3.org/2000/svg" xmlns:xlink="http://www.w3.org/1999/xlink">
<g id="graph0" class="graph" transform="scale(1 1) rotate(0) translate(4 46)">
<title>runoff__curve_number::runoff_curve_number_calculate</title>
<polygon fill="white" stroke="none" points="-4,4 -4,-46 500.922,-46 500.922,4 -4,4"/>
<!-- Node34 -->
<g id="node1" class="node"><title>Node34</title>
<polygon fill="#bfbfbf" stroke="black" points="0,-0.5 0,-41.5 126.483,-41.5 126.483,-0.5 0,-0.5"/>
<text text-anchor="start" x="8" y="-28.7" font-family="Helvetica,sans-Serif" font-size="11.00">runoff__curve_number</text>
<text text-anchor="start" x="8" y="-17.7" font-family="Helvetica,sans-Serif" font-size="11.00">::runoff_curve_number</text>
<text text-anchor="middle" x="63.2417" y="-6.7" font-family="Helvetica,sans-Serif" font-size="11.00">_calculate</text>
</g>
<!-- Node35 -->
<g id="node2" class="node"><title>Node35</title>
<g id="a_node2"><a xlink:href="namespacerunoff____curve__number.html#a72b4da037428312946ee9c28a6790b92" target="_top" xlink:title="runoff__curve_number\l::update_curve_number_fn">
<polygon fill="white" stroke="black" points="162.483,-6 162.483,-36 309.962,-36 309.962,-6 162.483,-6"/>
<text text-anchor="start" x="170.483" y="-23.2" font-family="Helvetica,sans-Serif" font-size="11.00">runoff__curve_number</text>
<text text-anchor="middle" x="236.223" y="-12.2" font-family="Helvetica,sans-Serif" font-size="11.00">::update_curve_number_fn</text>
</a>
</g>
</g>
<!-- Node34&#45;&gt;Node35 -->
<g id="edge1" class="edge"><title>Node34&#45;&gt;Node35</title>
<path fill="none" stroke="midnightblue" d="M126.938,-21C135.227,-21 143.824,-21 152.386,-21"/>
<polygon fill="midnightblue" stroke="midnightblue" points="152.4,-24.5001 162.4,-21 152.4,-17.5001 152.4,-24.5001"/>
</g>
<!-- Node36 -->
<g id="node3" class="node"><title>Node36</title>
<g id="a_node3"><a xlink:href="namespacerunoff____curve__number.html#acc6ef2f95ff3082c5a264f71094740de" target="_top" xlink:title="runoff__curve_number\l::prob_runoff_enhancement">
<polygon fill="white" stroke="black" points="345.962,-6 345.962,-36 496.922,-36 496.922,-6 345.962,-6"/>
<text text-anchor="start" x="353.962" y="-23.2" font-family="Helvetica,sans-Serif" font-size="11.00">runoff__curve_number</text>
<text text-anchor="middle" x="421.442" y="-12.2" font-family="Helvetica,sans-Serif" font-size="11.00">::prob_runoff_enhancement</text>
</a>
</g>
</g>
<!-- Node35&#45;&gt;Node36 -->
<g id="edge2" class="edge"><title>Node35&#45;&gt;Node36</title>
<path fill="none" stroke="midnightblue" d="M310.162,-21C318.626,-21 327.312,-21 335.914,-21"/>
<polygon fill="midnightblue" stroke="midnightblue" points="335.955,-24.5001 345.955,-21 335.955,-17.5001 335.955,-24.5001"/>
</g>
</g>
</svg>
