<?xml version="1.0" encoding="UTF-8" standalone="no"?>
<!DOCTYPE svg PUBLIC "-//W3C//DTD SVG 1.1//EN"
 "http://www.w3.org/Graphics/SVG/1.1/DTD/svg11.dtd">
<!-- Generated by graphviz version 2.38.0 (20140413.2041)
 -->
<!-- Title: solar_calculations::sunrise_sunset_angle__omega_s Pages: 1 -->
<svg width="681pt" height="50pt"
 viewBox="0.00 0.00 680.82 50.00" xmlns="http://www.w3.org/2000/svg" xmlns:xlink="http://www.w3.org/1999/xlink">
<g id="graph0" class="graph" transform="scale(1 1) rotate(0) translate(4 46)">
<title>solar_calculations::sunrise_sunset_angle__omega_s</title>
<polygon fill="white" stroke="none" points="-4,4 -4,-46 676.822,-46 676.822,4 -4,4"/>
<!-- Node27 -->
<g id="node1" class="node"><title>Node27</title>
<polygon fill="#bfbfbf" stroke="black" points="0,-0.5 0,-41.5 129.131,-41.5 129.131,-0.5 0,-0.5"/>
<text text-anchor="start" x="8" y="-28.7" font-family="Helvetica,sans-Serif" font-size="11.00">solar_calculations</text>
<text text-anchor="start" x="8" y="-17.7" font-family="Helvetica,sans-Serif" font-size="11.00">::sunrise_sunset_angle</text>
<text text-anchor="middle" x="64.5657" y="-6.7" font-family="Helvetica,sans-Serif" font-size="11.00">__omega_s</text>
</g>
<!-- Node28 -->
<g id="node2" class="node"><title>Node28</title>
<g id="a_node2"><a xlink:href="namespaceet____hargreaves__samani.html#a7e98ab45c36ffcbbd21626348162801c" target="_top" xlink:title="et__hargreaves_samani\l::et_hargreaves_calculate">
<polygon fill="white" stroke="black" points="165.131,-6 165.131,-36 307.1,-36 307.1,-6 165.131,-6"/>
<text text-anchor="start" x="173.131" y="-23.2" font-family="Helvetica,sans-Serif" font-size="11.00">et__hargreaves_samani</text>
<text text-anchor="middle" x="236.115" y="-12.2" font-family="Helvetica,sans-Serif" font-size="11.00">::et_hargreaves_calculate</text>
</a>
</g>
</g>
<!-- Node27&#45;&gt;Node28 -->
<g id="edge1" class="edge"><title>Node27&#45;&gt;Node28</title>
<path fill="none" stroke="midnightblue" d="M139.406,-21C147.867,-21 156.475,-21 164.887,-21"/>
<polygon fill="midnightblue" stroke="midnightblue" points="139.182,-17.5001 129.182,-21 139.182,-24.5001 139.182,-17.5001"/>
</g>
<!-- Node29 -->
<g id="node3" class="node"><title>Node29</title>
<g id="a_node3"><a xlink:href="namespacemodel__domain.html#a37864c313f4ed6b63b5e90f4ef3f2e1f" target="_top" xlink:title="model_domain::model\l_calculate_et_hargreaves">
<polygon fill="white" stroke="black" points="343.1,-6 343.1,-36 485.073,-36 485.073,-6 343.1,-6"/>
<text text-anchor="start" x="351.1" y="-23.2" font-family="Helvetica,sans-Serif" font-size="11.00">model_domain::model</text>
<text text-anchor="middle" x="414.086" y="-12.2" font-family="Helvetica,sans-Serif" font-size="11.00">_calculate_et_hargreaves</text>
</a>
</g>
</g>
<!-- Node28&#45;&gt;Node29 -->
<g id="edge2" class="edge"><title>Node28&#45;&gt;Node29</title>
<path fill="none" stroke="midnightblue" d="M317.203,-21C325.807,-21 334.512,-21 342.986,-21"/>
<polygon fill="midnightblue" stroke="midnightblue" points="317.17,-17.5001 307.169,-21 317.169,-24.5001 317.17,-17.5001"/>
</g>
<!-- Node30 -->
<g id="node4" class="node"><title>Node30</title>
<g id="a_node4"><a xlink:href="namespacemodel__domain.html#aac78dbf26ba37cf86ebed4edd7acf89b" target="_top" xlink:title="model_domain::set_method\l_pointers_sub">
<polygon fill="white" stroke="black" points="521.073,-6 521.073,-36 672.822,-36 672.822,-6 521.073,-6"/>
<text text-anchor="start" x="529.073" y="-23.2" font-family="Helvetica,sans-Serif" font-size="11.00">model_domain::set_method</text>
<text text-anchor="middle" x="596.948" y="-12.2" font-family="Helvetica,sans-Serif" font-size="11.00">_pointers_sub</text>
</a>
</g>
</g>
<!-- Node29&#45;&gt;Node30 -->
<g id="edge3" class="edge"><title>Node29&#45;&gt;Node30</title>
<path fill="none" stroke="midnightblue" d="M495.531,-21C504.007,-21 512.602,-21 521.013,-21"/>
<polygon fill="midnightblue" stroke="midnightblue" points="495.271,-17.5001 485.271,-21 495.271,-24.5001 495.271,-17.5001"/>
</g>
</g>
</svg>
