<?xml version="1.0" encoding="UTF-8" standalone="no"?>
<!DOCTYPE svg PUBLIC "-//W3C//DTD SVG 1.1//EN"
 "http://www.w3.org/Graphics/SVG/1.1/DTD/svg11.dtd">
<!-- Generated by graphviz version 2.38.0 (20140413.2041)
 -->
<!-- Title: model_domain::model_initialize_precip_method_of_fragments Pages: 1 -->
<svg width="689pt" height="191pt"
 viewBox="0.00 0.00 689.36 190.67" xmlns="http://www.w3.org/2000/svg" xmlns:xlink="http://www.w3.org/1999/xlink">
<g id="graph0" class="graph" transform="scale(1 1) rotate(0) translate(4 186.67)">
<title>model_domain::model_initialize_precip_method_of_fragments</title>
<polygon fill="white" stroke="none" points="-4,4 -4,-186.67 685.357,-186.67 685.357,4 -4,4"/>
<!-- Node1 -->
<g id="node1" class="node"><title>Node1</title>
<polygon fill="#bfbfbf" stroke="black" points="0,-90.5 0,-131.5 140.131,-131.5 140.131,-90.5 0,-90.5"/>
<text text-anchor="start" x="8" y="-118.7" font-family="Helvetica,sans-Serif" font-size="11.00">model_domain::model</text>
<text text-anchor="start" x="8" y="-107.7" font-family="Helvetica,sans-Serif" font-size="11.00">_initialize_precip_method</text>
<text text-anchor="middle" x="70.0657" y="-96.7" font-family="Helvetica,sans-Serif" font-size="11.00">_of_fragments</text>
</g>
<!-- Node2 -->
<g id="node2" class="node"><title>Node2</title>
<g id="a_node2"><a xlink:href="namespaceprecipitation____method__of__fragments.html#aa337d594880888091943dc6ef2049d5c" target="_top" xlink:title="Initialize method of fragments. ">
<polygon fill="white" stroke="black" points="176.131,-90.5 176.131,-131.5 350.503,-131.5 350.503,-90.5 176.131,-90.5"/>
<text text-anchor="start" x="184.131" y="-118.7" font-family="Helvetica,sans-Serif" font-size="11.00">precipitation__method</text>
<text text-anchor="start" x="184.131" y="-107.7" font-family="Helvetica,sans-Serif" font-size="11.00">_of_fragments::precipitation</text>
<text text-anchor="middle" x="263.317" y="-96.7" font-family="Helvetica,sans-Serif" font-size="11.00">_method_of_fragments_initialize</text>
</a>
</g>
</g>
<!-- Node1&#45;&gt;Node2 -->
<g id="edge1" class="edge"><title>Node1&#45;&gt;Node2</title>
<path fill="none" stroke="midnightblue" d="M140.382,-111C148.68,-111 157.265,-111 165.859,-111"/>
<polygon fill="midnightblue" stroke="midnightblue" points="165.935,-114.5 175.935,-111 165.935,-107.5 165.935,-114.5"/>
</g>
<!-- Node3 -->
<g id="node3" class="node"><title>Node3</title>
<g id="a_node3"><a xlink:href="namespaceexceptions.html#a22a1bf2808fdc249e6b378ee3f221156" target="_top" xlink:title="exceptions::die">
<polygon fill="white" stroke="black" points="591.977,-131.5 591.977,-150.5 681.357,-150.5 681.357,-131.5 591.977,-131.5"/>
<text text-anchor="middle" x="636.667" y="-137.7" font-family="Helvetica,sans-Serif" font-size="11.00">exceptions::die</text>
</a>
</g>
</g>
<!-- Node2&#45;&gt;Node3 -->
<g id="edge2" class="edge"><title>Node2&#45;&gt;Node3</title>
<path fill="none" stroke="midnightblue" d="M295.981,-131.581C319.797,-145.777 353.816,-163.407 386.503,-171 459.872,-188.042 481.873,-184.487 555.977,-171 573.515,-167.808 592.212,-160.967 607.085,-154.623"/>
<polygon fill="midnightblue" stroke="midnightblue" points="608.525,-157.813 616.256,-150.568 605.695,-151.411 608.525,-157.813"/>
</g>
<!-- Node4 -->
<g id="node4" class="node"><title>Node4</title>
<g id="a_node4"><a xlink:href="namespaceprecipitation____method__of__fragments.html#a6f207f0d60f30bad39d043050c1d2fc9" target="_top" xlink:title="precipitation__method\l_of_fragments::read_daily\l_fragments">
<polygon fill="white" stroke="black" points="399.646,-120.5 399.646,-161.5 542.834,-161.5 542.834,-120.5 399.646,-120.5"/>
<text text-anchor="start" x="407.646" y="-148.7" font-family="Helvetica,sans-Serif" font-size="11.00">precipitation__method</text>
<text text-anchor="start" x="407.646" y="-137.7" font-family="Helvetica,sans-Serif" font-size="11.00">_of_fragments::read_daily</text>
<text text-anchor="middle" x="471.24" y="-126.7" font-family="Helvetica,sans-Serif" font-size="11.00">_fragments</text>
</a>
</g>
</g>
<!-- Node2&#45;&gt;Node4 -->
<g id="edge3" class="edge"><title>Node2&#45;&gt;Node4</title>
<path fill="none" stroke="midnightblue" d="M350.752,-123.592C363.606,-125.465 376.812,-127.389 389.541,-129.243"/>
<polygon fill="midnightblue" stroke="midnightblue" points="389.232,-132.735 399.632,-130.713 390.241,-125.808 389.232,-132.735"/>
</g>
<!-- Node5 -->
<g id="node5" class="node"><title>Node5</title>
<g id="a_node5"><a xlink:href="namespaceprecipitation____method__of__fragments.html#a56afd260110a51be20bea090f78a2d83" target="_top" xlink:title="precipitation__method\l_of_fragments::read_fragments\l_sequence">
<polygon fill="white" stroke="black" points="386.503,-60.5 386.503,-101.5 555.977,-101.5 555.977,-60.5 386.503,-60.5"/>
<text text-anchor="start" x="394.503" y="-88.7" font-family="Helvetica,sans-Serif" font-size="11.00">precipitation__method</text>
<text text-anchor="start" x="394.503" y="-77.7" font-family="Helvetica,sans-Serif" font-size="11.00">_of_fragments::read_fragments</text>
<text text-anchor="middle" x="471.24" y="-66.7" font-family="Helvetica,sans-Serif" font-size="11.00">_sequence</text>
</a>
</g>
</g>
<!-- Node2&#45;&gt;Node5 -->
<g id="edge5" class="edge"><title>Node2&#45;&gt;Node5</title>
<path fill="none" stroke="midnightblue" d="M350.752,-98.4077C359.217,-97.1745 367.834,-95.919 376.368,-94.6758"/>
<polygon fill="midnightblue" stroke="midnightblue" points="376.942,-98.1292 386.333,-93.224 375.933,-91.2023 376.942,-98.1292"/>
</g>
<!-- Node6 -->
<g id="node6" class="node"><title>Node6</title>
<g id="a_node6"><a xlink:href="namespaceprecipitation____method__of__fragments.html#a8333b8ad450ca979b691760de96116b8" target="_top" xlink:title="precipitation__method\l_of_fragments::process\l_fragment_sets">
<polygon fill="white" stroke="black" points="405.767,-0.5 405.767,-41.5 536.714,-41.5 536.714,-0.5 405.767,-0.5"/>
<text text-anchor="start" x="413.767" y="-28.7" font-family="Helvetica,sans-Serif" font-size="11.00">precipitation__method</text>
<text text-anchor="start" x="413.767" y="-17.7" font-family="Helvetica,sans-Serif" font-size="11.00">_of_fragments::process</text>
<text text-anchor="middle" x="471.24" y="-6.7" font-family="Helvetica,sans-Serif" font-size="11.00">_fragment_sets</text>
</a>
</g>
</g>
<!-- Node2&#45;&gt;Node6 -->
<g id="edge7" class="edge"><title>Node2&#45;&gt;Node6</title>
<path fill="none" stroke="midnightblue" d="M303.416,-90.4027C327.143,-78.256 358.209,-62.9706 386.503,-51 390.979,-49.1065 395.619,-47.2252 400.317,-45.3818"/>
<polygon fill="midnightblue" stroke="midnightblue" points="401.925,-48.5134 410.004,-41.6591 399.414,-41.9793 401.925,-48.5134"/>
</g>
<!-- Node4&#45;&gt;Node3 -->
<g id="edge4" class="edge"><title>Node4&#45;&gt;Node3</title>
<path fill="none" stroke="midnightblue" d="M542.971,-141C555.911,-141 569.225,-141 581.583,-141"/>
<polygon fill="midnightblue" stroke="midnightblue" points="581.71,-144.5 591.71,-141 581.71,-137.5 581.71,-144.5"/>
</g>
<!-- Node5&#45;&gt;Node3 -->
<g id="edge6" class="edge"><title>Node5&#45;&gt;Node3</title>
<path fill="none" stroke="midnightblue" d="M529.942,-101.536C538.674,-104.683 547.57,-107.912 555.977,-111 570.716,-116.414 586.944,-122.5 600.887,-127.768"/>
<polygon fill="midnightblue" stroke="midnightblue" points="599.99,-131.171 610.582,-131.439 602.468,-124.625 599.99,-131.171"/>
</g>
</g>
</svg>
