<?xml version="1.0" encoding="UTF-8" standalone="no"?>
<!DOCTYPE svg PUBLIC "-//W3C//DTD SVG 1.1//EN"
 "http://www.w3.org/Graphics/SVG/1.1/DTD/svg11.dtd">
<!-- Generated by graphviz version 2.38.0 (20140413.2041)
 -->
<!-- Title: interception__gash::interception_gash_initialize Pages: 1 -->
<svg width="304pt" height="154pt"
 viewBox="0.00 0.00 304.10 154.00" xmlns="http://www.w3.org/2000/svg" xmlns:xlink="http://www.w3.org/1999/xlink">
<g id="graph0" class="graph" transform="scale(1 1) rotate(0) translate(4 150)">
<title>interception__gash::interception_gash_initialize</title>
<polygon fill="white" stroke="none" points="-4,4 -4,-150 300.1,-150 300.1,4 -4,4"/>
<!-- Node0 -->
<g id="node1" class="node"><title>Node0</title>
<polygon fill="#bfbfbf" stroke="black" points="0,-55.5 0,-96.5 108.958,-96.5 108.958,-55.5 0,-55.5"/>
<text text-anchor="start" x="8" y="-83.7" font-family="Helvetica,sans-Serif" font-size="11.00">interception__gash</text>
<text text-anchor="start" x="8" y="-72.7" font-family="Helvetica,sans-Serif" font-size="11.00">::interception_gash</text>
<text text-anchor="middle" x="54.4788" y="-61.7" font-family="Helvetica,sans-Serif" font-size="11.00">_initialize</text>
</g>
<!-- Node1 -->
<g id="node2" class="node"><title>Node1</title>
<g id="a_node2"><a xlink:href="namespaceexceptions.html#a22a1bf2808fdc249e6b378ee3f221156" target="_top" xlink:title="exceptions::die">
<polygon fill="white" stroke="black" points="175.839,-126.5 175.839,-145.5 265.219,-145.5 265.219,-126.5 175.839,-126.5"/>
<text text-anchor="middle" x="220.529" y="-132.7" font-family="Helvetica,sans-Serif" font-size="11.00">exceptions::die</text>
</a>
</g>
</g>
<!-- Node0&#45;&gt;Node1 -->
<g id="edge1" class="edge"><title>Node0&#45;&gt;Node1</title>
<path fill="none" stroke="midnightblue" d="M96.2673,-96.568C111.324,-103.657 128.685,-111.251 144.958,-117 151.965,-119.475 159.447,-121.772 166.868,-123.851"/>
<polygon fill="midnightblue" stroke="midnightblue" points="165.977,-127.235 176.543,-126.455 167.796,-120.476 165.977,-127.235"/>
</g>
<!-- Node2 -->
<g id="node3" class="node"><title>Node2</title>
<g id="a_node3"><a xlink:href="namespacegrid.html#a02803f7fe27d0354d3d16a15bd1338da" target="_top" xlink:title="grid::grid_writearcgrid">
<polygon fill="white" stroke="black" points="159.647,-88.5 159.647,-107.5 281.41,-107.5 281.41,-88.5 159.647,-88.5"/>
<text text-anchor="middle" x="220.529" y="-94.7" font-family="Helvetica,sans-Serif" font-size="11.00">grid::grid_writearcgrid</text>
</a>
</g>
</g>
<!-- Node0&#45;&gt;Node2 -->
<g id="edge2" class="edge"><title>Node0&#45;&gt;Node2</title>
<path fill="none" stroke="midnightblue" d="M109.195,-83.2036C122.003,-84.9212 135.86,-86.7796 149.287,-88.5802"/>
<polygon fill="midnightblue" stroke="midnightblue" points="149.07,-92.0824 159.447,-89.9427 150.001,-85.1445 149.07,-92.0824"/>
</g>
<!-- Node3 -->
<g id="node4" class="node"><title>Node3</title>
<g id="a_node4"><a xlink:href="namespaceinterception____gash.html#a2cac17c5d7097b18259258a9e725b315" target="_top" xlink:title="interception__gash\l::precipitation_at_saturation">
<polygon fill="white" stroke="black" points="144.958,-39 144.958,-69 296.1,-69 296.1,-39 144.958,-39"/>
<text text-anchor="start" x="152.958" y="-56.2" font-family="Helvetica,sans-Serif" font-size="11.00">interception__gash</text>
<text text-anchor="middle" x="220.529" y="-45.2" font-family="Helvetica,sans-Serif" font-size="11.00">::precipitation_at_saturation</text>
</a>
</g>
</g>
<!-- Node0&#45;&gt;Node3 -->
<g id="edge3" class="edge"><title>Node0&#45;&gt;Node3</title>
<path fill="none" stroke="midnightblue" d="M109.195,-68.7964C117.389,-67.6975 126.012,-66.5411 134.678,-65.3789"/>
<polygon fill="midnightblue" stroke="midnightblue" points="135.401,-68.8134 144.847,-64.0152 134.47,-61.8755 135.401,-68.8134"/>
</g>
<!-- Node4 -->
<g id="node5" class="node"><title>Node4</title>
<g id="a_node5"><a xlink:href="namespaceexceptions.html#a84dd04476b06e0a398bfe6d106a82a4d" target="_top" xlink:title="exceptions::warn">
<polygon fill="white" stroke="black" points="171.257,-0.5 171.257,-19.5 269.8,-19.5 269.8,-0.5 171.257,-0.5"/>
<text text-anchor="middle" x="220.529" y="-6.7" font-family="Helvetica,sans-Serif" font-size="11.00">exceptions::warn</text>
</a>
</g>
</g>
<!-- Node0&#45;&gt;Node4 -->
<g id="edge4" class="edge"><title>Node0&#45;&gt;Node4</title>
<path fill="none" stroke="midnightblue" d="M91.2396,-55.3981C107.299,-46.7314 126.707,-37.0459 144.958,-30 152.255,-27.1826 160.101,-24.6104 167.865,-22.318"/>
<polygon fill="midnightblue" stroke="midnightblue" points="168.937,-25.6523 177.61,-19.5665 167.035,-18.9157 168.937,-25.6523"/>
</g>
</g>
</svg>
