<?xml version="1.0" encoding="UTF-8" standalone="no"?>
<!DOCTYPE svg PUBLIC "-//W3C//DTD SVG 1.1//EN"
 "http://www.w3.org/Graphics/SVG/1.1/DTD/svg11.dtd">
<!-- Generated by graphviz version 2.38.0 (20140413.2041)
 -->
<!-- Title: runoff__curve_number::runoff_curve_number_initialize Pages: 1 -->
<svg width="297pt" height="88pt"
 viewBox="0.00 0.00 296.97 88.00" xmlns="http://www.w3.org/2000/svg" xmlns:xlink="http://www.w3.org/1999/xlink">
<g id="graph0" class="graph" transform="scale(1 1) rotate(0) translate(4 84)">
<title>runoff__curve_number::runoff_curve_number_initialize</title>
<polygon fill="white" stroke="none" points="-4,4 -4,-84 292.967,-84 292.967,4 -4,4"/>
<!-- Node1 -->
<g id="node1" class="node"><title>Node1</title>
<polygon fill="#bfbfbf" stroke="black" points="0,-19 0,-60 126.483,-60 126.483,-19 0,-19"/>
<text text-anchor="start" x="8" y="-47.2" font-family="Helvetica,sans-Serif" font-size="11.00">runoff__curve_number</text>
<text text-anchor="start" x="8" y="-36.2" font-family="Helvetica,sans-Serif" font-size="11.00">::runoff_curve_number</text>
<text text-anchor="middle" x="63.2417" y="-25.2" font-family="Helvetica,sans-Serif" font-size="11.00">_initialize</text>
</g>
<!-- Node2 -->
<g id="node2" class="node"><title>Node2</title>
<g id="a_node2"><a xlink:href="namespacerunoff____curve__number.html#aa85bdeac46410a67ea5ff584e6b5ce5a" target="_top" xlink:title="runoff__curve_number\l::cn_ii_to_cn_i">
<polygon fill="white" stroke="black" points="162.483,-49.5 162.483,-79.5 288.967,-79.5 288.967,-49.5 162.483,-49.5"/>
<text text-anchor="start" x="170.483" y="-66.7" font-family="Helvetica,sans-Serif" font-size="11.00">runoff__curve_number</text>
<text text-anchor="middle" x="225.725" y="-55.7" font-family="Helvetica,sans-Serif" font-size="11.00">::cn_ii_to_cn_i</text>
</a>
</g>
</g>
<!-- Node1&#45;&gt;Node2 -->
<g id="edge1" class="edge"><title>Node1&#45;&gt;Node2</title>
<path fill="none" stroke="midnightblue" d="M126.748,-49.2372C135.161,-50.5478 143.849,-51.9011 152.414,-53.2354"/>
<polygon fill="midnightblue" stroke="midnightblue" points="151.969,-56.7083 162.389,-54.7893 153.047,-49.7917 151.969,-56.7083"/>
</g>
<!-- Node3 -->
<g id="node3" class="node"><title>Node3</title>
<g id="a_node3"><a xlink:href="namespacerunoff____curve__number.html#a20262a56af0e16cc1afcd0c2a1e20b86" target="_top" xlink:title="runoff__curve_number\l::cn_ii_to_cn_iii">
<polygon fill="white" stroke="black" points="162.483,-0.5 162.483,-30.5 288.967,-30.5 288.967,-0.5 162.483,-0.5"/>
<text text-anchor="start" x="170.483" y="-17.7" font-family="Helvetica,sans-Serif" font-size="11.00">runoff__curve_number</text>
<text text-anchor="middle" x="225.725" y="-6.7" font-family="Helvetica,sans-Serif" font-size="11.00">::cn_ii_to_cn_iii</text>
</a>
</g>
</g>
<!-- Node1&#45;&gt;Node3 -->
<g id="edge2" class="edge"><title>Node1&#45;&gt;Node3</title>
<path fill="none" stroke="midnightblue" d="M126.748,-30.1523C135.161,-28.8941 143.849,-27.5949 152.414,-26.314"/>
<polygon fill="midnightblue" stroke="midnightblue" points="153.017,-29.7629 162.389,-24.8222 151.981,-22.8398 153.017,-29.7629"/>
</g>
</g>
</svg>
