<?xml version="1.0" encoding="UTF-8" standalone="no"?>
<!DOCTYPE svg PUBLIC "-//W3C//DTD SVG 1.1//EN"
 "http://www.w3.org/Graphics/SVG/1.1/DTD/svg11.dtd">
<!-- Generated by graphviz version 2.38.0 (20140413.2041)
 -->
<!-- Title: data_catalog_entry::test_for_need_to_pad_values_fn Pages: 1 -->
<svg width="266pt" height="50pt"
 viewBox="0.00 0.00 266.19 50.00" xmlns="http://www.w3.org/2000/svg" xmlns:xlink="http://www.w3.org/1999/xlink">
<g id="graph0" class="graph" transform="scale(1 1) rotate(0) translate(4 46)">
<title>data_catalog_entry::test_for_need_to_pad_values_fn</title>
<polygon fill="white" stroke="none" points="-4,4 -4,-46 262.19,-46 262.19,4 -4,4"/>
<!-- Node1 -->
<g id="node1" class="node"><title>Node1</title>
<polygon fill="#bfbfbf" stroke="black" points="0,-0.5 0,-41.5 129.147,-41.5 129.147,-0.5 0,-0.5"/>
<text text-anchor="start" x="8" y="-28.7" font-family="Helvetica,sans-Serif" font-size="11.00">data_catalog_entry</text>
<text text-anchor="start" x="8" y="-17.7" font-family="Helvetica,sans-Serif" font-size="11.00">::test_for_need_to_pad</text>
<text text-anchor="middle" x="64.5737" y="-6.7" font-family="Helvetica,sans-Serif" font-size="11.00">_values_fn</text>
</g>
<!-- Node2 -->
<g id="node2" class="node"><title>Node2</title>
<g id="a_node2"><a xlink:href="namespacedatetime.html#ac592893d1619078605ed74ce2b0fd505" target="_top" xlink:title="datetime::isleap">
<polygon fill="white" stroke="black" points="165.147,-11.5 165.147,-30.5 258.19,-30.5 258.19,-11.5 165.147,-11.5"/>
<text text-anchor="middle" x="211.669" y="-17.7" font-family="Helvetica,sans-Serif" font-size="11.00">datetime::isleap</text>
</a>
</g>
</g>
<!-- Node1&#45;&gt;Node2 -->
<g id="edge1" class="edge"><title>Node1&#45;&gt;Node2</title>
<path fill="none" stroke="midnightblue" d="M129.215,-21C137.768,-21 146.488,-21 154.891,-21"/>
<polygon fill="midnightblue" stroke="midnightblue" points="154.951,-24.5001 164.951,-21 154.951,-17.5001 154.951,-24.5001"/>
</g>
</g>
</svg>
