<?xml version="1.0" encoding="UTF-8" standalone="no"?>
<!DOCTYPE svg PUBLIC "-//W3C//DTD SVG 1.1//EN"
 "http://www.w3.org/Graphics/SVG/1.1/DTD/svg11.dtd">
<!-- Generated by graphviz version 2.38.0 (20140413.2041)
 -->
<!-- Title: netcdf4_support::netcdf_put_packed_variable_array Pages: 1 -->
<svg width="522pt" height="39pt"
 viewBox="0.00 0.00 522.43 39.00" xmlns="http://www.w3.org/2000/svg" xmlns:xlink="http://www.w3.org/1999/xlink">
<g id="graph0" class="graph" transform="scale(1 1) rotate(0) translate(4 35)">
<title>netcdf4_support::netcdf_put_packed_variable_array</title>
<polygon fill="white" stroke="none" points="-4,4 -4,-35 518.432,-35 518.432,4 -4,4"/>
<!-- Node718 -->
<g id="node1" class="node"><title>Node718</title>
<polygon fill="#bfbfbf" stroke="black" points="0,-0.5 0,-30.5 154.816,-30.5 154.816,-0.5 0,-0.5"/>
<text text-anchor="start" x="8" y="-17.7" font-family="Helvetica,sans-Serif" font-size="11.00">netcdf4_support::netcdf</text>
<text text-anchor="middle" x="77.408" y="-6.7" font-family="Helvetica,sans-Serif" font-size="11.00">_put_packed_variable_array</text>
</g>
<!-- Node719 -->
<g id="node2" class="node"><title>Node719</title>
<g id="a_node2"><a xlink:href="namespacenetcdf4__support.html#ac8c7276a5849ae6d17ffef1787e3f234" target="_top" xlink:title="netcdf4_support::nf_trap">
<polygon fill="white" stroke="black" points="190.816,-6 190.816,-25 326.065,-25 326.065,-6 190.816,-6"/>
<text text-anchor="middle" x="258.44" y="-12.2" font-family="Helvetica,sans-Serif" font-size="11.00">netcdf4_support::nf_trap</text>
</a>
</g>
</g>
<!-- Node718&#45;&gt;Node719 -->
<g id="edge1" class="edge"><title>Node718&#45;&gt;Node719</title>
<path fill="none" stroke="midnightblue" d="M154.853,-15.5C163.299,-15.5 171.904,-15.5 180.357,-15.5"/>
<polygon fill="midnightblue" stroke="midnightblue" points="180.574,-19.0001 190.573,-15.5 180.573,-12.0001 180.574,-19.0001"/>
</g>
<!-- Node720 -->
<g id="node3" class="node"><title>Node720</title>
<g id="a_node3"><a xlink:href="namespaceconstants__and__conversions.html#ac13fba285229deab77131132e6f62caf" target="_top" xlink:title="constants_and_conversions\l::char_ptr_to_fortran_string">
<polygon fill="white" stroke="black" points="362.065,-0.5 362.065,-30.5 514.432,-30.5 514.432,-0.5 362.065,-0.5"/>
<text text-anchor="start" x="370.065" y="-17.7" font-family="Helvetica,sans-Serif" font-size="11.00">constants_and_conversions</text>
<text text-anchor="middle" x="438.248" y="-6.7" font-family="Helvetica,sans-Serif" font-size="11.00">::char_ptr_to_fortran_string</text>
</a>
</g>
</g>
<!-- Node719&#45;&gt;Node720 -->
<g id="edge2" class="edge"><title>Node719&#45;&gt;Node720</title>
<path fill="none" stroke="midnightblue" d="M326.155,-15.5C334.513,-15.5 343.15,-15.5 351.745,-15.5"/>
<polygon fill="midnightblue" stroke="midnightblue" points="351.795,-19.0001 361.795,-15.5 351.795,-12.0001 351.795,-19.0001"/>
</g>
</g>
</svg>
