<?xml version="1.0" encoding="UTF-8" standalone="no"?>
<!DOCTYPE svg PUBLIC "-//W3C//DTD SVG 1.1//EN"
 "http://www.w3.org/Graphics/SVG/1.1/DTD/svg11.dtd">
<!-- Generated by graphviz version 2.38.0 (20140413.2041)
 -->
<!-- Title: netcdf4_support::nf_get_variable_slice_short Pages: 1 -->
<svg width="658pt" height="138pt"
 viewBox="0.00 0.00 657.59 138.00" xmlns="http://www.w3.org/2000/svg" xmlns:xlink="http://www.w3.org/1999/xlink">
<g id="graph0" class="graph" transform="scale(1 1) rotate(0) translate(4 134)">
<title>netcdf4_support::nf_get_variable_slice_short</title>
<polygon fill="white" stroke="none" points="-4,4 -4,-134 653.587,-134 653.587,4 -4,4"/>
<!-- Node366 -->
<g id="node1" class="node"><title>Node366</title>
<polygon fill="#bfbfbf" stroke="black" points="0,-39 0,-69 140.744,-69 140.744,-39 0,-39"/>
<text text-anchor="start" x="8" y="-56.2" font-family="Helvetica,sans-Serif" font-size="11.00">netcdf4_support::nf</text>
<text text-anchor="middle" x="70.3718" y="-45.2" font-family="Helvetica,sans-Serif" font-size="11.00">_get_variable_slice_short</text>
</g>
<!-- Node367 -->
<g id="node2" class="node"><title>Node367</title>
<g id="a_node2"><a xlink:href="namespacenetcdf4__support.html#a4c2bcc3b3c61e95a042b4ccd0455330a" target="_top" xlink:title="netcdf4_support::nf\l_get_variable_array\l_as_vector_short">
<polygon fill="white" stroke="black" points="176.744,-88.5 176.744,-129.5 289.971,-129.5 289.971,-88.5 176.744,-88.5"/>
<text text-anchor="start" x="184.744" y="-116.7" font-family="Helvetica,sans-Serif" font-size="11.00">netcdf4_support::nf</text>
<text text-anchor="start" x="184.744" y="-105.7" font-family="Helvetica,sans-Serif" font-size="11.00">_get_variable_array</text>
<text text-anchor="middle" x="233.357" y="-94.7" font-family="Helvetica,sans-Serif" font-size="11.00">_as_vector_short</text>
</a>
</g>
</g>
<!-- Node366&#45;&gt;Node367 -->
<g id="edge1" class="edge"><title>Node366&#45;&gt;Node367</title>
<path fill="none" stroke="midnightblue" d="M115.362,-69.029C131.307,-74.4767 149.678,-80.7528 167.066,-86.6934"/>
<polygon fill="midnightblue" stroke="midnightblue" points="166.008,-90.0307 176.603,-89.9518 168.272,-83.4067 166.008,-90.0307"/>
</g>
<!-- Node370 -->
<g id="node5" class="node"><title>Node370</title>
<g id="a_node5"><a xlink:href="namespacenetcdf4__support.html#a26ac7fa9681548ec954f9cec8fbfa3b2" target="_top" xlink:title="netcdf4_support::nf\l_return_varindex">
<polygon fill="white" stroke="black" points="178.269,-39 178.269,-69 288.446,-69 288.446,-39 178.269,-39"/>
<text text-anchor="start" x="186.269" y="-56.2" font-family="Helvetica,sans-Serif" font-size="11.00">netcdf4_support::nf</text>
<text text-anchor="middle" x="233.357" y="-45.2" font-family="Helvetica,sans-Serif" font-size="11.00">_return_varindex</text>
</a>
</g>
</g>
<!-- Node366&#45;&gt;Node370 -->
<g id="edge4" class="edge"><title>Node366&#45;&gt;Node370</title>
<path fill="none" stroke="midnightblue" d="M141.046,-54C149.963,-54 159.061,-54 167.891,-54"/>
<polygon fill="midnightblue" stroke="midnightblue" points="168.106,-57.5001 178.106,-54 168.106,-50.5001 168.106,-57.5001"/>
</g>
<!-- Node371 -->
<g id="node6" class="node"><title>Node371</title>
<g id="a_node6"><a xlink:href="namespaceexceptions.html#a84dd04476b06e0a398bfe6d106a82a4d" target="_top" xlink:title="exceptions::warn">
<polygon fill="white" stroke="black" points="184.086,-0.5 184.086,-19.5 282.629,-19.5 282.629,-0.5 184.086,-0.5"/>
<text text-anchor="middle" x="233.357" y="-6.7" font-family="Helvetica,sans-Serif" font-size="11.00">exceptions::warn</text>
</a>
</g>
</g>
<!-- Node366&#45;&gt;Node371 -->
<g id="edge5" class="edge"><title>Node366&#45;&gt;Node371</title>
<path fill="none" stroke="midnightblue" d="M126.324,-38.9808C146.244,-33.5362 168.492,-27.4554 187.446,-22.2751"/>
<polygon fill="midnightblue" stroke="midnightblue" points="188.589,-25.591 197.313,-19.5783 186.744,-18.8386 188.589,-25.591"/>
</g>
<!-- Node368 -->
<g id="node3" class="node"><title>Node368</title>
<g id="a_node3"><a xlink:href="namespacenetcdf4__support.html#ac8c7276a5849ae6d17ffef1787e3f234" target="_top" xlink:title="netcdf4_support::nf_trap">
<polygon fill="white" stroke="black" points="325.971,-99.5 325.971,-118.5 461.22,-118.5 461.22,-99.5 325.971,-99.5"/>
<text text-anchor="middle" x="393.596" y="-105.7" font-family="Helvetica,sans-Serif" font-size="11.00">netcdf4_support::nf_trap</text>
</a>
</g>
</g>
<!-- Node367&#45;&gt;Node368 -->
<g id="edge2" class="edge"><title>Node367&#45;&gt;Node368</title>
<path fill="none" stroke="midnightblue" d="M290.146,-109C298.46,-109 307.152,-109 315.806,-109"/>
<polygon fill="midnightblue" stroke="midnightblue" points="315.924,-112.5 325.924,-109 315.924,-105.5 315.924,-112.5"/>
</g>
<!-- Node369 -->
<g id="node4" class="node"><title>Node369</title>
<g id="a_node4"><a xlink:href="namespaceconstants__and__conversions.html#ac13fba285229deab77131132e6f62caf" target="_top" xlink:title="constants_and_conversions\l::char_ptr_to_fortran_string">
<polygon fill="white" stroke="black" points="497.22,-94 497.22,-124 649.587,-124 649.587,-94 497.22,-94"/>
<text text-anchor="start" x="505.22" y="-111.2" font-family="Helvetica,sans-Serif" font-size="11.00">constants_and_conversions</text>
<text text-anchor="middle" x="573.404" y="-100.2" font-family="Helvetica,sans-Serif" font-size="11.00">::char_ptr_to_fortran_string</text>
</a>
</g>
</g>
<!-- Node368&#45;&gt;Node369 -->
<g id="edge3" class="edge"><title>Node368&#45;&gt;Node369</title>
<path fill="none" stroke="midnightblue" d="M461.311,-109C469.668,-109 478.305,-109 486.9,-109"/>
<polygon fill="midnightblue" stroke="midnightblue" points="486.951,-112.5 496.951,-109 486.951,-105.5 486.951,-112.5"/>
</g>
</g>
</svg>
