<?xml version="1.0" encoding="UTF-8" standalone="no"?>
<!DOCTYPE svg PUBLIC "-//W3C//DTD SVG 1.1//EN"
 "http://www.w3.org/Graphics/SVG/1.1/DTD/svg11.dtd">
<!-- Generated by graphviz version 2.38.0 (20140413.2041)
 -->
<!-- Title: model_domain::model_read_available_water_content_gridded Pages: 1 -->
<svg width="456pt" height="50pt"
 viewBox="0.00 0.00 455.77 50.00" xmlns="http://www.w3.org/2000/svg" xmlns:xlink="http://www.w3.org/1999/xlink">
<g id="graph0" class="graph" transform="scale(1 1) rotate(0) translate(4 46)">
<title>model_domain::model_read_available_water_content_gridded</title>
<polygon fill="white" stroke="none" points="-4,4 -4,-46 451.766,-46 451.766,4 -4,4"/>
<!-- Node1 -->
<g id="node1" class="node"><title>Node1</title>
<polygon fill="#bfbfbf" stroke="black" points="0,-0.5 0,-41.5 126.688,-41.5 126.688,-0.5 0,-0.5"/>
<text text-anchor="start" x="8" y="-28.7" font-family="Helvetica,sans-Serif" font-size="11.00">model_domain::model</text>
<text text-anchor="start" x="8" y="-17.7" font-family="Helvetica,sans-Serif" font-size="11.00">_read_available_water</text>
<text text-anchor="middle" x="63.3438" y="-6.7" font-family="Helvetica,sans-Serif" font-size="11.00">_content_gridded</text>
</g>
<!-- Node2 -->
<g id="node2" class="node"><title>Node2</title>
<g id="a_node2"><a xlink:href="namespaceawc____gridded__values.html#a18ab5c6ee2b27657585dea47561116b2" target="_top" xlink:title="awc__gridded_values\l::awc_gridded_values_read">
<polygon fill="white" stroke="black" points="162.688,-6 162.688,-36 313.223,-36 313.223,-6 162.688,-6"/>
<text text-anchor="start" x="170.688" y="-23.2" font-family="Helvetica,sans-Serif" font-size="11.00">awc__gridded_values</text>
<text text-anchor="middle" x="237.955" y="-12.2" font-family="Helvetica,sans-Serif" font-size="11.00">::awc_gridded_values_read</text>
</a>
</g>
</g>
<!-- Node1&#45;&gt;Node2 -->
<g id="edge1" class="edge"><title>Node1&#45;&gt;Node2</title>
<path fill="none" stroke="midnightblue" d="M127.149,-21C135.304,-21 143.762,-21 152.2,-21"/>
<polygon fill="midnightblue" stroke="midnightblue" points="152.462,-24.5001 162.462,-21 152.462,-17.5001 152.462,-24.5001"/>
</g>
<!-- Node3 -->
<g id="node3" class="node"><title>Node3</title>
<g id="a_node3"><a xlink:href="namespaceexceptions.html#a84dd04476b06e0a398bfe6d106a82a4d" target="_top" xlink:title="exceptions::warn">
<polygon fill="white" stroke="black" points="349.223,-11.5 349.223,-30.5 447.766,-30.5 447.766,-11.5 349.223,-11.5"/>
<text text-anchor="middle" x="398.494" y="-17.7" font-family="Helvetica,sans-Serif" font-size="11.00">exceptions::warn</text>
</a>
</g>
</g>
<!-- Node2&#45;&gt;Node3 -->
<g id="edge2" class="edge"><title>Node2&#45;&gt;Node3</title>
<path fill="none" stroke="midnightblue" d="M313.582,-21C322.053,-21 330.594,-21 338.818,-21"/>
<polygon fill="midnightblue" stroke="midnightblue" points="339.035,-24.5001 349.035,-21 339.035,-17.5001 339.035,-24.5001"/>
</g>
</g>
</svg>
