<?xml version="1.0" encoding="UTF-8" standalone="no"?>
<!DOCTYPE svg PUBLIC "-//W3C//DTD SVG 1.1//EN"
 "http://www.w3.org/Graphics/SVG/1.1/DTD/svg11.dtd">
<!-- Generated by graphviz version 2.38.0 (20140413.2041)
 -->
<!-- Title: routing__d8::routing_d8_initialize Pages: 1 -->
<svg width="470pt" height="39pt"
 viewBox="0.00 0.00 469.83 39.00" xmlns="http://www.w3.org/2000/svg" xmlns:xlink="http://www.w3.org/1999/xlink">
<g id="graph0" class="graph" transform="scale(1 1) rotate(0) translate(4 35)">
<title>routing__d8::routing_d8_initialize</title>
<polygon fill="white" stroke="none" points="-4,4 -4,-35 465.827,-35 465.827,4 -4,4"/>
<!-- Node7 -->
<g id="node1" class="node"><title>Node7</title>
<polygon fill="#bfbfbf" stroke="black" points="0,-0.5 0,-30.5 113.851,-30.5 113.851,-0.5 0,-0.5"/>
<text text-anchor="start" x="8" y="-17.7" font-family="Helvetica,sans-Serif" font-size="11.00">routing__d8::routing</text>
<text text-anchor="middle" x="56.9253" y="-6.7" font-family="Helvetica,sans-Serif" font-size="11.00">_d8_initialize</text>
</g>
<!-- Node8 -->
<g id="node2" class="node"><title>Node8</title>
<g id="a_node2"><a xlink:href="namespacemodel__domain.html#a18aeded59e98fc5ba71f5b4d6b53d732" target="_top" xlink:title="model_domain::model\l_initialize_routing_d8">
<polygon fill="white" stroke="black" points="149.851,-0.5 149.851,-30.5 274.078,-30.5 274.078,-0.5 149.851,-0.5"/>
<text text-anchor="start" x="157.851" y="-17.7" font-family="Helvetica,sans-Serif" font-size="11.00">model_domain::model</text>
<text text-anchor="middle" x="211.964" y="-6.7" font-family="Helvetica,sans-Serif" font-size="11.00">_initialize_routing_d8</text>
</a>
</g>
</g>
<!-- Node7&#45;&gt;Node8 -->
<g id="edge1" class="edge"><title>Node7&#45;&gt;Node8</title>
<path fill="none" stroke="midnightblue" d="M124.244,-15.5C132.7,-15.5 141.325,-15.5 149.696,-15.5"/>
<polygon fill="midnightblue" stroke="midnightblue" points="124.042,-12.0001 114.042,-15.5 124.042,-19.0001 124.042,-12.0001"/>
</g>
<!-- Node9 -->
<g id="node3" class="node"><title>Node9</title>
<g id="a_node3"><a xlink:href="namespacemodel__domain.html#aac78dbf26ba37cf86ebed4edd7acf89b" target="_top" xlink:title="model_domain::set_method\l_pointers_sub">
<polygon fill="white" stroke="black" points="310.078,-0.5 310.078,-30.5 461.827,-30.5 461.827,-0.5 310.078,-0.5"/>
<text text-anchor="start" x="318.078" y="-17.7" font-family="Helvetica,sans-Serif" font-size="11.00">model_domain::set_method</text>
<text text-anchor="middle" x="385.953" y="-6.7" font-family="Helvetica,sans-Serif" font-size="11.00">_pointers_sub</text>
</a>
</g>
</g>
<!-- Node8&#45;&gt;Node9 -->
<g id="edge2" class="edge"><title>Node8&#45;&gt;Node9</title>
<path fill="none" stroke="midnightblue" d="M284.275,-15.5C292.727,-15.5 301.374,-15.5 309.876,-15.5"/>
<polygon fill="midnightblue" stroke="midnightblue" points="284.085,-12.0001 274.085,-15.5 284.085,-19.0001 284.085,-12.0001"/>
</g>
</g>
</svg>
