<?xml version="1.0" encoding="UTF-8" standalone="no"?>
<!DOCTYPE svg PUBLIC "-//W3C//DTD SVG 1.1//EN"
 "http://www.w3.org/Graphics/SVG/1.1/DTD/svg11.dtd">
<!-- Generated by graphviz version 2.38.0 (20140413.2041)
 -->
<!-- Title: solar_calculations::net_longwave_radiation__rnl Pages: 1 -->
<svg width="386pt" height="39pt"
 viewBox="0.00 0.00 386.05 39.00" xmlns="http://www.w3.org/2000/svg" xmlns:xlink="http://www.w3.org/1999/xlink">
<g id="graph0" class="graph" transform="scale(1 1) rotate(0) translate(4 35)">
<title>solar_calculations::net_longwave_radiation__rnl</title>
<polygon fill="white" stroke="none" points="-4,4 -4,-35 382.052,-35 382.052,4 -4,4"/>
<!-- Node1 -->
<g id="node1" class="node"><title>Node1</title>
<polygon fill="#bfbfbf" stroke="black" points="0,-0.5 0,-30.5 162.771,-30.5 162.771,-0.5 0,-0.5"/>
<text text-anchor="start" x="8" y="-17.7" font-family="Helvetica,sans-Serif" font-size="11.00">solar_calculations</text>
<text text-anchor="middle" x="81.3853" y="-6.7" font-family="Helvetica,sans-Serif" font-size="11.00">::net_longwave_radiation__rnl</text>
</g>
<!-- Node2 -->
<g id="node2" class="node"><title>Node2</title>
<g id="a_node2"><a xlink:href="namespacemeteorological__calculations.html#a5c5831acd9232b996c066e240f0080f7" target="_top" xlink:title="Calculate dewpoint vapor pressure. ">
<polygon fill="white" stroke="black" points="198.771,-0.5 198.771,-30.5 378.052,-30.5 378.052,-0.5 198.771,-0.5"/>
<text text-anchor="start" x="206.771" y="-17.7" font-family="Helvetica,sans-Serif" font-size="11.00">meteorological_calculations</text>
<text text-anchor="middle" x="288.411" y="-6.7" font-family="Helvetica,sans-Serif" font-size="11.00">::dewpoint_vapor_pressure__e_a</text>
</a>
</g>
</g>
<!-- Node1&#45;&gt;Node2 -->
<g id="edge1" class="edge"><title>Node1&#45;&gt;Node2</title>
<path fill="none" stroke="midnightblue" d="M162.828,-15.5C171.295,-15.5 179.972,-15.5 188.614,-15.5"/>
<polygon fill="midnightblue" stroke="midnightblue" points="188.729,-19.0001 198.729,-15.5 188.729,-12.0001 188.729,-19.0001"/>
</g>
</g>
</svg>
