<?xml version="1.0" encoding="UTF-8" standalone="no"?>
<!DOCTYPE svg PUBLIC "-//W3C//DTD SVG 1.1//EN"
 "http://www.w3.org/Graphics/SVG/1.1/DTD/svg11.dtd">
<!-- Generated by graphviz version 2.38.0 (20140413.2041)
 -->
<!-- Title: grid::grid_majorityfilter_int Pages: 1 -->
<svg width="466pt" height="77pt"
 viewBox="0.00 0.00 465.52 77.00" xmlns="http://www.w3.org/2000/svg" xmlns:xlink="http://www.w3.org/1999/xlink">
<g id="graph0" class="graph" transform="scale(1 1) rotate(0) translate(4 73)">
<title>grid::grid_majorityfilter_int</title>
<polygon fill="white" stroke="none" points="-4,4 -4,-73 461.525,-73 461.525,4 -4,4"/>
<!-- Node240 -->
<g id="node1" class="node"><title>Node240</title>
<polygon fill="#bfbfbf" stroke="black" points="0,-19.5 0,-38.5 141.936,-38.5 141.936,-19.5 0,-19.5"/>
<text text-anchor="middle" x="70.968" y="-25.7" font-family="Helvetica,sans-Serif" font-size="11.00">grid::grid_majorityfilter_int</text>
</g>
<!-- Node241 -->
<g id="node2" class="node"><title>Node241</title>
<g id="a_node2"><a xlink:href="namespacegrid.html#afa350ce941557d82c522ed95e7758c44" target="_top" xlink:title="grid::grid_gridtogrid_int">
<polygon fill="white" stroke="black" points="180.691,-38.5 180.691,-57.5 309.2,-57.5 309.2,-38.5 180.691,-38.5"/>
<text text-anchor="middle" x="244.946" y="-44.7" font-family="Helvetica,sans-Serif" font-size="11.00">grid::grid_gridtogrid_int</text>
</a>
</g>
</g>
<!-- Node240&#45;&gt;Node241 -->
<g id="edge1" class="edge"><title>Node240&#45;&gt;Node241</title>
<path fill="none" stroke="midnightblue" d="M152.544,-37.9019C161.929,-38.9389 171.402,-39.9854 180.511,-40.9917"/>
<polygon fill="midnightblue" stroke="midnightblue" points="152.738,-34.4022 142.414,-36.7828 151.969,-41.3599 152.738,-34.4022"/>
</g>
<!-- Node243 -->
<g id="node4" class="node"><title>Node243</title>
<g id="a_node4"><a xlink:href="namespacegrid.html#a565a676f138a2e48293c5bfadf0d539e" target="_top" xlink:title="grid::grid_gridtopoint_int">
<polygon fill="white" stroke="black" points="177.936,-0.5 177.936,-19.5 311.955,-19.5 311.955,-0.5 177.936,-0.5"/>
<text text-anchor="middle" x="244.946" y="-6.7" font-family="Helvetica,sans-Serif" font-size="11.00">grid::grid_gridtopoint_int</text>
</a>
</g>
</g>
<!-- Node240&#45;&gt;Node243 -->
<g id="edge3" class="edge"><title>Node240&#45;&gt;Node243</title>
<path fill="none" stroke="midnightblue" d="M152.627,-20.0888C161.046,-19.1587 169.533,-18.2211 177.764,-17.3117"/>
<polygon fill="midnightblue" stroke="midnightblue" points="151.969,-16.6401 142.414,-21.2172 152.738,-23.5978 151.969,-16.6401"/>
</g>
<!-- Node242 -->
<g id="node3" class="node"><title>Node242</title>
<g id="a_node3"><a xlink:href="namespacedata__catalog__entry.html#aacf51804adb730b5710c4060576a7948" target="_top" xlink:title="data_catalog_entry\l::transform_grid_to\l_grid_sub">
<polygon fill="white" stroke="black" points="347.955,-27.5 347.955,-68.5 457.525,-68.5 457.525,-27.5 347.955,-27.5"/>
<text text-anchor="start" x="355.955" y="-55.7" font-family="Helvetica,sans-Serif" font-size="11.00">data_catalog_entry</text>
<text text-anchor="start" x="355.955" y="-44.7" font-family="Helvetica,sans-Serif" font-size="11.00">::transform_grid_to</text>
<text text-anchor="middle" x="402.74" y="-33.7" font-family="Helvetica,sans-Serif" font-size="11.00">_grid_sub</text>
</a>
</g>
</g>
<!-- Node241&#45;&gt;Node242 -->
<g id="edge2" class="edge"><title>Node241&#45;&gt;Node242</title>
<path fill="none" stroke="midnightblue" d="M319.605,-48C329.145,-48 338.771,-48 347.906,-48"/>
<polygon fill="midnightblue" stroke="midnightblue" points="319.313,-44.5001 309.313,-48 319.313,-51.5001 319.313,-44.5001"/>
</g>
</g>
</svg>
