<?xml version="1.0" encoding="UTF-8" standalone="no"?>
<!DOCTYPE svg PUBLIC "-//W3C//DTD SVG 1.1//EN"
 "http://www.w3.org/Graphics/SVG/1.1/DTD/svg11.dtd">
<!-- Generated by graphviz version 2.38.0 (20140413.2041)
 -->
<!-- Title: model_domain::model_initialize_growing_season Pages: 1 -->
<!--zoomable 66 -->
<svg id="main" version="1.1" xmlns="http://www.w3.org/2000/svg" xmlns:xlink="http://www.w3.org/1999/xlink" xml:space="preserve" onload="init(evt)">
<style type="text/css"><![CDATA[
.edge:hover path { stroke: red; }
.edge:hover polygon { stroke: red; fill: red; }
]]></style>
<script type="text/javascript"><![CDATA[
var edges = document.getElementsByTagName('g');
if (edges && edges.length) {
  for (var i=0;i<edges.length;i++) {
    if (edges[i].id.substr(0,4)=='edge') {
      edges[i].setAttribute('class','edge');
    }
  }
}
]]></script>
        <defs>
                <circle id="rim" cx="0" cy="0" r="7"/>
                <circle id="rim2" cx="0" cy="0" r="3.5"/>
                <g id="zoomPlus">
                        <use xlink:href="#rim" fill="#404040">
                                <set attributeName="fill" to="#808080" begin="zoomplus.mouseover" end="zoomplus.mouseout"/>
                        </use>
                        <path d="M-4,0h8M0,-4v8" fill="none" stroke="white" stroke-width="1.5" pointer-events="none"/>
                </g>
                <g id="zoomMin">
                        <use xlink:href="#rim" fill="#404040">
                                <set attributeName="fill" to="#808080" begin="zoomminus.mouseover" end="zoomminus.mouseout"/>
                        </use>
                        <path d="M-4,0h8" fill="none" stroke="white" stroke-width="1.5" pointer-events="none"/>
                </g>
                <g id="dirArrow">
                        <path fill="none" stroke="white" stroke-width="1.5" d="M0,-3.0v7 M-2.5,-0.5L0,-3.0L2.5,-0.5"/>
                </g>
               <g id="resetDef">
                       <use xlink:href="#rim2" fill="#404040">
                               <set attributeName="fill" to="#808080" begin="reset.mouseover" end="reset.mouseout"/>
                       </use>
               </g>
        </defs>

<script type="text/javascript">
var viewWidth = 614;
var viewHeight = 66;
var sectionId = 'dynsection-53';
</script>
<script xlink:href="svgpan.js"/>
<svg id="graph" class="graph">
<g id="viewport">
<title>model_domain::model_initialize_growing_season</title>
<polygon fill="white" stroke="none" points="-4,4 -4,-62 609.528,-62 609.528,4 -4,4"/>
<!-- Node331 -->
<g id="node1" class="node"><title>Node331</title>
<polygon fill="#bfbfbf" stroke="black" points="0,-8.5 0,-49.5 124.228,-49.5 124.228,-8.5 0,-8.5"/>
<text text-anchor="start" x="8" y="-36.7" font-family="Helvetica,sans-Serif" font-size="11.00">model_domain::model</text>
<text text-anchor="start" x="8" y="-25.7" font-family="Helvetica,sans-Serif" font-size="11.00">_initialize_growing</text>
<text text-anchor="middle" x="62.1138" y="-14.7" font-family="Helvetica,sans-Serif" font-size="11.00">_season</text>
</g>
<!-- Node332 -->
<g id="node2" class="node"><title>Node332</title>
<g id="a_node2"><a xlink:href="namespacegrowing__season.html#add2a4f3df5a65bcd0406e7a24f8493f7" target="_top" xlink:title="growing_season::growing\l_season_initialize">
<polygon fill="white" stroke="black" points="160.228,-14 160.228,-44 300.971,-44 300.971,-14 160.228,-14"/>
<text text-anchor="start" x="168.228" y="-31.2" font-family="Helvetica,sans-Serif" font-size="11.00">growing_season::growing</text>
<text text-anchor="middle" x="230.599" y="-20.2" font-family="Helvetica,sans-Serif" font-size="11.00">_season_initialize</text>
</a>
</g>
</g>
<!-- Node331&#45;&gt;Node332 -->
<g id="edge1" class="edge"><title>Node331&#45;&gt;Node332</title>
<path fill="none" stroke="midnightblue" d="M124.634,-29C132.956,-29 141.589,-29 150.169,-29"/>
<polygon fill="midnightblue" stroke="midnightblue" points="150.193,-32.5001 160.193,-29 150.193,-25.5001 150.193,-32.5001"/>
</g>
<!-- Node333 -->
<g id="node3" class="node"><title>Node333</title>
<g id="a_node3"><a xlink:href="namespacedatetime.html#a45ad8eb2d0529ecfc6bcb3671ebc8415" target="_top" xlink:title="datetime::mmdd2doy">
<polygon fill="white" stroke="black" points="336.971,-38.5 336.971,-57.5 455.688,-57.5 455.688,-38.5 336.971,-38.5"/>
<text text-anchor="middle" x="396.33" y="-44.7" font-family="Helvetica,sans-Serif" font-size="11.00">datetime::mmdd2doy</text>
</a>
</g>
</g>
<!-- Node332&#45;&gt;Node333 -->
<g id="edge2" class="edge"><title>Node332&#45;&gt;Node333</title>
<path fill="none" stroke="midnightblue" d="M301.036,-37.0577C309.618,-38.0536 318.387,-39.0712 326.953,-40.0653"/>
<polygon fill="midnightblue" stroke="midnightblue" points="326.556,-43.5426 336.893,-41.2187 327.363,-36.5893 326.556,-43.5426"/>
</g>
<!-- Node335 -->
<g id="node5" class="node"><title>Node335</title>
<g id="a_node5"><a xlink:href="namespaceexceptions.html#a84dd04476b06e0a398bfe6d106a82a4d" target="_top" xlink:title="exceptions::warn">
<polygon fill="white" stroke="black" points="347.058,-0.5 347.058,-19.5 445.601,-19.5 445.601,-0.5 347.058,-0.5"/>
<text text-anchor="middle" x="396.33" y="-6.7" font-family="Helvetica,sans-Serif" font-size="11.00">exceptions::warn</text>
</a>
</g>
</g>
<!-- Node332&#45;&gt;Node335 -->
<g id="edge4" class="edge"><title>Node332&#45;&gt;Node335</title>
<path fill="none" stroke="midnightblue" d="M301.036,-20.9423C312.9,-19.5655 325.121,-18.1473 336.67,-16.8071"/>
<polygon fill="midnightblue" stroke="midnightblue" points="337.091,-20.2819 346.621,-15.6524 336.284,-13.3285 337.091,-20.2819"/>
</g>
<!-- Node334 -->
<g id="node4" class="node"><title>Node334</title>
<g id="a_node4"><a xlink:href="namespacedatetime.html#a9ac1a0a808a83a072ebc08cf0b3b4d8a" target="_top" xlink:title="datetime::julian_day">
<polygon fill="white" stroke="black" points="491.688,-38.5 491.688,-57.5 605.528,-57.5 605.528,-38.5 491.688,-38.5"/>
<text text-anchor="middle" x="548.608" y="-44.7" font-family="Helvetica,sans-Serif" font-size="11.00">datetime::julian_day</text>
</a>
</g>
</g>
<!-- Node333&#45;&gt;Node334 -->
<g id="edge3" class="edge"><title>Node333&#45;&gt;Node334</title>
<path fill="none" stroke="midnightblue" d="M455.861,-48C464.181,-48 472.787,-48 481.243,-48"/>
<polygon fill="midnightblue" stroke="midnightblue" points="481.453,-51.5001 491.453,-48 481.453,-44.5001 481.453,-51.5001"/>
</g>
</g>
</svg>
        <g id="navigator" transform="translate(0 0)" fill="#404254">
                <rect fill="#f2f5e9" fill-opacity="0.5" stroke="#606060" stroke-width=".5" x="0" y="0" width="60" height="60"/>
                <use id="zoomplus" xlink:href="#zoomPlus" x="17" y="9" onmousedown="handleZoom(evt,'in')"/>
                <use id="zoomminus" xlink:href="#zoomMin" x="42" y="9" onmousedown="handleZoom(evt,'out')"/>
                <use id="reset" xlink:href="#resetDef" x="30" y="36" onmousedown="handleReset()"/>
                <g id="arrowUp" xlink:href="#dirArrow" transform="translate(30 24)" onmousedown="handlePan(0,-1)">
                  <use xlink:href="#rim" fill="#404040">
                        <set attributeName="fill" to="#808080" begin="arrowUp.mouseover" end="arrowUp.mouseout"/>
                  </use>
                  <path fill="none" stroke="white" stroke-width="1.5" d="M0,-3.0v7 M-2.5,-0.5L0,-3.0L2.5,-0.5"/>
                </g>
                <g id="arrowRight" xlink:href="#dirArrow" transform="rotate(90) translate(36 -43)" onmousedown="handlePan(1,0)">
                  <use xlink:href="#rim" fill="#404040">
                        <set attributeName="fill" to="#808080" begin="arrowRight.mouseover" end="arrowRight.mouseout"/>
                  </use>
                  <path fill="none" stroke="white" stroke-width="1.5" d="M0,-3.0v7 M-2.5,-0.5L0,-3.0L2.5,-0.5"/>
                </g>
                <g id="arrowDown" xlink:href="#dirArrow" transform="rotate(180) translate(-30 -48)" onmousedown="handlePan(0,1)">
                  <use xlink:href="#rim" fill="#404040">
                        <set attributeName="fill" to="#808080" begin="arrowDown.mouseover" end="arrowDown.mouseout"/>
                  </use>
                  <path fill="none" stroke="white" stroke-width="1.5" d="M0,-3.0v7 M-2.5,-0.5L0,-3.0L2.5,-0.5"/>
                </g>
                <g id="arrowLeft" xlink:href="#dirArrow" transform="rotate(270) translate(-36 17)" onmousedown="handlePan(-1,0)">
                  <use xlink:href="#rim" fill="#404040">
                        <set attributeName="fill" to="#808080" begin="arrowLeft.mouseover" end="arrowLeft.mouseout"/>
                  </use>
                  <path fill="none" stroke="white" stroke-width="1.5" d="M0,-3.0v7 M-2.5,-0.5L0,-3.0L2.5,-0.5"/>
                </g>
        </g>
        <svg viewBox="0 0 15 15" width="100%" height="30px" preserveAspectRatio="xMaxYMin meet">
         <g id="arrow_out" transform="scale(0.3 0.3)">
          <a xlink:href="namespacemodel__domain_ae57b872047925a2673ad1c369a759d42_cgraph_org.svg" target="_base">
           <rect id="button" ry="5" rx="5" y="6" x="6" height="38" width="38"
                fill="#f2f5e9" fill-opacity="0.5" stroke="#606060" stroke-width="1.0"/>
           <path id="arrow"
             d="M 11.500037,31.436501 C 11.940474,20.09759 22.043105,11.32322 32.158766,21.979434 L 37.068811,17.246167 C 37.068811,17.246167 37.088388,32 37.088388,32 L 22.160133,31.978069 C 22.160133,31.978069 26.997745,27.140456 26.997745,27.140456 C 18.528582,18.264221 13.291696,25.230495 11.500037,31.436501 z"
             style="fill:#404040;"/>
          </a>
         </g>
        </svg>
</svg>
