<?xml version="1.0" encoding="UTF-8" standalone="no"?>
<!DOCTYPE svg PUBLIC "-//W3C//DTD SVG 1.1//EN"
 "http://www.w3.org/Graphics/SVG/1.1/DTD/svg11.dtd">
<!-- Generated by graphviz version 2.38.0 (20140413.2041)
 -->
<!-- Title: direct_soil_moisture__gridded_data::direct_soil_moisture_initialize Pages: 1 -->
<svg width="275pt" height="50pt"
 viewBox="0.00 0.00 274.71 50.00" xmlns="http://www.w3.org/2000/svg" xmlns:xlink="http://www.w3.org/1999/xlink">
<g id="graph0" class="graph" transform="scale(1 1) rotate(0) translate(4 46)">
<title>direct_soil_moisture__gridded_data::direct_soil_moisture_initialize</title>
<polygon fill="white" stroke="none" points="-4,4 -4,-46 270.709,-46 270.709,4 -4,4"/>
<!-- Node1 -->
<g id="node1" class="node"><title>Node1</title>
<polygon fill="#bfbfbf" stroke="black" points="0,-0.5 0,-41.5 132.166,-41.5 132.166,-0.5 0,-0.5"/>
<text text-anchor="start" x="8" y="-28.7" font-family="Helvetica,sans-Serif" font-size="11.00">direct_soil_moisture</text>
<text text-anchor="start" x="8" y="-17.7" font-family="Helvetica,sans-Serif" font-size="11.00">__gridded_data::direct</text>
<text text-anchor="middle" x="66.083" y="-6.7" font-family="Helvetica,sans-Serif" font-size="11.00">_soil_moisture_initialize</text>
</g>
<!-- Node2 -->
<g id="node2" class="node"><title>Node2</title>
<g id="a_node2"><a xlink:href="namespaceexceptions.html#a84dd04476b06e0a398bfe6d106a82a4d" target="_top" xlink:title="exceptions::warn">
<polygon fill="white" stroke="black" points="168.166,-11.5 168.166,-30.5 266.709,-30.5 266.709,-11.5 168.166,-11.5"/>
<text text-anchor="middle" x="217.438" y="-17.7" font-family="Helvetica,sans-Serif" font-size="11.00">exceptions::warn</text>
</a>
</g>
</g>
<!-- Node1&#45;&gt;Node2 -->
<g id="edge1" class="edge"><title>Node1&#45;&gt;Node2</title>
<path fill="none" stroke="midnightblue" d="M132.592,-21C141.062,-21 149.691,-21 158.036,-21"/>
<polygon fill="midnightblue" stroke="midnightblue" points="158.043,-24.5001 168.043,-21 158.043,-17.5001 158.043,-24.5001"/>
</g>
</g>
</svg>
