<?xml version="1.0" encoding="UTF-8" standalone="no"?>
<!DOCTYPE svg PUBLIC "-//W3C//DTD SVG 1.1//EN"
 "http://www.w3.org/Graphics/SVG/1.1/DTD/svg11.dtd">
<!-- Generated by graphviz version 2.38.0 (20140413.2041)
 -->
<!-- Title: netcdf4_support::netcdf_close_file Pages: 1 -->
<svg width="499pt" height="39pt"
 viewBox="0.00 0.00 498.58 39.00" xmlns="http://www.w3.org/2000/svg" xmlns:xlink="http://www.w3.org/1999/xlink">
<g id="graph0" class="graph" transform="scale(1 1) rotate(0) translate(4 35)">
<title>netcdf4_support::netcdf_close_file</title>
<polygon fill="white" stroke="none" points="-4,4 -4,-35 494.584,-35 494.584,4 -4,4"/>
<!-- Node1 -->
<g id="node1" class="node"><title>Node1</title>
<polygon fill="#bfbfbf" stroke="black" points="0,-0.5 0,-30.5 130.968,-30.5 130.968,-0.5 0,-0.5"/>
<text text-anchor="start" x="8" y="-17.7" font-family="Helvetica,sans-Serif" font-size="11.00">netcdf4_support::netcdf</text>
<text text-anchor="middle" x="65.4841" y="-6.7" font-family="Helvetica,sans-Serif" font-size="11.00">_close_file</text>
</g>
<!-- Node2 -->
<g id="node2" class="node"><title>Node2</title>
<g id="a_node2"><a xlink:href="namespacenetcdf4__support.html#ac8c7276a5849ae6d17ffef1787e3f234" target="_top" xlink:title="netcdf4_support::nf_trap">
<polygon fill="white" stroke="black" points="166.968,-6 166.968,-25 302.217,-25 302.217,-6 166.968,-6"/>
<text text-anchor="middle" x="234.593" y="-12.2" font-family="Helvetica,sans-Serif" font-size="11.00">netcdf4_support::nf_trap</text>
</a>
</g>
</g>
<!-- Node1&#45;&gt;Node2 -->
<g id="edge1" class="edge"><title>Node1&#45;&gt;Node2</title>
<path fill="none" stroke="midnightblue" d="M131.093,-15.5C139.542,-15.5 148.265,-15.5 156.889,-15.5"/>
<polygon fill="midnightblue" stroke="midnightblue" points="156.947,-19.0001 166.947,-15.5 156.947,-12.0001 156.947,-19.0001"/>
</g>
<!-- Node3 -->
<g id="node3" class="node"><title>Node3</title>
<g id="a_node3"><a xlink:href="namespaceconstants__and__conversions.html#ac13fba285229deab77131132e6f62caf" target="_top" xlink:title="constants_and_conversions\l::char_ptr_to_fortran_string">
<polygon fill="white" stroke="black" points="338.217,-0.5 338.217,-30.5 490.584,-30.5 490.584,-0.5 338.217,-0.5"/>
<text text-anchor="start" x="346.217" y="-17.7" font-family="Helvetica,sans-Serif" font-size="11.00">constants_and_conversions</text>
<text text-anchor="middle" x="414.401" y="-6.7" font-family="Helvetica,sans-Serif" font-size="11.00">::char_ptr_to_fortran_string</text>
</a>
</g>
</g>
<!-- Node2&#45;&gt;Node3 -->
<g id="edge2" class="edge"><title>Node2&#45;&gt;Node3</title>
<path fill="none" stroke="midnightblue" d="M302.308,-15.5C310.665,-15.5 319.302,-15.5 327.897,-15.5"/>
<polygon fill="midnightblue" stroke="midnightblue" points="327.948,-19.0001 337.948,-15.5 327.948,-12.0001 327.948,-19.0001"/>
</g>
</g>
</svg>
