<?xml version="1.0" encoding="UTF-8" standalone="no"?>
<!DOCTYPE svg PUBLIC "-//W3C//DTD SVG 1.1//EN"
 "http://www.w3.org/Graphics/SVG/1.1/DTD/svg11.dtd">
<!-- Generated by graphviz version 2.38.0 (20140413.2041)
 -->
<!-- Title: netcdf4_support::nf_set_start_count_stride Pages: 1 -->
<svg width="680pt" height="133pt"
 viewBox="0.00 0.00 679.64 133.00" xmlns="http://www.w3.org/2000/svg" xmlns:xlink="http://www.w3.org/1999/xlink">
<g id="graph0" class="graph" transform="scale(1 1) rotate(0) translate(4 129)">
<title>netcdf4_support::nf_set_start_count_stride</title>
<polygon fill="white" stroke="none" points="-4,4 -4,-129 675.641,-129 675.641,4 -4,4"/>
<!-- Node1 -->
<g id="node1" class="node"><title>Node1</title>
<polygon fill="#bfbfbf" stroke="black" points="0,-33 0,-63 130.345,-63 130.345,-33 0,-33"/>
<text text-anchor="start" x="8" y="-50.2" font-family="Helvetica,sans-Serif" font-size="11.00">netcdf4_support::nf</text>
<text text-anchor="middle" x="65.1726" y="-39.2" font-family="Helvetica,sans-Serif" font-size="11.00">_set_start_count_stride</text>
</g>
<!-- Node2 -->
<g id="node2" class="node"><title>Node2</title>
<g id="a_node2"><a xlink:href="namespacenetcdf4__support.html#a137d06ed171ec8d77e5af2fbb44b0c4c" target="_top" xlink:title="netcdf4_support::netcdf\l_open_and_prepare_as_input">
<polygon fill="white" stroke="black" points="166.345,-61 166.345,-91 329.143,-91 329.143,-61 166.345,-61"/>
<text text-anchor="start" x="174.345" y="-78.2" font-family="Helvetica,sans-Serif" font-size="11.00">netcdf4_support::netcdf</text>
<text text-anchor="middle" x="247.744" y="-67.2" font-family="Helvetica,sans-Serif" font-size="11.00">_open_and_prepare_as_input</text>
</a>
</g>
</g>
<!-- Node1&#45;&gt;Node2 -->
<g id="edge1" class="edge"><title>Node1&#45;&gt;Node2</title>
<path fill="none" stroke="midnightblue" d="M140.745,-59.5635C149.157,-60.8678 157.756,-62.2013 166.239,-63.5167"/>
<polygon fill="midnightblue" stroke="midnightblue" points="141.016,-56.0638 130.598,-57.9901 139.944,-62.9811 141.016,-56.0638"/>
</g>
<!-- Node6 -->
<g id="node6" class="node"><title>Node6</title>
<g id="a_node6"><a xlink:href="namespacenetcdf4__support.html#a8be734b602e654816c17b5e27d0fbffb" target="_top" xlink:title="netcdf4_support::netcdf\l_open_and_prepare_for\l_merging">
<polygon fill="white" stroke="black" points="180.721,-0.5 180.721,-41.5 314.767,-41.5 314.767,-0.5 180.721,-0.5"/>
<text text-anchor="start" x="188.721" y="-28.7" font-family="Helvetica,sans-Serif" font-size="11.00">netcdf4_support::netcdf</text>
<text text-anchor="start" x="188.721" y="-17.7" font-family="Helvetica,sans-Serif" font-size="11.00">_open_and_prepare_for</text>
<text text-anchor="middle" x="247.744" y="-6.7" font-family="Helvetica,sans-Serif" font-size="11.00">_merging</text>
</a>
</g>
</g>
<!-- Node1&#45;&gt;Node6 -->
<g id="edge6" class="edge"><title>Node1&#45;&gt;Node6</title>
<path fill="none" stroke="midnightblue" d="M140.604,-36.8706C153.834,-34.8924 167.532,-32.8441 180.515,-30.9029"/>
<polygon fill="midnightblue" stroke="midnightblue" points="139.971,-33.4263 130.598,-38.3667 141.006,-40.3493 139.971,-33.4263"/>
</g>
<!-- Node3 -->
<g id="node3" class="node"><title>Node3</title>
<g id="a_node3"><a xlink:href="namespacedata__catalog__entry.html#aeb285131f87ed64deba0a9041a9c6405" target="_top" xlink:title="data_catalog_entry\l::getvalues_dynamic\l_netcdf_sub">
<polygon fill="white" stroke="black" points="387.468,-83.5 387.468,-124.5 503.746,-124.5 503.746,-83.5 387.468,-83.5"/>
<text text-anchor="start" x="395.468" y="-111.7" font-family="Helvetica,sans-Serif" font-size="11.00">data_catalog_entry</text>
<text text-anchor="start" x="395.468" y="-100.7" font-family="Helvetica,sans-Serif" font-size="11.00">::getvalues_dynamic</text>
<text text-anchor="middle" x="445.607" y="-89.7" font-family="Helvetica,sans-Serif" font-size="11.00">_netcdf_sub</text>
</a>
</g>
</g>
<!-- Node2&#45;&gt;Node3 -->
<g id="edge2" class="edge"><title>Node2&#45;&gt;Node3</title>
<path fill="none" stroke="midnightblue" d="M339.39,-88.9585C355.747,-91.2968 372.376,-93.6741 387.439,-95.8275"/>
<polygon fill="midnightblue" stroke="midnightblue" points="339.651,-85.4604 329.257,-87.5099 338.661,-92.3899 339.651,-85.4604"/>
</g>
<!-- Node5 -->
<g id="node5" class="node"><title>Node5</title>
<g id="a_node5"><a xlink:href="namespacedata__catalog__entry.html#ac3e1f0d9d9e146fbb77c0084e1e9fc14" target="_top" xlink:title="data_catalog_entry\l::getvalues_static_netcdf_sub">
<polygon fill="white" stroke="black" points="365.143,-34 365.143,-64 526.071,-64 526.071,-34 365.143,-34"/>
<text text-anchor="start" x="373.143" y="-51.2" font-family="Helvetica,sans-Serif" font-size="11.00">data_catalog_entry</text>
<text text-anchor="middle" x="445.607" y="-40.2" font-family="Helvetica,sans-Serif" font-size="11.00">::getvalues_static_netcdf_sub</text>
</a>
</g>
</g>
<!-- Node2&#45;&gt;Node5 -->
<g id="edge4" class="edge"><title>Node2&#45;&gt;Node5</title>
<path fill="none" stroke="midnightblue" d="M339.294,-63.5175C347.889,-62.3327 356.559,-61.1375 365.039,-59.9686"/>
<polygon fill="midnightblue" stroke="midnightblue" points="338.685,-60.0683 329.257,-64.9012 339.641,-67.0027 338.685,-60.0683"/>
</g>
<!-- Node4 -->
<g id="node4" class="node"><title>Node4</title>
<g id="a_node4"><a xlink:href="namespacedata__catalog__entry.html#a9e0a89ab19a5bfd61f2dfb8265648234" target="_top" xlink:title="data_catalog_entry\l::getvalues_sub">
<polygon fill="white" stroke="black" points="562.071,-61 562.071,-91 671.641,-91 671.641,-61 562.071,-61"/>
<text text-anchor="start" x="570.071" y="-78.2" font-family="Helvetica,sans-Serif" font-size="11.00">data_catalog_entry</text>
<text text-anchor="middle" x="616.856" y="-67.2" font-family="Helvetica,sans-Serif" font-size="11.00">::getvalues_sub</text>
</a>
</g>
</g>
<!-- Node3&#45;&gt;Node4 -->
<g id="edge3" class="edge"><title>Node3&#45;&gt;Node4</title>
<path fill="none" stroke="midnightblue" d="M514.209,-92.8161C530.108,-90.1858 546.843,-87.4172 562.043,-84.9027"/>
<polygon fill="midnightblue" stroke="midnightblue" points="513.201,-89.4351 503.907,-94.5205 514.344,-96.3413 513.201,-89.4351"/>
</g>
<!-- Node5&#45;&gt;Node4 -->
<g id="edge5" class="edge"><title>Node5&#45;&gt;Node4</title>
<path fill="none" stroke="midnightblue" d="M536.413,-63.3267C545.039,-64.7028 553.593,-66.0674 561.715,-67.3631"/>
<polygon fill="midnightblue" stroke="midnightblue" points="536.702,-59.8285 526.275,-61.7094 535.599,-66.7411 536.702,-59.8285"/>
</g>
</g>
</svg>
