<?xml version="1.0" encoding="UTF-8" standalone="no"?>
<!DOCTYPE svg PUBLIC "-//W3C//DTD SVG 1.1//EN"
 "http://www.w3.org/Graphics/SVG/1.1/DTD/svg11.dtd">
<!-- Generated by graphviz version 2.38.0 (20140413.2041)
 -->
<!-- Title: netcdf4_support::nf_get_variable_vector_double Pages: 1 -->
<svg width="486pt" height="50pt"
 viewBox="0.00 0.00 485.74 50.00" xmlns="http://www.w3.org/2000/svg" xmlns:xlink="http://www.w3.org/1999/xlink">
<g id="graph0" class="graph" transform="scale(1 1) rotate(0) translate(4 46)">
<title>netcdf4_support::nf_get_variable_vector_double</title>
<polygon fill="white" stroke="none" points="-4,4 -4,-46 481.736,-46 481.736,4 -4,4"/>
<!-- Node1 -->
<g id="node1" class="node"><title>Node1</title>
<polygon fill="#bfbfbf" stroke="black" points="0,-0.5 0,-41.5 118.121,-41.5 118.121,-0.5 0,-0.5"/>
<text text-anchor="start" x="8" y="-28.7" font-family="Helvetica,sans-Serif" font-size="11.00">netcdf4_support::nf</text>
<text text-anchor="start" x="8" y="-17.7" font-family="Helvetica,sans-Serif" font-size="11.00">_get_variable_vector</text>
<text text-anchor="middle" x="59.0603" y="-6.7" font-family="Helvetica,sans-Serif" font-size="11.00">_double</text>
</g>
<!-- Node2 -->
<g id="node2" class="node"><title>Node2</title>
<g id="a_node2"><a xlink:href="namespacenetcdf4__support.html#ac8c7276a5849ae6d17ffef1787e3f234" target="_top" xlink:title="netcdf4_support::nf_trap">
<polygon fill="white" stroke="black" points="154.121,-11.5 154.121,-30.5 289.37,-30.5 289.37,-11.5 154.121,-11.5"/>
<text text-anchor="middle" x="221.745" y="-17.7" font-family="Helvetica,sans-Serif" font-size="11.00">netcdf4_support::nf_trap</text>
</a>
</g>
</g>
<!-- Node1&#45;&gt;Node2 -->
<g id="edge1" class="edge"><title>Node1&#45;&gt;Node2</title>
<path fill="none" stroke="midnightblue" d="M118.526,-21C126.692,-21 135.184,-21 143.628,-21"/>
<polygon fill="midnightblue" stroke="midnightblue" points="143.88,-24.5001 153.88,-21 143.88,-17.5001 143.88,-24.5001"/>
</g>
<!-- Node3 -->
<g id="node3" class="node"><title>Node3</title>
<g id="a_node3"><a xlink:href="namespaceconstants__and__conversions.html#ac13fba285229deab77131132e6f62caf" target="_top" xlink:title="constants_and_conversions\l::char_ptr_to_fortran_string">
<polygon fill="white" stroke="black" points="325.37,-6 325.37,-36 477.736,-36 477.736,-6 325.37,-6"/>
<text text-anchor="start" x="333.37" y="-23.2" font-family="Helvetica,sans-Serif" font-size="11.00">constants_and_conversions</text>
<text text-anchor="middle" x="401.553" y="-12.2" font-family="Helvetica,sans-Serif" font-size="11.00">::char_ptr_to_fortran_string</text>
</a>
</g>
</g>
<!-- Node2&#45;&gt;Node3 -->
<g id="edge2" class="edge"><title>Node2&#45;&gt;Node3</title>
<path fill="none" stroke="midnightblue" d="M289.46,-21C297.818,-21 306.455,-21 315.049,-21"/>
<polygon fill="midnightblue" stroke="midnightblue" points="315.1,-24.5001 325.1,-21 315.1,-17.5001 315.1,-24.5001"/>
</g>
</g>
</svg>
