<?xml version="1.0" encoding="UTF-8" standalone="no"?>
<!DOCTYPE svg PUBLIC "-//W3C//DTD SVG 1.1//EN"
 "http://www.w3.org/Graphics/SVG/1.1/DTD/svg11.dtd">
<!-- Generated by graphviz version 2.38.0 (20140413.2041)
 -->
<!-- Title: model_domain::model_initialize_gdd Pages: 1 -->
<svg width="598pt" height="50pt"
 viewBox="0.00 0.00 597.64 50.00" xmlns="http://www.w3.org/2000/svg" xmlns:xlink="http://www.w3.org/1999/xlink">
<g id="graph0" class="graph" transform="scale(1 1) rotate(0) translate(4 46)">
<title>model_domain::model_initialize_gdd</title>
<polygon fill="white" stroke="none" points="-4,4 -4,-46 593.64,-46 593.64,4 -4,4"/>
<!-- Node361 -->
<g id="node1" class="node"><title>Node361</title>
<polygon fill="#bfbfbf" stroke="black" points="0,-6 0,-36 124.228,-36 124.228,-6 0,-6"/>
<text text-anchor="start" x="8" y="-23.2" font-family="Helvetica,sans-Serif" font-size="11.00">model_domain::model</text>
<text text-anchor="middle" x="62.1138" y="-12.2" font-family="Helvetica,sans-Serif" font-size="11.00">_initialize_gdd</text>
</g>
<!-- Node362 -->
<g id="node2" class="node"><title>Node362</title>
<g id="a_node2"><a xlink:href="namespacegrowing__degree__day.html#a0e7f6a6149d6eb2f4aa96cadc1dc86de" target="_top" xlink:title="growing_degree_day\l::growing_degree_day\l_initialize">
<polygon fill="white" stroke="black" points="160.228,-0.5 160.228,-41.5 285.083,-41.5 285.083,-0.5 160.228,-0.5"/>
<text text-anchor="start" x="168.228" y="-28.7" font-family="Helvetica,sans-Serif" font-size="11.00">growing_degree_day</text>
<text text-anchor="start" x="168.228" y="-17.7" font-family="Helvetica,sans-Serif" font-size="11.00">::growing_degree_day</text>
<text text-anchor="middle" x="222.656" y="-6.7" font-family="Helvetica,sans-Serif" font-size="11.00">_initialize</text>
</a>
</g>
</g>
<!-- Node361&#45;&gt;Node362 -->
<g id="edge1" class="edge"><title>Node361&#45;&gt;Node362</title>
<path fill="none" stroke="midnightblue" d="M124.41,-21C132.711,-21 141.29,-21 149.755,-21"/>
<polygon fill="midnightblue" stroke="midnightblue" points="149.999,-24.5001 159.999,-21 149.999,-17.5001 149.999,-24.5001"/>
</g>
<!-- Node363 -->
<g id="node3" class="node"><title>Node363</title>
<g id="a_node3"><a xlink:href="namespacedatetime.html#a45ad8eb2d0529ecfc6bcb3671ebc8415" target="_top" xlink:title="datetime::mmdd2doy">
<polygon fill="white" stroke="black" points="321.083,-11.5 321.083,-30.5 439.8,-30.5 439.8,-11.5 321.083,-11.5"/>
<text text-anchor="middle" x="380.442" y="-17.7" font-family="Helvetica,sans-Serif" font-size="11.00">datetime::mmdd2doy</text>
</a>
</g>
</g>
<!-- Node362&#45;&gt;Node363 -->
<g id="edge2" class="edge"><title>Node362&#45;&gt;Node363</title>
<path fill="none" stroke="midnightblue" d="M285.226,-21C293.57,-21 302.176,-21 310.637,-21"/>
<polygon fill="midnightblue" stroke="midnightblue" points="310.858,-24.5001 320.858,-21 310.858,-17.5001 310.858,-24.5001"/>
</g>
<!-- Node364 -->
<g id="node4" class="node"><title>Node364</title>
<g id="a_node4"><a xlink:href="namespacedatetime.html#a9ac1a0a808a83a072ebc08cf0b3b4d8a" target="_top" xlink:title="datetime::julian_day">
<polygon fill="white" stroke="black" points="475.8,-11.5 475.8,-30.5 589.64,-30.5 589.64,-11.5 475.8,-11.5"/>
<text text-anchor="middle" x="532.72" y="-17.7" font-family="Helvetica,sans-Serif" font-size="11.00">datetime::julian_day</text>
</a>
</g>
</g>
<!-- Node363&#45;&gt;Node364 -->
<g id="edge3" class="edge"><title>Node363&#45;&gt;Node364</title>
<path fill="none" stroke="midnightblue" d="M439.974,-21C448.294,-21 456.899,-21 465.355,-21"/>
<polygon fill="midnightblue" stroke="midnightblue" points="465.565,-24.5001 475.565,-21 465.565,-17.5001 465.565,-24.5001"/>
</g>
</g>
</svg>
