<?xml version="1.0" encoding="UTF-8" standalone="no"?>
<!DOCTYPE svg PUBLIC "-//W3C//DTD SVG 1.1//EN"
 "http://www.w3.org/Graphics/SVG/1.1/DTD/svg11.dtd">
<!-- Generated by graphviz version 2.38.0 (20140413.2041)
 -->
<!-- Title: netcdf4_support::nf_get_variable_vector_float Pages: 1 -->
<svg width="841pt" height="152pt"
 viewBox="0.00 0.00 840.50 151.50" xmlns="http://www.w3.org/2000/svg" xmlns:xlink="http://www.w3.org/1999/xlink">
<g id="graph0" class="graph" transform="scale(1 1) rotate(0) translate(4 147.5)">
<title>netcdf4_support::nf_get_variable_vector_float</title>
<polygon fill="white" stroke="none" points="-4,4 -4,-147.5 836.502,-147.5 836.502,4 -4,4"/>
<!-- Node1 -->
<g id="node1" class="node"><title>Node1</title>
<polygon fill="#bfbfbf" stroke="black" points="0,-52.5 0,-82.5 145.03,-82.5 145.03,-52.5 0,-52.5"/>
<text text-anchor="start" x="8" y="-69.7" font-family="Helvetica,sans-Serif" font-size="11.00">netcdf4_support::nf</text>
<text text-anchor="middle" x="72.5149" y="-58.7" font-family="Helvetica,sans-Serif" font-size="11.00">_get_variable_vector_float</text>
</g>
<!-- Node2 -->
<g id="node2" class="node"><title>Node2</title>
<g id="a_node2"><a xlink:href="namespacenetcdf4__support.html#a3f9a545cd24a2c66040977e333152f3e" target="_top" xlink:title="netcdf4_support::nf\l_get_first_and_last">
<polygon fill="white" stroke="black" points="181.03,-52.5 181.03,-82.5 291.207,-82.5 291.207,-52.5 181.03,-52.5"/>
<text text-anchor="start" x="189.03" y="-69.7" font-family="Helvetica,sans-Serif" font-size="11.00">netcdf4_support::nf</text>
<text text-anchor="middle" x="236.118" y="-58.7" font-family="Helvetica,sans-Serif" font-size="11.00">_get_first_and_last</text>
</a>
</g>
</g>
<!-- Node1&#45;&gt;Node2 -->
<g id="edge1" class="edge"><title>Node1&#45;&gt;Node2</title>
<path fill="none" stroke="midnightblue" d="M155.477,-67.5C164.127,-67.5 172.76,-67.5 180.978,-67.5"/>
<polygon fill="midnightblue" stroke="midnightblue" points="155.338,-64.0001 145.338,-67.5 155.338,-71.0001 155.338,-64.0001"/>
</g>
<!-- Node3 -->
<g id="node3" class="node"><title>Node3</title>
<g id="a_node3"><a xlink:href="namespacenetcdf4__support.html#a8be734b602e654816c17b5e27d0fbffb" target="_top" xlink:title="netcdf4_support::netcdf\l_open_and_prepare_for\l_merging">
<polygon fill="white" stroke="black" points="341.582,-102 341.582,-143 475.628,-143 475.628,-102 341.582,-102"/>
<text text-anchor="start" x="349.582" y="-130.2" font-family="Helvetica,sans-Serif" font-size="11.00">netcdf4_support::netcdf</text>
<text text-anchor="start" x="349.582" y="-119.2" font-family="Helvetica,sans-Serif" font-size="11.00">_open_and_prepare_for</text>
<text text-anchor="middle" x="408.605" y="-108.2" font-family="Helvetica,sans-Serif" font-size="11.00">_merging</text>
</a>
</g>
</g>
<!-- Node2&#45;&gt;Node3 -->
<g id="edge2" class="edge"><title>Node2&#45;&gt;Node3</title>
<path fill="none" stroke="midnightblue" d="M293.512,-85.6928C309.625,-90.891 327.297,-96.5922 343.819,-101.922"/>
<polygon fill="midnightblue" stroke="midnightblue" points="294.296,-82.2683 283.705,-82.529 292.147,-88.9303 294.296,-82.2683"/>
</g>
<!-- Node4 -->
<g id="node4" class="node"><title>Node4</title>
<g id="a_node4"><a xlink:href="namespacenetcdf4__support.html#a137d06ed171ec8d77e5af2fbb44b0c4c" target="_top" xlink:title="netcdf4_support::netcdf\l_open_and_prepare_as_input">
<polygon fill="white" stroke="black" points="327.207,-3.5 327.207,-33.5 490.004,-33.5 490.004,-3.5 327.207,-3.5"/>
<text text-anchor="start" x="335.207" y="-20.7" font-family="Helvetica,sans-Serif" font-size="11.00">netcdf4_support::netcdf</text>
<text text-anchor="middle" x="408.605" y="-9.7" font-family="Helvetica,sans-Serif" font-size="11.00">_open_and_prepare_as_input</text>
</a>
</g>
</g>
<!-- Node2&#45;&gt;Node4 -->
<g id="edge3" class="edge"><title>Node2&#45;&gt;Node4</title>
<path fill="none" stroke="midnightblue" d="M299.378,-49.6059C317.715,-44.3356 337.586,-38.6245 355.236,-33.5516"/>
<polygon fill="midnightblue" stroke="midnightblue" points="298.305,-46.2724 289.661,-52.3986 300.239,-53 298.305,-46.2724"/>
</g>
<!-- Node8 -->
<g id="node8" class="node"><title>Node8</title>
<g id="a_node8"><a xlink:href="namespacenetcdf4__support.html#a7b3b3cf3aab614eb336e12694c5d76ef" target="_top" xlink:title="netcdf4_support::netcdf\l_open_file">
<polygon fill="white" stroke="black" points="343.121,-52.5 343.121,-82.5 474.089,-82.5 474.089,-52.5 343.121,-52.5"/>
<text text-anchor="start" x="351.121" y="-69.7" font-family="Helvetica,sans-Serif" font-size="11.00">netcdf4_support::netcdf</text>
<text text-anchor="middle" x="408.605" y="-58.7" font-family="Helvetica,sans-Serif" font-size="11.00">_open_file</text>
</a>
</g>
</g>
<!-- Node2&#45;&gt;Node8 -->
<g id="edge8" class="edge"><title>Node2&#45;&gt;Node8</title>
<path fill="none" stroke="midnightblue" d="M301.699,-67.5C315.217,-67.5 329.473,-67.5 342.992,-67.5"/>
<polygon fill="midnightblue" stroke="midnightblue" points="301.53,-64.0001 291.53,-67.5 301.53,-71.0001 301.53,-64.0001"/>
</g>
<!-- Node5 -->
<g id="node5" class="node"><title>Node5</title>
<g id="a_node5"><a xlink:href="namespacedata__catalog__entry.html#aeb285131f87ed64deba0a9041a9c6405" target="_top" xlink:title="data_catalog_entry\l::getvalues_dynamic\l_netcdf_sub">
<polygon fill="white" stroke="black" points="548.329,-50 548.329,-91 664.607,-91 664.607,-50 548.329,-50"/>
<text text-anchor="start" x="556.329" y="-78.2" font-family="Helvetica,sans-Serif" font-size="11.00">data_catalog_entry</text>
<text text-anchor="start" x="556.329" y="-67.2" font-family="Helvetica,sans-Serif" font-size="11.00">::getvalues_dynamic</text>
<text text-anchor="middle" x="606.468" y="-56.2" font-family="Helvetica,sans-Serif" font-size="11.00">_netcdf_sub</text>
</a>
</g>
</g>
<!-- Node4&#45;&gt;Node5 -->
<g id="edge4" class="edge"><title>Node4&#45;&gt;Node5</title>
<path fill="none" stroke="midnightblue" d="M476.117,-36.1584C499.55,-42.3797 525.668,-49.3137 548.265,-55.3131"/>
<polygon fill="midnightblue" stroke="midnightblue" points="476.82,-32.7238 466.257,-33.5406 475.024,-39.4895 476.82,-32.7238"/>
</g>
<!-- Node7 -->
<g id="node7" class="node"><title>Node7</title>
<g id="a_node7"><a xlink:href="namespacedata__catalog__entry.html#ac3e1f0d9d9e146fbb77c0084e1e9fc14" target="_top" xlink:title="data_catalog_entry\l::getvalues_static_netcdf_sub">
<polygon fill="white" stroke="black" points="526.004,-0.5 526.004,-30.5 686.932,-30.5 686.932,-0.5 526.004,-0.5"/>
<text text-anchor="start" x="534.004" y="-17.7" font-family="Helvetica,sans-Serif" font-size="11.00">data_catalog_entry</text>
<text text-anchor="middle" x="606.468" y="-6.7" font-family="Helvetica,sans-Serif" font-size="11.00">::getvalues_static_netcdf_sub</text>
</a>
</g>
</g>
<!-- Node4&#45;&gt;Node7 -->
<g id="edge6" class="edge"><title>Node4&#45;&gt;Node7</title>
<path fill="none" stroke="midnightblue" d="M500.156,-17.1131C508.75,-16.9814 517.42,-16.8486 525.9,-16.7187"/>
<polygon fill="midnightblue" stroke="midnightblue" points="500.063,-13.614 490.118,-17.2668 500.17,-20.6131 500.063,-13.614"/>
</g>
<!-- Node6 -->
<g id="node6" class="node"><title>Node6</title>
<g id="a_node6"><a xlink:href="namespacedata__catalog__entry.html#a9e0a89ab19a5bfd61f2dfb8265648234" target="_top" xlink:title="data_catalog_entry\l::getvalues_sub">
<polygon fill="white" stroke="black" points="722.932,-27.5 722.932,-57.5 832.502,-57.5 832.502,-27.5 722.932,-27.5"/>
<text text-anchor="start" x="730.932" y="-44.7" font-family="Helvetica,sans-Serif" font-size="11.00">data_catalog_entry</text>
<text text-anchor="middle" x="777.717" y="-33.7" font-family="Helvetica,sans-Serif" font-size="11.00">::getvalues_sub</text>
</a>
</g>
</g>
<!-- Node5&#45;&gt;Node6 -->
<g id="edge5" class="edge"><title>Node5&#45;&gt;Node6</title>
<path fill="none" stroke="midnightblue" d="M675.071,-59.3161C690.97,-56.6858 707.705,-53.9172 722.904,-51.4027"/>
<polygon fill="midnightblue" stroke="midnightblue" points="674.063,-55.9351 664.768,-61.0205 675.205,-62.8413 674.063,-55.9351"/>
</g>
<!-- Node7&#45;&gt;Node6 -->
<g id="edge7" class="edge"><title>Node7&#45;&gt;Node6</title>
<path fill="none" stroke="midnightblue" d="M697.274,-29.8267C705.901,-31.2028 714.455,-32.5674 722.576,-33.8631"/>
<polygon fill="midnightblue" stroke="midnightblue" points="697.563,-26.3285 687.137,-28.2094 696.46,-33.2411 697.563,-26.3285"/>
</g>
<!-- Node8&#45;&gt;Node5 -->
<g id="edge9" class="edge"><title>Node8&#45;&gt;Node5</title>
<path fill="none" stroke="midnightblue" d="M484.499,-68.6471C505.599,-68.9703 528.212,-69.3167 548.111,-69.6215"/>
<polygon fill="midnightblue" stroke="midnightblue" points="484.333,-65.1443 474.281,-68.4906 484.226,-72.1435 484.333,-65.1443"/>
</g>
<!-- Node8&#45;&gt;Node7 -->
<g id="edge10" class="edge"><title>Node8&#45;&gt;Node7</title>
<path fill="none" stroke="midnightblue" d="M476.205,-49.8182C499.851,-43.5405 526.22,-36.5397 548.944,-30.5068"/>
<polygon fill="midnightblue" stroke="midnightblue" points="475.024,-46.5105 466.257,-52.4594 476.82,-53.2762 475.024,-46.5105"/>
</g>
</g>
</svg>
