<?xml version="1.0" encoding="UTF-8" standalone="no"?>
<!DOCTYPE svg PUBLIC "-//W3C//DTD SVG 1.1//EN"
 "http://www.w3.org/Graphics/SVG/1.1/DTD/svg11.dtd">
<!-- Generated by graphviz version 2.38.0 (20140413.2041)
 -->
<!-- Title: model_initialize::read_polygon_id Pages: 1 -->
<svg width="285pt" height="66pt"
 viewBox="0.00 0.00 285.10 66.00" xmlns="http://www.w3.org/2000/svg" xmlns:xlink="http://www.w3.org/1999/xlink">
<g id="graph0" class="graph" transform="scale(1 1) rotate(0) translate(4 62)">
<title>model_initialize::read_polygon_id</title>
<polygon fill="white" stroke="none" points="-4,4 -4,-62 281.097,-62 281.097,4 -4,4"/>
<!-- Node127 -->
<g id="node1" class="node"><title>Node127</title>
<polygon fill="#bfbfbf" stroke="black" points="0,-14 0,-44 119.334,-44 119.334,-14 0,-14"/>
<text text-anchor="start" x="8" y="-31.2" font-family="Helvetica,sans-Serif" font-size="11.00">model_initialize::read</text>
<text text-anchor="middle" x="59.6672" y="-20.2" font-family="Helvetica,sans-Serif" font-size="11.00">_polygon_id</text>
</g>
<!-- Node128 -->
<g id="node2" class="node"><title>Node128</title>
<g id="a_node2"><a xlink:href="namespacegrid.html#adfcb9064d9b58a49eb61093cd4809a43" target="_top" xlink:title="grid::grid_destroy">
<polygon fill="white" stroke="black" points="165.722,-38.5 165.722,-57.5 266.709,-57.5 266.709,-38.5 165.722,-38.5"/>
<text text-anchor="middle" x="216.216" y="-44.7" font-family="Helvetica,sans-Serif" font-size="11.00">grid::grid_destroy</text>
</a>
</g>
</g>
<!-- Node127&#45;&gt;Node128 -->
<g id="edge1" class="edge"><title>Node127&#45;&gt;Node128</title>
<path fill="none" stroke="midnightblue" d="M119.536,-36.2373C131.28,-37.6811 143.626,-39.1989 155.401,-40.6465"/>
<polygon fill="midnightblue" stroke="midnightblue" points="155.221,-44.1506 165.573,-41.897 156.075,-37.2029 155.221,-44.1506"/>
</g>
<!-- Node129 -->
<g id="node3" class="node"><title>Node129</title>
<g id="a_node3"><a xlink:href="namespacegrid.html#a02803f7fe27d0354d3d16a15bd1338da" target="_top" xlink:title="grid::grid_writearcgrid">
<polygon fill="white" stroke="black" points="155.334,-0.5 155.334,-19.5 277.097,-19.5 277.097,-0.5 155.334,-0.5"/>
<text text-anchor="middle" x="216.216" y="-6.7" font-family="Helvetica,sans-Serif" font-size="11.00">grid::grid_writearcgrid</text>
</a>
</g>
</g>
<!-- Node127&#45;&gt;Node129 -->
<g id="edge2" class="edge"><title>Node127&#45;&gt;Node129</title>
<path fill="none" stroke="midnightblue" d="M119.536,-21.7627C127.936,-20.7301 136.644,-19.6595 145.23,-18.6039"/>
<polygon fill="midnightblue" stroke="midnightblue" points="145.731,-22.0688 155.229,-17.3747 144.877,-15.1211 145.731,-22.0688"/>
</g>
</g>
</svg>
