<?xml version="1.0" encoding="UTF-8" standalone="no"?>
<!DOCTYPE svg PUBLIC "-//W3C//DTD SVG 1.1//EN"
 "http://www.w3.org/Graphics/SVG/1.1/DTD/svg11.dtd">
<!-- Generated by graphviz version 2.38.0 (20140413.2041)
 -->
<!-- Title: grid::grid_transform Pages: 1 -->
<svg width="450pt" height="85pt"
 viewBox="0.00 0.00 449.59 85.00" xmlns="http://www.w3.org/2000/svg" xmlns:xlink="http://www.w3.org/1999/xlink">
<g id="graph0" class="graph" transform="scale(1 1) rotate(0) translate(4 81)">
<title>grid::grid_transform</title>
<polygon fill="white" stroke="none" points="-4,4 -4,-81 445.589,-81 445.589,4 -4,4"/>
<!-- Node1 -->
<g id="node1" class="node"><title>Node1</title>
<polygon fill="#bfbfbf" stroke="black" points="0,-38.5 0,-57.5 111.369,-57.5 111.369,-38.5 0,-38.5"/>
<text text-anchor="middle" x="55.6846" y="-44.7" font-family="Helvetica,sans-Serif" font-size="11.00">grid::grid_transform</text>
</g>
<!-- Node2 -->
<g id="node2" class="node"><title>Node2</title>
<g id="a_node2"><a xlink:href="namespacegrid.html#a4e234a7e1a3a1ba76a7c92bab7114bf7" target="_top" xlink:title="grid::grid_checkforproj4error">
<polygon fill="white" stroke="black" points="147.369,-57.5 147.369,-76.5 301.541,-76.5 301.541,-57.5 147.369,-57.5"/>
<text text-anchor="middle" x="224.455" y="-63.7" font-family="Helvetica,sans-Serif" font-size="11.00">grid::grid_checkforproj4error</text>
</a>
</g>
</g>
<!-- Node1&#45;&gt;Node2 -->
<g id="edge1" class="edge"><title>Node1&#45;&gt;Node2</title>
<path fill="none" stroke="midnightblue" d="M111.754,-54.274C119.937,-55.2063 128.533,-56.1856 137.17,-57.1696"/>
<polygon fill="midnightblue" stroke="midnightblue" points="136.974,-60.6699 147.306,-58.3245 137.767,-53.7149 136.974,-60.6699"/>
</g>
<!-- Node3 -->
<g id="node3" class="node"><title>Node3</title>
<g id="a_node3"><a xlink:href="namespacegrid.html#ace8ea960868faf40cf79d5303f881ed8" target="_top" xlink:title="grid::grid_populatexy">
<polygon fill="white" stroke="black" points="165.395,-19.5 165.395,-38.5 283.515,-38.5 283.515,-19.5 165.395,-19.5"/>
<text text-anchor="middle" x="224.455" y="-25.7" font-family="Helvetica,sans-Serif" font-size="11.00">grid::grid_populatexy</text>
</a>
</g>
</g>
<!-- Node1&#45;&gt;Node3 -->
<g id="edge2" class="edge"><title>Node1&#45;&gt;Node3</title>
<path fill="none" stroke="midnightblue" d="M111.754,-41.726C125.572,-40.1517 140.568,-38.4432 154.953,-36.8044"/>
<polygon fill="midnightblue" stroke="midnightblue" points="155.755,-40.2358 165.294,-35.6262 154.962,-33.2808 155.755,-40.2358"/>
</g>
<!-- Node4 -->
<g id="node4" class="node"><title>Node4</title>
<g id="a_node4"><a xlink:href="namespacegrid.html#ad3fbf6446fa8a58df8888c05b7165324" target="_top" xlink:title="grid::grid_getgridx">
<polygon fill="white" stroke="black" points="337.541,-38.5 337.541,-57.5 441.589,-57.5 441.589,-38.5 337.541,-38.5"/>
<text text-anchor="middle" x="389.565" y="-44.7" font-family="Helvetica,sans-Serif" font-size="11.00">grid::grid_getgridx</text>
</a>
</g>
</g>
<!-- Node3&#45;&gt;Node4 -->
<g id="edge3" class="edge"><title>Node3&#45;&gt;Node4</title>
<path fill="none" stroke="midnightblue" d="M283.881,-35.8058C297.93,-37.4423 312.978,-39.1952 327.159,-40.8471"/>
<polygon fill="midnightblue" stroke="midnightblue" points="326.967,-44.3483 337.305,-42.0289 327.777,-37.3953 326.967,-44.3483"/>
</g>
<!-- Node5 -->
<g id="node5" class="node"><title>Node5</title>
<g id="a_node5"><a xlink:href="namespacegrid.html#a93d74de05bc5c8aee4cb556f461be266" target="_top" xlink:title="grid::grid_getgridy">
<polygon fill="white" stroke="black" points="337.541,-0.5 337.541,-19.5 441.589,-19.5 441.589,-0.5 337.541,-0.5"/>
<text text-anchor="middle" x="389.565" y="-6.7" font-family="Helvetica,sans-Serif" font-size="11.00">grid::grid_getgridy</text>
</a>
</g>
</g>
<!-- Node3&#45;&gt;Node5 -->
<g id="edge4" class="edge"><title>Node3&#45;&gt;Node5</title>
<path fill="none" stroke="midnightblue" d="M283.881,-22.1942C297.93,-20.5577 312.978,-18.8048 327.159,-17.1529"/>
<polygon fill="midnightblue" stroke="midnightblue" points="327.777,-20.6047 337.305,-15.9711 326.967,-13.6517 327.777,-20.6047"/>
</g>
</g>
</svg>
