<?xml version="1.0" encoding="UTF-8" standalone="no"?>
<!DOCTYPE svg PUBLIC "-//W3C//DTD SVG 1.1//EN"
 "http://www.w3.org/Graphics/SVG/1.1/DTD/svg11.dtd">
<!-- Generated by graphviz version 2.38.0 (20140413.2041)
 -->
<!-- Title: datetime::gregorian_date Pages: 1 -->
<svg width="780pt" height="137pt"
 viewBox="0.00 0.00 780.50 137.00" xmlns="http://www.w3.org/2000/svg" xmlns:xlink="http://www.w3.org/1999/xlink">
<g id="graph0" class="graph" transform="scale(1 1) rotate(0) translate(4 133)">
<title>datetime::gregorian_date</title>
<polygon fill="white" stroke="none" points="-4,4 -4,-133 776.496,-133 776.496,4 -4,4"/>
<!-- Node1 -->
<g id="node1" class="node"><title>Node1</title>
<polygon fill="#bfbfbf" stroke="black" points="0,-77 0,-96 138.305,-96 138.305,-77 0,-77"/>
<text text-anchor="middle" x="69.1526" y="-83.2" font-family="Helvetica,sans-Serif" font-size="11.00">datetime::gregorian_date</text>
</g>
<!-- Node2 -->
<g id="node2" class="node"><title>Node2</title>
<g id="a_node2"><a xlink:href="namespacedatetime.html#ae5d2fd012d07fb0dfc273d2b0ff2a4eb" target="_top" xlink:title="datetime::calc_gregorian\l_date_sub">
<polygon fill="white" stroke="black" points="174.305,-93.5 174.305,-123.5 310.763,-123.5 310.763,-93.5 174.305,-93.5"/>
<text text-anchor="start" x="182.305" y="-110.7" font-family="Helvetica,sans-Serif" font-size="11.00">datetime::calc_gregorian</text>
<text text-anchor="middle" x="242.534" y="-99.7" font-family="Helvetica,sans-Serif" font-size="11.00">_date_sub</text>
</a>
</g>
</g>
<!-- Node1&#45;&gt;Node2 -->
<g id="edge1" class="edge"><title>Node1&#45;&gt;Node2</title>
<path fill="none" stroke="midnightblue" d="M148.391,-96.5434C156.977,-97.6455 165.663,-98.7605 174.101,-99.8438"/>
<polygon fill="midnightblue" stroke="midnightblue" points="148.744,-93.06 138.379,-95.2582 147.852,-100.003 148.744,-93.06"/>
</g>
<!-- Node3 -->
<g id="node3" class="node"><title>Node3</title>
<g id="a_node3"><a xlink:href="namespacedatetime.html#a9575f695885d806cc658b68cbdb75a70" target="_top" xlink:title="datetime::day_of_year">
<polygon fill="white" stroke="black" points="180.111,-55 180.111,-74 304.957,-74 304.957,-55 180.111,-55"/>
<text text-anchor="middle" x="242.534" y="-61.2" font-family="Helvetica,sans-Serif" font-size="11.00">datetime::day_of_year</text>
</a>
</g>
</g>
<!-- Node1&#45;&gt;Node3 -->
<g id="edge2" class="edge"><title>Node1&#45;&gt;Node3</title>
<path fill="none" stroke="midnightblue" d="M148.438,-76.4506C158.999,-75.0949 169.712,-73.7197 179.927,-72.4084"/>
<polygon fill="midnightblue" stroke="midnightblue" points="147.852,-72.997 138.379,-77.7418 148.744,-79.94 147.852,-72.997"/>
</g>
<!-- Node4 -->
<g id="node4" class="node"><title>Node4</title>
<g id="a_node4"><a xlink:href="namespacedatetime.html#a5e943042ca778d305fabbbe6f8d96aac" target="_top" xlink:title="datetime::get_day_of\l_year_fn">
<polygon fill="white" stroke="black" points="367.554,-98.5 367.554,-128.5 486.292,-128.5 486.292,-98.5 367.554,-98.5"/>
<text text-anchor="start" x="375.554" y="-115.7" font-family="Helvetica,sans-Serif" font-size="11.00">datetime::get_day_of</text>
<text text-anchor="middle" x="426.923" y="-104.7" font-family="Helvetica,sans-Serif" font-size="11.00">_year_fn</text>
</a>
</g>
</g>
<!-- Node3&#45;&gt;Node4 -->
<g id="edge3" class="edge"><title>Node3&#45;&gt;Node4</title>
<path fill="none" stroke="midnightblue" d="M288.906,-76.6896C313.441,-83.2808 343.953,-91.4782 369.952,-98.463"/>
<polygon fill="midnightblue" stroke="midnightblue" points="289.699,-73.2785 279.133,-74.064 287.883,-80.0388 289.699,-73.2785"/>
</g>
<!-- Node5 -->
<g id="node5" class="node"><title>Node5</title>
<g id="a_node5"><a xlink:href="namespacemodel__initialize.html#aa901fa3beec7f5be635326923f7cd49b" target="_top" xlink:title="model_initialize::initialize\l_start_and_end_dates">
<polygon fill="white" stroke="black" points="358.7,-49.5 358.7,-79.5 495.147,-79.5 495.147,-49.5 358.7,-49.5"/>
<text text-anchor="start" x="366.7" y="-66.7" font-family="Helvetica,sans-Serif" font-size="11.00">model_initialize::initialize</text>
<text text-anchor="middle" x="426.923" y="-55.7" font-family="Helvetica,sans-Serif" font-size="11.00">_start_and_end_dates</text>
</a>
</g>
</g>
<!-- Node3&#45;&gt;Node5 -->
<g id="edge4" class="edge"><title>Node3&#45;&gt;Node5</title>
<path fill="none" stroke="midnightblue" d="M315.247,-64.5C329.47,-64.5 344.356,-64.5 358.432,-64.5"/>
<polygon fill="midnightblue" stroke="midnightblue" points="315.028,-61.0001 305.028,-64.5 315.028,-68.0001 315.028,-61.0001"/>
</g>
<!-- Node8 -->
<g id="node8" class="node"><title>Node8</title>
<g id="a_node8"><a xlink:href="namespacesimulation__datetime.html#a614317d68d6d6e98353e087670dc7a98" target="_top" xlink:title="simulation_datetime\l::increment_by_one_day_sub">
<polygon fill="white" stroke="black" points="346.763,-0.5 346.763,-30.5 507.084,-30.5 507.084,-0.5 346.763,-0.5"/>
<text text-anchor="start" x="354.763" y="-17.7" font-family="Helvetica,sans-Serif" font-size="11.00">simulation_datetime</text>
<text text-anchor="middle" x="426.923" y="-6.7" font-family="Helvetica,sans-Serif" font-size="11.00">::increment_by_one_day_sub</text>
</a>
</g>
</g>
<!-- Node3&#45;&gt;Node8 -->
<g id="edge7" class="edge"><title>Node3&#45;&gt;Node8</title>
<path fill="none" stroke="midnightblue" d="M288.906,-52.3104C313.441,-45.7192 343.953,-37.5218 369.952,-30.537"/>
<polygon fill="midnightblue" stroke="midnightblue" points="287.883,-48.9612 279.133,-54.936 289.699,-55.7215 287.883,-48.9612"/>
</g>
<!-- Node6 -->
<g id="node6" class="node"><title>Node6</title>
<g id="a_node6"><a xlink:href="namespacemodel__initialize.html#a46370bf2e9ea112d1f219277ba7fd3ce" target="_top" xlink:title="model_initialize::initialize_all">
<polygon fill="white" stroke="black" points="543.084,-55 543.084,-74 696.654,-74 696.654,-55 543.084,-55"/>
<text text-anchor="middle" x="619.869" y="-61.2" font-family="Helvetica,sans-Serif" font-size="11.00">model_initialize::initialize_all</text>
</a>
</g>
</g>
<!-- Node5&#45;&gt;Node6 -->
<g id="edge5" class="edge"><title>Node5&#45;&gt;Node6</title>
<path fill="none" stroke="midnightblue" d="M505.526,-64.5C517.907,-64.5 530.703,-64.5 543.042,-64.5"/>
<polygon fill="midnightblue" stroke="midnightblue" points="505.244,-61.0001 495.244,-64.5 505.244,-68.0001 505.244,-61.0001"/>
</g>
<!-- Node7 -->
<g id="node7" class="node"><title>Node7</title>
<g id="a_node7"><a xlink:href="main_8F90.html#a8ec2266d83cd6c0b762cbcbc92c0af3d" target="_top" xlink:title="Main program which references all other modules; execution begins here. ">
<polygon fill="white" stroke="black" points="732.654,-55 732.654,-74 772.496,-74 772.496,-55 732.654,-55"/>
<text text-anchor="middle" x="752.575" y="-61.2" font-family="Helvetica,sans-Serif" font-size="11.00">main</text>
</a>
</g>
</g>
<!-- Node6&#45;&gt;Node7 -->
<g id="edge6" class="edge"><title>Node6&#45;&gt;Node7</title>
<path fill="none" stroke="midnightblue" d="M706.993,-64.5C716.488,-64.5 725.33,-64.5 732.595,-64.5"/>
<polygon fill="midnightblue" stroke="midnightblue" points="706.901,-61.0001 696.901,-64.5 706.901,-68.0001 706.901,-61.0001"/>
</g>
</g>
</svg>
