<?xml version="1.0" encoding="UTF-8" standalone="no"?>
<!DOCTYPE svg PUBLIC "-//W3C//DTD SVG 1.1//EN"
 "http://www.w3.org/Graphics/SVG/1.1/DTD/svg11.dtd">
<!-- Generated by graphviz version 2.38.0 (20140413.2041)
 -->
<!-- Title: grid::grid_getgridcolnum Pages: 1 -->
<svg width="645pt" height="104pt"
 viewBox="0.00 0.00 645.33 104.00" xmlns="http://www.w3.org/2000/svg" xmlns:xlink="http://www.w3.org/1999/xlink">
<g id="graph0" class="graph" transform="scale(1 1) rotate(0) translate(4 100)">
<title>grid::grid_getgridcolnum</title>
<polygon fill="white" stroke="none" points="-4,4 -4,-100 641.33,-100 641.33,4 -4,4"/>
<!-- Node1 -->
<g id="node1" class="node"><title>Node1</title>
<polygon fill="#bfbfbf" stroke="black" points="0,-38.5 0,-57.5 134.008,-57.5 134.008,-38.5 0,-38.5"/>
<text text-anchor="middle" x="67.0042" y="-44.7" font-family="Helvetica,sans-Serif" font-size="11.00">grid::grid_getgridcolnum</text>
</g>
<!-- Node2 -->
<g id="node2" class="node"><title>Node2</title>
<g id="a_node2"><a xlink:href="namespacegrid.html#a54795390c62b55fd83c35818f8cd4ce3" target="_top" xlink:title="grid::grid_getgridcolrownum">
<polygon fill="white" stroke="black" points="170.008,-38.5 170.008,-57.5 321.741,-57.5 321.741,-38.5 170.008,-38.5"/>
<text text-anchor="middle" x="245.875" y="-44.7" font-family="Helvetica,sans-Serif" font-size="11.00">grid::grid_getgridcolrownum</text>
</a>
</g>
</g>
<!-- Node1&#45;&gt;Node2 -->
<g id="edge1" class="edge"><title>Node1&#45;&gt;Node2</title>
<path fill="none" stroke="midnightblue" d="M144.359,-48C152.836,-48 161.463,-48 169.922,-48"/>
<polygon fill="midnightblue" stroke="midnightblue" points="144.116,-44.5001 134.116,-48 144.116,-51.5001 144.116,-44.5001"/>
</g>
<!-- Node3 -->
<g id="node3" class="node"><title>Node3</title>
<g id="a_node3"><a xlink:href="namespacegrid.html#a565a676f138a2e48293c5bfadf0d539e" target="_top" xlink:title="grid::grid_gridtopoint_int">
<polygon fill="white" stroke="black" points="357.741,-76.5 357.741,-95.5 491.76,-95.5 491.76,-76.5 357.741,-76.5"/>
<text text-anchor="middle" x="424.751" y="-82.7" font-family="Helvetica,sans-Serif" font-size="11.00">grid::grid_gridtopoint_int</text>
</a>
</g>
</g>
<!-- Node2&#45;&gt;Node3 -->
<g id="edge2" class="edge"><title>Node2&#45;&gt;Node3</title>
<path fill="none" stroke="midnightblue" d="M301.579,-59.7526C326.589,-65.1258 355.833,-71.4086 379.438,-76.4799"/>
<polygon fill="midnightblue" stroke="midnightblue" points="302.02,-56.2676 291.508,-57.589 300.55,-63.1115 302.02,-56.2676"/>
</g>
<!-- Node4 -->
<g id="node4" class="node"><title>Node4</title>
<g id="a_node4"><a xlink:href="namespacegrid.html#afa350ce941557d82c522ed95e7758c44" target="_top" xlink:title="grid::grid_gridtogrid_int">
<polygon fill="white" stroke="black" points="360.497,-38.5 360.497,-57.5 489.005,-57.5 489.005,-38.5 360.497,-38.5"/>
<text text-anchor="middle" x="424.751" y="-44.7" font-family="Helvetica,sans-Serif" font-size="11.00">grid::grid_gridtogrid_int</text>
</a>
</g>
</g>
<!-- Node2&#45;&gt;Node4 -->
<g id="edge3" class="edge"><title>Node2&#45;&gt;Node4</title>
<path fill="none" stroke="midnightblue" d="M332.151,-48C341.647,-48 351.192,-48 360.347,-48"/>
<polygon fill="midnightblue" stroke="midnightblue" points="331.886,-44.5001 321.886,-48 331.886,-51.5001 331.886,-44.5001"/>
</g>
<!-- Node6 -->
<g id="node6" class="node"><title>Node6</title>
<g id="a_node6"><a xlink:href="namespacegrid.html#a5d46ebd32a7a83ebf0ba59757bbf754a" target="_top" xlink:title="grid::grid_gridtogrid_sgl">
<polygon fill="white" stroke="black" points="359.275,-0.5 359.275,-19.5 490.227,-19.5 490.227,-0.5 359.275,-0.5"/>
<text text-anchor="middle" x="424.751" y="-6.7" font-family="Helvetica,sans-Serif" font-size="11.00">grid::grid_gridtogrid_sgl</text>
</a>
</g>
</g>
<!-- Node2&#45;&gt;Node6 -->
<g id="edge5" class="edge"><title>Node2&#45;&gt;Node6</title>
<path fill="none" stroke="midnightblue" d="M301.579,-36.2474C326.589,-30.8742 355.833,-24.5914 379.438,-19.5201"/>
<polygon fill="midnightblue" stroke="midnightblue" points="300.55,-32.8885 291.508,-38.411 302.02,-39.7324 300.55,-32.8885"/>
</g>
<!-- Node5 -->
<g id="node5" class="node"><title>Node5</title>
<g id="a_node5"><a xlink:href="namespacedata__catalog__entry.html#aacf51804adb730b5710c4060576a7948" target="_top" xlink:title="data_catalog_entry\l::transform_grid_to\l_grid_sub">
<polygon fill="white" stroke="black" points="527.76,-8.5 527.76,-49.5 637.33,-49.5 637.33,-8.5 527.76,-8.5"/>
<text text-anchor="start" x="535.76" y="-36.7" font-family="Helvetica,sans-Serif" font-size="11.00">data_catalog_entry</text>
<text text-anchor="start" x="535.76" y="-25.7" font-family="Helvetica,sans-Serif" font-size="11.00">::transform_grid_to</text>
<text text-anchor="middle" x="582.545" y="-14.7" font-family="Helvetica,sans-Serif" font-size="11.00">_grid_sub</text>
</a>
</g>
</g>
<!-- Node4&#45;&gt;Node5 -->
<g id="edge4" class="edge"><title>Node4&#45;&gt;Node5</title>
<path fill="none" stroke="midnightblue" d="M499.106,-39.054C508.746,-37.8783 518.479,-36.6913 527.711,-35.5653"/>
<polygon fill="midnightblue" stroke="midnightblue" points="498.621,-35.587 489.118,-40.272 499.468,-42.5356 498.621,-35.587"/>
</g>
<!-- Node6&#45;&gt;Node5 -->
<g id="edge6" class="edge"><title>Node6&#45;&gt;Node5</title>
<path fill="none" stroke="midnightblue" d="M500.4,-19.1039C509.598,-20.2256 518.856,-21.3547 527.66,-22.4284"/>
<polygon fill="midnightblue" stroke="midnightblue" points="500.818,-15.6291 490.468,-17.8926 499.971,-22.5776 500.818,-15.6291"/>
</g>
</g>
</svg>
