<?xml version="1.0" encoding="UTF-8" standalone="no"?>
<!DOCTYPE svg PUBLIC "-//W3C//DTD SVG 1.1//EN"
 "http://www.w3.org/Graphics/SVG/1.1/DTD/svg11.dtd">
<!-- Generated by graphviz version 2.38.0 (20140413.2041)
 -->
<!-- Title: model_domain::model_initialize_et_jensen_haise Pages: 1 -->
<svg width="343pt" height="39pt"
 viewBox="0.00 0.00 343.23 39.00" xmlns="http://www.w3.org/2000/svg" xmlns:xlink="http://www.w3.org/1999/xlink">
<g id="graph0" class="graph" transform="scale(1 1) rotate(0) translate(4 35)">
<title>model_domain::model_initialize_et_jensen_haise</title>
<polygon fill="white" stroke="none" points="-4,4 -4,-35 339.233,-35 339.233,4 -4,4"/>
<!-- Node273 -->
<g id="node1" class="node"><title>Node273</title>
<polygon fill="#bfbfbf" stroke="black" points="0,-0.5 0,-30.5 147.484,-30.5 147.484,-0.5 0,-0.5"/>
<text text-anchor="start" x="8" y="-17.7" font-family="Helvetica,sans-Serif" font-size="11.00">model_domain::model</text>
<text text-anchor="middle" x="73.7422" y="-6.7" font-family="Helvetica,sans-Serif" font-size="11.00">_initialize_et_jensen_haise</text>
</g>
<!-- Node274 -->
<g id="node2" class="node"><title>Node274</title>
<g id="a_node2"><a xlink:href="namespacemodel__domain.html#aac78dbf26ba37cf86ebed4edd7acf89b" target="_top" xlink:title="model_domain::set_method\l_pointers_sub">
<polygon fill="white" stroke="black" points="183.484,-0.5 183.484,-30.5 335.233,-30.5 335.233,-0.5 183.484,-0.5"/>
<text text-anchor="start" x="191.484" y="-17.7" font-family="Helvetica,sans-Serif" font-size="11.00">model_domain::set_method</text>
<text text-anchor="middle" x="259.359" y="-6.7" font-family="Helvetica,sans-Serif" font-size="11.00">_pointers_sub</text>
</a>
</g>
</g>
<!-- Node273&#45;&gt;Node274 -->
<g id="edge1" class="edge"><title>Node273&#45;&gt;Node274</title>
<path fill="none" stroke="midnightblue" d="M157.824,-15.5C166.281,-15.5 174.838,-15.5 183.205,-15.5"/>
<polygon fill="midnightblue" stroke="midnightblue" points="157.576,-12.0001 147.576,-15.5 157.576,-19.0001 157.576,-12.0001"/>
</g>
</g>
</svg>
