<?xml version="1.0" encoding="UTF-8" standalone="no"?>
<!DOCTYPE svg PUBLIC "-//W3C//DTD SVG 1.1//EN"
 "http://www.w3.org/Graphics/SVG/1.1/DTD/svg11.dtd">
<!-- Generated by graphviz version 2.38.0 (20140413.2041)
 -->
<!-- Title: grid::grid_getgridrownum Pages: 1 -->
<svg width="649pt" height="104pt"
 viewBox="0.00 0.00 648.99 104.00" xmlns="http://www.w3.org/2000/svg" xmlns:xlink="http://www.w3.org/1999/xlink">
<g id="graph0" class="graph" transform="scale(1 1) rotate(0) translate(4 100)">
<title>grid::grid_getgridrownum</title>
<polygon fill="white" stroke="none" points="-4,4 -4,-100 644.993,-100 644.993,4 -4,4"/>
<!-- Node152 -->
<g id="node1" class="node"><title>Node152</title>
<polygon fill="#bfbfbf" stroke="black" points="0,-38.5 0,-57.5 137.671,-57.5 137.671,-38.5 0,-38.5"/>
<text text-anchor="middle" x="68.8357" y="-44.7" font-family="Helvetica,sans-Serif" font-size="11.00">grid::grid_getgridrownum</text>
</g>
<!-- Node153 -->
<g id="node2" class="node"><title>Node153</title>
<g id="a_node2"><a xlink:href="namespacegrid.html#a54795390c62b55fd83c35818f8cd4ce3" target="_top" xlink:title="grid::grid_getgridcolrownum">
<polygon fill="white" stroke="black" points="173.671,-38.5 173.671,-57.5 325.404,-57.5 325.404,-38.5 173.671,-38.5"/>
<text text-anchor="middle" x="249.538" y="-44.7" font-family="Helvetica,sans-Serif" font-size="11.00">grid::grid_getgridcolrownum</text>
</a>
</g>
</g>
<!-- Node152&#45;&gt;Node153 -->
<g id="edge1" class="edge"><title>Node152&#45;&gt;Node153</title>
<path fill="none" stroke="midnightblue" d="M148.106,-48C156.54,-48 165.108,-48 173.502,-48"/>
<polygon fill="midnightblue" stroke="midnightblue" points="147.905,-44.5001 137.905,-48 147.905,-51.5001 147.905,-44.5001"/>
</g>
<!-- Node154 -->
<g id="node3" class="node"><title>Node154</title>
<g id="a_node3"><a xlink:href="namespacegrid.html#a565a676f138a2e48293c5bfadf0d539e" target="_top" xlink:title="grid::grid_gridtopoint_int">
<polygon fill="white" stroke="black" points="361.404,-76.5 361.404,-95.5 495.423,-95.5 495.423,-76.5 361.404,-76.5"/>
<text text-anchor="middle" x="428.414" y="-82.7" font-family="Helvetica,sans-Serif" font-size="11.00">grid::grid_gridtopoint_int</text>
</a>
</g>
</g>
<!-- Node153&#45;&gt;Node154 -->
<g id="edge2" class="edge"><title>Node153&#45;&gt;Node154</title>
<path fill="none" stroke="midnightblue" d="M305.242,-59.7526C330.252,-65.1258 359.496,-71.4086 383.101,-76.4799"/>
<polygon fill="midnightblue" stroke="midnightblue" points="305.683,-56.2676 295.171,-57.589 304.213,-63.1115 305.683,-56.2676"/>
</g>
<!-- Node155 -->
<g id="node4" class="node"><title>Node155</title>
<g id="a_node4"><a xlink:href="namespacegrid.html#afa350ce941557d82c522ed95e7758c44" target="_top" xlink:title="grid::grid_gridtogrid_int">
<polygon fill="white" stroke="black" points="364.16,-38.5 364.16,-57.5 492.668,-57.5 492.668,-38.5 364.16,-38.5"/>
<text text-anchor="middle" x="428.414" y="-44.7" font-family="Helvetica,sans-Serif" font-size="11.00">grid::grid_gridtogrid_int</text>
</a>
</g>
</g>
<!-- Node153&#45;&gt;Node155 -->
<g id="edge3" class="edge"><title>Node153&#45;&gt;Node155</title>
<path fill="none" stroke="midnightblue" d="M335.814,-48C345.31,-48 354.855,-48 364.01,-48"/>
<polygon fill="midnightblue" stroke="midnightblue" points="335.549,-44.5001 325.549,-48 335.549,-51.5001 335.549,-44.5001"/>
</g>
<!-- Node157 -->
<g id="node6" class="node"><title>Node157</title>
<g id="a_node6"><a xlink:href="namespacegrid.html#a5d46ebd32a7a83ebf0ba59757bbf754a" target="_top" xlink:title="grid::grid_gridtogrid_sgl">
<polygon fill="white" stroke="black" points="362.938,-0.5 362.938,-19.5 493.89,-19.5 493.89,-0.5 362.938,-0.5"/>
<text text-anchor="middle" x="428.414" y="-6.7" font-family="Helvetica,sans-Serif" font-size="11.00">grid::grid_gridtogrid_sgl</text>
</a>
</g>
</g>
<!-- Node153&#45;&gt;Node157 -->
<g id="edge5" class="edge"><title>Node153&#45;&gt;Node157</title>
<path fill="none" stroke="midnightblue" d="M305.242,-36.2474C330.252,-30.8742 359.496,-24.5914 383.101,-19.5201"/>
<polygon fill="midnightblue" stroke="midnightblue" points="304.213,-32.8885 295.171,-38.411 305.683,-39.7324 304.213,-32.8885"/>
</g>
<!-- Node156 -->
<g id="node5" class="node"><title>Node156</title>
<g id="a_node5"><a xlink:href="namespacedata__catalog__entry.html#aacf51804adb730b5710c4060576a7948" target="_top" xlink:title="data_catalog_entry\l::transform_grid_to\l_grid_sub">
<polygon fill="white" stroke="black" points="531.423,-8.5 531.423,-49.5 640.993,-49.5 640.993,-8.5 531.423,-8.5"/>
<text text-anchor="start" x="539.423" y="-36.7" font-family="Helvetica,sans-Serif" font-size="11.00">data_catalog_entry</text>
<text text-anchor="start" x="539.423" y="-25.7" font-family="Helvetica,sans-Serif" font-size="11.00">::transform_grid_to</text>
<text text-anchor="middle" x="586.208" y="-14.7" font-family="Helvetica,sans-Serif" font-size="11.00">_grid_sub</text>
</a>
</g>
</g>
<!-- Node155&#45;&gt;Node156 -->
<g id="edge4" class="edge"><title>Node155&#45;&gt;Node156</title>
<path fill="none" stroke="midnightblue" d="M502.769,-39.054C512.409,-37.8783 522.142,-36.6913 531.374,-35.5653"/>
<polygon fill="midnightblue" stroke="midnightblue" points="502.284,-35.587 492.781,-40.272 503.132,-42.5356 502.284,-35.587"/>
</g>
<!-- Node157&#45;&gt;Node156 -->
<g id="edge6" class="edge"><title>Node157&#45;&gt;Node156</title>
<path fill="none" stroke="midnightblue" d="M504.063,-19.1039C513.261,-20.2256 522.519,-21.3547 531.323,-22.4284"/>
<polygon fill="midnightblue" stroke="midnightblue" points="504.481,-15.6291 494.131,-17.8926 503.634,-22.5776 504.481,-15.6291"/>
</g>
</g>
</svg>
