<?xml version="1.0" encoding="UTF-8" standalone="no"?>
<!DOCTYPE svg PUBLIC "-//W3C//DTD SVG 1.1//EN"
 "http://www.w3.org/Graphics/SVG/1.1/DTD/svg11.dtd">
<!-- Generated by graphviz version 2.38.0 (20140413.2041)
 -->
<!-- Title: datetime::day_of_year Pages: 1 -->
<svg width="595pt" height="137pt"
 viewBox="0.00 0.00 594.58 137.00" xmlns="http://www.w3.org/2000/svg" xmlns:xlink="http://www.w3.org/1999/xlink">
<g id="graph0" class="graph" transform="scale(1 1) rotate(0) translate(4 133)">
<title>datetime::day_of_year</title>
<polygon fill="white" stroke="none" points="-4,4 -4,-133 590.579,-133 590.579,4 -4,4"/>
<!-- Node1 -->
<g id="node1" class="node"><title>Node1</title>
<polygon fill="#bfbfbf" stroke="black" points="0,-55 0,-74 124.845,-74 124.845,-55 0,-55"/>
<text text-anchor="middle" x="62.4226" y="-61.2" font-family="Helvetica,sans-Serif" font-size="11.00">datetime::day_of_year</text>
</g>
<!-- Node2 -->
<g id="node2" class="node"><title>Node2</title>
<g id="a_node2"><a xlink:href="namespacedatetime.html#a5e943042ca778d305fabbbe6f8d96aac" target="_top" xlink:title="datetime::get_day_of\l_year_fn">
<polygon fill="white" stroke="black" points="181.637,-98.5 181.637,-128.5 300.375,-128.5 300.375,-98.5 181.637,-98.5"/>
<text text-anchor="start" x="189.637" y="-115.7" font-family="Helvetica,sans-Serif" font-size="11.00">datetime::get_day_of</text>
<text text-anchor="middle" x="241.006" y="-104.7" font-family="Helvetica,sans-Serif" font-size="11.00">_year_fn</text>
</a>
</g>
</g>
<!-- Node1&#45;&gt;Node2 -->
<g id="edge1" class="edge"><title>Node1&#45;&gt;Node2</title>
<path fill="none" stroke="midnightblue" d="M107.668,-76.7776C131.366,-83.3537 160.757,-91.5092 185.817,-98.463"/>
<polygon fill="midnightblue" stroke="midnightblue" points="108.461,-73.3654 97.8888,-74.064 106.589,-80.1105 108.461,-73.3654"/>
</g>
<!-- Node3 -->
<g id="node3" class="node"><title>Node3</title>
<g id="a_node3"><a xlink:href="namespacesimulation__datetime.html#a614317d68d6d6e98353e087670dc7a98" target="_top" xlink:title="simulation_datetime\l::increment_by_one_day_sub">
<polygon fill="white" stroke="black" points="160.845,-49.5 160.845,-79.5 321.167,-79.5 321.167,-49.5 160.845,-49.5"/>
<text text-anchor="start" x="168.845" y="-66.7" font-family="Helvetica,sans-Serif" font-size="11.00">simulation_datetime</text>
<text text-anchor="middle" x="241.006" y="-55.7" font-family="Helvetica,sans-Serif" font-size="11.00">::increment_by_one_day_sub</text>
</a>
</g>
</g>
<!-- Node1&#45;&gt;Node3 -->
<g id="edge2" class="edge"><title>Node1&#45;&gt;Node3</title>
<path fill="none" stroke="midnightblue" d="M135.244,-64.5C143.593,-64.5 152.145,-64.5 160.589,-64.5"/>
<polygon fill="midnightblue" stroke="midnightblue" points="135.183,-61.0001 125.183,-64.5 135.183,-68.0001 135.183,-61.0001"/>
</g>
<!-- Node4 -->
<g id="node4" class="node"><title>Node4</title>
<g id="a_node4"><a xlink:href="namespacemodel__initialize.html#aa901fa3beec7f5be635326923f7cd49b" target="_top" xlink:title="model_initialize::initialize\l_start_and_end_dates">
<polygon fill="white" stroke="black" points="172.782,-0.5 172.782,-30.5 309.229,-30.5 309.229,-0.5 172.782,-0.5"/>
<text text-anchor="start" x="180.782" y="-17.7" font-family="Helvetica,sans-Serif" font-size="11.00">model_initialize::initialize</text>
<text text-anchor="middle" x="241.006" y="-6.7" font-family="Helvetica,sans-Serif" font-size="11.00">_start_and_end_dates</text>
</a>
</g>
</g>
<!-- Node1&#45;&gt;Node4 -->
<g id="edge3" class="edge"><title>Node1&#45;&gt;Node4</title>
<path fill="none" stroke="midnightblue" d="M107.668,-52.2224C131.366,-45.6463 160.757,-37.4908 185.817,-30.537"/>
<polygon fill="midnightblue" stroke="midnightblue" points="106.589,-48.8895 97.8888,-54.936 108.461,-55.6346 106.589,-48.8895"/>
</g>
<!-- Node5 -->
<g id="node5" class="node"><title>Node5</title>
<g id="a_node5"><a xlink:href="namespacemodel__initialize.html#a46370bf2e9ea112d1f219277ba7fd3ce" target="_top" xlink:title="model_initialize::initialize_all">
<polygon fill="white" stroke="black" points="357.167,-6 357.167,-25 510.736,-25 510.736,-6 357.167,-6"/>
<text text-anchor="middle" x="433.951" y="-12.2" font-family="Helvetica,sans-Serif" font-size="11.00">model_initialize::initialize_all</text>
</a>
</g>
</g>
<!-- Node4&#45;&gt;Node5 -->
<g id="edge4" class="edge"><title>Node4&#45;&gt;Node5</title>
<path fill="none" stroke="midnightblue" d="M319.609,-15.5C331.99,-15.5 344.786,-15.5 357.125,-15.5"/>
<polygon fill="midnightblue" stroke="midnightblue" points="319.326,-12.0001 309.326,-15.5 319.326,-19.0001 319.326,-12.0001"/>
</g>
<!-- Node6 -->
<g id="node6" class="node"><title>Node6</title>
<g id="a_node6"><a xlink:href="main_8F90.html#a8ec2266d83cd6c0b762cbcbc92c0af3d" target="_top" xlink:title="Main program which references all other modules; execution begins here. ">
<polygon fill="white" stroke="black" points="546.736,-6 546.736,-25 586.579,-25 586.579,-6 546.736,-6"/>
<text text-anchor="middle" x="566.657" y="-12.2" font-family="Helvetica,sans-Serif" font-size="11.00">main</text>
</a>
</g>
</g>
<!-- Node5&#45;&gt;Node6 -->
<g id="edge5" class="edge"><title>Node5&#45;&gt;Node6</title>
<path fill="none" stroke="midnightblue" d="M521.076,-15.5C530.571,-15.5 539.413,-15.5 546.678,-15.5"/>
<polygon fill="midnightblue" stroke="midnightblue" points="520.984,-12.0001 510.984,-15.5 520.984,-19.0001 520.984,-12.0001"/>
</g>
</g>
</svg>
