<?xml version="1.0" encoding="UTF-8" standalone="no"?>
<!DOCTYPE svg PUBLIC "-//W3C//DTD SVG 1.1//EN"
 "http://www.w3.org/Graphics/SVG/1.1/DTD/svg11.dtd">
<!-- Generated by graphviz version 2.38.0 (20140413.2041)
 -->
<!-- Title: file_utilities::mkdir Pages: 1 -->
<svg width="238pt" height="88pt"
 viewBox="0.00 0.00 238.01 88.00" xmlns="http://www.w3.org/2000/svg" xmlns:xlink="http://www.w3.org/1999/xlink">
<g id="graph0" class="graph" transform="scale(1 1) rotate(0) translate(4 84)">
<title>file_utilities::mkdir</title>
<polygon fill="white" stroke="none" points="-4,4 -4,-84 234.008,-84 234.008,4 -4,4"/>
<!-- Node1 -->
<g id="node1" class="node"><title>Node1</title>
<polygon fill="#bfbfbf" stroke="black" points="0,-30 0,-49 102.802,-49 102.802,-30 0,-30"/>
<text text-anchor="middle" x="51.4011" y="-36.2" font-family="Helvetica,sans-Serif" font-size="11.00">file_utilities::mkdir</text>
</g>
<!-- Node2 -->
<g id="node2" class="node"><title>Node2</title>
<g id="a_node2"><a xlink:href="namespacefile__utilities.html#a92b9d1f06df08a3af077cce0cf56eff8" target="_top" xlink:title="file_utilities::get\l_libc_err_string">
<polygon fill="white" stroke="black" points="138.802,-49.5 138.802,-79.5 230.008,-79.5 230.008,-49.5 138.802,-49.5"/>
<text text-anchor="start" x="146.802" y="-66.7" font-family="Helvetica,sans-Serif" font-size="11.00">file_utilities::get</text>
<text text-anchor="middle" x="184.405" y="-55.7" font-family="Helvetica,sans-Serif" font-size="11.00">_libc_err_string</text>
</a>
</g>
</g>
<!-- Node1&#45;&gt;Node2 -->
<g id="edge1" class="edge"><title>Node1&#45;&gt;Node2</title>
<path fill="none" stroke="midnightblue" d="M102.302,-49.0227C111.023,-50.687 120.136,-52.426 128.972,-54.1123"/>
<polygon fill="midnightblue" stroke="midnightblue" points="128.316,-57.5502 138.795,-55.9868 129.628,-50.6743 128.316,-57.5502"/>
</g>
<!-- Node3 -->
<g id="node3" class="node"><title>Node3</title>
<g id="a_node3"><a xlink:href="namespacefile__utilities.html#ada22b028011a4da9b0000602d726202d" target="_top" xlink:title="file_utilities::get\l_libc_errno">
<polygon fill="white" stroke="black" points="138.802,-0.5 138.802,-30.5 230.008,-30.5 230.008,-0.5 138.802,-0.5"/>
<text text-anchor="start" x="146.802" y="-17.7" font-family="Helvetica,sans-Serif" font-size="11.00">file_utilities::get</text>
<text text-anchor="middle" x="184.405" y="-6.7" font-family="Helvetica,sans-Serif" font-size="11.00">_libc_errno</text>
</a>
</g>
</g>
<!-- Node1&#45;&gt;Node3 -->
<g id="edge2" class="edge"><title>Node1&#45;&gt;Node3</title>
<path fill="none" stroke="midnightblue" d="M103.051,-30.221C111.343,-28.7018 119.971,-27.1212 128.364,-25.5837"/>
<polygon fill="midnightblue" stroke="midnightblue" points="129.24,-28.9814 138.446,-23.7366 127.979,-22.096 129.24,-28.9814"/>
</g>
</g>
</svg>
