<?xml version="1.0" encoding="UTF-8" standalone="no"?>
<!DOCTYPE svg PUBLIC "-//W3C//DTD SVG 1.1//EN"
 "http://www.w3.org/Graphics/SVG/1.1/DTD/svg11.dtd">
<!-- Generated by graphviz version 2.38.0 (20140413.2041)
 -->
<!-- Title: model_initialize::read_hydrologic_soil_groups Pages: 1 -->
<svg width="300pt" height="66pt"
 viewBox="0.00 0.00 300.39 66.00" xmlns="http://www.w3.org/2000/svg" xmlns:xlink="http://www.w3.org/1999/xlink">
<g id="graph0" class="graph" transform="scale(1 1) rotate(0) translate(4 62)">
<title>model_initialize::read_hydrologic_soil_groups</title>
<polygon fill="white" stroke="none" points="-4,4 -4,-62 296.394,-62 296.394,4 -4,4"/>
<!-- Node1 -->
<g id="node1" class="node"><title>Node1</title>
<polygon fill="#bfbfbf" stroke="black" points="0,-14 0,-44 134.631,-44 134.631,-14 0,-14"/>
<text text-anchor="start" x="8" y="-31.2" font-family="Helvetica,sans-Serif" font-size="11.00">model_initialize::read</text>
<text text-anchor="middle" x="67.3157" y="-20.2" font-family="Helvetica,sans-Serif" font-size="11.00">_hydrologic_soil_groups</text>
</g>
<!-- Node2 -->
<g id="node2" class="node"><title>Node2</title>
<g id="a_node2"><a xlink:href="namespacegrid.html#a02803f7fe27d0354d3d16a15bd1338da" target="_top" xlink:title="grid::grid_writearcgrid">
<polygon fill="white" stroke="black" points="170.631,-38.5 170.631,-57.5 292.394,-57.5 292.394,-38.5 170.631,-38.5"/>
<text text-anchor="middle" x="231.512" y="-44.7" font-family="Helvetica,sans-Serif" font-size="11.00">grid::grid_writearcgrid</text>
</a>
</g>
</g>
<!-- Node1&#45;&gt;Node2 -->
<g id="edge1" class="edge"><title>Node1&#45;&gt;Node2</title>
<path fill="none" stroke="midnightblue" d="M134.755,-36.7828C143.152,-37.7664 151.765,-38.7754 160.219,-39.7657"/>
<polygon fill="midnightblue" stroke="midnightblue" points="160.088,-43.2742 170.427,-40.9615 160.902,-36.3217 160.088,-43.2742"/>
</g>
<!-- Node3 -->
<g id="node3" class="node"><title>Node3</title>
<g id="a_node3"><a xlink:href="namespaceexceptions.html#a84dd04476b06e0a398bfe6d106a82a4d" target="_top" xlink:title="exceptions::warn">
<polygon fill="white" stroke="black" points="182.241,-0.5 182.241,-19.5 280.784,-19.5 280.784,-0.5 182.241,-0.5"/>
<text text-anchor="middle" x="231.512" y="-6.7" font-family="Helvetica,sans-Serif" font-size="11.00">exceptions::warn</text>
</a>
</g>
</g>
<!-- Node1&#45;&gt;Node3 -->
<g id="edge2" class="edge"><title>Node1&#45;&gt;Node3</title>
<path fill="none" stroke="midnightblue" d="M134.755,-21.2172C146.935,-19.7904 159.571,-18.3102 171.515,-16.9111"/>
<polygon fill="midnightblue" stroke="midnightblue" points="172.279,-20.3456 181.803,-15.7059 171.464,-13.3932 172.279,-20.3456"/>
</g>
</g>
</svg>
