<?xml version="1.0" encoding="UTF-8" standalone="no"?>
<!DOCTYPE svg PUBLIC "-//W3C//DTD SVG 1.1//EN"
 "http://www.w3.org/Graphics/SVG/1.1/DTD/svg11.dtd">
<!-- Generated by graphviz version 2.38.0 (20140413.2041)
 -->
<!-- Title: data_catalog_entry::dump_data_structure_sub Pages: 1 -->
<svg width="480pt" height="39pt"
 viewBox="0.00 0.00 480.24 39.00" xmlns="http://www.w3.org/2000/svg" xmlns:xlink="http://www.w3.org/1999/xlink">
<g id="graph0" class="graph" transform="scale(1 1) rotate(0) translate(4 35)">
<title>data_catalog_entry::dump_data_structure_sub</title>
<polygon fill="white" stroke="none" points="-4,4 -4,-35 476.242,-35 476.242,4 -4,4"/>
<!-- Node94 -->
<g id="node1" class="node"><title>Node94</title>
<polygon fill="#bfbfbf" stroke="black" points="0,-0.5 0,-30.5 149.917,-30.5 149.917,-0.5 0,-0.5"/>
<text text-anchor="start" x="8" y="-17.7" font-family="Helvetica,sans-Serif" font-size="11.00">data_catalog_entry</text>
<text text-anchor="middle" x="74.9587" y="-6.7" font-family="Helvetica,sans-Serif" font-size="11.00">::dump_data_structure_sub</text>
</g>
<!-- Node95 -->
<g id="node2" class="node"><title>Node95</title>
<g id="a_node2"><a xlink:href="namespacedata__catalog__entry.html#ad366e6f92c311cf7842e8e339a88fc8f" target="_top" xlink:title="data_catalog_entry\l::getvalues_constant_sub">
<polygon fill="white" stroke="black" points="185.917,-0.5 185.917,-30.5 326.672,-30.5 326.672,-0.5 185.917,-0.5"/>
<text text-anchor="start" x="193.917" y="-17.7" font-family="Helvetica,sans-Serif" font-size="11.00">data_catalog_entry</text>
<text text-anchor="middle" x="256.295" y="-6.7" font-family="Helvetica,sans-Serif" font-size="11.00">::getvalues_constant_sub</text>
</a>
</g>
</g>
<!-- Node94&#45;&gt;Node95 -->
<g id="edge1" class="edge"><title>Node94&#45;&gt;Node95</title>
<path fill="none" stroke="midnightblue" d="M160.021,-15.5C168.654,-15.5 177.357,-15.5 185.808,-15.5"/>
<polygon fill="midnightblue" stroke="midnightblue" points="159.937,-12.0001 149.937,-15.5 159.937,-19.0001 159.937,-12.0001"/>
</g>
<!-- Node96 -->
<g id="node3" class="node"><title>Node96</title>
<g id="a_node3"><a xlink:href="namespacedata__catalog__entry.html#a9e0a89ab19a5bfd61f2dfb8265648234" target="_top" xlink:title="data_catalog_entry\l::getvalues_sub">
<polygon fill="white" stroke="black" points="362.672,-0.5 362.672,-30.5 472.242,-30.5 472.242,-0.5 362.672,-0.5"/>
<text text-anchor="start" x="370.672" y="-17.7" font-family="Helvetica,sans-Serif" font-size="11.00">data_catalog_entry</text>
<text text-anchor="middle" x="417.457" y="-6.7" font-family="Helvetica,sans-Serif" font-size="11.00">::getvalues_sub</text>
</a>
</g>
</g>
<!-- Node95&#45;&gt;Node96 -->
<g id="edge2" class="edge"><title>Node95&#45;&gt;Node96</title>
<path fill="none" stroke="midnightblue" d="M337.159,-15.5C345.741,-15.5 354.319,-15.5 362.494,-15.5"/>
<polygon fill="midnightblue" stroke="midnightblue" points="337.106,-12.0001 327.105,-15.5 337.105,-19.0001 337.106,-12.0001"/>
</g>
</g>
</svg>
