<?xml version="1.0" encoding="UTF-8" standalone="no"?>
<!DOCTYPE svg PUBLIC "-//W3C//DTD SVG 1.1//EN"
 "http://www.w3.org/Graphics/SVG/1.1/DTD/svg11.dtd">
<!-- Generated by graphviz version 2.38.0 (20140413.2041)
 -->
<!-- Title: grid::grid_readexisting Pages: 1 -->
<svg width="539pt" height="66pt"
 viewBox="0.00 0.00 538.89 66.00" xmlns="http://www.w3.org/2000/svg" xmlns:xlink="http://www.w3.org/1999/xlink">
<g id="graph0" class="graph" transform="scale(1 1) rotate(0) translate(4 62)">
<title>grid::grid_readexisting</title>
<polygon fill="white" stroke="none" points="-4,4 -4,-62 534.894,-62 534.894,4 -4,4"/>
<!-- Node35 -->
<g id="node1" class="node"><title>Node35</title>
<polygon fill="#bfbfbf" stroke="black" points="0,-19.5 0,-38.5 124.228,-38.5 124.228,-19.5 0,-19.5"/>
<text text-anchor="middle" x="62.1138" y="-25.7" font-family="Helvetica,sans-Serif" font-size="11.00">grid::grid_readexisting</text>
</g>
<!-- Node36 -->
<g id="node2" class="node"><title>Node36</title>
<g id="a_node2"><a xlink:href="namespacegrid.html#ab5ebfcb683f5e36ffbcd331146c51af3" target="_top" xlink:title="grid::grid_readarcgrid_sub">
<polygon fill="white" stroke="black" points="166.646,-38.5 166.646,-57.5 311.053,-57.5 311.053,-38.5 166.646,-38.5"/>
<text text-anchor="middle" x="238.849" y="-44.7" font-family="Helvetica,sans-Serif" font-size="11.00">grid::grid_readarcgrid_sub</text>
</a>
</g>
</g>
<!-- Node35&#45;&gt;Node36 -->
<g id="edge1" class="edge"><title>Node35&#45;&gt;Node36</title>
<path fill="none" stroke="midnightblue" d="M124.228,-35.6453C134.701,-36.7841 145.73,-37.9833 156.63,-39.1686"/>
<polygon fill="midnightblue" stroke="midnightblue" points="156.265,-42.6494 166.585,-40.251 157.022,-35.6904 156.265,-42.6494"/>
</g>
<!-- Node38 -->
<g id="node4" class="node"><title>Node38</title>
<g id="a_node4"><a xlink:href="namespacegrid.html#aee74303d2cef81de66150af260d41814" target="_top" xlink:title="grid::grid_readsurfergrid_sub">
<polygon fill="white" stroke="black" points="160.228,-0.5 160.228,-19.5 317.471,-19.5 317.471,-0.5 160.228,-0.5"/>
<text text-anchor="middle" x="238.849" y="-6.7" font-family="Helvetica,sans-Serif" font-size="11.00">grid::grid_readsurfergrid_sub</text>
</a>
</g>
</g>
<!-- Node35&#45;&gt;Node38 -->
<g id="edge3" class="edge"><title>Node35&#45;&gt;Node38</title>
<path fill="none" stroke="midnightblue" d="M124.228,-22.3547C132.575,-21.4471 141.274,-20.5012 149.98,-19.5545"/>
<polygon fill="midnightblue" stroke="midnightblue" points="150.619,-23.0058 160.182,-18.4452 149.862,-16.0468 150.619,-23.0058"/>
</g>
<!-- Node37 -->
<g id="node3" class="node"><title>Node37</title>
<g id="a_node3"><a xlink:href="namespacegrid.html#a16412abb2c65185817c6fa21595b05aa" target="_top" xlink:title="grid::grid_checkintegergridvalues">
<polygon fill="white" stroke="black" points="353.471,-19.5 353.471,-38.5 530.894,-38.5 530.894,-19.5 353.471,-19.5"/>
<text text-anchor="middle" x="442.183" y="-25.7" font-family="Helvetica,sans-Serif" font-size="11.00">grid::grid_checkintegergridvalues</text>
</a>
</g>
</g>
<!-- Node36&#45;&gt;Node37 -->
<g id="edge2" class="edge"><title>Node36&#45;&gt;Node37</title>
<path fill="none" stroke="midnightblue" d="M311.115,-41.2746C321.595,-40.2856 332.54,-39.2527 343.44,-38.2241"/>
<polygon fill="midnightblue" stroke="midnightblue" points="343.795,-41.7062 353.422,-37.282 343.138,-34.7371 343.795,-41.7062"/>
</g>
<!-- Node38&#45;&gt;Node37 -->
<g id="edge4" class="edge"><title>Node38&#45;&gt;Node37</title>
<path fill="none" stroke="midnightblue" d="M317.69,-17.3459C326.041,-18.134 334.613,-18.9429 343.16,-19.7495"/>
<polygon fill="midnightblue" stroke="midnightblue" points="342.882,-23.2387 353.167,-20.6939 343.54,-16.2697 342.882,-23.2387"/>
</g>
</g>
</svg>
