<?xml version="1.0" encoding="UTF-8" standalone="no"?>
<!DOCTYPE svg PUBLIC "-//W3C//DTD SVG 1.1//EN"
 "http://www.w3.org/Graphics/SVG/1.1/DTD/svg11.dtd">
<!-- Generated by graphviz version 2.38.0 (20140413.2041)
 -->
<!-- Title: datetime::mmdd2doy Pages: 1 -->
<svg width="651pt" height="105pt"
 viewBox="0.00 0.00 651.44 105.00" xmlns="http://www.w3.org/2000/svg" xmlns:xlink="http://www.w3.org/1999/xlink">
<g id="graph0" class="graph" transform="scale(1 1) rotate(0) translate(4 101)">
<title>datetime::mmdd2doy</title>
<polygon fill="white" stroke="none" points="-4,4 -4,-101 647.437,-101 647.437,4 -4,4"/>
<!-- Node114 -->
<g id="node1" class="node"><title>Node114</title>
<polygon fill="#bfbfbf" stroke="black" points="0,-38.5 0,-57.5 118.717,-57.5 118.717,-38.5 0,-38.5"/>
<text text-anchor="middle" x="59.3584" y="-44.7" font-family="Helvetica,sans-Serif" font-size="11.00">datetime::mmdd2doy</text>
</g>
<!-- Node115 -->
<g id="node2" class="node"><title>Node115</title>
<g id="a_node2"><a xlink:href="namespacegrowing__degree__day.html#a0e7f6a6149d6eb2f4aa96cadc1dc86de" target="_top" xlink:title="growing_degree_day\l::growing_degree_day\l_initialize">
<polygon fill="white" stroke="black" points="162.661,-55.5 162.661,-96.5 287.517,-96.5 287.517,-55.5 162.661,-55.5"/>
<text text-anchor="start" x="170.661" y="-83.7" font-family="Helvetica,sans-Serif" font-size="11.00">growing_degree_day</text>
<text text-anchor="start" x="170.661" y="-72.7" font-family="Helvetica,sans-Serif" font-size="11.00">::growing_degree_day</text>
<text text-anchor="middle" x="225.089" y="-61.7" font-family="Helvetica,sans-Serif" font-size="11.00">_initialize</text>
</a>
</g>
</g>
<!-- Node114&#45;&gt;Node115 -->
<g id="edge1" class="edge"><title>Node114&#45;&gt;Node115</title>
<path fill="none" stroke="midnightblue" d="M126.195,-59.259C138.201,-61.3121 150.685,-63.4471 162.56,-65.4778"/>
<polygon fill="midnightblue" stroke="midnightblue" points="126.694,-55.7935 116.247,-57.5577 125.514,-62.6934 126.694,-55.7935"/>
</g>
<!-- Node118 -->
<g id="node5" class="node"><title>Node118</title>
<g id="a_node5"><a xlink:href="namespacegrowing__season.html#add2a4f3df5a65bcd0406e7a24f8493f7" target="_top" xlink:title="growing_season::growing\l_season_initialize">
<polygon fill="white" stroke="black" points="154.717,-6 154.717,-36 295.46,-36 295.46,-6 154.717,-6"/>
<text text-anchor="start" x="162.717" y="-23.2" font-family="Helvetica,sans-Serif" font-size="11.00">growing_season::growing</text>
<text text-anchor="middle" x="225.089" y="-12.2" font-family="Helvetica,sans-Serif" font-size="11.00">_season_initialize</text>
</a>
</g>
</g>
<!-- Node114&#45;&gt;Node118 -->
<g id="edge4" class="edge"><title>Node114&#45;&gt;Node118</title>
<path fill="none" stroke="midnightblue" d="M128.176,-36.8165C136.88,-35.3811 145.802,-33.9098 154.534,-32.47"/>
<polygon fill="midnightblue" stroke="midnightblue" points="127.381,-33.4003 118.084,-38.4808 128.52,-40.307 127.381,-33.4003"/>
</g>
<!-- Node116 -->
<g id="node3" class="node"><title>Node116</title>
<g id="a_node3"><a xlink:href="namespacemodel__domain.html#acda9accebb6158cde99b20eb39898053" target="_top" xlink:title="model_domain::model\l_initialize_gdd">
<polygon fill="white" stroke="black" points="331.46,-61 331.46,-91 455.688,-91 455.688,-61 331.46,-61"/>
<text text-anchor="start" x="339.46" y="-78.2" font-family="Helvetica,sans-Serif" font-size="11.00">model_domain::model</text>
<text text-anchor="middle" x="393.574" y="-67.2" font-family="Helvetica,sans-Serif" font-size="11.00">_initialize_gdd</text>
</a>
</g>
</g>
<!-- Node115&#45;&gt;Node116 -->
<g id="edge2" class="edge"><title>Node115&#45;&gt;Node116</title>
<path fill="none" stroke="midnightblue" d="M297.766,-76C308.938,-76 320.394,-76 331.307,-76"/>
<polygon fill="midnightblue" stroke="midnightblue" points="297.609,-72.5001 287.609,-76 297.609,-79.5001 297.609,-72.5001"/>
</g>
<!-- Node117 -->
<g id="node4" class="node"><title>Node117</title>
<g id="a_node4"><a xlink:href="namespacemodel__domain.html#aac78dbf26ba37cf86ebed4edd7acf89b" target="_top" xlink:title="model_domain::set_method\l_pointers_sub">
<polygon fill="white" stroke="black" points="491.688,-61 491.688,-91 643.437,-91 643.437,-61 491.688,-61"/>
<text text-anchor="start" x="499.688" y="-78.2" font-family="Helvetica,sans-Serif" font-size="11.00">model_domain::set_method</text>
<text text-anchor="middle" x="567.562" y="-67.2" font-family="Helvetica,sans-Serif" font-size="11.00">_pointers_sub</text>
</a>
</g>
</g>
<!-- Node116&#45;&gt;Node117 -->
<g id="edge3" class="edge"><title>Node116&#45;&gt;Node117</title>
<path fill="none" stroke="midnightblue" d="M465.885,-76C474.337,-76 482.983,-76 491.486,-76"/>
<polygon fill="midnightblue" stroke="midnightblue" points="465.695,-72.5001 455.695,-76 465.695,-79.5001 465.695,-72.5001"/>
</g>
<!-- Node119 -->
<g id="node6" class="node"><title>Node119</title>
<g id="a_node6"><a xlink:href="namespacemodel__domain.html#ae57b872047925a2673ad1c369a759d42" target="_top" xlink:title="model_domain::model\l_initialize_growing\l_season">
<polygon fill="white" stroke="black" points="331.46,-0.5 331.46,-41.5 455.688,-41.5 455.688,-0.5 331.46,-0.5"/>
<text text-anchor="start" x="339.46" y="-28.7" font-family="Helvetica,sans-Serif" font-size="11.00">model_domain::model</text>
<text text-anchor="start" x="339.46" y="-17.7" font-family="Helvetica,sans-Serif" font-size="11.00">_initialize_growing</text>
<text text-anchor="middle" x="393.574" y="-6.7" font-family="Helvetica,sans-Serif" font-size="11.00">_season</text>
</a>
</g>
</g>
<!-- Node118&#45;&gt;Node119 -->
<g id="edge5" class="edge"><title>Node118&#45;&gt;Node119</title>
<path fill="none" stroke="midnightblue" d="M305.796,-21C314.41,-21 323.074,-21 331.42,-21"/>
<polygon fill="midnightblue" stroke="midnightblue" points="305.729,-17.5001 295.729,-21 305.729,-24.5001 305.729,-17.5001"/>
</g>
</g>
</svg>
