<?xml version="1.0" encoding="UTF-8" standalone="no"?>
<!DOCTYPE svg PUBLIC "-//W3C//DTD SVG 1.1//EN"
 "http://www.w3.org/Graphics/SVG/1.1/DTD/svg11.dtd">
<!-- Generated by graphviz version 2.38.0 (20140413.2041)
 -->
<!-- Title: grid::grid_writearcgrid Pages: 1 -->
<svg width="935pt" height="519pt"
 viewBox="0.00 0.00 935.20 518.76" xmlns="http://www.w3.org/2000/svg" xmlns:xlink="http://www.w3.org/1999/xlink">
<g id="graph0" class="graph" transform="scale(1 1) rotate(0) translate(4 514.761)">
<title>grid::grid_writearcgrid</title>
<polygon fill="white" stroke="none" points="-4,4 -4,-514.761 931.2,-514.761 931.2,4 -4,4"/>
<!-- Node1 -->
<g id="node1" class="node"><title>Node1</title>
<polygon fill="#bfbfbf" stroke="black" points="0,-250.761 0,-269.761 121.762,-269.761 121.762,-250.761 0,-250.761"/>
<text text-anchor="middle" x="60.8811" y="-256.961" font-family="Helvetica,sans-Serif" font-size="11.00">grid::grid_writearcgrid</text>
</g>
<!-- Node2 -->
<g id="node2" class="node"><title>Node2</title>
<g id="a_node2"><a xlink:href="namespacemodel__initialize.html#aa14822f91bc376101bbb19e39f63705c" target="_top" xlink:title="model_initialize::create\l_rooting_depth_table">
<polygon fill="white" stroke="black" points="176.424,-480.261 176.424,-510.261 304.315,-510.261 304.315,-480.261 176.424,-480.261"/>
<text text-anchor="start" x="184.424" y="-497.461" font-family="Helvetica,sans-Serif" font-size="11.00">model_initialize::create</text>
<text text-anchor="middle" x="240.369" y="-486.461" font-family="Helvetica,sans-Serif" font-size="11.00">_rooting_depth_table</text>
</a>
</g>
</g>
<!-- Node1&#45;&gt;Node2 -->
<g id="edge1" class="edge"><title>Node1&#45;&gt;Node2</title>
<path fill="none" stroke="midnightblue" d="M65.2451,-279.747C73.4043,-321.069 98.138,-417.98 157.762,-470.261 163.221,-475.048 169.581,-478.919 176.295,-482.048"/>
<polygon fill="midnightblue" stroke="midnightblue" points="68.6757,-279.05 63.4047,-269.86 61.7939,-280.332 68.6757,-279.05"/>
</g>
<!-- Node6 -->
<g id="node6" class="node"><title>Node6</title>
<g id="a_node6"><a xlink:href="namespacegrid.html#a4374d71b08027790c6fc307de2751bec" target="_top" xlink:title="grid::grid_writegrid">
<polygon fill="white" stroke="black" points="187.129,-441.761 187.129,-460.761 293.61,-460.761 293.61,-441.761 187.129,-441.761"/>
<text text-anchor="middle" x="240.369" y="-447.961" font-family="Helvetica,sans-Serif" font-size="11.00">grid::grid_writegrid</text>
</a>
</g>
</g>
<!-- Node1&#45;&gt;Node6 -->
<g id="edge5" class="edge"><title>Node1&#45;&gt;Node6</title>
<path fill="none" stroke="midnightblue" d="M67.0107,-279.662C77.5765,-315.667 105.295,-392.747 157.762,-432.261 166.245,-438.65 176.525,-442.94 186.889,-445.809"/>
<polygon fill="midnightblue" stroke="midnightblue" points="70.3421,-278.579 64.2739,-269.894 63.6016,-280.467 70.3421,-278.579"/>
</g>
<!-- Node7 -->
<g id="node7" class="node"><title>Node7</title>
<g id="a_node7"><a xlink:href="namespacemodel__initialize.html#a63c6e7946b13f1ffe90ca3e2d7df1387" target="_top" xlink:title="model_initialize::initialize\l_latitude">
<polygon fill="white" stroke="black" points="172.146,-294.261 172.146,-324.261 308.593,-324.261 308.593,-294.261 172.146,-294.261"/>
<text text-anchor="start" x="180.146" y="-311.461" font-family="Helvetica,sans-Serif" font-size="11.00">model_initialize::initialize</text>
<text text-anchor="middle" x="240.369" y="-300.461" font-family="Helvetica,sans-Serif" font-size="11.00">_latitude</text>
</a>
</g>
</g>
<!-- Node1&#45;&gt;Node7 -->
<g id="edge6" class="edge"><title>Node1&#45;&gt;Node7</title>
<path fill="none" stroke="midnightblue" d="M106.353,-272.539C130.173,-279.115 159.714,-287.271 184.902,-294.224"/>
<polygon fill="midnightblue" stroke="midnightblue" points="107.095,-269.113 96.524,-269.825 105.232,-275.861 107.095,-269.113"/>
</g>
<!-- Node9 -->
<g id="node9" class="node"><title>Node9</title>
<g id="a_node9"><a xlink:href="namespacemodel__initialize.html#ad4626f16ba0b3e433a90f89e29e4e491" target="_top" xlink:title="model_initialize::initialize\l_percent_canopy_cover">
<polygon fill="white" stroke="black" points="172.146,-245.261 172.146,-275.261 308.593,-275.261 308.593,-245.261 172.146,-245.261"/>
<text text-anchor="start" x="180.146" y="-262.461" font-family="Helvetica,sans-Serif" font-size="11.00">model_initialize::initialize</text>
<text text-anchor="middle" x="240.369" y="-251.461" font-family="Helvetica,sans-Serif" font-size="11.00">_percent_canopy_cover</text>
</a>
</g>
</g>
<!-- Node1&#45;&gt;Node9 -->
<g id="edge9" class="edge"><title>Node1&#45;&gt;Node9</title>
<path fill="none" stroke="midnightblue" d="M132.318,-260.261C145.397,-260.261 159.031,-260.261 172.016,-260.261"/>
<polygon fill="midnightblue" stroke="midnightblue" points="131.971,-256.762 121.971,-260.261 131.971,-263.762 131.971,-256.762"/>
</g>
<!-- Node10 -->
<g id="node10" class="node"><title>Node10</title>
<g id="a_node10"><a xlink:href="namespacemodel__initialize.html#a98c8d4a3d9a346ffe0e344d86e7588f5" target="_top" xlink:title="model_initialize::initialize\l_percent_pervious">
<polygon fill="white" stroke="black" points="172.146,-196.261 172.146,-226.261 308.593,-226.261 308.593,-196.261 172.146,-196.261"/>
<text text-anchor="start" x="180.146" y="-213.461" font-family="Helvetica,sans-Serif" font-size="11.00">model_initialize::initialize</text>
<text text-anchor="middle" x="240.369" y="-202.461" font-family="Helvetica,sans-Serif" font-size="11.00">_percent_pervious</text>
</a>
</g>
</g>
<!-- Node1&#45;&gt;Node10 -->
<g id="edge11" class="edge"><title>Node1&#45;&gt;Node10</title>
<path fill="none" stroke="midnightblue" d="M106.353,-247.984C130.173,-241.408 159.714,-233.252 184.902,-226.298"/>
<polygon fill="midnightblue" stroke="midnightblue" points="105.232,-244.662 96.524,-250.697 107.095,-251.41 105.232,-244.662"/>
</g>
<!-- Node11 -->
<g id="node11" class="node"><title>Node11</title>
<g id="a_node11"><a xlink:href="namespaceinterception____gash.html#a419e65fd85d4c1f7b36c056dde2753e6" target="_top" xlink:title="Initialize the Gash interception algorithm. ">
<polygon fill="white" stroke="black" points="185.891,-135.761 185.891,-176.761 294.848,-176.761 294.848,-135.761 185.891,-135.761"/>
<text text-anchor="start" x="193.891" y="-163.961" font-family="Helvetica,sans-Serif" font-size="11.00">interception__gash</text>
<text text-anchor="start" x="193.891" y="-152.961" font-family="Helvetica,sans-Serif" font-size="11.00">::interception_gash</text>
<text text-anchor="middle" x="240.369" y="-141.961" font-family="Helvetica,sans-Serif" font-size="11.00">_initialize</text>
</a>
</g>
</g>
<!-- Node1&#45;&gt;Node11 -->
<g id="edge13" class="edge"><title>Node1&#45;&gt;Node11</title>
<path fill="none" stroke="midnightblue" d="M79.6472,-243.843C98.0615,-227.504 128.236,-202.576 157.762,-186.261 166.482,-181.443 176.13,-177.115 185.648,-173.345"/>
<polygon fill="midnightblue" stroke="midnightblue" points="77.1427,-241.389 72.0586,-250.684 81.8297,-246.588 77.1427,-241.389"/>
</g>
<!-- Node14 -->
<g id="node14" class="node"><title>Node14</title>
<g id="a_node14"><a xlink:href="namespacemodel__initialize.html#ab60a4a907017b668494f60a20fe0c505" target="_top" xlink:title="model_initialize::read\l_hydrologic_soil_groups">
<polygon fill="white" stroke="black" points="173.054,-392.261 173.054,-422.261 307.685,-422.261 307.685,-392.261 173.054,-392.261"/>
<text text-anchor="start" x="181.054" y="-409.461" font-family="Helvetica,sans-Serif" font-size="11.00">model_initialize::read</text>
<text text-anchor="middle" x="240.369" y="-398.461" font-family="Helvetica,sans-Serif" font-size="11.00">_hydrologic_soil_groups</text>
</a>
</g>
</g>
<!-- Node1&#45;&gt;Node14 -->
<g id="edge16" class="edge"><title>Node1&#45;&gt;Node14</title>
<path fill="none" stroke="midnightblue" d="M71.5595,-279.097C86.4326,-306.174 117.465,-355.849 157.762,-383.261 162.769,-386.667 168.264,-389.597 173.965,-392.117"/>
<polygon fill="midnightblue" stroke="midnightblue" points="74.4589,-277.096 66.6648,-269.919 68.2824,-280.39 74.4589,-277.096"/>
</g>
<!-- Node15 -->
<g id="node15" class="node"><title>Node15</title>
<g id="a_node15"><a xlink:href="namespacemodel__initialize.html#ada372cfa561700f3374fc97ce280ce63" target="_top" xlink:title="model_initialize::read\l_landuse_codes">
<polygon fill="white" stroke="black" points="180.702,-343.261 180.702,-373.261 300.037,-373.261 300.037,-343.261 180.702,-343.261"/>
<text text-anchor="start" x="188.702" y="-360.461" font-family="Helvetica,sans-Serif" font-size="11.00">model_initialize::read</text>
<text text-anchor="middle" x="240.369" y="-349.461" font-family="Helvetica,sans-Serif" font-size="11.00">_landuse_codes</text>
</a>
</g>
</g>
<!-- Node1&#45;&gt;Node15 -->
<g id="edge18" class="edge"><title>Node1&#45;&gt;Node15</title>
<path fill="none" stroke="midnightblue" d="M79.1333,-276.823C97.3454,-293.483 127.549,-318.851 157.762,-334.261 164.866,-337.885 172.604,-341.048 180.393,-343.783"/>
<polygon fill="midnightblue" stroke="midnightblue" points="81.3533,-274.108 71.6524,-269.848 76.5798,-279.227 81.3533,-274.108"/>
</g>
<!-- Node16 -->
<g id="node16" class="node"><title>Node16</title>
<g id="a_node16"><a xlink:href="namespacemodel__initialize.html#aff75bbdefdd2d6980b3e40d5864dee8f" target="_top" xlink:title="model_initialize::read\l_polygon_id">
<polygon fill="white" stroke="black" points="180.702,-86.2614 180.702,-116.261 300.037,-116.261 300.037,-86.2614 180.702,-86.2614"/>
<text text-anchor="start" x="188.702" y="-103.461" font-family="Helvetica,sans-Serif" font-size="11.00">model_initialize::read</text>
<text text-anchor="middle" x="240.369" y="-92.4614" font-family="Helvetica,sans-Serif" font-size="11.00">_polygon_id</text>
</a>
</g>
</g>
<!-- Node1&#45;&gt;Node16 -->
<g id="edge20" class="edge"><title>Node1&#45;&gt;Node16</title>
<path fill="none" stroke="midnightblue" d="M70.3696,-241.424C84.4019,-212.397 115.175,-156.89 157.762,-126.261 164.619,-121.33 172.468,-117.355 180.528,-114.155"/>
<polygon fill="midnightblue" stroke="midnightblue" points="67.1892,-239.963 66.1125,-250.503 73.527,-242.934 67.1892,-239.963"/>
</g>
<!-- Node17 -->
<g id="node17" class="node"><title>Node17</title>
<g id="a_node17"><a xlink:href="namespacerouting____d8.html#ae2756c01d52d156a1b6c7ce48ca1e941" target="_top" xlink:title="routing__d8::routing\l_d8_determine_solution_order">
<polygon fill="white" stroke="black" points="157.762,-37.2614 157.762,-67.2614 322.977,-67.2614 322.977,-37.2614 157.762,-37.2614"/>
<text text-anchor="start" x="165.762" y="-54.4614" font-family="Helvetica,sans-Serif" font-size="11.00">routing__d8::routing</text>
<text text-anchor="middle" x="240.369" y="-43.4614" font-family="Helvetica,sans-Serif" font-size="11.00">_d8_determine_solution_order</text>
</a>
</g>
</g>
<!-- Node1&#45;&gt;Node17 -->
<g id="edge21" class="edge"><title>Node1&#45;&gt;Node17</title>
<path fill="none" stroke="midnightblue" d="M66.5523,-240.843C76.594,-203.312 103.825,-120.616 157.762,-76.2614 161.983,-72.7908 166.688,-69.8221 171.649,-67.2827"/>
<polygon fill="midnightblue" stroke="midnightblue" points="63.1549,-240.001 64.0719,-250.556 69.9373,-241.733 63.1549,-240.001"/>
</g>
<!-- Node18 -->
<g id="node18" class="node"><title>Node18</title>
<g id="a_node18"><a xlink:href="namespacerouting____d8.html#a0008fcb9bc5678e484885bc650fae726" target="_top" xlink:title="routing__d8::routing\l_d8_initialize">
<polygon fill="white" stroke="black" points="397.187,-37.2614 397.187,-67.2614 511.037,-67.2614 511.037,-37.2614 397.187,-37.2614"/>
<text text-anchor="start" x="405.187" y="-54.4614" font-family="Helvetica,sans-Serif" font-size="11.00">routing__d8::routing</text>
<text text-anchor="middle" x="454.112" y="-43.4614" font-family="Helvetica,sans-Serif" font-size="11.00">_d8_initialize</text>
</a>
</g>
</g>
<!-- Node1&#45;&gt;Node18 -->
<g id="edge25" class="edge"><title>Node1&#45;&gt;Node18</title>
<path fill="none" stroke="midnightblue" d="M63.0347,-240.639C66.9617,-193.98 84.0669,-76.6264 157.762,-27.2614 238.781,27.0089 361.69,-12.765 420.078,-37.0908"/>
<polygon fill="midnightblue" stroke="midnightblue" points="59.5405,-240.434 62.3077,-250.661 66.5221,-240.941 59.5405,-240.434"/>
</g>
<!-- Node3 -->
<g id="node3" class="node"><title>Node3</title>
<g id="a_node3"><a xlink:href="namespacemodel__initialize.html#ad5de643aae8f976ef39b44ec8276c528" target="_top" xlink:title="Initialize soils, landuse, and available water content values. ">
<polygon fill="white" stroke="black" points="358.977,-367.261 358.977,-397.261 549.247,-397.261 549.247,-367.261 358.977,-367.261"/>
<text text-anchor="start" x="366.977" y="-384.461" font-family="Helvetica,sans-Serif" font-size="11.00">model_initialize::initialize</text>
<text text-anchor="middle" x="454.112" y="-373.461" font-family="Helvetica,sans-Serif" font-size="11.00">_soils_landuse_awc_flowdir_values</text>
</a>
</g>
</g>
<!-- Node2&#45;&gt;Node3 -->
<g id="edge2" class="edge"><title>Node2&#45;&gt;Node3</title>
<path fill="none" stroke="midnightblue" d="M307.818,-476.744C313.02,-474.74 318.13,-472.578 322.977,-470.261 365.792,-449.794 410.524,-416.496 434.788,-397.264"/>
<polygon fill="midnightblue" stroke="midnightblue" points="306.588,-473.468 298.393,-480.182 308.987,-480.044 306.588,-473.468"/>
</g>
<!-- Node4 -->
<g id="node4" class="node"><title>Node4</title>
<g id="a_node4"><a xlink:href="namespacemodel__initialize.html#a46370bf2e9ea112d1f219277ba7fd3ce" target="_top" xlink:title="model_initialize::initialize_all">
<polygon fill="white" stroke="black" points="585.564,-323.761 585.564,-342.761 739.134,-342.761 739.134,-323.761 585.564,-323.761"/>
<text text-anchor="middle" x="662.349" y="-329.961" font-family="Helvetica,sans-Serif" font-size="11.00">model_initialize::initialize_all</text>
</a>
</g>
</g>
<!-- Node3&#45;&gt;Node4 -->
<g id="edge3" class="edge"><title>Node3&#45;&gt;Node4</title>
<path fill="none" stroke="midnightblue" d="M528.382,-364.853C559.636,-357.427 594.894,-349.051 621.246,-342.789"/>
<polygon fill="midnightblue" stroke="midnightblue" points="527.311,-361.51 518.391,-367.227 528.93,-368.32 527.311,-361.51"/>
</g>
<!-- Node5 -->
<g id="node5" class="node"><title>Node5</title>
<g id="a_node5"><a xlink:href="main_8F90.html#a8ec2266d83cd6c0b762cbcbc92c0af3d" target="_top" xlink:title="Main program which references all other modules; execution begins here. ">
<polygon fill="white" stroke="black" points="831.404,-323.761 831.404,-342.761 871.246,-342.761 871.246,-323.761 831.404,-323.761"/>
<text text-anchor="middle" x="851.325" y="-329.961" font-family="Helvetica,sans-Serif" font-size="11.00">main</text>
</a>
</g>
</g>
<!-- Node4&#45;&gt;Node5 -->
<g id="edge4" class="edge"><title>Node4&#45;&gt;Node5</title>
<path fill="none" stroke="midnightblue" d="M749.704,-333.261C780.261,-333.261 811.84,-333.261 831.281,-333.261"/>
<polygon fill="midnightblue" stroke="midnightblue" points="749.399,-329.762 739.399,-333.261 749.399,-336.762 749.399,-329.762"/>
</g>
<!-- Node8 -->
<g id="node8" class="node"><title>Node8</title>
<g id="a_node8"><a xlink:href="namespacemodel__initialize.html#a39e959b59f3ec67f64a1b37a5b30ebc2" target="_top" xlink:title="model_initialize::initialize\l_ancillary_values">
<polygon fill="white" stroke="black" points="385.888,-269.261 385.888,-299.261 522.335,-299.261 522.335,-269.261 385.888,-269.261"/>
<text text-anchor="start" x="393.888" y="-286.461" font-family="Helvetica,sans-Serif" font-size="11.00">model_initialize::initialize</text>
<text text-anchor="middle" x="454.112" y="-275.461" font-family="Helvetica,sans-Serif" font-size="11.00">_ancillary_values</text>
</a>
</g>
</g>
<!-- Node7&#45;&gt;Node8 -->
<g id="edge7" class="edge"><title>Node7&#45;&gt;Node8</title>
<path fill="none" stroke="midnightblue" d="M318.607,-300.142C340.567,-297.549 364.304,-294.747 385.636,-292.228"/>
<polygon fill="midnightblue" stroke="midnightblue" points="318.178,-296.668 308.657,-301.317 318.998,-303.62 318.178,-296.668"/>
</g>
<!-- Node8&#45;&gt;Node4 -->
<g id="edge8" class="edge"><title>Node8&#45;&gt;Node4</title>
<path fill="none" stroke="midnightblue" d="M528.382,-301.67C559.636,-309.095 594.894,-317.472 621.246,-323.733"/>
<polygon fill="midnightblue" stroke="midnightblue" points="528.93,-298.202 518.391,-299.296 527.311,-305.013 528.93,-298.202"/>
</g>
<!-- Node9&#45;&gt;Node8 -->
<g id="edge10" class="edge"><title>Node9&#45;&gt;Node8</title>
<path fill="none" stroke="midnightblue" d="M318.607,-269.016C340.567,-271.505 364.304,-274.196 385.636,-276.613"/>
<polygon fill="midnightblue" stroke="midnightblue" points="318.988,-265.537 308.657,-267.888 318.199,-272.492 318.988,-265.537"/>
</g>
<!-- Node10&#45;&gt;Node8 -->
<g id="edge12" class="edge"><title>Node10&#45;&gt;Node8</title>
<path fill="none" stroke="midnightblue" d="M301.74,-229.339C308.916,-231.611 316.123,-233.95 322.977,-236.261 353.781,-246.652 388.285,-259.432 414.022,-269.192"/>
<polygon fill="midnightblue" stroke="midnightblue" points="302.598,-225.94 292.009,-226.291 300.506,-232.62 302.598,-225.94"/>
</g>
<!-- Node12 -->
<g id="node12" class="node"><title>Node12</title>
<g id="a_node12"><a xlink:href="namespacemodel__domain.html#ab12b607e458d5176b9989a39a0710ebe" target="_top" xlink:title="model_domain::model\l_initialize_interception_gash">
<polygon fill="white" stroke="black" points="585.247,-100.261 585.247,-130.261 739.451,-130.261 739.451,-100.261 585.247,-100.261"/>
<text text-anchor="start" x="593.247" y="-117.461" font-family="Helvetica,sans-Serif" font-size="11.00">model_domain::model</text>
<text text-anchor="middle" x="662.349" y="-106.461" font-family="Helvetica,sans-Serif" font-size="11.00">_initialize_interception_gash</text>
</a>
</g>
</g>
<!-- Node11&#45;&gt;Node12 -->
<g id="edge14" class="edge"><title>Node11&#45;&gt;Node12</title>
<path fill="none" stroke="midnightblue" d="M305.243,-150.026C380.324,-142.696 504.82,-130.542 584.945,-122.72"/>
<polygon fill="midnightblue" stroke="midnightblue" points="304.599,-146.572 294.987,-151.027 305.279,-153.539 304.599,-146.572"/>
</g>
<!-- Node13 -->
<g id="node13" class="node"><title>Node13</title>
<g id="a_node13"><a xlink:href="namespacemodel__domain.html#aac78dbf26ba37cf86ebed4edd7acf89b" target="_top" xlink:title="model_domain::set_method\l_pointers_sub">
<polygon fill="white" stroke="black" points="775.451,-72.2614 775.451,-102.261 927.2,-102.261 927.2,-72.2614 775.451,-72.2614"/>
<text text-anchor="start" x="783.451" y="-89.4614" font-family="Helvetica,sans-Serif" font-size="11.00">model_domain::set_method</text>
<text text-anchor="middle" x="851.325" y="-78.4614" font-family="Helvetica,sans-Serif" font-size="11.00">_pointers_sub</text>
</a>
</g>
</g>
<!-- Node12&#45;&gt;Node13 -->
<g id="edge15" class="edge"><title>Node12&#45;&gt;Node13</title>
<path fill="none" stroke="midnightblue" d="M749.623,-102.342C758.149,-101.065 766.756,-99.7761 775.157,-98.5181"/>
<polygon fill="midnightblue" stroke="midnightblue" points="749.04,-98.8899 739.669,-103.832 750.077,-105.813 749.04,-98.8899"/>
</g>
<!-- Node14&#45;&gt;Node3 -->
<g id="edge17" class="edge"><title>Node14&#45;&gt;Node3</title>
<path fill="none" stroke="midnightblue" d="M317.776,-398.24C331.032,-396.675 344.957,-395.031 358.626,-393.417"/>
<polygon fill="midnightblue" stroke="midnightblue" points="317.306,-394.771 307.785,-399.42 318.126,-401.723 317.306,-394.771"/>
</g>
<!-- Node15&#45;&gt;Node3 -->
<g id="edge19" class="edge"><title>Node15&#45;&gt;Node3</title>
<path fill="none" stroke="midnightblue" d="M310.111,-366.053C325.685,-367.818 342.487,-369.723 358.91,-371.584"/>
<polygon fill="midnightblue" stroke="midnightblue" points="310.401,-362.564 300.07,-364.915 309.612,-369.519 310.401,-362.564"/>
</g>
<!-- Node17&#45;&gt;Node18 -->
<g id="edge22" class="edge"><title>Node17&#45;&gt;Node18</title>
<path fill="none" stroke="midnightblue" d="M333.442,-52.2614C355.081,-52.2614 377.503,-52.2614 397.007,-52.2614"/>
<polygon fill="midnightblue" stroke="midnightblue" points="333.235,-48.7615 323.235,-52.2614 333.235,-55.7615 333.235,-48.7615"/>
</g>
<!-- Node19 -->
<g id="node19" class="node"><title>Node19</title>
<g id="a_node19"><a xlink:href="namespacemodel__domain.html#a18aeded59e98fc5ba71f5b4d6b53d732" target="_top" xlink:title="model_domain::model\l_initialize_routing_d8">
<polygon fill="white" stroke="black" points="600.235,-44.2614 600.235,-74.2614 724.463,-74.2614 724.463,-44.2614 600.235,-44.2614"/>
<text text-anchor="start" x="608.235" y="-61.4614" font-family="Helvetica,sans-Serif" font-size="11.00">model_domain::model</text>
<text text-anchor="middle" x="662.349" y="-50.4614" font-family="Helvetica,sans-Serif" font-size="11.00">_initialize_routing_d8</text>
</a>
</g>
</g>
<!-- Node18&#45;&gt;Node19 -->
<g id="edge23" class="edge"><title>Node18&#45;&gt;Node19</title>
<path fill="none" stroke="midnightblue" d="M521.436,-54.5126C546.728,-55.371 575.419,-56.3449 600.207,-57.1862"/>
<polygon fill="midnightblue" stroke="midnightblue" points="521.308,-51.0063 511.195,-54.165 521.07,-58.0023 521.308,-51.0063"/>
</g>
<!-- Node19&#45;&gt;Node13 -->
<g id="edge24" class="edge"><title>Node19&#45;&gt;Node13</title>
<path fill="none" stroke="midnightblue" d="M734.6,-69.9314C747.901,-71.9232 761.839,-74.0105 775.251,-76.019"/>
<polygon fill="midnightblue" stroke="midnightblue" points="734.98,-66.4494 724.572,-68.4297 733.943,-73.3722 734.98,-66.4494"/>
</g>
</g>
</svg>
