<?xml version="1.0" encoding="UTF-8" standalone="no"?>
<!DOCTYPE svg PUBLIC "-//W3C//DTD SVG 1.1//EN"
 "http://www.w3.org/Graphics/SVG/1.1/DTD/svg11.dtd">
<!-- Generated by graphviz version 2.38.0 (20140413.2041)
 -->
<!-- Title: netcdf4_support::nf_put_lat_and_lon Pages: 1 -->
<svg width="645pt" height="39pt"
 viewBox="0.00 0.00 644.76 39.00" xmlns="http://www.w3.org/2000/svg" xmlns:xlink="http://www.w3.org/1999/xlink">
<g id="graph0" class="graph" transform="scale(1 1) rotate(0) translate(4 35)">
<title>netcdf4_support::nf_put_lat_and_lon</title>
<polygon fill="white" stroke="none" points="-4,4 -4,-35 640.761,-35 640.761,4 -4,4"/>
<!-- Node1 -->
<g id="node1" class="node"><title>Node1</title>
<polygon fill="#bfbfbf" stroke="black" points="0,-0.5 0,-30.5 110.177,-30.5 110.177,-0.5 0,-0.5"/>
<text text-anchor="start" x="8" y="-17.7" font-family="Helvetica,sans-Serif" font-size="11.00">netcdf4_support::nf</text>
<text text-anchor="middle" x="55.0884" y="-6.7" font-family="Helvetica,sans-Serif" font-size="11.00">_put_lat_and_lon</text>
</g>
<!-- Node2 -->
<g id="node2" class="node"><title>Node2</title>
<g id="a_node2"><a xlink:href="namespacenetcdf4__support.html#a78f84d0c950f4e9718ba2d8060192355" target="_top" xlink:title="netcdf4_support::netcdf\l_put_variable_array">
<polygon fill="white" stroke="black" points="146.177,-0.5 146.177,-30.5 277.145,-30.5 277.145,-0.5 146.177,-0.5"/>
<text text-anchor="start" x="154.177" y="-17.7" font-family="Helvetica,sans-Serif" font-size="11.00">netcdf4_support::netcdf</text>
<text text-anchor="middle" x="211.661" y="-6.7" font-family="Helvetica,sans-Serif" font-size="11.00">_put_variable_array</text>
</a>
</g>
</g>
<!-- Node1&#45;&gt;Node2 -->
<g id="edge1" class="edge"><title>Node1&#45;&gt;Node2</title>
<path fill="none" stroke="midnightblue" d="M110.585,-15.5C118.831,-15.5 127.458,-15.5 136.041,-15.5"/>
<polygon fill="midnightblue" stroke="midnightblue" points="136.07,-19.0001 146.07,-15.5 136.07,-12.0001 136.07,-19.0001"/>
</g>
<!-- Node3 -->
<g id="node3" class="node"><title>Node3</title>
<g id="a_node3"><a xlink:href="namespacenetcdf4__support.html#ac8c7276a5849ae6d17ffef1787e3f234" target="_top" xlink:title="netcdf4_support::nf_trap">
<polygon fill="white" stroke="black" points="313.145,-6 313.145,-25 448.394,-25 448.394,-6 313.145,-6"/>
<text text-anchor="middle" x="380.77" y="-12.2" font-family="Helvetica,sans-Serif" font-size="11.00">netcdf4_support::nf_trap</text>
</a>
</g>
</g>
<!-- Node2&#45;&gt;Node3 -->
<g id="edge2" class="edge"><title>Node2&#45;&gt;Node3</title>
<path fill="none" stroke="midnightblue" d="M277.269,-15.5C285.719,-15.5 294.442,-15.5 303.066,-15.5"/>
<polygon fill="midnightblue" stroke="midnightblue" points="303.124,-19.0001 313.123,-15.5 303.123,-12.0001 303.124,-19.0001"/>
</g>
<!-- Node4 -->
<g id="node4" class="node"><title>Node4</title>
<g id="a_node4"><a xlink:href="namespaceconstants__and__conversions.html#ac13fba285229deab77131132e6f62caf" target="_top" xlink:title="constants_and_conversions\l::char_ptr_to_fortran_string">
<polygon fill="white" stroke="black" points="484.394,-0.5 484.394,-30.5 636.761,-30.5 636.761,-0.5 484.394,-0.5"/>
<text text-anchor="start" x="492.394" y="-17.7" font-family="Helvetica,sans-Serif" font-size="11.00">constants_and_conversions</text>
<text text-anchor="middle" x="560.577" y="-6.7" font-family="Helvetica,sans-Serif" font-size="11.00">::char_ptr_to_fortran_string</text>
</a>
</g>
</g>
<!-- Node3&#45;&gt;Node4 -->
<g id="edge3" class="edge"><title>Node3&#45;&gt;Node4</title>
<path fill="none" stroke="midnightblue" d="M448.484,-15.5C456.842,-15.5 465.479,-15.5 474.074,-15.5"/>
<polygon fill="midnightblue" stroke="midnightblue" points="474.125,-19.0001 484.125,-15.5 474.124,-12.0001 474.125,-19.0001"/>
</g>
</g>
</svg>
