<?xml version="1.0" encoding="UTF-8" standalone="no"?>
<!DOCTYPE svg PUBLIC "-//W3C//DTD SVG 1.1//EN"
 "http://www.w3.org/Graphics/SVG/1.1/DTD/svg11.dtd">
<!-- Generated by graphviz version 2.38.0 (20140413.2041)
 -->
<!-- Title: actual_et__thornthwaite_mather_eqns::initialize_actual_et_thornthwaite_mather_eqns Pages: 1 -->
<svg width="517pt" height="61pt"
 viewBox="0.00 0.00 516.92 61.00" xmlns="http://www.w3.org/2000/svg" xmlns:xlink="http://www.w3.org/1999/xlink">
<g id="graph0" class="graph" transform="scale(1 1) rotate(0) translate(4 57)">
<title>actual_et__thornthwaite_mather_eqns::initialize_actual_et_thornthwaite_mather_eqns</title>
<polygon fill="white" stroke="none" points="-4,4 -4,-57 512.921,-57 512.921,4 -4,4"/>
<!-- Node1 -->
<g id="node1" class="node"><title>Node1</title>
<polygon fill="#bfbfbf" stroke="black" points="0,-0.5 0,-52.5 132.805,-52.5 132.805,-0.5 0,-0.5"/>
<text text-anchor="start" x="8" y="-39.7" font-family="Helvetica,sans-Serif" font-size="11.00">actual_et__thornthwaite</text>
<text text-anchor="start" x="8" y="-28.7" font-family="Helvetica,sans-Serif" font-size="11.00">_mather_eqns::initialize</text>
<text text-anchor="start" x="8" y="-17.7" font-family="Helvetica,sans-Serif" font-size="11.00">_actual_et_thornthwaite</text>
<text text-anchor="middle" x="66.4026" y="-6.7" font-family="Helvetica,sans-Serif" font-size="11.00">_mather_eqns</text>
</g>
<!-- Node2 -->
<g id="node2" class="node"><title>Node2</title>
<g id="a_node2"><a xlink:href="namespacemodel__domain.html#ae2c7066facd759963b51fe1aa6459c93" target="_top" xlink:title="model_domain::model\l_initialize_actual_et\l_thornthwaite_mather_eqns">
<polygon fill="white" stroke="black" points="168.805,-6 168.805,-47 321.172,-47 321.172,-6 168.805,-6"/>
<text text-anchor="start" x="176.805" y="-34.2" font-family="Helvetica,sans-Serif" font-size="11.00">model_domain::model</text>
<text text-anchor="start" x="176.805" y="-23.2" font-family="Helvetica,sans-Serif" font-size="11.00">_initialize_actual_et</text>
<text text-anchor="middle" x="244.989" y="-12.2" font-family="Helvetica,sans-Serif" font-size="11.00">_thornthwaite_mather_eqns</text>
</a>
</g>
</g>
<!-- Node1&#45;&gt;Node2 -->
<g id="edge1" class="edge"><title>Node1&#45;&gt;Node2</title>
<path fill="none" stroke="midnightblue" d="M143.156,-26.5C151.642,-26.5 160.285,-26.5 168.764,-26.5"/>
<polygon fill="midnightblue" stroke="midnightblue" points="142.906,-23.0001 132.906,-26.5 142.906,-30.0001 142.906,-23.0001"/>
</g>
<!-- Node3 -->
<g id="node3" class="node"><title>Node3</title>
<g id="a_node3"><a xlink:href="namespacemodel__domain.html#aac78dbf26ba37cf86ebed4edd7acf89b" target="_top" xlink:title="model_domain::set_method\l_pointers_sub">
<polygon fill="white" stroke="black" points="357.172,-11.5 357.172,-41.5 508.921,-41.5 508.921,-11.5 357.172,-11.5"/>
<text text-anchor="start" x="365.172" y="-28.7" font-family="Helvetica,sans-Serif" font-size="11.00">model_domain::set_method</text>
<text text-anchor="middle" x="433.046" y="-17.7" font-family="Helvetica,sans-Serif" font-size="11.00">_pointers_sub</text>
</a>
</g>
</g>
<!-- Node2&#45;&gt;Node3 -->
<g id="edge2" class="edge"><title>Node2&#45;&gt;Node3</title>
<path fill="none" stroke="midnightblue" d="M331.417,-26.5C340.001,-26.5 348.672,-26.5 357.135,-26.5"/>
<polygon fill="midnightblue" stroke="midnightblue" points="331.397,-23.0001 321.397,-26.5 331.397,-30.0001 331.397,-23.0001"/>
</g>
</g>
</svg>
