<?xml version="1.0" encoding="UTF-8" standalone="no"?>
<!DOCTYPE svg PUBLIC "-//W3C//DTD SVG 1.1//EN"
 "http://www.w3.org/Graphics/SVG/1.1/DTD/svg11.dtd">
<!-- Generated by graphviz version 2.38.0 (20140413.2041)
 -->
<!-- Title: model_initialize::initialize_ancillary_values Pages: 1 -->
<!--zoomable 407 -->
<svg id="main" version="1.1" xmlns="http://www.w3.org/2000/svg" xmlns:xlink="http://www.w3.org/1999/xlink" xml:space="preserve" onload="init(evt)">
<style type="text/css"><![CDATA[
.edge:hover path { stroke: red; }
.edge:hover polygon { stroke: red; fill: red; }
]]></style>
<script type="text/javascript"><![CDATA[
var edges = document.getElementsByTagName('g');
if (edges && edges.length) {
  for (var i=0;i<edges.length;i++) {
    if (edges[i].id.substr(0,4)=='edge') {
      edges[i].setAttribute('class','edge');
    }
  }
}
]]></script>
        <defs>
                <circle id="rim" cx="0" cy="0" r="7"/>
                <circle id="rim2" cx="0" cy="0" r="3.5"/>
                <g id="zoomPlus">
                        <use xlink:href="#rim" fill="#404040">
                                <set attributeName="fill" to="#808080" begin="zoomplus.mouseover" end="zoomplus.mouseout"/>
                        </use>
                        <path d="M-4,0h8M0,-4v8" fill="none" stroke="white" stroke-width="1.5" pointer-events="none"/>
                </g>
                <g id="zoomMin">
                        <use xlink:href="#rim" fill="#404040">
                                <set attributeName="fill" to="#808080" begin="zoomminus.mouseover" end="zoomminus.mouseout"/>
                        </use>
                        <path d="M-4,0h8" fill="none" stroke="white" stroke-width="1.5" pointer-events="none"/>
                </g>
                <g id="dirArrow">
                        <path fill="none" stroke="white" stroke-width="1.5" d="M0,-3.0v7 M-2.5,-0.5L0,-3.0L2.5,-0.5"/>
                </g>
               <g id="resetDef">
                       <use xlink:href="#rim2" fill="#404040">
                               <set attributeName="fill" to="#808080" begin="reset.mouseover" end="reset.mouseout"/>
                       </use>
               </g>
        </defs>

<script type="text/javascript">
var viewWidth = 805;
var viewHeight = 407;
var sectionId = 'dynsection-4';
</script>
<script xlink:href="svgpan.js"/>
<svg id="graph" class="graph">
<g id="viewport">
<title>model_initialize::initialize_ancillary_values</title>
<polygon fill="white" stroke="none" points="-4,4 -4,-402.5 800.875,-402.5 800.875,4 -4,4"/>
<!-- Node53 -->
<g id="node1" class="node"><title>Node53</title>
<polygon fill="#bfbfbf" stroke="black" points="0,-159.5 0,-189.5 136.447,-189.5 136.447,-159.5 0,-159.5"/>
<text text-anchor="start" x="8" y="-176.7" font-family="Helvetica,sans-Serif" font-size="11.00">model_initialize::initialize</text>
<text text-anchor="middle" x="68.2234" y="-165.7" font-family="Helvetica,sans-Serif" font-size="11.00">_ancillary_values</text>
</g>
<!-- Node54 -->
<g id="node2" class="node"><title>Node54</title>
<g id="a_node2"><a xlink:href="namespacemodel__initialize.html#a63c6e7946b13f1ffe90ca3e2d7df1387" target="_top" xlink:title="model_initialize::initialize\l_latitude">
<polygon fill="white" stroke="black" points="172.447,-306.5 172.447,-336.5 308.894,-336.5 308.894,-306.5 172.447,-306.5"/>
<text text-anchor="start" x="180.447" y="-323.7" font-family="Helvetica,sans-Serif" font-size="11.00">model_initialize::initialize</text>
<text text-anchor="middle" x="240.67" y="-312.7" font-family="Helvetica,sans-Serif" font-size="11.00">_latitude</text>
</a>
</g>
</g>
<!-- Node53&#45;&gt;Node54 -->
<g id="edge1" class="edge"><title>Node53&#45;&gt;Node54</title>
<path fill="none" stroke="midnightblue" d="M78.0965,-189.59C93.9208,-215.266 129.422,-267.573 172.447,-297.5 174.583,-298.986 176.821,-300.39 179.13,-301.715"/>
<polygon fill="midnightblue" stroke="midnightblue" points="177.828,-304.98 188.321,-306.442 181.029,-298.756 177.828,-304.98"/>
</g>
<!-- Node62 -->
<g id="node10" class="node"><title>Node62</title>
<g id="a_node10"><a xlink:href="namespacemodel__initialize.html#ad4626f16ba0b3e433a90f89e29e4e491" target="_top" xlink:title="model_initialize::initialize\l_percent_canopy_cover">
<polygon fill="white" stroke="black" points="172.447,-208.5 172.447,-238.5 308.894,-238.5 308.894,-208.5 172.447,-208.5"/>
<text text-anchor="start" x="180.447" y="-225.7" font-family="Helvetica,sans-Serif" font-size="11.00">model_initialize::initialize</text>
<text text-anchor="middle" x="240.67" y="-214.7" font-family="Helvetica,sans-Serif" font-size="11.00">_percent_canopy_cover</text>
</a>
</g>
</g>
<!-- Node53&#45;&gt;Node62 -->
<g id="edge10" class="edge"><title>Node53&#45;&gt;Node62</title>
<path fill="none" stroke="midnightblue" d="M121.754,-189.601C139.414,-194.679 159.283,-200.39 177.606,-205.658"/>
<polygon fill="midnightblue" stroke="midnightblue" points="176.735,-209.049 187.313,-208.448 178.669,-202.322 176.735,-209.049"/>
</g>
<!-- Node65 -->
<g id="node13" class="node"><title>Node65</title>
<g id="a_node13"><a xlink:href="namespacemodel__initialize.html#a98c8d4a3d9a346ffe0e344d86e7588f5" target="_top" xlink:title="model_initialize::initialize\l_percent_pervious">
<polygon fill="white" stroke="black" points="172.447,-257.5 172.447,-287.5 308.894,-287.5 308.894,-257.5 172.447,-257.5"/>
<text text-anchor="start" x="180.447" y="-274.7" font-family="Helvetica,sans-Serif" font-size="11.00">model_initialize::initialize</text>
<text text-anchor="middle" x="240.67" y="-263.7" font-family="Helvetica,sans-Serif" font-size="11.00">_percent_pervious</text>
</a>
</g>
</g>
<!-- Node53&#45;&gt;Node65 -->
<g id="edge15" class="edge"><title>Node53&#45;&gt;Node65</title>
<path fill="none" stroke="midnightblue" d="M86.8623,-189.505C106.652,-205.759 140.217,-231.621 172.447,-248.5 175.771,-250.241 179.249,-251.906 182.799,-253.488"/>
<polygon fill="midnightblue" stroke="midnightblue" points="181.729,-256.835 192.304,-257.48 184.439,-250.381 181.729,-256.835"/>
</g>
<!-- Node66 -->
<g id="node14" class="node"><title>Node66</title>
<g id="a_node14"><a xlink:href="namespacemodel__initialize.html#a8d619df0ba0b259eec3d25e213fdd8e9" target="_top" xlink:title="model_initialize::initialize\l_snow_storage">
<polygon fill="white" stroke="black" points="172.447,-159.5 172.447,-189.5 308.894,-189.5 308.894,-159.5 172.447,-159.5"/>
<text text-anchor="start" x="180.447" y="-176.7" font-family="Helvetica,sans-Serif" font-size="11.00">model_initialize::initialize</text>
<text text-anchor="middle" x="240.67" y="-165.7" font-family="Helvetica,sans-Serif" font-size="11.00">_snow_storage</text>
</a>
</g>
</g>
<!-- Node53&#45;&gt;Node66 -->
<g id="edge20" class="edge"><title>Node53&#45;&gt;Node66</title>
<path fill="none" stroke="midnightblue" d="M136.588,-174.5C144.924,-174.5 153.498,-174.5 161.972,-174.5"/>
<polygon fill="midnightblue" stroke="midnightblue" points="162.236,-178 172.236,-174.5 162.236,-171 162.236,-178"/>
</g>
<!-- Node67 -->
<g id="node15" class="node"><title>Node67</title>
<g id="a_node15"><a xlink:href="namespacemodel__initialize.html#a9d4f137d95280c733253bbc4ce713bbd" target="_top" xlink:title="model_initialize::initialize\l_soil_storage">
<polygon fill="white" stroke="black" points="172.447,-110.5 172.447,-140.5 308.894,-140.5 308.894,-110.5 172.447,-110.5"/>
<text text-anchor="start" x="180.447" y="-127.7" font-family="Helvetica,sans-Serif" font-size="11.00">model_initialize::initialize</text>
<text text-anchor="middle" x="240.67" y="-116.7" font-family="Helvetica,sans-Serif" font-size="11.00">_soil_storage</text>
</a>
</g>
</g>
<!-- Node53&#45;&gt;Node67 -->
<g id="edge22" class="edge"><title>Node53&#45;&gt;Node67</title>
<path fill="none" stroke="midnightblue" d="M121.754,-159.399C139.414,-154.321 159.283,-148.61 177.606,-143.342"/>
<polygon fill="midnightblue" stroke="midnightblue" points="178.669,-146.678 187.313,-140.552 176.735,-139.951 178.669,-146.678"/>
</g>
<!-- Node68 -->
<g id="node16" class="node"><title>Node68</title>
<g id="a_node16"><a xlink:href="namespacemodel__initialize.html#ac12913a30e9785d1a4f9c4595dc9565d" target="_top" xlink:title="model_initialize::initialize\l_surface_storage_max">
<polygon fill="white" stroke="black" points="172.447,-0.5 172.447,-30.5 308.894,-30.5 308.894,-0.5 172.447,-0.5"/>
<text text-anchor="start" x="180.447" y="-17.7" font-family="Helvetica,sans-Serif" font-size="11.00">model_initialize::initialize</text>
<text text-anchor="middle" x="240.67" y="-6.7" font-family="Helvetica,sans-Serif" font-size="11.00">_surface_storage_max</text>
</a>
</g>
</g>
<!-- Node53&#45;&gt;Node68 -->
<g id="edge24" class="edge"><title>Node53&#45;&gt;Node68</title>
<path fill="none" stroke="midnightblue" d="M77.0761,-159.407C92.0601,-131.992 127.299,-73.7811 172.447,-40.5 175.053,-38.579 177.823,-36.7904 180.697,-35.127"/>
<polygon fill="midnightblue" stroke="midnightblue" points="182.317,-38.2292 189.57,-30.5056 179.084,-32.0208 182.317,-38.2292"/>
</g>
<!-- Node69 -->
<g id="node17" class="node"><title>Node69</title>
<g id="a_node17"><a xlink:href="namespacestorm__drain__capture.html#a93fceb05bd4d89fa81567c2b79df9811" target="_top" xlink:title="storm_drain_capture\l::storm_drain_capture\l_initialize">
<polygon fill="white" stroke="black" points="179.171,-50 179.171,-91 302.169,-91 302.169,-50 179.171,-50"/>
<text text-anchor="start" x="187.171" y="-78.2" font-family="Helvetica,sans-Serif" font-size="11.00">storm_drain_capture</text>
<text text-anchor="start" x="187.171" y="-67.2" font-family="Helvetica,sans-Serif" font-size="11.00">::storm_drain_capture</text>
<text text-anchor="middle" x="240.67" y="-56.2" font-family="Helvetica,sans-Serif" font-size="11.00">_initialize</text>
</a>
</g>
</g>
<!-- Node53&#45;&gt;Node69 -->
<g id="edge25" class="edge"><title>Node53&#45;&gt;Node69</title>
<path fill="none" stroke="midnightblue" d="M88.3007,-159.395C108.499,-143.794 141.657,-119.286 172.447,-101.5 175.855,-99.5313 179.41,-97.59 183.027,-95.6977"/>
<polygon fill="midnightblue" stroke="midnightblue" points="184.758,-98.7446 192.101,-91.1072 181.598,-92.4985 184.758,-98.7446"/>
</g>
<!-- Node55 -->
<g id="node3" class="node"><title>Node55</title>
<g id="a_node3"><a xlink:href="namespacegrid.html#ace8ea960868faf40cf79d5303f881ed8" target="_top" xlink:title="grid::grid_populatexy">
<polygon fill="white" stroke="black" points="520.681,-360 520.681,-379 638.802,-379 638.802,-360 520.681,-360"/>
<text text-anchor="middle" x="579.741" y="-366.2" font-family="Helvetica,sans-Serif" font-size="11.00">grid::grid_populatexy</text>
</a>
</g>
</g>
<!-- Node54&#45;&gt;Node55 -->
<g id="edge2" class="edge"><title>Node54&#45;&gt;Node55</title>
<path fill="none" stroke="midnightblue" d="M287.988,-336.567C305.626,-341.759 326.022,-347.115 344.894,-350.5 400.174,-360.415 463.744,-365.162 510.637,-367.431"/>
<polygon fill="midnightblue" stroke="midnightblue" points="510.531,-370.929 520.681,-367.891 510.852,-363.937 510.531,-370.929"/>
</g>
<!-- Node58 -->
<g id="node6" class="node"><title>Node58</title>
<g id="a_node6"><a xlink:href="namespacegrid.html#a6eb75c46ff6156376f88e567ac0e5271" target="_top" xlink:title="Call PROJ4 to transform coordinates. ">
<polygon fill="white" stroke="black" points="350.09,-322 350.09,-341 461.459,-341 461.459,-322 350.09,-322"/>
<text text-anchor="middle" x="405.775" y="-328.2" font-family="Helvetica,sans-Serif" font-size="11.00">grid::grid_transform</text>
</a>
</g>
</g>
<!-- Node54&#45;&gt;Node58 -->
<g id="edge5" class="edge"><title>Node54&#45;&gt;Node58</title>
<path fill="none" stroke="midnightblue" d="M308.953,-325.625C319.22,-326.255 329.798,-326.903 340.009,-327.529"/>
<polygon fill="midnightblue" stroke="midnightblue" points="339.878,-331.028 350.073,-328.146 340.306,-324.041 339.878,-331.028"/>
</g>
<!-- Node60 -->
<g id="node8" class="node"><title>Node60</title>
<g id="a_node8"><a xlink:href="namespacegrid.html#a02803f7fe27d0354d3d16a15bd1338da" target="_top" xlink:title="grid::grid_writearcgrid">
<polygon fill="white" stroke="black" points="344.894,-284 344.894,-303 466.656,-303 466.656,-284 344.894,-284"/>
<text text-anchor="middle" x="405.775" y="-290.2" font-family="Helvetica,sans-Serif" font-size="11.00">grid::grid_writearcgrid</text>
</a>
</g>
</g>
<!-- Node54&#45;&gt;Node60 -->
<g id="edge8" class="edge"><title>Node54&#45;&gt;Node60</title>
<path fill="none" stroke="midnightblue" d="M308.953,-309.95C319.022,-308.221 329.391,-306.441 339.42,-304.719"/>
<polygon fill="midnightblue" stroke="midnightblue" points="340.048,-308.163 349.311,-303.021 338.863,-301.264 340.048,-308.163"/>
</g>
<!-- Node61 -->
<g id="node9" class="node"><title>Node61</title>
<g id="a_node9"><a xlink:href="namespacegrid.html#adfcb9064d9b58a49eb61093cd4809a43" target="_top" xlink:title="grid::grid_destroy">
<polygon fill="white" stroke="black" points="355.281,-246 355.281,-265 456.268,-265 456.268,-246 355.281,-246"/>
<text text-anchor="middle" x="405.775" y="-252.2" font-family="Helvetica,sans-Serif" font-size="11.00">grid::grid_destroy</text>
</a>
</g>
</g>
<!-- Node54&#45;&gt;Node61 -->
<g id="edge9" class="edge"><title>Node54&#45;&gt;Node61</title>
<path fill="none" stroke="midnightblue" d="M288.164,-306.453C295.219,-303.727 302.328,-300.718 308.894,-297.5 325.943,-289.144 327.698,-282.551 344.894,-274.5 349.589,-272.302 354.604,-270.265 359.66,-268.405"/>
<polygon fill="midnightblue" stroke="midnightblue" points="361.051,-271.628 369.358,-265.051 358.763,-265.012 361.051,-271.628"/>
</g>
<!-- Node56 -->
<g id="node4" class="node"><title>Node56</title>
<g id="a_node4"><a xlink:href="namespacegrid.html#ad3fbf6446fa8a58df8888c05b7165324" target="_top" xlink:title="grid::grid_getgridx">
<polygon fill="white" stroke="black" points="692.827,-379 692.827,-398 796.875,-398 796.875,-379 692.827,-379"/>
<text text-anchor="middle" x="744.851" y="-385.2" font-family="Helvetica,sans-Serif" font-size="11.00">grid::grid_getgridx</text>
</a>
</g>
</g>
<!-- Node55&#45;&gt;Node56 -->
<g id="edge3" class="edge"><title>Node55&#45;&gt;Node56</title>
<path fill="none" stroke="midnightblue" d="M639.167,-376.306C653.217,-377.942 668.264,-379.695 682.445,-381.347"/>
<polygon fill="midnightblue" stroke="midnightblue" points="682.253,-384.848 692.591,-382.529 683.063,-377.895 682.253,-384.848"/>
</g>
<!-- Node57 -->
<g id="node5" class="node"><title>Node57</title>
<g id="a_node5"><a xlink:href="namespacegrid.html#a93d74de05bc5c8aee4cb556f461be266" target="_top" xlink:title="grid::grid_getgridy">
<polygon fill="white" stroke="black" points="692.827,-341 692.827,-360 796.875,-360 796.875,-341 692.827,-341"/>
<text text-anchor="middle" x="744.851" y="-347.2" font-family="Helvetica,sans-Serif" font-size="11.00">grid::grid_getgridy</text>
</a>
</g>
</g>
<!-- Node55&#45;&gt;Node57 -->
<g id="edge4" class="edge"><title>Node55&#45;&gt;Node57</title>
<path fill="none" stroke="midnightblue" d="M639.167,-362.694C653.217,-361.058 668.264,-359.305 682.445,-357.653"/>
<polygon fill="midnightblue" stroke="midnightblue" points="683.063,-361.105 692.591,-356.471 682.253,-354.152 683.063,-361.105"/>
</g>
<!-- Node58&#45;&gt;Node55 -->
<g id="edge7" class="edge"><title>Node58&#45;&gt;Node55</title>
<path fill="none" stroke="midnightblue" d="M450.169,-341.089C473.169,-346.171 501.607,-352.455 525.886,-357.82"/>
<polygon fill="midnightblue" stroke="midnightblue" points="525.139,-361.24 535.659,-359.98 526.65,-354.405 525.139,-361.24"/>
</g>
<!-- Node59 -->
<g id="node7" class="node"><title>Node59</title>
<g id="a_node7"><a xlink:href="namespacegrid.html#a4e234a7e1a3a1ba76a7c92bab7114bf7" target="_top" xlink:title="grid::grid_checkforproj4error">
<polygon fill="white" stroke="black" points="502.656,-322 502.656,-341 656.827,-341 656.827,-322 502.656,-322"/>
<text text-anchor="middle" x="579.741" y="-328.2" font-family="Helvetica,sans-Serif" font-size="11.00">grid::grid_checkforproj4error</text>
</a>
</g>
</g>
<!-- Node58&#45;&gt;Node59 -->
<g id="edge6" class="edge"><title>Node58&#45;&gt;Node59</title>
<path fill="none" stroke="midnightblue" d="M461.659,-331.5C471.491,-331.5 481.951,-331.5 492.418,-331.5"/>
<polygon fill="midnightblue" stroke="midnightblue" points="492.434,-335 502.434,-331.5 492.434,-328 492.434,-335"/>
</g>
<!-- Node62&#45;&gt;Node60 -->
<g id="edge13" class="edge"><title>Node62&#45;&gt;Node60</title>
<path fill="none" stroke="midnightblue" d="M287.244,-238.543C294.631,-241.519 302.085,-244.862 308.894,-248.5 326.301,-257.802 327.265,-265.626 344.894,-274.5 349.232,-276.684 353.873,-278.683 358.58,-280.495"/>
<polygon fill="midnightblue" stroke="midnightblue" points="357.664,-283.885 368.258,-283.953 360.019,-277.293 357.664,-283.885"/>
</g>
<!-- Node62&#45;&gt;Node61 -->
<g id="edge14" class="edge"><title>Node62&#45;&gt;Node61</title>
<path fill="none" stroke="midnightblue" d="M308.953,-236.7C321.293,-239.121 334.083,-241.631 346.145,-243.997"/>
<polygon fill="midnightblue" stroke="midnightblue" points="345.593,-247.456 356.08,-245.946 346.94,-240.587 345.593,-247.456"/>
</g>
<!-- Node63 -->
<g id="node11" class="node"><title>Node63</title>
<g id="a_node11"><a xlink:href="namespaceexceptions.html#a22a1bf2808fdc249e6b378ee3f221156" target="_top" xlink:title="exceptions::die">
<polygon fill="white" stroke="black" points="361.085,-208 361.085,-227 450.465,-227 450.465,-208 361.085,-208"/>
<text text-anchor="middle" x="405.775" y="-214.2" font-family="Helvetica,sans-Serif" font-size="11.00">exceptions::die</text>
</a>
</g>
</g>
<!-- Node62&#45;&gt;Node63 -->
<g id="edge11" class="edge"><title>Node62&#45;&gt;Node63</title>
<path fill="none" stroke="midnightblue" d="M308.953,-221.025C322.938,-220.51 337.501,-219.975 350.928,-219.481"/>
<polygon fill="midnightblue" stroke="midnightblue" points="351.08,-222.978 360.945,-219.112 350.823,-215.982 351.08,-222.978"/>
</g>
<!-- Node64 -->
<g id="node12" class="node"><title>Node64</title>
<g id="a_node12"><a xlink:href="namespaceexceptions.html#a84dd04476b06e0a398bfe6d106a82a4d" target="_top" xlink:title="exceptions::warn">
<polygon fill="white" stroke="black" points="356.503,-165 356.503,-184 455.046,-184 455.046,-165 356.503,-165"/>
<text text-anchor="middle" x="405.775" y="-171.2" font-family="Helvetica,sans-Serif" font-size="11.00">exceptions::warn</text>
</a>
</g>
</g>
<!-- Node62&#45;&gt;Node64 -->
<g id="edge12" class="edge"><title>Node62&#45;&gt;Node64</title>
<path fill="none" stroke="midnightblue" d="M291.938,-208.399C314.828,-201.522 341.593,-193.481 363.311,-186.957"/>
<polygon fill="midnightblue" stroke="midnightblue" points="364.331,-190.305 372.901,-184.075 362.317,-183.601 364.331,-190.305"/>
</g>
<!-- Node65&#45;&gt;Node60 -->
<g id="edge18" class="edge"><title>Node65&#45;&gt;Node60</title>
<path fill="none" stroke="midnightblue" d="M308.953,-281.163C317.467,-282.259 326.196,-283.383 334.752,-284.484"/>
<polygon fill="midnightblue" stroke="midnightblue" points="334.329,-287.959 344.694,-285.764 335.223,-281.016 334.329,-287.959"/>
</g>
<!-- Node65&#45;&gt;Node61 -->
<g id="edge19" class="edge"><title>Node65&#45;&gt;Node61</title>
<path fill="none" stroke="midnightblue" d="M308.953,-265.487C320.898,-264.242 333.265,-262.953 344.985,-261.732"/>
<polygon fill="midnightblue" stroke="midnightblue" points="345.507,-265.196 355.09,-260.678 344.781,-258.234 345.507,-265.196"/>
</g>
<!-- Node65&#45;&gt;Node63 -->
<g id="edge16" class="edge"><title>Node65&#45;&gt;Node63</title>
<path fill="none" stroke="midnightblue" d="M284.015,-257.429C302.645,-250.876 324.815,-243.185 344.894,-236.5 351.073,-234.442 357.629,-232.311 364.048,-230.252"/>
<polygon fill="midnightblue" stroke="midnightblue" points="365.484,-233.468 373.95,-227.097 363.359,-226.798 365.484,-233.468"/>
</g>
<!-- Node65&#45;&gt;Node64 -->
<g id="edge17" class="edge"><title>Node65&#45;&gt;Node64</title>
<path fill="none" stroke="midnightblue" d="M293.965,-257.463C299.249,-254.896 304.338,-251.926 308.894,-248.5 330.778,-232.041 323.328,-215.375 344.894,-198.5 349.987,-194.514 355.83,-191.105 361.825,-188.216"/>
<polygon fill="midnightblue" stroke="midnightblue" points="363.515,-191.297 371.285,-184.095 360.719,-184.88 363.515,-191.297"/>
</g>
<!-- Node66&#45;&gt;Node64 -->
<g id="edge21" class="edge"><title>Node66&#45;&gt;Node64</title>
<path fill="none" stroke="midnightblue" d="M308.953,-174.5C321.169,-174.5 333.827,-174.5 345.783,-174.5"/>
<polygon fill="midnightblue" stroke="midnightblue" points="346.08,-178 356.08,-174.5 346.08,-171 346.08,-178"/>
</g>
<!-- Node67&#45;&gt;Node64 -->
<g id="edge23" class="edge"><title>Node67&#45;&gt;Node64</title>
<path fill="none" stroke="midnightblue" d="M291.938,-140.601C314.828,-147.478 341.593,-155.519 363.311,-162.043"/>
<polygon fill="midnightblue" stroke="midnightblue" points="362.317,-165.399 372.901,-164.925 364.331,-158.695 362.317,-165.399"/>
</g>
<!-- Node69&#45;&gt;Node64 -->
<g id="edge26" class="edge"><title>Node69&#45;&gt;Node64</title>
<path fill="none" stroke="midnightblue" d="M289.715,-91.0852C296.278,-94.3489 302.836,-97.8573 308.894,-101.5 337.347,-118.61 367.369,-142.56 386.08,-158.294"/>
<polygon fill="midnightblue" stroke="midnightblue" points="383.951,-161.077 393.836,-164.891 388.486,-155.745 383.951,-161.077"/>
</g>
</g>
</svg>
        <g id="navigator" transform="translate(0 0)" fill="#404254">
                <rect fill="#f2f5e9" fill-opacity="0.5" stroke="#606060" stroke-width=".5" x="0" y="0" width="60" height="60"/>
                <use id="zoomplus" xlink:href="#zoomPlus" x="17" y="9" onmousedown="handleZoom(evt,'in')"/>
                <use id="zoomminus" xlink:href="#zoomMin" x="42" y="9" onmousedown="handleZoom(evt,'out')"/>
                <use id="reset" xlink:href="#resetDef" x="30" y="36" onmousedown="handleReset()"/>
                <g id="arrowUp" xlink:href="#dirArrow" transform="translate(30 24)" onmousedown="handlePan(0,-1)">
                  <use xlink:href="#rim" fill="#404040">
                        <set attributeName="fill" to="#808080" begin="arrowUp.mouseover" end="arrowUp.mouseout"/>
                  </use>
                  <path fill="none" stroke="white" stroke-width="1.5" d="M0,-3.0v7 M-2.5,-0.5L0,-3.0L2.5,-0.5"/>
                </g>
                <g id="arrowRight" xlink:href="#dirArrow" transform="rotate(90) translate(36 -43)" onmousedown="handlePan(1,0)">
                  <use xlink:href="#rim" fill="#404040">
                        <set attributeName="fill" to="#808080" begin="arrowRight.mouseover" end="arrowRight.mouseout"/>
                  </use>
                  <path fill="none" stroke="white" stroke-width="1.5" d="M0,-3.0v7 M-2.5,-0.5L0,-3.0L2.5,-0.5"/>
                </g>
                <g id="arrowDown" xlink:href="#dirArrow" transform="rotate(180) translate(-30 -48)" onmousedown="handlePan(0,1)">
                  <use xlink:href="#rim" fill="#404040">
                        <set attributeName="fill" to="#808080" begin="arrowDown.mouseover" end="arrowDown.mouseout"/>
                  </use>
                  <path fill="none" stroke="white" stroke-width="1.5" d="M0,-3.0v7 M-2.5,-0.5L0,-3.0L2.5,-0.5"/>
                </g>
                <g id="arrowLeft" xlink:href="#dirArrow" transform="rotate(270) translate(-36 17)" onmousedown="handlePan(-1,0)">
                  <use xlink:href="#rim" fill="#404040">
                        <set attributeName="fill" to="#808080" begin="arrowLeft.mouseover" end="arrowLeft.mouseout"/>
                  </use>
                  <path fill="none" stroke="white" stroke-width="1.5" d="M0,-3.0v7 M-2.5,-0.5L0,-3.0L2.5,-0.5"/>
                </g>
        </g>
        <svg viewBox="0 0 15 15" width="100%" height="30px" preserveAspectRatio="xMaxYMin meet">
         <g id="arrow_out" transform="scale(0.3 0.3)">
          <a xlink:href="namespacemodel__initialize_a39e959b59f3ec67f64a1b37a5b30ebc2_cgraph_org.svg" target="_base">
           <rect id="button" ry="5" rx="5" y="6" x="6" height="38" width="38"
                fill="#f2f5e9" fill-opacity="0.5" stroke="#606060" stroke-width="1.0"/>
           <path id="arrow"
             d="M 11.500037,31.436501 C 11.940474,20.09759 22.043105,11.32322 32.158766,21.979434 L 37.068811,17.246167 C 37.068811,17.246167 37.088388,32 37.088388,32 L 22.160133,31.978069 C 22.160133,31.978069 26.997745,27.140456 26.997745,27.140456 C 18.528582,18.264221 13.291696,25.230495 11.500037,31.436501 z"
             style="fill:#404040;"/>
          </a>
         </g>
        </svg>
</svg>
