<?xml version="1.0" encoding="UTF-8" standalone="no"?>
<!DOCTYPE svg PUBLIC "-//W3C//DTD SVG 1.1//EN"
 "http://www.w3.org/Graphics/SVG/1.1/DTD/svg11.dtd">
<!-- Generated by graphviz version 2.38.0 (20140413.2041)
 -->
<!-- Title: model_domain::model_initialize_available_water_content_depth_integrated Pages: 1 -->
<svg width="354pt" height="50pt"
 viewBox="0.00 0.00 354.27 50.00" xmlns="http://www.w3.org/2000/svg" xmlns:xlink="http://www.w3.org/1999/xlink">
<g id="graph0" class="graph" transform="scale(1 1) rotate(0) translate(4 46)">
<title>model_domain::model_initialize_available_water_content_depth_integrated</title>
<polygon fill="white" stroke="none" points="-4,4 -4,-46 350.271,-46 350.271,4 -4,4"/>
<!-- Node1 -->
<g id="node1" class="node"><title>Node1</title>
<polygon fill="#bfbfbf" stroke="black" points="0,-0.5 0,-41.5 179.904,-41.5 179.904,-0.5 0,-0.5"/>
<text text-anchor="start" x="8" y="-28.7" font-family="Helvetica,sans-Serif" font-size="11.00">model_domain::model</text>
<text text-anchor="start" x="8" y="-17.7" font-family="Helvetica,sans-Serif" font-size="11.00">_initialize_available</text>
<text text-anchor="middle" x="89.9521" y="-6.7" font-family="Helvetica,sans-Serif" font-size="11.00">_water_content_depth_integrated</text>
</g>
<!-- Node2 -->
<g id="node2" class="node"><title>Node2</title>
<g id="a_node2"><a xlink:href="namespaceawc____depth__integrated.html#a9a57b760a09efd7d15876e718129f23f" target="_top" xlink:title="awc__depth_integrated\l::awc_depth_integrated\l_initialize">
<polygon fill="white" stroke="black" points="215.904,-0.5 215.904,-41.5 346.271,-41.5 346.271,-0.5 215.904,-0.5"/>
<text text-anchor="start" x="223.904" y="-28.7" font-family="Helvetica,sans-Serif" font-size="11.00">awc__depth_integrated</text>
<text text-anchor="start" x="223.904" y="-17.7" font-family="Helvetica,sans-Serif" font-size="11.00">::awc_depth_integrated</text>
<text text-anchor="middle" x="281.088" y="-6.7" font-family="Helvetica,sans-Serif" font-size="11.00">_initialize</text>
</a>
</g>
</g>
<!-- Node1&#45;&gt;Node2 -->
<g id="edge1" class="edge"><title>Node1&#45;&gt;Node2</title>
<path fill="none" stroke="midnightblue" d="M179.982,-21C188.564,-21 197.208,-21 205.629,-21"/>
<polygon fill="midnightblue" stroke="midnightblue" points="205.77,-24.5001 215.77,-21 205.77,-17.5001 205.77,-24.5001"/>
</g>
</g>
</svg>
