<?xml version="1.0" encoding="UTF-8" standalone="no"?>
<!DOCTYPE svg PUBLIC "-//W3C//DTD SVG 1.1//EN"
 "http://www.w3.org/Graphics/SVG/1.1/DTD/svg11.dtd">
<!-- Generated by graphviz version 2.38.0 (20140413.2041)
 -->
<!-- Title: netcdf4_support::nf_return_native_coord_bounds Pages: 1 -->
<svg width="669pt" height="133pt"
 viewBox="0.00 0.00 669.25 133.00" xmlns="http://www.w3.org/2000/svg" xmlns:xlink="http://www.w3.org/1999/xlink">
<g id="graph0" class="graph" transform="scale(1 1) rotate(0) translate(4 129)">
<title>netcdf4_support::nf_return_native_coord_bounds</title>
<polygon fill="white" stroke="none" points="-4,4 -4,-129 665.253,-129 665.253,4 -4,4"/>
<!-- Node1 -->
<g id="node1" class="node"><title>Node1</title>
<polygon fill="#bfbfbf" stroke="black" points="0,-27.5 0,-68.5 119.958,-68.5 119.958,-27.5 0,-27.5"/>
<text text-anchor="start" x="8" y="-55.7" font-family="Helvetica,sans-Serif" font-size="11.00">netcdf4_support::nf</text>
<text text-anchor="start" x="8" y="-44.7" font-family="Helvetica,sans-Serif" font-size="11.00">_return_native_coord</text>
<text text-anchor="middle" x="59.9788" y="-33.7" font-family="Helvetica,sans-Serif" font-size="11.00">_bounds</text>
</g>
<!-- Node2 -->
<g id="node2" class="node"><title>Node2</title>
<g id="a_node2"><a xlink:href="namespacenetcdf4__support.html#a137d06ed171ec8d77e5af2fbb44b0c4c" target="_top" xlink:title="netcdf4_support::netcdf\l_open_and_prepare_as_input">
<polygon fill="white" stroke="black" points="155.958,-61 155.958,-91 318.755,-91 318.755,-61 155.958,-61"/>
<text text-anchor="start" x="163.958" y="-78.2" font-family="Helvetica,sans-Serif" font-size="11.00">netcdf4_support::netcdf</text>
<text text-anchor="middle" x="237.356" y="-67.2" font-family="Helvetica,sans-Serif" font-size="11.00">_open_and_prepare_as_input</text>
</a>
</g>
</g>
<!-- Node1&#45;&gt;Node2 -->
<g id="edge1" class="edge"><title>Node1&#45;&gt;Node2</title>
<path fill="none" stroke="midnightblue" d="M130.422,-59.087C138.788,-60.4227 147.387,-61.7955 155.894,-63.1537"/>
<polygon fill="midnightblue" stroke="midnightblue" points="130.78,-55.6 120.354,-57.4795 129.677,-62.5124 130.78,-55.6"/>
</g>
<!-- Node6 -->
<g id="node6" class="node"><title>Node6</title>
<g id="a_node6"><a xlink:href="namespacenetcdf4__support.html#a8be734b602e654816c17b5e27d0fbffb" target="_top" xlink:title="netcdf4_support::netcdf\l_open_and_prepare_for\l_merging">
<polygon fill="white" stroke="black" points="170.333,-0.5 170.333,-41.5 304.379,-41.5 304.379,-0.5 170.333,-0.5"/>
<text text-anchor="start" x="178.333" y="-28.7" font-family="Helvetica,sans-Serif" font-size="11.00">netcdf4_support::netcdf</text>
<text text-anchor="start" x="178.333" y="-17.7" font-family="Helvetica,sans-Serif" font-size="11.00">_open_and_prepare_for</text>
<text text-anchor="middle" x="237.356" y="-6.7" font-family="Helvetica,sans-Serif" font-size="11.00">_merging</text>
</a>
</g>
</g>
<!-- Node1&#45;&gt;Node6 -->
<g id="edge6" class="edge"><title>Node1&#45;&gt;Node6</title>
<path fill="none" stroke="midnightblue" d="M130.257,-37.3344C143.381,-35.3139 157.081,-33.2048 170.108,-31.1991"/>
<polygon fill="midnightblue" stroke="midnightblue" points="129.705,-33.8781 120.354,-38.859 130.77,-40.7966 129.705,-33.8781"/>
</g>
<!-- Node3 -->
<g id="node3" class="node"><title>Node3</title>
<g id="a_node3"><a xlink:href="namespacedata__catalog__entry.html#aeb285131f87ed64deba0a9041a9c6405" target="_top" xlink:title="data_catalog_entry\l::getvalues_dynamic\l_netcdf_sub">
<polygon fill="white" stroke="black" points="377.08,-83.5 377.08,-124.5 493.358,-124.5 493.358,-83.5 377.08,-83.5"/>
<text text-anchor="start" x="385.08" y="-111.7" font-family="Helvetica,sans-Serif" font-size="11.00">data_catalog_entry</text>
<text text-anchor="start" x="385.08" y="-100.7" font-family="Helvetica,sans-Serif" font-size="11.00">::getvalues_dynamic</text>
<text text-anchor="middle" x="435.219" y="-89.7" font-family="Helvetica,sans-Serif" font-size="11.00">_netcdf_sub</text>
</a>
</g>
</g>
<!-- Node2&#45;&gt;Node3 -->
<g id="edge2" class="edge"><title>Node2&#45;&gt;Node3</title>
<path fill="none" stroke="midnightblue" d="M329.002,-88.9585C345.359,-91.2968 361.988,-93.6741 377.052,-95.8275"/>
<polygon fill="midnightblue" stroke="midnightblue" points="329.264,-85.4604 318.869,-87.5099 328.273,-92.3899 329.264,-85.4604"/>
</g>
<!-- Node5 -->
<g id="node5" class="node"><title>Node5</title>
<g id="a_node5"><a xlink:href="namespacedata__catalog__entry.html#ac3e1f0d9d9e146fbb77c0084e1e9fc14" target="_top" xlink:title="data_catalog_entry\l::getvalues_static_netcdf_sub">
<polygon fill="white" stroke="black" points="354.755,-34 354.755,-64 515.683,-64 515.683,-34 354.755,-34"/>
<text text-anchor="start" x="362.755" y="-51.2" font-family="Helvetica,sans-Serif" font-size="11.00">data_catalog_entry</text>
<text text-anchor="middle" x="435.219" y="-40.2" font-family="Helvetica,sans-Serif" font-size="11.00">::getvalues_static_netcdf_sub</text>
</a>
</g>
</g>
<!-- Node2&#45;&gt;Node5 -->
<g id="edge4" class="edge"><title>Node2&#45;&gt;Node5</title>
<path fill="none" stroke="midnightblue" d="M328.907,-63.5175C337.501,-62.3327 346.171,-61.1375 354.651,-59.9686"/>
<polygon fill="midnightblue" stroke="midnightblue" points="328.297,-60.0683 318.869,-64.9012 329.253,-67.0027 328.297,-60.0683"/>
</g>
<!-- Node4 -->
<g id="node4" class="node"><title>Node4</title>
<g id="a_node4"><a xlink:href="namespacedata__catalog__entry.html#a9e0a89ab19a5bfd61f2dfb8265648234" target="_top" xlink:title="data_catalog_entry\l::getvalues_sub">
<polygon fill="white" stroke="black" points="551.683,-61 551.683,-91 661.253,-91 661.253,-61 551.683,-61"/>
<text text-anchor="start" x="559.683" y="-78.2" font-family="Helvetica,sans-Serif" font-size="11.00">data_catalog_entry</text>
<text text-anchor="middle" x="606.468" y="-67.2" font-family="Helvetica,sans-Serif" font-size="11.00">::getvalues_sub</text>
</a>
</g>
</g>
<!-- Node3&#45;&gt;Node4 -->
<g id="edge3" class="edge"><title>Node3&#45;&gt;Node4</title>
<path fill="none" stroke="midnightblue" d="M503.822,-92.8161C519.721,-90.1858 536.456,-87.4172 551.655,-84.9027"/>
<polygon fill="midnightblue" stroke="midnightblue" points="502.814,-89.4351 493.519,-94.5205 503.956,-96.3413 502.814,-89.4351"/>
</g>
<!-- Node5&#45;&gt;Node4 -->
<g id="edge5" class="edge"><title>Node5&#45;&gt;Node4</title>
<path fill="none" stroke="midnightblue" d="M526.025,-63.3267C534.652,-64.7028 543.206,-66.0674 551.327,-67.3631"/>
<polygon fill="midnightblue" stroke="midnightblue" points="526.314,-59.8285 515.888,-61.7094 525.211,-66.7411 526.314,-59.8285"/>
</g>
</g>
</svg>
