<?xml version="1.0" encoding="UTF-8" standalone="no"?>
<!DOCTYPE svg PUBLIC "-//W3C//DTD SVG 1.1//EN"
 "http://www.w3.org/Graphics/SVG/1.1/DTD/svg11.dtd">
<!-- Generated by graphviz version 2.38.0 (20140413.2041)
 -->
<!-- Title: datetime::gregorian_date Pages: 1 -->
<!--zoomable 137 -->
<svg id="main" version="1.1" xmlns="http://www.w3.org/2000/svg" xmlns:xlink="http://www.w3.org/1999/xlink" xml:space="preserve" onload="init(evt)">
<style type="text/css"><![CDATA[
.edge:hover path { stroke: red; }
.edge:hover polygon { stroke: red; fill: red; }
]]></style>
<script type="text/javascript"><![CDATA[
var edges = document.getElementsByTagName('g');
if (edges && edges.length) {
  for (var i=0;i<edges.length;i++) {
    if (edges[i].id.substr(0,4)=='edge') {
      edges[i].setAttribute('class','edge');
    }
  }
}
]]></script>
        <defs>
                <circle id="rim" cx="0" cy="0" r="7"/>
                <circle id="rim2" cx="0" cy="0" r="3.5"/>
                <g id="zoomPlus">
                        <use xlink:href="#rim" fill="#404040">
                                <set attributeName="fill" to="#808080" begin="zoomplus.mouseover" end="zoomplus.mouseout"/>
                        </use>
                        <path d="M-4,0h8M0,-4v8" fill="none" stroke="white" stroke-width="1.5" pointer-events="none"/>
                </g>
                <g id="zoomMin">
                        <use xlink:href="#rim" fill="#404040">
                                <set attributeName="fill" to="#808080" begin="zoomminus.mouseover" end="zoomminus.mouseout"/>
                        </use>
                        <path d="M-4,0h8" fill="none" stroke="white" stroke-width="1.5" pointer-events="none"/>
                </g>
                <g id="dirArrow">
                        <path fill="none" stroke="white" stroke-width="1.5" d="M0,-3.0v7 M-2.5,-0.5L0,-3.0L2.5,-0.5"/>
                </g>
               <g id="resetDef">
                       <use xlink:href="#rim2" fill="#404040">
                               <set attributeName="fill" to="#808080" begin="reset.mouseover" end="reset.mouseout"/>
                       </use>
               </g>
        </defs>

<script type="text/javascript">
var viewWidth = 780;
var viewHeight = 137;
var sectionId = 'dynsection-2';
</script>
<script xlink:href="svgpan.js"/>
<svg id="graph" class="graph">
<g id="viewport">
<title>datetime::gregorian_date</title>
<polygon fill="white" stroke="none" points="-4,4 -4,-133 776.496,-133 776.496,4 -4,4"/>
<!-- Node21 -->
<g id="node1" class="node"><title>Node21</title>
<polygon fill="#bfbfbf" stroke="black" points="0,-77 0,-96 138.305,-96 138.305,-77 0,-77"/>
<text text-anchor="middle" x="69.1526" y="-83.2" font-family="Helvetica,sans-Serif" font-size="11.00">datetime::gregorian_date</text>
</g>
<!-- Node22 -->
<g id="node2" class="node"><title>Node22</title>
<g id="a_node2"><a xlink:href="namespacedatetime.html#ae5d2fd012d07fb0dfc273d2b0ff2a4eb" target="_top" xlink:title="datetime::calc_gregorian\l_date_sub">
<polygon fill="white" stroke="black" points="174.305,-93.5 174.305,-123.5 310.763,-123.5 310.763,-93.5 174.305,-93.5"/>
<text text-anchor="start" x="182.305" y="-110.7" font-family="Helvetica,sans-Serif" font-size="11.00">datetime::calc_gregorian</text>
<text text-anchor="middle" x="242.534" y="-99.7" font-family="Helvetica,sans-Serif" font-size="11.00">_date_sub</text>
</a>
</g>
</g>
<!-- Node21&#45;&gt;Node22 -->
<g id="edge1" class="edge"><title>Node21&#45;&gt;Node22</title>
<path fill="none" stroke="midnightblue" d="M148.391,-96.5434C156.977,-97.6455 165.663,-98.7605 174.101,-99.8438"/>
<polygon fill="midnightblue" stroke="midnightblue" points="148.744,-93.06 138.379,-95.2582 147.852,-100.003 148.744,-93.06"/>
</g>
<!-- Node23 -->
<g id="node3" class="node"><title>Node23</title>
<g id="a_node3"><a xlink:href="namespacedatetime.html#a9575f695885d806cc658b68cbdb75a70" target="_top" xlink:title="datetime::day_of_year">
<polygon fill="white" stroke="black" points="180.111,-55 180.111,-74 304.957,-74 304.957,-55 180.111,-55"/>
<text text-anchor="middle" x="242.534" y="-61.2" font-family="Helvetica,sans-Serif" font-size="11.00">datetime::day_of_year</text>
</a>
</g>
</g>
<!-- Node21&#45;&gt;Node23 -->
<g id="edge2" class="edge"><title>Node21&#45;&gt;Node23</title>
<path fill="none" stroke="midnightblue" d="M148.438,-76.4506C158.999,-75.0949 169.712,-73.7197 179.927,-72.4084"/>
<polygon fill="midnightblue" stroke="midnightblue" points="147.852,-72.997 138.379,-77.7418 148.744,-79.94 147.852,-72.997"/>
</g>
<!-- Node24 -->
<g id="node4" class="node"><title>Node24</title>
<g id="a_node4"><a xlink:href="namespacedatetime.html#a5e943042ca778d305fabbbe6f8d96aac" target="_top" xlink:title="datetime::get_day_of\l_year_fn">
<polygon fill="white" stroke="black" points="367.554,-98.5 367.554,-128.5 486.292,-128.5 486.292,-98.5 367.554,-98.5"/>
<text text-anchor="start" x="375.554" y="-115.7" font-family="Helvetica,sans-Serif" font-size="11.00">datetime::get_day_of</text>
<text text-anchor="middle" x="426.923" y="-104.7" font-family="Helvetica,sans-Serif" font-size="11.00">_year_fn</text>
</a>
</g>
</g>
<!-- Node23&#45;&gt;Node24 -->
<g id="edge3" class="edge"><title>Node23&#45;&gt;Node24</title>
<path fill="none" stroke="midnightblue" d="M288.906,-76.6896C313.441,-83.2808 343.953,-91.4782 369.952,-98.463"/>
<polygon fill="midnightblue" stroke="midnightblue" points="289.699,-73.2785 279.133,-74.064 287.883,-80.0388 289.699,-73.2785"/>
</g>
<!-- Node25 -->
<g id="node5" class="node"><title>Node25</title>
<g id="a_node5"><a xlink:href="namespacemodel__initialize.html#aa901fa3beec7f5be635326923f7cd49b" target="_top" xlink:title="model_initialize::initialize\l_start_and_end_dates">
<polygon fill="white" stroke="black" points="358.7,-49.5 358.7,-79.5 495.147,-79.5 495.147,-49.5 358.7,-49.5"/>
<text text-anchor="start" x="366.7" y="-66.7" font-family="Helvetica,sans-Serif" font-size="11.00">model_initialize::initialize</text>
<text text-anchor="middle" x="426.923" y="-55.7" font-family="Helvetica,sans-Serif" font-size="11.00">_start_and_end_dates</text>
</a>
</g>
</g>
<!-- Node23&#45;&gt;Node25 -->
<g id="edge4" class="edge"><title>Node23&#45;&gt;Node25</title>
<path fill="none" stroke="midnightblue" d="M315.247,-64.5C329.47,-64.5 344.356,-64.5 358.432,-64.5"/>
<polygon fill="midnightblue" stroke="midnightblue" points="315.028,-61.0001 305.028,-64.5 315.028,-68.0001 315.028,-61.0001"/>
</g>
<!-- Node28 -->
<g id="node8" class="node"><title>Node28</title>
<g id="a_node8"><a xlink:href="namespacesimulation__datetime.html#a614317d68d6d6e98353e087670dc7a98" target="_top" xlink:title="simulation_datetime\l::increment_by_one_day_sub">
<polygon fill="white" stroke="black" points="346.763,-0.5 346.763,-30.5 507.084,-30.5 507.084,-0.5 346.763,-0.5"/>
<text text-anchor="start" x="354.763" y="-17.7" font-family="Helvetica,sans-Serif" font-size="11.00">simulation_datetime</text>
<text text-anchor="middle" x="426.923" y="-6.7" font-family="Helvetica,sans-Serif" font-size="11.00">::increment_by_one_day_sub</text>
</a>
</g>
</g>
<!-- Node23&#45;&gt;Node28 -->
<g id="edge7" class="edge"><title>Node23&#45;&gt;Node28</title>
<path fill="none" stroke="midnightblue" d="M288.906,-52.3104C313.441,-45.7192 343.953,-37.5218 369.952,-30.537"/>
<polygon fill="midnightblue" stroke="midnightblue" points="287.883,-48.9612 279.133,-54.936 289.699,-55.7215 287.883,-48.9612"/>
</g>
<!-- Node26 -->
<g id="node6" class="node"><title>Node26</title>
<g id="a_node6"><a xlink:href="namespacemodel__initialize.html#a46370bf2e9ea112d1f219277ba7fd3ce" target="_top" xlink:title="model_initialize::initialize_all">
<polygon fill="white" stroke="black" points="543.084,-55 543.084,-74 696.654,-74 696.654,-55 543.084,-55"/>
<text text-anchor="middle" x="619.869" y="-61.2" font-family="Helvetica,sans-Serif" font-size="11.00">model_initialize::initialize_all</text>
</a>
</g>
</g>
<!-- Node25&#45;&gt;Node26 -->
<g id="edge5" class="edge"><title>Node25&#45;&gt;Node26</title>
<path fill="none" stroke="midnightblue" d="M505.526,-64.5C517.907,-64.5 530.703,-64.5 543.042,-64.5"/>
<polygon fill="midnightblue" stroke="midnightblue" points="505.244,-61.0001 495.244,-64.5 505.244,-68.0001 505.244,-61.0001"/>
</g>
<!-- Node27 -->
<g id="node7" class="node"><title>Node27</title>
<g id="a_node7"><a xlink:href="main_8F90.html#a8ec2266d83cd6c0b762cbcbc92c0af3d" target="_top" xlink:title="Main program which references all other modules; execution begins here. ">
<polygon fill="white" stroke="black" points="732.654,-55 732.654,-74 772.496,-74 772.496,-55 732.654,-55"/>
<text text-anchor="middle" x="752.575" y="-61.2" font-family="Helvetica,sans-Serif" font-size="11.00">main</text>
</a>
</g>
</g>
<!-- Node26&#45;&gt;Node27 -->
<g id="edge6" class="edge"><title>Node26&#45;&gt;Node27</title>
<path fill="none" stroke="midnightblue" d="M706.993,-64.5C716.488,-64.5 725.33,-64.5 732.595,-64.5"/>
<polygon fill="midnightblue" stroke="midnightblue" points="706.901,-61.0001 696.901,-64.5 706.901,-68.0001 706.901,-61.0001"/>
</g>
</g>
</svg>
        <g id="navigator" transform="translate(0 0)" fill="#404254">
                <rect fill="#f2f5e9" fill-opacity="0.5" stroke="#606060" stroke-width=".5" x="0" y="0" width="60" height="60"/>
                <use id="zoomplus" xlink:href="#zoomPlus" x="17" y="9" onmousedown="handleZoom(evt,'in')"/>
                <use id="zoomminus" xlink:href="#zoomMin" x="42" y="9" onmousedown="handleZoom(evt,'out')"/>
                <use id="reset" xlink:href="#resetDef" x="30" y="36" onmousedown="handleReset()"/>
                <g id="arrowUp" xlink:href="#dirArrow" transform="translate(30 24)" onmousedown="handlePan(0,-1)">
                  <use xlink:href="#rim" fill="#404040">
                        <set attributeName="fill" to="#808080" begin="arrowUp.mouseover" end="arrowUp.mouseout"/>
                  </use>
                  <path fill="none" stroke="white" stroke-width="1.5" d="M0,-3.0v7 M-2.5,-0.5L0,-3.0L2.5,-0.5"/>
                </g>
                <g id="arrowRight" xlink:href="#dirArrow" transform="rotate(90) translate(36 -43)" onmousedown="handlePan(1,0)">
                  <use xlink:href="#rim" fill="#404040">
                        <set attributeName="fill" to="#808080" begin="arrowRight.mouseover" end="arrowRight.mouseout"/>
                  </use>
                  <path fill="none" stroke="white" stroke-width="1.5" d="M0,-3.0v7 M-2.5,-0.5L0,-3.0L2.5,-0.5"/>
                </g>
                <g id="arrowDown" xlink:href="#dirArrow" transform="rotate(180) translate(-30 -48)" onmousedown="handlePan(0,1)">
                  <use xlink:href="#rim" fill="#404040">
                        <set attributeName="fill" to="#808080" begin="arrowDown.mouseover" end="arrowDown.mouseout"/>
                  </use>
                  <path fill="none" stroke="white" stroke-width="1.5" d="M0,-3.0v7 M-2.5,-0.5L0,-3.0L2.5,-0.5"/>
                </g>
                <g id="arrowLeft" xlink:href="#dirArrow" transform="rotate(270) translate(-36 17)" onmousedown="handlePan(-1,0)">
                  <use xlink:href="#rim" fill="#404040">
                        <set attributeName="fill" to="#808080" begin="arrowLeft.mouseover" end="arrowLeft.mouseout"/>
                  </use>
                  <path fill="none" stroke="white" stroke-width="1.5" d="M0,-3.0v7 M-2.5,-0.5L0,-3.0L2.5,-0.5"/>
                </g>
        </g>
        <svg viewBox="0 0 15 15" width="100%" height="30px" preserveAspectRatio="xMaxYMin meet">
         <g id="arrow_out" transform="scale(0.3 0.3)">
          <a xlink:href="namespacedatetime_a9d8dbfe179e1cc628e1b7ccec684e13a_icgraph_org.svg" target="_base">
           <rect id="button" ry="5" rx="5" y="6" x="6" height="38" width="38"
                fill="#f2f5e9" fill-opacity="0.5" stroke="#606060" stroke-width="1.0"/>
           <path id="arrow"
             d="M 11.500037,31.436501 C 11.940474,20.09759 22.043105,11.32322 32.158766,21.979434 L 37.068811,17.246167 C 37.068811,17.246167 37.088388,32 37.088388,32 L 22.160133,31.978069 C 22.160133,31.978069 26.997745,27.140456 26.997745,27.140456 C 18.528582,18.264221 13.291696,25.230495 11.500037,31.436501 z"
             style="fill:#404040;"/>
          </a>
         </g>
        </svg>
</svg>
