<?xml version="1.0" encoding="UTF-8" standalone="no"?>
<!DOCTYPE svg PUBLIC "-//W3C//DTD SVG 1.1//EN"
 "http://www.w3.org/Graphics/SVG/1.1/DTD/svg11.dtd">
<!-- Generated by graphviz version 2.38.0 (20140413.2041)
 -->
<!-- Title: output::set_output_directory Pages: 1 -->
<svg width="377pt" height="39pt"
 viewBox="0.00 0.00 377.48 39.00" xmlns="http://www.w3.org/2000/svg" xmlns:xlink="http://www.w3.org/1999/xlink">
<g id="graph0" class="graph" transform="scale(1 1) rotate(0) translate(4 35)">
<title>output::set_output_directory</title>
<polygon fill="white" stroke="none" points="-4,4 -4,-35 373.482,-35 373.482,4 -4,4"/>
<!-- Node1 -->
<g id="node1" class="node"><title>Node1</title>
<polygon fill="#bfbfbf" stroke="black" points="0,-0.5 0,-30.5 104.07,-30.5 104.07,-0.5 0,-0.5"/>
<text text-anchor="start" x="8" y="-17.7" font-family="Helvetica,sans-Serif" font-size="11.00">output::set_output</text>
<text text-anchor="middle" x="52.0349" y="-6.7" font-family="Helvetica,sans-Serif" font-size="11.00">_directory</text>
</g>
<!-- Node2 -->
<g id="node2" class="node"><title>Node2</title>
<g id="a_node2"><a xlink:href="namespacemodel__initialize.html#a46370bf2e9ea112d1f219277ba7fd3ce" target="_top" xlink:title="model_initialize::initialize_all">
<polygon fill="white" stroke="black" points="140.07,-6 140.07,-25 293.64,-25 293.64,-6 140.07,-6"/>
<text text-anchor="middle" x="216.855" y="-12.2" font-family="Helvetica,sans-Serif" font-size="11.00">model_initialize::initialize_all</text>
</a>
</g>
</g>
<!-- Node1&#45;&gt;Node2 -->
<g id="edge1" class="edge"><title>Node1&#45;&gt;Node2</title>
<path fill="none" stroke="midnightblue" d="M114.177,-15.5C122.581,-15.5 131.292,-15.5 139.921,-15.5"/>
<polygon fill="midnightblue" stroke="midnightblue" points="114.105,-12.0001 104.105,-15.5 114.105,-19.0001 114.105,-12.0001"/>
</g>
<!-- Node3 -->
<g id="node3" class="node"><title>Node3</title>
<g id="a_node3"><a xlink:href="main_8F90.html#a8ec2266d83cd6c0b762cbcbc92c0af3d" target="_top" xlink:title="Main program which references all other modules; execution begins here. ">
<polygon fill="white" stroke="black" points="329.64,-6 329.64,-25 369.482,-25 369.482,-6 329.64,-6"/>
<text text-anchor="middle" x="349.561" y="-12.2" font-family="Helvetica,sans-Serif" font-size="11.00">main</text>
</a>
</g>
</g>
<!-- Node2&#45;&gt;Node3 -->
<g id="edge2" class="edge"><title>Node2&#45;&gt;Node3</title>
<path fill="none" stroke="midnightblue" d="M303.979,-15.5C313.474,-15.5 322.316,-15.5 329.581,-15.5"/>
<polygon fill="midnightblue" stroke="midnightblue" points="303.887,-12.0001 293.887,-15.5 303.887,-19.0001 303.887,-12.0001"/>
</g>
</g>
</svg>
