<?xml version="1.0" encoding="UTF-8" standalone="no"?>
<!DOCTYPE svg PUBLIC "-//W3C//DTD SVG 1.1//EN"
 "http://www.w3.org/Graphics/SVG/1.1/DTD/svg11.dtd">
<!-- Generated by graphviz version 2.38.0 (20140413.2041)
 -->
<!-- Title: solar_calculations::solar_declination_simple__delta Pages: 1 -->
<!--zoomable 88 -->
<svg id="main" version="1.1" xmlns="http://www.w3.org/2000/svg" xmlns:xlink="http://www.w3.org/1999/xlink" xml:space="preserve" onload="init(evt)">
<style type="text/css"><![CDATA[
.edge:hover path { stroke: red; }
.edge:hover polygon { stroke: red; fill: red; }
]]></style>
<script type="text/javascript"><![CDATA[
var edges = document.getElementsByTagName('g');
if (edges && edges.length) {
  for (var i=0;i<edges.length;i++) {
    if (edges[i].id.substr(0,4)=='edge') {
      edges[i].setAttribute('class','edge');
    }
  }
}
]]></script>
        <defs>
                <circle id="rim" cx="0" cy="0" r="7"/>
                <circle id="rim2" cx="0" cy="0" r="3.5"/>
                <g id="zoomPlus">
                        <use xlink:href="#rim" fill="#404040">
                                <set attributeName="fill" to="#808080" begin="zoomplus.mouseover" end="zoomplus.mouseout"/>
                        </use>
                        <path d="M-4,0h8M0,-4v8" fill="none" stroke="white" stroke-width="1.5" pointer-events="none"/>
                </g>
                <g id="zoomMin">
                        <use xlink:href="#rim" fill="#404040">
                                <set attributeName="fill" to="#808080" begin="zoomminus.mouseover" end="zoomminus.mouseout"/>
                        </use>
                        <path d="M-4,0h8" fill="none" stroke="white" stroke-width="1.5" pointer-events="none"/>
                </g>
                <g id="dirArrow">
                        <path fill="none" stroke="white" stroke-width="1.5" d="M0,-3.0v7 M-2.5,-0.5L0,-3.0L2.5,-0.5"/>
                </g>
               <g id="resetDef">
                       <use xlink:href="#rim2" fill="#404040">
                               <set attributeName="fill" to="#808080" begin="reset.mouseover" end="reset.mouseout"/>
                       </use>
               </g>
        </defs>

<script type="text/javascript">
var viewWidth = 666;
var viewHeight = 88;
var sectionId = 'dynsection-1';
</script>
<script xlink:href="svgpan.js"/>
<svg id="graph" class="graph">
<g id="viewport">
<title>solar_calculations::solar_declination_simple__delta</title>
<polygon fill="white" stroke="none" points="-4,4 -4,-84 662.154,-84 662.154,4 -4,4"/>
<!-- Node10 -->
<g id="node1" class="node"><title>Node10</title>
<polygon fill="#bfbfbf" stroke="black" points="0,-19 0,-60 104.666,-60 104.666,-19 0,-19"/>
<text text-anchor="start" x="8" y="-47.2" font-family="Helvetica,sans-Serif" font-size="11.00">solar_calculations</text>
<text text-anchor="start" x="8" y="-36.2" font-family="Helvetica,sans-Serif" font-size="11.00">::solar_declination</text>
<text text-anchor="middle" x="52.333" y="-25.2" font-family="Helvetica,sans-Serif" font-size="11.00">_simple__delta</text>
</g>
<!-- Node11 -->
<g id="node2" class="node"><title>Node11</title>
<g id="a_node2"><a xlink:href="namespaceet____hargreaves__samani.html#a7e98ab45c36ffcbbd21626348162801c" target="_top" xlink:title="et__hargreaves_samani\l::et_hargreaves_calculate">
<polygon fill="white" stroke="black" points="140.666,-49.5 140.666,-79.5 282.634,-79.5 282.634,-49.5 140.666,-49.5"/>
<text text-anchor="start" x="148.666" y="-66.7" font-family="Helvetica,sans-Serif" font-size="11.00">et__hargreaves_samani</text>
<text text-anchor="middle" x="211.65" y="-55.7" font-family="Helvetica,sans-Serif" font-size="11.00">::et_hargreaves_calculate</text>
</a>
</g>
</g>
<!-- Node10&#45;&gt;Node11 -->
<g id="edge1" class="edge"><title>Node10&#45;&gt;Node11</title>
<path fill="none" stroke="midnightblue" d="M114.903,-49.2844C123.282,-50.6159 131.933,-51.9906 140.449,-53.3441"/>
<polygon fill="midnightblue" stroke="midnightblue" points="115.27,-45.7988 104.845,-47.6859 114.171,-52.7121 115.27,-45.7988"/>
</g>
<!-- Node14 -->
<g id="node5" class="node"><title>Node14</title>
<g id="a_node5"><a xlink:href="namespaceet____jensen__haise.html#a7de54d9f265eb6dd1857ed2e18f98d2a" target="_top" xlink:title="et__jensen_haise::et\l_jh_calculate">
<polygon fill="white" stroke="black" points="152.888,-0.5 152.888,-30.5 270.412,-30.5 270.412,-0.5 152.888,-0.5"/>
<text text-anchor="start" x="160.888" y="-17.7" font-family="Helvetica,sans-Serif" font-size="11.00">et__jensen_haise::et</text>
<text text-anchor="middle" x="211.65" y="-6.7" font-family="Helvetica,sans-Serif" font-size="11.00">_jh_calculate</text>
</a>
</g>
</g>
<!-- Node10&#45;&gt;Node14 -->
<g id="edge4" class="edge"><title>Node10&#45;&gt;Node14</title>
<path fill="none" stroke="midnightblue" d="M115.096,-30.0775C127.5,-28.1852 140.492,-26.2031 152.759,-24.3318"/>
<polygon fill="midnightblue" stroke="midnightblue" points="114.202,-26.6733 104.845,-31.6415 115.258,-33.5933 114.202,-26.6733"/>
</g>
<!-- Node12 -->
<g id="node3" class="node"><title>Node12</title>
<g id="a_node3"><a xlink:href="namespacemodel__domain.html#a37864c313f4ed6b63b5e90f4ef3f2e1f" target="_top" xlink:title="model_domain::model\l_calculate_et_hargreaves">
<polygon fill="white" stroke="black" points="323.533,-49.5 323.533,-79.5 465.506,-79.5 465.506,-49.5 323.533,-49.5"/>
<text text-anchor="start" x="331.533" y="-66.7" font-family="Helvetica,sans-Serif" font-size="11.00">model_domain::model</text>
<text text-anchor="middle" x="394.52" y="-55.7" font-family="Helvetica,sans-Serif" font-size="11.00">_calculate_et_hargreaves</text>
</a>
</g>
</g>
<!-- Node11&#45;&gt;Node12 -->
<g id="edge2" class="edge"><title>Node11&#45;&gt;Node12</title>
<path fill="none" stroke="midnightblue" d="M292.914,-64.5C303.067,-64.5 313.393,-64.5 323.371,-64.5"/>
<polygon fill="midnightblue" stroke="midnightblue" points="292.838,-61.0001 282.838,-64.5 292.838,-68.0001 292.838,-61.0001"/>
</g>
<!-- Node13 -->
<g id="node4" class="node"><title>Node13</title>
<g id="a_node4"><a xlink:href="namespacemodel__domain.html#aac78dbf26ba37cf86ebed4edd7acf89b" target="_top" xlink:title="model_domain::set_method\l_pointers_sub">
<polygon fill="white" stroke="black" points="506.405,-24.5 506.405,-54.5 658.154,-54.5 658.154,-24.5 506.405,-24.5"/>
<text text-anchor="start" x="514.405" y="-41.7" font-family="Helvetica,sans-Serif" font-size="11.00">model_domain::set_method</text>
<text text-anchor="middle" x="582.279" y="-30.7" font-family="Helvetica,sans-Serif" font-size="11.00">_pointers_sub</text>
</a>
</g>
</g>
<!-- Node12&#45;&gt;Node13 -->
<g id="edge3" class="edge"><title>Node12&#45;&gt;Node13</title>
<path fill="none" stroke="midnightblue" d="M475.792,-53.6967C485.923,-52.3332 496.258,-50.9423 506.303,-49.5905"/>
<polygon fill="midnightblue" stroke="midnightblue" points="475.191,-50.246 465.747,-55.0486 476.125,-57.1834 475.191,-50.246"/>
</g>
<!-- Node15 -->
<g id="node6" class="node"><title>Node15</title>
<g id="a_node6"><a xlink:href="namespacemodel__domain.html#aaa195a960abacf5088acc9ff3242847e" target="_top" xlink:title="model_domain::model\l_calculate_et_jensen_haise">
<polygon fill="white" stroke="black" points="318.634,-0.5 318.634,-30.5 470.405,-30.5 470.405,-0.5 318.634,-0.5"/>
<text text-anchor="start" x="326.634" y="-17.7" font-family="Helvetica,sans-Serif" font-size="11.00">model_domain::model</text>
<text text-anchor="middle" x="394.52" y="-6.7" font-family="Helvetica,sans-Serif" font-size="11.00">_calculate_et_jensen_haise</text>
</a>
</g>
</g>
<!-- Node14&#45;&gt;Node15 -->
<g id="edge5" class="edge"><title>Node14&#45;&gt;Node15</title>
<path fill="none" stroke="midnightblue" d="M281.015,-15.5C293.274,-15.5 306.109,-15.5 318.543,-15.5"/>
<polygon fill="midnightblue" stroke="midnightblue" points="280.874,-12.0001 270.874,-15.5 280.874,-19.0001 280.874,-12.0001"/>
</g>
<!-- Node15&#45;&gt;Node13 -->
<g id="edge6" class="edge"><title>Node15&#45;&gt;Node13</title>
<path fill="none" stroke="midnightblue" d="M480.557,-26.4867C489.14,-27.5957 497.814,-28.7163 506.281,-29.8103"/>
<polygon fill="midnightblue" stroke="midnightblue" points="480.906,-23.0028 470.54,-25.1925 480.009,-29.9451 480.906,-23.0028"/>
</g>
</g>
</svg>
        <g id="navigator" transform="translate(0 0)" fill="#404254">
                <rect fill="#f2f5e9" fill-opacity="0.5" stroke="#606060" stroke-width=".5" x="0" y="0" width="60" height="60"/>
                <use id="zoomplus" xlink:href="#zoomPlus" x="17" y="9" onmousedown="handleZoom(evt,'in')"/>
                <use id="zoomminus" xlink:href="#zoomMin" x="42" y="9" onmousedown="handleZoom(evt,'out')"/>
                <use id="reset" xlink:href="#resetDef" x="30" y="36" onmousedown="handleReset()"/>
                <g id="arrowUp" xlink:href="#dirArrow" transform="translate(30 24)" onmousedown="handlePan(0,-1)">
                  <use xlink:href="#rim" fill="#404040">
                        <set attributeName="fill" to="#808080" begin="arrowUp.mouseover" end="arrowUp.mouseout"/>
                  </use>
                  <path fill="none" stroke="white" stroke-width="1.5" d="M0,-3.0v7 M-2.5,-0.5L0,-3.0L2.5,-0.5"/>
                </g>
                <g id="arrowRight" xlink:href="#dirArrow" transform="rotate(90) translate(36 -43)" onmousedown="handlePan(1,0)">
                  <use xlink:href="#rim" fill="#404040">
                        <set attributeName="fill" to="#808080" begin="arrowRight.mouseover" end="arrowRight.mouseout"/>
                  </use>
                  <path fill="none" stroke="white" stroke-width="1.5" d="M0,-3.0v7 M-2.5,-0.5L0,-3.0L2.5,-0.5"/>
                </g>
                <g id="arrowDown" xlink:href="#dirArrow" transform="rotate(180) translate(-30 -48)" onmousedown="handlePan(0,1)">
                  <use xlink:href="#rim" fill="#404040">
                        <set attributeName="fill" to="#808080" begin="arrowDown.mouseover" end="arrowDown.mouseout"/>
                  </use>
                  <path fill="none" stroke="white" stroke-width="1.5" d="M0,-3.0v7 M-2.5,-0.5L0,-3.0L2.5,-0.5"/>
                </g>
                <g id="arrowLeft" xlink:href="#dirArrow" transform="rotate(270) translate(-36 17)" onmousedown="handlePan(-1,0)">
                  <use xlink:href="#rim" fill="#404040">
                        <set attributeName="fill" to="#808080" begin="arrowLeft.mouseover" end="arrowLeft.mouseout"/>
                  </use>
                  <path fill="none" stroke="white" stroke-width="1.5" d="M0,-3.0v7 M-2.5,-0.5L0,-3.0L2.5,-0.5"/>
                </g>
        </g>
        <svg viewBox="0 0 15 15" width="100%" height="30px" preserveAspectRatio="xMaxYMin meet">
         <g id="arrow_out" transform="scale(0.3 0.3)">
          <a xlink:href="namespacesolar__calculations_a24590af8aedbf0702f0cb6d188edb1f2_icgraph_org.svg" target="_base">
           <rect id="button" ry="5" rx="5" y="6" x="6" height="38" width="38"
                fill="#f2f5e9" fill-opacity="0.5" stroke="#606060" stroke-width="1.0"/>
           <path id="arrow"
             d="M 11.500037,31.436501 C 11.940474,20.09759 22.043105,11.32322 32.158766,21.979434 L 37.068811,17.246167 C 37.068811,17.246167 37.088388,32 37.088388,32 L 22.160133,31.978069 C 22.160133,31.978069 26.997745,27.140456 26.997745,27.140456 C 18.528582,18.264221 13.291696,25.230495 11.500037,31.436501 z"
             style="fill:#404040;"/>
          </a>
         </g>
        </svg>
</svg>
