<?xml version="1.0" encoding="UTF-8" standalone="no"?>
<!DOCTYPE svg PUBLIC "-//W3C//DTD SVG 1.1//EN"
 "http://www.w3.org/Graphics/SVG/1.1/DTD/svg11.dtd">
<!-- Generated by graphviz version 2.38.0 (20140413.2041)
 -->
<!-- Title: actual_et__thornthwaite_mather_eqns::thornthwaite_mather_apwl Pages: 1 -->
<svg width="708pt" height="132pt"
 viewBox="0.00 0.00 708.33 132.00" xmlns="http://www.w3.org/2000/svg" xmlns:xlink="http://www.w3.org/1999/xlink">
<g id="graph0" class="graph" transform="scale(1 1) rotate(0) translate(4 128)">
<title>actual_et__thornthwaite_mather_eqns::thornthwaite_mather_apwl</title>
<polygon fill="white" stroke="none" points="-4,4 -4,-128 704.328,-128 704.328,4 -4,4"/>
<!-- Node11 -->
<g id="node1" class="node"><title>Node11</title>
<polygon fill="#bfbfbf" stroke="black" points="0,-41 0,-82 152.361,-82 152.361,-41 0,-41"/>
<text text-anchor="start" x="8" y="-69.2" font-family="Helvetica,sans-Serif" font-size="11.00">actual_et__thornthwaite</text>
<text text-anchor="start" x="8" y="-58.2" font-family="Helvetica,sans-Serif" font-size="11.00">_mather_eqns::thornthwaite</text>
<text text-anchor="middle" x="76.1807" y="-47.2" font-family="Helvetica,sans-Serif" font-size="11.00">_mather_apwl</text>
</g>
<!-- Node12 -->
<g id="node2" class="node"><title>Node12</title>
<g id="a_node2"><a xlink:href="namespaceactual__et____thornthwaite__mather__eqns.html#afb7a65ecb71917316483a79348712f96" target="_top" xlink:title="actual_et__thornthwaite\l_mather_eqns::calculate\l_actual_et_thornthwaite\l_mather_eqns">
<polygon fill="white" stroke="black" points="188.361,-71.5 188.361,-123.5 324.212,-123.5 324.212,-71.5 188.361,-71.5"/>
<text text-anchor="start" x="196.361" y="-110.7" font-family="Helvetica,sans-Serif" font-size="11.00">actual_et__thornthwaite</text>
<text text-anchor="start" x="196.361" y="-99.7" font-family="Helvetica,sans-Serif" font-size="11.00">_mather_eqns::calculate</text>
<text text-anchor="start" x="196.361" y="-88.7" font-family="Helvetica,sans-Serif" font-size="11.00">_actual_et_thornthwaite</text>
<text text-anchor="middle" x="256.287" y="-77.7" font-family="Helvetica,sans-Serif" font-size="11.00">_mather_eqns</text>
</a>
</g>
</g>
<!-- Node11&#45;&gt;Node12 -->
<g id="edge1" class="edge"><title>Node11&#45;&gt;Node12</title>
<path fill="none" stroke="midnightblue" d="M162.529,-78.7511C171.144,-80.4925 179.806,-82.2433 188.191,-83.9381"/>
<polygon fill="midnightblue" stroke="midnightblue" points="162.951,-75.2657 152.455,-76.7151 161.564,-82.127 162.951,-75.2657"/>
</g>
<!-- Node15 -->
<g id="node5" class="node"><title>Node15</title>
<g id="a_node5"><a xlink:href="namespaceactual__et____thornthwaite__mather__eqns.html#a1fdfe860673649a18f95834bccaad9dd" target="_top" xlink:title="actual_et__thornthwaite\l_mather_eqns::initialize\l_actual_et_thornthwaite\l_mather_eqns">
<polygon fill="white" stroke="black" points="189.884,-0.5 189.884,-52.5 322.689,-52.5 322.689,-0.5 189.884,-0.5"/>
<text text-anchor="start" x="197.884" y="-39.7" font-family="Helvetica,sans-Serif" font-size="11.00">actual_et__thornthwaite</text>
<text text-anchor="start" x="197.884" y="-28.7" font-family="Helvetica,sans-Serif" font-size="11.00">_mather_eqns::initialize</text>
<text text-anchor="start" x="197.884" y="-17.7" font-family="Helvetica,sans-Serif" font-size="11.00">_actual_et_thornthwaite</text>
<text text-anchor="middle" x="256.287" y="-6.7" font-family="Helvetica,sans-Serif" font-size="11.00">_mather_eqns</text>
</a>
</g>
</g>
<!-- Node11&#45;&gt;Node15 -->
<g id="edge4" class="edge"><title>Node11&#45;&gt;Node15</title>
<path fill="none" stroke="midnightblue" d="M162.425,-44.7484C171.65,-42.9356 180.93,-41.112 189.867,-39.3558"/>
<polygon fill="midnightblue" stroke="midnightblue" points="161.593,-41.3449 152.455,-46.7076 162.943,-48.2136 161.593,-41.3449"/>
</g>
<!-- Node13 -->
<g id="node3" class="node"><title>Node13</title>
<g id="a_node3"><a xlink:href="namespacemodel__domain.html#a5ec52fa20f4e08cd60a0e93811993bba" target="_top" xlink:title="model_domain::model\l_calculate_actual_et\l_thornthwaite_mather_eqns">
<polygon fill="white" stroke="black" points="360.212,-74 360.212,-115 512.579,-115 512.579,-74 360.212,-74"/>
<text text-anchor="start" x="368.212" y="-102.2" font-family="Helvetica,sans-Serif" font-size="11.00">model_domain::model</text>
<text text-anchor="start" x="368.212" y="-91.2" font-family="Helvetica,sans-Serif" font-size="11.00">_calculate_actual_et</text>
<text text-anchor="middle" x="436.395" y="-80.2" font-family="Helvetica,sans-Serif" font-size="11.00">_thornthwaite_mather_eqns</text>
</a>
</g>
</g>
<!-- Node12&#45;&gt;Node13 -->
<g id="edge2" class="edge"><title>Node12&#45;&gt;Node13</title>
<path fill="none" stroke="midnightblue" d="M334.572,-96.1982C343.012,-96.0561 351.596,-95.9115 360.013,-95.7697"/>
<polygon fill="midnightblue" stroke="midnightblue" points="334.308,-92.7021 324.368,-96.3701 334.426,-99.7011 334.308,-92.7021"/>
</g>
<!-- Node14 -->
<g id="node4" class="node"><title>Node14</title>
<g id="a_node4"><a xlink:href="namespacemodel__domain.html#aac78dbf26ba37cf86ebed4edd7acf89b" target="_top" xlink:title="model_domain::set_method\l_pointers_sub">
<polygon fill="white" stroke="black" points="548.579,-47.5 548.579,-77.5 700.328,-77.5 700.328,-47.5 548.579,-47.5"/>
<text text-anchor="start" x="556.579" y="-64.7" font-family="Helvetica,sans-Serif" font-size="11.00">model_domain::set_method</text>
<text text-anchor="middle" x="624.453" y="-53.7" font-family="Helvetica,sans-Serif" font-size="11.00">_pointers_sub</text>
</a>
</g>
</g>
<!-- Node13&#45;&gt;Node14 -->
<g id="edge3" class="edge"><title>Node13&#45;&gt;Node14</title>
<path fill="none" stroke="midnightblue" d="M522.823,-79.8073C531.407,-78.3309 540.078,-76.8396 548.541,-75.3841"/>
<polygon fill="midnightblue" stroke="midnightblue" points="522.066,-76.3861 512.804,-81.5305 523.252,-83.2848 522.066,-76.3861"/>
</g>
<!-- Node16 -->
<g id="node6" class="node"><title>Node16</title>
<g id="a_node6"><a xlink:href="namespacemodel__domain.html#ae2c7066facd759963b51fe1aa6459c93" target="_top" xlink:title="model_domain::model\l_initialize_actual_et\l_thornthwaite_mather_eqns">
<polygon fill="white" stroke="black" points="360.212,-11 360.212,-52 512.579,-52 512.579,-11 360.212,-11"/>
<text text-anchor="start" x="368.212" y="-39.2" font-family="Helvetica,sans-Serif" font-size="11.00">model_domain::model</text>
<text text-anchor="start" x="368.212" y="-28.2" font-family="Helvetica,sans-Serif" font-size="11.00">_initialize_actual_et</text>
<text text-anchor="middle" x="436.395" y="-17.2" font-family="Helvetica,sans-Serif" font-size="11.00">_thornthwaite_mather_eqns</text>
</a>
</g>
</g>
<!-- Node15&#45;&gt;Node16 -->
<g id="edge5" class="edge"><title>Node15&#45;&gt;Node16</title>
<path fill="none" stroke="midnightblue" d="M332.895,-28.6225C341.882,-28.8748 351.055,-29.1323 360.038,-29.3845"/>
<polygon fill="midnightblue" stroke="midnightblue" points="332.943,-25.1226 322.849,-28.3405 332.747,-32.1198 332.943,-25.1226"/>
</g>
<!-- Node16&#45;&gt;Node14 -->
<g id="edge6" class="edge"><title>Node16&#45;&gt;Node14</title>
<path fill="none" stroke="midnightblue" d="M522.823,-45.7336C531.407,-47.1638 540.078,-48.6085 548.541,-50.0186"/>
<polygon fill="midnightblue" stroke="midnightblue" points="523.243,-42.2554 512.804,-44.0642 522.093,-49.1602 523.243,-42.2554"/>
</g>
</g>
</svg>
