<?xml version="1.0" encoding="UTF-8" standalone="no"?>
<!DOCTYPE svg PUBLIC "-//W3C//DTD SVG 1.1//EN"
 "http://www.w3.org/Graphics/SVG/1.1/DTD/svg11.dtd">
<!-- Generated by graphviz version 2.38.0 (20140413.2041)
 -->
<!-- Title: fog__monthly_grid::fog_monthly_grid_calculate Pages: 1 -->
<svg width="708pt" height="127pt"
 viewBox="0.00 0.00 708.35 126.50" xmlns="http://www.w3.org/2000/svg" xmlns:xlink="http://www.w3.org/1999/xlink">
<g id="graph0" class="graph" transform="scale(1 1) rotate(0) translate(4 122.5)">
<title>fog__monthly_grid::fog_monthly_grid_calculate</title>
<polygon fill="white" stroke="none" points="-4,4 -4,-122.5 704.349,-122.5 704.349,4 -4,4"/>
<!-- Node1 -->
<g id="node1" class="node"><title>Node1</title>
<polygon fill="#bfbfbf" stroke="black" points="0,-49.5 0,-79.5 149.917,-79.5 149.917,-49.5 0,-49.5"/>
<text text-anchor="start" x="8" y="-66.7" font-family="Helvetica,sans-Serif" font-size="11.00">fog__monthly_grid::</text>
<text text-anchor="middle" x="74.9587" y="-55.7" font-family="Helvetica,sans-Serif" font-size="11.00">fog_monthly_grid_calculate</text>
</g>
<!-- Node2 -->
<g id="node2" class="node"><title>Node2</title>
<g id="a_node2"><a xlink:href="namespaceexceptions.html#a22a1bf2808fdc249e6b378ee3f221156" target="_top" xlink:title="exceptions::die">
<polygon fill="white" stroke="black" points="218.635,-99 218.635,-118 308.015,-118 308.015,-99 218.635,-99"/>
<text text-anchor="middle" x="263.325" y="-105.2" font-family="Helvetica,sans-Serif" font-size="11.00">exceptions::die</text>
</a>
</g>
</g>
<!-- Node1&#45;&gt;Node2 -->
<g id="edge1" class="edge"><title>Node1&#45;&gt;Node2</title>
<path fill="none" stroke="midnightblue" d="M139.574,-79.5192C163.258,-85.1108 189.784,-91.3735 212.102,-96.6426"/>
<polygon fill="midnightblue" stroke="midnightblue" points="211.498,-100.096 222.035,-98.9876 213.106,-93.2834 211.498,-100.096"/>
</g>
<!-- Node3 -->
<g id="node3" class="node"><title>Node3</title>
<g id="a_node3"><a xlink:href="namespacenetcdf4__support.html#a19c28f8a9dc9d4fe18b9a04e65848b82" target="_top" xlink:title="netcdf4_support::netcdf\l_put_packed_variable_array">
<polygon fill="white" stroke="black" points="185.917,-49.5 185.917,-79.5 340.733,-79.5 340.733,-49.5 185.917,-49.5"/>
<text text-anchor="start" x="193.917" y="-66.7" font-family="Helvetica,sans-Serif" font-size="11.00">netcdf4_support::netcdf</text>
<text text-anchor="middle" x="263.325" y="-55.7" font-family="Helvetica,sans-Serif" font-size="11.00">_put_packed_variable_array</text>
</a>
</g>
</g>
<!-- Node1&#45;&gt;Node3 -->
<g id="edge2" class="edge"><title>Node1&#45;&gt;Node3</title>
<path fill="none" stroke="midnightblue" d="M150.151,-64.5C158.45,-64.5 166.959,-64.5 175.399,-64.5"/>
<polygon fill="midnightblue" stroke="midnightblue" points="175.642,-68.0001 185.642,-64.5 175.642,-61.0001 175.642,-68.0001"/>
</g>
<!-- Node6 -->
<g id="node6" class="node"><title>Node6</title>
<g id="a_node6"><a xlink:href="namespacenetcdf4__support.html#ad886108ada01049368a1eaf046a33a32" target="_top" xlink:title="netcdf4_support::netcdf\l_put_variable_vector">
<polygon fill="white" stroke="black" points="197.841,-0.5 197.841,-30.5 328.81,-30.5 328.81,-0.5 197.841,-0.5"/>
<text text-anchor="start" x="205.841" y="-17.7" font-family="Helvetica,sans-Serif" font-size="11.00">netcdf4_support::netcdf</text>
<text text-anchor="middle" x="263.325" y="-6.7" font-family="Helvetica,sans-Serif" font-size="11.00">_put_variable_vector</text>
</a>
</g>
</g>
<!-- Node1&#45;&gt;Node6 -->
<g id="edge5" class="edge"><title>Node1&#45;&gt;Node6</title>
<path fill="none" stroke="midnightblue" d="M133.141,-49.4654C152.819,-44.2917 175.028,-38.4525 195.411,-33.0934"/>
<polygon fill="midnightblue" stroke="midnightblue" points="196.47,-36.434 205.251,-30.5062 194.69,-29.6641 196.47,-36.434"/>
</g>
<!-- Node4 -->
<g id="node4" class="node"><title>Node4</title>
<g id="a_node4"><a xlink:href="namespacenetcdf4__support.html#ac8c7276a5849ae6d17ffef1787e3f234" target="_top" xlink:title="netcdf4_support::nf_trap">
<polygon fill="white" stroke="black" points="376.733,-30 376.733,-49 511.982,-49 511.982,-30 376.733,-30"/>
<text text-anchor="middle" x="444.358" y="-36.2" font-family="Helvetica,sans-Serif" font-size="11.00">netcdf4_support::nf_trap</text>
</a>
</g>
</g>
<!-- Node3&#45;&gt;Node4 -->
<g id="edge3" class="edge"><title>Node3&#45;&gt;Node4</title>
<path fill="none" stroke="midnightblue" d="M340.771,-53.8252C349.309,-52.6329 358.01,-51.4179 366.554,-50.2249"/>
<polygon fill="midnightblue" stroke="midnightblue" points="367.071,-53.6867 376.491,-48.8373 366.103,-46.754 367.071,-53.6867"/>
</g>
<!-- Node5 -->
<g id="node5" class="node"><title>Node5</title>
<g id="a_node5"><a xlink:href="namespaceconstants__and__conversions.html#ac13fba285229deab77131132e6f62caf" target="_top" xlink:title="constants_and_conversions\l::char_ptr_to_fortran_string">
<polygon fill="white" stroke="black" points="547.982,-24.5 547.982,-54.5 700.349,-54.5 700.349,-24.5 547.982,-24.5"/>
<text text-anchor="start" x="555.982" y="-41.7" font-family="Helvetica,sans-Serif" font-size="11.00">constants_and_conversions</text>
<text text-anchor="middle" x="624.166" y="-30.7" font-family="Helvetica,sans-Serif" font-size="11.00">::char_ptr_to_fortran_string</text>
</a>
</g>
</g>
<!-- Node4&#45;&gt;Node5 -->
<g id="edge4" class="edge"><title>Node4&#45;&gt;Node5</title>
<path fill="none" stroke="midnightblue" d="M512.073,-39.5C520.431,-39.5 529.068,-39.5 537.662,-39.5"/>
<polygon fill="midnightblue" stroke="midnightblue" points="537.713,-43.0001 547.713,-39.5 537.713,-36.0001 537.713,-43.0001"/>
</g>
<!-- Node6&#45;&gt;Node4 -->
<g id="edge6" class="edge"><title>Node6&#45;&gt;Node4</title>
<path fill="none" stroke="midnightblue" d="M328.96,-24.1646C341.21,-25.8067 354.136,-27.5394 366.714,-29.2256"/>
<polygon fill="midnightblue" stroke="midnightblue" points="366.332,-32.7056 376.709,-30.5654 367.262,-25.7677 366.332,-32.7056"/>
</g>
</g>
</svg>
