<?xml version="1.0" encoding="UTF-8" standalone="no"?>
<!DOCTYPE svg PUBLIC "-//W3C//DTD SVG 1.1//EN"
 "http://www.w3.org/Graphics/SVG/1.1/DTD/svg11.dtd">
<!-- Generated by graphviz version 2.38.0 (20140413.2041)
 -->
<!-- Title: netcdf4_support::netcdf_close_file Pages: 1 -->
<svg width="437pt" height="50pt"
 viewBox="0.00 0.00 436.82 50.00" xmlns="http://www.w3.org/2000/svg" xmlns:xlink="http://www.w3.org/1999/xlink">
<g id="graph0" class="graph" transform="scale(1 1) rotate(0) translate(4 46)">
<title>netcdf4_support::netcdf_close_file</title>
<polygon fill="white" stroke="none" points="-4,4 -4,-46 432.816,-46 432.816,4 -4,4"/>
<!-- Node295 -->
<g id="node1" class="node"><title>Node295</title>
<polygon fill="#bfbfbf" stroke="black" points="0,-6 0,-36 130.968,-36 130.968,-6 0,-6"/>
<text text-anchor="start" x="8" y="-23.2" font-family="Helvetica,sans-Serif" font-size="11.00">netcdf4_support::netcdf</text>
<text text-anchor="middle" x="65.4841" y="-12.2" font-family="Helvetica,sans-Serif" font-size="11.00">_close_file</text>
</g>
<!-- Node296 -->
<g id="node2" class="node"><title>Node296</title>
<g id="a_node2"><a xlink:href="namespacedata__catalog__entry.html#aeb285131f87ed64deba0a9041a9c6405" target="_top" xlink:title="data_catalog_entry\l::getvalues_dynamic\l_netcdf_sub">
<polygon fill="white" stroke="black" points="166.968,-0.5 166.968,-41.5 283.247,-41.5 283.247,-0.5 166.968,-0.5"/>
<text text-anchor="start" x="174.968" y="-28.7" font-family="Helvetica,sans-Serif" font-size="11.00">data_catalog_entry</text>
<text text-anchor="start" x="174.968" y="-17.7" font-family="Helvetica,sans-Serif" font-size="11.00">::getvalues_dynamic</text>
<text text-anchor="middle" x="225.107" y="-6.7" font-family="Helvetica,sans-Serif" font-size="11.00">_netcdf_sub</text>
</a>
</g>
</g>
<!-- Node295&#45;&gt;Node296 -->
<g id="edge1" class="edge"><title>Node295&#45;&gt;Node296</title>
<path fill="none" stroke="midnightblue" d="M141.102,-21C149.711,-21 158.388,-21 166.718,-21"/>
<polygon fill="midnightblue" stroke="midnightblue" points="141.05,-17.5001 131.05,-21 141.05,-24.5001 141.05,-17.5001"/>
</g>
<!-- Node297 -->
<g id="node3" class="node"><title>Node297</title>
<g id="a_node3"><a xlink:href="namespacedata__catalog__entry.html#a9e0a89ab19a5bfd61f2dfb8265648234" target="_top" xlink:title="data_catalog_entry\l::getvalues_sub">
<polygon fill="white" stroke="black" points="319.247,-6 319.247,-36 428.816,-36 428.816,-6 319.247,-6"/>
<text text-anchor="start" x="327.247" y="-23.2" font-family="Helvetica,sans-Serif" font-size="11.00">data_catalog_entry</text>
<text text-anchor="middle" x="374.031" y="-12.2" font-family="Helvetica,sans-Serif" font-size="11.00">::getvalues_sub</text>
</a>
</g>
</g>
<!-- Node296&#45;&gt;Node297 -->
<g id="edge2" class="edge"><title>Node296&#45;&gt;Node297</title>
<path fill="none" stroke="midnightblue" d="M293.369,-21C301.987,-21 310.72,-21 319.088,-21"/>
<polygon fill="midnightblue" stroke="midnightblue" points="293.333,-17.5001 283.333,-21 293.333,-24.5001 293.333,-17.5001"/>
</g>
</g>
</svg>
