<?xml version="1.0" encoding="UTF-8" standalone="no"?>
<!DOCTYPE svg PUBLIC "-//W3C//DTD SVG 1.1//EN"
 "http://www.w3.org/Graphics/SVG/1.1/DTD/svg11.dtd">
<!-- Generated by graphviz version 2.38.0 (20140413.2041)
 -->
<!-- Title: data_catalog::catalog_find_key_fn Pages: 1 -->
<svg width="285pt" height="39pt"
 viewBox="0.00 0.00 285.16 39.00" xmlns="http://www.w3.org/2000/svg" xmlns:xlink="http://www.w3.org/1999/xlink">
<g id="graph0" class="graph" transform="scale(1 1) rotate(0) translate(4 35)">
<title>data_catalog::catalog_find_key_fn</title>
<polygon fill="white" stroke="none" points="-4,4 -4,-35 281.161,-35 281.161,4 -4,4"/>
<!-- Node14 -->
<g id="node1" class="node"><title>Node14</title>
<polygon fill="#bfbfbf" stroke="black" points="0,-0.5 0,-30.5 120.581,-30.5 120.581,-0.5 0,-0.5"/>
<text text-anchor="start" x="8" y="-17.7" font-family="Helvetica,sans-Serif" font-size="11.00">data_catalog::catalog</text>
<text text-anchor="middle" x="60.2903" y="-6.7" font-family="Helvetica,sans-Serif" font-size="11.00">_find_key_fn</text>
</g>
<!-- Node15 -->
<g id="node2" class="node"><title>Node15</title>
<g id="a_node2"><a xlink:href="namespacedata__catalog.html#af36f949fa561e96a4ddc87e127d018e9" target="_top" xlink:title="data_catalog::catalog\l_delete_entry_sub">
<polygon fill="white" stroke="black" points="156.581,-0.5 156.581,-30.5 277.161,-30.5 277.161,-0.5 156.581,-0.5"/>
<text text-anchor="start" x="164.581" y="-17.7" font-family="Helvetica,sans-Serif" font-size="11.00">data_catalog::catalog</text>
<text text-anchor="middle" x="216.871" y="-6.7" font-family="Helvetica,sans-Serif" font-size="11.00">_delete_entry_sub</text>
</a>
</g>
</g>
<!-- Node14&#45;&gt;Node15 -->
<g id="edge1" class="edge"><title>Node14&#45;&gt;Node15</title>
<path fill="none" stroke="midnightblue" d="M130.64,-15.5C139.255,-15.5 148.004,-15.5 156.451,-15.5"/>
<polygon fill="midnightblue" stroke="midnightblue" points="130.613,-12.0001 120.613,-15.5 130.613,-19.0001 130.613,-12.0001"/>
</g>
</g>
</svg>
