<?xml version="1.0" encoding="UTF-8" standalone="no"?>
<!DOCTYPE svg PUBLIC "-//W3C//DTD SVG 1.1//EN"
 "http://www.w3.org/Graphics/SVG/1.1/DTD/svg11.dtd">
<!-- Generated by graphviz version 2.38.0 (20140413.2041)
 -->
<!-- Title: constants_and_conversions::keepnumeric Pages: 1 -->
<svg width="839pt" height="88pt"
 viewBox="0.00 0.00 839.19 88.00" xmlns="http://www.w3.org/2000/svg" xmlns:xlink="http://www.w3.org/1999/xlink">
<g id="graph0" class="graph" transform="scale(1 1) rotate(0) translate(4 84)">
<title>constants_and_conversions::keepnumeric</title>
<polygon fill="white" stroke="none" points="-4,4 -4,-84 835.191,-84 835.191,4 -4,4"/>
<!-- Node156 -->
<g id="node1" class="node"><title>Node156</title>
<polygon fill="#bfbfbf" stroke="black" points="0,-24.5 0,-54.5 152.367,-54.5 152.367,-24.5 0,-24.5"/>
<text text-anchor="start" x="8" y="-41.7" font-family="Helvetica,sans-Serif" font-size="11.00">constants_and_conversions</text>
<text text-anchor="middle" x="76.1833" y="-30.7" font-family="Helvetica,sans-Serif" font-size="11.00">::keepnumeric</text>
</g>
<!-- Node157 -->
<g id="node2" class="node"><title>Node157</title>
<g id="a_node2"><a xlink:href="namespaceconstants__and__conversions.html#abc2afdb9db795f37e6ce54aaa2911aca" target="_top" xlink:title="Convert a character value into a integer. ">
<polygon fill="white" stroke="black" points="188.367,-49.5 188.367,-79.5 340.733,-79.5 340.733,-49.5 188.367,-49.5"/>
<text text-anchor="start" x="196.367" y="-66.7" font-family="Helvetica,sans-Serif" font-size="11.00">constants_and_conversions</text>
<text text-anchor="middle" x="264.55" y="-55.7" font-family="Helvetica,sans-Serif" font-size="11.00">::char2int</text>
</a>
</g>
</g>
<!-- Node156&#45;&gt;Node157 -->
<g id="edge1" class="edge"><title>Node156&#45;&gt;Node157</title>
<path fill="none" stroke="midnightblue" d="M162.499,-50.9445C171.11,-52.0997 179.812,-53.267 188.307,-54.4066"/>
<polygon fill="midnightblue" stroke="midnightblue" points="162.825,-47.4571 152.449,-49.5964 161.894,-54.3949 162.825,-47.4571"/>
</g>
<!-- Node158 -->
<g id="node3" class="node"><title>Node158</title>
<g id="a_node3"><a xlink:href="namespaceconstants__and__conversions.html#a928051f0e8ed684010c21875b1eec5ff" target="_top" xlink:title="Determine if string contains numeric values. ">
<polygon fill="white" stroke="black" points="188.367,-0.5 188.367,-30.5 340.733,-30.5 340.733,-0.5 188.367,-0.5"/>
<text text-anchor="start" x="196.367" y="-17.7" font-family="Helvetica,sans-Serif" font-size="11.00">constants_and_conversions</text>
<text text-anchor="middle" x="264.55" y="-6.7" font-family="Helvetica,sans-Serif" font-size="11.00">::is_numeric</text>
</a>
</g>
</g>
<!-- Node156&#45;&gt;Node158 -->
<g id="edge2" class="edge"><title>Node156&#45;&gt;Node158</title>
<path fill="none" stroke="midnightblue" d="M162.499,-28.5133C171.11,-27.4043 179.812,-26.2837 188.307,-25.1897"/>
<polygon fill="midnightblue" stroke="midnightblue" points="161.92,-25.0588 152.449,-29.8075 162.814,-32.0015 161.92,-25.0588"/>
</g>
<!-- Node159 -->
<g id="node4" class="node"><title>Node159</title>
<g id="a_node4"><a xlink:href="namespaceirrigation.html#a4967e74e2a8b2077014603a91e590ff3" target="_top" xlink:title="Estimate the irrigation water required to sustain plant growth. ">
<polygon fill="white" stroke="black" points="376.733,-0.5 376.733,-30.5 483.215,-30.5 483.215,-0.5 376.733,-0.5"/>
<text text-anchor="start" x="384.733" y="-17.7" font-family="Helvetica,sans-Serif" font-size="11.00">irrigation::irrigation</text>
<text text-anchor="middle" x="429.974" y="-6.7" font-family="Helvetica,sans-Serif" font-size="11.00">__initialize</text>
</a>
</g>
</g>
<!-- Node158&#45;&gt;Node159 -->
<g id="edge3" class="edge"><title>Node158&#45;&gt;Node159</title>
<path fill="none" stroke="midnightblue" d="M351.224,-15.5C359.894,-15.5 368.503,-15.5 376.662,-15.5"/>
<polygon fill="midnightblue" stroke="midnightblue" points="351.043,-12.0001 341.043,-15.5 351.043,-19.0001 351.043,-12.0001"/>
</g>
<!-- Node160 -->
<g id="node5" class="node"><title>Node160</title>
<g id="a_node5"><a xlink:href="namespacemodel__domain.html#aa151e61c324bf88227703908041bee41" target="_top" xlink:title="model_domain::model\l_initialize_irrigation">
<polygon fill="white" stroke="black" points="519.215,-0.5 519.215,-30.5 643.442,-30.5 643.442,-0.5 519.215,-0.5"/>
<text text-anchor="start" x="527.215" y="-17.7" font-family="Helvetica,sans-Serif" font-size="11.00">model_domain::model</text>
<text text-anchor="middle" x="581.329" y="-6.7" font-family="Helvetica,sans-Serif" font-size="11.00">_initialize_irrigation</text>
</a>
</g>
</g>
<!-- Node159&#45;&gt;Node160 -->
<g id="edge4" class="edge"><title>Node159&#45;&gt;Node160</title>
<path fill="none" stroke="midnightblue" d="M493.771,-15.5C502.192,-15.5 510.821,-15.5 519.213,-15.5"/>
<polygon fill="midnightblue" stroke="midnightblue" points="493.631,-12.0001 483.631,-15.5 493.631,-19.0001 493.631,-12.0001"/>
</g>
<!-- Node161 -->
<g id="node6" class="node"><title>Node161</title>
<g id="a_node6"><a xlink:href="namespacemodel__domain.html#aac78dbf26ba37cf86ebed4edd7acf89b" target="_top" xlink:title="model_domain::set_method\l_pointers_sub">
<polygon fill="white" stroke="black" points="679.442,-0.5 679.442,-30.5 831.191,-30.5 831.191,-0.5 679.442,-0.5"/>
<text text-anchor="start" x="687.442" y="-17.7" font-family="Helvetica,sans-Serif" font-size="11.00">model_domain::set_method</text>
<text text-anchor="middle" x="755.317" y="-6.7" font-family="Helvetica,sans-Serif" font-size="11.00">_pointers_sub</text>
</a>
</g>
</g>
<!-- Node160&#45;&gt;Node161 -->
<g id="edge5" class="edge"><title>Node160&#45;&gt;Node161</title>
<path fill="none" stroke="midnightblue" d="M653.639,-15.5C662.091,-15.5 670.738,-15.5 679.24,-15.5"/>
<polygon fill="midnightblue" stroke="midnightblue" points="653.45,-12.0001 643.45,-15.5 653.449,-19.0001 653.45,-12.0001"/>
</g>
</g>
</svg>
