<?xml version="1.0" encoding="UTF-8" standalone="no"?>
<!DOCTYPE svg PUBLIC "-//W3C//DTD SVG 1.1//EN"
 "http://www.w3.org/Graphics/SVG/1.1/DTD/svg11.dtd">
<!-- Generated by graphviz version 2.38.0 (20140413.2041)
 -->
<!-- Title: direct_soil_moisture__gridded_data::direct_soil_moisture_initialize Pages: 1 -->
<svg width="488pt" height="50pt"
 viewBox="0.00 0.00 488.14 50.00" xmlns="http://www.w3.org/2000/svg" xmlns:xlink="http://www.w3.org/1999/xlink">
<g id="graph0" class="graph" transform="scale(1 1) rotate(0) translate(4 46)">
<title>direct_soil_moisture__gridded_data::direct_soil_moisture_initialize</title>
<polygon fill="white" stroke="none" points="-4,4 -4,-46 484.143,-46 484.143,4 -4,4"/>
<!-- Node1 -->
<g id="node1" class="node"><title>Node1</title>
<polygon fill="#bfbfbf" stroke="black" points="0,-0.5 0,-41.5 132.166,-41.5 132.166,-0.5 0,-0.5"/>
<text text-anchor="start" x="8" y="-28.7" font-family="Helvetica,sans-Serif" font-size="11.00">direct_soil_moisture</text>
<text text-anchor="start" x="8" y="-17.7" font-family="Helvetica,sans-Serif" font-size="11.00">__gridded_data::direct</text>
<text text-anchor="middle" x="66.083" y="-6.7" font-family="Helvetica,sans-Serif" font-size="11.00">_soil_moisture_initialize</text>
</g>
<!-- Node2 -->
<g id="node2" class="node"><title>Node2</title>
<g id="a_node2"><a xlink:href="namespacemodel__domain.html#a069034b916c48249e9df36ebaaa1045e" target="_top" xlink:title="model_domain::model\l_initialize_direct_soil\l_moisture_gridded">
<polygon fill="white" stroke="black" points="168.166,-0.5 168.166,-41.5 292.394,-41.5 292.394,-0.5 168.166,-0.5"/>
<text text-anchor="start" x="176.166" y="-28.7" font-family="Helvetica,sans-Serif" font-size="11.00">model_domain::model</text>
<text text-anchor="start" x="176.166" y="-17.7" font-family="Helvetica,sans-Serif" font-size="11.00">_initialize_direct_soil</text>
<text text-anchor="middle" x="230.28" y="-6.7" font-family="Helvetica,sans-Serif" font-size="11.00">_moisture_gridded</text>
</a>
</g>
</g>
<!-- Node1&#45;&gt;Node2 -->
<g id="edge1" class="edge"><title>Node1&#45;&gt;Node2</title>
<path fill="none" stroke="midnightblue" d="M142.816,-21C151.253,-21 159.768,-21 167.994,-21"/>
<polygon fill="midnightblue" stroke="midnightblue" points="142.587,-17.5001 132.587,-21 142.587,-24.5001 142.587,-17.5001"/>
</g>
<!-- Node3 -->
<g id="node3" class="node"><title>Node3</title>
<g id="a_node3"><a xlink:href="namespacemodel__domain.html#aac78dbf26ba37cf86ebed4edd7acf89b" target="_top" xlink:title="model_domain::set_method\l_pointers_sub">
<polygon fill="white" stroke="black" points="328.394,-6 328.394,-36 480.143,-36 480.143,-6 328.394,-6"/>
<text text-anchor="start" x="336.394" y="-23.2" font-family="Helvetica,sans-Serif" font-size="11.00">model_domain::set_method</text>
<text text-anchor="middle" x="404.268" y="-12.2" font-family="Helvetica,sans-Serif" font-size="11.00">_pointers_sub</text>
</a>
</g>
</g>
<!-- Node2&#45;&gt;Node3 -->
<g id="edge2" class="edge"><title>Node2&#45;&gt;Node3</title>
<path fill="none" stroke="midnightblue" d="M302.59,-21C311.042,-21 319.689,-21 328.191,-21"/>
<polygon fill="midnightblue" stroke="midnightblue" points="302.401,-17.5001 292.401,-21 302.401,-24.5001 302.401,-17.5001"/>
</g>
</g>
</svg>
