<?xml version="1.0" encoding="UTF-8" standalone="no"?>
<!DOCTYPE svg PUBLIC "-//W3C//DTD SVG 1.1//EN"
 "http://www.w3.org/Graphics/SVG/1.1/DTD/svg11.dtd">
<!-- Generated by graphviz version 2.38.0 (20140413.2041)
 -->
<!-- Title: netcdf4_support::nf_set_standard_dimensions Pages: 1 -->
<svg width="918pt" height="100pt"
 viewBox="0.00 0.00 918.13 99.50" xmlns="http://www.w3.org/2000/svg" xmlns:xlink="http://www.w3.org/1999/xlink">
<g id="graph0" class="graph" transform="scale(1 1) rotate(0) translate(4 95.5)">
<title>netcdf4_support::nf_set_standard_dimensions</title>
<polygon fill="white" stroke="none" points="-4,4 -4,-95.5 914.13,-95.5 914.13,4 -4,4"/>
<!-- Node621 -->
<g id="node1" class="node"><title>Node621</title>
<polygon fill="#bfbfbf" stroke="black" points="0,-33 0,-63 147.474,-63 147.474,-33 0,-33"/>
<text text-anchor="start" x="8" y="-50.2" font-family="Helvetica,sans-Serif" font-size="11.00">netcdf4_support::nf</text>
<text text-anchor="middle" x="73.7368" y="-39.2" font-family="Helvetica,sans-Serif" font-size="11.00">_set_standard_dimensions</text>
</g>
<!-- Node622 -->
<g id="node2" class="node"><title>Node622</title>
<g id="a_node2"><a xlink:href="namespacenetcdf4__support.html#a4bc9b9f951c1dc1cc1f50ba727794071" target="_top" xlink:title="netcdf4_support::netcdf\l_open_and_prepare_as_output">
<polygon fill="white" stroke="black" points="183.474,-61 183.474,-91 353.001,-91 353.001,-61 183.474,-61"/>
<text text-anchor="start" x="191.474" y="-78.2" font-family="Helvetica,sans-Serif" font-size="11.00">netcdf4_support::netcdf</text>
<text text-anchor="middle" x="268.237" y="-67.2" font-family="Helvetica,sans-Serif" font-size="11.00">_open_and_prepare_as_output</text>
</a>
</g>
</g>
<!-- Node621&#45;&gt;Node622 -->
<g id="edge1" class="edge"><title>Node621&#45;&gt;Node622</title>
<path fill="none" stroke="midnightblue" d="M157.495,-60.0376C166.07,-61.2848 174.79,-62.5532 183.377,-63.8022"/>
<polygon fill="midnightblue" stroke="midnightblue" points="157.913,-56.5615 147.513,-58.5856 156.905,-63.4886 157.913,-56.5615"/>
</g>
<!-- Node626 -->
<g id="node6" class="node"><title>Node626</title>
<g id="a_node6"><a xlink:href="namespacenetcdf4__support.html#a6c0e12debd35545980fa63ade1094e93" target="_top" xlink:title="netcdf4_support::netcdf\l_open_and_prepare_as_output\l_archive">
<polygon fill="white" stroke="black" points="183.474,-0.5 183.474,-41.5 353.001,-41.5 353.001,-0.5 183.474,-0.5"/>
<text text-anchor="start" x="191.474" y="-28.7" font-family="Helvetica,sans-Serif" font-size="11.00">netcdf4_support::netcdf</text>
<text text-anchor="start" x="191.474" y="-17.7" font-family="Helvetica,sans-Serif" font-size="11.00">_open_and_prepare_as_output</text>
<text text-anchor="middle" x="268.237" y="-6.7" font-family="Helvetica,sans-Serif" font-size="11.00">_archive</text>
</a>
</g>
</g>
<!-- Node621&#45;&gt;Node626 -->
<g id="edge5" class="edge"><title>Node621&#45;&gt;Node626</title>
<path fill="none" stroke="midnightblue" d="M157.495,-36.3924C166.07,-35.1897 174.79,-33.9666 183.377,-32.7622"/>
<polygon fill="midnightblue" stroke="midnightblue" points="156.93,-32.9373 147.513,-37.7925 157.902,-39.8694 156.93,-32.9373"/>
</g>
<!-- Node623 -->
<g id="node3" class="node"><title>Node623</title>
<g id="a_node3"><a xlink:href="namespacefog____monthly__grid.html#a8e7386e0dfea998459a45c270e0afecc" target="_top" xlink:title="Initialize the fog drip algorithm. ">
<polygon fill="white" stroke="black" points="389.001,-61 389.001,-91 534.632,-91 534.632,-61 389.001,-61"/>
<text text-anchor="start" x="397.001" y="-78.2" font-family="Helvetica,sans-Serif" font-size="11.00">fog__monthly_grid::</text>
<text text-anchor="middle" x="461.817" y="-67.2" font-family="Helvetica,sans-Serif" font-size="11.00">fog_monthly_grid_initialize</text>
</a>
</g>
</g>
<!-- Node622&#45;&gt;Node623 -->
<g id="edge2" class="edge"><title>Node622&#45;&gt;Node623</title>
<path fill="none" stroke="midnightblue" d="M363.318,-76C371.901,-76 380.503,-76 388.847,-76"/>
<polygon fill="midnightblue" stroke="midnightblue" points="363.267,-72.5001 353.267,-76 363.267,-79.5001 363.267,-72.5001"/>
</g>
<!-- Node624 -->
<g id="node4" class="node"><title>Node624</title>
<g id="a_node4"><a xlink:href="namespacemodel__domain.html#ad24a97a20a893d728e39930306e8b1d4" target="_top" xlink:title="model_domain::model\l_initialize_fog_monthly_grid">
<polygon fill="white" stroke="black" points="570.632,-61 570.632,-91 722.381,-91 722.381,-61 570.632,-61"/>
<text text-anchor="start" x="578.632" y="-78.2" font-family="Helvetica,sans-Serif" font-size="11.00">model_domain::model</text>
<text text-anchor="middle" x="646.507" y="-67.2" font-family="Helvetica,sans-Serif" font-size="11.00">_initialize_fog_monthly_grid</text>
</a>
</g>
</g>
<!-- Node623&#45;&gt;Node624 -->
<g id="edge3" class="edge"><title>Node623&#45;&gt;Node624</title>
<path fill="none" stroke="midnightblue" d="M544.788,-76C553.392,-76 562.108,-76 570.626,-76"/>
<polygon fill="midnightblue" stroke="midnightblue" points="544.758,-72.5001 534.758,-76 544.758,-79.5001 544.758,-72.5001"/>
</g>
<!-- Node625 -->
<g id="node5" class="node"><title>Node625</title>
<g id="a_node5"><a xlink:href="namespacemodel__domain.html#aac78dbf26ba37cf86ebed4edd7acf89b" target="_top" xlink:title="model_domain::set_method\l_pointers_sub">
<polygon fill="white" stroke="black" points="758.381,-61 758.381,-91 910.13,-91 910.13,-61 758.381,-61"/>
<text text-anchor="start" x="766.381" y="-78.2" font-family="Helvetica,sans-Serif" font-size="11.00">model_domain::set_method</text>
<text text-anchor="middle" x="834.256" y="-67.2" font-family="Helvetica,sans-Serif" font-size="11.00">_pointers_sub</text>
</a>
</g>
</g>
<!-- Node624&#45;&gt;Node625 -->
<g id="edge4" class="edge"><title>Node624&#45;&gt;Node625</title>
<path fill="none" stroke="midnightblue" d="M732.539,-76C741.122,-76 749.795,-76 758.262,-76"/>
<polygon fill="midnightblue" stroke="midnightblue" points="732.523,-72.5001 722.523,-76 732.523,-79.5001 732.523,-72.5001"/>
</g>
<!-- Node627 -->
<g id="node7" class="node"><title>Node627</title>
<g id="a_node7"><a xlink:href="namespacedata__catalog__entry.html#a3ea40e0b58c61d01a18065ea3c1b4fcd" target="_top" xlink:title="data_catalog_entry\l::put_values_to_local\l_netcdf_sub">
<polygon fill="white" stroke="black" points="402.141,-0.5 402.141,-41.5 521.492,-41.5 521.492,-0.5 402.141,-0.5"/>
<text text-anchor="start" x="410.141" y="-28.7" font-family="Helvetica,sans-Serif" font-size="11.00">data_catalog_entry</text>
<text text-anchor="start" x="410.141" y="-17.7" font-family="Helvetica,sans-Serif" font-size="11.00">::put_values_to_local</text>
<text text-anchor="middle" x="461.817" y="-6.7" font-family="Helvetica,sans-Serif" font-size="11.00">_netcdf_sub</text>
</a>
</g>
</g>
<!-- Node626&#45;&gt;Node627 -->
<g id="edge6" class="edge"><title>Node626&#45;&gt;Node627</title>
<path fill="none" stroke="midnightblue" d="M363.294,-21C376.44,-21 389.629,-21 401.87,-21"/>
<polygon fill="midnightblue" stroke="midnightblue" points="363.267,-17.5001 353.267,-21 363.267,-24.5001 363.267,-17.5001"/>
</g>
</g>
</svg>
