<?xml version="1.0" encoding="UTF-8" standalone="no"?>
<!DOCTYPE svg PUBLIC "-//W3C//DTD SVG 1.1//EN"
 "http://www.w3.org/Graphics/SVG/1.1/DTD/svg11.dtd">
<!-- Generated by graphviz version 2.38.0 (20140413.2041)
 -->
<!-- Title: solar_calculations::estimate_percent_of_possible_sunshine__psun Pages: 1 -->
<svg width="686pt" height="50pt"
 viewBox="0.00 0.00 685.76 50.00" xmlns="http://www.w3.org/2000/svg" xmlns:xlink="http://www.w3.org/1999/xlink">
<g id="graph0" class="graph" transform="scale(1 1) rotate(0) translate(4 46)">
<title>solar_calculations::estimate_percent_of_possible_sunshine__psun</title>
<polygon fill="white" stroke="none" points="-4,4 -4,-46 681.758,-46 681.758,4 -4,4"/>
<!-- Node34 -->
<g id="node1" class="node"><title>Node34</title>
<polygon fill="#bfbfbf" stroke="black" points="0,-0.5 0,-41.5 148.714,-41.5 148.714,-0.5 0,-0.5"/>
<text text-anchor="start" x="8" y="-28.7" font-family="Helvetica,sans-Serif" font-size="11.00">solar_calculations</text>
<text text-anchor="start" x="8" y="-17.7" font-family="Helvetica,sans-Serif" font-size="11.00">::estimate_percent_of</text>
<text text-anchor="middle" x="74.3572" y="-6.7" font-family="Helvetica,sans-Serif" font-size="11.00">_possible_sunshine__psun</text>
</g>
<!-- Node35 -->
<g id="node2" class="node"><title>Node35</title>
<g id="a_node2"><a xlink:href="namespaceet____jensen__haise.html#a7de54d9f265eb6dd1857ed2e18f98d2a" target="_top" xlink:title="et__jensen_haise::et\l_jh_calculate">
<polygon fill="white" stroke="black" points="184.714,-6 184.714,-36 302.239,-36 302.239,-6 184.714,-6"/>
<text text-anchor="start" x="192.714" y="-23.2" font-family="Helvetica,sans-Serif" font-size="11.00">et__jensen_haise::et</text>
<text text-anchor="middle" x="243.477" y="-12.2" font-family="Helvetica,sans-Serif" font-size="11.00">_jh_calculate</text>
</a>
</g>
</g>
<!-- Node34&#45;&gt;Node35 -->
<g id="edge1" class="edge"><title>Node34&#45;&gt;Node35</title>
<path fill="none" stroke="midnightblue" d="M159.22,-21C167.82,-21 176.415,-21 184.642,-21"/>
<polygon fill="midnightblue" stroke="midnightblue" points="159.145,-17.5001 149.145,-21 159.145,-24.5001 159.145,-17.5001"/>
</g>
<!-- Node36 -->
<g id="node3" class="node"><title>Node36</title>
<g id="a_node3"><a xlink:href="namespacemodel__domain.html#aaa195a960abacf5088acc9ff3242847e" target="_top" xlink:title="model_domain::model\l_calculate_et_jensen_haise">
<polygon fill="white" stroke="black" points="338.239,-6 338.239,-36 490.009,-36 490.009,-6 338.239,-6"/>
<text text-anchor="start" x="346.239" y="-23.2" font-family="Helvetica,sans-Serif" font-size="11.00">model_domain::model</text>
<text text-anchor="middle" x="414.124" y="-12.2" font-family="Helvetica,sans-Serif" font-size="11.00">_calculate_et_jensen_haise</text>
</a>
</g>
</g>
<!-- Node35&#45;&gt;Node36 -->
<g id="edge2" class="edge"><title>Node35&#45;&gt;Node36</title>
<path fill="none" stroke="midnightblue" d="M312.587,-21C320.953,-21 329.54,-21 338.002,-21"/>
<polygon fill="midnightblue" stroke="midnightblue" points="312.515,-17.5001 302.515,-21 312.515,-24.5001 312.515,-17.5001"/>
</g>
<!-- Node37 -->
<g id="node4" class="node"><title>Node37</title>
<g id="a_node4"><a xlink:href="namespacemodel__domain.html#aac78dbf26ba37cf86ebed4edd7acf89b" target="_top" xlink:title="model_domain::set_method\l_pointers_sub">
<polygon fill="white" stroke="black" points="526.009,-6 526.009,-36 677.758,-36 677.758,-6 526.009,-6"/>
<text text-anchor="start" x="534.009" y="-23.2" font-family="Helvetica,sans-Serif" font-size="11.00">model_domain::set_method</text>
<text text-anchor="middle" x="601.884" y="-12.2" font-family="Helvetica,sans-Serif" font-size="11.00">_pointers_sub</text>
</a>
</g>
</g>
<!-- Node36&#45;&gt;Node37 -->
<g id="edge3" class="edge"><title>Node36&#45;&gt;Node37</title>
<path fill="none" stroke="midnightblue" d="M500.161,-21C508.745,-21 517.418,-21 525.886,-21"/>
<polygon fill="midnightblue" stroke="midnightblue" points="500.144,-17.5001 490.144,-21 500.144,-24.5001 500.144,-17.5001"/>
</g>
</g>
</svg>
