<?xml version="1.0" encoding="UTF-8" standalone="no"?>
<!DOCTYPE svg PUBLIC "-//W3C//DTD SVG 1.1//EN"
 "http://www.w3.org/Graphics/SVG/1.1/DTD/svg11.dtd">
<!-- Generated by graphviz version 2.38.0 (20140413.2041)
 -->
<!-- Title: crop_coefficients__fao56::crop_coefficients_fao56_initialize Pages: 1 -->
<svg width="548pt" height="50pt"
 viewBox="0.00 0.00 548.10 50.00" xmlns="http://www.w3.org/2000/svg" xmlns:xlink="http://www.w3.org/1999/xlink">
<g id="graph0" class="graph" transform="scale(1 1) rotate(0) translate(4 46)">
<title>crop_coefficients__fao56::crop_coefficients_fao56_initialize</title>
<polygon fill="white" stroke="none" points="-4,4 -4,-46 544.1,-46 544.1,4 -4,4"/>
<!-- Node1 -->
<g id="node1" class="node"><title>Node1</title>
<polygon fill="#bfbfbf" stroke="black" points="0,-0.5 0,-41.5 138.3,-41.5 138.3,-0.5 0,-0.5"/>
<text text-anchor="start" x="8" y="-28.7" font-family="Helvetica,sans-Serif" font-size="11.00">crop_coefficients_</text>
<text text-anchor="start" x="8" y="-17.7" font-family="Helvetica,sans-Serif" font-size="11.00">_fao56::crop_coefficients</text>
<text text-anchor="middle" x="69.1499" y="-6.7" font-family="Helvetica,sans-Serif" font-size="11.00">_fao56_initialize</text>
</g>
<!-- Node2 -->
<g id="node2" class="node"><title>Node2</title>
<g id="a_node2"><a xlink:href="namespacemodel__domain.html#ac1cc3e9968a3bd60dec138f06905a845" target="_top" xlink:title="model_domain::model\l_initialize_crop_coefficient_fao56">
<polygon fill="white" stroke="black" points="174.3,-6 174.3,-36 352.351,-36 352.351,-6 174.3,-6"/>
<text text-anchor="start" x="182.3" y="-23.2" font-family="Helvetica,sans-Serif" font-size="11.00">model_domain::model</text>
<text text-anchor="middle" x="263.325" y="-12.2" font-family="Helvetica,sans-Serif" font-size="11.00">_initialize_crop_coefficient_fao56</text>
</a>
</g>
</g>
<!-- Node1&#45;&gt;Node2 -->
<g id="edge1" class="edge"><title>Node1&#45;&gt;Node2</title>
<path fill="none" stroke="midnightblue" d="M148.584,-21C156.987,-21 165.577,-21 174.084,-21"/>
<polygon fill="midnightblue" stroke="midnightblue" points="148.445,-17.5001 138.445,-21 148.445,-24.5001 148.445,-17.5001"/>
</g>
<!-- Node3 -->
<g id="node3" class="node"><title>Node3</title>
<g id="a_node3"><a xlink:href="namespacemodel__domain.html#aac78dbf26ba37cf86ebed4edd7acf89b" target="_top" xlink:title="model_domain::set_method\l_pointers_sub">
<polygon fill="white" stroke="black" points="388.351,-6 388.351,-36 540.1,-36 540.1,-6 388.351,-6"/>
<text text-anchor="start" x="396.351" y="-23.2" font-family="Helvetica,sans-Serif" font-size="11.00">model_domain::set_method</text>
<text text-anchor="middle" x="464.226" y="-12.2" font-family="Helvetica,sans-Serif" font-size="11.00">_pointers_sub</text>
</a>
</g>
</g>
<!-- Node2&#45;&gt;Node3 -->
<g id="edge2" class="edge"><title>Node2&#45;&gt;Node3</title>
<path fill="none" stroke="midnightblue" d="M362.554,-21C371.192,-21 379.843,-21 388.245,-21"/>
<polygon fill="midnightblue" stroke="midnightblue" points="362.435,-17.5001 352.435,-21 362.435,-24.5001 362.435,-17.5001"/>
</g>
</g>
</svg>
