<?xml version="1.0" encoding="UTF-8" standalone="no"?>
<!DOCTYPE svg PUBLIC "-//W3C//DTD SVG 1.1//EN"
 "http://www.w3.org/Graphics/SVG/1.1/DTD/svg11.dtd">
<!-- Generated by graphviz version 2.38.0 (20140413.2041)
 -->
<!-- Title: grid::grid_populatexy Pages: 1 -->
<!--zoomable 167 -->
<svg id="main" version="1.1" xmlns="http://www.w3.org/2000/svg" xmlns:xlink="http://www.w3.org/1999/xlink" xml:space="preserve" onload="init(evt)">
<style type="text/css"><![CDATA[
.edge:hover path { stroke: red; }
.edge:hover polygon { stroke: red; fill: red; }
]]></style>
<script type="text/javascript"><![CDATA[
var edges = document.getElementsByTagName('g');
if (edges && edges.length) {
  for (var i=0;i<edges.length;i++) {
    if (edges[i].id.substr(0,4)=='edge') {
      edges[i].setAttribute('class','edge');
    }
  }
}
]]></script>
        <defs>
                <circle id="rim" cx="0" cy="0" r="7"/>
                <circle id="rim2" cx="0" cy="0" r="3.5"/>
                <g id="zoomPlus">
                        <use xlink:href="#rim" fill="#404040">
                                <set attributeName="fill" to="#808080" begin="zoomplus.mouseover" end="zoomplus.mouseout"/>
                        </use>
                        <path d="M-4,0h8M0,-4v8" fill="none" stroke="white" stroke-width="1.5" pointer-events="none"/>
                </g>
                <g id="zoomMin">
                        <use xlink:href="#rim" fill="#404040">
                                <set attributeName="fill" to="#808080" begin="zoomminus.mouseover" end="zoomminus.mouseout"/>
                        </use>
                        <path d="M-4,0h8" fill="none" stroke="white" stroke-width="1.5" pointer-events="none"/>
                </g>
                <g id="dirArrow">
                        <path fill="none" stroke="white" stroke-width="1.5" d="M0,-3.0v7 M-2.5,-0.5L0,-3.0L2.5,-0.5"/>
                </g>
               <g id="resetDef">
                       <use xlink:href="#rim2" fill="#404040">
                               <set attributeName="fill" to="#808080" begin="reset.mouseover" end="reset.mouseout"/>
                       </use>
               </g>
        </defs>

<script type="text/javascript">
var viewWidth = 906;
var viewHeight = 167;
var sectionId = 'dynsection-34';
</script>
<script xlink:href="svgpan.js"/>
<svg id="graph" class="graph">
<g id="viewport">
<title>grid::grid_populatexy</title>
<polygon fill="white" stroke="none" points="-4,4 -4,-162.5 902.445,-162.5 902.445,4 -4,4"/>
<!-- Node195 -->
<g id="node1" class="node"><title>Node195</title>
<polygon fill="#bfbfbf" stroke="black" points="0,-63 0,-82 118.121,-82 118.121,-63 0,-63"/>
<text text-anchor="middle" x="59.0603" y="-69.2" font-family="Helvetica,sans-Serif" font-size="11.00">grid::grid_populatexy</text>
</g>
<!-- Node196 -->
<g id="node2" class="node"><title>Node196</title>
<g id="a_node2"><a xlink:href="namespacegrid.html#afa350ce941557d82c522ed95e7758c44" target="_top" xlink:title="grid::grid_gridtogrid_int">
<polygon fill="white" stroke="black" points="156.876,-139 156.876,-158 285.384,-158 285.384,-139 156.876,-139"/>
<text text-anchor="middle" x="221.13" y="-145.2" font-family="Helvetica,sans-Serif" font-size="11.00">grid::grid_gridtogrid_int</text>
</a>
</g>
</g>
<!-- Node195&#45;&gt;Node196 -->
<g id="edge1" class="edge"><title>Node195&#45;&gt;Node196</title>
<path fill="none" stroke="midnightblue" d="M81.763,-87.9366C100.272,-100.531 127.964,-118.052 154.121,-129.5 162.423,-133.134 171.614,-136.285 180.434,-138.919"/>
<polygon fill="midnightblue" stroke="midnightblue" points="83.6774,-85.0051 73.4612,-82.198 79.697,-90.7633 83.6774,-85.0051"/>
</g>
<!-- Node198 -->
<g id="node4" class="node"><title>Node198</title>
<g id="a_node4"><a xlink:href="namespacegrid.html#a5d46ebd32a7a83ebf0ba59757bbf754a" target="_top" xlink:title="grid::grid_gridtogrid_sgl">
<polygon fill="white" stroke="black" points="155.654,-101 155.654,-120 286.606,-120 286.606,-101 155.654,-101"/>
<text text-anchor="middle" x="221.13" y="-107.2" font-family="Helvetica,sans-Serif" font-size="11.00">grid::grid_gridtogrid_sgl</text>
</a>
</g>
</g>
<!-- Node195&#45;&gt;Node198 -->
<g id="edge3" class="edge"><title>Node195&#45;&gt;Node198</title>
<path fill="none" stroke="midnightblue" d="M110.474,-84.468C132.905,-89.7931 158.951,-95.9762 180.028,-100.98"/>
<polygon fill="midnightblue" stroke="midnightblue" points="110.991,-80.9935 100.453,-82.089 109.374,-87.8042 110.991,-80.9935"/>
</g>
<!-- Node199 -->
<g id="node5" class="node"><title>Node199</title>
<g id="a_node5"><a xlink:href="namespacegrid.html#a565a676f138a2e48293c5bfadf0d539e" target="_top" xlink:title="grid::grid_gridtopoint_int">
<polygon fill="white" stroke="black" points="154.121,-63 154.121,-82 288.14,-82 288.14,-63 154.121,-63"/>
<text text-anchor="middle" x="221.13" y="-69.2" font-family="Helvetica,sans-Serif" font-size="11.00">grid::grid_gridtopoint_int</text>
</a>
</g>
</g>
<!-- Node195&#45;&gt;Node199 -->
<g id="edge5" class="edge"><title>Node195&#45;&gt;Node199</title>
<path fill="none" stroke="midnightblue" d="M128.519,-72.5C136.989,-72.5 145.636,-72.5 154.069,-72.5"/>
<polygon fill="midnightblue" stroke="midnightblue" points="128.302,-69.0001 118.302,-72.5 128.302,-76.0001 128.302,-69.0001"/>
</g>
<!-- Node200 -->
<g id="node6" class="node"><title>Node200</title>
<g id="a_node6"><a xlink:href="namespacegrid.html#a6eb75c46ff6156376f88e567ac0e5271" target="_top" xlink:title="Call PROJ4 to transform coordinates. ">
<polygon fill="white" stroke="black" points="165.446,-25 165.446,-44 276.815,-44 276.815,-25 165.446,-25"/>
<text text-anchor="middle" x="221.13" y="-31.2" font-family="Helvetica,sans-Serif" font-size="11.00">grid::grid_transform</text>
</a>
</g>
</g>
<!-- Node195&#45;&gt;Node200 -->
<g id="edge6" class="edge"><title>Node195&#45;&gt;Node200</title>
<path fill="none" stroke="midnightblue" d="M110.474,-60.532C132.905,-55.2069 158.951,-49.0238 180.028,-44.0201"/>
<polygon fill="midnightblue" stroke="midnightblue" points="109.374,-57.1958 100.453,-62.911 110.991,-64.0065 109.374,-57.1958"/>
</g>
<!-- Node201 -->
<g id="node7" class="node"><title>Node201</title>
<g id="a_node7"><a xlink:href="namespacemodel__initialize.html#a63c6e7946b13f1ffe90ca3e2d7df1387" target="_top" xlink:title="model_initialize::initialize\l_latitude">
<polygon fill="white" stroke="black" points="324.14,-0.5 324.14,-30.5 460.586,-30.5 460.586,-0.5 324.14,-0.5"/>
<text text-anchor="start" x="332.14" y="-17.7" font-family="Helvetica,sans-Serif" font-size="11.00">model_initialize::initialize</text>
<text text-anchor="middle" x="392.363" y="-6.7" font-family="Helvetica,sans-Serif" font-size="11.00">_latitude</text>
</a>
</g>
</g>
<!-- Node195&#45;&gt;Node201 -->
<g id="edge12" class="edge"><title>Node195&#45;&gt;Node201</title>
<path fill="none" stroke="midnightblue" d="M79.2289,-56.5179C97.2615,-42.6016 125.673,-23.4468 154.121,-15.5 209.856,0.0697272 275.873,-1.45075 324.098,-5.99206"/>
<polygon fill="midnightblue" stroke="midnightblue" points="76.9053,-53.8939 71.2556,-62.8568 81.2615,-59.3733 76.9053,-53.8939"/>
</g>
<!-- Node197 -->
<g id="node3" class="node"><title>Node197</title>
<g id="a_node3"><a xlink:href="namespacedata__catalog__entry.html#aacf51804adb730b5710c4060576a7948" target="_top" xlink:title="data_catalog_entry\l::transform_grid_to\l_grid_sub">
<polygon fill="white" stroke="black" points="337.578,-90 337.578,-131 447.148,-131 447.148,-90 337.578,-90"/>
<text text-anchor="start" x="345.578" y="-118.2" font-family="Helvetica,sans-Serif" font-size="11.00">data_catalog_entry</text>
<text text-anchor="start" x="345.578" y="-107.2" font-family="Helvetica,sans-Serif" font-size="11.00">::transform_grid_to</text>
<text text-anchor="middle" x="392.363" y="-96.2" font-family="Helvetica,sans-Serif" font-size="11.00">_grid_sub</text>
</a>
</g>
</g>
<!-- Node196&#45;&gt;Node197 -->
<g id="edge2" class="edge"><title>Node196&#45;&gt;Node197</title>
<path fill="none" stroke="midnightblue" d="M274.679,-136.701C294.625,-132.222 317.36,-127.117 337.431,-122.61"/>
<polygon fill="midnightblue" stroke="midnightblue" points="273.825,-133.305 264.835,-138.911 275.359,-140.135 273.825,-133.305"/>
</g>
<!-- Node198&#45;&gt;Node197 -->
<g id="edge4" class="edge"><title>Node198&#45;&gt;Node197</title>
<path fill="none" stroke="midnightblue" d="M297.354,-110.5C310.907,-110.5 324.786,-110.5 337.577,-110.5"/>
<polygon fill="midnightblue" stroke="midnightblue" points="297.076,-107 287.076,-110.5 297.076,-114 297.076,-107"/>
</g>
<!-- Node200&#45;&gt;Node197 -->
<g id="edge11" class="edge"><title>Node200&#45;&gt;Node197</title>
<path fill="none" stroke="midnightblue" d="M270.651,-47.1091C276.612,-49.0541 282.563,-51.1921 288.14,-53.5 312.541,-63.5986 338.561,-77.9932 358.372,-89.79"/>
<polygon fill="midnightblue" stroke="midnightblue" points="271.265,-43.6352 260.677,-44.022 269.195,-50.3223 271.265,-43.6352"/>
</g>
<!-- Node200&#45;&gt;Node201 -->
<g id="edge7" class="edge"><title>Node200&#45;&gt;Node201</title>
<path fill="none" stroke="midnightblue" d="M287.072,-27.2088C299.161,-25.8517 311.816,-24.4309 323.975,-23.0657"/>
<polygon fill="midnightblue" stroke="midnightblue" points="286.622,-23.7373 277.075,-28.3312 287.403,-30.6936 286.622,-23.7373"/>
</g>
<!-- Node202 -->
<g id="node8" class="node"><title>Node202</title>
<g id="a_node8"><a xlink:href="namespacemodel__initialize.html#a39e959b59f3ec67f64a1b37a5b30ebc2" target="_top" xlink:title="model_initialize::initialize\l_ancillary_values">
<polygon fill="white" stroke="black" points="496.586,-0.5 496.586,-30.5 633.033,-30.5 633.033,-0.5 496.586,-0.5"/>
<text text-anchor="start" x="504.586" y="-17.7" font-family="Helvetica,sans-Serif" font-size="11.00">model_initialize::initialize</text>
<text text-anchor="middle" x="564.81" y="-6.7" font-family="Helvetica,sans-Serif" font-size="11.00">_ancillary_values</text>
</a>
</g>
</g>
<!-- Node201&#45;&gt;Node202 -->
<g id="edge8" class="edge"><title>Node201&#45;&gt;Node202</title>
<path fill="none" stroke="midnightblue" d="M470.991,-15.5C479.465,-15.5 488.039,-15.5 496.376,-15.5"/>
<polygon fill="midnightblue" stroke="midnightblue" points="470.728,-12.0001 460.728,-15.5 470.728,-19.0001 470.728,-12.0001"/>
</g>
<!-- Node203 -->
<g id="node9" class="node"><title>Node203</title>
<g id="a_node9"><a xlink:href="namespacemodel__initialize.html#a46370bf2e9ea112d1f219277ba7fd3ce" target="_top" xlink:title="model_initialize::initialize_all">
<polygon fill="white" stroke="black" points="669.033,-6 669.033,-25 822.603,-25 822.603,-6 669.033,-6"/>
<text text-anchor="middle" x="745.818" y="-12.2" font-family="Helvetica,sans-Serif" font-size="11.00">model_initialize::initialize_all</text>
</a>
</g>
</g>
<!-- Node202&#45;&gt;Node203 -->
<g id="edge9" class="edge"><title>Node202&#45;&gt;Node203</title>
<path fill="none" stroke="midnightblue" d="M643.397,-15.5C651.808,-15.5 660.361,-15.5 668.753,-15.5"/>
<polygon fill="midnightblue" stroke="midnightblue" points="643.23,-12.0001 633.23,-15.5 643.23,-19.0001 643.23,-12.0001"/>
</g>
<!-- Node204 -->
<g id="node10" class="node"><title>Node204</title>
<g id="a_node10"><a xlink:href="main_8F90.html#a8ec2266d83cd6c0b762cbcbc92c0af3d" target="_top" xlink:title="Main program which references all other modules; execution begins here. ">
<polygon fill="white" stroke="black" points="858.603,-6 858.603,-25 898.445,-25 898.445,-6 858.603,-6"/>
<text text-anchor="middle" x="878.524" y="-12.2" font-family="Helvetica,sans-Serif" font-size="11.00">main</text>
</a>
</g>
</g>
<!-- Node203&#45;&gt;Node204 -->
<g id="edge10" class="edge"><title>Node203&#45;&gt;Node204</title>
<path fill="none" stroke="midnightblue" d="M832.943,-15.5C842.438,-15.5 851.28,-15.5 858.545,-15.5"/>
<polygon fill="midnightblue" stroke="midnightblue" points="832.85,-12.0001 822.85,-15.5 832.85,-19.0001 832.85,-12.0001"/>
</g>
</g>
</svg>
        <g id="navigator" transform="translate(0 0)" fill="#404254">
                <rect fill="#f2f5e9" fill-opacity="0.5" stroke="#606060" stroke-width=".5" x="0" y="0" width="60" height="60"/>
                <use id="zoomplus" xlink:href="#zoomPlus" x="17" y="9" onmousedown="handleZoom(evt,'in')"/>
                <use id="zoomminus" xlink:href="#zoomMin" x="42" y="9" onmousedown="handleZoom(evt,'out')"/>
                <use id="reset" xlink:href="#resetDef" x="30" y="36" onmousedown="handleReset()"/>
                <g id="arrowUp" xlink:href="#dirArrow" transform="translate(30 24)" onmousedown="handlePan(0,-1)">
                  <use xlink:href="#rim" fill="#404040">
                        <set attributeName="fill" to="#808080" begin="arrowUp.mouseover" end="arrowUp.mouseout"/>
                  </use>
                  <path fill="none" stroke="white" stroke-width="1.5" d="M0,-3.0v7 M-2.5,-0.5L0,-3.0L2.5,-0.5"/>
                </g>
                <g id="arrowRight" xlink:href="#dirArrow" transform="rotate(90) translate(36 -43)" onmousedown="handlePan(1,0)">
                  <use xlink:href="#rim" fill="#404040">
                        <set attributeName="fill" to="#808080" begin="arrowRight.mouseover" end="arrowRight.mouseout"/>
                  </use>
                  <path fill="none" stroke="white" stroke-width="1.5" d="M0,-3.0v7 M-2.5,-0.5L0,-3.0L2.5,-0.5"/>
                </g>
                <g id="arrowDown" xlink:href="#dirArrow" transform="rotate(180) translate(-30 -48)" onmousedown="handlePan(0,1)">
                  <use xlink:href="#rim" fill="#404040">
                        <set attributeName="fill" to="#808080" begin="arrowDown.mouseover" end="arrowDown.mouseout"/>
                  </use>
                  <path fill="none" stroke="white" stroke-width="1.5" d="M0,-3.0v7 M-2.5,-0.5L0,-3.0L2.5,-0.5"/>
                </g>
                <g id="arrowLeft" xlink:href="#dirArrow" transform="rotate(270) translate(-36 17)" onmousedown="handlePan(-1,0)">
                  <use xlink:href="#rim" fill="#404040">
                        <set attributeName="fill" to="#808080" begin="arrowLeft.mouseover" end="arrowLeft.mouseout"/>
                  </use>
                  <path fill="none" stroke="white" stroke-width="1.5" d="M0,-3.0v7 M-2.5,-0.5L0,-3.0L2.5,-0.5"/>
                </g>
        </g>
        <svg viewBox="0 0 15 15" width="100%" height="30px" preserveAspectRatio="xMaxYMin meet">
         <g id="arrow_out" transform="scale(0.3 0.3)">
          <a xlink:href="namespacegrid_ace8ea960868faf40cf79d5303f881ed8_icgraph_org.svg" target="_base">
           <rect id="button" ry="5" rx="5" y="6" x="6" height="38" width="38"
                fill="#f2f5e9" fill-opacity="0.5" stroke="#606060" stroke-width="1.0"/>
           <path id="arrow"
             d="M 11.500037,31.436501 C 11.940474,20.09759 22.043105,11.32322 32.158766,21.979434 L 37.068811,17.246167 C 37.068811,17.246167 37.088388,32 37.088388,32 L 22.160133,31.978069 C 22.160133,31.978069 26.997745,27.140456 26.997745,27.140456 C 18.528582,18.264221 13.291696,25.230495 11.500037,31.436501 z"
             style="fill:#404040;"/>
          </a>
         </g>
        </svg>
</svg>
