<?xml version="1.0" encoding="UTF-8" standalone="no"?>
<!DOCTYPE svg PUBLIC "-//W3C//DTD SVG 1.1//EN"
 "http://www.w3.org/Graphics/SVG/1.1/DTD/svg11.dtd">
<!-- Generated by graphviz version 2.38.0 (20140413.2041)
 -->
<!-- Title: mass_balance__soil::calculate_soil_mass_balance Pages: 1 -->
<svg width="546pt" height="50pt"
 viewBox="0.00 0.00 545.63 50.00" xmlns="http://www.w3.org/2000/svg" xmlns:xlink="http://www.w3.org/1999/xlink">
<g id="graph0" class="graph" transform="scale(1 1) rotate(0) translate(4 46)">
<title>mass_balance__soil::calculate_soil_mass_balance</title>
<polygon fill="white" stroke="none" points="-4,4 -4,-46 541.632,-46 541.632,4 -4,4"/>
<!-- Node1 -->
<g id="node1" class="node"><title>Node1</title>
<polygon fill="#bfbfbf" stroke="black" points="0,-0.5 0,-41.5 120.548,-41.5 120.548,-0.5 0,-0.5"/>
<text text-anchor="start" x="8" y="-28.7" font-family="Helvetica,sans-Serif" font-size="11.00">mass_balance__soil</text>
<text text-anchor="start" x="8" y="-17.7" font-family="Helvetica,sans-Serif" font-size="11.00">::calculate_soil_mass</text>
<text text-anchor="middle" x="60.2742" y="-6.7" font-family="Helvetica,sans-Serif" font-size="11.00">_balance</text>
</g>
<!-- Node2 -->
<g id="node2" class="node"><title>Node2</title>
<g id="a_node2"><a xlink:href="namespacedaily__calculation.html#ac74b5b0ab616d2c459e1668bc36c1784" target="_top" xlink:title="daily_calculation::\lperform_daily_calculation">
<polygon fill="white" stroke="black" points="156.548,-6 156.548,-36 297.281,-36 297.281,-6 156.548,-6"/>
<text text-anchor="start" x="164.548" y="-23.2" font-family="Helvetica,sans-Serif" font-size="11.00">daily_calculation::</text>
<text text-anchor="middle" x="226.915" y="-12.2" font-family="Helvetica,sans-Serif" font-size="11.00">perform_daily_calculation</text>
</a>
</g>
</g>
<!-- Node1&#45;&gt;Node2 -->
<g id="edge1" class="edge"><title>Node1&#45;&gt;Node2</title>
<path fill="none" stroke="midnightblue" d="M130.918,-21C139.379,-21 148.022,-21 156.48,-21"/>
<polygon fill="midnightblue" stroke="midnightblue" points="130.713,-17.5001 120.713,-21 130.713,-24.5001 130.713,-17.5001"/>
</g>
<!-- Node3 -->
<g id="node3" class="node"><title>Node3</title>
<g id="a_node3"><a xlink:href="namespacemodel__iterate.html#a05e7db04d04d173186649ed80748a6a8" target="_top" xlink:title="model_iterate::iterate\l_over_simulation_days">
<polygon fill="white" stroke="black" points="333.281,-6 333.281,-36 461.79,-36 461.79,-6 333.281,-6"/>
<text text-anchor="start" x="341.281" y="-23.2" font-family="Helvetica,sans-Serif" font-size="11.00">model_iterate::iterate</text>
<text text-anchor="middle" x="397.535" y="-12.2" font-family="Helvetica,sans-Serif" font-size="11.00">_over_simulation_days</text>
</a>
</g>
</g>
<!-- Node2&#45;&gt;Node3 -->
<g id="edge2" class="edge"><title>Node2&#45;&gt;Node3</title>
<path fill="none" stroke="midnightblue" d="M307.497,-21C316.079,-21 324.727,-21 333.084,-21"/>
<polygon fill="midnightblue" stroke="midnightblue" points="307.473,-17.5001 297.473,-21 307.473,-24.5001 307.473,-17.5001"/>
</g>
<!-- Node4 -->
<g id="node4" class="node"><title>Node4</title>
<g id="a_node4"><a xlink:href="main_8F90.html#a8ec2266d83cd6c0b762cbcbc92c0af3d" target="_top" xlink:title="Main program which references all other modules; execution begins here. ">
<polygon fill="white" stroke="black" points="497.79,-11.5 497.79,-30.5 537.632,-30.5 537.632,-11.5 497.79,-11.5"/>
<text text-anchor="middle" x="517.711" y="-17.7" font-family="Helvetica,sans-Serif" font-size="11.00">main</text>
</a>
</g>
</g>
<!-- Node3&#45;&gt;Node4 -->
<g id="edge3" class="edge"><title>Node3&#45;&gt;Node4</title>
<path fill="none" stroke="midnightblue" d="M472.372,-21C481.675,-21 490.457,-21 497.713,-21"/>
<polygon fill="midnightblue" stroke="midnightblue" points="472.12,-17.5001 462.12,-21 472.12,-24.5001 472.12,-17.5001"/>
</g>
</g>
</svg>
