<?xml version="1.0" encoding="UTF-8" standalone="no"?>
<!DOCTYPE svg PUBLIC "-//W3C//DTD SVG 1.1//EN"
 "http://www.w3.org/Graphics/SVG/1.1/DTD/svg11.dtd">
<!-- Generated by graphviz version 2.38.0 (20140413.2041)
 -->
<!-- Title: netcdf4_support::nf_set_standard_attributes Pages: 1 -->
<!--zoomable 100 -->
<svg id="main" version="1.1" xmlns="http://www.w3.org/2000/svg" xmlns:xlink="http://www.w3.org/1999/xlink" xml:space="preserve" onload="init(evt)">
<style type="text/css"><![CDATA[
.edge:hover path { stroke: red; }
.edge:hover polygon { stroke: red; fill: red; }
]]></style>
<script type="text/javascript"><![CDATA[
var edges = document.getElementsByTagName('g');
if (edges && edges.length) {
  for (var i=0;i<edges.length;i++) {
    if (edges[i].id.substr(0,4)=='edge') {
      edges[i].setAttribute('class','edge');
    }
  }
}
]]></script>
        <defs>
                <circle id="rim" cx="0" cy="0" r="7"/>
                <circle id="rim2" cx="0" cy="0" r="3.5"/>
                <g id="zoomPlus">
                        <use xlink:href="#rim" fill="#404040">
                                <set attributeName="fill" to="#808080" begin="zoomplus.mouseover" end="zoomplus.mouseout"/>
                        </use>
                        <path d="M-4,0h8M0,-4v8" fill="none" stroke="white" stroke-width="1.5" pointer-events="none"/>
                </g>
                <g id="zoomMin">
                        <use xlink:href="#rim" fill="#404040">
                                <set attributeName="fill" to="#808080" begin="zoomminus.mouseover" end="zoomminus.mouseout"/>
                        </use>
                        <path d="M-4,0h8" fill="none" stroke="white" stroke-width="1.5" pointer-events="none"/>
                </g>
                <g id="dirArrow">
                        <path fill="none" stroke="white" stroke-width="1.5" d="M0,-3.0v7 M-2.5,-0.5L0,-3.0L2.5,-0.5"/>
                </g>
               <g id="resetDef">
                       <use xlink:href="#rim2" fill="#404040">
                               <set attributeName="fill" to="#808080" begin="reset.mouseover" end="reset.mouseout"/>
                       </use>
               </g>
        </defs>

<script type="text/javascript">
var viewWidth = 908;
var viewHeight = 100;
var sectionId = 'dynsection-89';
</script>
<script xlink:href="svgpan.js"/>
<svg id="graph" class="graph">
<g id="viewport">
<title>netcdf4_support::nf_set_standard_attributes</title>
<polygon fill="white" stroke="none" points="-4,4 -4,-95.5 903.737,-95.5 903.737,4 -4,4"/>
<!-- Node645 -->
<g id="node1" class="node"><title>Node645</title>
<polygon fill="#bfbfbf" stroke="black" points="0,-33 0,-63 137.081,-63 137.081,-33 0,-33"/>
<text text-anchor="start" x="8" y="-50.2" font-family="Helvetica,sans-Serif" font-size="11.00">netcdf4_support::nf</text>
<text text-anchor="middle" x="68.5403" y="-39.2" font-family="Helvetica,sans-Serif" font-size="11.00">_set_standard_attributes</text>
</g>
<!-- Node646 -->
<g id="node2" class="node"><title>Node646</title>
<g id="a_node2"><a xlink:href="namespacenetcdf4__support.html#a4bc9b9f951c1dc1cc1f50ba727794071" target="_top" xlink:title="netcdf4_support::netcdf\l_open_and_prepare_as_output">
<polygon fill="white" stroke="black" points="173.081,-61 173.081,-91 342.608,-91 342.608,-61 173.081,-61"/>
<text text-anchor="start" x="181.081" y="-78.2" font-family="Helvetica,sans-Serif" font-size="11.00">netcdf4_support::netcdf</text>
<text text-anchor="middle" x="257.844" y="-67.2" font-family="Helvetica,sans-Serif" font-size="11.00">_open_and_prepare_as_output</text>
</a>
</g>
</g>
<!-- Node645&#45;&gt;Node646 -->
<g id="edge1" class="edge"><title>Node645&#45;&gt;Node646</title>
<path fill="none" stroke="midnightblue" d="M147.096,-59.5937C155.645,-60.8718 164.38,-62.1775 173.002,-63.4665"/>
<polygon fill="midnightblue" stroke="midnightblue" points="147.569,-56.1257 137.161,-58.1086 146.534,-63.0487 147.569,-56.1257"/>
</g>
<!-- Node650 -->
<g id="node6" class="node"><title>Node650</title>
<g id="a_node6"><a xlink:href="namespacenetcdf4__support.html#a6c0e12debd35545980fa63ade1094e93" target="_top" xlink:title="netcdf4_support::netcdf\l_open_and_prepare_as_output\l_archive">
<polygon fill="white" stroke="black" points="173.081,-0.5 173.081,-41.5 342.608,-41.5 342.608,-0.5 173.081,-0.5"/>
<text text-anchor="start" x="181.081" y="-28.7" font-family="Helvetica,sans-Serif" font-size="11.00">netcdf4_support::netcdf</text>
<text text-anchor="start" x="181.081" y="-17.7" font-family="Helvetica,sans-Serif" font-size="11.00">_open_and_prepare_as_output</text>
<text text-anchor="middle" x="257.844" y="-6.7" font-family="Helvetica,sans-Serif" font-size="11.00">_archive</text>
</a>
</g>
</g>
<!-- Node645&#45;&gt;Node650 -->
<g id="edge5" class="edge"><title>Node645&#45;&gt;Node650</title>
<path fill="none" stroke="midnightblue" d="M147.096,-36.8203C155.645,-35.5879 164.38,-34.3288 173.002,-33.0859"/>
<polygon fill="midnightblue" stroke="midnightblue" points="146.56,-33.3613 137.161,-38.2524 147.558,-40.2897 146.56,-33.3613"/>
</g>
<!-- Node647 -->
<g id="node3" class="node"><title>Node647</title>
<g id="a_node3"><a xlink:href="namespacefog____monthly__grid.html#a8e7386e0dfea998459a45c270e0afecc" target="_top" xlink:title="Initialize the fog drip algorithm. ">
<polygon fill="white" stroke="black" points="378.608,-61 378.608,-91 524.239,-91 524.239,-61 378.608,-61"/>
<text text-anchor="start" x="386.608" y="-78.2" font-family="Helvetica,sans-Serif" font-size="11.00">fog__monthly_grid::</text>
<text text-anchor="middle" x="451.424" y="-67.2" font-family="Helvetica,sans-Serif" font-size="11.00">fog_monthly_grid_initialize</text>
</a>
</g>
</g>
<!-- Node646&#45;&gt;Node647 -->
<g id="edge2" class="edge"><title>Node646&#45;&gt;Node647</title>
<path fill="none" stroke="midnightblue" d="M352.925,-76C361.508,-76 370.11,-76 378.454,-76"/>
<polygon fill="midnightblue" stroke="midnightblue" points="352.874,-72.5001 342.874,-76 352.874,-79.5001 352.874,-72.5001"/>
</g>
<!-- Node648 -->
<g id="node4" class="node"><title>Node648</title>
<g id="a_node4"><a xlink:href="namespacemodel__domain.html#ad24a97a20a893d728e39930306e8b1d4" target="_top" xlink:title="model_domain::model\l_initialize_fog_monthly_grid">
<polygon fill="white" stroke="black" points="560.239,-61 560.239,-91 711.988,-91 711.988,-61 560.239,-61"/>
<text text-anchor="start" x="568.239" y="-78.2" font-family="Helvetica,sans-Serif" font-size="11.00">model_domain::model</text>
<text text-anchor="middle" x="636.114" y="-67.2" font-family="Helvetica,sans-Serif" font-size="11.00">_initialize_fog_monthly_grid</text>
</a>
</g>
</g>
<!-- Node647&#45;&gt;Node648 -->
<g id="edge3" class="edge"><title>Node647&#45;&gt;Node648</title>
<path fill="none" stroke="midnightblue" d="M534.395,-76C542.999,-76 551.715,-76 560.233,-76"/>
<polygon fill="midnightblue" stroke="midnightblue" points="534.365,-72.5001 524.365,-76 534.365,-79.5001 534.365,-72.5001"/>
</g>
<!-- Node649 -->
<g id="node5" class="node"><title>Node649</title>
<g id="a_node5"><a xlink:href="namespacemodel__domain.html#aac78dbf26ba37cf86ebed4edd7acf89b" target="_top" xlink:title="model_domain::set_method\l_pointers_sub">
<polygon fill="white" stroke="black" points="747.988,-61 747.988,-91 899.737,-91 899.737,-61 747.988,-61"/>
<text text-anchor="start" x="755.988" y="-78.2" font-family="Helvetica,sans-Serif" font-size="11.00">model_domain::set_method</text>
<text text-anchor="middle" x="823.863" y="-67.2" font-family="Helvetica,sans-Serif" font-size="11.00">_pointers_sub</text>
</a>
</g>
</g>
<!-- Node648&#45;&gt;Node649 -->
<g id="edge4" class="edge"><title>Node648&#45;&gt;Node649</title>
<path fill="none" stroke="midnightblue" d="M722.146,-76C730.729,-76 739.402,-76 747.869,-76"/>
<polygon fill="midnightblue" stroke="midnightblue" points="722.13,-72.5001 712.13,-76 722.13,-79.5001 722.13,-72.5001"/>
</g>
<!-- Node651 -->
<g id="node7" class="node"><title>Node651</title>
<g id="a_node7"><a xlink:href="namespacedata__catalog__entry.html#a3ea40e0b58c61d01a18065ea3c1b4fcd" target="_top" xlink:title="data_catalog_entry\l::put_values_to_local\l_netcdf_sub">
<polygon fill="white" stroke="black" points="391.748,-0.5 391.748,-41.5 511.099,-41.5 511.099,-0.5 391.748,-0.5"/>
<text text-anchor="start" x="399.748" y="-28.7" font-family="Helvetica,sans-Serif" font-size="11.00">data_catalog_entry</text>
<text text-anchor="start" x="399.748" y="-17.7" font-family="Helvetica,sans-Serif" font-size="11.00">::put_values_to_local</text>
<text text-anchor="middle" x="451.424" y="-6.7" font-family="Helvetica,sans-Serif" font-size="11.00">_netcdf_sub</text>
</a>
</g>
</g>
<!-- Node650&#45;&gt;Node651 -->
<g id="edge6" class="edge"><title>Node650&#45;&gt;Node651</title>
<path fill="none" stroke="midnightblue" d="M352.901,-21C366.047,-21 379.235,-21 391.477,-21"/>
<polygon fill="midnightblue" stroke="midnightblue" points="352.874,-17.5001 342.874,-21 352.874,-24.5001 352.874,-17.5001"/>
</g>
</g>
</svg>
        <g id="navigator" transform="translate(0 0)" fill="#404254">
                <rect fill="#f2f5e9" fill-opacity="0.5" stroke="#606060" stroke-width=".5" x="0" y="0" width="60" height="60"/>
                <use id="zoomplus" xlink:href="#zoomPlus" x="17" y="9" onmousedown="handleZoom(evt,'in')"/>
                <use id="zoomminus" xlink:href="#zoomMin" x="42" y="9" onmousedown="handleZoom(evt,'out')"/>
                <use id="reset" xlink:href="#resetDef" x="30" y="36" onmousedown="handleReset()"/>
                <g id="arrowUp" xlink:href="#dirArrow" transform="translate(30 24)" onmousedown="handlePan(0,-1)">
                  <use xlink:href="#rim" fill="#404040">
                        <set attributeName="fill" to="#808080" begin="arrowUp.mouseover" end="arrowUp.mouseout"/>
                  </use>
                  <path fill="none" stroke="white" stroke-width="1.5" d="M0,-3.0v7 M-2.5,-0.5L0,-3.0L2.5,-0.5"/>
                </g>
                <g id="arrowRight" xlink:href="#dirArrow" transform="rotate(90) translate(36 -43)" onmousedown="handlePan(1,0)">
                  <use xlink:href="#rim" fill="#404040">
                        <set attributeName="fill" to="#808080" begin="arrowRight.mouseover" end="arrowRight.mouseout"/>
                  </use>
                  <path fill="none" stroke="white" stroke-width="1.5" d="M0,-3.0v7 M-2.5,-0.5L0,-3.0L2.5,-0.5"/>
                </g>
                <g id="arrowDown" xlink:href="#dirArrow" transform="rotate(180) translate(-30 -48)" onmousedown="handlePan(0,1)">
                  <use xlink:href="#rim" fill="#404040">
                        <set attributeName="fill" to="#808080" begin="arrowDown.mouseover" end="arrowDown.mouseout"/>
                  </use>
                  <path fill="none" stroke="white" stroke-width="1.5" d="M0,-3.0v7 M-2.5,-0.5L0,-3.0L2.5,-0.5"/>
                </g>
                <g id="arrowLeft" xlink:href="#dirArrow" transform="rotate(270) translate(-36 17)" onmousedown="handlePan(-1,0)">
                  <use xlink:href="#rim" fill="#404040">
                        <set attributeName="fill" to="#808080" begin="arrowLeft.mouseover" end="arrowLeft.mouseout"/>
                  </use>
                  <path fill="none" stroke="white" stroke-width="1.5" d="M0,-3.0v7 M-2.5,-0.5L0,-3.0L2.5,-0.5"/>
                </g>
        </g>
        <svg viewBox="0 0 15 15" width="100%" height="30px" preserveAspectRatio="xMaxYMin meet">
         <g id="arrow_out" transform="scale(0.3 0.3)">
          <a xlink:href="namespacenetcdf4__support_adfc0607f2466530b3171b1428e5f4d7b_icgraph_org.svg" target="_base">
           <rect id="button" ry="5" rx="5" y="6" x="6" height="38" width="38"
                fill="#f2f5e9" fill-opacity="0.5" stroke="#606060" stroke-width="1.0"/>
           <path id="arrow"
             d="M 11.500037,31.436501 C 11.940474,20.09759 22.043105,11.32322 32.158766,21.979434 L 37.068811,17.246167 C 37.068811,17.246167 37.088388,32 37.088388,32 L 22.160133,31.978069 C 22.160133,31.978069 26.997745,27.140456 26.997745,27.140456 C 18.528582,18.264221 13.291696,25.230495 11.500037,31.436501 z"
             style="fill:#404040;"/>
          </a>
         </g>
        </svg>
</svg>
