<?xml version="1.0" encoding="UTF-8" standalone="no"?>
<!DOCTYPE svg PUBLIC "-//W3C//DTD SVG 1.1//EN"
 "http://www.w3.org/Graphics/SVG/1.1/DTD/svg11.dtd">
<!-- Generated by graphviz version 2.38.0 (20140413.2041)
 -->
<!-- Title: model_domain::model_calculate_interception_bucket Pages: 1 -->
<svg width="324pt" height="50pt"
 viewBox="0.00 0.00 324.27 50.00" xmlns="http://www.w3.org/2000/svg" xmlns:xlink="http://www.w3.org/1999/xlink">
<g id="graph0" class="graph" transform="scale(1 1) rotate(0) translate(4 46)">
<title>model_domain::model_calculate_interception_bucket</title>
<polygon fill="white" stroke="none" points="-4,4 -4,-46 320.268,-46 320.268,4 -4,4"/>
<!-- Node180 -->
<g id="node1" class="node"><title>Node180</title>
<polygon fill="#bfbfbf" stroke="black" points="0,-0.5 0,-41.5 128.519,-41.5 128.519,-0.5 0,-0.5"/>
<text text-anchor="start" x="8" y="-28.7" font-family="Helvetica,sans-Serif" font-size="11.00">model_domain::model</text>
<text text-anchor="start" x="8" y="-17.7" font-family="Helvetica,sans-Serif" font-size="11.00">_calculate_interception</text>
<text text-anchor="middle" x="64.2595" y="-6.7" font-family="Helvetica,sans-Serif" font-size="11.00">_bucket</text>
</g>
<!-- Node181 -->
<g id="node2" class="node"><title>Node181</title>
<g id="a_node2"><a xlink:href="namespacemodel__domain.html#aac78dbf26ba37cf86ebed4edd7acf89b" target="_top" xlink:title="model_domain::set_method\l_pointers_sub">
<polygon fill="white" stroke="black" points="164.519,-6 164.519,-36 316.268,-36 316.268,-6 164.519,-6"/>
<text text-anchor="start" x="172.519" y="-23.2" font-family="Helvetica,sans-Serif" font-size="11.00">model_domain::set_method</text>
<text text-anchor="middle" x="240.394" y="-12.2" font-family="Helvetica,sans-Serif" font-size="11.00">_pointers_sub</text>
</a>
</g>
</g>
<!-- Node180&#45;&gt;Node181 -->
<g id="edge1" class="edge"><title>Node180&#45;&gt;Node181</title>
<path fill="none" stroke="midnightblue" d="M138.783,-21C147.205,-21 155.8,-21 164.243,-21"/>
<polygon fill="midnightblue" stroke="midnightblue" points="138.619,-17.5001 128.618,-21 138.618,-24.5001 138.619,-17.5001"/>
</g>
</g>
</svg>
