<?xml version="1.0" encoding="UTF-8" standalone="no"?>
<!DOCTYPE svg PUBLIC "-//W3C//DTD SVG 1.1//EN"
 "http://www.w3.org/Graphics/SVG/1.1/DTD/svg11.dtd">
<!-- Generated by graphviz version 2.38.0 (20140413.2041)
 -->
<!-- Title: meteorological_calculations::equivalent_evaporation Pages: 1 -->
<svg width="703pt" height="39pt"
 viewBox="0.00 0.00 702.82 39.00" xmlns="http://www.w3.org/2000/svg" xmlns:xlink="http://www.w3.org/1999/xlink">
<g id="graph0" class="graph" transform="scale(1 1) rotate(0) translate(4 35)">
<title>meteorological_calculations::equivalent_evaporation</title>
<polygon fill="white" stroke="none" points="-4,4 -4,-35 698.822,-35 698.822,4 -4,4"/>
<!-- Node1 -->
<g id="node1" class="node"><title>Node1</title>
<polygon fill="#bfbfbf" stroke="black" points="0,-0.5 0,-30.5 151.131,-30.5 151.131,-0.5 0,-0.5"/>
<text text-anchor="start" x="8" y="-17.7" font-family="Helvetica,sans-Serif" font-size="11.00">meteorological_calculations</text>
<text text-anchor="middle" x="75.5657" y="-6.7" font-family="Helvetica,sans-Serif" font-size="11.00">::equivalent_evaporation</text>
</g>
<!-- Node2 -->
<g id="node2" class="node"><title>Node2</title>
<g id="a_node2"><a xlink:href="namespaceet____hargreaves__samani.html#a7e98ab45c36ffcbbd21626348162801c" target="_top" xlink:title="et__hargreaves_samani\l::et_hargreaves_calculate">
<polygon fill="white" stroke="black" points="187.131,-0.5 187.131,-30.5 329.1,-30.5 329.1,-0.5 187.131,-0.5"/>
<text text-anchor="start" x="195.131" y="-17.7" font-family="Helvetica,sans-Serif" font-size="11.00">et__hargreaves_samani</text>
<text text-anchor="middle" x="258.115" y="-6.7" font-family="Helvetica,sans-Serif" font-size="11.00">::et_hargreaves_calculate</text>
</a>
</g>
</g>
<!-- Node1&#45;&gt;Node2 -->
<g id="edge1" class="edge"><title>Node1&#45;&gt;Node2</title>
<path fill="none" stroke="midnightblue" d="M161.36,-15.5C169.967,-15.5 178.641,-15.5 187.067,-15.5"/>
<polygon fill="midnightblue" stroke="midnightblue" points="161.306,-12.0001 151.305,-15.5 161.305,-19.0001 161.306,-12.0001"/>
</g>
<!-- Node3 -->
<g id="node3" class="node"><title>Node3</title>
<g id="a_node3"><a xlink:href="namespacemodel__domain.html#a37864c313f4ed6b63b5e90f4ef3f2e1f" target="_top" xlink:title="model_domain::model\l_calculate_et_hargreaves">
<polygon fill="white" stroke="black" points="365.1,-0.5 365.1,-30.5 507.073,-30.5 507.073,-0.5 365.1,-0.5"/>
<text text-anchor="start" x="373.1" y="-17.7" font-family="Helvetica,sans-Serif" font-size="11.00">model_domain::model</text>
<text text-anchor="middle" x="436.086" y="-6.7" font-family="Helvetica,sans-Serif" font-size="11.00">_calculate_et_hargreaves</text>
</a>
</g>
</g>
<!-- Node2&#45;&gt;Node3 -->
<g id="edge2" class="edge"><title>Node2&#45;&gt;Node3</title>
<path fill="none" stroke="midnightblue" d="M339.203,-15.5C347.807,-15.5 356.512,-15.5 364.986,-15.5"/>
<polygon fill="midnightblue" stroke="midnightblue" points="339.17,-12.0001 329.169,-15.5 339.169,-19.0001 339.17,-12.0001"/>
</g>
<!-- Node4 -->
<g id="node4" class="node"><title>Node4</title>
<g id="a_node4"><a xlink:href="namespacemodel__domain.html#aac78dbf26ba37cf86ebed4edd7acf89b" target="_top" xlink:title="model_domain::set_method\l_pointers_sub">
<polygon fill="white" stroke="black" points="543.073,-0.5 543.073,-30.5 694.822,-30.5 694.822,-0.5 543.073,-0.5"/>
<text text-anchor="start" x="551.073" y="-17.7" font-family="Helvetica,sans-Serif" font-size="11.00">model_domain::set_method</text>
<text text-anchor="middle" x="618.948" y="-6.7" font-family="Helvetica,sans-Serif" font-size="11.00">_pointers_sub</text>
</a>
</g>
</g>
<!-- Node3&#45;&gt;Node4 -->
<g id="edge3" class="edge"><title>Node3&#45;&gt;Node4</title>
<path fill="none" stroke="midnightblue" d="M517.531,-15.5C526.007,-15.5 534.602,-15.5 543.013,-15.5"/>
<polygon fill="midnightblue" stroke="midnightblue" points="517.271,-12.0001 507.271,-15.5 517.271,-19.0001 517.271,-12.0001"/>
</g>
</g>
</svg>
