<?xml version="1.0" encoding="UTF-8" standalone="no"?>
<!DOCTYPE svg PUBLIC "-//W3C//DTD SVG 1.1//EN"
 "http://www.w3.org/Graphics/SVG/1.1/DTD/svg11.dtd">
<!-- Generated by graphviz version 2.38.0 (20140413.2041)
 -->
<!-- Title: model_domain::model_calculate_et_jensen_haise Pages: 1 -->
<svg width="348pt" height="39pt"
 viewBox="0.00 0.00 347.52 39.00" xmlns="http://www.w3.org/2000/svg" xmlns:xlink="http://www.w3.org/1999/xlink">
<g id="graph0" class="graph" transform="scale(1 1) rotate(0) translate(4 35)">
<title>model_domain::model_calculate_et_jensen_haise</title>
<polygon fill="white" stroke="none" points="-4,4 -4,-35 343.52,-35 343.52,4 -4,4"/>
<!-- Node280 -->
<g id="node1" class="node"><title>Node280</title>
<polygon fill="#bfbfbf" stroke="black" points="0,-0.5 0,-30.5 151.771,-30.5 151.771,-0.5 0,-0.5"/>
<text text-anchor="start" x="8" y="-17.7" font-family="Helvetica,sans-Serif" font-size="11.00">model_domain::model</text>
<text text-anchor="middle" x="75.8853" y="-6.7" font-family="Helvetica,sans-Serif" font-size="11.00">_calculate_et_jensen_haise</text>
</g>
<!-- Node281 -->
<g id="node2" class="node"><title>Node281</title>
<g id="a_node2"><a xlink:href="namespacemodel__domain.html#aac78dbf26ba37cf86ebed4edd7acf89b" target="_top" xlink:title="model_domain::set_method\l_pointers_sub">
<polygon fill="white" stroke="black" points="187.771,-0.5 187.771,-30.5 339.52,-30.5 339.52,-0.5 187.771,-0.5"/>
<text text-anchor="start" x="195.771" y="-17.7" font-family="Helvetica,sans-Serif" font-size="11.00">model_domain::set_method</text>
<text text-anchor="middle" x="263.645" y="-6.7" font-family="Helvetica,sans-Serif" font-size="11.00">_pointers_sub</text>
</a>
</g>
</g>
<!-- Node280&#45;&gt;Node281 -->
<g id="edge1" class="edge"><title>Node280&#45;&gt;Node281</title>
<path fill="none" stroke="midnightblue" d="M161.923,-15.5C170.506,-15.5 179.179,-15.5 187.647,-15.5"/>
<polygon fill="midnightblue" stroke="midnightblue" points="161.905,-12.0001 151.905,-15.5 161.905,-19.0001 161.905,-12.0001"/>
</g>
</g>
</svg>
