<?xml version="1.0" encoding="UTF-8" standalone="no"?>
<!DOCTYPE svg PUBLIC "-//W3C//DTD SVG 1.1//EN"
 "http://www.w3.org/Graphics/SVG/1.1/DTD/svg11.dtd">
<!-- Generated by graphviz version 2.38.0 (20140413.2041)
 -->
<!-- Title: model_domain::model_initialize_direct_soil_moisture_gridded Pages: 1 -->
<svg width="435pt" height="50pt"
 viewBox="0.00 0.00 434.94 50.00" xmlns="http://www.w3.org/2000/svg" xmlns:xlink="http://www.w3.org/1999/xlink">
<g id="graph0" class="graph" transform="scale(1 1) rotate(0) translate(4 46)">
<title>model_domain::model_initialize_direct_soil_moisture_gridded</title>
<polygon fill="white" stroke="none" points="-4,4 -4,-46 430.937,-46 430.937,4 -4,4"/>
<!-- Node425 -->
<g id="node1" class="node"><title>Node425</title>
<polygon fill="#bfbfbf" stroke="black" points="0,-0.5 0,-41.5 124.228,-41.5 124.228,-0.5 0,-0.5"/>
<text text-anchor="start" x="8" y="-28.7" font-family="Helvetica,sans-Serif" font-size="11.00">model_domain::model</text>
<text text-anchor="start" x="8" y="-17.7" font-family="Helvetica,sans-Serif" font-size="11.00">_initialize_direct_soil</text>
<text text-anchor="middle" x="62.1138" y="-6.7" font-family="Helvetica,sans-Serif" font-size="11.00">_moisture_gridded</text>
</g>
<!-- Node426 -->
<g id="node2" class="node"><title>Node426</title>
<g id="a_node2"><a xlink:href="namespacedirect__soil__moisture____gridded__data.html#ac0f17d28e297cf4148454928320e5515" target="_top" xlink:title="Initialize the routine to enable input/output of arbitrary sources/sink terms to be added directly to...">
<polygon fill="white" stroke="black" points="160.228,-0.5 160.228,-41.5 292.394,-41.5 292.394,-0.5 160.228,-0.5"/>
<text text-anchor="start" x="168.228" y="-28.7" font-family="Helvetica,sans-Serif" font-size="11.00">direct_soil_moisture</text>
<text text-anchor="start" x="168.228" y="-17.7" font-family="Helvetica,sans-Serif" font-size="11.00">__gridded_data::direct</text>
<text text-anchor="middle" x="226.311" y="-6.7" font-family="Helvetica,sans-Serif" font-size="11.00">_soil_moisture_initialize</text>
</a>
</g>
</g>
<!-- Node425&#45;&gt;Node426 -->
<g id="edge1" class="edge"><title>Node425&#45;&gt;Node426</title>
<path fill="none" stroke="midnightblue" d="M124.433,-21C132.816,-21 141.498,-21 150.092,-21"/>
<polygon fill="midnightblue" stroke="midnightblue" points="150.117,-24.5001 160.117,-21 150.117,-17.5001 150.117,-24.5001"/>
</g>
<!-- Node427 -->
<g id="node3" class="node"><title>Node427</title>
<g id="a_node3"><a xlink:href="namespaceexceptions.html#a84dd04476b06e0a398bfe6d106a82a4d" target="_top" xlink:title="exceptions::warn">
<polygon fill="white" stroke="black" points="328.394,-11.5 328.394,-30.5 426.937,-30.5 426.937,-11.5 328.394,-11.5"/>
<text text-anchor="middle" x="377.665" y="-17.7" font-family="Helvetica,sans-Serif" font-size="11.00">exceptions::warn</text>
</a>
</g>
</g>
<!-- Node426&#45;&gt;Node427 -->
<g id="edge2" class="edge"><title>Node426&#45;&gt;Node427</title>
<path fill="none" stroke="midnightblue" d="M292.82,-21C301.289,-21 309.919,-21 318.263,-21"/>
<polygon fill="midnightblue" stroke="midnightblue" points="318.271,-24.5001 328.271,-21 318.271,-17.5001 318.271,-24.5001"/>
</g>
</g>
</svg>
