<?xml version="1.0" encoding="UTF-8" standalone="no"?>
<!DOCTYPE svg PUBLIC "-//W3C//DTD SVG 1.1//EN"
 "http://www.w3.org/Graphics/SVG/1.1/DTD/svg11.dtd">
<!-- Generated by graphviz version 2.38.0 (20140413.2041)
 -->
<!-- Title: model_domain::model_calculate_direct_recharge_gridded Pages: 1 -->
<svg width="344pt" height="50pt"
 viewBox="0.00 0.00 343.83 50.00" xmlns="http://www.w3.org/2000/svg" xmlns:xlink="http://www.w3.org/1999/xlink">
<g id="graph0" class="graph" transform="scale(1 1) rotate(0) translate(4 46)">
<title>model_domain::model_calculate_direct_recharge_gridded</title>
<polygon fill="white" stroke="none" points="-4,4 -4,-46 339.83,-46 339.83,4 -4,4"/>
<!-- Node419 -->
<g id="node1" class="node"><title>Node419</title>
<polygon fill="#bfbfbf" stroke="black" points="0,-0.5 0,-41.5 148.081,-41.5 148.081,-0.5 0,-0.5"/>
<text text-anchor="start" x="8" y="-28.7" font-family="Helvetica,sans-Serif" font-size="11.00">model_domain::model</text>
<text text-anchor="start" x="8" y="-17.7" font-family="Helvetica,sans-Serif" font-size="11.00">_calculate_direct_recharge</text>
<text text-anchor="middle" x="74.0403" y="-6.7" font-family="Helvetica,sans-Serif" font-size="11.00">_gridded</text>
</g>
<!-- Node420 -->
<g id="node2" class="node"><title>Node420</title>
<g id="a_node2"><a xlink:href="namespacemodel__domain.html#aac78dbf26ba37cf86ebed4edd7acf89b" target="_top" xlink:title="model_domain::set_method\l_pointers_sub">
<polygon fill="white" stroke="black" points="184.081,-6 184.081,-36 335.83,-36 335.83,-6 184.081,-6"/>
<text text-anchor="start" x="192.081" y="-23.2" font-family="Helvetica,sans-Serif" font-size="11.00">model_domain::set_method</text>
<text text-anchor="middle" x="259.955" y="-12.2" font-family="Helvetica,sans-Serif" font-size="11.00">_pointers_sub</text>
</a>
</g>
</g>
<!-- Node419&#45;&gt;Node420 -->
<g id="edge1" class="edge"><title>Node419&#45;&gt;Node420</title>
<path fill="none" stroke="midnightblue" d="M158.507,-21C166.966,-21 175.521,-21 183.884,-21"/>
<polygon fill="midnightblue" stroke="midnightblue" points="158.257,-17.5001 148.257,-21 158.257,-24.5001 158.257,-17.5001"/>
</g>
</g>
</svg>
