<?xml version="1.0" encoding="UTF-8" standalone="no"?>
<!DOCTYPE svg PUBLIC "-//W3C//DTD SVG 1.1//EN"
 "http://www.w3.org/Graphics/SVG/1.1/DTD/svg11.dtd">
<!-- Generated by graphviz version 2.38.0 (20140413.2041)
 -->
<!-- Title: netcdf4_support::netcdf_nullify_data_struct Pages: 1 -->
<svg width="294pt" height="39pt"
 viewBox="0.00 0.00 294.31 39.00" xmlns="http://www.w3.org/2000/svg" xmlns:xlink="http://www.w3.org/1999/xlink">
<g id="graph0" class="graph" transform="scale(1 1) rotate(0) translate(4 35)">
<title>netcdf4_support::netcdf_nullify_data_struct</title>
<polygon fill="white" stroke="none" points="-4,4 -4,-35 290.308,-35 290.308,4 -4,4"/>
<!-- Node301 -->
<g id="node1" class="node"><title>Node301</title>
<polygon fill="#bfbfbf" stroke="black" points="0,-0.5 0,-30.5 130.968,-30.5 130.968,-0.5 0,-0.5"/>
<text text-anchor="start" x="8" y="-17.7" font-family="Helvetica,sans-Serif" font-size="11.00">netcdf4_support::netcdf</text>
<text text-anchor="middle" x="65.4841" y="-6.7" font-family="Helvetica,sans-Serif" font-size="11.00">_nullify_data_struct</text>
</g>
<!-- Node302 -->
<g id="node2" class="node"><title>Node302</title>
<g id="a_node2"><a xlink:href="namespacedata__catalog__entry.html#a237d2408d68b3264a7cdf13a0a25de68" target="_top" xlink:title="data_catalog_entry\l::nullify_pointers_sub">
<polygon fill="white" stroke="black" points="166.968,-0.5 166.968,-30.5 286.308,-30.5 286.308,-0.5 166.968,-0.5"/>
<text text-anchor="start" x="174.968" y="-17.7" font-family="Helvetica,sans-Serif" font-size="11.00">data_catalog_entry</text>
<text text-anchor="middle" x="226.638" y="-6.7" font-family="Helvetica,sans-Serif" font-size="11.00">::nullify_pointers_sub</text>
</a>
</g>
</g>
<!-- Node301&#45;&gt;Node302 -->
<g id="edge1" class="edge"><title>Node301&#45;&gt;Node302</title>
<path fill="none" stroke="midnightblue" d="M141.249,-15.5C149.844,-15.5 158.514,-15.5 166.856,-15.5"/>
<polygon fill="midnightblue" stroke="midnightblue" points="141.218,-12.0001 131.218,-15.5 141.218,-19.0001 141.218,-12.0001"/>
</g>
</g>
</svg>
