<?xml version="1.0" encoding="UTF-8" standalone="no"?>
<!DOCTYPE svg PUBLIC "-//W3C//DTD SVG 1.1//EN"
 "http://www.w3.org/Graphics/SVG/1.1/DTD/svg11.dtd">
<!-- Generated by graphviz version 2.38.0 (20140413.2041)
 -->
<!-- Title: netcdf4_support::nf_populate_attribute_struct Pages: 1 -->
<svg width="495pt" height="83pt"
 viewBox="0.00 0.00 494.92 83.00" xmlns="http://www.w3.org/2000/svg" xmlns:xlink="http://www.w3.org/1999/xlink">
<g id="graph0" class="graph" transform="scale(1 1) rotate(0) translate(4 79)">
<title>netcdf4_support::nf_populate_attribute_struct</title>
<polygon fill="white" stroke="none" points="-4,4 -4,-79 490.921,-79 490.921,4 -4,4"/>
<!-- Node1 -->
<g id="node1" class="node"><title>Node1</title>
<polygon fill="#bfbfbf" stroke="black" points="0,-17 0,-58 110.188,-58 110.188,-17 0,-17"/>
<text text-anchor="start" x="8" y="-45.2" font-family="Helvetica,sans-Serif" font-size="11.00">netcdf4_support::nf</text>
<text text-anchor="start" x="8" y="-34.2" font-family="Helvetica,sans-Serif" font-size="11.00">_populate_attribute</text>
<text text-anchor="middle" x="55.0938" y="-23.2" font-family="Helvetica,sans-Serif" font-size="11.00">_struct</text>
</g>
<!-- Node2 -->
<g id="node2" class="node"><title>Node2</title>
<g id="a_node2"><a xlink:href="namespaceconstants__and__conversions.html#adeac78899e44bc3d58e26397fa64e4a7" target="_top" xlink:title="constants_and_conversions\l::c_to_fortran_string">
<polygon fill="white" stroke="black" points="146.188,-44.5 146.188,-74.5 298.554,-74.5 298.554,-44.5 146.188,-44.5"/>
<text text-anchor="start" x="154.188" y="-61.7" font-family="Helvetica,sans-Serif" font-size="11.00">constants_and_conversions</text>
<text text-anchor="middle" x="222.371" y="-50.7" font-family="Helvetica,sans-Serif" font-size="11.00">::c_to_fortran_string</text>
</a>
</g>
</g>
<!-- Node1&#45;&gt;Node2 -->
<g id="edge1" class="edge"><title>Node1&#45;&gt;Node2</title>
<path fill="none" stroke="midnightblue" d="M110.212,-44.7036C118.557,-45.8144 127.344,-46.9841 136.17,-48.159"/>
<polygon fill="midnightblue" stroke="midnightblue" points="135.756,-51.6346 146.13,-49.4848 136.68,-44.6958 135.756,-51.6346"/>
</g>
<!-- Node3 -->
<g id="node3" class="node"><title>Node3</title>
<g id="a_node3"><a xlink:href="namespacenetcdf4__support.html#ac8c7276a5849ae6d17ffef1787e3f234" target="_top" xlink:title="netcdf4_support::nf_trap">
<polygon fill="white" stroke="black" points="154.746,-6 154.746,-25 289.995,-25 289.995,-6 154.746,-6"/>
<text text-anchor="middle" x="222.371" y="-12.2" font-family="Helvetica,sans-Serif" font-size="11.00">netcdf4_support::nf_trap</text>
</a>
</g>
</g>
<!-- Node1&#45;&gt;Node3 -->
<g id="edge2" class="edge"><title>Node1&#45;&gt;Node3</title>
<path fill="none" stroke="midnightblue" d="M110.212,-30.2964C121.207,-28.8328 132.969,-27.2671 144.578,-25.7219"/>
<polygon fill="midnightblue" stroke="midnightblue" points="145.265,-29.1614 154.716,-24.3724 144.341,-22.2226 145.265,-29.1614"/>
</g>
<!-- Node4 -->
<g id="node4" class="node"><title>Node4</title>
<g id="a_node4"><a xlink:href="namespaceconstants__and__conversions.html#ac13fba285229deab77131132e6f62caf" target="_top" xlink:title="constants_and_conversions\l::char_ptr_to_fortran_string">
<polygon fill="white" stroke="black" points="334.554,-0.5 334.554,-30.5 486.921,-30.5 486.921,-0.5 334.554,-0.5"/>
<text text-anchor="start" x="342.554" y="-17.7" font-family="Helvetica,sans-Serif" font-size="11.00">constants_and_conversions</text>
<text text-anchor="middle" x="410.738" y="-6.7" font-family="Helvetica,sans-Serif" font-size="11.00">::char_ptr_to_fortran_string</text>
</a>
</g>
</g>
<!-- Node3&#45;&gt;Node4 -->
<g id="edge3" class="edge"><title>Node3&#45;&gt;Node4</title>
<path fill="none" stroke="midnightblue" d="M290.127,-15.5C301.194,-15.5 312.803,-15.5 324.257,-15.5"/>
<polygon fill="midnightblue" stroke="midnightblue" points="324.264,-19.0001 334.264,-15.5 324.264,-12.0001 324.264,-19.0001"/>
</g>
</g>
</svg>
