<?xml version="1.0" encoding="UTF-8" standalone="no"?>
<!DOCTYPE svg PUBLIC "-//W3C//DTD SVG 1.1//EN"
 "http://www.w3.org/Graphics/SVG/1.1/DTD/svg11.dtd">
<!-- Generated by graphviz version 2.38.0 (20140413.2041)
 -->
<!-- Title: grid::grid_gridtogrid_int Pages: 1 -->
<svg width="498pt" height="151pt"
 viewBox="0.00 0.00 497.91 151.00" xmlns="http://www.w3.org/2000/svg" xmlns:xlink="http://www.w3.org/1999/xlink">
<g id="graph0" class="graph" transform="scale(1 1) rotate(0) translate(4 147)">
<title>grid::grid_gridtogrid_int</title>
<polygon fill="white" stroke="none" points="-4,4 -4,-147 493.913,-147 493.913,4 -4,4"/>
<!-- Node220 -->
<g id="node1" class="node"><title>Node220</title>
<polygon fill="#bfbfbf" stroke="black" points="0,-57.5 0,-76.5 128.508,-76.5 128.508,-57.5 0,-57.5"/>
<text text-anchor="middle" x="64.2542" y="-63.7" font-family="Helvetica,sans-Serif" font-size="11.00">grid::grid_gridtogrid_int</text>
</g>
<!-- Node221 -->
<g id="node2" class="node"><title>Node221</title>
<g id="a_node2"><a xlink:href="namespacegrid.html#a54795390c62b55fd83c35818f8cd4ce3" target="_top" xlink:title="grid::grid_getgridcolrownum">
<polygon fill="white" stroke="black" points="164.508,-95.5 164.508,-114.5 316.241,-114.5 316.241,-95.5 164.508,-95.5"/>
<text text-anchor="middle" x="240.375" y="-101.7" font-family="Helvetica,sans-Serif" font-size="11.00">grid::grid_getgridcolrownum</text>
</a>
</g>
</g>
<!-- Node220&#45;&gt;Node221 -->
<g id="edge1" class="edge"><title>Node220&#45;&gt;Node221</title>
<path fill="none" stroke="midnightblue" d="M109.192,-76.589C132.48,-81.6713 161.274,-87.9554 185.857,-93.3203"/>
<polygon fill="midnightblue" stroke="midnightblue" points="185.236,-96.7672 195.753,-95.4799 186.729,-89.9281 185.236,-96.7672"/>
</g>
<!-- Node224 -->
<g id="node5" class="node"><title>Node224</title>
<g id="a_node5"><a xlink:href="namespacegrid.html#aad55d9adaeb57f8da93ceee8597869f9" target="_top" xlink:title="grid::grid_majorityfilter_int">
<polygon fill="white" stroke="black" points="169.407,-57.5 169.407,-76.5 311.343,-76.5 311.343,-57.5 169.407,-57.5"/>
<text text-anchor="middle" x="240.375" y="-63.7" font-family="Helvetica,sans-Serif" font-size="11.00">grid::grid_majorityfilter_int</text>
</a>
</g>
</g>
<!-- Node220&#45;&gt;Node224 -->
<g id="edge4" class="edge"><title>Node220&#45;&gt;Node224</title>
<path fill="none" stroke="midnightblue" d="M128.608,-67C138.526,-67 148.889,-67 159.125,-67"/>
<polygon fill="midnightblue" stroke="midnightblue" points="159.298,-70.5001 169.298,-67 159.298,-63.5001 159.298,-70.5001"/>
</g>
<!-- Node225 -->
<g id="node6" class="node"><title>Node225</title>
<g id="a_node6"><a xlink:href="namespacegrid.html#ace8ea960868faf40cf79d5303f881ed8" target="_top" xlink:title="grid::grid_populatexy">
<polygon fill="white" stroke="black" points="181.314,-19.5 181.314,-38.5 299.435,-38.5 299.435,-19.5 181.314,-19.5"/>
<text text-anchor="middle" x="240.375" y="-25.7" font-family="Helvetica,sans-Serif" font-size="11.00">grid::grid_populatexy</text>
</a>
</g>
</g>
<!-- Node220&#45;&gt;Node225 -->
<g id="edge5" class="edge"><title>Node220&#45;&gt;Node225</title>
<path fill="none" stroke="midnightblue" d="M109.192,-57.411C132.48,-52.3287 161.274,-46.0446 185.857,-40.6797"/>
<polygon fill="midnightblue" stroke="midnightblue" points="186.729,-44.0719 195.753,-38.5201 185.236,-37.2328 186.729,-44.0719"/>
</g>
<!-- Node222 -->
<g id="node3" class="node"><title>Node222</title>
<g id="a_node3"><a xlink:href="namespacegrid.html#a6b5506d49fb44b008286c59a82e98c1e" target="_top" xlink:title="grid::grid_getgridcolnum">
<polygon fill="white" stroke="black" points="354.073,-123.5 354.073,-142.5 488.081,-142.5 488.081,-123.5 354.073,-123.5"/>
<text text-anchor="middle" x="421.077" y="-129.7" font-family="Helvetica,sans-Serif" font-size="11.00">grid::grid_getgridcolnum</text>
</a>
</g>
</g>
<!-- Node221&#45;&gt;Node222 -->
<g id="edge2" class="edge"><title>Node221&#45;&gt;Node222</title>
<path fill="none" stroke="midnightblue" d="M302.374,-114.558C317.47,-116.923 333.77,-119.477 349.288,-121.908"/>
<polygon fill="midnightblue" stroke="midnightblue" points="348.931,-125.395 359.352,-123.485 350.015,-118.48 348.931,-125.395"/>
</g>
<!-- Node223 -->
<g id="node4" class="node"><title>Node223</title>
<g id="a_node4"><a xlink:href="namespacegrid.html#a9aa473ecf87cf6e11795f2b6e78c920e" target="_top" xlink:title="grid::grid_getgridrownum">
<polygon fill="white" stroke="black" points="352.241,-85.5 352.241,-104.5 489.913,-104.5 489.913,-85.5 352.241,-85.5"/>
<text text-anchor="middle" x="421.077" y="-91.7" font-family="Helvetica,sans-Serif" font-size="11.00">grid::grid_getgridrownum</text>
</a>
</g>
</g>
<!-- Node221&#45;&gt;Node223 -->
<g id="edge3" class="edge"><title>Node221&#45;&gt;Node223</title>
<path fill="none" stroke="midnightblue" d="M316.384,-100.803C324.804,-100.331 333.399,-99.8504 341.858,-99.377"/>
<polygon fill="midnightblue" stroke="midnightblue" points="342.3,-102.858 352.089,-98.8045 341.909,-95.8688 342.3,-102.858"/>
</g>
<!-- Node226 -->
<g id="node7" class="node"><title>Node226</title>
<g id="a_node7"><a xlink:href="namespacegrid.html#ad3fbf6446fa8a58df8888c05b7165324" target="_top" xlink:title="grid::grid_getgridx">
<polygon fill="white" stroke="black" points="369.053,-38.5 369.053,-57.5 473.101,-57.5 473.101,-38.5 369.053,-38.5"/>
<text text-anchor="middle" x="421.077" y="-44.7" font-family="Helvetica,sans-Serif" font-size="11.00">grid::grid_getgridx</text>
</a>
</g>
</g>
<!-- Node225&#45;&gt;Node226 -->
<g id="edge6" class="edge"><title>Node225&#45;&gt;Node226</title>
<path fill="none" stroke="midnightblue" d="M299.889,-35.2213C318.785,-37.2304 339.778,-39.4625 358.864,-41.4917"/>
<polygon fill="midnightblue" stroke="midnightblue" points="358.633,-44.9867 368.947,-42.5637 359.373,-38.026 358.633,-44.9867"/>
</g>
<!-- Node227 -->
<g id="node8" class="node"><title>Node227</title>
<g id="a_node8"><a xlink:href="namespacegrid.html#a93d74de05bc5c8aee4cb556f461be266" target="_top" xlink:title="grid::grid_getgridy">
<polygon fill="white" stroke="black" points="369.053,-0.5 369.053,-19.5 473.101,-19.5 473.101,-0.5 369.053,-0.5"/>
<text text-anchor="middle" x="421.077" y="-6.7" font-family="Helvetica,sans-Serif" font-size="11.00">grid::grid_getgridy</text>
</a>
</g>
</g>
<!-- Node225&#45;&gt;Node227 -->
<g id="edge7" class="edge"><title>Node225&#45;&gt;Node227</title>
<path fill="none" stroke="midnightblue" d="M299.889,-22.7787C318.785,-20.7696 339.778,-18.5375 358.864,-16.5083"/>
<polygon fill="midnightblue" stroke="midnightblue" points="359.373,-19.974 368.947,-15.4363 358.633,-13.0133 359.373,-19.974"/>
</g>
</g>
</svg>
