<?xml version="1.0" encoding="UTF-8" standalone="no"?>
<!DOCTYPE svg PUBLIC "-//W3C//DTD SVG 1.1//EN"
 "http://www.w3.org/Graphics/SVG/1.1/DTD/svg11.dtd">
<!-- Generated by graphviz version 2.38.0 (20140413.2041)
 -->
<!-- Title: netcdf4_support::nf_define_dimension Pages: 1 -->
<svg width="478pt" height="39pt"
 viewBox="0.00 0.00 477.79 39.00" xmlns="http://www.w3.org/2000/svg" xmlns:xlink="http://www.w3.org/1999/xlink">
<g id="graph0" class="graph" transform="scale(1 1) rotate(0) translate(4 35)">
<title>netcdf4_support::nf_define_dimension</title>
<polygon fill="white" stroke="none" points="-4,4 -4,-35 473.792,-35 473.792,4 -4,4"/>
<!-- Node606 -->
<g id="node1" class="node"><title>Node606</title>
<polygon fill="#bfbfbf" stroke="black" points="0,-0.5 0,-30.5 110.177,-30.5 110.177,-0.5 0,-0.5"/>
<text text-anchor="start" x="8" y="-17.7" font-family="Helvetica,sans-Serif" font-size="11.00">netcdf4_support::nf</text>
<text text-anchor="middle" x="55.0884" y="-6.7" font-family="Helvetica,sans-Serif" font-size="11.00">_define_dimension</text>
</g>
<!-- Node607 -->
<g id="node2" class="node"><title>Node607</title>
<g id="a_node2"><a xlink:href="namespacenetcdf4__support.html#ac8c7276a5849ae6d17ffef1787e3f234" target="_top" xlink:title="netcdf4_support::nf_trap">
<polygon fill="white" stroke="black" points="146.177,-6 146.177,-25 281.426,-25 281.426,-6 146.177,-6"/>
<text text-anchor="middle" x="213.801" y="-12.2" font-family="Helvetica,sans-Serif" font-size="11.00">netcdf4_support::nf_trap</text>
</a>
</g>
</g>
<!-- Node606&#45;&gt;Node607 -->
<g id="edge1" class="edge"><title>Node606&#45;&gt;Node607</title>
<path fill="none" stroke="midnightblue" d="M110.459,-15.5C118.719,-15.5 127.373,-15.5 136.002,-15.5"/>
<polygon fill="midnightblue" stroke="midnightblue" points="136.094,-19.0001 146.094,-15.5 136.094,-12.0001 136.094,-19.0001"/>
</g>
<!-- Node608 -->
<g id="node3" class="node"><title>Node608</title>
<g id="a_node3"><a xlink:href="namespaceconstants__and__conversions.html#ac13fba285229deab77131132e6f62caf" target="_top" xlink:title="constants_and_conversions\l::char_ptr_to_fortran_string">
<polygon fill="white" stroke="black" points="317.426,-0.5 317.426,-30.5 469.792,-30.5 469.792,-0.5 317.426,-0.5"/>
<text text-anchor="start" x="325.426" y="-17.7" font-family="Helvetica,sans-Serif" font-size="11.00">constants_and_conversions</text>
<text text-anchor="middle" x="393.609" y="-6.7" font-family="Helvetica,sans-Serif" font-size="11.00">::char_ptr_to_fortran_string</text>
</a>
</g>
</g>
<!-- Node607&#45;&gt;Node608 -->
<g id="edge2" class="edge"><title>Node607&#45;&gt;Node608</title>
<path fill="none" stroke="midnightblue" d="M281.516,-15.5C289.874,-15.5 298.511,-15.5 307.106,-15.5"/>
<polygon fill="midnightblue" stroke="midnightblue" points="307.156,-19.0001 317.156,-15.5 307.156,-12.0001 307.156,-19.0001"/>
</g>
</g>
</svg>
