<?xml version="1.0" encoding="UTF-8" standalone="no"?>
<!DOCTYPE svg PUBLIC "-//W3C//DTD SVG 1.1//EN"
 "http://www.w3.org/Graphics/SVG/1.1/DTD/svg11.dtd">
<!-- Generated by graphviz version 2.38.0 (20140413.2041)
 -->
<!-- Title: et__gridded_values::et_gridded_values_initialize Pages: 1 -->
<svg width="245pt" height="50pt"
 viewBox="0.00 0.00 245.40 50.00" xmlns="http://www.w3.org/2000/svg" xmlns:xlink="http://www.w3.org/1999/xlink">
<g id="graph0" class="graph" transform="scale(1 1) rotate(0) translate(4 46)">
<title>et__gridded_values::et_gridded_values_initialize</title>
<polygon fill="white" stroke="none" points="-4,4 -4,-46 241.399,-46 241.399,4 -4,4"/>
<!-- Node0 -->
<g id="node1" class="node"><title>Node0</title>
<polygon fill="#bfbfbf" stroke="black" points="0,-0.5 0,-41.5 112.019,-41.5 112.019,-0.5 0,-0.5"/>
<text text-anchor="start" x="8" y="-28.7" font-family="Helvetica,sans-Serif" font-size="11.00">et__gridded_values</text>
<text text-anchor="start" x="8" y="-17.7" font-family="Helvetica,sans-Serif" font-size="11.00">::et_gridded_values</text>
<text text-anchor="middle" x="56.0095" y="-6.7" font-family="Helvetica,sans-Serif" font-size="11.00">_initialize</text>
</g>
<!-- Node1 -->
<g id="node2" class="node"><title>Node1</title>
<g id="a_node2"><a xlink:href="namespaceexceptions.html#a22a1bf2808fdc249e6b378ee3f221156" target="_top" xlink:title="exceptions::die">
<polygon fill="white" stroke="black" points="148.019,-11.5 148.019,-30.5 237.399,-30.5 237.399,-11.5 148.019,-11.5"/>
<text text-anchor="middle" x="192.709" y="-17.7" font-family="Helvetica,sans-Serif" font-size="11.00">exceptions::die</text>
</a>
</g>
</g>
<!-- Node0&#45;&gt;Node1 -->
<g id="edge1" class="edge"><title>Node0&#45;&gt;Node1</title>
<path fill="none" stroke="midnightblue" d="M112.186,-21C120.657,-21 129.393,-21 137.836,-21"/>
<polygon fill="midnightblue" stroke="midnightblue" points="137.95,-24.5001 147.95,-21 137.95,-17.5001 137.95,-24.5001"/>
</g>
</g>
</svg>
