<?xml version="1.0" encoding="UTF-8" standalone="no"?>
<!DOCTYPE svg PUBLIC "-//W3C//DTD SVG 1.1//EN"
 "http://www.w3.org/Graphics/SVG/1.1/DTD/svg11.dtd">
<!-- Generated by graphviz version 2.38.0 (20140413.2041)
 -->
<!-- Title: grid::grid_readarcgrid_sub Pages: 1 -->
<svg width="630pt" height="39pt"
 viewBox="0.00 0.00 630.07 39.00" xmlns="http://www.w3.org/2000/svg" xmlns:xlink="http://www.w3.org/1999/xlink">
<g id="graph0" class="graph" transform="scale(1 1) rotate(0) translate(4 35)">
<title>grid::grid_readarcgrid_sub</title>
<polygon fill="white" stroke="none" points="-4,4 -4,-35 626.071,-35 626.071,4 -4,4"/>
<!-- Node1 -->
<g id="node1" class="node"><title>Node1</title>
<polygon fill="#bfbfbf" stroke="black" points="0,-6 0,-25 144.407,-25 144.407,-6 0,-6"/>
<text text-anchor="middle" x="72.2034" y="-12.2" font-family="Helvetica,sans-Serif" font-size="11.00">grid::grid_readarcgrid_sub</text>
</g>
<!-- Node2 -->
<g id="node2" class="node"><title>Node2</title>
<g id="a_node2"><a xlink:href="namespacegrid.html#a82580ae20a6d538ff34ef5d2263bf679" target="_top" xlink:title="grid::grid_readexisting">
<polygon fill="white" stroke="black" points="180.407,-6 180.407,-25 304.634,-25 304.634,-6 180.407,-6"/>
<text text-anchor="middle" x="242.521" y="-12.2" font-family="Helvetica,sans-Serif" font-size="11.00">grid::grid_readexisting</text>
</a>
</g>
</g>
<!-- Node1&#45;&gt;Node2 -->
<g id="edge1" class="edge"><title>Node1&#45;&gt;Node2</title>
<path fill="none" stroke="midnightblue" d="M154.701,-15.5C163.351,-15.5 172.039,-15.5 180.399,-15.5"/>
<polygon fill="midnightblue" stroke="midnightblue" points="154.585,-12.0001 144.585,-15.5 154.585,-19.0001 154.585,-12.0001"/>
</g>
<!-- Node3 -->
<g id="node3" class="node"><title>Node3</title>
<g id="a_node3"><a xlink:href="namespacedata__catalog__entry.html#a25575c8a43161050427bd7a7d471e83d" target="_top" xlink:title="data_catalog_entry\l::getvalues_gridded_sub">
<polygon fill="white" stroke="black" points="340.634,-0.5 340.634,-30.5 476.501,-30.5 476.501,-0.5 340.634,-0.5"/>
<text text-anchor="start" x="348.634" y="-17.7" font-family="Helvetica,sans-Serif" font-size="11.00">data_catalog_entry</text>
<text text-anchor="middle" x="408.568" y="-6.7" font-family="Helvetica,sans-Serif" font-size="11.00">::getvalues_gridded_sub</text>
</a>
</g>
</g>
<!-- Node2&#45;&gt;Node3 -->
<g id="edge2" class="edge"><title>Node2&#45;&gt;Node3</title>
<path fill="none" stroke="midnightblue" d="M315.206,-15.5C323.593,-15.5 332.127,-15.5 340.449,-15.5"/>
<polygon fill="midnightblue" stroke="midnightblue" points="315.072,-12.0001 305.072,-15.5 315.072,-19.0001 315.072,-12.0001"/>
</g>
<!-- Node4 -->
<g id="node4" class="node"><title>Node4</title>
<g id="a_node4"><a xlink:href="namespacedata__catalog__entry.html#a9e0a89ab19a5bfd61f2dfb8265648234" target="_top" xlink:title="data_catalog_entry\l::getvalues_sub">
<polygon fill="white" stroke="black" points="512.501,-0.5 512.501,-30.5 622.071,-30.5 622.071,-0.5 512.501,-0.5"/>
<text text-anchor="start" x="520.501" y="-17.7" font-family="Helvetica,sans-Serif" font-size="11.00">data_catalog_entry</text>
<text text-anchor="middle" x="567.286" y="-6.7" font-family="Helvetica,sans-Serif" font-size="11.00">::getvalues_sub</text>
</a>
</g>
</g>
<!-- Node3&#45;&gt;Node4 -->
<g id="edge3" class="edge"><title>Node3&#45;&gt;Node4</title>
<path fill="none" stroke="midnightblue" d="M487.214,-15.5C495.663,-15.5 504.123,-15.5 512.202,-15.5"/>
<polygon fill="midnightblue" stroke="midnightblue" points="486.94,-12.0001 476.94,-15.5 486.94,-19.0001 486.94,-12.0001"/>
</g>
</g>
</svg>
