<?xml version="1.0" encoding="UTF-8" standalone="no"?>
<!DOCTYPE svg PUBLIC "-//W3C//DTD SVG 1.1//EN"
 "http://www.w3.org/Graphics/SVG/1.1/DTD/svg11.dtd">
<!-- Generated by graphviz version 2.38.0 (20140413.2041)
 -->
<!-- Title: netcdf4_support::nf_get_first_and_last Pages: 1 -->
<svg width="662pt" height="285pt"
 viewBox="0.00 0.00 662.49 285.00" xmlns="http://www.w3.org/2000/svg" xmlns:xlink="http://www.w3.org/1999/xlink">
<g id="graph0" class="graph" transform="scale(1 1) rotate(0) translate(4 281)">
<title>netcdf4_support::nf_get_first_and_last</title>
<polygon fill="white" stroke="none" points="-4,4 -4,-281 658.485,-281 658.485,4 -4,4"/>
<!-- Node497 -->
<g id="node1" class="node"><title>Node497</title>
<polygon fill="#bfbfbf" stroke="black" points="0,-112 0,-142 110.177,-142 110.177,-112 0,-112"/>
<text text-anchor="start" x="8" y="-129.2" font-family="Helvetica,sans-Serif" font-size="11.00">netcdf4_support::nf</text>
<text text-anchor="middle" x="55.0884" y="-118.2" font-family="Helvetica,sans-Serif" font-size="11.00">_get_first_and_last</text>
</g>
<!-- Node498 -->
<g id="node2" class="node"><title>Node498</title>
<g id="a_node2"><a xlink:href="namespacenetcdf4__support.html#a8e61a749fc18f3f802e6b886cdfb4f6c" target="_top" xlink:title="netcdf4_support::nf\l_get_variable_vector\l_double">
<polygon fill="white" stroke="black" points="161.463,-235.5 161.463,-276.5 279.583,-276.5 279.583,-235.5 161.463,-235.5"/>
<text text-anchor="start" x="169.463" y="-263.7" font-family="Helvetica,sans-Serif" font-size="11.00">netcdf4_support::nf</text>
<text text-anchor="start" x="169.463" y="-252.7" font-family="Helvetica,sans-Serif" font-size="11.00">_get_variable_vector</text>
<text text-anchor="middle" x="220.523" y="-241.7" font-family="Helvetica,sans-Serif" font-size="11.00">_double</text>
</a>
</g>
</g>
<!-- Node497&#45;&gt;Node498 -->
<g id="edge1" class="edge"><title>Node497&#45;&gt;Node498</title>
<path fill="none" stroke="midnightblue" d="M66.385,-142.011C81.6271,-163.256 112.091,-202.158 146.177,-226 148.347,-227.518 150.605,-228.977 152.927,-230.378"/>
<polygon fill="midnightblue" stroke="midnightblue" points="151.696,-233.698 162.137,-235.492 155.094,-227.578 151.696,-233.698"/>
</g>
<!-- Node501 -->
<g id="node5" class="node"><title>Node501</title>
<g id="a_node5"><a xlink:href="namespacenetcdf4__support.html#a4714332166c986eb4acc7dda0aabe551" target="_top" xlink:title="netcdf4_support::nf\l_get_variable_vector_float">
<polygon fill="white" stroke="black" points="148.008,-186 148.008,-216 293.038,-216 293.038,-186 148.008,-186"/>
<text text-anchor="start" x="156.008" y="-203.2" font-family="Helvetica,sans-Serif" font-size="11.00">netcdf4_support::nf</text>
<text text-anchor="middle" x="220.523" y="-192.2" font-family="Helvetica,sans-Serif" font-size="11.00">_get_variable_vector_float</text>
</a>
</g>
</g>
<!-- Node497&#45;&gt;Node501 -->
<g id="edge4" class="edge"><title>Node497&#45;&gt;Node501</title>
<path fill="none" stroke="midnightblue" d="M80.2993,-142.098C98.0786,-152.769 123.06,-166.913 146.177,-177 150.551,-178.909 155.129,-180.751 159.768,-182.509"/>
<polygon fill="midnightblue" stroke="midnightblue" points="158.738,-185.859 169.332,-185.991 161.133,-179.281 158.738,-185.859"/>
</g>
<!-- Node502 -->
<g id="node6" class="node"><title>Node502</title>
<g id="a_node6"><a xlink:href="namespacenetcdf4__support.html#a075e4dfd64b2fa4af0d5412bb8d764b7" target="_top" xlink:title="netcdf4_support::nf\l_get_variable_vector_int">
<polygon fill="white" stroke="black" points="152.595,-137 152.595,-167 288.451,-167 288.451,-137 152.595,-137"/>
<text text-anchor="start" x="160.595" y="-154.2" font-family="Helvetica,sans-Serif" font-size="11.00">netcdf4_support::nf</text>
<text text-anchor="middle" x="220.523" y="-143.2" font-family="Helvetica,sans-Serif" font-size="11.00">_get_variable_vector_int</text>
</a>
</g>
</g>
<!-- Node497&#45;&gt;Node502 -->
<g id="edge6" class="edge"><title>Node497&#45;&gt;Node502</title>
<path fill="none" stroke="midnightblue" d="M110.51,-135.325C120.818,-136.902 131.782,-138.579 142.632,-140.238"/>
<polygon fill="midnightblue" stroke="midnightblue" points="142.127,-143.702 152.541,-141.754 143.186,-136.782 142.127,-143.702"/>
</g>
<!-- Node503 -->
<g id="node7" class="node"><title>Node503</title>
<g id="a_node7"><a xlink:href="namespacenetcdf4__support.html#a15a33a5fbda012f0797b71099650b68d" target="_top" xlink:title="netcdf4_support::nf\l_get_variable_vector_short">
<polygon fill="white" stroke="black" points="146.177,-88 146.177,-118 294.87,-118 294.87,-88 146.177,-88"/>
<text text-anchor="start" x="154.177" y="-105.2" font-family="Helvetica,sans-Serif" font-size="11.00">netcdf4_support::nf</text>
<text text-anchor="middle" x="220.523" y="-94.2" font-family="Helvetica,sans-Serif" font-size="11.00">_get_variable_vector_short</text>
</a>
</g>
</g>
<!-- Node497&#45;&gt;Node503 -->
<g id="edge8" class="edge"><title>Node497&#45;&gt;Node503</title>
<path fill="none" stroke="midnightblue" d="M110.51,-119.008C118.719,-117.803 127.343,-116.536 135.995,-115.266"/>
<polygon fill="midnightblue" stroke="midnightblue" points="136.755,-118.692 146.14,-113.776 135.738,-111.766 136.755,-118.692"/>
</g>
<!-- Node504 -->
<g id="node8" class="node"><title>Node504</title>
<g id="a_node8"><a xlink:href="namespacenetcdf4__support.html#a7138fa9ca363dd10d3601c64e7063f6a" target="_top" xlink:title="netcdf4_support::nf\l_return_dimsize">
<polygon fill="white" stroke="black" points="165.435,-39 165.435,-69 275.612,-69 275.612,-39 165.435,-39"/>
<text text-anchor="start" x="173.435" y="-56.2" font-family="Helvetica,sans-Serif" font-size="11.00">netcdf4_support::nf</text>
<text text-anchor="middle" x="220.523" y="-45.2" font-family="Helvetica,sans-Serif" font-size="11.00">_return_dimsize</text>
</a>
</g>
</g>
<!-- Node497&#45;&gt;Node504 -->
<g id="edge10" class="edge"><title>Node497&#45;&gt;Node504</title>
<path fill="none" stroke="midnightblue" d="M81.9494,-111.787C99.6663,-101.724 123.901,-88.6561 146.177,-79 151.268,-76.7929 156.624,-74.648 162.025,-72.6025"/>
<polygon fill="midnightblue" stroke="midnightblue" points="163.567,-75.765 171.751,-69.0361 161.157,-69.1929 163.567,-75.765"/>
</g>
<!-- Node505 -->
<g id="node9" class="node"><title>Node505</title>
<g id="a_node9"><a xlink:href="namespaceexceptions.html#a84dd04476b06e0a398bfe6d106a82a4d" target="_top" xlink:title="exceptions::warn">
<polygon fill="white" stroke="black" points="171.252,-0.5 171.252,-19.5 269.795,-19.5 269.795,-0.5 171.252,-0.5"/>
<text text-anchor="middle" x="220.523" y="-6.7" font-family="Helvetica,sans-Serif" font-size="11.00">exceptions::warn</text>
</a>
</g>
</g>
<!-- Node497&#45;&gt;Node505 -->
<g id="edge11" class="edge"><title>Node497&#45;&gt;Node505</title>
<path fill="none" stroke="midnightblue" d="M66.084,-111.734C80.9599,-90.2382 110.982,-51.3016 146.177,-30 150.905,-27.1382 156.049,-24.6775 161.346,-22.5633"/>
<polygon fill="midnightblue" stroke="midnightblue" points="162.749,-25.7789 170.99,-19.12 160.395,-19.1865 162.749,-25.7789"/>
</g>
<!-- Node499 -->
<g id="node3" class="node"><title>Node499</title>
<g id="a_node3"><a xlink:href="namespacenetcdf4__support.html#ac8c7276a5849ae6d17ffef1787e3f234" target="_top" xlink:title="netcdf4_support::nf_trap">
<polygon fill="white" stroke="black" points="330.87,-166.5 330.87,-185.5 466.119,-185.5 466.119,-166.5 330.87,-166.5"/>
<text text-anchor="middle" x="398.494" y="-172.7" font-family="Helvetica,sans-Serif" font-size="11.00">netcdf4_support::nf_trap</text>
</a>
</g>
</g>
<!-- Node498&#45;&gt;Node499 -->
<g id="edge2" class="edge"><title>Node498&#45;&gt;Node499</title>
<path fill="none" stroke="midnightblue" d="M273,-235.441C280.372,-232.353 287.837,-229.147 294.87,-226 320.481,-214.538 349.152,-200.461 369.665,-190.167"/>
<polygon fill="midnightblue" stroke="midnightblue" points="371.399,-193.213 378.753,-185.587 368.248,-186.962 371.399,-193.213"/>
</g>
<!-- Node500 -->
<g id="node4" class="node"><title>Node500</title>
<g id="a_node4"><a xlink:href="namespaceconstants__and__conversions.html#ac13fba285229deab77131132e6f62caf" target="_top" xlink:title="constants_and_conversions\l::char_ptr_to_fortran_string">
<polygon fill="white" stroke="black" points="502.119,-161 502.119,-191 654.485,-191 654.485,-161 502.119,-161"/>
<text text-anchor="start" x="510.119" y="-178.2" font-family="Helvetica,sans-Serif" font-size="11.00">constants_and_conversions</text>
<text text-anchor="middle" x="578.302" y="-167.2" font-family="Helvetica,sans-Serif" font-size="11.00">::char_ptr_to_fortran_string</text>
</a>
</g>
</g>
<!-- Node499&#45;&gt;Node500 -->
<g id="edge3" class="edge"><title>Node499&#45;&gt;Node500</title>
<path fill="none" stroke="midnightblue" d="M466.209,-176C474.567,-176 483.204,-176 491.799,-176"/>
<polygon fill="midnightblue" stroke="midnightblue" points="491.849,-179.5 501.849,-176 491.849,-172.5 491.849,-179.5"/>
</g>
<!-- Node501&#45;&gt;Node499 -->
<g id="edge5" class="edge"><title>Node501&#45;&gt;Node499</title>
<path fill="none" stroke="midnightblue" d="M293.097,-190.832C302.251,-189.531 311.651,-188.196 320.881,-186.884"/>
<polygon fill="midnightblue" stroke="midnightblue" points="321.402,-190.346 330.81,-185.474 320.417,-183.415 321.402,-190.346"/>
</g>
<!-- Node502&#45;&gt;Node499 -->
<g id="edge7" class="edge"><title>Node502&#45;&gt;Node499</title>
<path fill="none" stroke="midnightblue" d="M288.552,-161.142C299.004,-162.567 309.875,-164.05 320.527,-165.503"/>
<polygon fill="midnightblue" stroke="midnightblue" points="320.27,-169 330.651,-166.884 321.216,-162.064 320.27,-169"/>
</g>
<!-- Node503&#45;&gt;Node499 -->
<g id="edge9" class="edge"><title>Node503&#45;&gt;Node499</title>
<path fill="none" stroke="midnightblue" d="M268.365,-118.114C277.232,-121.215 286.384,-124.581 294.87,-128 320.542,-138.343 348.998,-151.818 369.421,-161.857"/>
<polygon fill="midnightblue" stroke="midnightblue" points="367.963,-165.04 378.477,-166.342 371.069,-158.767 367.963,-165.04"/>
</g>
</g>
</svg>
