<?xml version="1.0" encoding="UTF-8" standalone="no"?>
<!DOCTYPE svg PUBLIC "-//W3C//DTD SVG 1.1//EN"
 "http://www.w3.org/Graphics/SVG/1.1/DTD/svg11.dtd">
<!-- Generated by graphviz version 2.38.0 (20140413.2041)
 -->
<!-- Title: grid::grid_populatexy Pages: 1 -->
<svg width="266pt" height="66pt"
 viewBox="0.00 0.00 266.17 66.00" xmlns="http://www.w3.org/2000/svg" xmlns:xlink="http://www.w3.org/1999/xlink">
<g id="graph0" class="graph" transform="scale(1 1) rotate(0) translate(4 62)">
<title>grid::grid_populatexy</title>
<polygon fill="white" stroke="none" points="-4,4 -4,-62 262.169,-62 262.169,4 -4,4"/>
<!-- Node192 -->
<g id="node1" class="node"><title>Node192</title>
<polygon fill="#bfbfbf" stroke="black" points="0,-19.5 0,-38.5 118.121,-38.5 118.121,-19.5 0,-19.5"/>
<text text-anchor="middle" x="59.0603" y="-25.7" font-family="Helvetica,sans-Serif" font-size="11.00">grid::grid_populatexy</text>
</g>
<!-- Node193 -->
<g id="node2" class="node"><title>Node193</title>
<g id="a_node2"><a xlink:href="namespacegrid.html#ad3fbf6446fa8a58df8888c05b7165324" target="_top" xlink:title="grid::grid_getgridx">
<polygon fill="white" stroke="black" points="154.121,-38.5 154.121,-57.5 258.169,-57.5 258.169,-38.5 154.121,-38.5"/>
<text text-anchor="middle" x="206.145" y="-44.7" font-family="Helvetica,sans-Serif" font-size="11.00">grid::grid_getgridx</text>
</a>
</g>
</g>
<!-- Node192&#45;&gt;Node193 -->
<g id="edge1" class="edge"><title>Node192&#45;&gt;Node193</title>
<path fill="none" stroke="midnightblue" d="M118.236,-36.6185C126.643,-37.7195 135.318,-38.8556 143.785,-39.9644"/>
<polygon fill="midnightblue" stroke="midnightblue" points="143.608,-43.471 153.977,-41.2992 144.517,-36.5303 143.608,-43.471"/>
</g>
<!-- Node194 -->
<g id="node3" class="node"><title>Node194</title>
<g id="a_node3"><a xlink:href="namespacegrid.html#a93d74de05bc5c8aee4cb556f461be266" target="_top" xlink:title="grid::grid_getgridy">
<polygon fill="white" stroke="black" points="154.121,-0.5 154.121,-19.5 258.169,-19.5 258.169,-0.5 154.121,-0.5"/>
<text text-anchor="middle" x="206.145" y="-6.7" font-family="Helvetica,sans-Serif" font-size="11.00">grid::grid_getgridy</text>
</a>
</g>
</g>
<!-- Node192&#45;&gt;Node194 -->
<g id="edge2" class="edge"><title>Node192&#45;&gt;Node194</title>
<path fill="none" stroke="midnightblue" d="M118.236,-21.3815C126.643,-20.2805 135.318,-19.1444 143.785,-18.0356"/>
<polygon fill="midnightblue" stroke="midnightblue" points="144.517,-21.4697 153.977,-16.7008 143.608,-14.529 144.517,-21.4697"/>
</g>
</g>
</svg>
