<?xml version="1.0" encoding="UTF-8" standalone="no"?>
<!DOCTYPE svg PUBLIC "-//W3C//DTD SVG 1.1//EN"
 "http://www.w3.org/Graphics/SVG/1.1/DTD/svg11.dtd">
<!-- Generated by graphviz version 2.38.0 (20140413.2041)
 -->
<!-- Title: netcdf4_support::nf_set_global_attributes Pages: 1 -->
<svg width="894pt" height="100pt"
 viewBox="0.00 0.00 894.29 99.50" xmlns="http://www.w3.org/2000/svg" xmlns:xlink="http://www.w3.org/1999/xlink">
<g id="graph0" class="graph" transform="scale(1 1) rotate(0) translate(4 95.5)">
<title>netcdf4_support::nf_set_global_attributes</title>
<polygon fill="white" stroke="none" points="-4,4 -4,-95.5 890.288,-95.5 890.288,4 -4,4"/>
<!-- Node637 -->
<g id="node1" class="node"><title>Node637</title>
<polygon fill="#bfbfbf" stroke="black" points="0,-33 0,-63 123.631,-63 123.631,-33 0,-33"/>
<text text-anchor="start" x="8" y="-50.2" font-family="Helvetica,sans-Serif" font-size="11.00">netcdf4_support::nf</text>
<text text-anchor="middle" x="61.8157" y="-39.2" font-family="Helvetica,sans-Serif" font-size="11.00">_set_global_attributes</text>
</g>
<!-- Node638 -->
<g id="node2" class="node"><title>Node638</title>
<g id="a_node2"><a xlink:href="namespacenetcdf4__support.html#a4bc9b9f951c1dc1cc1f50ba727794071" target="_top" xlink:title="netcdf4_support::netcdf\l_open_and_prepare_as_output">
<polygon fill="white" stroke="black" points="159.631,-61 159.631,-91 329.159,-91 329.159,-61 159.631,-61"/>
<text text-anchor="start" x="167.631" y="-78.2" font-family="Helvetica,sans-Serif" font-size="11.00">netcdf4_support::netcdf</text>
<text text-anchor="middle" x="244.395" y="-67.2" font-family="Helvetica,sans-Serif" font-size="11.00">_open_and_prepare_as_output</text>
</a>
</g>
</g>
<!-- Node637&#45;&gt;Node638 -->
<g id="edge1" class="edge"><title>Node637&#45;&gt;Node638</title>
<path fill="none" stroke="midnightblue" d="M133.802,-59.0069C142.196,-60.3084 150.823,-61.6461 159.375,-62.9721"/>
<polygon fill="midnightblue" stroke="midnightblue" points="134.118,-55.5142 123.7,-57.4405 133.045,-62.4315 134.118,-55.5142"/>
</g>
<!-- Node642 -->
<g id="node6" class="node"><title>Node642</title>
<g id="a_node6"><a xlink:href="namespacenetcdf4__support.html#a6c0e12debd35545980fa63ade1094e93" target="_top" xlink:title="netcdf4_support::netcdf\l_open_and_prepare_as_output\l_archive">
<polygon fill="white" stroke="black" points="159.631,-0.5 159.631,-41.5 329.159,-41.5 329.159,-0.5 159.631,-0.5"/>
<text text-anchor="start" x="167.631" y="-28.7" font-family="Helvetica,sans-Serif" font-size="11.00">netcdf4_support::netcdf</text>
<text text-anchor="start" x="167.631" y="-17.7" font-family="Helvetica,sans-Serif" font-size="11.00">_open_and_prepare_as_output</text>
<text text-anchor="middle" x="244.395" y="-6.7" font-family="Helvetica,sans-Serif" font-size="11.00">_archive</text>
</a>
</g>
</g>
<!-- Node637&#45;&gt;Node642 -->
<g id="edge5" class="edge"><title>Node637&#45;&gt;Node642</title>
<path fill="none" stroke="midnightblue" d="M133.802,-37.3862C142.196,-36.1312 150.823,-34.8413 159.375,-33.5626"/>
<polygon fill="midnightblue" stroke="midnightblue" points="133.072,-33.9563 123.7,-38.8967 134.108,-40.8794 133.072,-33.9563"/>
</g>
<!-- Node639 -->
<g id="node3" class="node"><title>Node639</title>
<g id="a_node3"><a xlink:href="namespacefog____monthly__grid.html#a8e7386e0dfea998459a45c270e0afecc" target="_top" xlink:title="Initialize the fog drip algorithm. ">
<polygon fill="white" stroke="black" points="365.159,-61 365.159,-91 510.79,-91 510.79,-61 365.159,-61"/>
<text text-anchor="start" x="373.159" y="-78.2" font-family="Helvetica,sans-Serif" font-size="11.00">fog__monthly_grid::</text>
<text text-anchor="middle" x="437.974" y="-67.2" font-family="Helvetica,sans-Serif" font-size="11.00">fog_monthly_grid_initialize</text>
</a>
</g>
</g>
<!-- Node638&#45;&gt;Node639 -->
<g id="edge2" class="edge"><title>Node638&#45;&gt;Node639</title>
<path fill="none" stroke="midnightblue" d="M339.476,-76C348.059,-76 356.661,-76 365.005,-76"/>
<polygon fill="midnightblue" stroke="midnightblue" points="339.425,-72.5001 329.425,-76 339.424,-79.5001 339.425,-72.5001"/>
</g>
<!-- Node640 -->
<g id="node4" class="node"><title>Node640</title>
<g id="a_node4"><a xlink:href="namespacemodel__domain.html#ad24a97a20a893d728e39930306e8b1d4" target="_top" xlink:title="model_domain::model\l_initialize_fog_monthly_grid">
<polygon fill="white" stroke="black" points="546.79,-61 546.79,-91 698.539,-91 698.539,-61 546.79,-61"/>
<text text-anchor="start" x="554.79" y="-78.2" font-family="Helvetica,sans-Serif" font-size="11.00">model_domain::model</text>
<text text-anchor="middle" x="622.665" y="-67.2" font-family="Helvetica,sans-Serif" font-size="11.00">_initialize_fog_monthly_grid</text>
</a>
</g>
</g>
<!-- Node639&#45;&gt;Node640 -->
<g id="edge3" class="edge"><title>Node639&#45;&gt;Node640</title>
<path fill="none" stroke="midnightblue" d="M520.946,-76C529.55,-76 538.266,-76 546.784,-76"/>
<polygon fill="midnightblue" stroke="midnightblue" points="520.916,-72.5001 510.916,-76 520.916,-79.5001 520.916,-72.5001"/>
</g>
<!-- Node641 -->
<g id="node5" class="node"><title>Node641</title>
<g id="a_node5"><a xlink:href="namespacemodel__domain.html#aac78dbf26ba37cf86ebed4edd7acf89b" target="_top" xlink:title="model_domain::set_method\l_pointers_sub">
<polygon fill="white" stroke="black" points="734.539,-61 734.539,-91 886.288,-91 886.288,-61 734.539,-61"/>
<text text-anchor="start" x="742.539" y="-78.2" font-family="Helvetica,sans-Serif" font-size="11.00">model_domain::set_method</text>
<text text-anchor="middle" x="810.414" y="-67.2" font-family="Helvetica,sans-Serif" font-size="11.00">_pointers_sub</text>
</a>
</g>
</g>
<!-- Node640&#45;&gt;Node641 -->
<g id="edge4" class="edge"><title>Node640&#45;&gt;Node641</title>
<path fill="none" stroke="midnightblue" d="M708.697,-76C717.28,-76 725.953,-76 734.42,-76"/>
<polygon fill="midnightblue" stroke="midnightblue" points="708.68,-72.5001 698.68,-76 708.68,-79.5001 708.68,-72.5001"/>
</g>
<!-- Node643 -->
<g id="node7" class="node"><title>Node643</title>
<g id="a_node7"><a xlink:href="namespacedata__catalog__entry.html#a3ea40e0b58c61d01a18065ea3c1b4fcd" target="_top" xlink:title="data_catalog_entry\l::put_values_to_local\l_netcdf_sub">
<polygon fill="white" stroke="black" points="378.299,-0.5 378.299,-41.5 497.65,-41.5 497.65,-0.5 378.299,-0.5"/>
<text text-anchor="start" x="386.299" y="-28.7" font-family="Helvetica,sans-Serif" font-size="11.00">data_catalog_entry</text>
<text text-anchor="start" x="386.299" y="-17.7" font-family="Helvetica,sans-Serif" font-size="11.00">::put_values_to_local</text>
<text text-anchor="middle" x="437.974" y="-6.7" font-family="Helvetica,sans-Serif" font-size="11.00">_netcdf_sub</text>
</a>
</g>
</g>
<!-- Node642&#45;&gt;Node643 -->
<g id="edge6" class="edge"><title>Node642&#45;&gt;Node643</title>
<path fill="none" stroke="midnightblue" d="M339.452,-21C352.597,-21 365.786,-21 378.028,-21"/>
<polygon fill="midnightblue" stroke="midnightblue" points="339.425,-17.5001 329.425,-21 339.424,-24.5001 339.425,-17.5001"/>
</g>
</g>
</svg>
