<?xml version="1.0" encoding="UTF-8" standalone="no"?>
<!DOCTYPE svg PUBLIC "-//W3C//DTD SVG 1.1//EN"
 "http://www.w3.org/Graphics/SVG/1.1/DTD/svg11.dtd">
<!-- Generated by graphviz version 2.38.0 (20140413.2041)
 -->
<!-- Title: model_domain::model_calculate_runoff_gridded_values Pages: 1 -->
<svg width="338pt" height="50pt"
 viewBox="0.00 0.00 338.15 50.00" xmlns="http://www.w3.org/2000/svg" xmlns:xlink="http://www.w3.org/1999/xlink">
<g id="graph0" class="graph" transform="scale(1 1) rotate(0) translate(4 46)">
<title>model_domain::model_calculate_runoff_gridded_values</title>
<polygon fill="white" stroke="none" points="-4,4 -4,-46 334.147,-46 334.147,4 -4,4"/>
<!-- Node305 -->
<g id="node1" class="node"><title>Node305</title>
<polygon fill="#bfbfbf" stroke="black" points="0,-0.5 0,-41.5 142.398,-41.5 142.398,-0.5 0,-0.5"/>
<text text-anchor="start" x="8" y="-28.7" font-family="Helvetica,sans-Serif" font-size="11.00">model_domain::model</text>
<text text-anchor="start" x="8" y="-17.7" font-family="Helvetica,sans-Serif" font-size="11.00">_calculate_runoff_gridded</text>
<text text-anchor="middle" x="71.199" y="-6.7" font-family="Helvetica,sans-Serif" font-size="11.00">_values</text>
</g>
<!-- Node306 -->
<g id="node2" class="node"><title>Node306</title>
<g id="a_node2"><a xlink:href="namespacemodel__domain.html#aac78dbf26ba37cf86ebed4edd7acf89b" target="_top" xlink:title="model_domain::set_method\l_pointers_sub">
<polygon fill="white" stroke="black" points="178.398,-6 178.398,-36 330.147,-36 330.147,-6 178.398,-6"/>
<text text-anchor="start" x="186.398" y="-23.2" font-family="Helvetica,sans-Serif" font-size="11.00">model_domain::set_method</text>
<text text-anchor="middle" x="254.272" y="-12.2" font-family="Helvetica,sans-Serif" font-size="11.00">_pointers_sub</text>
</a>
</g>
</g>
<!-- Node305&#45;&gt;Node306 -->
<g id="edge1" class="edge"><title>Node305&#45;&gt;Node306</title>
<path fill="none" stroke="midnightblue" d="M152.738,-21C161.224,-21 169.829,-21 178.249,-21"/>
<polygon fill="midnightblue" stroke="midnightblue" points="152.466,-17.5001 142.466,-21 152.466,-24.5001 152.466,-17.5001"/>
</g>
</g>
</svg>
