<?xml version="1.0" encoding="UTF-8" standalone="no"?>
<!DOCTYPE svg PUBLIC "-//W3C//DTD SVG 1.1//EN"
 "http://www.w3.org/Graphics/SVG/1.1/DTD/svg11.dtd">
<!-- Generated by graphviz version 2.38.0 (20140413.2041)
 -->
<!-- Title: netcdf4_support::nf_return_dimsize Pages: 1 -->
<!--zoomable 152 -->
<svg id="main" version="1.1" xmlns="http://www.w3.org/2000/svg" xmlns:xlink="http://www.w3.org/1999/xlink" xml:space="preserve" onload="init(evt)">
<style type="text/css"><![CDATA[
.edge:hover path { stroke: red; }
.edge:hover polygon { stroke: red; fill: red; }
]]></style>
<script type="text/javascript"><![CDATA[
var edges = document.getElementsByTagName('g');
if (edges && edges.length) {
  for (var i=0;i<edges.length;i++) {
    if (edges[i].id.substr(0,4)=='edge') {
      edges[i].setAttribute('class','edge');
    }
  }
}
]]></script>
        <defs>
                <circle id="rim" cx="0" cy="0" r="7"/>
                <circle id="rim2" cx="0" cy="0" r="3.5"/>
                <g id="zoomPlus">
                        <use xlink:href="#rim" fill="#404040">
                                <set attributeName="fill" to="#808080" begin="zoomplus.mouseover" end="zoomplus.mouseout"/>
                        </use>
                        <path d="M-4,0h8M0,-4v8" fill="none" stroke="white" stroke-width="1.5" pointer-events="none"/>
                </g>
                <g id="zoomMin">
                        <use xlink:href="#rim" fill="#404040">
                                <set attributeName="fill" to="#808080" begin="zoomminus.mouseover" end="zoomminus.mouseout"/>
                        </use>
                        <path d="M-4,0h8" fill="none" stroke="white" stroke-width="1.5" pointer-events="none"/>
                </g>
                <g id="dirArrow">
                        <path fill="none" stroke="white" stroke-width="1.5" d="M0,-3.0v7 M-2.5,-0.5L0,-3.0L2.5,-0.5"/>
                </g>
               <g id="resetDef">
                       <use xlink:href="#rim2" fill="#404040">
                               <set attributeName="fill" to="#808080" begin="reset.mouseover" end="reset.mouseout"/>
                       </use>
               </g>
        </defs>

<script type="text/javascript">
var viewWidth = 806;
var viewHeight = 152;
var sectionId = 'dynsection-6';
</script>
<script xlink:href="svgpan.js"/>
<svg id="graph" class="graph">
<g id="viewport">
<title>netcdf4_support::nf_return_dimsize</title>
<polygon fill="white" stroke="none" points="-4,4 -4,-147.5 801.649,-147.5 801.649,4 -4,4"/>
<!-- Node1 -->
<g id="node1" class="node"><title>Node1</title>
<polygon fill="#bfbfbf" stroke="black" points="0,-52.5 0,-82.5 110.177,-82.5 110.177,-52.5 0,-52.5"/>
<text text-anchor="start" x="8" y="-69.7" font-family="Helvetica,sans-Serif" font-size="11.00">netcdf4_support::nf</text>
<text text-anchor="middle" x="55.0884" y="-58.7" font-family="Helvetica,sans-Serif" font-size="11.00">_return_dimsize</text>
</g>
<!-- Node2 -->
<g id="node2" class="node"><title>Node2</title>
<g id="a_node2"><a xlink:href="namespacenetcdf4__support.html#a3f9a545cd24a2c66040977e333152f3e" target="_top" xlink:title="netcdf4_support::nf\l_get_first_and_last">
<polygon fill="white" stroke="black" points="146.177,-52.5 146.177,-82.5 256.354,-82.5 256.354,-52.5 146.177,-52.5"/>
<text text-anchor="start" x="154.177" y="-69.7" font-family="Helvetica,sans-Serif" font-size="11.00">netcdf4_support::nf</text>
<text text-anchor="middle" x="201.265" y="-58.7" font-family="Helvetica,sans-Serif" font-size="11.00">_get_first_and_last</text>
</a>
</g>
</g>
<!-- Node1&#45;&gt;Node2 -->
<g id="edge1" class="edge"><title>Node1&#45;&gt;Node2</title>
<path fill="none" stroke="midnightblue" d="M120.437,-67.5C128.928,-67.5 137.564,-67.5 145.866,-67.5"/>
<polygon fill="midnightblue" stroke="midnightblue" points="120.185,-64.0001 110.185,-67.5 120.185,-71.0001 120.185,-64.0001"/>
</g>
<!-- Node3 -->
<g id="node3" class="node"><title>Node3</title>
<g id="a_node3"><a xlink:href="namespacenetcdf4__support.html#a8be734b602e654816c17b5e27d0fbffb" target="_top" xlink:title="netcdf4_support::netcdf\l_open_and_prepare_for\l_merging">
<polygon fill="white" stroke="black" points="306.729,-102 306.729,-143 440.775,-143 440.775,-102 306.729,-102"/>
<text text-anchor="start" x="314.729" y="-130.2" font-family="Helvetica,sans-Serif" font-size="11.00">netcdf4_support::netcdf</text>
<text text-anchor="start" x="314.729" y="-119.2" font-family="Helvetica,sans-Serif" font-size="11.00">_open_and_prepare_for</text>
<text text-anchor="middle" x="373.752" y="-108.2" font-family="Helvetica,sans-Serif" font-size="11.00">_merging</text>
</a>
</g>
</g>
<!-- Node2&#45;&gt;Node3 -->
<g id="edge2" class="edge"><title>Node2&#45;&gt;Node3</title>
<path fill="none" stroke="midnightblue" d="M258.658,-85.6928C274.772,-90.891 292.444,-96.5922 308.966,-101.922"/>
<polygon fill="midnightblue" stroke="midnightblue" points="259.443,-82.2683 248.851,-82.529 257.294,-88.9303 259.443,-82.2683"/>
</g>
<!-- Node4 -->
<g id="node4" class="node"><title>Node4</title>
<g id="a_node4"><a xlink:href="namespacenetcdf4__support.html#a137d06ed171ec8d77e5af2fbb44b0c4c" target="_top" xlink:title="netcdf4_support::netcdf\l_open_and_prepare_as_input">
<polygon fill="white" stroke="black" points="292.354,-3.5 292.354,-33.5 455.151,-33.5 455.151,-3.5 292.354,-3.5"/>
<text text-anchor="start" x="300.354" y="-20.7" font-family="Helvetica,sans-Serif" font-size="11.00">netcdf4_support::netcdf</text>
<text text-anchor="middle" x="373.752" y="-9.7" font-family="Helvetica,sans-Serif" font-size="11.00">_open_and_prepare_as_input</text>
</a>
</g>
</g>
<!-- Node2&#45;&gt;Node4 -->
<g id="edge3" class="edge"><title>Node2&#45;&gt;Node4</title>
<path fill="none" stroke="midnightblue" d="M264.525,-49.6059C282.862,-44.3356 302.733,-38.6245 320.383,-33.5516"/>
<polygon fill="midnightblue" stroke="midnightblue" points="263.452,-46.2724 254.808,-52.3986 265.386,-53 263.452,-46.2724"/>
</g>
<!-- Node8 -->
<g id="node8" class="node"><title>Node8</title>
<g id="a_node8"><a xlink:href="namespacenetcdf4__support.html#a7b3b3cf3aab614eb336e12694c5d76ef" target="_top" xlink:title="netcdf4_support::netcdf\l_open_file">
<polygon fill="white" stroke="black" points="308.268,-52.5 308.268,-82.5 439.236,-82.5 439.236,-52.5 308.268,-52.5"/>
<text text-anchor="start" x="316.268" y="-69.7" font-family="Helvetica,sans-Serif" font-size="11.00">netcdf4_support::netcdf</text>
<text text-anchor="middle" x="373.752" y="-58.7" font-family="Helvetica,sans-Serif" font-size="11.00">_open_file</text>
</a>
</g>
</g>
<!-- Node2&#45;&gt;Node8 -->
<g id="edge8" class="edge"><title>Node2&#45;&gt;Node8</title>
<path fill="none" stroke="midnightblue" d="M266.846,-67.5C280.364,-67.5 294.62,-67.5 308.139,-67.5"/>
<polygon fill="midnightblue" stroke="midnightblue" points="266.677,-64.0001 256.677,-67.5 266.677,-71.0001 266.677,-64.0001"/>
</g>
<!-- Node5 -->
<g id="node5" class="node"><title>Node5</title>
<g id="a_node5"><a xlink:href="namespacedata__catalog__entry.html#aeb285131f87ed64deba0a9041a9c6405" target="_top" xlink:title="data_catalog_entry\l::getvalues_dynamic\l_netcdf_sub">
<polygon fill="white" stroke="black" points="513.476,-50 513.476,-91 629.754,-91 629.754,-50 513.476,-50"/>
<text text-anchor="start" x="521.476" y="-78.2" font-family="Helvetica,sans-Serif" font-size="11.00">data_catalog_entry</text>
<text text-anchor="start" x="521.476" y="-67.2" font-family="Helvetica,sans-Serif" font-size="11.00">::getvalues_dynamic</text>
<text text-anchor="middle" x="571.615" y="-56.2" font-family="Helvetica,sans-Serif" font-size="11.00">_netcdf_sub</text>
</a>
</g>
</g>
<!-- Node4&#45;&gt;Node5 -->
<g id="edge4" class="edge"><title>Node4&#45;&gt;Node5</title>
<path fill="none" stroke="midnightblue" d="M441.264,-36.1584C464.697,-42.3797 490.815,-49.3137 513.412,-55.3131"/>
<polygon fill="midnightblue" stroke="midnightblue" points="441.967,-32.7238 431.404,-33.5406 440.171,-39.4895 441.967,-32.7238"/>
</g>
<!-- Node7 -->
<g id="node7" class="node"><title>Node7</title>
<g id="a_node7"><a xlink:href="namespacedata__catalog__entry.html#ac3e1f0d9d9e146fbb77c0084e1e9fc14" target="_top" xlink:title="data_catalog_entry\l::getvalues_static_netcdf_sub">
<polygon fill="white" stroke="black" points="491.151,-0.5 491.151,-30.5 652.079,-30.5 652.079,-0.5 491.151,-0.5"/>
<text text-anchor="start" x="499.151" y="-17.7" font-family="Helvetica,sans-Serif" font-size="11.00">data_catalog_entry</text>
<text text-anchor="middle" x="571.615" y="-6.7" font-family="Helvetica,sans-Serif" font-size="11.00">::getvalues_static_netcdf_sub</text>
</a>
</g>
</g>
<!-- Node4&#45;&gt;Node7 -->
<g id="edge6" class="edge"><title>Node4&#45;&gt;Node7</title>
<path fill="none" stroke="midnightblue" d="M465.303,-17.1131C473.897,-16.9814 482.567,-16.8486 491.047,-16.7187"/>
<polygon fill="midnightblue" stroke="midnightblue" points="465.21,-13.614 455.265,-17.2668 465.317,-20.6131 465.21,-13.614"/>
</g>
<!-- Node6 -->
<g id="node6" class="node"><title>Node6</title>
<g id="a_node6"><a xlink:href="namespacedata__catalog__entry.html#a9e0a89ab19a5bfd61f2dfb8265648234" target="_top" xlink:title="data_catalog_entry\l::getvalues_sub">
<polygon fill="white" stroke="black" points="688.079,-27.5 688.079,-57.5 797.649,-57.5 797.649,-27.5 688.079,-27.5"/>
<text text-anchor="start" x="696.079" y="-44.7" font-family="Helvetica,sans-Serif" font-size="11.00">data_catalog_entry</text>
<text text-anchor="middle" x="742.864" y="-33.7" font-family="Helvetica,sans-Serif" font-size="11.00">::getvalues_sub</text>
</a>
</g>
</g>
<!-- Node5&#45;&gt;Node6 -->
<g id="edge5" class="edge"><title>Node5&#45;&gt;Node6</title>
<path fill="none" stroke="midnightblue" d="M640.218,-59.3161C656.117,-56.6858 672.852,-53.9172 688.051,-51.4027"/>
<polygon fill="midnightblue" stroke="midnightblue" points="639.21,-55.9351 629.915,-61.0205 640.352,-62.8413 639.21,-55.9351"/>
</g>
<!-- Node7&#45;&gt;Node6 -->
<g id="edge7" class="edge"><title>Node7&#45;&gt;Node6</title>
<path fill="none" stroke="midnightblue" d="M662.421,-29.8267C671.048,-31.2028 679.602,-32.5674 687.723,-33.8631"/>
<polygon fill="midnightblue" stroke="midnightblue" points="662.71,-26.3285 652.284,-28.2094 661.607,-33.2411 662.71,-26.3285"/>
</g>
<!-- Node8&#45;&gt;Node5 -->
<g id="edge9" class="edge"><title>Node8&#45;&gt;Node5</title>
<path fill="none" stroke="midnightblue" d="M449.646,-68.6471C470.746,-68.9703 493.359,-69.3167 513.258,-69.6215"/>
<polygon fill="midnightblue" stroke="midnightblue" points="449.48,-65.1443 439.428,-68.4906 449.373,-72.1435 449.48,-65.1443"/>
</g>
<!-- Node8&#45;&gt;Node7 -->
<g id="edge10" class="edge"><title>Node8&#45;&gt;Node7</title>
<path fill="none" stroke="midnightblue" d="M441.352,-49.8182C464.998,-43.5405 491.367,-36.5397 514.091,-30.5068"/>
<polygon fill="midnightblue" stroke="midnightblue" points="440.171,-46.5105 431.404,-52.4594 441.967,-53.2762 440.171,-46.5105"/>
</g>
</g>
</svg>
        <g id="navigator" transform="translate(0 0)" fill="#404254">
                <rect fill="#f2f5e9" fill-opacity="0.5" stroke="#606060" stroke-width=".5" x="0" y="0" width="60" height="60"/>
                <use id="zoomplus" xlink:href="#zoomPlus" x="17" y="9" onmousedown="handleZoom(evt,'in')"/>
                <use id="zoomminus" xlink:href="#zoomMin" x="42" y="9" onmousedown="handleZoom(evt,'out')"/>
                <use id="reset" xlink:href="#resetDef" x="30" y="36" onmousedown="handleReset()"/>
                <g id="arrowUp" xlink:href="#dirArrow" transform="translate(30 24)" onmousedown="handlePan(0,-1)">
                  <use xlink:href="#rim" fill="#404040">
                        <set attributeName="fill" to="#808080" begin="arrowUp.mouseover" end="arrowUp.mouseout"/>
                  </use>
                  <path fill="none" stroke="white" stroke-width="1.5" d="M0,-3.0v7 M-2.5,-0.5L0,-3.0L2.5,-0.5"/>
                </g>
                <g id="arrowRight" xlink:href="#dirArrow" transform="rotate(90) translate(36 -43)" onmousedown="handlePan(1,0)">
                  <use xlink:href="#rim" fill="#404040">
                        <set attributeName="fill" to="#808080" begin="arrowRight.mouseover" end="arrowRight.mouseout"/>
                  </use>
                  <path fill="none" stroke="white" stroke-width="1.5" d="M0,-3.0v7 M-2.5,-0.5L0,-3.0L2.5,-0.5"/>
                </g>
                <g id="arrowDown" xlink:href="#dirArrow" transform="rotate(180) translate(-30 -48)" onmousedown="handlePan(0,1)">
                  <use xlink:href="#rim" fill="#404040">
                        <set attributeName="fill" to="#808080" begin="arrowDown.mouseover" end="arrowDown.mouseout"/>
                  </use>
                  <path fill="none" stroke="white" stroke-width="1.5" d="M0,-3.0v7 M-2.5,-0.5L0,-3.0L2.5,-0.5"/>
                </g>
                <g id="arrowLeft" xlink:href="#dirArrow" transform="rotate(270) translate(-36 17)" onmousedown="handlePan(-1,0)">
                  <use xlink:href="#rim" fill="#404040">
                        <set attributeName="fill" to="#808080" begin="arrowLeft.mouseover" end="arrowLeft.mouseout"/>
                  </use>
                  <path fill="none" stroke="white" stroke-width="1.5" d="M0,-3.0v7 M-2.5,-0.5L0,-3.0L2.5,-0.5"/>
                </g>
        </g>
        <svg viewBox="0 0 15 15" width="100%" height="30px" preserveAspectRatio="xMaxYMin meet">
         <g id="arrow_out" transform="scale(0.3 0.3)">
          <a xlink:href="namespacenetcdf4__support_a7138fa9ca363dd10d3601c64e7063f6a_icgraph_org.svg" target="_base">
           <rect id="button" ry="5" rx="5" y="6" x="6" height="38" width="38"
                fill="#f2f5e9" fill-opacity="0.5" stroke="#606060" stroke-width="1.0"/>
           <path id="arrow"
             d="M 11.500037,31.436501 C 11.940474,20.09759 22.043105,11.32322 32.158766,21.979434 L 37.068811,17.246167 C 37.068811,17.246167 37.088388,32 37.088388,32 L 22.160133,31.978069 C 22.160133,31.978069 26.997745,27.140456 26.997745,27.140456 C 18.528582,18.264221 13.291696,25.230495 11.500037,31.436501 z"
             style="fill:#404040;"/>
          </a>
         </g>
        </svg>
</svg>
