<?xml version="1.0" encoding="UTF-8" standalone="no"?>
<!DOCTYPE svg PUBLIC "-//W3C//DTD SVG 1.1//EN"
 "http://www.w3.org/Graphics/SVG/1.1/DTD/svg11.dtd">
<!-- Generated by graphviz version 2.38.0 (20140413.2041)
 -->
<!-- Title: precipitation__method_of_fragments::read_fragments_sequence Pages: 1 -->
<svg width="752pt" height="50pt"
 viewBox="0.00 0.00 751.73 50.00" xmlns="http://www.w3.org/2000/svg" xmlns:xlink="http://www.w3.org/1999/xlink">
<g id="graph0" class="graph" transform="scale(1 1) rotate(0) translate(4 46)">
<title>precipitation__method_of_fragments::read_fragments_sequence</title>
<polygon fill="white" stroke="none" points="-4,4 -4,-46 747.726,-46 747.726,4 -4,4"/>
<!-- Node21 -->
<g id="node1" class="node"><title>Node21</title>
<polygon fill="#bfbfbf" stroke="black" points="0,-0.5 0,-41.5 169.474,-41.5 169.474,-0.5 0,-0.5"/>
<text text-anchor="start" x="8" y="-28.7" font-family="Helvetica,sans-Serif" font-size="11.00">precipitation__method</text>
<text text-anchor="start" x="8" y="-17.7" font-family="Helvetica,sans-Serif" font-size="11.00">_of_fragments::read_fragments</text>
<text text-anchor="middle" x="84.7368" y="-6.7" font-family="Helvetica,sans-Serif" font-size="11.00">_sequence</text>
</g>
<!-- Node22 -->
<g id="node2" class="node"><title>Node22</title>
<g id="a_node2"><a xlink:href="namespaceprecipitation____method__of__fragments.html#aa337d594880888091943dc6ef2049d5c" target="_top" xlink:title="Initialize method of fragments. ">
<polygon fill="white" stroke="black" points="205.474,-0.5 205.474,-41.5 379.846,-41.5 379.846,-0.5 205.474,-0.5"/>
<text text-anchor="start" x="213.474" y="-28.7" font-family="Helvetica,sans-Serif" font-size="11.00">precipitation__method</text>
<text text-anchor="start" x="213.474" y="-17.7" font-family="Helvetica,sans-Serif" font-size="11.00">_of_fragments::precipitation</text>
<text text-anchor="middle" x="292.66" y="-6.7" font-family="Helvetica,sans-Serif" font-size="11.00">_method_of_fragments_initialize</text>
</a>
</g>
</g>
<!-- Node21&#45;&gt;Node22 -->
<g id="edge1" class="edge"><title>Node21&#45;&gt;Node22</title>
<path fill="none" stroke="midnightblue" d="M179.521,-21C188.108,-21 196.782,-21 205.299,-21"/>
<polygon fill="midnightblue" stroke="midnightblue" points="179.494,-17.5001 169.494,-21 179.493,-24.5001 179.494,-17.5001"/>
</g>
<!-- Node23 -->
<g id="node3" class="node"><title>Node23</title>
<g id="a_node3"><a xlink:href="namespacemodel__domain.html#a1a4353c536673d3273b23cfc14580194" target="_top" xlink:title="model_domain::model\l_initialize_precip_method\l_of_fragments">
<polygon fill="white" stroke="black" points="415.846,-0.5 415.846,-41.5 555.977,-41.5 555.977,-0.5 415.846,-0.5"/>
<text text-anchor="start" x="423.846" y="-28.7" font-family="Helvetica,sans-Serif" font-size="11.00">model_domain::model</text>
<text text-anchor="start" x="423.846" y="-17.7" font-family="Helvetica,sans-Serif" font-size="11.00">_initialize_precip_method</text>
<text text-anchor="middle" x="485.911" y="-6.7" font-family="Helvetica,sans-Serif" font-size="11.00">_of_fragments</text>
</a>
</g>
</g>
<!-- Node22&#45;&gt;Node23 -->
<g id="edge2" class="edge"><title>Node22&#45;&gt;Node23</title>
<path fill="none" stroke="midnightblue" d="M390.189,-21C398.834,-21 407.468,-21 415.811,-21"/>
<polygon fill="midnightblue" stroke="midnightblue" points="390.053,-17.5001 380.053,-21 390.053,-24.5001 390.053,-17.5001"/>
</g>
<!-- Node24 -->
<g id="node4" class="node"><title>Node24</title>
<g id="a_node4"><a xlink:href="namespacemodel__domain.html#aac78dbf26ba37cf86ebed4edd7acf89b" target="_top" xlink:title="model_domain::set_method\l_pointers_sub">
<polygon fill="white" stroke="black" points="591.977,-6 591.977,-36 743.726,-36 743.726,-6 591.977,-6"/>
<text text-anchor="start" x="599.977" y="-23.2" font-family="Helvetica,sans-Serif" font-size="11.00">model_domain::set_method</text>
<text text-anchor="middle" x="667.852" y="-12.2" font-family="Helvetica,sans-Serif" font-size="11.00">_pointers_sub</text>
</a>
</g>
</g>
<!-- Node23&#45;&gt;Node24 -->
<g id="edge3" class="edge"><title>Node23&#45;&gt;Node24</title>
<path fill="none" stroke="midnightblue" d="M566.457,-21C574.914,-21 583.496,-21 591.898,-21"/>
<polygon fill="midnightblue" stroke="midnightblue" points="566.224,-17.5001 556.224,-21 566.224,-24.5001 566.224,-17.5001"/>
</g>
</g>
</svg>
