<?xml version="1.0" encoding="UTF-8" standalone="no"?>
<!DOCTYPE svg PUBLIC "-//W3C//DTD SVG 1.1//EN"
 "http://www.w3.org/Graphics/SVG/1.1/DTD/svg11.dtd">
<!-- Generated by graphviz version 2.38.0 (20140413.2041)
 -->
<!-- Title: precipitation__method_of_fragments::read_daily_fragments Pages: 1 -->
<svg width="725pt" height="50pt"
 viewBox="0.00 0.00 725.44 50.00" xmlns="http://www.w3.org/2000/svg" xmlns:xlink="http://www.w3.org/1999/xlink">
<g id="graph0" class="graph" transform="scale(1 1) rotate(0) translate(4 46)">
<title>precipitation__method_of_fragments::read_daily_fragments</title>
<polygon fill="white" stroke="none" points="-4,4 -4,-46 721.44,-46 721.44,4 -4,4"/>
<!-- Node1 -->
<g id="node1" class="node"><title>Node1</title>
<polygon fill="#bfbfbf" stroke="black" points="0,-0.5 0,-41.5 143.188,-41.5 143.188,-0.5 0,-0.5"/>
<text text-anchor="start" x="8" y="-28.7" font-family="Helvetica,sans-Serif" font-size="11.00">precipitation__method</text>
<text text-anchor="start" x="8" y="-17.7" font-family="Helvetica,sans-Serif" font-size="11.00">_of_fragments::read_daily</text>
<text text-anchor="middle" x="71.5938" y="-6.7" font-family="Helvetica,sans-Serif" font-size="11.00">_fragments</text>
</g>
<!-- Node2 -->
<g id="node2" class="node"><title>Node2</title>
<g id="a_node2"><a xlink:href="namespaceprecipitation____method__of__fragments.html#aa337d594880888091943dc6ef2049d5c" target="_top" xlink:title="Initialize method of fragments. ">
<polygon fill="white" stroke="black" points="179.188,-0.5 179.188,-41.5 353.56,-41.5 353.56,-0.5 179.188,-0.5"/>
<text text-anchor="start" x="187.188" y="-28.7" font-family="Helvetica,sans-Serif" font-size="11.00">precipitation__method</text>
<text text-anchor="start" x="187.188" y="-17.7" font-family="Helvetica,sans-Serif" font-size="11.00">_of_fragments::precipitation</text>
<text text-anchor="middle" x="266.374" y="-6.7" font-family="Helvetica,sans-Serif" font-size="11.00">_method_of_fragments_initialize</text>
</a>
</g>
</g>
<!-- Node1&#45;&gt;Node2 -->
<g id="edge1" class="edge"><title>Node1&#45;&gt;Node2</title>
<path fill="none" stroke="midnightblue" d="M153.464,-21C161.891,-21 170.481,-21 178.966,-21"/>
<polygon fill="midnightblue" stroke="midnightblue" points="153.283,-17.5001 143.283,-21 153.283,-24.5001 153.283,-17.5001"/>
</g>
<!-- Node3 -->
<g id="node3" class="node"><title>Node3</title>
<g id="a_node3"><a xlink:href="namespacemodel__domain.html#a1a4353c536673d3273b23cfc14580194" target="_top" xlink:title="model_domain::model\l_initialize_precip_method\l_of_fragments">
<polygon fill="white" stroke="black" points="389.56,-0.5 389.56,-41.5 529.691,-41.5 529.691,-0.5 389.56,-0.5"/>
<text text-anchor="start" x="397.56" y="-28.7" font-family="Helvetica,sans-Serif" font-size="11.00">model_domain::model</text>
<text text-anchor="start" x="397.56" y="-17.7" font-family="Helvetica,sans-Serif" font-size="11.00">_initialize_precip_method</text>
<text text-anchor="middle" x="459.625" y="-6.7" font-family="Helvetica,sans-Serif" font-size="11.00">_of_fragments</text>
</a>
</g>
</g>
<!-- Node2&#45;&gt;Node3 -->
<g id="edge2" class="edge"><title>Node2&#45;&gt;Node3</title>
<path fill="none" stroke="midnightblue" d="M363.903,-21C372.547,-21 381.182,-21 389.525,-21"/>
<polygon fill="midnightblue" stroke="midnightblue" points="363.767,-17.5001 353.767,-21 363.767,-24.5001 363.767,-17.5001"/>
</g>
<!-- Node4 -->
<g id="node4" class="node"><title>Node4</title>
<g id="a_node4"><a xlink:href="namespacemodel__domain.html#aac78dbf26ba37cf86ebed4edd7acf89b" target="_top" xlink:title="model_domain::set_method\l_pointers_sub">
<polygon fill="white" stroke="black" points="565.691,-6 565.691,-36 717.44,-36 717.44,-6 565.691,-6"/>
<text text-anchor="start" x="573.691" y="-23.2" font-family="Helvetica,sans-Serif" font-size="11.00">model_domain::set_method</text>
<text text-anchor="middle" x="641.565" y="-12.2" font-family="Helvetica,sans-Serif" font-size="11.00">_pointers_sub</text>
</a>
</g>
</g>
<!-- Node3&#45;&gt;Node4 -->
<g id="edge3" class="edge"><title>Node3&#45;&gt;Node4</title>
<path fill="none" stroke="midnightblue" d="M540.171,-21C548.628,-21 557.21,-21 565.611,-21"/>
<polygon fill="midnightblue" stroke="midnightblue" points="539.937,-17.5001 529.937,-21 539.937,-24.5001 539.937,-17.5001"/>
</g>
</g>
</svg>
