<?xml version="1.0" encoding="UTF-8" standalone="no"?>
<!DOCTYPE svg PUBLIC "-//W3C//DTD SVG 1.1//EN"
 "http://www.w3.org/Graphics/SVG/1.1/DTD/svg11.dtd">
<!-- Generated by graphviz version 2.38.0 (20140413.2041)
 -->
<!-- Title: model_domain::model_read_available_water_content_depth_integrated Pages: 1 -->
<svg width="349pt" height="50pt"
 viewBox="0.00 0.00 349.38 50.00" xmlns="http://www.w3.org/2000/svg" xmlns:xlink="http://www.w3.org/1999/xlink">
<g id="graph0" class="graph" transform="scale(1 1) rotate(0) translate(4 46)">
<title>model_domain::model_read_available_water_content_depth_integrated</title>
<polygon fill="white" stroke="none" points="-4,4 -4,-46 345.383,-46 345.383,4 -4,4"/>
<!-- Node349 -->
<g id="node1" class="node"><title>Node349</title>
<polygon fill="#bfbfbf" stroke="black" points="0,-0.5 0,-41.5 146.888,-41.5 146.888,-0.5 0,-0.5"/>
<text text-anchor="start" x="8" y="-28.7" font-family="Helvetica,sans-Serif" font-size="11.00">model_domain::model</text>
<text text-anchor="start" x="8" y="-17.7" font-family="Helvetica,sans-Serif" font-size="11.00">_read_available_water</text>
<text text-anchor="middle" x="73.4441" y="-6.7" font-family="Helvetica,sans-Serif" font-size="11.00">_content_depth_integrated</text>
</g>
<!-- Node350 -->
<g id="node2" class="node"><title>Node350</title>
<g id="a_node2"><a xlink:href="namespaceawc____depth__integrated.html#a92ffc36cdbe2125edc2eb11de92410b5" target="_top" xlink:title="awc__depth_integrated\l::awc_depth_integrated_read">
<polygon fill="white" stroke="black" points="182.888,-6 182.888,-36 341.383,-36 341.383,-6 182.888,-6"/>
<text text-anchor="start" x="190.888" y="-23.2" font-family="Helvetica,sans-Serif" font-size="11.00">awc__depth_integrated</text>
<text text-anchor="middle" x="262.136" y="-12.2" font-family="Helvetica,sans-Serif" font-size="11.00">::awc_depth_integrated_read</text>
</a>
</g>
</g>
<!-- Node349&#45;&gt;Node350 -->
<g id="edge1" class="edge"><title>Node349&#45;&gt;Node350</title>
<path fill="none" stroke="midnightblue" d="M146.891,-21C155.363,-21 164.077,-21 172.734,-21"/>
<polygon fill="midnightblue" stroke="midnightblue" points="172.853,-24.5001 182.853,-21 172.853,-17.5001 172.853,-24.5001"/>
</g>
</g>
</svg>
