<?xml version="1.0" encoding="UTF-8" standalone="no"?>
<!DOCTYPE svg PUBLIC "-//W3C//DTD SVG 1.1//EN"
 "http://www.w3.org/Graphics/SVG/1.1/DTD/svg11.dtd">
<!-- Generated by graphviz version 2.38.0 (20140413.2041)
 -->
<!-- Title: netcdf4_support::nf_populate_dimension_struct Pages: 1 -->
<svg width="670pt" height="157pt"
 viewBox="0.00 0.00 669.88 157.00" xmlns="http://www.w3.org/2000/svg" xmlns:xlink="http://www.w3.org/1999/xlink">
<g id="graph0" class="graph" transform="scale(1 1) rotate(0) translate(4 153)">
<title>netcdf4_support::nf_populate_dimension_struct</title>
<polygon fill="white" stroke="none" points="-4,4 -4,-153 665.876,-153 665.876,4 -4,4"/>
<!-- Node307 -->
<g id="node1" class="node"><title>Node307</title>
<polygon fill="#bfbfbf" stroke="black" points="0,-55.5 0,-96.5 120.581,-96.5 120.581,-55.5 0,-55.5"/>
<text text-anchor="start" x="8" y="-83.7" font-family="Helvetica,sans-Serif" font-size="11.00">netcdf4_support::nf</text>
<text text-anchor="start" x="8" y="-72.7" font-family="Helvetica,sans-Serif" font-size="11.00">_populate_dimension</text>
<text text-anchor="middle" x="60.2903" y="-61.7" font-family="Helvetica,sans-Serif" font-size="11.00">_struct</text>
</g>
<!-- Node308 -->
<g id="node2" class="node"><title>Node308</title>
<g id="a_node2"><a xlink:href="namespacenetcdf4__support.html#a6d3d402059d71a8bd24a01dc6116ff7d" target="_top" xlink:title="netcdf4_support::netcdf\l_open_and_prepare_as_input">
<polygon fill="white" stroke="black" points="156.581,-61 156.581,-91 319.378,-91 319.378,-61 156.581,-61"/>
<text text-anchor="start" x="164.581" y="-78.2" font-family="Helvetica,sans-Serif" font-size="11.00">netcdf4_support::netcdf</text>
<text text-anchor="middle" x="237.979" y="-67.2" font-family="Helvetica,sans-Serif" font-size="11.00">_open_and_prepare_as_input</text>
</a>
</g>
</g>
<!-- Node307&#45;&gt;Node308 -->
<g id="edge1" class="edge"><title>Node307&#45;&gt;Node308</title>
<path fill="none" stroke="midnightblue" d="M130.857,-76C139.238,-76 147.852,-76 156.374,-76"/>
<polygon fill="midnightblue" stroke="midnightblue" points="130.771,-72.5001 120.771,-76 130.771,-79.5001 130.771,-72.5001"/>
</g>
<!-- Node312 -->
<g id="node6" class="node"><title>Node312</title>
<g id="a_node6"><a xlink:href="namespacenetcdf4__support.html#a8be734b602e654816c17b5e27d0fbffb" target="_top" xlink:title="netcdf4_support::netcdf\l_open_and_prepare_for\l_merging">
<polygon fill="white" stroke="black" points="170.956,-0.5 170.956,-41.5 305.002,-41.5 305.002,-0.5 170.956,-0.5"/>
<text text-anchor="start" x="178.956" y="-28.7" font-family="Helvetica,sans-Serif" font-size="11.00">netcdf4_support::netcdf</text>
<text text-anchor="start" x="178.956" y="-17.7" font-family="Helvetica,sans-Serif" font-size="11.00">_open_and_prepare_for</text>
<text text-anchor="middle" x="237.979" y="-6.7" font-family="Helvetica,sans-Serif" font-size="11.00">_merging</text>
</a>
</g>
</g>
<!-- Node307&#45;&gt;Node312 -->
<g id="edge6" class="edge"><title>Node307&#45;&gt;Node312</title>
<path fill="none" stroke="midnightblue" d="M130.425,-54.3573C143.858,-50.152 157.903,-45.7551 171.223,-41.5851"/>
<polygon fill="midnightblue" stroke="midnightblue" points="129.268,-51.0517 120.771,-57.3795 131.36,-57.732 129.268,-51.0517"/>
</g>
<!-- Node313 -->
<g id="node7" class="node"><title>Node313</title>
<g id="a_node7"><a xlink:href="namespacenetcdf4__support.html#a7b3b3cf3aab614eb336e12694c5d76ef" target="_top" xlink:title="netcdf4_support::netcdf\l_open_file">
<polygon fill="white" stroke="black" points="172.495,-110 172.495,-140 303.463,-140 303.463,-110 172.495,-110"/>
<text text-anchor="start" x="180.495" y="-127.2" font-family="Helvetica,sans-Serif" font-size="11.00">netcdf4_support::netcdf</text>
<text text-anchor="middle" x="237.979" y="-116.2" font-family="Helvetica,sans-Serif" font-size="11.00">_open_file</text>
</a>
</g>
</g>
<!-- Node307&#45;&gt;Node313 -->
<g id="edge7" class="edge"><title>Node307&#45;&gt;Node313</title>
<path fill="none" stroke="midnightblue" d="M130.876,-95.4076C148.273,-100.26 166.669,-105.39 183.17,-109.993"/>
<polygon fill="midnightblue" stroke="midnightblue" points="131.343,-91.9044 120.771,-92.5892 129.463,-98.6471 131.343,-91.9044"/>
</g>
<!-- Node309 -->
<g id="node3" class="node"><title>Node309</title>
<g id="a_node3"><a xlink:href="namespacedata__catalog__entry.html#aeb285131f87ed64deba0a9041a9c6405" target="_top" xlink:title="data_catalog_entry\l::getvalues_dynamic\l_netcdf_sub">
<polygon fill="white" stroke="black" points="377.703,-107.5 377.703,-148.5 493.981,-148.5 493.981,-107.5 377.703,-107.5"/>
<text text-anchor="start" x="385.703" y="-135.7" font-family="Helvetica,sans-Serif" font-size="11.00">data_catalog_entry</text>
<text text-anchor="start" x="385.703" y="-124.7" font-family="Helvetica,sans-Serif" font-size="11.00">::getvalues_dynamic</text>
<text text-anchor="middle" x="435.842" y="-113.7" font-family="Helvetica,sans-Serif" font-size="11.00">_netcdf_sub</text>
</a>
</g>
</g>
<!-- Node308&#45;&gt;Node309 -->
<g id="edge2" class="edge"><title>Node308&#45;&gt;Node309</title>
<path fill="none" stroke="midnightblue" d="M305.491,-93.6584C328.924,-99.8797 355.042,-106.814 377.639,-112.813"/>
<polygon fill="midnightblue" stroke="midnightblue" points="306.194,-90.2238 295.631,-91.0406 304.398,-96.9895 306.194,-90.2238"/>
</g>
<!-- Node311 -->
<g id="node5" class="node"><title>Node311</title>
<g id="a_node5"><a xlink:href="namespacedata__catalog__entry.html#ac3e1f0d9d9e146fbb77c0084e1e9fc14" target="_top" xlink:title="data_catalog_entry\l::getvalues_static_netcdf_sub">
<polygon fill="white" stroke="black" points="355.378,-58 355.378,-88 516.306,-88 516.306,-58 355.378,-58"/>
<text text-anchor="start" x="363.378" y="-75.2" font-family="Helvetica,sans-Serif" font-size="11.00">data_catalog_entry</text>
<text text-anchor="middle" x="435.842" y="-64.2" font-family="Helvetica,sans-Serif" font-size="11.00">::getvalues_static_netcdf_sub</text>
</a>
</g>
</g>
<!-- Node308&#45;&gt;Node311 -->
<g id="edge4" class="edge"><title>Node308&#45;&gt;Node311</title>
<path fill="none" stroke="midnightblue" d="M329.53,-74.6131C338.124,-74.4814 346.794,-74.3486 355.274,-74.2187"/>
<polygon fill="midnightblue" stroke="midnightblue" points="329.437,-71.114 319.492,-74.7668 329.545,-78.1131 329.437,-71.114"/>
</g>
<!-- Node310 -->
<g id="node4" class="node"><title>Node310</title>
<g id="a_node4"><a xlink:href="namespacedata__catalog__entry.html#a9e0a89ab19a5bfd61f2dfb8265648234" target="_top" xlink:title="data_catalog_entry\l::getvalues_sub">
<polygon fill="white" stroke="black" points="552.306,-85 552.306,-115 661.876,-115 661.876,-85 552.306,-85"/>
<text text-anchor="start" x="560.306" y="-102.2" font-family="Helvetica,sans-Serif" font-size="11.00">data_catalog_entry</text>
<text text-anchor="middle" x="607.091" y="-91.2" font-family="Helvetica,sans-Serif" font-size="11.00">::getvalues_sub</text>
</a>
</g>
</g>
<!-- Node309&#45;&gt;Node310 -->
<g id="edge3" class="edge"><title>Node309&#45;&gt;Node310</title>
<path fill="none" stroke="midnightblue" d="M504.445,-116.816C520.344,-114.186 537.079,-111.417 552.278,-108.903"/>
<polygon fill="midnightblue" stroke="midnightblue" points="503.437,-113.435 494.142,-118.52 504.579,-120.341 503.437,-113.435"/>
</g>
<!-- Node311&#45;&gt;Node310 -->
<g id="edge5" class="edge"><title>Node311&#45;&gt;Node310</title>
<path fill="none" stroke="midnightblue" d="M526.649,-87.3267C535.275,-88.7028 543.829,-90.0674 551.951,-91.3631"/>
<polygon fill="midnightblue" stroke="midnightblue" points="526.937,-83.8285 516.511,-85.7094 525.834,-90.7411 526.937,-83.8285"/>
</g>
<!-- Node313&#45;&gt;Node309 -->
<g id="edge8" class="edge"><title>Node313&#45;&gt;Node309</title>
<path fill="none" stroke="midnightblue" d="M313.873,-126.147C334.974,-126.47 357.586,-126.817 377.485,-127.121"/>
<polygon fill="midnightblue" stroke="midnightblue" points="313.707,-122.644 303.655,-125.991 313.6,-129.643 313.707,-122.644"/>
</g>
<!-- Node313&#45;&gt;Node311 -->
<g id="edge9" class="edge"><title>Node313&#45;&gt;Node311</title>
<path fill="none" stroke="midnightblue" d="M305.579,-107.318C329.225,-101.041 355.594,-94.0397 378.318,-88.0068"/>
<polygon fill="midnightblue" stroke="midnightblue" points="304.398,-104.011 295.631,-109.959 306.194,-110.776 304.398,-104.011"/>
</g>
</g>
</svg>
