<?xml version="1.0" encoding="UTF-8" standalone="no"?>
<!DOCTYPE svg PUBLIC "-//W3C//DTD SVG 1.1//EN"
 "http://www.w3.org/Graphics/SVG/1.1/DTD/svg11.dtd">
<!-- Generated by graphviz version 2.38.0 (20140413.2041)
 -->
<!-- Title: netcdf4_support::nf_get_variable_slice_float Pages: 1 -->
<svg width="654pt" height="138pt"
 viewBox="0.00 0.00 653.92 138.00" xmlns="http://www.w3.org/2000/svg" xmlns:xlink="http://www.w3.org/1999/xlink">
<g id="graph0" class="graph" transform="scale(1 1) rotate(0) translate(4 134)">
<title>netcdf4_support::nf_get_variable_slice_float</title>
<polygon fill="white" stroke="none" points="-4,4 -4,-134 649.924,-134 649.924,4 -4,4"/>
<!-- Node388 -->
<g id="node1" class="node"><title>Node388</title>
<polygon fill="#bfbfbf" stroke="black" points="0,-39 0,-69 137.081,-69 137.081,-39 0,-39"/>
<text text-anchor="start" x="8" y="-56.2" font-family="Helvetica,sans-Serif" font-size="11.00">netcdf4_support::nf</text>
<text text-anchor="middle" x="68.5403" y="-45.2" font-family="Helvetica,sans-Serif" font-size="11.00">_get_variable_slice_float</text>
</g>
<!-- Node389 -->
<g id="node2" class="node"><title>Node389</title>
<g id="a_node2"><a xlink:href="namespacenetcdf4__support.html#ac3c409eb9f982ba5d379b805a6477d03" target="_top" xlink:title="netcdf4_support::nf\l_get_variable_array\l_as_vector_float">
<polygon fill="white" stroke="black" points="173.081,-88.5 173.081,-129.5 286.308,-129.5 286.308,-88.5 173.081,-88.5"/>
<text text-anchor="start" x="181.081" y="-116.7" font-family="Helvetica,sans-Serif" font-size="11.00">netcdf4_support::nf</text>
<text text-anchor="start" x="181.081" y="-105.7" font-family="Helvetica,sans-Serif" font-size="11.00">_get_variable_array</text>
<text text-anchor="middle" x="229.694" y="-94.7" font-family="Helvetica,sans-Serif" font-size="11.00">_as_vector_float</text>
</a>
</g>
</g>
<!-- Node388&#45;&gt;Node389 -->
<g id="edge1" class="edge"><title>Node388&#45;&gt;Node389</title>
<path fill="none" stroke="midnightblue" d="M113.03,-69.029C128.494,-74.3731 146.265,-80.5143 163.163,-86.354"/>
<polygon fill="midnightblue" stroke="midnightblue" points="162.393,-89.7909 172.988,-89.7492 164.68,-83.1748 162.393,-89.7909"/>
</g>
<!-- Node392 -->
<g id="node5" class="node"><title>Node392</title>
<g id="a_node5"><a xlink:href="namespacenetcdf4__support.html#a26ac7fa9681548ec954f9cec8fbfa3b2" target="_top" xlink:title="netcdf4_support::nf\l_return_varindex">
<polygon fill="white" stroke="black" points="174.606,-39 174.606,-69 284.783,-69 284.783,-39 174.606,-39"/>
<text text-anchor="start" x="182.606" y="-56.2" font-family="Helvetica,sans-Serif" font-size="11.00">netcdf4_support::nf</text>
<text text-anchor="middle" x="229.694" y="-45.2" font-family="Helvetica,sans-Serif" font-size="11.00">_return_varindex</text>
</a>
</g>
</g>
<!-- Node388&#45;&gt;Node392 -->
<g id="edge4" class="edge"><title>Node388&#45;&gt;Node392</title>
<path fill="none" stroke="midnightblue" d="M137.498,-54C146.363,-54 155.426,-54 164.232,-54"/>
<polygon fill="midnightblue" stroke="midnightblue" points="164.425,-57.5001 174.425,-54 164.425,-50.5001 164.425,-57.5001"/>
</g>
<!-- Node393 -->
<g id="node6" class="node"><title>Node393</title>
<g id="a_node6"><a xlink:href="namespaceexceptions.html#a84dd04476b06e0a398bfe6d106a82a4d" target="_top" xlink:title="exceptions::warn">
<polygon fill="white" stroke="black" points="180.423,-0.5 180.423,-19.5 278.966,-19.5 278.966,-0.5 180.423,-0.5"/>
<text text-anchor="middle" x="229.694" y="-6.7" font-family="Helvetica,sans-Serif" font-size="11.00">exceptions::warn</text>
</a>
</g>
</g>
<!-- Node388&#45;&gt;Node393 -->
<g id="edge5" class="edge"><title>Node388&#45;&gt;Node393</title>
<path fill="none" stroke="midnightblue" d="M123.867,-38.9808C143.56,-33.5362 165.556,-27.4554 184.294,-22.2751"/>
<polygon fill="midnightblue" stroke="midnightblue" points="185.343,-25.6165 194.048,-19.5783 183.477,-18.8696 185.343,-25.6165"/>
</g>
<!-- Node390 -->
<g id="node3" class="node"><title>Node390</title>
<g id="a_node3"><a xlink:href="namespacenetcdf4__support.html#ac8c7276a5849ae6d17ffef1787e3f234" target="_top" xlink:title="netcdf4_support::nf_trap">
<polygon fill="white" stroke="black" points="322.308,-99.5 322.308,-118.5 457.557,-118.5 457.557,-99.5 322.308,-99.5"/>
<text text-anchor="middle" x="389.933" y="-105.7" font-family="Helvetica,sans-Serif" font-size="11.00">netcdf4_support::nf_trap</text>
</a>
</g>
</g>
<!-- Node389&#45;&gt;Node390 -->
<g id="edge2" class="edge"><title>Node389&#45;&gt;Node390</title>
<path fill="none" stroke="midnightblue" d="M286.483,-109C294.797,-109 303.489,-109 312.143,-109"/>
<polygon fill="midnightblue" stroke="midnightblue" points="312.261,-112.5 322.261,-109 312.261,-105.5 312.261,-112.5"/>
</g>
<!-- Node391 -->
<g id="node4" class="node"><title>Node391</title>
<g id="a_node4"><a xlink:href="namespaceconstants__and__conversions.html#ac13fba285229deab77131132e6f62caf" target="_top" xlink:title="constants_and_conversions\l::char_ptr_to_fortran_string">
<polygon fill="white" stroke="black" points="493.557,-94 493.557,-124 645.924,-124 645.924,-94 493.557,-94"/>
<text text-anchor="start" x="501.557" y="-111.2" font-family="Helvetica,sans-Serif" font-size="11.00">constants_and_conversions</text>
<text text-anchor="middle" x="569.74" y="-100.2" font-family="Helvetica,sans-Serif" font-size="11.00">::char_ptr_to_fortran_string</text>
</a>
</g>
</g>
<!-- Node390&#45;&gt;Node391 -->
<g id="edge3" class="edge"><title>Node390&#45;&gt;Node391</title>
<path fill="none" stroke="midnightblue" d="M457.648,-109C466.005,-109 474.642,-109 483.237,-109"/>
<polygon fill="midnightblue" stroke="midnightblue" points="483.288,-112.5 493.288,-109 483.288,-105.5 483.288,-112.5"/>
</g>
</g>
</svg>
