<?xml version="1.0" encoding="UTF-8" standalone="no"?>
<!DOCTYPE svg PUBLIC "-//W3C//DTD SVG 1.1//EN"
 "http://www.w3.org/Graphics/SVG/1.1/DTD/svg11.dtd">
<!-- Generated by graphviz version 2.38.0 (20140413.2041)
 -->
<!-- Title: model_domain::model_calculate_interception_bucket Pages: 1 -->
<svg width="290pt" height="50pt"
 viewBox="0.00 0.00 290.03 50.00" xmlns="http://www.w3.org/2000/svg" xmlns:xlink="http://www.w3.org/1999/xlink">
<g id="graph0" class="graph" transform="scale(1 1) rotate(0) translate(4 46)">
<title>model_domain::model_calculate_interception_bucket</title>
<polygon fill="white" stroke="none" points="-4,4 -4,-46 286.033,-46 286.033,4 -4,4"/>
<!-- Node1 -->
<g id="node1" class="node"><title>Node1</title>
<polygon fill="#bfbfbf" stroke="black" points="0,-0.5 0,-41.5 128.519,-41.5 128.519,-0.5 0,-0.5"/>
<text text-anchor="start" x="8" y="-28.7" font-family="Helvetica,sans-Serif" font-size="11.00">model_domain::model</text>
<text text-anchor="start" x="8" y="-17.7" font-family="Helvetica,sans-Serif" font-size="11.00">_calculate_interception</text>
<text text-anchor="middle" x="64.2595" y="-6.7" font-family="Helvetica,sans-Serif" font-size="11.00">_bucket</text>
</g>
<!-- Node2 -->
<g id="node2" class="node"><title>Node2</title>
<g id="a_node2"><a xlink:href="namespaceinterception____bucket.html#ad0bc93d42b5b7092b18f8dc95565476e" target="_top" xlink:title="interception__bucket\l::interception_bucket\l_calculate">
<polygon fill="white" stroke="black" points="164.519,-0.5 164.519,-41.5 282.033,-41.5 282.033,-0.5 164.519,-0.5"/>
<text text-anchor="start" x="172.519" y="-28.7" font-family="Helvetica,sans-Serif" font-size="11.00">interception__bucket</text>
<text text-anchor="start" x="172.519" y="-17.7" font-family="Helvetica,sans-Serif" font-size="11.00">::interception_bucket</text>
<text text-anchor="middle" x="223.276" y="-6.7" font-family="Helvetica,sans-Serif" font-size="11.00">_calculate</text>
</a>
</g>
</g>
<!-- Node1&#45;&gt;Node2 -->
<g id="edge1" class="edge"><title>Node1&#45;&gt;Node2</title>
<path fill="none" stroke="midnightblue" d="M128.671,-21C137.082,-21 145.733,-21 154.219,-21"/>
<polygon fill="midnightblue" stroke="midnightblue" points="154.459,-24.5001 164.459,-21 154.459,-17.5001 154.459,-24.5001"/>
</g>
</g>
</svg>
