<?xml version="1.0" encoding="UTF-8" standalone="no"?>
<!DOCTYPE svg PUBLIC "-//W3C//DTD SVG 1.1//EN"
 "http://www.w3.org/Graphics/SVG/1.1/DTD/svg11.dtd">
<!-- Generated by graphviz version 2.38.0 (20140413.2041)
 -->
<!-- Title: model_domain::initialize_arrays_sub Pages: 1 -->
<svg width="276pt" height="66pt"
 viewBox="0.00 0.00 275.94 66.00" xmlns="http://www.w3.org/2000/svg" xmlns:xlink="http://www.w3.org/1999/xlink">
<g id="graph0" class="graph" transform="scale(1 1) rotate(0) translate(4 62)">
<title>model_domain::initialize_arrays_sub</title>
<polygon fill="white" stroke="none" points="-4,4 -4,-62 271.939,-62 271.939,4 -4,4"/>
<!-- Node1 -->
<g id="node1" class="node"><title>Node1</title>
<polygon fill="#bfbfbf" stroke="black" points="0,-14 0,-44 133.396,-44 133.396,-14 0,-14"/>
<text text-anchor="start" x="8" y="-31.2" font-family="Helvetica,sans-Serif" font-size="11.00">model_domain::initialize</text>
<text text-anchor="middle" x="66.698" y="-20.2" font-family="Helvetica,sans-Serif" font-size="11.00">_arrays_sub</text>
</g>
<!-- Node2 -->
<g id="node2" class="node"><title>Node2</title>
<g id="a_node2"><a xlink:href="namespaceexceptions.html#a22a1bf2808fdc249e6b378ee3f221156" target="_top" xlink:title="exceptions::die">
<polygon fill="white" stroke="black" points="173.978,-38.5 173.978,-57.5 263.357,-57.5 263.357,-38.5 173.978,-38.5"/>
<text text-anchor="middle" x="218.667" y="-44.7" font-family="Helvetica,sans-Serif" font-size="11.00">exceptions::die</text>
</a>
</g>
</g>
<!-- Node1&#45;&gt;Node2 -->
<g id="edge1" class="edge"><title>Node1&#45;&gt;Node2</title>
<path fill="none" stroke="midnightblue" d="M133.477,-37.3337C143.64,-38.6213 154.033,-39.938 163.892,-41.1871"/>
<polygon fill="midnightblue" stroke="midnightblue" points="163.581,-44.6756 173.942,-42.4603 164.461,-37.7311 163.581,-44.6756"/>
</g>
<!-- Node3 -->
<g id="node3" class="node"><title>Node3</title>
<g id="a_node3"><a xlink:href="namespaceexceptions.html#a84dd04476b06e0a398bfe6d106a82a4d" target="_top" xlink:title="exceptions::warn">
<polygon fill="white" stroke="black" points="169.396,-0.5 169.396,-19.5 267.939,-19.5 267.939,-0.5 169.396,-0.5"/>
<text text-anchor="middle" x="218.667" y="-6.7" font-family="Helvetica,sans-Serif" font-size="11.00">exceptions::warn</text>
</a>
</g>
</g>
<!-- Node1&#45;&gt;Node3 -->
<g id="edge2" class="edge"><title>Node1&#45;&gt;Node3</title>
<path fill="none" stroke="midnightblue" d="M133.477,-20.6663C141.981,-19.5889 150.646,-18.4911 159.025,-17.4295"/>
<polygon fill="midnightblue" stroke="midnightblue" points="159.593,-20.8857 169.074,-16.1565 158.713,-13.9412 159.593,-20.8857"/>
</g>
</g>
</svg>
