<?xml version="1.0" encoding="UTF-8" standalone="no"?>
<!DOCTYPE svg PUBLIC "-//W3C//DTD SVG 1.1//EN"
 "http://www.w3.org/Graphics/SVG/1.1/DTD/svg11.dtd">
<!-- Generated by graphviz version 2.38.0 (20140413.2041)
 -->
<!-- Title: netcdf4_support::nf_populate_variable_struct Pages: 1 -->
<!--zoomable 157 -->
<svg id="main" version="1.1" xmlns="http://www.w3.org/2000/svg" xmlns:xlink="http://www.w3.org/1999/xlink" xml:space="preserve" onload="init(evt)">
<style type="text/css"><![CDATA[
.edge:hover path { stroke: red; }
.edge:hover polygon { stroke: red; fill: red; }
]]></style>
<script type="text/javascript"><![CDATA[
var edges = document.getElementsByTagName('g');
if (edges && edges.length) {
  for (var i=0;i<edges.length;i++) {
    if (edges[i].id.substr(0,4)=='edge') {
      edges[i].setAttribute('class','edge');
    }
  }
}
]]></script>
        <defs>
                <circle id="rim" cx="0" cy="0" r="7"/>
                <circle id="rim2" cx="0" cy="0" r="3.5"/>
                <g id="zoomPlus">
                        <use xlink:href="#rim" fill="#404040">
                                <set attributeName="fill" to="#808080" begin="zoomplus.mouseover" end="zoomplus.mouseout"/>
                        </use>
                        <path d="M-4,0h8M0,-4v8" fill="none" stroke="white" stroke-width="1.5" pointer-events="none"/>
                </g>
                <g id="zoomMin">
                        <use xlink:href="#rim" fill="#404040">
                                <set attributeName="fill" to="#808080" begin="zoomminus.mouseover" end="zoomminus.mouseout"/>
                        </use>
                        <path d="M-4,0h8" fill="none" stroke="white" stroke-width="1.5" pointer-events="none"/>
                </g>
                <g id="dirArrow">
                        <path fill="none" stroke="white" stroke-width="1.5" d="M0,-3.0v7 M-2.5,-0.5L0,-3.0L2.5,-0.5"/>
                </g>
               <g id="resetDef">
                       <use xlink:href="#rim2" fill="#404040">
                               <set attributeName="fill" to="#808080" begin="reset.mouseover" end="reset.mouseout"/>
                       </use>
               </g>
        </defs>

<script type="text/javascript">
var viewWidth = 691;
var viewHeight = 157;
var sectionId = 'dynsection-33';
</script>
<script xlink:href="svgpan.js"/>
<svg id="graph" class="graph">
<g id="viewport">
<title>netcdf4_support::nf_populate_variable_struct</title>
<polygon fill="white" stroke="none" points="-4,4 -4,-153 687.269,-153 687.269,4 -4,4"/>
<!-- Node319 -->
<g id="node1" class="node"><title>Node319</title>
<polygon fill="#bfbfbf" stroke="black" points="0,-61 0,-91 141.974,-91 141.974,-61 0,-61"/>
<text text-anchor="start" x="8" y="-78.2" font-family="Helvetica,sans-Serif" font-size="11.00">netcdf4_support::nf</text>
<text text-anchor="middle" x="70.9868" y="-67.2" font-family="Helvetica,sans-Serif" font-size="11.00">_populate_variable_struct</text>
</g>
<!-- Node320 -->
<g id="node2" class="node"><title>Node320</title>
<g id="a_node2"><a xlink:href="namespacenetcdf4__support.html#a6d3d402059d71a8bd24a01dc6116ff7d" target="_top" xlink:title="netcdf4_support::netcdf\l_open_and_prepare_as_input">
<polygon fill="white" stroke="black" points="177.974,-61 177.974,-91 340.771,-91 340.771,-61 177.974,-61"/>
<text text-anchor="start" x="185.974" y="-78.2" font-family="Helvetica,sans-Serif" font-size="11.00">netcdf4_support::netcdf</text>
<text text-anchor="middle" x="259.372" y="-67.2" font-family="Helvetica,sans-Serif" font-size="11.00">_open_and_prepare_as_input</text>
</a>
</g>
</g>
<!-- Node319&#45;&gt;Node320 -->
<g id="edge1" class="edge"><title>Node319&#45;&gt;Node320</title>
<path fill="none" stroke="midnightblue" d="M152.407,-76C160.86,-76 169.457,-76 177.911,-76"/>
<polygon fill="midnightblue" stroke="midnightblue" points="152.186,-72.5001 142.186,-76 152.186,-79.5001 152.186,-72.5001"/>
</g>
<!-- Node324 -->
<g id="node6" class="node"><title>Node324</title>
<g id="a_node6"><a xlink:href="namespacenetcdf4__support.html#a8be734b602e654816c17b5e27d0fbffb" target="_top" xlink:title="netcdf4_support::netcdf\l_open_and_prepare_for\l_merging">
<polygon fill="white" stroke="black" points="192.349,-0.5 192.349,-41.5 326.395,-41.5 326.395,-0.5 192.349,-0.5"/>
<text text-anchor="start" x="200.349" y="-28.7" font-family="Helvetica,sans-Serif" font-size="11.00">netcdf4_support::netcdf</text>
<text text-anchor="start" x="200.349" y="-17.7" font-family="Helvetica,sans-Serif" font-size="11.00">_open_and_prepare_for</text>
<text text-anchor="middle" x="259.372" y="-6.7" font-family="Helvetica,sans-Serif" font-size="11.00">_merging</text>
</a>
</g>
</g>
<!-- Node319&#45;&gt;Node324 -->
<g id="edge6" class="edge"><title>Node319&#45;&gt;Node324</title>
<path fill="none" stroke="midnightblue" d="M132.649,-58.0994C151.656,-52.4905 172.728,-46.2725 192.102,-40.5555"/>
<polygon fill="midnightblue" stroke="midnightblue" points="131.518,-54.7838 122.917,-60.971 133.499,-61.4976 131.518,-54.7838"/>
</g>
<!-- Node325 -->
<g id="node7" class="node"><title>Node325</title>
<g id="a_node7"><a xlink:href="namespacenetcdf4__support.html#a7b3b3cf3aab614eb336e12694c5d76ef" target="_top" xlink:title="netcdf4_support::netcdf\l_open_file">
<polygon fill="white" stroke="black" points="193.888,-110 193.888,-140 324.856,-140 324.856,-110 193.888,-110"/>
<text text-anchor="start" x="201.888" y="-127.2" font-family="Helvetica,sans-Serif" font-size="11.00">netcdf4_support::netcdf</text>
<text text-anchor="middle" x="259.372" y="-116.2" font-family="Helvetica,sans-Serif" font-size="11.00">_open_file</text>
</a>
</g>
</g>
<!-- Node319&#45;&gt;Node325 -->
<g id="edge7" class="edge"><title>Node319&#45;&gt;Node325</title>
<path fill="none" stroke="midnightblue" d="M139.02,-93.6229C159.412,-98.9837 181.622,-104.823 201.292,-109.994"/>
<polygon fill="midnightblue" stroke="midnightblue" points="139.737,-90.1923 129.175,-91.0346 137.957,-96.9622 139.737,-90.1923"/>
</g>
<!-- Node321 -->
<g id="node3" class="node"><title>Node321</title>
<g id="a_node3"><a xlink:href="namespacedata__catalog__entry.html#aeb285131f87ed64deba0a9041a9c6405" target="_top" xlink:title="data_catalog_entry\l::getvalues_dynamic\l_netcdf_sub">
<polygon fill="white" stroke="black" points="399.096,-107.5 399.096,-148.5 515.374,-148.5 515.374,-107.5 399.096,-107.5"/>
<text text-anchor="start" x="407.096" y="-135.7" font-family="Helvetica,sans-Serif" font-size="11.00">data_catalog_entry</text>
<text text-anchor="start" x="407.096" y="-124.7" font-family="Helvetica,sans-Serif" font-size="11.00">::getvalues_dynamic</text>
<text text-anchor="middle" x="457.235" y="-113.7" font-family="Helvetica,sans-Serif" font-size="11.00">_netcdf_sub</text>
</a>
</g>
</g>
<!-- Node320&#45;&gt;Node321 -->
<g id="edge2" class="edge"><title>Node320&#45;&gt;Node321</title>
<path fill="none" stroke="midnightblue" d="M326.884,-93.6584C350.317,-99.8797 376.435,-106.814 399.032,-112.813"/>
<polygon fill="midnightblue" stroke="midnightblue" points="327.587,-90.2238 317.024,-91.0406 325.791,-96.9895 327.587,-90.2238"/>
</g>
<!-- Node323 -->
<g id="node5" class="node"><title>Node323</title>
<g id="a_node5"><a xlink:href="namespacedata__catalog__entry.html#ac3e1f0d9d9e146fbb77c0084e1e9fc14" target="_top" xlink:title="data_catalog_entry\l::getvalues_static_netcdf_sub">
<polygon fill="white" stroke="black" points="376.771,-58 376.771,-88 537.699,-88 537.699,-58 376.771,-58"/>
<text text-anchor="start" x="384.771" y="-75.2" font-family="Helvetica,sans-Serif" font-size="11.00">data_catalog_entry</text>
<text text-anchor="middle" x="457.235" y="-64.2" font-family="Helvetica,sans-Serif" font-size="11.00">::getvalues_static_netcdf_sub</text>
</a>
</g>
</g>
<!-- Node320&#45;&gt;Node323 -->
<g id="edge4" class="edge"><title>Node320&#45;&gt;Node323</title>
<path fill="none" stroke="midnightblue" d="M350.923,-74.6131C359.517,-74.4814 368.187,-74.3486 376.667,-74.2187"/>
<polygon fill="midnightblue" stroke="midnightblue" points="350.83,-71.114 340.885,-74.7668 350.938,-78.1131 350.83,-71.114"/>
</g>
<!-- Node322 -->
<g id="node4" class="node"><title>Node322</title>
<g id="a_node4"><a xlink:href="namespacedata__catalog__entry.html#a9e0a89ab19a5bfd61f2dfb8265648234" target="_top" xlink:title="data_catalog_entry\l::getvalues_sub">
<polygon fill="white" stroke="black" points="573.699,-85 573.699,-115 683.269,-115 683.269,-85 573.699,-85"/>
<text text-anchor="start" x="581.699" y="-102.2" font-family="Helvetica,sans-Serif" font-size="11.00">data_catalog_entry</text>
<text text-anchor="middle" x="628.484" y="-91.2" font-family="Helvetica,sans-Serif" font-size="11.00">::getvalues_sub</text>
</a>
</g>
</g>
<!-- Node321&#45;&gt;Node322 -->
<g id="edge3" class="edge"><title>Node321&#45;&gt;Node322</title>
<path fill="none" stroke="midnightblue" d="M525.838,-116.816C541.737,-114.186 558.472,-111.417 573.671,-108.903"/>
<polygon fill="midnightblue" stroke="midnightblue" points="524.83,-113.435 515.535,-118.52 525.972,-120.341 524.83,-113.435"/>
</g>
<!-- Node323&#45;&gt;Node322 -->
<g id="edge5" class="edge"><title>Node323&#45;&gt;Node322</title>
<path fill="none" stroke="midnightblue" d="M548.042,-87.3267C556.668,-88.7028 565.222,-90.0674 573.344,-91.3631"/>
<polygon fill="midnightblue" stroke="midnightblue" points="548.33,-83.8285 537.904,-85.7094 547.227,-90.7411 548.33,-83.8285"/>
</g>
<!-- Node325&#45;&gt;Node321 -->
<g id="edge8" class="edge"><title>Node325&#45;&gt;Node321</title>
<path fill="none" stroke="midnightblue" d="M335.266,-126.147C356.367,-126.47 378.98,-126.817 398.878,-127.121"/>
<polygon fill="midnightblue" stroke="midnightblue" points="335.1,-122.644 325.048,-125.991 334.993,-129.643 335.1,-122.644"/>
</g>
<!-- Node325&#45;&gt;Node323 -->
<g id="edge9" class="edge"><title>Node325&#45;&gt;Node323</title>
<path fill="none" stroke="midnightblue" d="M326.972,-107.318C350.618,-101.041 376.987,-94.0397 399.711,-88.0068"/>
<polygon fill="midnightblue" stroke="midnightblue" points="325.791,-104.011 317.024,-109.959 327.587,-110.776 325.791,-104.011"/>
</g>
</g>
</svg>
        <g id="navigator" transform="translate(0 0)" fill="#404254">
                <rect fill="#f2f5e9" fill-opacity="0.5" stroke="#606060" stroke-width=".5" x="0" y="0" width="60" height="60"/>
                <use id="zoomplus" xlink:href="#zoomPlus" x="17" y="9" onmousedown="handleZoom(evt,'in')"/>
                <use id="zoomminus" xlink:href="#zoomMin" x="42" y="9" onmousedown="handleZoom(evt,'out')"/>
                <use id="reset" xlink:href="#resetDef" x="30" y="36" onmousedown="handleReset()"/>
                <g id="arrowUp" xlink:href="#dirArrow" transform="translate(30 24)" onmousedown="handlePan(0,-1)">
                  <use xlink:href="#rim" fill="#404040">
                        <set attributeName="fill" to="#808080" begin="arrowUp.mouseover" end="arrowUp.mouseout"/>
                  </use>
                  <path fill="none" stroke="white" stroke-width="1.5" d="M0,-3.0v7 M-2.5,-0.5L0,-3.0L2.5,-0.5"/>
                </g>
                <g id="arrowRight" xlink:href="#dirArrow" transform="rotate(90) translate(36 -43)" onmousedown="handlePan(1,0)">
                  <use xlink:href="#rim" fill="#404040">
                        <set attributeName="fill" to="#808080" begin="arrowRight.mouseover" end="arrowRight.mouseout"/>
                  </use>
                  <path fill="none" stroke="white" stroke-width="1.5" d="M0,-3.0v7 M-2.5,-0.5L0,-3.0L2.5,-0.5"/>
                </g>
                <g id="arrowDown" xlink:href="#dirArrow" transform="rotate(180) translate(-30 -48)" onmousedown="handlePan(0,1)">
                  <use xlink:href="#rim" fill="#404040">
                        <set attributeName="fill" to="#808080" begin="arrowDown.mouseover" end="arrowDown.mouseout"/>
                  </use>
                  <path fill="none" stroke="white" stroke-width="1.5" d="M0,-3.0v7 M-2.5,-0.5L0,-3.0L2.5,-0.5"/>
                </g>
                <g id="arrowLeft" xlink:href="#dirArrow" transform="rotate(270) translate(-36 17)" onmousedown="handlePan(-1,0)">
                  <use xlink:href="#rim" fill="#404040">
                        <set attributeName="fill" to="#808080" begin="arrowLeft.mouseover" end="arrowLeft.mouseout"/>
                  </use>
                  <path fill="none" stroke="white" stroke-width="1.5" d="M0,-3.0v7 M-2.5,-0.5L0,-3.0L2.5,-0.5"/>
                </g>
        </g>
        <svg viewBox="0 0 15 15" width="100%" height="30px" preserveAspectRatio="xMaxYMin meet">
         <g id="arrow_out" transform="scale(0.3 0.3)">
          <a xlink:href="namespacenetcdf4__support_a714886913deafdad6415f01eaab9bf39_icgraph_org.svg" target="_base">
           <rect id="button" ry="5" rx="5" y="6" x="6" height="38" width="38"
                fill="#f2f5e9" fill-opacity="0.5" stroke="#606060" stroke-width="1.0"/>
           <path id="arrow"
             d="M 11.500037,31.436501 C 11.940474,20.09759 22.043105,11.32322 32.158766,21.979434 L 37.068811,17.246167 C 37.068811,17.246167 37.088388,32 37.088388,32 L 22.160133,31.978069 C 22.160133,31.978069 26.997745,27.140456 26.997745,27.140456 C 18.528582,18.264221 13.291696,25.230495 11.500037,31.436501 z"
             style="fill:#404040;"/>
          </a>
         </g>
        </svg>
</svg>
