<?xml version="1.0" encoding="UTF-8" standalone="no"?>
<!DOCTYPE svg PUBLIC "-//W3C//DTD SVG 1.1//EN"
 "http://www.w3.org/Graphics/SVG/1.1/DTD/svg11.dtd">
<!-- Generated by graphviz version 2.38.0 (20140413.2041)
 -->
<!-- Title: runoff__curve_number::cn_ii_to_cn_i Pages: 1 -->
<svg width="649pt" height="50pt"
 viewBox="0.00 0.00 649.03 50.00" xmlns="http://www.w3.org/2000/svg" xmlns:xlink="http://www.w3.org/1999/xlink">
<g id="graph0" class="graph" transform="scale(1 1) rotate(0) translate(4 46)">
<title>runoff__curve_number::cn_ii_to_cn_i</title>
<polygon fill="white" stroke="none" points="-4,4 -4,-46 645.031,-46 645.031,4 -4,4"/>
<!-- Node30 -->
<g id="node1" class="node"><title>Node30</title>
<polygon fill="#bfbfbf" stroke="black" points="0,-6 0,-36 126.483,-36 126.483,-6 0,-6"/>
<text text-anchor="start" x="8" y="-23.2" font-family="Helvetica,sans-Serif" font-size="11.00">runoff__curve_number</text>
<text text-anchor="middle" x="63.2417" y="-12.2" font-family="Helvetica,sans-Serif" font-size="11.00">::cn_ii_to_cn_i</text>
</g>
<!-- Node31 -->
<g id="node2" class="node"><title>Node31</title>
<g id="a_node2"><a xlink:href="namespacerunoff____curve__number.html#abe564eabd0170192d8569d8b59b52b4b" target="_top" xlink:title="runoff__curve_number\l::runoff_curve_number\l_initialize">
<polygon fill="white" stroke="black" points="162.483,-0.5 162.483,-41.5 288.967,-41.5 288.967,-0.5 162.483,-0.5"/>
<text text-anchor="start" x="170.483" y="-28.7" font-family="Helvetica,sans-Serif" font-size="11.00">runoff__curve_number</text>
<text text-anchor="start" x="170.483" y="-17.7" font-family="Helvetica,sans-Serif" font-size="11.00">::runoff_curve_number</text>
<text text-anchor="middle" x="225.725" y="-6.7" font-family="Helvetica,sans-Serif" font-size="11.00">_initialize</text>
</a>
</g>
</g>
<!-- Node30&#45;&gt;Node31 -->
<g id="edge1" class="edge"><title>Node30&#45;&gt;Node31</title>
<path fill="none" stroke="midnightblue" d="M137.006,-21C145.482,-21 154.071,-21 162.389,-21"/>
<polygon fill="midnightblue" stroke="midnightblue" points="136.748,-17.5001 126.748,-21 136.748,-24.5001 136.748,-17.5001"/>
</g>
<!-- Node32 -->
<g id="node3" class="node"><title>Node32</title>
<g id="a_node3"><a xlink:href="namespacemodel__domain.html#ab3c2e3c2dce1b8c5cb0ebd67d2964618" target="_top" xlink:title="model_domain::model\l_initialize_runoff_curve\l_number">
<polygon fill="white" stroke="black" points="324.967,-0.5 324.967,-41.5 453.282,-41.5 453.282,-0.5 324.967,-0.5"/>
<text text-anchor="start" x="332.967" y="-28.7" font-family="Helvetica,sans-Serif" font-size="11.00">model_domain::model</text>
<text text-anchor="start" x="332.967" y="-17.7" font-family="Helvetica,sans-Serif" font-size="11.00">_initialize_runoff_curve</text>
<text text-anchor="middle" x="389.124" y="-6.7" font-family="Helvetica,sans-Serif" font-size="11.00">_number</text>
</a>
</g>
</g>
<!-- Node31&#45;&gt;Node32 -->
<g id="edge2" class="edge"><title>Node31&#45;&gt;Node32</title>
<path fill="none" stroke="midnightblue" d="M299.391,-21C307.875,-21 316.48,-21 324.824,-21"/>
<polygon fill="midnightblue" stroke="midnightblue" points="299.126,-17.5001 289.126,-21 299.126,-24.5001 299.126,-17.5001"/>
</g>
<!-- Node33 -->
<g id="node4" class="node"><title>Node33</title>
<g id="a_node4"><a xlink:href="namespacemodel__domain.html#aac78dbf26ba37cf86ebed4edd7acf89b" target="_top" xlink:title="model_domain::set_method\l_pointers_sub">
<polygon fill="white" stroke="black" points="489.282,-6 489.282,-36 641.031,-36 641.031,-6 489.282,-6"/>
<text text-anchor="start" x="497.282" y="-23.2" font-family="Helvetica,sans-Serif" font-size="11.00">model_domain::set_method</text>
<text text-anchor="middle" x="565.156" y="-12.2" font-family="Helvetica,sans-Serif" font-size="11.00">_pointers_sub</text>
</a>
</g>
</g>
<!-- Node32&#45;&gt;Node33 -->
<g id="edge3" class="edge"><title>Node32&#45;&gt;Node33</title>
<path fill="none" stroke="midnightblue" d="M463.605,-21C472.022,-21 480.612,-21 489.05,-21"/>
<polygon fill="midnightblue" stroke="midnightblue" points="463.446,-17.5001 453.446,-21 463.446,-24.5001 463.446,-17.5001"/>
</g>
</g>
</svg>
