<?xml version="1.0" encoding="UTF-8" standalone="no"?>
<!DOCTYPE svg PUBLIC "-//W3C//DTD SVG 1.1//EN"
 "http://www.w3.org/Graphics/SVG/1.1/DTD/svg11.dtd">
<!-- Generated by graphviz version 2.38.0 (20140413.2041)
 -->
<!-- Title: model_domain::model_update_crop_coefficient_fao56 Pages: 1 -->
<svg width="564pt" height="116pt"
 viewBox="0.00 0.00 564.08 115.50" xmlns="http://www.w3.org/2000/svg" xmlns:xlink="http://www.w3.org/1999/xlink">
<g id="graph0" class="graph" transform="scale(1 1) rotate(0) translate(4 111.5)">
<title>model_domain::model_update_crop_coefficient_fao56</title>
<polygon fill="white" stroke="none" points="-4,4 -4,-111.5 560.079,-111.5 560.079,4 -4,4"/>
<!-- Node1 -->
<g id="node1" class="node"><title>Node1</title>
<polygon fill="#bfbfbf" stroke="black" points="0,-36 0,-66 172.567,-66 172.567,-36 0,-36"/>
<text text-anchor="start" x="8" y="-53.2" font-family="Helvetica,sans-Serif" font-size="11.00">model_domain::model</text>
<text text-anchor="middle" x="86.2837" y="-42.2" font-family="Helvetica,sans-Serif" font-size="11.00">_update_crop_coefficient_fao56</text>
</g>
<!-- Node2 -->
<g id="node2" class="node"><title>Node2</title>
<g id="a_node2"><a xlink:href="namespacecrop__coefficients____fao56.html#ac360e63a2ef8c2821ccd7c65beb525ea" target="_top" xlink:title="crop_coefficients_\l_fao56::crop_coefficients\l_fao56_calculate">
<polygon fill="white" stroke="black" points="236.715,-60.5 236.715,-101.5 375.014,-101.5 375.014,-60.5 236.715,-60.5"/>
<text text-anchor="start" x="244.715" y="-88.7" font-family="Helvetica,sans-Serif" font-size="11.00">crop_coefficients_</text>
<text text-anchor="start" x="244.715" y="-77.7" font-family="Helvetica,sans-Serif" font-size="11.00">_fao56::crop_coefficients</text>
<text text-anchor="middle" x="305.865" y="-66.7" font-family="Helvetica,sans-Serif" font-size="11.00">_fao56_calculate</text>
</a>
</g>
</g>
<!-- Node1&#45;&gt;Node2 -->
<g id="edge1" class="edge"><title>Node1&#45;&gt;Node2</title>
<path fill="none" stroke="midnightblue" d="M172.653,-62.7707C190.368,-65.2132 208.953,-67.7757 226.406,-70.1821"/>
<polygon fill="midnightblue" stroke="midnightblue" points="226.152,-73.6801 236.536,-71.5789 227.108,-66.7457 226.152,-73.6801"/>
</g>
<!-- Node4 -->
<g id="node4" class="node"><title>Node4</title>
<g id="a_node4"><a xlink:href="namespacecrop__coefficients____fao56.html#a7d38167cc2ba756a05ad21ec000e1ded" target="_top" xlink:title="crop_coefficients_\l_fao56::crop_coefficients\l_fao56_update_growth_stage_dates">
<polygon fill="white" stroke="black" points="208.567,-0.5 208.567,-41.5 403.162,-41.5 403.162,-0.5 208.567,-0.5"/>
<text text-anchor="start" x="216.567" y="-28.7" font-family="Helvetica,sans-Serif" font-size="11.00">crop_coefficients_</text>
<text text-anchor="start" x="216.567" y="-17.7" font-family="Helvetica,sans-Serif" font-size="11.00">_fao56::crop_coefficients</text>
<text text-anchor="middle" x="305.865" y="-6.7" font-family="Helvetica,sans-Serif" font-size="11.00">_fao56_update_growth_stage_dates</text>
</a>
</g>
</g>
<!-- Node1&#45;&gt;Node4 -->
<g id="edge3" class="edge"><title>Node1&#45;&gt;Node4</title>
<path fill="none" stroke="midnightblue" d="M172.653,-39.2293C181.039,-38.0731 189.62,-36.8899 198.183,-35.7092"/>
<polygon fill="midnightblue" stroke="midnightblue" points="198.787,-39.1591 208.215,-34.326 197.831,-32.2247 198.787,-39.1591"/>
</g>
<!-- Node3 -->
<g id="node3" class="node"><title>Node3</title>
<g id="a_node3"><a xlink:href="namespacecrop__coefficients____fao56.html#a2e5eaecdad409378faa4c5f4fc5e6e54" target="_top" xlink:title="Update the current basal crop coefficient (Kcb) for a SINGLE irrigation table entry. ">
<polygon fill="white" stroke="black" points="439.162,-55 439.162,-107 556.079,-107 556.079,-55 439.162,-55"/>
<text text-anchor="start" x="447.162" y="-94.2" font-family="Helvetica,sans-Serif" font-size="11.00">crop_coefficients_</text>
<text text-anchor="start" x="447.162" y="-83.2" font-family="Helvetica,sans-Serif" font-size="11.00">_fao56::update_crop</text>
<text text-anchor="start" x="447.162" y="-72.2" font-family="Helvetica,sans-Serif" font-size="11.00">_coefficient_date_as</text>
<text text-anchor="middle" x="497.62" y="-61.2" font-family="Helvetica,sans-Serif" font-size="11.00">_threshold</text>
</a>
</g>
</g>
<!-- Node2&#45;&gt;Node3 -->
<g id="edge2" class="edge"><title>Node2&#45;&gt;Node3</title>
<path fill="none" stroke="midnightblue" d="M375.103,-81C392.6,-81 411.413,-81 428.885,-81"/>
<polygon fill="midnightblue" stroke="midnightblue" points="428.998,-84.5001 438.998,-81 428.998,-77.5001 428.998,-84.5001"/>
</g>
</g>
</svg>
