<?xml version="1.0" encoding="UTF-8" standalone="no"?>
<!DOCTYPE svg PUBLIC "-//W3C//DTD SVG 1.1//EN"
 "http://www.w3.org/Graphics/SVG/1.1/DTD/svg11.dtd">
<!-- Generated by graphviz version 2.38.0 (20140413.2041)
 -->
<!-- Title: fog__monthly_grid::fog_monthly_grid_calculate Pages: 1 -->
<!--zoomable 127 -->
<svg id="main" version="1.1" xmlns="http://www.w3.org/2000/svg" xmlns:xlink="http://www.w3.org/1999/xlink" xml:space="preserve" onload="init(evt)">
<style type="text/css"><![CDATA[
.edge:hover path { stroke: red; }
.edge:hover polygon { stroke: red; fill: red; }
]]></style>
<script type="text/javascript"><![CDATA[
var edges = document.getElementsByTagName('g');
if (edges && edges.length) {
  for (var i=0;i<edges.length;i++) {
    if (edges[i].id.substr(0,4)=='edge') {
      edges[i].setAttribute('class','edge');
    }
  }
}
]]></script>
        <defs>
                <circle id="rim" cx="0" cy="0" r="7"/>
                <circle id="rim2" cx="0" cy="0" r="3.5"/>
                <g id="zoomPlus">
                        <use xlink:href="#rim" fill="#404040">
                                <set attributeName="fill" to="#808080" begin="zoomplus.mouseover" end="zoomplus.mouseout"/>
                        </use>
                        <path d="M-4,0h8M0,-4v8" fill="none" stroke="white" stroke-width="1.5" pointer-events="none"/>
                </g>
                <g id="zoomMin">
                        <use xlink:href="#rim" fill="#404040">
                                <set attributeName="fill" to="#808080" begin="zoomminus.mouseover" end="zoomminus.mouseout"/>
                        </use>
                        <path d="M-4,0h8" fill="none" stroke="white" stroke-width="1.5" pointer-events="none"/>
                </g>
                <g id="dirArrow">
                        <path fill="none" stroke="white" stroke-width="1.5" d="M0,-3.0v7 M-2.5,-0.5L0,-3.0L2.5,-0.5"/>
                </g>
               <g id="resetDef">
                       <use xlink:href="#rim2" fill="#404040">
                               <set attributeName="fill" to="#808080" begin="reset.mouseover" end="reset.mouseout"/>
                       </use>
               </g>
        </defs>

<script type="text/javascript">
var viewWidth = 708;
var viewHeight = 127;
var sectionId = 'dynsection-2';
</script>
<script xlink:href="svgpan.js"/>
<svg id="graph" class="graph">
<g id="viewport">
<title>fog__monthly_grid::fog_monthly_grid_calculate</title>
<polygon fill="white" stroke="none" points="-4,4 -4,-122.5 704.349,-122.5 704.349,4 -4,4"/>
<!-- Node1 -->
<g id="node1" class="node"><title>Node1</title>
<polygon fill="#bfbfbf" stroke="black" points="0,-49.5 0,-79.5 149.917,-79.5 149.917,-49.5 0,-49.5"/>
<text text-anchor="start" x="8" y="-66.7" font-family="Helvetica,sans-Serif" font-size="11.00">fog__monthly_grid::</text>
<text text-anchor="middle" x="74.9587" y="-55.7" font-family="Helvetica,sans-Serif" font-size="11.00">fog_monthly_grid_calculate</text>
</g>
<!-- Node2 -->
<g id="node2" class="node"><title>Node2</title>
<g id="a_node2"><a xlink:href="namespaceexceptions.html#a22a1bf2808fdc249e6b378ee3f221156" target="_top" xlink:title="exceptions::die">
<polygon fill="white" stroke="black" points="218.635,-99 218.635,-118 308.015,-118 308.015,-99 218.635,-99"/>
<text text-anchor="middle" x="263.325" y="-105.2" font-family="Helvetica,sans-Serif" font-size="11.00">exceptions::die</text>
</a>
</g>
</g>
<!-- Node1&#45;&gt;Node2 -->
<g id="edge1" class="edge"><title>Node1&#45;&gt;Node2</title>
<path fill="none" stroke="midnightblue" d="M139.574,-79.5192C163.258,-85.1108 189.784,-91.3735 212.102,-96.6426"/>
<polygon fill="midnightblue" stroke="midnightblue" points="211.498,-100.096 222.035,-98.9876 213.106,-93.2834 211.498,-100.096"/>
</g>
<!-- Node3 -->
<g id="node3" class="node"><title>Node3</title>
<g id="a_node3"><a xlink:href="namespacenetcdf4__support.html#a19c28f8a9dc9d4fe18b9a04e65848b82" target="_top" xlink:title="netcdf4_support::netcdf\l_put_packed_variable_array">
<polygon fill="white" stroke="black" points="185.917,-49.5 185.917,-79.5 340.733,-79.5 340.733,-49.5 185.917,-49.5"/>
<text text-anchor="start" x="193.917" y="-66.7" font-family="Helvetica,sans-Serif" font-size="11.00">netcdf4_support::netcdf</text>
<text text-anchor="middle" x="263.325" y="-55.7" font-family="Helvetica,sans-Serif" font-size="11.00">_put_packed_variable_array</text>
</a>
</g>
</g>
<!-- Node1&#45;&gt;Node3 -->
<g id="edge2" class="edge"><title>Node1&#45;&gt;Node3</title>
<path fill="none" stroke="midnightblue" d="M150.151,-64.5C158.45,-64.5 166.959,-64.5 175.399,-64.5"/>
<polygon fill="midnightblue" stroke="midnightblue" points="175.642,-68.0001 185.642,-64.5 175.642,-61.0001 175.642,-68.0001"/>
</g>
<!-- Node6 -->
<g id="node6" class="node"><title>Node6</title>
<g id="a_node6"><a xlink:href="namespacenetcdf4__support.html#ad886108ada01049368a1eaf046a33a32" target="_top" xlink:title="netcdf4_support::netcdf\l_put_variable_vector">
<polygon fill="white" stroke="black" points="197.841,-0.5 197.841,-30.5 328.81,-30.5 328.81,-0.5 197.841,-0.5"/>
<text text-anchor="start" x="205.841" y="-17.7" font-family="Helvetica,sans-Serif" font-size="11.00">netcdf4_support::netcdf</text>
<text text-anchor="middle" x="263.325" y="-6.7" font-family="Helvetica,sans-Serif" font-size="11.00">_put_variable_vector</text>
</a>
</g>
</g>
<!-- Node1&#45;&gt;Node6 -->
<g id="edge5" class="edge"><title>Node1&#45;&gt;Node6</title>
<path fill="none" stroke="midnightblue" d="M133.141,-49.4654C152.819,-44.2917 175.028,-38.4525 195.411,-33.0934"/>
<polygon fill="midnightblue" stroke="midnightblue" points="196.47,-36.434 205.251,-30.5062 194.69,-29.6641 196.47,-36.434"/>
</g>
<!-- Node4 -->
<g id="node4" class="node"><title>Node4</title>
<g id="a_node4"><a xlink:href="namespacenetcdf4__support.html#ac8c7276a5849ae6d17ffef1787e3f234" target="_top" xlink:title="netcdf4_support::nf_trap">
<polygon fill="white" stroke="black" points="376.733,-30 376.733,-49 511.982,-49 511.982,-30 376.733,-30"/>
<text text-anchor="middle" x="444.358" y="-36.2" font-family="Helvetica,sans-Serif" font-size="11.00">netcdf4_support::nf_trap</text>
</a>
</g>
</g>
<!-- Node3&#45;&gt;Node4 -->
<g id="edge3" class="edge"><title>Node3&#45;&gt;Node4</title>
<path fill="none" stroke="midnightblue" d="M340.771,-53.8252C349.309,-52.6329 358.01,-51.4179 366.554,-50.2249"/>
<polygon fill="midnightblue" stroke="midnightblue" points="367.071,-53.6867 376.491,-48.8373 366.103,-46.754 367.071,-53.6867"/>
</g>
<!-- Node5 -->
<g id="node5" class="node"><title>Node5</title>
<g id="a_node5"><a xlink:href="namespaceconstants__and__conversions.html#ac13fba285229deab77131132e6f62caf" target="_top" xlink:title="constants_and_conversions\l::char_ptr_to_fortran_string">
<polygon fill="white" stroke="black" points="547.982,-24.5 547.982,-54.5 700.349,-54.5 700.349,-24.5 547.982,-24.5"/>
<text text-anchor="start" x="555.982" y="-41.7" font-family="Helvetica,sans-Serif" font-size="11.00">constants_and_conversions</text>
<text text-anchor="middle" x="624.166" y="-30.7" font-family="Helvetica,sans-Serif" font-size="11.00">::char_ptr_to_fortran_string</text>
</a>
</g>
</g>
<!-- Node4&#45;&gt;Node5 -->
<g id="edge4" class="edge"><title>Node4&#45;&gt;Node5</title>
<path fill="none" stroke="midnightblue" d="M512.073,-39.5C520.431,-39.5 529.068,-39.5 537.662,-39.5"/>
<polygon fill="midnightblue" stroke="midnightblue" points="537.713,-43.0001 547.713,-39.5 537.713,-36.0001 537.713,-43.0001"/>
</g>
<!-- Node6&#45;&gt;Node4 -->
<g id="edge6" class="edge"><title>Node6&#45;&gt;Node4</title>
<path fill="none" stroke="midnightblue" d="M328.96,-24.1646C341.21,-25.8067 354.136,-27.5394 366.714,-29.2256"/>
<polygon fill="midnightblue" stroke="midnightblue" points="366.332,-32.7056 376.709,-30.5654 367.262,-25.7677 366.332,-32.7056"/>
</g>
</g>
</svg>
        <g id="navigator" transform="translate(0 0)" fill="#404254">
                <rect fill="#f2f5e9" fill-opacity="0.5" stroke="#606060" stroke-width=".5" x="0" y="0" width="60" height="60"/>
                <use id="zoomplus" xlink:href="#zoomPlus" x="17" y="9" onmousedown="handleZoom(evt,'in')"/>
                <use id="zoomminus" xlink:href="#zoomMin" x="42" y="9" onmousedown="handleZoom(evt,'out')"/>
                <use id="reset" xlink:href="#resetDef" x="30" y="36" onmousedown="handleReset()"/>
                <g id="arrowUp" xlink:href="#dirArrow" transform="translate(30 24)" onmousedown="handlePan(0,-1)">
                  <use xlink:href="#rim" fill="#404040">
                        <set attributeName="fill" to="#808080" begin="arrowUp.mouseover" end="arrowUp.mouseout"/>
                  </use>
                  <path fill="none" stroke="white" stroke-width="1.5" d="M0,-3.0v7 M-2.5,-0.5L0,-3.0L2.5,-0.5"/>
                </g>
                <g id="arrowRight" xlink:href="#dirArrow" transform="rotate(90) translate(36 -43)" onmousedown="handlePan(1,0)">
                  <use xlink:href="#rim" fill="#404040">
                        <set attributeName="fill" to="#808080" begin="arrowRight.mouseover" end="arrowRight.mouseout"/>
                  </use>
                  <path fill="none" stroke="white" stroke-width="1.5" d="M0,-3.0v7 M-2.5,-0.5L0,-3.0L2.5,-0.5"/>
                </g>
                <g id="arrowDown" xlink:href="#dirArrow" transform="rotate(180) translate(-30 -48)" onmousedown="handlePan(0,1)">
                  <use xlink:href="#rim" fill="#404040">
                        <set attributeName="fill" to="#808080" begin="arrowDown.mouseover" end="arrowDown.mouseout"/>
                  </use>
                  <path fill="none" stroke="white" stroke-width="1.5" d="M0,-3.0v7 M-2.5,-0.5L0,-3.0L2.5,-0.5"/>
                </g>
                <g id="arrowLeft" xlink:href="#dirArrow" transform="rotate(270) translate(-36 17)" onmousedown="handlePan(-1,0)">
                  <use xlink:href="#rim" fill="#404040">
                        <set attributeName="fill" to="#808080" begin="arrowLeft.mouseover" end="arrowLeft.mouseout"/>
                  </use>
                  <path fill="none" stroke="white" stroke-width="1.5" d="M0,-3.0v7 M-2.5,-0.5L0,-3.0L2.5,-0.5"/>
                </g>
        </g>
        <svg viewBox="0 0 15 15" width="100%" height="30px" preserveAspectRatio="xMaxYMin meet">
         <g id="arrow_out" transform="scale(0.3 0.3)">
          <a xlink:href="namespacefog____monthly__grid_acef2be3cd8295a3fb9bbeae7706207f7_cgraph_org.svg" target="_base">
           <rect id="button" ry="5" rx="5" y="6" x="6" height="38" width="38"
                fill="#f2f5e9" fill-opacity="0.5" stroke="#606060" stroke-width="1.0"/>
           <path id="arrow"
             d="M 11.500037,31.436501 C 11.940474,20.09759 22.043105,11.32322 32.158766,21.979434 L 37.068811,17.246167 C 37.068811,17.246167 37.088388,32 37.088388,32 L 22.160133,31.978069 C 22.160133,31.978069 26.997745,27.140456 26.997745,27.140456 C 18.528582,18.264221 13.291696,25.230495 11.500037,31.436501 z"
             style="fill:#404040;"/>
          </a>
         </g>
        </svg>
</svg>
