<?xml version="1.0" encoding="UTF-8" standalone="no"?>
<!DOCTYPE svg PUBLIC "-//W3C//DTD SVG 1.1//EN"
 "http://www.w3.org/Graphics/SVG/1.1/DTD/svg11.dtd">
<!-- Generated by graphviz version 2.38.0 (20140413.2041)
 -->
<!-- Title: model_domain::model_initialize_actual_et_thornthwaite_mather_eqns Pages: 1 -->
<svg width="518pt" height="61pt"
 viewBox="0.00 0.00 517.53 61.00" xmlns="http://www.w3.org/2000/svg" xmlns:xlink="http://www.w3.org/1999/xlink">
<g id="graph0" class="graph" transform="scale(1 1) rotate(0) translate(4 57)">
<title>model_domain::model_initialize_actual_et_thornthwaite_mather_eqns</title>
<polygon fill="white" stroke="none" points="-4,4 -4,-57 513.533,-57 513.533,4 -4,4"/>
<!-- Node1 -->
<g id="node1" class="node"><title>Node1</title>
<polygon fill="#bfbfbf" stroke="black" points="0,-6 0,-47 152.367,-47 152.367,-6 0,-6"/>
<text text-anchor="start" x="8" y="-34.2" font-family="Helvetica,sans-Serif" font-size="11.00">model_domain::model</text>
<text text-anchor="start" x="8" y="-23.2" font-family="Helvetica,sans-Serif" font-size="11.00">_initialize_actual_et</text>
<text text-anchor="middle" x="76.1833" y="-12.2" font-family="Helvetica,sans-Serif" font-size="11.00">_thornthwaite_mather_eqns</text>
</g>
<!-- Node2 -->
<g id="node2" class="node"><title>Node2</title>
<g id="a_node2"><a xlink:href="namespaceactual__et____thornthwaite__mather__eqns.html#a1fdfe860673649a18f95834bccaad9dd" target="_top" xlink:title="actual_et__thornthwaite\l_mather_eqns::initialize\l_actual_et_thornthwaite\l_mather_eqns">
<polygon fill="white" stroke="black" points="188.367,-0.5 188.367,-52.5 321.172,-52.5 321.172,-0.5 188.367,-0.5"/>
<text text-anchor="start" x="196.367" y="-39.7" font-family="Helvetica,sans-Serif" font-size="11.00">actual_et__thornthwaite</text>
<text text-anchor="start" x="196.367" y="-28.7" font-family="Helvetica,sans-Serif" font-size="11.00">_mather_eqns::initialize</text>
<text text-anchor="start" x="196.367" y="-17.7" font-family="Helvetica,sans-Serif" font-size="11.00">_actual_et_thornthwaite</text>
<text text-anchor="middle" x="254.769" y="-6.7" font-family="Helvetica,sans-Serif" font-size="11.00">_mather_eqns</text>
</a>
</g>
</g>
<!-- Node1&#45;&gt;Node2 -->
<g id="edge1" class="edge"><title>Node1&#45;&gt;Node2</title>
<path fill="none" stroke="midnightblue" d="M152.584,-26.5C160.981,-26.5 169.537,-26.5 177.94,-26.5"/>
<polygon fill="midnightblue" stroke="midnightblue" points="178.092,-30.0001 188.092,-26.5 178.092,-23.0001 178.092,-30.0001"/>
</g>
<!-- Node3 -->
<g id="node3" class="node"><title>Node3</title>
<g id="a_node3"><a xlink:href="namespaceactual__et____thornthwaite__mather__eqns.html#a8b67a22e831afd6c828577642d2b8942" target="_top" xlink:title="Return an updated APWL given the max soil&#45;water&#45;capacity and current soil storage. ">
<polygon fill="white" stroke="black" points="357.172,-6 357.172,-47 509.533,-47 509.533,-6 357.172,-6"/>
<text text-anchor="start" x="365.172" y="-34.2" font-family="Helvetica,sans-Serif" font-size="11.00">actual_et__thornthwaite</text>
<text text-anchor="start" x="365.172" y="-23.2" font-family="Helvetica,sans-Serif" font-size="11.00">_mather_eqns::thornthwaite</text>
<text text-anchor="middle" x="433.353" y="-12.2" font-family="Helvetica,sans-Serif" font-size="11.00">_mather_apwl</text>
</a>
</g>
</g>
<!-- Node2&#45;&gt;Node3 -->
<g id="edge2" class="edge"><title>Node2&#45;&gt;Node3</title>
<path fill="none" stroke="midnightblue" d="M321.271,-26.5C329.666,-26.5 338.357,-26.5 347.009,-26.5"/>
<polygon fill="midnightblue" stroke="midnightblue" points="347.129,-30.0001 357.129,-26.5 347.129,-23.0001 347.129,-30.0001"/>
</g>
</g>
</svg>
