<?xml version="1.0" encoding="UTF-8" standalone="no"?>
<!DOCTYPE svg PUBLIC "-//W3C//DTD SVG 1.1//EN"
 "http://www.w3.org/Graphics/SVG/1.1/DTD/svg11.dtd">
<!-- Generated by graphviz version 2.38.0 (20140413.2041)
 -->
<!-- Title: model_domain::model_initialize_precip_normal Pages: 1 -->
<svg width="333pt" height="39pt"
 viewBox="0.00 0.00 332.81 39.00" xmlns="http://www.w3.org/2000/svg" xmlns:xlink="http://www.w3.org/1999/xlink">
<g id="graph0" class="graph" transform="scale(1 1) rotate(0) translate(4 35)">
<title>model_domain::model_initialize_precip_normal</title>
<polygon fill="white" stroke="none" points="-4,4 -4,-35 328.813,-35 328.813,4 -4,4"/>
<!-- Node490 -->
<g id="node1" class="node"><title>Node490</title>
<polygon fill="#bfbfbf" stroke="black" points="0,-0.5 0,-30.5 137.064,-30.5 137.064,-0.5 0,-0.5"/>
<text text-anchor="start" x="8" y="-17.7" font-family="Helvetica,sans-Serif" font-size="11.00">model_domain::model</text>
<text text-anchor="middle" x="68.5322" y="-6.7" font-family="Helvetica,sans-Serif" font-size="11.00">_initialize_precip_normal</text>
</g>
<!-- Node491 -->
<g id="node2" class="node"><title>Node491</title>
<g id="a_node2"><a xlink:href="namespacemodel__domain.html#aac78dbf26ba37cf86ebed4edd7acf89b" target="_top" xlink:title="model_domain::set_method\l_pointers_sub">
<polygon fill="white" stroke="black" points="173.064,-0.5 173.064,-30.5 324.813,-30.5 324.813,-0.5 173.064,-0.5"/>
<text text-anchor="start" x="181.064" y="-17.7" font-family="Helvetica,sans-Serif" font-size="11.00">model_domain::set_method</text>
<text text-anchor="middle" x="248.939" y="-6.7" font-family="Helvetica,sans-Serif" font-size="11.00">_pointers_sub</text>
</a>
</g>
</g>
<!-- Node490&#45;&gt;Node491 -->
<g id="edge1" class="edge"><title>Node490&#45;&gt;Node491</title>
<path fill="none" stroke="midnightblue" d="M147.431,-15.5C155.862,-15.5 164.431,-15.5 172.829,-15.5"/>
<polygon fill="midnightblue" stroke="midnightblue" points="147.235,-12.0001 137.235,-15.5 147.235,-19.0001 147.235,-12.0001"/>
</g>
</g>
</svg>
