<?xml version="1.0" encoding="UTF-8" standalone="no"?>
<!DOCTYPE svg PUBLIC "-//W3C//DTD SVG 1.1//EN"
 "http://www.w3.org/Graphics/SVG/1.1/DTD/svg11.dtd">
<!-- Generated by graphviz version 2.38.0 (20140413.2041)
 -->
<!-- Title: runoff__gridded_values::runoff_gridded_values_initialize Pages: 1 -->
<svg width="501pt" height="50pt"
 viewBox="0.00 0.00 500.64 50.00" xmlns="http://www.w3.org/2000/svg" xmlns:xlink="http://www.w3.org/1999/xlink">
<g id="graph0" class="graph" transform="scale(1 1) rotate(0) translate(4 46)">
<title>runoff__gridded_values::runoff_gridded_values_initialize</title>
<polygon fill="white" stroke="none" points="-4,4 -4,-46 496.641,-46 496.641,4 -4,4"/>
<!-- Node3 -->
<g id="node1" class="node"><title>Node3</title>
<polygon fill="#bfbfbf" stroke="black" points="0,-0.5 0,-41.5 130.78,-41.5 130.78,-0.5 0,-0.5"/>
<text text-anchor="start" x="8" y="-28.7" font-family="Helvetica,sans-Serif" font-size="11.00">runoff__gridded_values</text>
<text text-anchor="start" x="8" y="-17.7" font-family="Helvetica,sans-Serif" font-size="11.00">::runoff_gridded_values</text>
<text text-anchor="middle" x="65.3901" y="-6.7" font-family="Helvetica,sans-Serif" font-size="11.00">_initialize</text>
</g>
<!-- Node4 -->
<g id="node2" class="node"><title>Node4</title>
<g id="a_node2"><a xlink:href="namespacemodel__domain.html#a88a992fcd1bcf220cdba23ee7f6db209" target="_top" xlink:title="model_domain::model\l_initialize_runoff_gridded\l_values">
<polygon fill="white" stroke="black" points="166.78,-0.5 166.78,-41.5 304.892,-41.5 304.892,-0.5 166.78,-0.5"/>
<text text-anchor="start" x="174.78" y="-28.7" font-family="Helvetica,sans-Serif" font-size="11.00">model_domain::model</text>
<text text-anchor="start" x="174.78" y="-17.7" font-family="Helvetica,sans-Serif" font-size="11.00">_initialize_runoff_gridded</text>
<text text-anchor="middle" x="235.836" y="-6.7" font-family="Helvetica,sans-Serif" font-size="11.00">_values</text>
</a>
</g>
</g>
<!-- Node3&#45;&gt;Node4 -->
<g id="edge1" class="edge"><title>Node3&#45;&gt;Node4</title>
<path fill="none" stroke="midnightblue" d="M141.282,-21C149.754,-21 158.354,-21 166.732,-21"/>
<polygon fill="midnightblue" stroke="midnightblue" points="141.034,-17.5001 131.034,-21 141.034,-24.5001 141.034,-17.5001"/>
</g>
<!-- Node5 -->
<g id="node3" class="node"><title>Node5</title>
<g id="a_node3"><a xlink:href="namespacemodel__domain.html#aac78dbf26ba37cf86ebed4edd7acf89b" target="_top" xlink:title="model_domain::set_method\l_pointers_sub">
<polygon fill="white" stroke="black" points="340.892,-6 340.892,-36 492.641,-36 492.641,-6 340.892,-6"/>
<text text-anchor="start" x="348.892" y="-23.2" font-family="Helvetica,sans-Serif" font-size="11.00">model_domain::set_method</text>
<text text-anchor="middle" x="416.767" y="-12.2" font-family="Helvetica,sans-Serif" font-size="11.00">_pointers_sub</text>
</a>
</g>
</g>
<!-- Node4&#45;&gt;Node5 -->
<g id="edge2" class="edge"><title>Node4&#45;&gt;Node5</title>
<path fill="none" stroke="midnightblue" d="M315.206,-21C323.651,-21 332.23,-21 340.635,-21"/>
<polygon fill="midnightblue" stroke="midnightblue" points="314.993,-17.5001 304.993,-21 314.993,-24.5001 314.993,-17.5001"/>
</g>
</g>
</svg>
