<?xml version="1.0" encoding="UTF-8" standalone="no"?>
<!DOCTYPE svg PUBLIC "-//W3C//DTD SVG 1.1//EN"
 "http://www.w3.org/Graphics/SVG/1.1/DTD/svg11.dtd">
<!-- Generated by graphviz version 2.38.0 (20140413.2041)
 -->
<!-- Title: model_domain::model_initialize_continuous_frozen_ground_index Pages: 1 -->
<svg width="457pt" height="50pt"
 viewBox="0.00 0.00 457.00 50.00" xmlns="http://www.w3.org/2000/svg" xmlns:xlink="http://www.w3.org/1999/xlink">
<g id="graph0" class="graph" transform="scale(1 1) rotate(0) translate(4 46)">
<title>model_domain::model_initialize_continuous_frozen_ground_index</title>
<polygon fill="white" stroke="none" points="-4,4 -4,-46 452.996,-46 452.996,4 -4,4"/>
<!-- Node213 -->
<g id="node1" class="node"><title>Node213</title>
<polygon fill="#bfbfbf" stroke="black" points="0,-0.5 0,-41.5 125.474,-41.5 125.474,-0.5 0,-0.5"/>
<text text-anchor="start" x="8" y="-28.7" font-family="Helvetica,sans-Serif" font-size="11.00">model_domain::model</text>
<text text-anchor="start" x="8" y="-17.7" font-family="Helvetica,sans-Serif" font-size="11.00">_initialize_continuous</text>
<text text-anchor="middle" x="62.7368" y="-6.7" font-family="Helvetica,sans-Serif" font-size="11.00">_frozen_ground_index</text>
</g>
<!-- Node214 -->
<g id="node2" class="node"><title>Node214</title>
<g id="a_node2"><a xlink:href="namespacecontinuous__frozen__ground__index.html#a7a0dc849b9878606cea12861912a09df" target="_top" xlink:title="continuous_frozen_ground\l_index::initialize_continuous\l_frozen_ground_index">
<polygon fill="white" stroke="black" points="161.474,-0.5 161.474,-41.5 314.453,-41.5 314.453,-0.5 161.474,-0.5"/>
<text text-anchor="start" x="169.474" y="-28.7" font-family="Helvetica,sans-Serif" font-size="11.00">continuous_frozen_ground</text>
<text text-anchor="start" x="169.474" y="-17.7" font-family="Helvetica,sans-Serif" font-size="11.00">_index::initialize_continuous</text>
<text text-anchor="middle" x="237.963" y="-6.7" font-family="Helvetica,sans-Serif" font-size="11.00">_frozen_ground_index</text>
</a>
</g>
</g>
<!-- Node213&#45;&gt;Node214 -->
<g id="edge1" class="edge"><title>Node213&#45;&gt;Node214</title>
<path fill="none" stroke="midnightblue" d="M125.786,-21C134.09,-21 142.721,-21 151.34,-21"/>
<polygon fill="midnightblue" stroke="midnightblue" points="151.431,-24.5001 161.431,-21 151.431,-17.5001 151.431,-24.5001"/>
</g>
<!-- Node215 -->
<g id="node3" class="node"><title>Node215</title>
<g id="a_node3"><a xlink:href="namespaceexceptions.html#a84dd04476b06e0a398bfe6d106a82a4d" target="_top" xlink:title="exceptions::warn">
<polygon fill="white" stroke="black" points="350.453,-11.5 350.453,-30.5 448.996,-30.5 448.996,-11.5 350.453,-11.5"/>
<text text-anchor="middle" x="399.724" y="-17.7" font-family="Helvetica,sans-Serif" font-size="11.00">exceptions::warn</text>
</a>
</g>
</g>
<!-- Node214&#45;&gt;Node215 -->
<g id="edge2" class="edge"><title>Node214&#45;&gt;Node215</title>
<path fill="none" stroke="midnightblue" d="M314.633,-21C323.139,-21 331.709,-21 339.956,-21"/>
<polygon fill="midnightblue" stroke="midnightblue" points="340.199,-24.5001 350.199,-21 340.199,-17.5001 340.199,-24.5001"/>
</g>
</g>
</svg>
