<?xml version="1.0" encoding="UTF-8" standalone="no"?>
<!DOCTYPE svg PUBLIC "-//W3C//DTD SVG 1.1//EN"
 "http://www.w3.org/Graphics/SVG/1.1/DTD/svg11.dtd">
<!-- Generated by graphviz version 2.38.0 (20140413.2041)
 -->
<!-- Title: grid::grid_readsurfergrid_fn Pages: 1 -->
<svg width="597pt" height="39pt"
 viewBox="0.00 0.00 597.05 39.00" xmlns="http://www.w3.org/2000/svg" xmlns:xlink="http://www.w3.org/1999/xlink">
<g id="graph0" class="graph" transform="scale(1 1) rotate(0) translate(4 35)">
<title>grid::grid_readsurfergrid_fn</title>
<polygon fill="white" stroke="none" points="-4,4 -4,-35 593.049,-35 593.049,4 -4,4"/>
<!-- Node1 -->
<g id="node1" class="node"><title>Node1</title>
<polygon fill="#bfbfbf" stroke="black" points="0,-6 0,-25 148.682,-25 148.682,-6 0,-6"/>
<text text-anchor="middle" x="74.3411" y="-12.2" font-family="Helvetica,sans-Serif" font-size="11.00">grid::grid_readsurfergrid_fn</text>
</g>
<!-- Node2 -->
<g id="node2" class="node"><title>Node2</title>
<g id="a_node2"><a xlink:href="namespacegrid.html#a6668cfaf4657e4e5ebc2d49d0cdbb204" target="_top" xlink:title="grid::grid_read">
<polygon fill="white" stroke="black" points="184.682,-6 184.682,-25 271.613,-25 271.613,-6 184.682,-6"/>
<text text-anchor="middle" x="228.147" y="-12.2" font-family="Helvetica,sans-Serif" font-size="11.00">grid::grid_read</text>
</a>
</g>
</g>
<!-- Node1&#45;&gt;Node2 -->
<g id="edge1" class="edge"><title>Node1&#45;&gt;Node2</title>
<path fill="none" stroke="midnightblue" d="M159.21,-15.5C167.858,-15.5 176.366,-15.5 184.28,-15.5"/>
<polygon fill="midnightblue" stroke="midnightblue" points="159.021,-12.0001 149.021,-15.5 159.021,-19.0001 159.021,-12.0001"/>
</g>
<!-- Node3 -->
<g id="node3" class="node"><title>Node3</title>
<g id="a_node3"><a xlink:href="namespacedata__catalog__entry.html#a25575c8a43161050427bd7a7d471e83d" target="_top" xlink:title="data_catalog_entry\l::getvalues_gridded_sub">
<polygon fill="white" stroke="black" points="307.613,-0.5 307.613,-30.5 443.479,-30.5 443.479,-0.5 307.613,-0.5"/>
<text text-anchor="start" x="315.613" y="-17.7" font-family="Helvetica,sans-Serif" font-size="11.00">data_catalog_entry</text>
<text text-anchor="middle" x="375.546" y="-6.7" font-family="Helvetica,sans-Serif" font-size="11.00">::getvalues_gridded_sub</text>
</a>
</g>
</g>
<!-- Node2&#45;&gt;Node3 -->
<g id="edge2" class="edge"><title>Node2&#45;&gt;Node3</title>
<path fill="none" stroke="midnightblue" d="M282.172,-15.5C290.396,-15.5 298.982,-15.5 307.466,-15.5"/>
<polygon fill="midnightblue" stroke="midnightblue" points="281.985,-12.0001 271.985,-15.5 281.985,-19.0001 281.985,-12.0001"/>
</g>
<!-- Node4 -->
<g id="node4" class="node"><title>Node4</title>
<g id="a_node4"><a xlink:href="namespacedata__catalog__entry.html#a9e0a89ab19a5bfd61f2dfb8265648234" target="_top" xlink:title="data_catalog_entry\l::getvalues_sub">
<polygon fill="white" stroke="black" points="479.479,-0.5 479.479,-30.5 589.049,-30.5 589.049,-0.5 479.479,-0.5"/>
<text text-anchor="start" x="487.479" y="-17.7" font-family="Helvetica,sans-Serif" font-size="11.00">data_catalog_entry</text>
<text text-anchor="middle" x="534.264" y="-6.7" font-family="Helvetica,sans-Serif" font-size="11.00">::getvalues_sub</text>
</a>
</g>
</g>
<!-- Node3&#45;&gt;Node4 -->
<g id="edge3" class="edge"><title>Node3&#45;&gt;Node4</title>
<path fill="none" stroke="midnightblue" d="M454.192,-15.5C462.642,-15.5 471.102,-15.5 479.18,-15.5"/>
<polygon fill="midnightblue" stroke="midnightblue" points="453.918,-12.0001 443.918,-15.5 453.918,-19.0001 453.918,-12.0001"/>
</g>
</g>
</svg>
