<?xml version="1.0" encoding="UTF-8" standalone="no"?>
<!DOCTYPE svg PUBLIC "-//W3C//DTD SVG 1.1//EN"
 "http://www.w3.org/Graphics/SVG/1.1/DTD/svg11.dtd">
<!-- Generated by graphviz version 2.38.0 (20140413.2041)
 -->
<!-- Title: data_catalog_entry::initialize_netcdf_data_object_sub Pages: 1 -->
<svg width="267pt" height="50pt"
 viewBox="0.00 0.00 266.79 50.00" xmlns="http://www.w3.org/2000/svg" xmlns:xlink="http://www.w3.org/1999/xlink">
<g id="graph0" class="graph" transform="scale(1 1) rotate(0) translate(4 46)">
<title>data_catalog_entry::initialize_netcdf_data_object_sub</title>
<polygon fill="white" stroke="none" points="-4,4 -4,-46 262.792,-46 262.792,4 -4,4"/>
<!-- Node1 -->
<g id="node1" class="node"><title>Node1</title>
<polygon fill="#bfbfbf" stroke="black" points="0,-0.5 0,-41.5 109.57,-41.5 109.57,-0.5 0,-0.5"/>
<text text-anchor="start" x="8" y="-28.7" font-family="Helvetica,sans-Serif" font-size="11.00">data_catalog_entry</text>
<text text-anchor="start" x="8" y="-17.7" font-family="Helvetica,sans-Serif" font-size="11.00">::initialize_netcdf</text>
<text text-anchor="middle" x="54.7849" y="-6.7" font-family="Helvetica,sans-Serif" font-size="11.00">_data_object_sub</text>
</g>
<!-- Node2 -->
<g id="node2" class="node"><title>Node2</title>
<g id="a_node2"><a xlink:href="namespacefile__operations.html#a70a2b74bf72f0296e7751d4a94242a9f" target="_top" xlink:title="file_operations::fully\l_qualified_filename">
<polygon fill="white" stroke="black" points="145.57,-6 145.57,-36 258.792,-36 258.792,-6 145.57,-6"/>
<text text-anchor="start" x="153.57" y="-23.2" font-family="Helvetica,sans-Serif" font-size="11.00">file_operations::fully</text>
<text text-anchor="middle" x="202.181" y="-12.2" font-family="Helvetica,sans-Serif" font-size="11.00">_qualified_filename</text>
</a>
</g>
</g>
<!-- Node1&#45;&gt;Node2 -->
<g id="edge1" class="edge"><title>Node1&#45;&gt;Node2</title>
<path fill="none" stroke="midnightblue" d="M109.925,-21C118.191,-21 126.799,-21 135.283,-21"/>
<polygon fill="midnightblue" stroke="midnightblue" points="135.539,-24.5001 145.539,-21 135.539,-17.5001 135.539,-24.5001"/>
</g>
</g>
</svg>
