<?xml version="1.0" encoding="UTF-8" standalone="no"?>
<!DOCTYPE svg PUBLIC "-//W3C//DTD SVG 1.1//EN"
 "http://www.w3.org/Graphics/SVG/1.1/DTD/svg11.dtd">
<!-- Generated by graphviz version 2.38.0 (20140413.2041)
 -->
<!-- Title: daily_calculation::perform_daily_calculation Pages: 1 -->
<svg width="352pt" height="230pt"
 viewBox="0.00 0.00 351.75 230.00" xmlns="http://www.w3.org/2000/svg" xmlns:xlink="http://www.w3.org/1999/xlink">
<g id="graph0" class="graph" transform="scale(1 1) rotate(0) translate(4 226)">
<title>daily_calculation::perform_daily_calculation</title>
<polygon fill="white" stroke="none" points="-4,4 -4,-226 347.752,-226 347.752,4 -4,4"/>
<!-- Node1 -->
<g id="node1" class="node"><title>Node1</title>
<polygon fill="#bfbfbf" stroke="black" points="0,-96 0,-126 140.733,-126 140.733,-96 0,-96"/>
<text text-anchor="start" x="8" y="-113.2" font-family="Helvetica,sans-Serif" font-size="11.00">daily_calculation::</text>
<text text-anchor="middle" x="70.3665" y="-102.2" font-family="Helvetica,sans-Serif" font-size="11.00">perform_daily_calculation</text>
</g>
<!-- Node2 -->
<g id="node2" class="node"><title>Node2</title>
<g id="a_node2"><a xlink:href="namespacemass__balance____impervious__surface.html#a1c5830c8bd1a6d88ffc2d05bf07e9dc6" target="_top" xlink:title="mass_balance__impervious\l_surface::calculate_impervious\l_surface_mass_balance">
<polygon fill="white" stroke="black" points="176.733,-180.5 176.733,-221.5 343.752,-221.5 343.752,-180.5 176.733,-180.5"/>
<text text-anchor="start" x="184.733" y="-208.7" font-family="Helvetica,sans-Serif" font-size="11.00">mass_balance__impervious</text>
<text text-anchor="start" x="184.733" y="-197.7" font-family="Helvetica,sans-Serif" font-size="11.00">_surface::calculate_impervious</text>
<text text-anchor="middle" x="260.242" y="-186.7" font-family="Helvetica,sans-Serif" font-size="11.00">_surface_mass_balance</text>
</a>
</g>
</g>
<!-- Node1&#45;&gt;Node2 -->
<g id="edge1" class="edge"><title>Node1&#45;&gt;Node2</title>
<path fill="none" stroke="midnightblue" d="M95.0272,-126.011C115.991,-138.935 147.691,-157.569 176.733,-171 180.812,-172.886 185.046,-174.736 189.345,-176.533"/>
<polygon fill="midnightblue" stroke="midnightblue" points="188.243,-179.863 198.825,-180.375 190.872,-173.375 188.243,-179.863"/>
</g>
<!-- Node3 -->
<g id="node3" class="node"><title>Node3</title>
<g id="a_node3"><a xlink:href="namespacemass__balance____interception.html#ade84343d51eaeef753652d8a192fe24c" target="_top" xlink:title="mass_balance__interception\l::calculate_interception\l_mass_balance">
<polygon fill="white" stroke="black" points="182.225,-120.5 182.225,-161.5 338.26,-161.5 338.26,-120.5 182.225,-120.5"/>
<text text-anchor="start" x="190.225" y="-148.7" font-family="Helvetica,sans-Serif" font-size="11.00">mass_balance__interception</text>
<text text-anchor="start" x="190.225" y="-137.7" font-family="Helvetica,sans-Serif" font-size="11.00">::calculate_interception</text>
<text text-anchor="middle" x="260.242" y="-126.7" font-family="Helvetica,sans-Serif" font-size="11.00">_mass_balance</text>
</a>
</g>
</g>
<!-- Node1&#45;&gt;Node3 -->
<g id="edge2" class="edge"><title>Node1&#45;&gt;Node3</title>
<path fill="none" stroke="midnightblue" d="M140.791,-122.086C151.009,-123.717 161.644,-125.415 172.163,-127.095"/>
<polygon fill="midnightblue" stroke="midnightblue" points="171.769,-130.577 182.196,-128.697 172.873,-123.664 171.769,-130.577"/>
</g>
<!-- Node4 -->
<g id="node4" class="node"><title>Node4</title>
<g id="a_node4"><a xlink:href="namespacemass__balance____snow.html#a813edaed9c6af5aa29be517da01bceb3" target="_top" xlink:title="mass_balance__snow\l::calculate_snow_mass\l_balance">
<polygon fill="white" stroke="black" points="195.381,-60.5 195.381,-101.5 325.104,-101.5 325.104,-60.5 195.381,-60.5"/>
<text text-anchor="start" x="203.381" y="-88.7" font-family="Helvetica,sans-Serif" font-size="11.00">mass_balance__snow</text>
<text text-anchor="start" x="203.381" y="-77.7" font-family="Helvetica,sans-Serif" font-size="11.00">::calculate_snow_mass</text>
<text text-anchor="middle" x="260.242" y="-66.7" font-family="Helvetica,sans-Serif" font-size="11.00">_balance</text>
</a>
</g>
</g>
<!-- Node1&#45;&gt;Node4 -->
<g id="edge3" class="edge"><title>Node1&#45;&gt;Node4</title>
<path fill="none" stroke="midnightblue" d="M140.791,-99.9143C155.229,-97.6089 170.498,-95.1708 185.098,-92.8394"/>
<polygon fill="midnightblue" stroke="midnightblue" points="185.758,-96.2784 195.081,-91.2453 184.654,-89.366 185.758,-96.2784"/>
</g>
<!-- Node5 -->
<g id="node5" class="node"><title>Node5</title>
<g id="a_node5"><a xlink:href="namespacemass__balance____soil.html#a3f08dd2696068cb0caf72f680ef1136d" target="_top" xlink:title="mass_balance__soil\l::calculate_soil_mass\l_balance">
<polygon fill="white" stroke="black" points="199.968,-0.5 199.968,-41.5 320.517,-41.5 320.517,-0.5 199.968,-0.5"/>
<text text-anchor="start" x="207.968" y="-28.7" font-family="Helvetica,sans-Serif" font-size="11.00">mass_balance__soil</text>
<text text-anchor="start" x="207.968" y="-17.7" font-family="Helvetica,sans-Serif" font-size="11.00">::calculate_soil_mass</text>
<text text-anchor="middle" x="260.242" y="-6.7" font-family="Helvetica,sans-Serif" font-size="11.00">_balance</text>
</a>
</g>
</g>
<!-- Node1&#45;&gt;Node5 -->
<g id="edge4" class="edge"><title>Node1&#45;&gt;Node5</title>
<path fill="none" stroke="midnightblue" d="M95.0272,-95.9887C115.991,-83.0653 147.691,-64.4314 176.733,-51 181.086,-48.9866 185.616,-47.0149 190.213,-45.105"/>
<polygon fill="midnightblue" stroke="midnightblue" points="191.743,-48.2623 199.709,-41.2781 189.126,-41.7698 191.743,-48.2623"/>
</g>
</g>
</svg>
