<?xml version="1.0" encoding="UTF-8" standalone="no"?>
<!DOCTYPE svg PUBLIC "-//W3C//DTD SVG 1.1//EN"
 "http://www.w3.org/Graphics/SVG/1.1/DTD/svg11.dtd">
<!-- Generated by graphviz version 2.38.0 (20140413.2041)
 -->
<!-- Title: model_initialize::initialize_soils_landuse_awc_flowdir_values Pages: 1 -->
<!--zoomable 235 -->
<svg id="main" version="1.1" xmlns="http://www.w3.org/2000/svg" xmlns:xlink="http://www.w3.org/1999/xlink" xml:space="preserve" onload="init(evt)">
<style type="text/css"><![CDATA[
.edge:hover path { stroke: red; }
.edge:hover polygon { stroke: red; fill: red; }
]]></style>
<script type="text/javascript"><![CDATA[
var edges = document.getElementsByTagName('g');
if (edges && edges.length) {
  for (var i=0;i<edges.length;i++) {
    if (edges[i].id.substr(0,4)=='edge') {
      edges[i].setAttribute('class','edge');
    }
  }
}
]]></script>
        <defs>
                <circle id="rim" cx="0" cy="0" r="7"/>
                <circle id="rim2" cx="0" cy="0" r="3.5"/>
                <g id="zoomPlus">
                        <use xlink:href="#rim" fill="#404040">
                                <set attributeName="fill" to="#808080" begin="zoomplus.mouseover" end="zoomplus.mouseout"/>
                        </use>
                        <path d="M-4,0h8M0,-4v8" fill="none" stroke="white" stroke-width="1.5" pointer-events="none"/>
                </g>
                <g id="zoomMin">
                        <use xlink:href="#rim" fill="#404040">
                                <set attributeName="fill" to="#808080" begin="zoomminus.mouseover" end="zoomminus.mouseout"/>
                        </use>
                        <path d="M-4,0h8" fill="none" stroke="white" stroke-width="1.5" pointer-events="none"/>
                </g>
                <g id="dirArrow">
                        <path fill="none" stroke="white" stroke-width="1.5" d="M0,-3.0v7 M-2.5,-0.5L0,-3.0L2.5,-0.5"/>
                </g>
               <g id="resetDef">
                       <use xlink:href="#rim2" fill="#404040">
                               <set attributeName="fill" to="#808080" begin="reset.mouseover" end="reset.mouseout"/>
                       </use>
               </g>
        </defs>

<script type="text/javascript">
var viewWidth = 528;
var viewHeight = 235;
var sectionId = 'dynsection-2';
</script>
<script xlink:href="svgpan.js"/>
<svg id="graph" class="graph">
<g id="viewport">
<title>model_initialize::initialize_soils_landuse_awc_flowdir_values</title>
<polygon fill="white" stroke="none" points="-4,4 -4,-231 524.479,-231 524.479,4 -4,4"/>
<!-- Node1 -->
<g id="node1" class="node"><title>Node1</title>
<polygon fill="#bfbfbf" stroke="black" points="0,-98.5 0,-128.5 190.271,-128.5 190.271,-98.5 0,-98.5"/>
<text text-anchor="start" x="8" y="-115.7" font-family="Helvetica,sans-Serif" font-size="11.00">model_initialize::initialize</text>
<text text-anchor="middle" x="95.1353" y="-104.7" font-family="Helvetica,sans-Serif" font-size="11.00">_soils_landuse_awc_flowdir_values</text>
</g>
<!-- Node2 -->
<g id="node2" class="node"><title>Node2</title>
<g id="a_node2"><a xlink:href="namespacemodel__initialize.html#aa14822f91bc376101bbb19e39f63705c" target="_top" xlink:title="model_initialize::create\l_rooting_depth_table">
<polygon fill="white" stroke="black" points="230.549,-196.5 230.549,-226.5 358.439,-226.5 358.439,-196.5 230.549,-196.5"/>
<text text-anchor="start" x="238.549" y="-213.7" font-family="Helvetica,sans-Serif" font-size="11.00">model_initialize::create</text>
<text text-anchor="middle" x="294.494" y="-202.7" font-family="Helvetica,sans-Serif" font-size="11.00">_rooting_depth_table</text>
</a>
</g>
</g>
<!-- Node1&#45;&gt;Node2 -->
<g id="edge1" class="edge"><title>Node1&#45;&gt;Node2</title>
<path fill="none" stroke="midnightblue" d="M119.934,-128.711C145.534,-144.669 187.763,-169.841 226.271,-187.5 230.136,-189.272 234.172,-191.001 238.265,-192.665"/>
<polygon fill="midnightblue" stroke="midnightblue" points="237.274,-196.036 247.862,-196.424 239.827,-189.518 237.274,-196.036"/>
</g>
<!-- Node5 -->
<g id="node5" class="node"><title>Node5</title>
<g id="a_node5"><a xlink:href="namespacemodel__initialize.html#ac7a4106cec2a5f9f5fc824cc58ee003c" target="_top" xlink:title="model_initialize::initialize\l_hydrologic_soil_groups">
<polygon fill="white" stroke="black" points="226.271,-0.5 226.271,-30.5 362.717,-30.5 362.717,-0.5 226.271,-0.5"/>
<text text-anchor="start" x="234.271" y="-17.7" font-family="Helvetica,sans-Serif" font-size="11.00">model_initialize::initialize</text>
<text text-anchor="middle" x="294.494" y="-6.7" font-family="Helvetica,sans-Serif" font-size="11.00">_hydrologic_soil_groups</text>
</a>
</g>
</g>
<!-- Node1&#45;&gt;Node5 -->
<g id="edge4" class="edge"><title>Node1&#45;&gt;Node5</title>
<path fill="none" stroke="midnightblue" d="M119.934,-98.2893C145.534,-82.3311 187.763,-57.1595 226.271,-39.5 230.136,-37.7275 234.172,-35.999 238.265,-34.3346"/>
<polygon fill="midnightblue" stroke="midnightblue" points="239.827,-37.4818 247.862,-30.5765 237.274,-30.9637 239.827,-37.4818"/>
</g>
<!-- Node7 -->
<g id="node7" class="node"><title>Node7</title>
<g id="a_node7"><a xlink:href="namespacemodel__initialize.html#a18de5456cd8bede53f6d00a60e97a9a0" target="_top" xlink:title="Match landuse codes from table with those contained in the gridded landuse. ">
<polygon fill="white" stroke="black" points="226.271,-49.5 226.271,-79.5 362.717,-79.5 362.717,-49.5 226.271,-49.5"/>
<text text-anchor="start" x="234.271" y="-66.7" font-family="Helvetica,sans-Serif" font-size="11.00">model_initialize::initialize</text>
<text text-anchor="middle" x="294.494" y="-55.7" font-family="Helvetica,sans-Serif" font-size="11.00">_landuse_codes</text>
</a>
</g>
</g>
<!-- Node1&#45;&gt;Node7 -->
<g id="edge6" class="edge"><title>Node1&#45;&gt;Node7</title>
<path fill="none" stroke="midnightblue" d="M156.691,-98.4654C177.718,-93.2446 201.475,-87.3463 223.221,-81.9474"/>
<polygon fill="midnightblue" stroke="midnightblue" points="224.191,-85.3128 233.053,-79.5062 222.504,-78.519 224.191,-85.3128"/>
</g>
<!-- Node9 -->
<g id="node9" class="node"><title>Node9</title>
<g id="a_node9"><a xlink:href="namespacemodel__initialize.html#ab60a4a907017b668494f60a20fe0c505" target="_top" xlink:title="model_initialize::read\l_hydrologic_soil_groups">
<polygon fill="white" stroke="black" points="227.178,-98.5 227.178,-128.5 361.81,-128.5 361.81,-98.5 227.178,-98.5"/>
<text text-anchor="start" x="235.178" y="-115.7" font-family="Helvetica,sans-Serif" font-size="11.00">model_initialize::read</text>
<text text-anchor="middle" x="294.494" y="-104.7" font-family="Helvetica,sans-Serif" font-size="11.00">_hydrologic_soil_groups</text>
</a>
</g>
</g>
<!-- Node1&#45;&gt;Node9 -->
<g id="edge9" class="edge"><title>Node1&#45;&gt;Node9</title>
<path fill="none" stroke="midnightblue" d="M190.479,-113.5C199.383,-113.5 208.334,-113.5 217.042,-113.5"/>
<polygon fill="midnightblue" stroke="midnightblue" points="217.134,-117 227.134,-113.5 217.134,-110 217.134,-117"/>
</g>
<!-- Node10 -->
<g id="node10" class="node"><title>Node10</title>
<g id="a_node10"><a xlink:href="namespacemodel__initialize.html#ada372cfa561700f3374fc97ce280ce63" target="_top" xlink:title="model_initialize::read\l_landuse_codes">
<polygon fill="white" stroke="black" points="234.827,-147.5 234.827,-177.5 354.161,-177.5 354.161,-147.5 234.827,-147.5"/>
<text text-anchor="start" x="242.827" y="-164.7" font-family="Helvetica,sans-Serif" font-size="11.00">model_initialize::read</text>
<text text-anchor="middle" x="294.494" y="-153.7" font-family="Helvetica,sans-Serif" font-size="11.00">_landuse_codes</text>
</a>
</g>
</g>
<!-- Node1&#45;&gt;Node10 -->
<g id="edge12" class="edge"><title>Node1&#45;&gt;Node10</title>
<path fill="none" stroke="midnightblue" d="M156.691,-128.535C178.21,-133.877 202.587,-139.93 224.741,-145.43"/>
<polygon fill="midnightblue" stroke="midnightblue" points="224.197,-148.901 234.746,-147.914 225.884,-142.108 224.197,-148.901"/>
</g>
<!-- Node3 -->
<g id="node3" class="node"><title>Node3</title>
<g id="a_node3"><a xlink:href="namespacegrid.html#a02803f7fe27d0354d3d16a15bd1338da" target="_top" xlink:title="grid::grid_writearcgrid">
<polygon fill="white" stroke="black" points="398.717,-153 398.717,-172 520.479,-172 520.479,-153 398.717,-153"/>
<text text-anchor="middle" x="459.598" y="-159.2" font-family="Helvetica,sans-Serif" font-size="11.00">grid::grid_writearcgrid</text>
</a>
</g>
</g>
<!-- Node2&#45;&gt;Node3 -->
<g id="edge2" class="edge"><title>Node2&#45;&gt;Node3</title>
<path fill="none" stroke="midnightblue" d="M345.762,-196.399C368.651,-189.522 395.417,-181.481 417.134,-174.957"/>
<polygon fill="midnightblue" stroke="midnightblue" points="418.155,-178.305 426.725,-172.075 416.141,-171.601 418.155,-178.305"/>
</g>
<!-- Node4 -->
<g id="node4" class="node"><title>Node4</title>
<g id="a_node4"><a xlink:href="namespacegrid.html#adfcb9064d9b58a49eb61093cd4809a43" target="_top" xlink:title="grid::grid_destroy">
<polygon fill="white" stroke="black" points="409.105,-202 409.105,-221 510.092,-221 510.092,-202 409.105,-202"/>
<text text-anchor="middle" x="459.598" y="-208.2" font-family="Helvetica,sans-Serif" font-size="11.00">grid::grid_destroy</text>
</a>
</g>
</g>
<!-- Node2&#45;&gt;Node4 -->
<g id="edge3" class="edge"><title>Node2&#45;&gt;Node4</title>
<path fill="none" stroke="midnightblue" d="M358.554,-211.5C371.711,-211.5 385.545,-211.5 398.588,-211.5"/>
<polygon fill="midnightblue" stroke="midnightblue" points="398.85,-215 408.85,-211.5 398.85,-208 398.85,-215"/>
</g>
<!-- Node6 -->
<g id="node6" class="node"><title>Node6</title>
<g id="a_node6"><a xlink:href="namespaceexceptions.html#a22a1bf2808fdc249e6b378ee3f221156" target="_top" xlink:title="exceptions::die">
<polygon fill="white" stroke="black" points="414.908,-30 414.908,-49 504.288,-49 504.288,-30 414.908,-30"/>
<text text-anchor="middle" x="459.598" y="-36.2" font-family="Helvetica,sans-Serif" font-size="11.00">exceptions::die</text>
</a>
</g>
</g>
<!-- Node5&#45;&gt;Node6 -->
<g id="edge5" class="edge"><title>Node5&#45;&gt;Node6</title>
<path fill="none" stroke="midnightblue" d="M362.776,-25.4003C376.762,-27.4582 391.325,-29.6011 404.752,-31.5767"/>
<polygon fill="midnightblue" stroke="midnightblue" points="404.366,-35.0575 414.769,-33.0507 405.385,-28.1321 404.366,-35.0575"/>
</g>
<!-- Node7&#45;&gt;Node6 -->
<g id="edge7" class="edge"><title>Node7&#45;&gt;Node6</title>
<path fill="none" stroke="midnightblue" d="M362.776,-54.1872C376.762,-52.0436 391.325,-49.8114 404.752,-47.7534"/>
<polygon fill="midnightblue" stroke="midnightblue" points="405.414,-51.1928 414.769,-46.218 404.354,-44.2736 405.414,-51.1928"/>
</g>
<!-- Node8 -->
<g id="node8" class="node"><title>Node8</title>
<g id="a_node8"><a xlink:href="namespaceexceptions.html#a84dd04476b06e0a398bfe6d106a82a4d" target="_top" xlink:title="exceptions::warn">
<polygon fill="white" stroke="black" points="410.327,-104 410.327,-123 508.87,-123 508.87,-104 410.327,-104"/>
<text text-anchor="middle" x="459.598" y="-110.2" font-family="Helvetica,sans-Serif" font-size="11.00">exceptions::warn</text>
</a>
</g>
</g>
<!-- Node7&#45;&gt;Node8 -->
<g id="edge8" class="edge"><title>Node7&#45;&gt;Node8</title>
<path fill="none" stroke="midnightblue" d="M345.762,-79.6014C368.651,-86.4781 395.417,-94.519 417.134,-101.043"/>
<polygon fill="midnightblue" stroke="midnightblue" points="416.141,-104.399 426.725,-103.925 418.155,-97.6953 416.141,-104.399"/>
</g>
<!-- Node9&#45;&gt;Node3 -->
<g id="edge10" class="edge"><title>Node9&#45;&gt;Node3</title>
<path fill="none" stroke="midnightblue" d="M345.762,-128.601C368.651,-135.478 395.417,-143.519 417.134,-150.043"/>
<polygon fill="midnightblue" stroke="midnightblue" points="416.141,-153.399 426.725,-152.925 418.155,-146.695 416.141,-153.399"/>
</g>
<!-- Node9&#45;&gt;Node8 -->
<g id="edge11" class="edge"><title>Node9&#45;&gt;Node8</title>
<path fill="none" stroke="midnightblue" d="M361.835,-113.5C374.513,-113.5 387.7,-113.5 400.11,-113.5"/>
<polygon fill="midnightblue" stroke="midnightblue" points="400.324,-117 410.324,-113.5 400.324,-110 400.324,-117"/>
</g>
<!-- Node10&#45;&gt;Node3 -->
<g id="edge13" class="edge"><title>Node10&#45;&gt;Node3</title>
<path fill="none" stroke="midnightblue" d="M354.378,-162.5C365.417,-162.5 377.057,-162.5 388.398,-162.5"/>
<polygon fill="midnightblue" stroke="midnightblue" points="388.704,-166 398.704,-162.5 388.704,-159 388.704,-166"/>
</g>
<!-- Node10&#45;&gt;Node8 -->
<g id="edge14" class="edge"><title>Node10&#45;&gt;Node8</title>
<path fill="none" stroke="midnightblue" d="M345.762,-147.399C368.651,-140.522 395.417,-132.481 417.134,-125.957"/>
<polygon fill="midnightblue" stroke="midnightblue" points="418.155,-129.305 426.725,-123.075 416.141,-122.601 418.155,-129.305"/>
</g>
</g>
</svg>
        <g id="navigator" transform="translate(0 0)" fill="#404254">
                <rect fill="#f2f5e9" fill-opacity="0.5" stroke="#606060" stroke-width=".5" x="0" y="0" width="60" height="60"/>
                <use id="zoomplus" xlink:href="#zoomPlus" x="17" y="9" onmousedown="handleZoom(evt,'in')"/>
                <use id="zoomminus" xlink:href="#zoomMin" x="42" y="9" onmousedown="handleZoom(evt,'out')"/>
                <use id="reset" xlink:href="#resetDef" x="30" y="36" onmousedown="handleReset()"/>
                <g id="arrowUp" xlink:href="#dirArrow" transform="translate(30 24)" onmousedown="handlePan(0,-1)">
                  <use xlink:href="#rim" fill="#404040">
                        <set attributeName="fill" to="#808080" begin="arrowUp.mouseover" end="arrowUp.mouseout"/>
                  </use>
                  <path fill="none" stroke="white" stroke-width="1.5" d="M0,-3.0v7 M-2.5,-0.5L0,-3.0L2.5,-0.5"/>
                </g>
                <g id="arrowRight" xlink:href="#dirArrow" transform="rotate(90) translate(36 -43)" onmousedown="handlePan(1,0)">
                  <use xlink:href="#rim" fill="#404040">
                        <set attributeName="fill" to="#808080" begin="arrowRight.mouseover" end="arrowRight.mouseout"/>
                  </use>
                  <path fill="none" stroke="white" stroke-width="1.5" d="M0,-3.0v7 M-2.5,-0.5L0,-3.0L2.5,-0.5"/>
                </g>
                <g id="arrowDown" xlink:href="#dirArrow" transform="rotate(180) translate(-30 -48)" onmousedown="handlePan(0,1)">
                  <use xlink:href="#rim" fill="#404040">
                        <set attributeName="fill" to="#808080" begin="arrowDown.mouseover" end="arrowDown.mouseout"/>
                  </use>
                  <path fill="none" stroke="white" stroke-width="1.5" d="M0,-3.0v7 M-2.5,-0.5L0,-3.0L2.5,-0.5"/>
                </g>
                <g id="arrowLeft" xlink:href="#dirArrow" transform="rotate(270) translate(-36 17)" onmousedown="handlePan(-1,0)">
                  <use xlink:href="#rim" fill="#404040">
                        <set attributeName="fill" to="#808080" begin="arrowLeft.mouseover" end="arrowLeft.mouseout"/>
                  </use>
                  <path fill="none" stroke="white" stroke-width="1.5" d="M0,-3.0v7 M-2.5,-0.5L0,-3.0L2.5,-0.5"/>
                </g>
        </g>
        <svg viewBox="0 0 15 15" width="100%" height="30px" preserveAspectRatio="xMaxYMin meet">
         <g id="arrow_out" transform="scale(0.3 0.3)">
          <a xlink:href="namespacemodel__initialize_ad5de643aae8f976ef39b44ec8276c528_cgraph_org.svg" target="_base">
           <rect id="button" ry="5" rx="5" y="6" x="6" height="38" width="38"
                fill="#f2f5e9" fill-opacity="0.5" stroke="#606060" stroke-width="1.0"/>
           <path id="arrow"
             d="M 11.500037,31.436501 C 11.940474,20.09759 22.043105,11.32322 32.158766,21.979434 L 37.068811,17.246167 C 37.068811,17.246167 37.088388,32 37.088388,32 L 22.160133,31.978069 C 22.160133,31.978069 26.997745,27.140456 26.997745,27.140456 C 18.528582,18.264221 13.291696,25.230495 11.500037,31.436501 z"
             style="fill:#404040;"/>
          </a>
         </g>
        </svg>
</svg>
