<?xml version="1.0" encoding="UTF-8" standalone="no"?>
<!DOCTYPE svg PUBLIC "-//W3C//DTD SVG 1.1//EN"
 "http://www.w3.org/Graphics/SVG/1.1/DTD/svg11.dtd">
<!-- Generated by graphviz version 2.38.0 (20140413.2041)
 -->
<!-- Title: model_domain::model_initialize_irrigation Pages: 1 -->
<svg width="651pt" height="39pt"
 viewBox="0.00 0.00 651.44 39.00" xmlns="http://www.w3.org/2000/svg" xmlns:xlink="http://www.w3.org/1999/xlink">
<g id="graph0" class="graph" transform="scale(1 1) rotate(0) translate(4 35)">
<title>model_domain::model_initialize_irrigation</title>
<polygon fill="white" stroke="none" points="-4,4 -4,-35 647.442,-35 647.442,4 -4,4"/>
<!-- Node321 -->
<g id="node1" class="node"><title>Node321</title>
<polygon fill="#bfbfbf" stroke="black" points="0,-0.5 0,-30.5 124.228,-30.5 124.228,-0.5 0,-0.5"/>
<text text-anchor="start" x="8" y="-17.7" font-family="Helvetica,sans-Serif" font-size="11.00">model_domain::model</text>
<text text-anchor="middle" x="62.1138" y="-6.7" font-family="Helvetica,sans-Serif" font-size="11.00">_initialize_irrigation</text>
</g>
<!-- Node322 -->
<g id="node2" class="node"><title>Node322</title>
<g id="a_node2"><a xlink:href="namespaceirrigation.html#a4967e74e2a8b2077014603a91e590ff3" target="_top" xlink:title="Estimate the irrigation water required to sustain plant growth. ">
<polygon fill="white" stroke="black" points="160.228,-0.5 160.228,-30.5 266.709,-30.5 266.709,-0.5 160.228,-0.5"/>
<text text-anchor="start" x="168.228" y="-17.7" font-family="Helvetica,sans-Serif" font-size="11.00">irrigation::irrigation</text>
<text text-anchor="middle" x="213.468" y="-6.7" font-family="Helvetica,sans-Serif" font-size="11.00">__initialize</text>
</a>
</g>
</g>
<!-- Node321&#45;&gt;Node322 -->
<g id="edge1" class="edge"><title>Node321&#45;&gt;Node322</title>
<path fill="none" stroke="midnightblue" d="M124.293,-15.5C132.769,-15.5 141.486,-15.5 149.985,-15.5"/>
<polygon fill="midnightblue" stroke="midnightblue" points="150.215,-19.0001 160.215,-15.5 150.215,-12.0001 150.215,-19.0001"/>
</g>
<!-- Node323 -->
<g id="node3" class="node"><title>Node323</title>
<g id="a_node3"><a xlink:href="namespaceconstants__and__conversions.html#a928051f0e8ed684010c21875b1eec5ff" target="_top" xlink:title="Determine if string contains numeric values. ">
<polygon fill="white" stroke="black" points="302.709,-0.5 302.709,-30.5 455.076,-30.5 455.076,-0.5 302.709,-0.5"/>
<text text-anchor="start" x="310.709" y="-17.7" font-family="Helvetica,sans-Serif" font-size="11.00">constants_and_conversions</text>
<text text-anchor="middle" x="378.892" y="-6.7" font-family="Helvetica,sans-Serif" font-size="11.00">::is_numeric</text>
</a>
</g>
</g>
<!-- Node322&#45;&gt;Node323 -->
<g id="edge2" class="edge"><title>Node322&#45;&gt;Node323</title>
<path fill="none" stroke="midnightblue" d="M267.076,-15.5C275.191,-15.5 283.747,-15.5 292.359,-15.5"/>
<polygon fill="midnightblue" stroke="midnightblue" points="292.472,-19.0001 302.472,-15.5 292.472,-12.0001 292.472,-19.0001"/>
</g>
<!-- Node324 -->
<g id="node4" class="node"><title>Node324</title>
<g id="a_node4"><a xlink:href="namespaceconstants__and__conversions.html#a9bb5e4e1e57429b60fb5be3ec64b680c" target="_top" xlink:title="Strip everything except numeric characters from a text string. ">
<polygon fill="white" stroke="black" points="491.076,-0.5 491.076,-30.5 643.442,-30.5 643.442,-0.5 491.076,-0.5"/>
<text text-anchor="start" x="499.076" y="-17.7" font-family="Helvetica,sans-Serif" font-size="11.00">constants_and_conversions</text>
<text text-anchor="middle" x="567.259" y="-6.7" font-family="Helvetica,sans-Serif" font-size="11.00">::keepnumeric</text>
</a>
</g>
</g>
<!-- Node323&#45;&gt;Node324 -->
<g id="edge3" class="edge"><title>Node323&#45;&gt;Node324</title>
<path fill="none" stroke="midnightblue" d="M455.158,-15.5C463.653,-15.5 472.355,-15.5 480.966,-15.5"/>
<polygon fill="midnightblue" stroke="midnightblue" points="481.016,-19.0001 491.016,-15.5 481.016,-12.0001 481.016,-19.0001"/>
</g>
</g>
</svg>
