<?xml version="1.0" encoding="UTF-8" standalone="no"?>
<!DOCTYPE svg PUBLIC "-//W3C//DTD SVG 1.1//EN"
 "http://www.w3.org/Graphics/SVG/1.1/DTD/svg11.dtd">
<!-- Generated by graphviz version 2.38.0 (20140413.2041)
 -->
<!-- Title: netcdf4_support::netcdf_put_variable_array Pages: 1 -->
<!--zoomable 100 -->
<svg id="main" version="1.1" xmlns="http://www.w3.org/2000/svg" xmlns:xlink="http://www.w3.org/1999/xlink" xml:space="preserve" onload="init(evt)">
<style type="text/css"><![CDATA[
.edge:hover path { stroke: red; }
.edge:hover polygon { stroke: red; fill: red; }
]]></style>
<script type="text/javascript"><![CDATA[
var edges = document.getElementsByTagName('g');
if (edges && edges.length) {
  for (var i=0;i<edges.length;i++) {
    if (edges[i].id.substr(0,4)=='edge') {
      edges[i].setAttribute('class','edge');
    }
  }
}
]]></script>
        <defs>
                <circle id="rim" cx="0" cy="0" r="7"/>
                <circle id="rim2" cx="0" cy="0" r="3.5"/>
                <g id="zoomPlus">
                        <use xlink:href="#rim" fill="#404040">
                                <set attributeName="fill" to="#808080" begin="zoomplus.mouseover" end="zoomplus.mouseout"/>
                        </use>
                        <path d="M-4,0h8M0,-4v8" fill="none" stroke="white" stroke-width="1.5" pointer-events="none"/>
                </g>
                <g id="zoomMin">
                        <use xlink:href="#rim" fill="#404040">
                                <set attributeName="fill" to="#808080" begin="zoomminus.mouseover" end="zoomminus.mouseout"/>
                        </use>
                        <path d="M-4,0h8" fill="none" stroke="white" stroke-width="1.5" pointer-events="none"/>
                </g>
                <g id="dirArrow">
                        <path fill="none" stroke="white" stroke-width="1.5" d="M0,-3.0v7 M-2.5,-0.5L0,-3.0L2.5,-0.5"/>
                </g>
               <g id="resetDef">
                       <use xlink:href="#rim2" fill="#404040">
                               <set attributeName="fill" to="#808080" begin="reset.mouseover" end="reset.mouseout"/>
                       </use>
               </g>
        </defs>

<script type="text/javascript">
var viewWidth = 1057;
var viewHeight = 100;
var sectionId = 'dynsection-102';
</script>
<script xlink:href="svgpan.js"/>
<svg id="graph" class="graph">
<g id="viewport">
<title>netcdf4_support::netcdf_put_variable_array</title>
<polygon fill="white" stroke="none" points="-4,4 -4,-95.5 1052.98,-95.5 1052.98,4 -4,4"/>
<!-- Node1 -->
<g id="node1" class="node"><title>Node1</title>
<polygon fill="#bfbfbf" stroke="black" points="0,-33 0,-63 130.968,-63 130.968,-33 0,-33"/>
<text text-anchor="start" x="8" y="-50.2" font-family="Helvetica,sans-Serif" font-size="11.00">netcdf4_support::netcdf</text>
<text text-anchor="middle" x="65.4841" y="-39.2" font-family="Helvetica,sans-Serif" font-size="11.00">_put_variable_array</text>
</g>
<!-- Node2 -->
<g id="node2" class="node"><title>Node2</title>
<g id="a_node2"><a xlink:href="namespacenetcdf4__support.html#a55a403a10b71ab041dce8511b769f069" target="_top" xlink:title="netcdf4_support::nf\l_put_lat_and_lon">
<polygon fill="white" stroke="black" points="171.555,-61 171.555,-91 281.732,-91 281.732,-61 171.555,-61"/>
<text text-anchor="start" x="179.555" y="-78.2" font-family="Helvetica,sans-Serif" font-size="11.00">netcdf4_support::nf</text>
<text text-anchor="middle" x="226.644" y="-67.2" font-family="Helvetica,sans-Serif" font-size="11.00">_put_lat_and_lon</text>
</a>
</g>
</g>
<!-- Node1&#45;&gt;Node2 -->
<g id="edge1" class="edge"><title>Node1&#45;&gt;Node2</title>
<path fill="none" stroke="midnightblue" d="M141.309,-61.1635C151.456,-62.9487 161.707,-64.752 171.398,-66.457"/>
<polygon fill="midnightblue" stroke="midnightblue" points="141.676,-57.6743 131.22,-59.3887 140.463,-64.5685 141.676,-57.6743"/>
</g>
<!-- Node7 -->
<g id="node7" class="node"><title>Node7</title>
<g id="a_node7"><a xlink:href="namespacedata__catalog__entry.html#a3ea40e0b58c61d01a18065ea3c1b4fcd" target="_top" xlink:title="data_catalog_entry\l::put_values_to_local\l_netcdf_sub">
<polygon fill="white" stroke="black" points="166.968,-0.5 166.968,-41.5 286.319,-41.5 286.319,-0.5 166.968,-0.5"/>
<text text-anchor="start" x="174.968" y="-28.7" font-family="Helvetica,sans-Serif" font-size="11.00">data_catalog_entry</text>
<text text-anchor="start" x="174.968" y="-17.7" font-family="Helvetica,sans-Serif" font-size="11.00">::put_values_to_local</text>
<text text-anchor="middle" x="226.644" y="-6.7" font-family="Helvetica,sans-Serif" font-size="11.00">_netcdf_sub</text>
</a>
</g>
</g>
<!-- Node1&#45;&gt;Node7 -->
<g id="edge6" class="edge"><title>Node1&#45;&gt;Node7</title>
<path fill="none" stroke="midnightblue" d="M141.251,-35.3164C149.846,-33.8583 158.517,-32.3875 166.859,-30.9723"/>
<polygon fill="midnightblue" stroke="midnightblue" points="140.494,-31.8948 131.22,-37.0181 141.665,-38.7962 140.494,-31.8948"/>
</g>
<!-- Node3 -->
<g id="node3" class="node"><title>Node3</title>
<g id="a_node3"><a xlink:href="namespacenetcdf4__support.html#a37516733165a5b76f3d401654aa0e7ca" target="_top" xlink:title="netcdf4_support::netcdf\l_open_and_prepare_as_output">
<polygon fill="white" stroke="black" points="322.319,-61 322.319,-91 491.846,-91 491.846,-61 322.319,-61"/>
<text text-anchor="start" x="330.319" y="-78.2" font-family="Helvetica,sans-Serif" font-size="11.00">netcdf4_support::netcdf</text>
<text text-anchor="middle" x="407.083" y="-67.2" font-family="Helvetica,sans-Serif" font-size="11.00">_open_and_prepare_as_output</text>
</a>
</g>
</g>
<!-- Node2&#45;&gt;Node3 -->
<g id="edge2" class="edge"><title>Node2&#45;&gt;Node3</title>
<path fill="none" stroke="midnightblue" d="M292.405,-76C302.025,-76 312.056,-76 322.002,-76"/>
<polygon fill="midnightblue" stroke="midnightblue" points="292.151,-72.5001 282.151,-76 292.151,-79.5001 292.151,-72.5001"/>
</g>
<!-- Node4 -->
<g id="node4" class="node"><title>Node4</title>
<g id="a_node4"><a xlink:href="namespacefog____monthly__grid.html#ac06ec0e265221edc2cb7bdcae6b6bb91" target="_top" xlink:title="Initialize the fog drip algorithm. ">
<polygon fill="white" stroke="black" points="527.846,-61 527.846,-91 673.478,-91 673.478,-61 527.846,-61"/>
<text text-anchor="start" x="535.846" y="-78.2" font-family="Helvetica,sans-Serif" font-size="11.00">fog__monthly_grid::</text>
<text text-anchor="middle" x="600.662" y="-67.2" font-family="Helvetica,sans-Serif" font-size="11.00">fog_monthly_grid_initialize</text>
</a>
</g>
</g>
<!-- Node3&#45;&gt;Node4 -->
<g id="edge3" class="edge"><title>Node3&#45;&gt;Node4</title>
<path fill="none" stroke="midnightblue" d="M502.163,-76C510.747,-76 519.348,-76 527.692,-76"/>
<polygon fill="midnightblue" stroke="midnightblue" points="502.112,-72.5001 492.112,-76 502.112,-79.5001 502.112,-72.5001"/>
</g>
<!-- Node5 -->
<g id="node5" class="node"><title>Node5</title>
<g id="a_node5"><a xlink:href="namespacemodel__domain.html#ad24a97a20a893d728e39930306e8b1d4" target="_top" xlink:title="model_domain::model\l_initialize_fog_monthly_grid">
<polygon fill="white" stroke="black" points="709.478,-61 709.478,-91 861.227,-91 861.227,-61 709.478,-61"/>
<text text-anchor="start" x="717.478" y="-78.2" font-family="Helvetica,sans-Serif" font-size="11.00">model_domain::model</text>
<text text-anchor="middle" x="785.352" y="-67.2" font-family="Helvetica,sans-Serif" font-size="11.00">_initialize_fog_monthly_grid</text>
</a>
</g>
</g>
<!-- Node4&#45;&gt;Node5 -->
<g id="edge4" class="edge"><title>Node4&#45;&gt;Node5</title>
<path fill="none" stroke="midnightblue" d="M683.634,-76C692.237,-76 700.953,-76 709.471,-76"/>
<polygon fill="midnightblue" stroke="midnightblue" points="683.604,-72.5001 673.604,-76 683.604,-79.5001 683.604,-72.5001"/>
</g>
<!-- Node6 -->
<g id="node6" class="node"><title>Node6</title>
<g id="a_node6"><a xlink:href="namespacemodel__domain.html#aac78dbf26ba37cf86ebed4edd7acf89b" target="_top" xlink:title="model_domain::set_method\l_pointers_sub">
<polygon fill="white" stroke="black" points="897.227,-61 897.227,-91 1048.98,-91 1048.98,-61 897.227,-61"/>
<text text-anchor="start" x="905.227" y="-78.2" font-family="Helvetica,sans-Serif" font-size="11.00">model_domain::set_method</text>
<text text-anchor="middle" x="973.101" y="-67.2" font-family="Helvetica,sans-Serif" font-size="11.00">_pointers_sub</text>
</a>
</g>
</g>
<!-- Node5&#45;&gt;Node6 -->
<g id="edge5" class="edge"><title>Node5&#45;&gt;Node6</title>
<path fill="none" stroke="midnightblue" d="M871.384,-76C879.967,-76 888.64,-76 897.107,-76"/>
<polygon fill="midnightblue" stroke="midnightblue" points="871.368,-72.5001 861.368,-76 871.368,-79.5001 871.368,-72.5001"/>
</g>
</g>
</svg>
        <g id="navigator" transform="translate(0 0)" fill="#404254">
                <rect fill="#f2f5e9" fill-opacity="0.5" stroke="#606060" stroke-width=".5" x="0" y="0" width="60" height="60"/>
                <use id="zoomplus" xlink:href="#zoomPlus" x="17" y="9" onmousedown="handleZoom(evt,'in')"/>
                <use id="zoomminus" xlink:href="#zoomMin" x="42" y="9" onmousedown="handleZoom(evt,'out')"/>
                <use id="reset" xlink:href="#resetDef" x="30" y="36" onmousedown="handleReset()"/>
                <g id="arrowUp" xlink:href="#dirArrow" transform="translate(30 24)" onmousedown="handlePan(0,-1)">
                  <use xlink:href="#rim" fill="#404040">
                        <set attributeName="fill" to="#808080" begin="arrowUp.mouseover" end="arrowUp.mouseout"/>
                  </use>
                  <path fill="none" stroke="white" stroke-width="1.5" d="M0,-3.0v7 M-2.5,-0.5L0,-3.0L2.5,-0.5"/>
                </g>
                <g id="arrowRight" xlink:href="#dirArrow" transform="rotate(90) translate(36 -43)" onmousedown="handlePan(1,0)">
                  <use xlink:href="#rim" fill="#404040">
                        <set attributeName="fill" to="#808080" begin="arrowRight.mouseover" end="arrowRight.mouseout"/>
                  </use>
                  <path fill="none" stroke="white" stroke-width="1.5" d="M0,-3.0v7 M-2.5,-0.5L0,-3.0L2.5,-0.5"/>
                </g>
                <g id="arrowDown" xlink:href="#dirArrow" transform="rotate(180) translate(-30 -48)" onmousedown="handlePan(0,1)">
                  <use xlink:href="#rim" fill="#404040">
                        <set attributeName="fill" to="#808080" begin="arrowDown.mouseover" end="arrowDown.mouseout"/>
                  </use>
                  <path fill="none" stroke="white" stroke-width="1.5" d="M0,-3.0v7 M-2.5,-0.5L0,-3.0L2.5,-0.5"/>
                </g>
                <g id="arrowLeft" xlink:href="#dirArrow" transform="rotate(270) translate(-36 17)" onmousedown="handlePan(-1,0)">
                  <use xlink:href="#rim" fill="#404040">
                        <set attributeName="fill" to="#808080" begin="arrowLeft.mouseover" end="arrowLeft.mouseout"/>
                  </use>
                  <path fill="none" stroke="white" stroke-width="1.5" d="M0,-3.0v7 M-2.5,-0.5L0,-3.0L2.5,-0.5"/>
                </g>
        </g>
        <svg viewBox="0 0 15 15" width="100%" height="30px" preserveAspectRatio="xMaxYMin meet">
         <g id="arrow_out" transform="scale(0.3 0.3)">
          <a xlink:href="namespacenetcdf4__support_a78f84d0c950f4e9718ba2d8060192355_icgraph_org.svg" target="_base">
           <rect id="button" ry="5" rx="5" y="6" x="6" height="38" width="38"
                fill="#f2f5e9" fill-opacity="0.5" stroke="#606060" stroke-width="1.0"/>
           <path id="arrow"
             d="M 11.500037,31.436501 C 11.940474,20.09759 22.043105,11.32322 32.158766,21.979434 L 37.068811,17.246167 C 37.068811,17.246167 37.088388,32 37.088388,32 L 22.160133,31.978069 C 22.160133,31.978069 26.997745,27.140456 26.997745,27.140456 C 18.528582,18.264221 13.291696,25.230495 11.500037,31.436501 z"
             style="fill:#404040;"/>
          </a>
         </g>
        </svg>
</svg>
