<?xml version="1.0" encoding="UTF-8" standalone="no"?>
<!DOCTYPE svg PUBLIC "-//W3C//DTD SVG 1.1//EN"
 "http://www.w3.org/Graphics/SVG/1.1/DTD/svg11.dtd">
<!-- Generated by graphviz version 2.38.0 (20140413.2041)
 -->
<!-- Title: et__hargreaves_samani::et_hargreaves_calculate Pages: 1 -->
<svg width="516pt" height="39pt"
 viewBox="0.00 0.00 515.69 39.00" xmlns="http://www.w3.org/2000/svg" xmlns:xlink="http://www.w3.org/1999/xlink">
<g id="graph0" class="graph" transform="scale(1 1) rotate(0) translate(4 35)">
<title>et__hargreaves_samani::et_hargreaves_calculate</title>
<polygon fill="white" stroke="none" points="-4,4 -4,-35 511.691,-35 511.691,4 -4,4"/>
<!-- Node9 -->
<g id="node1" class="node"><title>Node9</title>
<polygon fill="#bfbfbf" stroke="black" points="0,-0.5 0,-30.5 141.968,-30.5 141.968,-0.5 0,-0.5"/>
<text text-anchor="start" x="8" y="-17.7" font-family="Helvetica,sans-Serif" font-size="11.00">et__hargreaves_samani</text>
<text text-anchor="middle" x="70.9841" y="-6.7" font-family="Helvetica,sans-Serif" font-size="11.00">::et_hargreaves_calculate</text>
</g>
<!-- Node10 -->
<g id="node2" class="node"><title>Node10</title>
<g id="a_node2"><a xlink:href="namespacemodel__domain.html#a37864c313f4ed6b63b5e90f4ef3f2e1f" target="_top" xlink:title="model_domain::model\l_calculate_et_hargreaves">
<polygon fill="white" stroke="black" points="177.968,-0.5 177.968,-30.5 319.942,-30.5 319.942,-0.5 177.968,-0.5"/>
<text text-anchor="start" x="185.968" y="-17.7" font-family="Helvetica,sans-Serif" font-size="11.00">model_domain::model</text>
<text text-anchor="middle" x="248.955" y="-6.7" font-family="Helvetica,sans-Serif" font-size="11.00">_calculate_et_hargreaves</text>
</a>
</g>
</g>
<!-- Node9&#45;&gt;Node10 -->
<g id="edge1" class="edge"><title>Node9&#45;&gt;Node10</title>
<path fill="none" stroke="midnightblue" d="M152.072,-15.5C160.675,-15.5 169.38,-15.5 177.855,-15.5"/>
<polygon fill="midnightblue" stroke="midnightblue" points="152.038,-12.0001 142.038,-15.5 152.038,-19.0001 152.038,-12.0001"/>
</g>
<!-- Node11 -->
<g id="node3" class="node"><title>Node11</title>
<g id="a_node3"><a xlink:href="namespacemodel__domain.html#aac78dbf26ba37cf86ebed4edd7acf89b" target="_top" xlink:title="model_domain::set_method\l_pointers_sub">
<polygon fill="white" stroke="black" points="355.942,-0.5 355.942,-30.5 507.691,-30.5 507.691,-0.5 355.942,-0.5"/>
<text text-anchor="start" x="363.942" y="-17.7" font-family="Helvetica,sans-Serif" font-size="11.00">model_domain::set_method</text>
<text text-anchor="middle" x="431.816" y="-6.7" font-family="Helvetica,sans-Serif" font-size="11.00">_pointers_sub</text>
</a>
</g>
</g>
<!-- Node10&#45;&gt;Node11 -->
<g id="edge2" class="edge"><title>Node10&#45;&gt;Node11</title>
<path fill="none" stroke="midnightblue" d="M330.4,-15.5C338.876,-15.5 347.471,-15.5 355.881,-15.5"/>
<polygon fill="midnightblue" stroke="midnightblue" points="330.14,-12.0001 320.14,-15.5 330.14,-19.0001 330.14,-12.0001"/>
</g>
</g>
</svg>
