<?xml version="1.0" encoding="UTF-8" standalone="no"?>
<!DOCTYPE svg PUBLIC "-//W3C//DTD SVG 1.1//EN"
 "http://www.w3.org/Graphics/SVG/1.1/DTD/svg11.dtd">
<!-- Generated by graphviz version 2.38.0 (20140413.2041)
 -->
<!-- Title: actual_et__thornthwaite_mather_eqns::calculate_actual_et_thornthwaite_mather_eqns Pages: 1 -->
<svg width="332pt" height="110pt"
 viewBox="0.00 0.00 332.21 110.00" xmlns="http://www.w3.org/2000/svg" xmlns:xlink="http://www.w3.org/1999/xlink">
<g id="graph0" class="graph" transform="scale(1 1) rotate(0) translate(4 106)">
<title>actual_et__thornthwaite_mather_eqns::calculate_actual_et_thornthwaite_mather_eqns</title>
<polygon fill="white" stroke="none" points="-4,4 -4,-106 328.212,-106 328.212,4 -4,4"/>
<!-- Node17 -->
<g id="node1" class="node"><title>Node17</title>
<polygon fill="#bfbfbf" stroke="black" points="0,-25 0,-77 135.851,-77 135.851,-25 0,-25"/>
<text text-anchor="start" x="8" y="-64.2" font-family="Helvetica,sans-Serif" font-size="11.00">actual_et__thornthwaite</text>
<text text-anchor="start" x="8" y="-53.2" font-family="Helvetica,sans-Serif" font-size="11.00">_mather_eqns::calculate</text>
<text text-anchor="start" x="8" y="-42.2" font-family="Helvetica,sans-Serif" font-size="11.00">_actual_et_thornthwaite</text>
<text text-anchor="middle" x="67.9253" y="-31.2" font-family="Helvetica,sans-Serif" font-size="11.00">_mather_eqns</text>
</g>
<!-- Node18 -->
<g id="node2" class="node"><title>Node18</title>
<g id="a_node2"><a xlink:href="namespaceactual__et____thornthwaite__mather__eqns.html#a8b67a22e831afd6c828577642d2b8942" target="_top" xlink:title="Return an updated APWL given the max soil&#45;water&#45;capacity and current soil storage. ">
<polygon fill="white" stroke="black" points="171.851,-60.5 171.851,-101.5 324.212,-101.5 324.212,-60.5 171.851,-60.5"/>
<text text-anchor="start" x="179.851" y="-88.7" font-family="Helvetica,sans-Serif" font-size="11.00">actual_et__thornthwaite</text>
<text text-anchor="start" x="179.851" y="-77.7" font-family="Helvetica,sans-Serif" font-size="11.00">_mather_eqns::thornthwaite</text>
<text text-anchor="middle" x="248.031" y="-66.7" font-family="Helvetica,sans-Serif" font-size="11.00">_mather_apwl</text>
</a>
</g>
</g>
<!-- Node17&#45;&gt;Node18 -->
<g id="edge1" class="edge"><title>Node17&#45;&gt;Node18</title>
<path fill="none" stroke="midnightblue" d="M136.006,-62.299C144.369,-63.7077 153.008,-65.1628 161.602,-66.6104"/>
<polygon fill="midnightblue" stroke="midnightblue" points="161.208,-70.0933 171.651,-68.3029 162.371,-63.1905 161.208,-70.0933"/>
</g>
<!-- Node19 -->
<g id="node3" class="node"><title>Node19</title>
<g id="a_node3"><a xlink:href="namespaceactual__et____thornthwaite__mather__eqns.html#aa6c9bb2bd8feb1650afb7bf778c8aafd" target="_top" xlink:title="Return the current soil moisture given the max soil&#45;water&#45;capacity and current APWL. ">
<polygon fill="white" stroke="black" points="171.851,-0.5 171.851,-41.5 324.212,-41.5 324.212,-0.5 171.851,-0.5"/>
<text text-anchor="start" x="179.851" y="-28.7" font-family="Helvetica,sans-Serif" font-size="11.00">actual_et__thornthwaite</text>
<text text-anchor="start" x="179.851" y="-17.7" font-family="Helvetica,sans-Serif" font-size="11.00">_mather_eqns::thornthwaite</text>
<text text-anchor="middle" x="248.031" y="-6.7" font-family="Helvetica,sans-Serif" font-size="11.00">_mather_soil_moisture</text>
</a>
</g>
</g>
<!-- Node17&#45;&gt;Node19 -->
<g id="edge2" class="edge"><title>Node17&#45;&gt;Node19</title>
<path fill="none" stroke="midnightblue" d="M136.006,-39.701C144.369,-38.2923 153.008,-36.8372 161.602,-35.3896"/>
<polygon fill="midnightblue" stroke="midnightblue" points="162.371,-38.8095 171.651,-33.6971 161.208,-31.9067 162.371,-38.8095"/>
</g>
</g>
</svg>
