<?xml version="1.0" encoding="UTF-8" standalone="no"?>
<!DOCTYPE svg PUBLIC "-//W3C//DTD SVG 1.1//EN"
 "http://www.w3.org/Graphics/SVG/1.1/DTD/svg11.dtd">
<!-- Generated by graphviz version 2.38.0 (20140413.2041)
 -->
<!-- Title: netcdf4_support::nf_dayvalue_to_julian_day Pages: 1 -->
<svg width="812pt" height="50pt"
 viewBox="0.00 0.00 812.37 50.00" xmlns="http://www.w3.org/2000/svg" xmlns:xlink="http://www.w3.org/1999/xlink">
<g id="graph0" class="graph" transform="scale(1 1) rotate(0) translate(4 46)">
<title>netcdf4_support::nf_dayvalue_to_julian_day</title>
<polygon fill="white" stroke="none" points="-4,4 -4,-46 808.368,-46 808.368,4 -4,4"/>
<!-- Node13 -->
<g id="node1" class="node"><title>Node13</title>
<polygon fill="#bfbfbf" stroke="black" points="0,-6 0,-36 137.097,-36 137.097,-6 0,-6"/>
<text text-anchor="start" x="8" y="-23.2" font-family="Helvetica,sans-Serif" font-size="11.00">netcdf4_support::nf</text>
<text text-anchor="middle" x="68.5483" y="-12.2" font-family="Helvetica,sans-Serif" font-size="11.00">_dayvalue_to_julian_day</text>
</g>
<!-- Node14 -->
<g id="node2" class="node"><title>Node14</title>
<g id="a_node2"><a xlink:href="namespacenetcdf4__support.html#ad9dc27ce4aee42f95a7cfc0f8c74166f" target="_top" xlink:title="netcdf4_support::nf\l_julian_day_to_index_adj">
<polygon fill="white" stroke="black" points="173.097,-6 173.097,-36 313.255,-36 313.255,-6 173.097,-6"/>
<text text-anchor="start" x="181.097" y="-23.2" font-family="Helvetica,sans-Serif" font-size="11.00">netcdf4_support::nf</text>
<text text-anchor="middle" x="243.176" y="-12.2" font-family="Helvetica,sans-Serif" font-size="11.00">_julian_day_to_index_adj</text>
</a>
</g>
</g>
<!-- Node13&#45;&gt;Node14 -->
<g id="edge1" class="edge"><title>Node13&#45;&gt;Node14</title>
<path fill="none" stroke="midnightblue" d="M147.535,-21C156.004,-21 164.582,-21 172.937,-21"/>
<polygon fill="midnightblue" stroke="midnightblue" points="147.28,-17.5001 137.28,-21 147.28,-24.5001 147.28,-17.5001"/>
</g>
<!-- Node15 -->
<g id="node3" class="node"><title>Node15</title>
<g id="a_node3"><a xlink:href="namespacenetcdf4__support.html#a58a573e1ab72881162967438f2f16416" target="_top" xlink:title="netcdf4_support::netcdf\l_update_time_starting_index">
<polygon fill="white" stroke="black" points="349.255,-6 349.255,-36 506.52,-36 506.52,-6 349.255,-6"/>
<text text-anchor="start" x="357.255" y="-23.2" font-family="Helvetica,sans-Serif" font-size="11.00">netcdf4_support::netcdf</text>
<text text-anchor="middle" x="427.887" y="-12.2" font-family="Helvetica,sans-Serif" font-size="11.00">_update_time_starting_index</text>
</a>
</g>
</g>
<!-- Node14&#45;&gt;Node15 -->
<g id="edge2" class="edge"><title>Node14&#45;&gt;Node15</title>
<path fill="none" stroke="midnightblue" d="M323.686,-21C332.099,-21 340.648,-21 349.042,-21"/>
<polygon fill="midnightblue" stroke="midnightblue" points="323.512,-17.5001 313.512,-21 323.512,-24.5001 323.512,-17.5001"/>
</g>
<!-- Node16 -->
<g id="node4" class="node"><title>Node16</title>
<g id="a_node4"><a xlink:href="namespacedata__catalog__entry.html#aeb285131f87ed64deba0a9041a9c6405" target="_top" xlink:title="data_catalog_entry\l::getvalues_dynamic\l_netcdf_sub">
<polygon fill="white" stroke="black" points="542.52,-0.5 542.52,-41.5 658.798,-41.5 658.798,-0.5 542.52,-0.5"/>
<text text-anchor="start" x="550.52" y="-28.7" font-family="Helvetica,sans-Serif" font-size="11.00">data_catalog_entry</text>
<text text-anchor="start" x="550.52" y="-17.7" font-family="Helvetica,sans-Serif" font-size="11.00">::getvalues_dynamic</text>
<text text-anchor="middle" x="600.659" y="-6.7" font-family="Helvetica,sans-Serif" font-size="11.00">_netcdf_sub</text>
</a>
</g>
</g>
<!-- Node15&#45;&gt;Node16 -->
<g id="edge3" class="edge"><title>Node15&#45;&gt;Node16</title>
<path fill="none" stroke="midnightblue" d="M516.897,-21C525.522,-21 534.111,-21 542.312,-21"/>
<polygon fill="midnightblue" stroke="midnightblue" points="516.777,-17.5001 506.777,-21 516.777,-24.5001 516.777,-17.5001"/>
</g>
<!-- Node17 -->
<g id="node5" class="node"><title>Node17</title>
<g id="a_node5"><a xlink:href="namespacedata__catalog__entry.html#a9e0a89ab19a5bfd61f2dfb8265648234" target="_top" xlink:title="data_catalog_entry\l::getvalues_sub">
<polygon fill="white" stroke="black" points="694.798,-6 694.798,-36 804.368,-36 804.368,-6 694.798,-6"/>
<text text-anchor="start" x="702.798" y="-23.2" font-family="Helvetica,sans-Serif" font-size="11.00">data_catalog_entry</text>
<text text-anchor="middle" x="749.583" y="-12.2" font-family="Helvetica,sans-Serif" font-size="11.00">::getvalues_sub</text>
</a>
</g>
</g>
<!-- Node16&#45;&gt;Node17 -->
<g id="edge4" class="edge"><title>Node16&#45;&gt;Node17</title>
<path fill="none" stroke="midnightblue" d="M668.92,-21C677.539,-21 686.272,-21 694.64,-21"/>
<polygon fill="midnightblue" stroke="midnightblue" points="668.885,-17.5001 658.885,-21 668.885,-24.5001 668.885,-17.5001"/>
</g>
</g>
</svg>
