<?xml version="1.0" encoding="UTF-8" standalone="no"?>
<!DOCTYPE svg PUBLIC "-//W3C//DTD SVG 1.1//EN"
 "http://www.w3.org/Graphics/SVG/1.1/DTD/svg11.dtd">
<!-- Generated by graphviz version 2.38.0 (20140413.2041)
 -->
<!-- Title: netcdf4_support::nf_get_variable_vector_float Pages: 1 -->
<svg width="513pt" height="39pt"
 viewBox="0.00 0.00 512.65 39.00" xmlns="http://www.w3.org/2000/svg" xmlns:xlink="http://www.w3.org/1999/xlink">
<g id="graph0" class="graph" transform="scale(1 1) rotate(0) translate(4 35)">
<title>netcdf4_support::nf_get_variable_vector_float</title>
<polygon fill="white" stroke="none" points="-4,4 -4,-35 508.646,-35 508.646,4 -4,4"/>
<!-- Node464 -->
<g id="node1" class="node"><title>Node464</title>
<polygon fill="#bfbfbf" stroke="black" points="0,-0.5 0,-30.5 145.03,-30.5 145.03,-0.5 0,-0.5"/>
<text text-anchor="start" x="8" y="-17.7" font-family="Helvetica,sans-Serif" font-size="11.00">netcdf4_support::nf</text>
<text text-anchor="middle" x="72.5149" y="-6.7" font-family="Helvetica,sans-Serif" font-size="11.00">_get_variable_vector_float</text>
</g>
<!-- Node465 -->
<g id="node2" class="node"><title>Node465</title>
<g id="a_node2"><a xlink:href="namespacenetcdf4__support.html#ac8c7276a5849ae6d17ffef1787e3f234" target="_top" xlink:title="netcdf4_support::nf_trap">
<polygon fill="white" stroke="black" points="181.03,-6 181.03,-25 316.279,-25 316.279,-6 181.03,-6"/>
<text text-anchor="middle" x="248.654" y="-12.2" font-family="Helvetica,sans-Serif" font-size="11.00">netcdf4_support::nf_trap</text>
</a>
</g>
</g>
<!-- Node464&#45;&gt;Node465 -->
<g id="edge1" class="edge"><title>Node464&#45;&gt;Node465</title>
<path fill="none" stroke="midnightblue" d="M145.098,-15.5C153.501,-15.5 162.103,-15.5 170.577,-15.5"/>
<polygon fill="midnightblue" stroke="midnightblue" points="170.828,-19.0001 180.828,-15.5 170.828,-12.0001 170.828,-19.0001"/>
</g>
<!-- Node466 -->
<g id="node3" class="node"><title>Node466</title>
<g id="a_node3"><a xlink:href="namespaceconstants__and__conversions.html#ac13fba285229deab77131132e6f62caf" target="_top" xlink:title="constants_and_conversions\l::char_ptr_to_fortran_string">
<polygon fill="white" stroke="black" points="352.279,-0.5 352.279,-30.5 504.646,-30.5 504.646,-0.5 352.279,-0.5"/>
<text text-anchor="start" x="360.279" y="-17.7" font-family="Helvetica,sans-Serif" font-size="11.00">constants_and_conversions</text>
<text text-anchor="middle" x="428.462" y="-6.7" font-family="Helvetica,sans-Serif" font-size="11.00">::char_ptr_to_fortran_string</text>
</a>
</g>
</g>
<!-- Node465&#45;&gt;Node466 -->
<g id="edge2" class="edge"><title>Node465&#45;&gt;Node466</title>
<path fill="none" stroke="midnightblue" d="M316.369,-15.5C324.727,-15.5 333.364,-15.5 341.959,-15.5"/>
<polygon fill="midnightblue" stroke="midnightblue" points="342.009,-19.0001 352.009,-15.5 342.009,-12.0001 342.009,-19.0001"/>
</g>
</g>
</svg>
