<?xml version="1.0" encoding="UTF-8" standalone="no"?>
<!DOCTYPE svg PUBLIC "-//W3C//DTD SVG 1.1//EN"
 "http://www.w3.org/Graphics/SVG/1.1/DTD/svg11.dtd">
<!-- Generated by graphviz version 2.38.0 (20140413.2041)
 -->
<!-- Title: grid::grid_gridtogrid_sgl Pages: 1 -->
<svg width="500pt" height="142pt"
 viewBox="0.00 0.00 500.36 142.00" xmlns="http://www.w3.org/2000/svg" xmlns:xlink="http://www.w3.org/1999/xlink">
<g id="graph0" class="graph" transform="scale(1 1) rotate(0) translate(4 138)">
<title>grid::grid_gridtogrid_sgl</title>
<polygon fill="white" stroke="none" points="-4,4 -4,-138 496.356,-138 496.356,4 -4,4"/>
<!-- Node1 -->
<g id="node1" class="node"><title>Node1</title>
<polygon fill="#bfbfbf" stroke="black" points="0,-57.5 0,-76.5 130.952,-76.5 130.952,-57.5 0,-57.5"/>
<text text-anchor="middle" x="65.4761" y="-63.7" font-family="Helvetica,sans-Serif" font-size="11.00">grid::grid_gridtogrid_sgl</text>
</g>
<!-- Node2 -->
<g id="node2" class="node"><title>Node2</title>
<g id="a_node2"><a xlink:href="namespacegrid.html#a54795390c62b55fd83c35818f8cd4ce3" target="_top" xlink:title="grid::grid_getgridcolrownum">
<polygon fill="white" stroke="black" points="166.952,-76.5 166.952,-95.5 318.685,-95.5 318.685,-76.5 166.952,-76.5"/>
<text text-anchor="middle" x="242.819" y="-82.7" font-family="Helvetica,sans-Serif" font-size="11.00">grid::grid_getgridcolrownum</text>
</a>
</g>
</g>
<!-- Node1&#45;&gt;Node2 -->
<g id="edge1" class="edge"><title>Node1&#45;&gt;Node2</title>
<path fill="none" stroke="midnightblue" d="M131.269,-74.0209C139.613,-74.9251 148.254,-75.8614 156.861,-76.794"/>
<polygon fill="midnightblue" stroke="midnightblue" points="156.609,-80.2872 166.928,-77.8849 157.363,-73.3279 156.609,-80.2872"/>
</g>
<!-- Node5 -->
<g id="node5" class="node"><title>Node5</title>
<g id="a_node5"><a xlink:href="namespacegrid.html#ace8ea960868faf40cf79d5303f881ed8" target="_top" xlink:title="grid::grid_populatexy">
<polygon fill="white" stroke="black" points="183.758,-38.5 183.758,-57.5 301.879,-57.5 301.879,-38.5 183.758,-38.5"/>
<text text-anchor="middle" x="242.819" y="-44.7" font-family="Helvetica,sans-Serif" font-size="11.00">grid::grid_populatexy</text>
</a>
</g>
</g>
<!-- Node1&#45;&gt;Node5 -->
<g id="edge4" class="edge"><title>Node1&#45;&gt;Node5</title>
<path fill="none" stroke="midnightblue" d="M131.269,-59.9791C145.085,-58.482 159.717,-56.8965 173.655,-55.3861"/>
<polygon fill="midnightblue" stroke="midnightblue" points="174.096,-58.859 183.66,-54.302 173.342,-51.8997 174.096,-58.859"/>
</g>
<!-- Node3 -->
<g id="node3" class="node"><title>Node3</title>
<g id="a_node3"><a xlink:href="namespacegrid.html#a6b5506d49fb44b008286c59a82e98c1e" target="_top" xlink:title="grid::grid_getgridcolnum">
<polygon fill="white" stroke="black" points="356.517,-114.5 356.517,-133.5 490.525,-133.5 490.525,-114.5 356.517,-114.5"/>
<text text-anchor="middle" x="423.521" y="-120.7" font-family="Helvetica,sans-Serif" font-size="11.00">grid::grid_getgridcolnum</text>
</a>
</g>
</g>
<!-- Node2&#45;&gt;Node3 -->
<g id="edge2" class="edge"><title>Node2&#45;&gt;Node3</title>
<path fill="none" stroke="midnightblue" d="M288.913,-95.589C312.919,-100.694 342.628,-107.011 367.931,-112.392"/>
<polygon fill="midnightblue" stroke="midnightblue" points="367.242,-115.823 377.751,-114.48 368.698,-108.976 367.242,-115.823"/>
</g>
<!-- Node4 -->
<g id="node4" class="node"><title>Node4</title>
<g id="a_node4"><a xlink:href="namespacegrid.html#a9aa473ecf87cf6e11795f2b6e78c920e" target="_top" xlink:title="grid::grid_getgridrownum">
<polygon fill="white" stroke="black" points="354.685,-76.5 354.685,-95.5 492.356,-95.5 492.356,-76.5 354.685,-76.5"/>
<text text-anchor="middle" x="423.521" y="-82.7" font-family="Helvetica,sans-Serif" font-size="11.00">grid::grid_getgridrownum</text>
</a>
</g>
</g>
<!-- Node2&#45;&gt;Node4 -->
<g id="edge3" class="edge"><title>Node2&#45;&gt;Node4</title>
<path fill="none" stroke="midnightblue" d="M318.828,-86C327.248,-86 335.843,-86 344.302,-86"/>
<polygon fill="midnightblue" stroke="midnightblue" points="344.533,-89.5001 354.533,-86 344.533,-82.5001 344.533,-89.5001"/>
</g>
<!-- Node6 -->
<g id="node6" class="node"><title>Node6</title>
<g id="a_node6"><a xlink:href="namespacegrid.html#ad3fbf6446fa8a58df8888c05b7165324" target="_top" xlink:title="grid::grid_getgridx">
<polygon fill="white" stroke="black" points="371.497,-38.5 371.497,-57.5 475.545,-57.5 475.545,-38.5 371.497,-38.5"/>
<text text-anchor="middle" x="423.521" y="-44.7" font-family="Helvetica,sans-Serif" font-size="11.00">grid::grid_getgridx</text>
</a>
</g>
</g>
<!-- Node5&#45;&gt;Node6 -->
<g id="edge5" class="edge"><title>Node5&#45;&gt;Node6</title>
<path fill="none" stroke="midnightblue" d="M302.332,-48C321.229,-48 342.222,-48 361.308,-48"/>
<polygon fill="midnightblue" stroke="midnightblue" points="361.39,-51.5001 371.39,-48 361.39,-44.5001 361.39,-51.5001"/>
</g>
<!-- Node7 -->
<g id="node7" class="node"><title>Node7</title>
<g id="a_node7"><a xlink:href="namespacegrid.html#a93d74de05bc5c8aee4cb556f461be266" target="_top" xlink:title="grid::grid_getgridy">
<polygon fill="white" stroke="black" points="371.497,-0.5 371.497,-19.5 475.545,-19.5 475.545,-0.5 371.497,-0.5"/>
<text text-anchor="middle" x="423.521" y="-6.7" font-family="Helvetica,sans-Serif" font-size="11.00">grid::grid_getgridy</text>
</a>
</g>
</g>
<!-- Node5&#45;&gt;Node7 -->
<g id="edge6" class="edge"><title>Node5&#45;&gt;Node7</title>
<path fill="none" stroke="midnightblue" d="M288.913,-38.411C312.919,-33.3061 342.628,-26.9887 367.931,-21.6082"/>
<polygon fill="midnightblue" stroke="midnightblue" points="368.698,-25.0235 377.751,-19.5201 367.242,-18.1766 368.698,-25.0235"/>
</g>
</g>
</svg>
