<?xml version="1.0" encoding="UTF-8" standalone="no"?>
<!DOCTYPE svg PUBLIC "-//W3C//DTD SVG 1.1//EN"
 "http://www.w3.org/Graphics/SVG/1.1/DTD/svg11.dtd">
<!-- Generated by graphviz version 2.38.0 (20140413.2041)
 -->
<!-- Title: model_domain::model_initialize_direct_recharge_gridded Pages: 1 -->
<svg width="340pt" height="50pt"
 viewBox="0.00 0.00 339.54 50.00" xmlns="http://www.w3.org/2000/svg" xmlns:xlink="http://www.w3.org/1999/xlink">
<g id="graph0" class="graph" transform="scale(1 1) rotate(0) translate(4 46)">
<title>model_domain::model_initialize_direct_recharge_gridded</title>
<polygon fill="white" stroke="none" points="-4,4 -4,-46 335.543,-46 335.543,4 -4,4"/>
<!-- Node415 -->
<g id="node1" class="node"><title>Node415</title>
<polygon fill="#bfbfbf" stroke="black" points="0,-0.5 0,-41.5 143.794,-41.5 143.794,-0.5 0,-0.5"/>
<text text-anchor="start" x="8" y="-28.7" font-family="Helvetica,sans-Serif" font-size="11.00">model_domain::model</text>
<text text-anchor="start" x="8" y="-17.7" font-family="Helvetica,sans-Serif" font-size="11.00">_initialize_direct_recharge</text>
<text text-anchor="middle" x="71.8972" y="-6.7" font-family="Helvetica,sans-Serif" font-size="11.00">_gridded</text>
</g>
<!-- Node416 -->
<g id="node2" class="node"><title>Node416</title>
<g id="a_node2"><a xlink:href="namespacemodel__domain.html#aac78dbf26ba37cf86ebed4edd7acf89b" target="_top" xlink:title="model_domain::set_method\l_pointers_sub">
<polygon fill="white" stroke="black" points="179.794,-6 179.794,-36 331.543,-36 331.543,-6 179.794,-6"/>
<text text-anchor="start" x="187.794" y="-23.2" font-family="Helvetica,sans-Serif" font-size="11.00">model_domain::set_method</text>
<text text-anchor="middle" x="255.669" y="-12.2" font-family="Helvetica,sans-Serif" font-size="11.00">_pointers_sub</text>
</a>
</g>
</g>
<!-- Node415&#45;&gt;Node416 -->
<g id="edge1" class="edge"><title>Node415&#45;&gt;Node416</title>
<path fill="none" stroke="midnightblue" d="M153.961,-21C162.547,-21 171.25,-21 179.761,-21"/>
<polygon fill="midnightblue" stroke="midnightblue" points="153.956,-17.5001 143.956,-21 153.956,-24.5001 153.956,-17.5001"/>
</g>
</g>
</svg>
