<?xml version="1.0" encoding="UTF-8" standalone="no"?>
<!DOCTYPE svg PUBLIC "-//W3C//DTD SVG 1.1//EN"
 "http://www.w3.org/Graphics/SVG/1.1/DTD/svg11.dtd">
<!-- Generated by graphviz version 2.38.0 (20140413.2041)
 -->
<!-- Title: netcdf4_support::nf_populate_dimension_struct Pages: 1 -->
<svg width="505pt" height="83pt"
 viewBox="0.00 0.00 505.31 83.00" xmlns="http://www.w3.org/2000/svg" xmlns:xlink="http://www.w3.org/1999/xlink">
<g id="graph0" class="graph" transform="scale(1 1) rotate(0) translate(4 79)">
<title>netcdf4_support::nf_populate_dimension_struct</title>
<polygon fill="white" stroke="none" points="-4,4 -4,-79 501.314,-79 501.314,4 -4,4"/>
<!-- Node1 -->
<g id="node1" class="node"><title>Node1</title>
<polygon fill="#bfbfbf" stroke="black" points="0,-17 0,-58 120.581,-58 120.581,-17 0,-17"/>
<text text-anchor="start" x="8" y="-45.2" font-family="Helvetica,sans-Serif" font-size="11.00">netcdf4_support::nf</text>
<text text-anchor="start" x="8" y="-34.2" font-family="Helvetica,sans-Serif" font-size="11.00">_populate_dimension</text>
<text text-anchor="middle" x="60.2903" y="-23.2" font-family="Helvetica,sans-Serif" font-size="11.00">_struct</text>
</g>
<!-- Node2 -->
<g id="node2" class="node"><title>Node2</title>
<g id="a_node2"><a xlink:href="namespaceconstants__and__conversions.html#adeac78899e44bc3d58e26397fa64e4a7" target="_top" xlink:title="constants_and_conversions\l::c_to_fortran_string">
<polygon fill="white" stroke="black" points="156.581,-44.5 156.581,-74.5 308.947,-74.5 308.947,-44.5 156.581,-44.5"/>
<text text-anchor="start" x="164.581" y="-61.7" font-family="Helvetica,sans-Serif" font-size="11.00">constants_and_conversions</text>
<text text-anchor="middle" x="232.764" y="-50.7" font-family="Helvetica,sans-Serif" font-size="11.00">::c_to_fortran_string</text>
</a>
</g>
</g>
<!-- Node1&#45;&gt;Node2 -->
<g id="edge1" class="edge"><title>Node1&#45;&gt;Node2</title>
<path fill="none" stroke="midnightblue" d="M120.914,-45.1945C129.126,-46.2543 137.688,-47.3593 146.254,-48.4647"/>
<polygon fill="midnightblue" stroke="midnightblue" points="145.924,-51.9511 156.29,-49.7599 146.82,-45.0087 145.924,-51.9511"/>
</g>
<!-- Node3 -->
<g id="node3" class="node"><title>Node3</title>
<g id="a_node3"><a xlink:href="namespacenetcdf4__support.html#ac8c7276a5849ae6d17ffef1787e3f234" target="_top" xlink:title="netcdf4_support::nf_trap">
<polygon fill="white" stroke="black" points="165.139,-6 165.139,-25 300.388,-25 300.388,-6 165.139,-6"/>
<text text-anchor="middle" x="232.764" y="-12.2" font-family="Helvetica,sans-Serif" font-size="11.00">netcdf4_support::nf_trap</text>
</a>
</g>
</g>
<!-- Node1&#45;&gt;Node3 -->
<g id="edge2" class="edge"><title>Node1&#45;&gt;Node3</title>
<path fill="none" stroke="midnightblue" d="M120.914,-29.8055C131.904,-28.3871 143.521,-26.8879 154.935,-25.4149"/>
<polygon fill="midnightblue" stroke="midnightblue" points="155.423,-28.8811 164.893,-24.1299 154.527,-21.9386 155.423,-28.8811"/>
</g>
<!-- Node4 -->
<g id="node4" class="node"><title>Node4</title>
<g id="a_node4"><a xlink:href="namespaceconstants__and__conversions.html#ac13fba285229deab77131132e6f62caf" target="_top" xlink:title="constants_and_conversions\l::char_ptr_to_fortran_string">
<polygon fill="white" stroke="black" points="344.947,-0.5 344.947,-30.5 497.314,-30.5 497.314,-0.5 344.947,-0.5"/>
<text text-anchor="start" x="352.947" y="-17.7" font-family="Helvetica,sans-Serif" font-size="11.00">constants_and_conversions</text>
<text text-anchor="middle" x="421.131" y="-6.7" font-family="Helvetica,sans-Serif" font-size="11.00">::char_ptr_to_fortran_string</text>
</a>
</g>
</g>
<!-- Node3&#45;&gt;Node4 -->
<g id="edge3" class="edge"><title>Node3&#45;&gt;Node4</title>
<path fill="none" stroke="midnightblue" d="M300.52,-15.5C311.587,-15.5 323.197,-15.5 334.65,-15.5"/>
<polygon fill="midnightblue" stroke="midnightblue" points="334.657,-19.0001 344.657,-15.5 334.657,-12.0001 334.657,-19.0001"/>
</g>
</g>
</svg>
