<?xml version="1.0" encoding="UTF-8" standalone="no"?>
<!DOCTYPE svg PUBLIC "-//W3C//DTD SVG 1.1//EN"
 "http://www.w3.org/Graphics/SVG/1.1/DTD/svg11.dtd">
<!-- Generated by graphviz version 2.38.0 (20140413.2041)
 -->
<!-- Title: model_domain::model_initialize_runoff_gridded_values Pages: 1 -->
<svg width="610pt" height="115pt"
 viewBox="0.00 0.00 609.94 115.40" xmlns="http://www.w3.org/2000/svg" xmlns:xlink="http://www.w3.org/1999/xlink">
<g id="graph0" class="graph" transform="scale(1 1) rotate(0) translate(4 111.4)">
<title>model_domain::model_initialize_runoff_gridded_values</title>
<polygon fill="white" stroke="none" points="-4,4 -4,-111.4 605.94,-111.4 605.94,4 -4,4"/>
<!-- Node295 -->
<g id="node1" class="node"><title>Node295</title>
<polygon fill="#bfbfbf" stroke="black" points="0,-29.5 0,-70.5 138.112,-70.5 138.112,-29.5 0,-29.5"/>
<text text-anchor="start" x="8" y="-57.7" font-family="Helvetica,sans-Serif" font-size="11.00">model_domain::model</text>
<text text-anchor="start" x="8" y="-46.7" font-family="Helvetica,sans-Serif" font-size="11.00">_initialize_runoff_gridded</text>
<text text-anchor="middle" x="69.0559" y="-35.7" font-family="Helvetica,sans-Serif" font-size="11.00">_values</text>
</g>
<!-- Node296 -->
<g id="node2" class="node"><title>Node296</title>
<g id="a_node2"><a xlink:href="namespacerunoff____gridded__values.html#a3ac2987bbbdf8952bfb1457cad017b28" target="_top" xlink:title="Initialize the infiltration grid. ">
<polygon fill="white" stroke="black" points="174.112,-55.5 174.112,-96.5 304.892,-96.5 304.892,-55.5 174.112,-55.5"/>
<text text-anchor="start" x="182.112" y="-83.7" font-family="Helvetica,sans-Serif" font-size="11.00">runoff__gridded_values</text>
<text text-anchor="start" x="182.112" y="-72.7" font-family="Helvetica,sans-Serif" font-size="11.00">::runoff_gridded_values</text>
<text text-anchor="middle" x="239.502" y="-61.7" font-family="Helvetica,sans-Serif" font-size="11.00">_initialize</text>
</a>
</g>
</g>
<!-- Node295&#45;&gt;Node296 -->
<g id="edge1" class="edge"><title>Node295&#45;&gt;Node296</title>
<path fill="none" stroke="midnightblue" d="M138.569,-60.5752C146.858,-61.8546 155.357,-63.1664 163.73,-64.4588"/>
<polygon fill="midnightblue" stroke="midnightblue" points="163.441,-67.9556 173.858,-66.0221 164.509,-61.0375 163.441,-67.9556"/>
</g>
<!-- Node299 -->
<g id="node5" class="node"><title>Node299</title>
<g id="a_node5"><a xlink:href="namespacerunoff____gridded__values.html#aa82e4d0dd525ba2d97604ada9d167453" target="_top" xlink:title="runoff__gridded_values\l::runoff_gridded_values\l_update_ratios">
<polygon fill="white" stroke="black" points="343.336,-0.5 343.336,-41.5 474.116,-41.5 474.116,-0.5 343.336,-0.5"/>
<text text-anchor="start" x="351.336" y="-28.7" font-family="Helvetica,sans-Serif" font-size="11.00">runoff__gridded_values</text>
<text text-anchor="start" x="351.336" y="-17.7" font-family="Helvetica,sans-Serif" font-size="11.00">::runoff_gridded_values</text>
<text text-anchor="middle" x="408.726" y="-6.7" font-family="Helvetica,sans-Serif" font-size="11.00">_update_ratios</text>
</a>
</g>
</g>
<!-- Node295&#45;&gt;Node299 -->
<g id="edge5" class="edge"><title>Node295&#45;&gt;Node299</title>
<path fill="none" stroke="midnightblue" d="M138.389,-44.1314C194.836,-39.2835 274.849,-32.4118 332.99,-27.4186"/>
<polygon fill="midnightblue" stroke="midnightblue" points="333.552,-30.8832 343.216,-26.5403 332.953,-23.9089 333.552,-30.8832"/>
</g>
<!-- Node297 -->
<g id="node3" class="node"><title>Node297</title>
<g id="a_node3"><a xlink:href="namespaceexceptions.html#a22a1bf2808fdc249e6b378ee3f221156" target="_top" xlink:title="exceptions::die">
<polygon fill="white" stroke="black" points="512.56,-66.5 512.56,-85.5 601.94,-85.5 601.94,-66.5 512.56,-66.5"/>
<text text-anchor="middle" x="557.25" y="-72.7" font-family="Helvetica,sans-Serif" font-size="11.00">exceptions::die</text>
</a>
</g>
</g>
<!-- Node296&#45;&gt;Node297 -->
<g id="edge2" class="edge"><title>Node296&#45;&gt;Node297</title>
<path fill="none" stroke="midnightblue" d="M305.141,-94.5486C316.941,-97.232 329.215,-99.5679 340.892,-101 400.741,-108.34 416.958,-110.13 476.56,-101 492.015,-98.6327 508.588,-93.8243 522.596,-89.0512"/>
<polygon fill="midnightblue" stroke="midnightblue" points="524.033,-92.2555 532.29,-85.6173 521.695,-85.6573 524.033,-92.2555"/>
</g>
<!-- Node298 -->
<g id="node4" class="node"><title>Node298</title>
<g id="a_node4"><a xlink:href="namespacerunoff____gridded__values.html#a2727530636eb37b13a66e54c7f4acc1e" target="_top" xlink:title="runoff__gridded_values\l::read_runoff_ratio_table">
<polygon fill="white" stroke="black" points="340.892,-61 340.892,-91 476.56,-91 476.56,-61 340.892,-61"/>
<text text-anchor="start" x="348.892" y="-78.2" font-family="Helvetica,sans-Serif" font-size="11.00">runoff__gridded_values</text>
<text text-anchor="middle" x="408.726" y="-67.2" font-family="Helvetica,sans-Serif" font-size="11.00">::read_runoff_ratio_table</text>
</a>
</g>
</g>
<!-- Node296&#45;&gt;Node298 -->
<g id="edge3" class="edge"><title>Node296&#45;&gt;Node298</title>
<path fill="none" stroke="midnightblue" d="M305.155,-76C313.453,-76 322.015,-76 330.488,-76"/>
<polygon fill="midnightblue" stroke="midnightblue" points="330.757,-79.5001 340.757,-76 330.757,-72.5001 330.757,-79.5001"/>
</g>
<!-- Node298&#45;&gt;Node297 -->
<g id="edge4" class="edge"><title>Node298&#45;&gt;Node297</title>
<path fill="none" stroke="midnightblue" d="M476.984,-76C485.448,-76 494.019,-76 502.242,-76"/>
<polygon fill="midnightblue" stroke="midnightblue" points="502.437,-79.5001 512.437,-76 502.437,-72.5001 502.437,-79.5001"/>
</g>
<!-- Node299&#45;&gt;Node297 -->
<g id="edge6" class="edge"><title>Node299&#45;&gt;Node297</title>
<path fill="none" stroke="midnightblue" d="M464.703,-41.6365C483.71,-48.771 504.471,-56.564 521.41,-62.9224"/>
<polygon fill="midnightblue" stroke="midnightblue" points="520.308,-66.2469 530.9,-66.4845 522.768,-59.6934 520.308,-66.2469"/>
</g>
</g>
</svg>
