<?xml version="1.0" encoding="UTF-8" standalone="no"?>
<!DOCTYPE svg PUBLIC "-//W3C//DTD SVG 1.1//EN"
 "http://www.w3.org/Graphics/SVG/1.1/DTD/svg11.dtd">
<!-- Generated by graphviz version 2.38.0 (20140413.2041)
 -->
<!-- Title: model_domain::model_update_crop_coefficient_fao56 Pages: 1 -->
<!--zoomable 116 -->
<svg id="main" version="1.1" xmlns="http://www.w3.org/2000/svg" xmlns:xlink="http://www.w3.org/1999/xlink" xml:space="preserve" onload="init(evt)">
<style type="text/css"><![CDATA[
.edge:hover path { stroke: red; }
.edge:hover polygon { stroke: red; fill: red; }
]]></style>
<script type="text/javascript"><![CDATA[
var edges = document.getElementsByTagName('g');
if (edges && edges.length) {
  for (var i=0;i<edges.length;i++) {
    if (edges[i].id.substr(0,4)=='edge') {
      edges[i].setAttribute('class','edge');
    }
  }
}
]]></script>
        <defs>
                <circle id="rim" cx="0" cy="0" r="7"/>
                <circle id="rim2" cx="0" cy="0" r="3.5"/>
                <g id="zoomPlus">
                        <use xlink:href="#rim" fill="#404040">
                                <set attributeName="fill" to="#808080" begin="zoomplus.mouseover" end="zoomplus.mouseout"/>
                        </use>
                        <path d="M-4,0h8M0,-4v8" fill="none" stroke="white" stroke-width="1.5" pointer-events="none"/>
                </g>
                <g id="zoomMin">
                        <use xlink:href="#rim" fill="#404040">
                                <set attributeName="fill" to="#808080" begin="zoomminus.mouseover" end="zoomminus.mouseout"/>
                        </use>
                        <path d="M-4,0h8" fill="none" stroke="white" stroke-width="1.5" pointer-events="none"/>
                </g>
                <g id="dirArrow">
                        <path fill="none" stroke="white" stroke-width="1.5" d="M0,-3.0v7 M-2.5,-0.5L0,-3.0L2.5,-0.5"/>
                </g>
               <g id="resetDef">
                       <use xlink:href="#rim2" fill="#404040">
                               <set attributeName="fill" to="#808080" begin="reset.mouseover" end="reset.mouseout"/>
                       </use>
               </g>
        </defs>

<script type="text/javascript">
var viewWidth = 564;
var viewHeight = 116;
var sectionId = 'dynsection-95';
</script>
<script xlink:href="svgpan.js"/>
<svg id="graph" class="graph">
<g id="viewport">
<title>model_domain::model_update_crop_coefficient_fao56</title>
<polygon fill="white" stroke="none" points="-4,4 -4,-111.5 560.079,-111.5 560.079,4 -4,4"/>
<!-- Node454 -->
<g id="node1" class="node"><title>Node454</title>
<polygon fill="#bfbfbf" stroke="black" points="0,-36 0,-66 172.567,-66 172.567,-36 0,-36"/>
<text text-anchor="start" x="8" y="-53.2" font-family="Helvetica,sans-Serif" font-size="11.00">model_domain::model</text>
<text text-anchor="middle" x="86.2837" y="-42.2" font-family="Helvetica,sans-Serif" font-size="11.00">_update_crop_coefficient_fao56</text>
</g>
<!-- Node455 -->
<g id="node2" class="node"><title>Node455</title>
<g id="a_node2"><a xlink:href="namespacecrop__coefficients____fao56.html#ac360e63a2ef8c2821ccd7c65beb525ea" target="_top" xlink:title="crop_coefficients_\l_fao56::crop_coefficients\l_fao56_calculate">
<polygon fill="white" stroke="black" points="236.715,-60.5 236.715,-101.5 375.014,-101.5 375.014,-60.5 236.715,-60.5"/>
<text text-anchor="start" x="244.715" y="-88.7" font-family="Helvetica,sans-Serif" font-size="11.00">crop_coefficients_</text>
<text text-anchor="start" x="244.715" y="-77.7" font-family="Helvetica,sans-Serif" font-size="11.00">_fao56::crop_coefficients</text>
<text text-anchor="middle" x="305.865" y="-66.7" font-family="Helvetica,sans-Serif" font-size="11.00">_fao56_calculate</text>
</a>
</g>
</g>
<!-- Node454&#45;&gt;Node455 -->
<g id="edge1" class="edge"><title>Node454&#45;&gt;Node455</title>
<path fill="none" stroke="midnightblue" d="M172.653,-62.7707C190.368,-65.2132 208.953,-67.7757 226.406,-70.1821"/>
<polygon fill="midnightblue" stroke="midnightblue" points="226.152,-73.6801 236.536,-71.5789 227.108,-66.7457 226.152,-73.6801"/>
</g>
<!-- Node457 -->
<g id="node4" class="node"><title>Node457</title>
<g id="a_node4"><a xlink:href="namespacecrop__coefficients____fao56.html#a7d38167cc2ba756a05ad21ec000e1ded" target="_top" xlink:title="crop_coefficients_\l_fao56::crop_coefficients\l_fao56_update_growth_stage_dates">
<polygon fill="white" stroke="black" points="208.567,-0.5 208.567,-41.5 403.162,-41.5 403.162,-0.5 208.567,-0.5"/>
<text text-anchor="start" x="216.567" y="-28.7" font-family="Helvetica,sans-Serif" font-size="11.00">crop_coefficients_</text>
<text text-anchor="start" x="216.567" y="-17.7" font-family="Helvetica,sans-Serif" font-size="11.00">_fao56::crop_coefficients</text>
<text text-anchor="middle" x="305.865" y="-6.7" font-family="Helvetica,sans-Serif" font-size="11.00">_fao56_update_growth_stage_dates</text>
</a>
</g>
</g>
<!-- Node454&#45;&gt;Node457 -->
<g id="edge3" class="edge"><title>Node454&#45;&gt;Node457</title>
<path fill="none" stroke="midnightblue" d="M172.653,-39.2293C181.039,-38.0731 189.62,-36.8899 198.183,-35.7092"/>
<polygon fill="midnightblue" stroke="midnightblue" points="198.787,-39.1591 208.215,-34.326 197.831,-32.2247 198.787,-39.1591"/>
</g>
<!-- Node456 -->
<g id="node3" class="node"><title>Node456</title>
<g id="a_node3"><a xlink:href="namespacecrop__coefficients____fao56.html#a2e5eaecdad409378faa4c5f4fc5e6e54" target="_top" xlink:title="Update the current basal crop coefficient (Kcb) for a SINGLE irrigation table entry. ">
<polygon fill="white" stroke="black" points="439.162,-55 439.162,-107 556.079,-107 556.079,-55 439.162,-55"/>
<text text-anchor="start" x="447.162" y="-94.2" font-family="Helvetica,sans-Serif" font-size="11.00">crop_coefficients_</text>
<text text-anchor="start" x="447.162" y="-83.2" font-family="Helvetica,sans-Serif" font-size="11.00">_fao56::update_crop</text>
<text text-anchor="start" x="447.162" y="-72.2" font-family="Helvetica,sans-Serif" font-size="11.00">_coefficient_date_as</text>
<text text-anchor="middle" x="497.62" y="-61.2" font-family="Helvetica,sans-Serif" font-size="11.00">_threshold</text>
</a>
</g>
</g>
<!-- Node455&#45;&gt;Node456 -->
<g id="edge2" class="edge"><title>Node455&#45;&gt;Node456</title>
<path fill="none" stroke="midnightblue" d="M375.103,-81C392.6,-81 411.413,-81 428.885,-81"/>
<polygon fill="midnightblue" stroke="midnightblue" points="428.998,-84.5001 438.998,-81 428.998,-77.5001 428.998,-84.5001"/>
</g>
</g>
</svg>
        <g id="navigator" transform="translate(0 0)" fill="#404254">
                <rect fill="#f2f5e9" fill-opacity="0.5" stroke="#606060" stroke-width=".5" x="0" y="0" width="60" height="60"/>
                <use id="zoomplus" xlink:href="#zoomPlus" x="17" y="9" onmousedown="handleZoom(evt,'in')"/>
                <use id="zoomminus" xlink:href="#zoomMin" x="42" y="9" onmousedown="handleZoom(evt,'out')"/>
                <use id="reset" xlink:href="#resetDef" x="30" y="36" onmousedown="handleReset()"/>
                <g id="arrowUp" xlink:href="#dirArrow" transform="translate(30 24)" onmousedown="handlePan(0,-1)">
                  <use xlink:href="#rim" fill="#404040">
                        <set attributeName="fill" to="#808080" begin="arrowUp.mouseover" end="arrowUp.mouseout"/>
                  </use>
                  <path fill="none" stroke="white" stroke-width="1.5" d="M0,-3.0v7 M-2.5,-0.5L0,-3.0L2.5,-0.5"/>
                </g>
                <g id="arrowRight" xlink:href="#dirArrow" transform="rotate(90) translate(36 -43)" onmousedown="handlePan(1,0)">
                  <use xlink:href="#rim" fill="#404040">
                        <set attributeName="fill" to="#808080" begin="arrowRight.mouseover" end="arrowRight.mouseout"/>
                  </use>
                  <path fill="none" stroke="white" stroke-width="1.5" d="M0,-3.0v7 M-2.5,-0.5L0,-3.0L2.5,-0.5"/>
                </g>
                <g id="arrowDown" xlink:href="#dirArrow" transform="rotate(180) translate(-30 -48)" onmousedown="handlePan(0,1)">
                  <use xlink:href="#rim" fill="#404040">
                        <set attributeName="fill" to="#808080" begin="arrowDown.mouseover" end="arrowDown.mouseout"/>
                  </use>
                  <path fill="none" stroke="white" stroke-width="1.5" d="M0,-3.0v7 M-2.5,-0.5L0,-3.0L2.5,-0.5"/>
                </g>
                <g id="arrowLeft" xlink:href="#dirArrow" transform="rotate(270) translate(-36 17)" onmousedown="handlePan(-1,0)">
                  <use xlink:href="#rim" fill="#404040">
                        <set attributeName="fill" to="#808080" begin="arrowLeft.mouseover" end="arrowLeft.mouseout"/>
                  </use>
                  <path fill="none" stroke="white" stroke-width="1.5" d="M0,-3.0v7 M-2.5,-0.5L0,-3.0L2.5,-0.5"/>
                </g>
        </g>
        <svg viewBox="0 0 15 15" width="100%" height="30px" preserveAspectRatio="xMaxYMin meet">
         <g id="arrow_out" transform="scale(0.3 0.3)">
          <a xlink:href="namespacemodel__domain_a95b2e2fe14b8b2913da8f4841445038d_cgraph_org.svg" target="_base">
           <rect id="button" ry="5" rx="5" y="6" x="6" height="38" width="38"
                fill="#f2f5e9" fill-opacity="0.5" stroke="#606060" stroke-width="1.0"/>
           <path id="arrow"
             d="M 11.500037,31.436501 C 11.940474,20.09759 22.043105,11.32322 32.158766,21.979434 L 37.068811,17.246167 C 37.068811,17.246167 37.088388,32 37.088388,32 L 22.160133,31.978069 C 22.160133,31.978069 26.997745,27.140456 26.997745,27.140456 C 18.528582,18.264221 13.291696,25.230495 11.500037,31.436501 z"
             style="fill:#404040;"/>
          </a>
         </g>
        </svg>
</svg>
