<?xml version="1.0" encoding="UTF-8" standalone="no"?>
<!DOCTYPE svg PUBLIC "-//W3C//DTD SVG 1.1//EN"
 "http://www.w3.org/Graphics/SVG/1.1/DTD/svg11.dtd">
<!-- Generated by graphviz version 2.38.0 (20140413.2041)
 -->
<!-- Title: grid::grid_dumpgridextent Pages: 1 -->
<svg width="657pt" height="39pt"
 viewBox="0.00 0.00 656.98 39.00" xmlns="http://www.w3.org/2000/svg" xmlns:xlink="http://www.w3.org/1999/xlink">
<g id="graph0" class="graph" transform="scale(1 1) rotate(0) translate(4 35)">
<title>grid::grid_dumpgridextent</title>
<polygon fill="white" stroke="none" points="-4,4 -4,-35 652.98,-35 652.98,4 -4,4"/>
<!-- Node1 -->
<g id="node1" class="node"><title>Node1</title>
<polygon fill="#bfbfbf" stroke="black" points="0,-6 0,-25 140.738,-25 140.738,-6 0,-6"/>
<text text-anchor="middle" x="70.3691" y="-12.2" font-family="Helvetica,sans-Serif" font-size="11.00">grid::grid_dumpgridextent</text>
</g>
<!-- Node2 -->
<g id="node2" class="node"><title>Node2</title>
<g id="a_node2"><a xlink:href="namespacedata__catalog__entry.html#ae25b374c1170fdd0c122e92a781e22ad" target="_top" xlink:title="data_catalog_entry\l::dump_data_structure_sub">
<polygon fill="white" stroke="black" points="176.738,-0.5 176.738,-30.5 326.656,-30.5 326.656,-0.5 176.738,-0.5"/>
<text text-anchor="start" x="184.738" y="-17.7" font-family="Helvetica,sans-Serif" font-size="11.00">data_catalog_entry</text>
<text text-anchor="middle" x="251.697" y="-6.7" font-family="Helvetica,sans-Serif" font-size="11.00">::dump_data_structure_sub</text>
</a>
</g>
</g>
<!-- Node1&#45;&gt;Node2 -->
<g id="edge1" class="edge"><title>Node1&#45;&gt;Node2</title>
<path fill="none" stroke="midnightblue" d="M151.219,-15.5C159.695,-15.5 168.29,-15.5 176.695,-15.5"/>
<polygon fill="midnightblue" stroke="midnightblue" points="150.959,-12.0001 140.959,-15.5 150.959,-19.0001 150.959,-12.0001"/>
</g>
<!-- Node3 -->
<g id="node3" class="node"><title>Node3</title>
<g id="a_node3"><a xlink:href="namespacedata__catalog__entry.html#ad366e6f92c311cf7842e8e339a88fc8f" target="_top" xlink:title="data_catalog_entry\l::getvalues_constant_sub">
<polygon fill="white" stroke="black" points="362.656,-0.5 362.656,-30.5 503.41,-30.5 503.41,-0.5 362.656,-0.5"/>
<text text-anchor="start" x="370.656" y="-17.7" font-family="Helvetica,sans-Serif" font-size="11.00">data_catalog_entry</text>
<text text-anchor="middle" x="433.033" y="-6.7" font-family="Helvetica,sans-Serif" font-size="11.00">::getvalues_constant_sub</text>
</a>
</g>
</g>
<!-- Node2&#45;&gt;Node3 -->
<g id="edge2" class="edge"><title>Node2&#45;&gt;Node3</title>
<path fill="none" stroke="midnightblue" d="M336.759,-15.5C345.393,-15.5 354.096,-15.5 362.547,-15.5"/>
<polygon fill="midnightblue" stroke="midnightblue" points="336.675,-12.0001 326.675,-15.5 336.675,-19.0001 336.675,-12.0001"/>
</g>
<!-- Node4 -->
<g id="node4" class="node"><title>Node4</title>
<g id="a_node4"><a xlink:href="namespacedata__catalog__entry.html#a9e0a89ab19a5bfd61f2dfb8265648234" target="_top" xlink:title="data_catalog_entry\l::getvalues_sub">
<polygon fill="white" stroke="black" points="539.41,-0.5 539.41,-30.5 648.98,-30.5 648.98,-0.5 539.41,-0.5"/>
<text text-anchor="start" x="547.41" y="-17.7" font-family="Helvetica,sans-Serif" font-size="11.00">data_catalog_entry</text>
<text text-anchor="middle" x="594.195" y="-6.7" font-family="Helvetica,sans-Serif" font-size="11.00">::getvalues_sub</text>
</a>
</g>
</g>
<!-- Node3&#45;&gt;Node4 -->
<g id="edge3" class="edge"><title>Node3&#45;&gt;Node4</title>
<path fill="none" stroke="midnightblue" d="M513.897,-15.5C522.479,-15.5 531.058,-15.5 539.232,-15.5"/>
<polygon fill="midnightblue" stroke="midnightblue" points="513.844,-12.0001 503.844,-15.5 513.844,-19.0001 513.844,-12.0001"/>
</g>
</g>
</svg>
