<?xml version="1.0" encoding="UTF-8" standalone="no"?>
<!DOCTYPE svg PUBLIC "-//W3C//DTD SVG 1.1//EN"
 "http://www.w3.org/Graphics/SVG/1.1/DTD/svg11.dtd">
<!-- Generated by graphviz version 2.38.0 (20140413.2041)
 -->
<!-- Title: fog__monthly_grid::fog_monthly_grid_initialize Pages: 1 -->
<!--zoomable 665 -->
<svg id="main" version="1.1" xmlns="http://www.w3.org/2000/svg" xmlns:xlink="http://www.w3.org/1999/xlink" xml:space="preserve" onload="init(evt)">
<style type="text/css"><![CDATA[
.edge:hover path { stroke: red; }
.edge:hover polygon { stroke: red; fill: red; }
]]></style>
<script type="text/javascript"><![CDATA[
var edges = document.getElementsByTagName('g');
if (edges && edges.length) {
  for (var i=0;i<edges.length;i++) {
    if (edges[i].id.substr(0,4)=='edge') {
      edges[i].setAttribute('class','edge');
    }
  }
}
]]></script>
        <defs>
                <circle id="rim" cx="0" cy="0" r="7"/>
                <circle id="rim2" cx="0" cy="0" r="3.5"/>
                <g id="zoomPlus">
                        <use xlink:href="#rim" fill="#404040">
                                <set attributeName="fill" to="#808080" begin="zoomplus.mouseover" end="zoomplus.mouseout"/>
                        </use>
                        <path d="M-4,0h8M0,-4v8" fill="none" stroke="white" stroke-width="1.5" pointer-events="none"/>
                </g>
                <g id="zoomMin">
                        <use xlink:href="#rim" fill="#404040">
                                <set attributeName="fill" to="#808080" begin="zoomminus.mouseover" end="zoomminus.mouseout"/>
                        </use>
                        <path d="M-4,0h8" fill="none" stroke="white" stroke-width="1.5" pointer-events="none"/>
                </g>
                <g id="dirArrow">
                        <path fill="none" stroke="white" stroke-width="1.5" d="M0,-3.0v7 M-2.5,-0.5L0,-3.0L2.5,-0.5"/>
                </g>
               <g id="resetDef">
                       <use xlink:href="#rim2" fill="#404040">
                               <set attributeName="fill" to="#808080" begin="reset.mouseover" end="reset.mouseout"/>
                       </use>
               </g>
        </defs>

<script type="text/javascript">
var viewWidth = 1091;
var viewHeight = 665;
var sectionId = 'dynsection-0';
</script>
<script xlink:href="svgpan.js"/>
<svg id="graph" class="graph">
<g id="viewport">
<title>fog__monthly_grid::fog_monthly_grid_initialize</title>
<polygon fill="white" stroke="none" points="-4,4 -4,-660.832 1087.25,-660.832 1087.25,4 -4,4"/>
<!-- Node1 -->
<g id="node1" class="node"><title>Node1</title>
<polygon fill="#bfbfbf" stroke="black" points="0,-294.06 0,-324.06 145.631,-324.06 145.631,-294.06 0,-294.06"/>
<text text-anchor="start" x="8" y="-311.26" font-family="Helvetica,sans-Serif" font-size="11.00">fog__monthly_grid::</text>
<text text-anchor="middle" x="72.8157" y="-300.26" font-family="Helvetica,sans-Serif" font-size="11.00">fog_monthly_grid_initialize</text>
</g>
<!-- Node2 -->
<g id="node2" class="node"><title>Node2</title>
<g id="a_node2"><a xlink:href="namespaceexceptions.html#a22a1bf2808fdc249e6b378ee3f221156" target="_top" xlink:title="exceptions::die">
<polygon fill="white" stroke="black" points="221.705,-343.56 221.705,-362.56 311.085,-362.56 311.085,-343.56 221.705,-343.56"/>
<text text-anchor="middle" x="266.395" y="-349.76" font-family="Helvetica,sans-Serif" font-size="11.00">exceptions::die</text>
</a>
</g>
</g>
<!-- Node1&#45;&gt;Node2 -->
<g id="edge1" class="edge"><title>Node1&#45;&gt;Node2</title>
<path fill="none" stroke="midnightblue" d="M139.211,-324.079C163.666,-329.696 191.071,-335.99 214.077,-341.273"/>
<polygon fill="midnightblue" stroke="midnightblue" points="213.447,-344.72 223.977,-343.547 215.014,-337.897 213.447,-344.72"/>
</g>
<!-- Node3 -->
<g id="node3" class="node"><title>Node3</title>
<g id="a_node3"><a xlink:href="namespacenetcdf4__support.html#a37516733165a5b76f3d401654aa0e7ca" target="_top" xlink:title="netcdf4_support::netcdf\l_open_and_prepare_as_output">
<polygon fill="white" stroke="black" points="181.631,-294.06 181.631,-324.06 351.159,-324.06 351.159,-294.06 181.631,-294.06"/>
<text text-anchor="start" x="189.631" y="-311.26" font-family="Helvetica,sans-Serif" font-size="11.00">netcdf4_support::netcdf</text>
<text text-anchor="middle" x="266.395" y="-300.26" font-family="Helvetica,sans-Serif" font-size="11.00">_open_and_prepare_as_output</text>
</a>
</g>
</g>
<!-- Node1&#45;&gt;Node3 -->
<g id="edge2" class="edge"><title>Node1&#45;&gt;Node3</title>
<path fill="none" stroke="midnightblue" d="M145.698,-309.06C154.092,-309.06 162.748,-309.06 171.385,-309.06"/>
<polygon fill="midnightblue" stroke="midnightblue" points="171.498,-312.56 181.498,-309.06 171.498,-305.56 171.498,-312.56"/>
</g>
<!-- Node13 -->
<g id="node13" class="node"><title>Node13</title>
<g id="a_node13"><a xlink:href="namespaceexceptions.html#a84dd04476b06e0a398bfe6d106a82a4d" target="_top" xlink:title="exceptions::warn">
<polygon fill="white" stroke="black" points="598.178,-57.5596 598.178,-76.5596 696.721,-76.5596 696.721,-57.5596 598.178,-57.5596"/>
<text text-anchor="middle" x="647.449" y="-63.7596" font-family="Helvetica,sans-Serif" font-size="11.00">exceptions::warn</text>
</a>
</g>
</g>
<!-- Node1&#45;&gt;Node13 -->
<g id="edge30" class="edge"><title>Node1&#45;&gt;Node13</title>
<path fill="none" stroke="midnightblue" d="M83.638,-293.754C117.821,-242.109 237.68,-74.2058 387.159,-15.0596 448.367,9.15952 471.009,-0.775687 535.266,-15.0596 567.158,-22.1488 600.727,-39.3969 622.527,-52.0934"/>
<polygon fill="midnightblue" stroke="midnightblue" points="621.008,-55.2626 631.388,-57.3833 624.596,-49.2521 621.008,-55.2626"/>
</g>
<!-- Node4 -->
<g id="node4" class="node"><title>Node4</title>
<g id="a_node4"><a xlink:href="namespacenetcdf4__support.html#ad6629f4108c3dcd35a20b03a0ef68ba5" target="_top" xlink:title="netcdf4_support::nf\l_create">
<polygon fill="white" stroke="black" points="406.124,-595.06 406.124,-625.06 516.301,-625.06 516.301,-595.06 406.124,-595.06"/>
<text text-anchor="start" x="414.124" y="-612.26" font-family="Helvetica,sans-Serif" font-size="11.00">netcdf4_support::nf</text>
<text text-anchor="middle" x="461.212" y="-601.26" font-family="Helvetica,sans-Serif" font-size="11.00">_create</text>
</a>
</g>
</g>
<!-- Node3&#45;&gt;Node4 -->
<g id="edge3" class="edge"><title>Node3&#45;&gt;Node4</title>
<path fill="none" stroke="midnightblue" d="M339.477,-324.072C343.807,-326.867 347.772,-330.167 351.159,-334.06 420.806,-414.103 326.323,-483.13 387.159,-570.06 392.697,-577.973 400.318,-584.48 408.559,-589.776"/>
<polygon fill="midnightblue" stroke="midnightblue" points="406.906,-592.863 417.31,-594.864 410.425,-586.812 406.906,-592.863"/>
</g>
<!-- Node8 -->
<g id="node8" class="node"><title>Node8</title>
<g id="a_node8"><a xlink:href="namespacenetcdf4__support.html#a00a0dc30e681bdc43764c0a3cad74075" target="_top" xlink:title="netcdf4_support::nf\l_set_standard_dimensions">
<polygon fill="white" stroke="black" points="387.476,-221.06 387.476,-251.06 534.949,-251.06 534.949,-221.06 387.476,-221.06"/>
<text text-anchor="start" x="395.476" y="-238.26" font-family="Helvetica,sans-Serif" font-size="11.00">netcdf4_support::nf</text>
<text text-anchor="middle" x="461.212" y="-227.26" font-family="Helvetica,sans-Serif" font-size="11.00">_set_standard_dimensions</text>
</a>
</g>
</g>
<!-- Node3&#45;&gt;Node8 -->
<g id="edge7" class="edge"><title>Node3&#45;&gt;Node8</title>
<path fill="none" stroke="midnightblue" d="M302.25,-294.035C326.009,-283.982 358.278,-270.697 387.159,-260.06 392.326,-258.156 397.725,-256.243 403.147,-254.373"/>
<polygon fill="midnightblue" stroke="midnightblue" points="404.543,-257.595 412.885,-251.064 402.291,-250.968 404.543,-257.595"/>
</g>
<!-- Node9 -->
<g id="node9" class="node"><title>Node9</title>
<g id="a_node9"><a xlink:href="namespacenetcdf4__support.html#abc5c3dbf8acae163fbfcf84e4cee8ab4" target="_top" xlink:title="netcdf4_support::nf\l_define_dimensions">
<polygon fill="white" stroke="black" points="590.527,-546.06 590.527,-576.06 704.372,-576.06 704.372,-546.06 590.527,-546.06"/>
<text text-anchor="start" x="598.527" y="-563.26" font-family="Helvetica,sans-Serif" font-size="11.00">netcdf4_support::nf</text>
<text text-anchor="middle" x="647.449" y="-552.26" font-family="Helvetica,sans-Serif" font-size="11.00">_define_dimensions</text>
</a>
</g>
</g>
<!-- Node3&#45;&gt;Node9 -->
<g id="edge8" class="edge"><title>Node3&#45;&gt;Node9</title>
<path fill="none" stroke="midnightblue" d="M339.308,-324.222C343.677,-326.983 347.697,-330.233 351.159,-334.06 407.945,-396.819 326.211,-462.333 387.159,-521.06 437.749,-569.805 521.501,-574.333 580.092,-570.23"/>
<polygon fill="midnightblue" stroke="midnightblue" points="580.673,-573.695 590.36,-569.405 580.112,-566.717 580.673,-573.695"/>
</g>
<!-- Node10 -->
<g id="node10" class="node"><title>Node10</title>
<g id="a_node10"><a xlink:href="namespacenetcdf4__support.html#ab39abe545c42ab75fd342e7e90370a60" target="_top" xlink:title="netcdf4_support::nf\l_set_standard_variables">
<polygon fill="white" stroke="black" points="393.284,-172.06 393.284,-202.06 529.14,-202.06 529.14,-172.06 393.284,-172.06"/>
<text text-anchor="start" x="401.284" y="-189.26" font-family="Helvetica,sans-Serif" font-size="11.00">netcdf4_support::nf</text>
<text text-anchor="middle" x="461.212" y="-178.26" font-family="Helvetica,sans-Serif" font-size="11.00">_set_standard_variables</text>
</a>
</g>
</g>
<!-- Node3&#45;&gt;Node10 -->
<g id="edge10" class="edge"><title>Node3&#45;&gt;Node10</title>
<path fill="none" stroke="midnightblue" d="M282.297,-293.714C303.706,-272.451 345.228,-234.054 387.159,-211.06 390.392,-209.286 393.779,-207.616 397.247,-206.048"/>
<polygon fill="midnightblue" stroke="midnightblue" points="398.707,-209.231 406.572,-202.132 395.997,-202.777 398.707,-209.231"/>
</g>
<!-- Node11 -->
<g id="node11" class="node"><title>Node11</title>
<g id="a_node11"><a xlink:href="namespacenetcdf4__support.html#a3e28f7c215b2a46ef88ce147905b5380" target="_top" xlink:title="netcdf4_support::nf\l_define_variables">
<polygon fill="white" stroke="black" points="592.361,-497.06 592.361,-527.06 702.538,-527.06 702.538,-497.06 592.361,-497.06"/>
<text text-anchor="start" x="600.361" y="-514.26" font-family="Helvetica,sans-Serif" font-size="11.00">netcdf4_support::nf</text>
<text text-anchor="middle" x="647.449" y="-503.26" font-family="Helvetica,sans-Serif" font-size="11.00">_define_variables</text>
</a>
</g>
</g>
<!-- Node3&#45;&gt;Node11 -->
<g id="edge11" class="edge"><title>Node3&#45;&gt;Node11</title>
<path fill="none" stroke="midnightblue" d="M338.743,-324.144C343.302,-326.919 347.515,-330.195 351.159,-334.06 399.078,-384.89 334.544,-441.107 387.159,-487.06 440.017,-533.225 524.07,-532.608 582.075,-524.961"/>
<polygon fill="midnightblue" stroke="midnightblue" points="582.822,-528.391 592.229,-523.517 581.836,-521.46 582.822,-528.391"/>
</g>
<!-- Node12 -->
<g id="node12" class="node"><title>Node12</title>
<g id="a_node12"><a xlink:href="namespacenetcdf4__support.html#aa2e8f7506c9fd50f984f1de77bfdc55d" target="_top" xlink:title="netcdf4_support::nf\l_get_variable_id_and_type">
<polygon fill="white" stroke="black" points="387.159,-123.06 387.159,-153.06 535.266,-153.06 535.266,-123.06 387.159,-123.06"/>
<text text-anchor="start" x="395.159" y="-140.26" font-family="Helvetica,sans-Serif" font-size="11.00">netcdf4_support::nf</text>
<text text-anchor="middle" x="461.212" y="-129.26" font-family="Helvetica,sans-Serif" font-size="11.00">_get_variable_id_and_type</text>
</a>
</g>
</g>
<!-- Node3&#45;&gt;Node12 -->
<g id="edge13" class="edge"><title>Node3&#45;&gt;Node12</title>
<path fill="none" stroke="midnightblue" d="M275.806,-293.735C292.89,-264.003 334.533,-198.239 387.159,-162.06 389.402,-160.517 391.751,-159.069 394.175,-157.708"/>
<polygon fill="midnightblue" stroke="midnightblue" points="395.863,-160.777 403.226,-153.159 392.719,-154.523 395.863,-160.777"/>
</g>
<!-- Node14 -->
<g id="node14" class="node"><title>Node14</title>
<g id="a_node14"><a xlink:href="namespacenetcdf4__support.html#af32d2648803a8e58f7a989506eb4d5aa" target="_top" xlink:title="netcdf4_support::nf\l_set_standard_attributes">
<polygon fill="white" stroke="black" points="392.672,-74.0596 392.672,-104.06 529.753,-104.06 529.753,-74.0596 392.672,-74.0596"/>
<text text-anchor="start" x="400.672" y="-91.2596" font-family="Helvetica,sans-Serif" font-size="11.00">netcdf4_support::nf</text>
<text text-anchor="middle" x="461.212" y="-80.2596" font-family="Helvetica,sans-Serif" font-size="11.00">_set_standard_attributes</text>
</a>
</g>
</g>
<!-- Node3&#45;&gt;Node14 -->
<g id="edge15" class="edge"><title>Node3&#45;&gt;Node14</title>
<path fill="none" stroke="midnightblue" d="M272.51,-293.798C285.576,-257.115 323.7,-163.32 387.159,-113.06 388.768,-111.785 390.447,-110.577 392.182,-109.433"/>
<polygon fill="midnightblue" stroke="midnightblue" points="394.331,-112.235 401.259,-104.219 390.844,-106.165 394.331,-112.235"/>
</g>
<!-- Node15 -->
<g id="node15" class="node"><title>Node15</title>
<g id="a_node15"><a xlink:href="namespacenetcdf4__support.html#a0d54b6940a404b3e7a3213b05c9be012" target="_top" xlink:title="netcdf4_support::nf\l_set_global_attributes">
<polygon fill="white" stroke="black" points="399.397,-25.0596 399.397,-55.0596 523.028,-55.0596 523.028,-25.0596 399.397,-25.0596"/>
<text text-anchor="start" x="407.397" y="-42.2596" font-family="Helvetica,sans-Serif" font-size="11.00">netcdf4_support::nf</text>
<text text-anchor="middle" x="461.212" y="-31.2596" font-family="Helvetica,sans-Serif" font-size="11.00">_set_global_attributes</text>
</a>
</g>
</g>
<!-- Node3&#45;&gt;Node15 -->
<g id="edge16" class="edge"><title>Node3&#45;&gt;Node15</title>
<path fill="none" stroke="midnightblue" d="M270.48,-293.891C279.941,-251.226 312.557,-129.065 387.159,-64.0596 388.508,-62.8838 389.916,-61.7654 391.374,-60.7015"/>
<polygon fill="midnightblue" stroke="midnightblue" points="393.569,-63.4567 400.19,-55.1854 389.856,-57.5226 393.569,-63.4567"/>
</g>
<!-- Node16 -->
<g id="node16" class="node"><title>Node16</title>
<g id="a_node16"><a xlink:href="namespacenetcdf4__support.html#a552fe7031185ea4d81868f4d62c44021" target="_top" xlink:title="netcdf4_support::nf\l_put_attributes">
<polygon fill="white" stroke="black" points="406.124,-447.06 406.124,-477.06 516.301,-477.06 516.301,-447.06 406.124,-447.06"/>
<text text-anchor="start" x="414.124" y="-464.26" font-family="Helvetica,sans-Serif" font-size="11.00">netcdf4_support::nf</text>
<text text-anchor="middle" x="461.212" y="-453.26" font-family="Helvetica,sans-Serif" font-size="11.00">_put_attributes</text>
</a>
</g>
</g>
<!-- Node3&#45;&gt;Node16 -->
<g id="edge17" class="edge"><title>Node3&#45;&gt;Node16</title>
<path fill="none" stroke="midnightblue" d="M337.404,-324.231C342.386,-326.981 347.054,-330.228 351.159,-334.06 384.468,-365.155 355.82,-396.979 387.159,-430.06 391.471,-434.611 396.543,-438.554 401.971,-441.961"/>
<polygon fill="midnightblue" stroke="midnightblue" points="400.304,-445.038 410.737,-446.883 403.732,-438.935 400.304,-445.038"/>
</g>
<!-- Node18 -->
<g id="node18" class="node"><title>Node18</title>
<g id="a_node18"><a xlink:href="namespacenetcdf4__support.html#a42ab68a9a8bd8347f64339759a7c4714" target="_top" xlink:title="netcdf4_support::nf\l_define_deflate">
<polygon fill="white" stroke="black" points="592.361,-399.06 592.361,-429.06 702.538,-429.06 702.538,-399.06 592.361,-399.06"/>
<text text-anchor="start" x="600.361" y="-416.26" font-family="Helvetica,sans-Serif" font-size="11.00">netcdf4_support::nf</text>
<text text-anchor="middle" x="647.449" y="-405.26" font-family="Helvetica,sans-Serif" font-size="11.00">_define_deflate</text>
</a>
</g>
</g>
<!-- Node3&#45;&gt;Node18 -->
<g id="edge20" class="edge"><title>Node3&#45;&gt;Node18</title>
<path fill="none" stroke="midnightblue" d="M332.845,-324.114C339.302,-326.897 345.536,-330.183 351.159,-334.06 372.822,-348.995 364.349,-367.943 387.159,-381.06 446.875,-415.4 526.942,-420.618 582.228,-419.176"/>
<polygon fill="midnightblue" stroke="midnightblue" points="582.377,-422.673 592.252,-418.835 582.139,-415.677 582.377,-422.673"/>
</g>
<!-- Node19 -->
<g id="node19" class="node"><title>Node19</title>
<g id="a_node19"><a xlink:href="namespacenetcdf4__support.html#a805e940f20a61297b780e5db8d2f78b7" target="_top" xlink:title="netcdf4_support::nf\l_enddef">
<polygon fill="white" stroke="black" points="592.361,-350.06 592.361,-380.06 702.538,-380.06 702.538,-350.06 592.361,-350.06"/>
<text text-anchor="start" x="600.361" y="-367.26" font-family="Helvetica,sans-Serif" font-size="11.00">netcdf4_support::nf</text>
<text text-anchor="middle" x="647.449" y="-356.26" font-family="Helvetica,sans-Serif" font-size="11.00">_enddef</text>
</a>
</g>
</g>
<!-- Node3&#45;&gt;Node19 -->
<g id="edge22" class="edge"><title>Node3&#45;&gt;Node19</title>
<path fill="none" stroke="midnightblue" d="M325.91,-324.077C334.534,-326.989 343.191,-330.318 351.159,-334.06 368.565,-342.233 368.831,-352.239 387.159,-358.06 451.169,-378.387 528.598,-377.406 582.088,-373.045"/>
<polygon fill="midnightblue" stroke="midnightblue" points="582.466,-376.525 592.121,-372.164 581.854,-369.552 582.466,-376.525"/>
</g>
<!-- Node20 -->
<g id="node20" class="node"><title>Node20</title>
<g id="a_node20"><a xlink:href="namespacenetcdf4__support.html#a38ce80fb362cea1b8e76451f51e74330" target="_top" xlink:title="netcdf4_support::nf\l_put_x_and_y">
<polygon fill="white" stroke="black" points="406.124,-319.06 406.124,-349.06 516.301,-349.06 516.301,-319.06 406.124,-319.06"/>
<text text-anchor="start" x="414.124" y="-336.26" font-family="Helvetica,sans-Serif" font-size="11.00">netcdf4_support::nf</text>
<text text-anchor="middle" x="461.212" y="-325.26" font-family="Helvetica,sans-Serif" font-size="11.00">_put_x_and_y</text>
</a>
</g>
</g>
<!-- Node3&#45;&gt;Node20 -->
<g id="edge24" class="edge"><title>Node3&#45;&gt;Node20</title>
<path fill="none" stroke="midnightblue" d="M351.407,-319.952C366.269,-321.879 381.532,-323.858 395.749,-325.702"/>
<polygon fill="midnightblue" stroke="midnightblue" points="395.529,-329.202 405.897,-327.017 396.43,-322.26 395.529,-329.202"/>
</g>
<!-- Node22 -->
<g id="node22" class="node"><title>Node22</title>
<g id="a_node22"><a xlink:href="namespacenetcdf4__support.html#a55a403a10b71ab041dce8511b769f069" target="_top" xlink:title="netcdf4_support::nf\l_put_lat_and_lon">
<polygon fill="white" stroke="black" points="406.124,-270.06 406.124,-300.06 516.301,-300.06 516.301,-270.06 406.124,-270.06"/>
<text text-anchor="start" x="414.124" y="-287.26" font-family="Helvetica,sans-Serif" font-size="11.00">netcdf4_support::nf</text>
<text text-anchor="middle" x="461.212" y="-276.26" font-family="Helvetica,sans-Serif" font-size="11.00">_put_lat_and_lon</text>
</a>
</g>
</g>
<!-- Node3&#45;&gt;Node22 -->
<g id="edge27" class="edge"><title>Node3&#45;&gt;Node22</title>
<path fill="none" stroke="midnightblue" d="M351.407,-298.603C366.269,-296.753 381.532,-294.853 395.749,-293.083"/>
<polygon fill="midnightblue" stroke="midnightblue" points="396.405,-296.529 405.897,-291.82 395.541,-289.582 396.405,-296.529"/>
</g>
<!-- Node5 -->
<g id="node5" class="node"><title>Node5</title>
<g id="a_node5"><a xlink:href="namespacenetcdf4__support.html#ac8c7276a5849ae6d17ffef1787e3f234" target="_top" xlink:title="netcdf4_support::nf_trap">
<polygon fill="white" stroke="black" points="759.633,-428.56 759.633,-447.56 894.882,-447.56 894.882,-428.56 759.633,-428.56"/>
<text text-anchor="middle" x="827.257" y="-434.76" font-family="Helvetica,sans-Serif" font-size="11.00">netcdf4_support::nf_trap</text>
</a>
</g>
</g>
<!-- Node4&#45;&gt;Node5 -->
<g id="edge4" class="edge"><title>Node4&#45;&gt;Node5</title>
<path fill="none" stroke="midnightblue" d="M495.596,-625.205C548.237,-646.619 651.908,-678.569 723.633,-635.06 788.87,-595.485 814.569,-499.405 822.876,-457.804"/>
<polygon fill="midnightblue" stroke="midnightblue" points="826.345,-458.294 824.74,-447.821 819.464,-457.009 826.345,-458.294"/>
</g>
<!-- Node7 -->
<g id="node7" class="node"><title>Node7</title>
<g id="a_node7"><a xlink:href="namespaceconstants__and__conversions.html#a7685661976b5b344a61522a38564dab2" target="_top" xlink:title="constants_and_conversions\l::fortran_to_c_string">
<polygon fill="white" stroke="black" points="571.266,-595.06 571.266,-625.06 723.633,-625.06 723.633,-595.06 571.266,-595.06"/>
<text text-anchor="start" x="579.266" y="-612.26" font-family="Helvetica,sans-Serif" font-size="11.00">constants_and_conversions</text>
<text text-anchor="middle" x="647.449" y="-601.26" font-family="Helvetica,sans-Serif" font-size="11.00">::fortran_to_c_string</text>
</a>
</g>
</g>
<!-- Node4&#45;&gt;Node7 -->
<g id="edge6" class="edge"><title>Node4&#45;&gt;Node7</title>
<path fill="none" stroke="midnightblue" d="M516.493,-610.06C530.378,-610.06 545.651,-610.06 560.697,-610.06"/>
<polygon fill="midnightblue" stroke="midnightblue" points="561.056,-613.56 571.056,-610.06 561.056,-606.56 561.056,-613.56"/>
</g>
<!-- Node6 -->
<g id="node6" class="node"><title>Node6</title>
<g id="a_node6"><a xlink:href="namespaceconstants__and__conversions.html#ac13fba285229deab77131132e6f62caf" target="_top" xlink:title="constants_and_conversions\l::char_ptr_to_fortran_string">
<polygon fill="white" stroke="black" points="930.882,-423.06 930.882,-453.06 1083.25,-453.06 1083.25,-423.06 930.882,-423.06"/>
<text text-anchor="start" x="938.882" y="-440.26" font-family="Helvetica,sans-Serif" font-size="11.00">constants_and_conversions</text>
<text text-anchor="middle" x="1007.07" y="-429.26" font-family="Helvetica,sans-Serif" font-size="11.00">::char_ptr_to_fortran_string</text>
</a>
</g>
</g>
<!-- Node5&#45;&gt;Node6 -->
<g id="edge5" class="edge"><title>Node5&#45;&gt;Node6</title>
<path fill="none" stroke="midnightblue" d="M894.972,-438.06C903.33,-438.06 911.967,-438.06 920.562,-438.06"/>
<polygon fill="midnightblue" stroke="midnightblue" points="920.612,-441.56 930.612,-438.06 920.612,-434.56 920.612,-441.56"/>
</g>
<!-- Node9&#45;&gt;Node5 -->
<g id="edge9" class="edge"><title>Node9&#45;&gt;Node5</title>
<path fill="none" stroke="midnightblue" d="M704.722,-546.27C711.298,-543.627 717.751,-540.571 723.633,-537.06 760.412,-515.102 794.357,-477.599 812.496,-455.596"/>
<polygon fill="midnightblue" stroke="midnightblue" points="815.292,-457.705 818.853,-447.726 809.847,-453.306 815.292,-457.705"/>
</g>
<!-- Node11&#45;&gt;Node5 -->
<g id="edge12" class="edge"><title>Node11&#45;&gt;Node5</title>
<path fill="none" stroke="midnightblue" d="M698.954,-497.045C707.272,-494.257 715.748,-491.22 723.633,-488.06 749.996,-477.494 779.002,-463.089 799.431,-452.454"/>
<polygon fill="midnightblue" stroke="midnightblue" points="801.223,-455.466 808.447,-447.716 797.967,-449.27 801.223,-455.466"/>
</g>
<!-- Node12&#45;&gt;Node13 -->
<g id="edge14" class="edge"><title>Node12&#45;&gt;Node13</title>
<path fill="none" stroke="midnightblue" d="M507.575,-123.029C516.778,-119.841 526.362,-116.421 535.266,-113.06 562.504,-102.776 593.039,-90.0549 615.208,-80.5988"/>
<polygon fill="midnightblue" stroke="midnightblue" points="616.648,-83.7893 624.462,-76.6338 613.892,-77.355 616.648,-83.7893"/>
</g>
<!-- Node17 -->
<g id="node17" class="node"><title>Node17</title>
<g id="a_node17"><a xlink:href="namespacenetcdf4__support.html#ab2daa2b8ddb99e883974862b6419d0bc" target="_top" xlink:title="netcdf4_support::nf\l_put_attribute">
<polygon fill="white" stroke="black" points="592.361,-448.06 592.361,-478.06 702.538,-478.06 702.538,-448.06 592.361,-448.06"/>
<text text-anchor="start" x="600.361" y="-465.26" font-family="Helvetica,sans-Serif" font-size="11.00">netcdf4_support::nf</text>
<text text-anchor="middle" x="647.449" y="-454.26" font-family="Helvetica,sans-Serif" font-size="11.00">_put_attribute</text>
</a>
</g>
</g>
<!-- Node16&#45;&gt;Node17 -->
<g id="edge18" class="edge"><title>Node16&#45;&gt;Node17</title>
<path fill="none" stroke="midnightblue" d="M516.493,-462.354C537.11,-462.466 560.788,-462.595 582.237,-462.711"/>
<polygon fill="midnightblue" stroke="midnightblue" points="582.22,-466.211 592.239,-462.765 582.258,-459.211 582.22,-466.211"/>
</g>
<!-- Node17&#45;&gt;Node5 -->
<g id="edge19" class="edge"><title>Node17&#45;&gt;Node5</title>
<path fill="none" stroke="midnightblue" d="M702.764,-455.423C717.425,-453.362 733.573,-451.091 749.221,-448.891"/>
<polygon fill="midnightblue" stroke="midnightblue" points="749.997,-452.316 759.412,-447.458 749.022,-445.385 749.997,-452.316"/>
</g>
<!-- Node18&#45;&gt;Node5 -->
<g id="edge21" class="edge"><title>Node18&#45;&gt;Node5</title>
<path fill="none" stroke="midnightblue" d="M702.764,-421.391C717.425,-423.37 733.573,-425.549 749.221,-427.661"/>
<polygon fill="midnightblue" stroke="midnightblue" points="749.033,-431.168 759.412,-429.037 749.97,-424.231 749.033,-431.168"/>
</g>
<!-- Node19&#45;&gt;Node5 -->
<g id="edge23" class="edge"><title>Node19&#45;&gt;Node5</title>
<path fill="none" stroke="midnightblue" d="M698.933,-380.127C707.253,-382.909 715.735,-385.93 723.633,-389.06 749.778,-399.418 778.6,-413.42 799.026,-423.803"/>
<polygon fill="midnightblue" stroke="midnightblue" points="797.56,-426.985 808.055,-428.435 800.755,-420.756 797.56,-426.985"/>
</g>
<!-- Node21 -->
<g id="node21" class="node"><title>Node21</title>
<g id="a_node21"><a xlink:href="namespacenetcdf4__support.html#ad886108ada01049368a1eaf046a33a32" target="_top" xlink:title="netcdf4_support::netcdf\l_put_variable_vector">
<polygon fill="white" stroke="black" points="581.965,-301.06 581.965,-331.06 712.934,-331.06 712.934,-301.06 581.965,-301.06"/>
<text text-anchor="start" x="589.965" y="-318.26" font-family="Helvetica,sans-Serif" font-size="11.00">netcdf4_support::netcdf</text>
<text text-anchor="middle" x="647.449" y="-307.26" font-family="Helvetica,sans-Serif" font-size="11.00">_put_variable_vector</text>
</a>
</g>
</g>
<!-- Node20&#45;&gt;Node21 -->
<g id="edge25" class="edge"><title>Node20&#45;&gt;Node21</title>
<path fill="none" stroke="midnightblue" d="M516.493,-328.756C533.778,-327.068 553.214,-325.169 571.684,-323.364"/>
<polygon fill="midnightblue" stroke="midnightblue" points="572.214,-326.829 581.826,-322.373 571.533,-319.862 572.214,-326.829"/>
</g>
<!-- Node21&#45;&gt;Node5 -->
<g id="edge26" class="edge"><title>Node21&#45;&gt;Node5</title>
<path fill="none" stroke="midnightblue" d="M705.494,-331.196C711.799,-333.761 717.977,-336.703 723.633,-340.06 760.289,-361.817 794.277,-398.934 812.457,-420.707"/>
<polygon fill="midnightblue" stroke="midnightblue" points="809.788,-422.973 818.83,-428.495 815.206,-418.539 809.788,-422.973"/>
</g>
<!-- Node23 -->
<g id="node23" class="node"><title>Node23</title>
<g id="a_node23"><a xlink:href="namespacenetcdf4__support.html#a78f84d0c950f4e9718ba2d8060192355" target="_top" xlink:title="netcdf4_support::netcdf\l_put_variable_array">
<polygon fill="white" stroke="black" points="581.965,-252.06 581.965,-282.06 712.934,-282.06 712.934,-252.06 581.965,-252.06"/>
<text text-anchor="start" x="589.965" y="-269.26" font-family="Helvetica,sans-Serif" font-size="11.00">netcdf4_support::netcdf</text>
<text text-anchor="middle" x="647.449" y="-258.26" font-family="Helvetica,sans-Serif" font-size="11.00">_put_variable_array</text>
</a>
</g>
</g>
<!-- Node22&#45;&gt;Node23 -->
<g id="edge28" class="edge"><title>Node22&#45;&gt;Node23</title>
<path fill="none" stroke="midnightblue" d="M516.493,-279.756C533.778,-278.068 553.214,-276.169 571.684,-274.364"/>
<polygon fill="midnightblue" stroke="midnightblue" points="572.214,-277.829 581.826,-273.373 571.533,-270.862 572.214,-277.829"/>
</g>
<!-- Node23&#45;&gt;Node5 -->
<g id="edge29" class="edge"><title>Node23&#45;&gt;Node5</title>
<path fill="none" stroke="midnightblue" d="M708.515,-282.176C713.864,-284.705 719,-287.645 723.633,-291.06 770.454,-325.569 803.604,-388.028 818.092,-419.242"/>
<polygon fill="midnightblue" stroke="midnightblue" points="814.984,-420.865 822.283,-428.545 821.366,-417.99 814.984,-420.865"/>
</g>
</g>
</svg>
        <g id="navigator" transform="translate(0 0)" fill="#404254">
                <rect fill="#f2f5e9" fill-opacity="0.5" stroke="#606060" stroke-width=".5" x="0" y="0" width="60" height="60"/>
                <use id="zoomplus" xlink:href="#zoomPlus" x="17" y="9" onmousedown="handleZoom(evt,'in')"/>
                <use id="zoomminus" xlink:href="#zoomMin" x="42" y="9" onmousedown="handleZoom(evt,'out')"/>
                <use id="reset" xlink:href="#resetDef" x="30" y="36" onmousedown="handleReset()"/>
                <g id="arrowUp" xlink:href="#dirArrow" transform="translate(30 24)" onmousedown="handlePan(0,-1)">
                  <use xlink:href="#rim" fill="#404040">
                        <set attributeName="fill" to="#808080" begin="arrowUp.mouseover" end="arrowUp.mouseout"/>
                  </use>
                  <path fill="none" stroke="white" stroke-width="1.5" d="M0,-3.0v7 M-2.5,-0.5L0,-3.0L2.5,-0.5"/>
                </g>
                <g id="arrowRight" xlink:href="#dirArrow" transform="rotate(90) translate(36 -43)" onmousedown="handlePan(1,0)">
                  <use xlink:href="#rim" fill="#404040">
                        <set attributeName="fill" to="#808080" begin="arrowRight.mouseover" end="arrowRight.mouseout"/>
                  </use>
                  <path fill="none" stroke="white" stroke-width="1.5" d="M0,-3.0v7 M-2.5,-0.5L0,-3.0L2.5,-0.5"/>
                </g>
                <g id="arrowDown" xlink:href="#dirArrow" transform="rotate(180) translate(-30 -48)" onmousedown="handlePan(0,1)">
                  <use xlink:href="#rim" fill="#404040">
                        <set attributeName="fill" to="#808080" begin="arrowDown.mouseover" end="arrowDown.mouseout"/>
                  </use>
                  <path fill="none" stroke="white" stroke-width="1.5" d="M0,-3.0v7 M-2.5,-0.5L0,-3.0L2.5,-0.5"/>
                </g>
                <g id="arrowLeft" xlink:href="#dirArrow" transform="rotate(270) translate(-36 17)" onmousedown="handlePan(-1,0)">
                  <use xlink:href="#rim" fill="#404040">
                        <set attributeName="fill" to="#808080" begin="arrowLeft.mouseover" end="arrowLeft.mouseout"/>
                  </use>
                  <path fill="none" stroke="white" stroke-width="1.5" d="M0,-3.0v7 M-2.5,-0.5L0,-3.0L2.5,-0.5"/>
                </g>
        </g>
        <svg viewBox="0 0 15 15" width="100%" height="30px" preserveAspectRatio="xMaxYMin meet">
         <g id="arrow_out" transform="scale(0.3 0.3)">
          <a xlink:href="namespacefog____monthly__grid_ac06ec0e265221edc2cb7bdcae6b6bb91_cgraph_org.svg" target="_base">
           <rect id="button" ry="5" rx="5" y="6" x="6" height="38" width="38"
                fill="#f2f5e9" fill-opacity="0.5" stroke="#606060" stroke-width="1.0"/>
           <path id="arrow"
             d="M 11.500037,31.436501 C 11.940474,20.09759 22.043105,11.32322 32.158766,21.979434 L 37.068811,17.246167 C 37.068811,17.246167 37.088388,32 37.088388,32 L 22.160133,31.978069 C 22.160133,31.978069 26.997745,27.140456 26.997745,27.140456 C 18.528582,18.264221 13.291696,25.230495 11.500037,31.436501 z"
             style="fill:#404040;"/>
          </a>
         </g>
        </svg>
</svg>
