<?xml version="1.0" encoding="UTF-8" standalone="no"?>
<!DOCTYPE svg PUBLIC "-//W3C//DTD SVG 1.1//EN"
 "http://www.w3.org/Graphics/SVG/1.1/DTD/svg11.dtd">
<!-- Generated by graphviz version 2.38.0 (20140413.2041)
 -->
<!-- Title: polygon_summarize::most_common_value Pages: 1 -->
<svg width="323pt" height="39pt"
 viewBox="0.00 0.00 323.00 39.00" xmlns="http://www.w3.org/2000/svg" xmlns:xlink="http://www.w3.org/1999/xlink">
<g id="graph0" class="graph" transform="scale(1 1) rotate(0) translate(4 35)">
<title>polygon_summarize::most_common_value</title>
<polygon fill="white" stroke="none" points="-4,4 -4,-35 319,-35 319,4 -4,4"/>
<!-- Node7 -->
<g id="node1" class="node"><title>Node7</title>
<polygon fill="#bfbfbf" stroke="black" points="0,-0.5 0,-30.5 120.548,-30.5 120.548,-0.5 0,-0.5"/>
<text text-anchor="start" x="8" y="-17.7" font-family="Helvetica,sans-Serif" font-size="11.00">polygon_summarize::</text>
<text text-anchor="middle" x="60.2742" y="-6.7" font-family="Helvetica,sans-Serif" font-size="11.00">most_common_value</text>
</g>
<!-- Node8 -->
<g id="node2" class="node"><title>Node8</title>
<g id="a_node2"><a xlink:href="namespacepolygon__summarize.html#a8ad1788acad072675072d59027e4fd40" target="_top" xlink:title="polygon_summarize::\lperform_polygon_summarize">
<polygon fill="white" stroke="black" points="156.548,-0.5 156.548,-30.5 315,-30.5 315,-0.5 156.548,-0.5"/>
<text text-anchor="start" x="164.548" y="-17.7" font-family="Helvetica,sans-Serif" font-size="11.00">polygon_summarize::</text>
<text text-anchor="middle" x="235.774" y="-6.7" font-family="Helvetica,sans-Serif" font-size="11.00">perform_polygon_summarize</text>
</a>
</g>
</g>
<!-- Node7&#45;&gt;Node8 -->
<g id="edge1" class="edge"><title>Node7&#45;&gt;Node8</title>
<path fill="none" stroke="midnightblue" d="M130.995,-15.5C139.308,-15.5 147.839,-15.5 156.265,-15.5"/>
<polygon fill="midnightblue" stroke="midnightblue" points="130.983,-12.0001 120.983,-15.5 130.983,-19.0001 130.983,-12.0001"/>
</g>
</g>
</svg>
