<?xml version="1.0" encoding="UTF-8" standalone="no"?>
<!DOCTYPE svg PUBLIC "-//W3C//DTD SVG 1.1//EN"
 "http://www.w3.org/Graphics/SVG/1.1/DTD/svg11.dtd">
<!-- Generated by graphviz version 2.38.0 (20140413.2041)
 -->
<!-- Title: model_domain::model_calculate_runoff_gridded_values Pages: 1 -->
<svg width="443pt" height="50pt"
 viewBox="0.00 0.00 442.56 50.00" xmlns="http://www.w3.org/2000/svg" xmlns:xlink="http://www.w3.org/1999/xlink">
<g id="graph0" class="graph" transform="scale(1 1) rotate(0) translate(4 46)">
<title>model_domain::model_calculate_runoff_gridded_values</title>
<polygon fill="white" stroke="none" points="-4,4 -4,-46 438.558,-46 438.558,4 -4,4"/>
<!-- Node1 -->
<g id="node1" class="node"><title>Node1</title>
<polygon fill="#bfbfbf" stroke="black" points="0,-0.5 0,-41.5 142.398,-41.5 142.398,-0.5 0,-0.5"/>
<text text-anchor="start" x="8" y="-28.7" font-family="Helvetica,sans-Serif" font-size="11.00">model_domain::model</text>
<text text-anchor="start" x="8" y="-17.7" font-family="Helvetica,sans-Serif" font-size="11.00">_calculate_runoff_gridded</text>
<text text-anchor="middle" x="71.199" y="-6.7" font-family="Helvetica,sans-Serif" font-size="11.00">_values</text>
</g>
<!-- Node2 -->
<g id="node2" class="node"><title>Node2</title>
<g id="a_node2"><a xlink:href="namespacerunoff____gridded__values.html#aa82e4d0dd525ba2d97604ada9d167453" target="_top" xlink:title="runoff__gridded_values\l::runoff_gridded_values\l_update_ratios">
<polygon fill="white" stroke="black" points="178.398,-0.5 178.398,-41.5 309.178,-41.5 309.178,-0.5 178.398,-0.5"/>
<text text-anchor="start" x="186.398" y="-28.7" font-family="Helvetica,sans-Serif" font-size="11.00">runoff__gridded_values</text>
<text text-anchor="start" x="186.398" y="-17.7" font-family="Helvetica,sans-Serif" font-size="11.00">::runoff_gridded_values</text>
<text text-anchor="middle" x="243.788" y="-6.7" font-family="Helvetica,sans-Serif" font-size="11.00">_update_ratios</text>
</a>
</g>
</g>
<!-- Node1&#45;&gt;Node2 -->
<g id="edge1" class="edge"><title>Node1&#45;&gt;Node2</title>
<path fill="none" stroke="midnightblue" d="M142.569,-21C150.986,-21 159.603,-21 168.079,-21"/>
<polygon fill="midnightblue" stroke="midnightblue" points="168.324,-24.5001 178.324,-21 168.324,-17.5001 168.324,-24.5001"/>
</g>
<!-- Node3 -->
<g id="node3" class="node"><title>Node3</title>
<g id="a_node3"><a xlink:href="namespaceexceptions.html#a22a1bf2808fdc249e6b378ee3f221156" target="_top" xlink:title="exceptions::die">
<polygon fill="white" stroke="black" points="345.178,-11.5 345.178,-30.5 434.558,-30.5 434.558,-11.5 345.178,-11.5"/>
<text text-anchor="middle" x="389.868" y="-17.7" font-family="Helvetica,sans-Serif" font-size="11.00">exceptions::die</text>
</a>
</g>
</g>
<!-- Node2&#45;&gt;Node3 -->
<g id="edge2" class="edge"><title>Node2&#45;&gt;Node3</title>
<path fill="none" stroke="midnightblue" d="M309.243,-21C317.872,-21 326.648,-21 335.068,-21"/>
<polygon fill="midnightblue" stroke="midnightblue" points="335.129,-24.5001 345.129,-21 335.129,-17.5001 335.129,-24.5001"/>
</g>
</g>
</svg>
