<?xml version="1.0" encoding="UTF-8" standalone="no"?>
<!DOCTYPE svg PUBLIC "-//W3C//DTD SVG 1.1//EN"
 "http://www.w3.org/Graphics/SVG/1.1/DTD/svg11.dtd">
<!-- Generated by graphviz version 2.38.0 (20140413.2041)
 -->
<!-- Title: model_domain::model_update_growing_season Pages: 1 -->
<svg width="327pt" height="39pt"
 viewBox="0.00 0.00 326.73 39.00" xmlns="http://www.w3.org/2000/svg" xmlns:xlink="http://www.w3.org/1999/xlink">
<g id="graph0" class="graph" transform="scale(1 1) rotate(0) translate(4 35)">
<title>model_domain::model_update_growing_season</title>
<polygon fill="white" stroke="none" points="-4,4 -4,-35 322.733,-35 322.733,4 -4,4"/>
<!-- Node1 -->
<g id="node1" class="node"><title>Node1</title>
<polygon fill="#bfbfbf" stroke="black" points="0,-0.5 0,-30.5 141.99,-30.5 141.99,-0.5 0,-0.5"/>
<text text-anchor="start" x="8" y="-17.7" font-family="Helvetica,sans-Serif" font-size="11.00">model_domain::model</text>
<text text-anchor="middle" x="70.9949" y="-6.7" font-family="Helvetica,sans-Serif" font-size="11.00">_update_growing_season</text>
</g>
<!-- Node2 -->
<g id="node2" class="node"><title>Node2</title>
<g id="a_node2"><a xlink:href="namespacegrowing__season.html#a5ee7d2a65b3888d8eff0ec3a4b956a84" target="_top" xlink:title="growing_season::growing\l_season_update">
<polygon fill="white" stroke="black" points="177.99,-0.5 177.99,-30.5 318.733,-30.5 318.733,-0.5 177.99,-0.5"/>
<text text-anchor="start" x="185.99" y="-17.7" font-family="Helvetica,sans-Serif" font-size="11.00">growing_season::growing</text>
<text text-anchor="middle" x="248.362" y="-6.7" font-family="Helvetica,sans-Serif" font-size="11.00">_season_update</text>
</a>
</g>
</g>
<!-- Node1&#45;&gt;Node2 -->
<g id="edge1" class="edge"><title>Node1&#45;&gt;Node2</title>
<path fill="none" stroke="midnightblue" d="M142.06,-15.5C150.563,-15.5 159.297,-15.5 167.923,-15.5"/>
<polygon fill="midnightblue" stroke="midnightblue" points="167.979,-19.0001 177.979,-15.5 167.979,-12.0001 167.979,-19.0001"/>
</g>
</g>
</svg>
