<?xml version="1.0" encoding="UTF-8" standalone="no"?>
<!DOCTYPE svg PUBLIC "-//W3C//DTD SVG 1.1//EN"
 "http://www.w3.org/Graphics/SVG/1.1/DTD/svg11.dtd">
<!-- Generated by graphviz version 2.38.0 (20140413.2041)
 -->
<!-- Title: model_domain::model_calculate_irrigation_none Pages: 1 -->
<svg width="340pt" height="39pt"
 viewBox="0.00 0.00 340.17 39.00" xmlns="http://www.w3.org/2000/svg" xmlns:xlink="http://www.w3.org/1999/xlink">
<g id="graph0" class="graph" transform="scale(1 1) rotate(0) translate(4 35)">
<title>model_domain::model_calculate_irrigation_none</title>
<polygon fill="white" stroke="none" points="-4,4 -4,-35 336.172,-35 336.172,4 -4,4"/>
<!-- Node317 -->
<g id="node1" class="node"><title>Node317</title>
<polygon fill="#bfbfbf" stroke="black" points="0,-0.5 0,-30.5 144.423,-30.5 144.423,-0.5 0,-0.5"/>
<text text-anchor="start" x="8" y="-17.7" font-family="Helvetica,sans-Serif" font-size="11.00">model_domain::model</text>
<text text-anchor="middle" x="72.2114" y="-6.7" font-family="Helvetica,sans-Serif" font-size="11.00">_calculate_irrigation_none</text>
</g>
<!-- Node318 -->
<g id="node2" class="node"><title>Node318</title>
<g id="a_node2"><a xlink:href="namespacemodel__domain.html#aac78dbf26ba37cf86ebed4edd7acf89b" target="_top" xlink:title="model_domain::set_method\l_pointers_sub">
<polygon fill="white" stroke="black" points="180.423,-0.5 180.423,-30.5 332.172,-30.5 332.172,-0.5 180.423,-0.5"/>
<text text-anchor="start" x="188.423" y="-17.7" font-family="Helvetica,sans-Serif" font-size="11.00">model_domain::set_method</text>
<text text-anchor="middle" x="256.297" y="-6.7" font-family="Helvetica,sans-Serif" font-size="11.00">_pointers_sub</text>
</a>
</g>
</g>
<!-- Node317&#45;&gt;Node318 -->
<g id="edge1" class="edge"><title>Node317&#45;&gt;Node318</title>
<path fill="none" stroke="midnightblue" d="M154.856,-15.5C163.28,-15.5 171.813,-15.5 180.161,-15.5"/>
<polygon fill="midnightblue" stroke="midnightblue" points="154.654,-12.0001 144.654,-15.5 154.654,-19.0001 154.654,-12.0001"/>
</g>
</g>
</svg>
