<?xml version="1.0" encoding="UTF-8" standalone="no"?>
<!DOCTYPE svg PUBLIC "-//W3C//DTD SVG 1.1//EN"
 "http://www.w3.org/Graphics/SVG/1.1/DTD/svg11.dtd">
<!-- Generated by graphviz version 2.38.0 (20140413.2041)
 -->
<!-- Title: et__gridded_values::et_gridded_values_calculate Pages: 1 -->
<svg width="494pt" height="88pt"
 viewBox="0.00 0.00 493.69 88.00" xmlns="http://www.w3.org/2000/svg" xmlns:xlink="http://www.w3.org/1999/xlink">
<g id="graph0" class="graph" transform="scale(1 1) rotate(0) translate(4 84)">
<title>et__gridded_values::et_gridded_values_calculate</title>
<polygon fill="white" stroke="none" points="-4,4 -4,-84 489.686,-84 489.686,4 -4,4"/>
<!-- Node7 -->
<g id="node1" class="node"><title>Node7</title>
<polygon fill="#bfbfbf" stroke="black" points="0,-19 0,-60 112.019,-60 112.019,-19 0,-19"/>
<text text-anchor="start" x="8" y="-47.2" font-family="Helvetica,sans-Serif" font-size="11.00">et__gridded_values</text>
<text text-anchor="start" x="8" y="-36.2" font-family="Helvetica,sans-Serif" font-size="11.00">::et_gridded_values</text>
<text text-anchor="middle" x="56.0095" y="-25.2" font-family="Helvetica,sans-Serif" font-size="11.00">_calculate</text>
</g>
<!-- Node8 -->
<g id="node2" class="node"><title>Node8</title>
<g id="a_node2"><a xlink:href="namespacemodel__domain.html#a6237d117b0ab6c2a8ebbe0287a71798c" target="_top" xlink:title="model_domain::model\l_calculate_et_daily_grid">
<polygon fill="white" stroke="black" points="155.966,-49.5 155.966,-79.5 289.99,-79.5 289.99,-49.5 155.966,-49.5"/>
<text text-anchor="start" x="163.966" y="-66.7" font-family="Helvetica,sans-Serif" font-size="11.00">model_domain::model</text>
<text text-anchor="middle" x="222.978" y="-55.7" font-family="Helvetica,sans-Serif" font-size="11.00">_calculate_et_daily_grid</text>
</a>
</g>
</g>
<!-- Node7&#45;&gt;Node8 -->
<g id="edge1" class="edge"><title>Node7&#45;&gt;Node8</title>
<path fill="none" stroke="midnightblue" d="M122.375,-49.4057C133.392,-51.0753 144.835,-52.8095 155.871,-54.4819"/>
<polygon fill="midnightblue" stroke="midnightblue" points="122.812,-45.9321 112.4,-47.8942 121.763,-52.8531 122.812,-45.9321"/>
</g>
<!-- Node10 -->
<g id="node4" class="node"><title>Node10</title>
<g id="a_node4"><a xlink:href="namespacemodel__domain.html#aadf0259182d8e5e3676fcafc173f4cba" target="_top" xlink:title="model_domain::model\l_calculate_et_monthly_grid">
<polygon fill="white" stroke="black" points="148.019,-0.5 148.019,-30.5 297.937,-30.5 297.937,-0.5 148.019,-0.5"/>
<text text-anchor="start" x="156.019" y="-17.7" font-family="Helvetica,sans-Serif" font-size="11.00">model_domain::model</text>
<text text-anchor="middle" x="222.978" y="-6.7" font-family="Helvetica,sans-Serif" font-size="11.00">_calculate_et_monthly_grid</text>
</a>
</g>
</g>
<!-- Node7&#45;&gt;Node10 -->
<g id="edge3" class="edge"><title>Node7&#45;&gt;Node10</title>
<path fill="none" stroke="midnightblue" d="M122.474,-29.976C130.853,-28.7571 139.476,-27.5026 147.978,-26.2657"/>
<polygon fill="midnightblue" stroke="midnightblue" points="121.792,-26.5383 112.4,-31.4416 122.8,-33.4654 121.792,-26.5383"/>
</g>
<!-- Node9 -->
<g id="node3" class="node"><title>Node9</title>
<g id="a_node3"><a xlink:href="namespacemodel__domain.html#aac78dbf26ba37cf86ebed4edd7acf89b" target="_top" xlink:title="model_domain::set_method\l_pointers_sub">
<polygon fill="white" stroke="black" points="333.937,-24.5 333.937,-54.5 485.686,-54.5 485.686,-24.5 333.937,-24.5"/>
<text text-anchor="start" x="341.937" y="-41.7" font-family="Helvetica,sans-Serif" font-size="11.00">model_domain::set_method</text>
<text text-anchor="middle" x="409.811" y="-30.7" font-family="Helvetica,sans-Serif" font-size="11.00">_pointers_sub</text>
</a>
</g>
</g>
<!-- Node8&#45;&gt;Node9 -->
<g id="edge2" class="edge"><title>Node8&#45;&gt;Node9</title>
<path fill="none" stroke="midnightblue" d="M300.217,-54.1881C311.259,-52.6945 322.62,-51.158 333.641,-49.6673"/>
<polygon fill="midnightblue" stroke="midnightblue" points="299.625,-50.7362 290.185,-55.545 300.564,-57.673 299.625,-50.7362"/>
</g>
<!-- Node10&#45;&gt;Node9 -->
<g id="edge4" class="edge"><title>Node10&#45;&gt;Node9</title>
<path fill="none" stroke="midnightblue" d="M308.086,-26.4212C316.653,-27.5335 325.315,-28.6583 333.776,-29.7569"/>
<polygon fill="midnightblue" stroke="midnightblue" points="308.459,-22.9403 298.092,-25.1234 307.558,-29.882 308.459,-22.9403"/>
</g>
</g>
</svg>
