<?xml version="1.0" encoding="UTF-8" standalone="no"?>
<!DOCTYPE svg PUBLIC "-//W3C//DTD SVG 1.1//EN"
 "http://www.w3.org/Graphics/SVG/1.1/DTD/svg11.dtd">
<!-- Generated by graphviz version 2.38.0 (20140413.2041)
 -->
<!-- Title: netcdf4_support::nf_put_lat_and_lon Pages: 1 -->
<svg width="881pt" height="39pt"
 viewBox="0.00 0.00 880.83 39.00" xmlns="http://www.w3.org/2000/svg" xmlns:xlink="http://www.w3.org/1999/xlink">
<g id="graph0" class="graph" transform="scale(1 1) rotate(0) translate(4 35)">
<title>netcdf4_support::nf_put_lat_and_lon</title>
<polygon fill="white" stroke="none" points="-4,4 -4,-35 876.833,-35 876.833,4 -4,4"/>
<!-- Node667 -->
<g id="node1" class="node"><title>Node667</title>
<polygon fill="#bfbfbf" stroke="black" points="0,-0.5 0,-30.5 110.177,-30.5 110.177,-0.5 0,-0.5"/>
<text text-anchor="start" x="8" y="-17.7" font-family="Helvetica,sans-Serif" font-size="11.00">netcdf4_support::nf</text>
<text text-anchor="middle" x="55.0884" y="-6.7" font-family="Helvetica,sans-Serif" font-size="11.00">_put_lat_and_lon</text>
</g>
<!-- Node668 -->
<g id="node2" class="node"><title>Node668</title>
<g id="a_node2"><a xlink:href="namespacenetcdf4__support.html#a4bc9b9f951c1dc1cc1f50ba727794071" target="_top" xlink:title="netcdf4_support::netcdf\l_open_and_prepare_as_output">
<polygon fill="white" stroke="black" points="146.177,-0.5 146.177,-30.5 315.704,-30.5 315.704,-0.5 146.177,-0.5"/>
<text text-anchor="start" x="154.177" y="-17.7" font-family="Helvetica,sans-Serif" font-size="11.00">netcdf4_support::netcdf</text>
<text text-anchor="middle" x="230.94" y="-6.7" font-family="Helvetica,sans-Serif" font-size="11.00">_open_and_prepare_as_output</text>
</a>
</g>
</g>
<!-- Node667&#45;&gt;Node668 -->
<g id="edge1" class="edge"><title>Node667&#45;&gt;Node668</title>
<path fill="none" stroke="midnightblue" d="M120.84,-15.5C129.048,-15.5 137.539,-15.5 145.991,-15.5"/>
<polygon fill="midnightblue" stroke="midnightblue" points="120.619,-12.0001 110.619,-15.5 120.619,-19.0001 120.619,-12.0001"/>
</g>
<!-- Node669 -->
<g id="node3" class="node"><title>Node669</title>
<g id="a_node3"><a xlink:href="namespacefog____monthly__grid.html#a8e7386e0dfea998459a45c270e0afecc" target="_top" xlink:title="Initialize the fog drip algorithm. ">
<polygon fill="white" stroke="black" points="351.704,-0.5 351.704,-30.5 497.335,-30.5 497.335,-0.5 351.704,-0.5"/>
<text text-anchor="start" x="359.704" y="-17.7" font-family="Helvetica,sans-Serif" font-size="11.00">fog__monthly_grid::</text>
<text text-anchor="middle" x="424.52" y="-6.7" font-family="Helvetica,sans-Serif" font-size="11.00">fog_monthly_grid_initialize</text>
</a>
</g>
</g>
<!-- Node668&#45;&gt;Node669 -->
<g id="edge2" class="edge"><title>Node668&#45;&gt;Node669</title>
<path fill="none" stroke="midnightblue" d="M326.021,-15.5C334.604,-15.5 343.206,-15.5 351.55,-15.5"/>
<polygon fill="midnightblue" stroke="midnightblue" points="325.97,-12.0001 315.97,-15.5 325.97,-19.0001 325.97,-12.0001"/>
</g>
<!-- Node670 -->
<g id="node4" class="node"><title>Node670</title>
<g id="a_node4"><a xlink:href="namespacemodel__domain.html#ad24a97a20a893d728e39930306e8b1d4" target="_top" xlink:title="model_domain::model\l_initialize_fog_monthly_grid">
<polygon fill="white" stroke="black" points="533.335,-0.5 533.335,-30.5 685.084,-30.5 685.084,-0.5 533.335,-0.5"/>
<text text-anchor="start" x="541.335" y="-17.7" font-family="Helvetica,sans-Serif" font-size="11.00">model_domain::model</text>
<text text-anchor="middle" x="609.21" y="-6.7" font-family="Helvetica,sans-Serif" font-size="11.00">_initialize_fog_monthly_grid</text>
</a>
</g>
</g>
<!-- Node669&#45;&gt;Node670 -->
<g id="edge3" class="edge"><title>Node669&#45;&gt;Node670</title>
<path fill="none" stroke="midnightblue" d="M507.492,-15.5C516.095,-15.5 524.811,-15.5 533.329,-15.5"/>
<polygon fill="midnightblue" stroke="midnightblue" points="507.462,-12.0001 497.462,-15.5 507.461,-19.0001 507.462,-12.0001"/>
</g>
<!-- Node671 -->
<g id="node5" class="node"><title>Node671</title>
<g id="a_node5"><a xlink:href="namespacemodel__domain.html#aac78dbf26ba37cf86ebed4edd7acf89b" target="_top" xlink:title="model_domain::set_method\l_pointers_sub">
<polygon fill="white" stroke="black" points="721.084,-0.5 721.084,-30.5 872.833,-30.5 872.833,-0.5 721.084,-0.5"/>
<text text-anchor="start" x="729.084" y="-17.7" font-family="Helvetica,sans-Serif" font-size="11.00">model_domain::set_method</text>
<text text-anchor="middle" x="796.959" y="-6.7" font-family="Helvetica,sans-Serif" font-size="11.00">_pointers_sub</text>
</a>
</g>
</g>
<!-- Node670&#45;&gt;Node671 -->
<g id="edge4" class="edge"><title>Node670&#45;&gt;Node671</title>
<path fill="none" stroke="midnightblue" d="M695.242,-15.5C703.825,-15.5 712.498,-15.5 720.965,-15.5"/>
<polygon fill="midnightblue" stroke="midnightblue" points="695.226,-12.0001 685.226,-15.5 695.226,-19.0001 695.226,-12.0001"/>
</g>
</g>
</svg>
