<?xml version="1.0" encoding="UTF-8" standalone="no"?>
<!DOCTYPE svg PUBLIC "-//W3C//DTD SVG 1.1//EN"
 "http://www.w3.org/Graphics/SVG/1.1/DTD/svg11.dtd">
<!-- Generated by graphviz version 2.38.0 (20140413.2041)
 -->
<!-- Title: constants_and_conversions::fortran_to_c_string Pages: 1 -->
<svg width="1069pt" height="100pt"
 viewBox="0.00 0.00 1069.20 99.50" xmlns="http://www.w3.org/2000/svg" xmlns:xlink="http://www.w3.org/1999/xlink">
<g id="graph0" class="graph" transform="scale(1 1) rotate(0) translate(4 95.5)">
<title>constants_and_conversions::fortran_to_c_string</title>
<polygon fill="white" stroke="none" points="-4,4 -4,-95.5 1065.2,-95.5 1065.2,4 -4,4"/>
<!-- Node1 -->
<g id="node1" class="node"><title>Node1</title>
<polygon fill="#bfbfbf" stroke="black" points="0,-27.5 0,-57.5 152.367,-57.5 152.367,-27.5 0,-27.5"/>
<text text-anchor="start" x="8" y="-44.7" font-family="Helvetica,sans-Serif" font-size="11.00">constants_and_conversions</text>
<text text-anchor="middle" x="76.1833" y="-33.7" font-family="Helvetica,sans-Serif" font-size="11.00">::fortran_to_c_string</text>
</g>
<!-- Node2 -->
<g id="node2" class="node"><title>Node2</title>
<g id="a_node2"><a xlink:href="namespacenetcdf4__support.html#ad6629f4108c3dcd35a20b03a0ef68ba5" target="_top" xlink:title="netcdf4_support::nf\l_create">
<polygon fill="white" stroke="black" points="188.367,-27.5 188.367,-57.5 298.543,-57.5 298.543,-27.5 188.367,-27.5"/>
<text text-anchor="start" x="196.367" y="-44.7" font-family="Helvetica,sans-Serif" font-size="11.00">netcdf4_support::nf</text>
<text text-anchor="middle" x="243.455" y="-33.7" font-family="Helvetica,sans-Serif" font-size="11.00">_create</text>
</a>
</g>
</g>
<!-- Node1&#45;&gt;Node2 -->
<g id="edge1" class="edge"><title>Node1&#45;&gt;Node2</title>
<path fill="none" stroke="midnightblue" d="M162.647,-42.5C171.239,-42.5 179.789,-42.5 187.927,-42.5"/>
<polygon fill="midnightblue" stroke="midnightblue" points="162.565,-39.0001 152.565,-42.5 162.565,-46.0001 162.565,-39.0001"/>
</g>
<!-- Node3 -->
<g id="node3" class="node"><title>Node3</title>
<g id="a_node3"><a xlink:href="namespacenetcdf4__support.html#a13cacde9c54b298cd00fd53fed078736" target="_top" xlink:title="netcdf4_support::netcdf\l_open_and_prepare_as_output\l_archive">
<polygon fill="white" stroke="black" points="334.543,-50 334.543,-91 504.071,-91 504.071,-50 334.543,-50"/>
<text text-anchor="start" x="342.543" y="-78.2" font-family="Helvetica,sans-Serif" font-size="11.00">netcdf4_support::netcdf</text>
<text text-anchor="start" x="342.543" y="-67.2" font-family="Helvetica,sans-Serif" font-size="11.00">_open_and_prepare_as_output</text>
<text text-anchor="middle" x="419.307" y="-56.2" font-family="Helvetica,sans-Serif" font-size="11.00">_archive</text>
</a>
</g>
</g>
<!-- Node2&#45;&gt;Node3 -->
<g id="edge2" class="edge"><title>Node2&#45;&gt;Node3</title>
<path fill="none" stroke="midnightblue" d="M308.934,-52.8847C317.226,-54.2203 325.811,-55.6029 334.358,-56.9794"/>
<polygon fill="midnightblue" stroke="midnightblue" points="309.415,-49.4172 298.986,-51.2826 308.302,-56.3282 309.415,-49.4172"/>
</g>
<!-- Node5 -->
<g id="node5" class="node"><title>Node5</title>
<g id="a_node5"><a xlink:href="namespacenetcdf4__support.html#a37516733165a5b76f3d401654aa0e7ca" target="_top" xlink:title="netcdf4_support::netcdf\l_open_and_prepare_as_output">
<polygon fill="white" stroke="black" points="334.543,-0.5 334.543,-30.5 504.071,-30.5 504.071,-0.5 334.543,-0.5"/>
<text text-anchor="start" x="342.543" y="-17.7" font-family="Helvetica,sans-Serif" font-size="11.00">netcdf4_support::netcdf</text>
<text text-anchor="middle" x="419.307" y="-6.7" font-family="Helvetica,sans-Serif" font-size="11.00">_open_and_prepare_as_output</text>
</a>
</g>
</g>
<!-- Node2&#45;&gt;Node5 -->
<g id="edge4" class="edge"><title>Node2&#45;&gt;Node5</title>
<path fill="none" stroke="midnightblue" d="M308.934,-32.4862C317.226,-31.1983 325.811,-29.865 334.358,-28.5377"/>
<polygon fill="midnightblue" stroke="midnightblue" points="308.33,-29.0378 298.986,-34.0311 309.405,-35.9549 308.33,-29.0378"/>
</g>
<!-- Node4 -->
<g id="node4" class="node"><title>Node4</title>
<g id="a_node4"><a xlink:href="namespacedata__catalog__entry.html#a3ea40e0b58c61d01a18065ea3c1b4fcd" target="_top" xlink:title="data_catalog_entry\l::put_values_to_local\l_netcdf_sub">
<polygon fill="white" stroke="black" points="553.211,-50 553.211,-91 672.562,-91 672.562,-50 553.211,-50"/>
<text text-anchor="start" x="561.211" y="-78.2" font-family="Helvetica,sans-Serif" font-size="11.00">data_catalog_entry</text>
<text text-anchor="start" x="561.211" y="-67.2" font-family="Helvetica,sans-Serif" font-size="11.00">::put_values_to_local</text>
<text text-anchor="middle" x="612.886" y="-56.2" font-family="Helvetica,sans-Serif" font-size="11.00">_netcdf_sub</text>
</a>
</g>
</g>
<!-- Node3&#45;&gt;Node4 -->
<g id="edge3" class="edge"><title>Node3&#45;&gt;Node4</title>
<path fill="none" stroke="midnightblue" d="M514.364,-70.5C527.509,-70.5 540.698,-70.5 552.94,-70.5"/>
<polygon fill="midnightblue" stroke="midnightblue" points="514.337,-67.0001 504.337,-70.5 514.337,-74.0001 514.337,-67.0001"/>
</g>
<!-- Node6 -->
<g id="node6" class="node"><title>Node6</title>
<g id="a_node6"><a xlink:href="namespacefog____monthly__grid.html#ac06ec0e265221edc2cb7bdcae6b6bb91" target="_top" xlink:title="Initialize the fog drip algorithm. ">
<polygon fill="white" stroke="black" points="540.071,-0.5 540.071,-30.5 685.702,-30.5 685.702,-0.5 540.071,-0.5"/>
<text text-anchor="start" x="548.071" y="-17.7" font-family="Helvetica,sans-Serif" font-size="11.00">fog__monthly_grid::</text>
<text text-anchor="middle" x="612.886" y="-6.7" font-family="Helvetica,sans-Serif" font-size="11.00">fog_monthly_grid_initialize</text>
</a>
</g>
</g>
<!-- Node5&#45;&gt;Node6 -->
<g id="edge5" class="edge"><title>Node5&#45;&gt;Node6</title>
<path fill="none" stroke="midnightblue" d="M514.388,-15.5C522.971,-15.5 531.573,-15.5 539.917,-15.5"/>
<polygon fill="midnightblue" stroke="midnightblue" points="514.337,-12.0001 504.337,-15.5 514.337,-19.0001 514.337,-12.0001"/>
</g>
<!-- Node7 -->
<g id="node7" class="node"><title>Node7</title>
<g id="a_node7"><a xlink:href="namespacemodel__domain.html#ad24a97a20a893d728e39930306e8b1d4" target="_top" xlink:title="model_domain::model\l_initialize_fog_monthly_grid">
<polygon fill="white" stroke="black" points="721.702,-0.5 721.702,-30.5 873.451,-30.5 873.451,-0.5 721.702,-0.5"/>
<text text-anchor="start" x="729.702" y="-17.7" font-family="Helvetica,sans-Serif" font-size="11.00">model_domain::model</text>
<text text-anchor="middle" x="797.577" y="-6.7" font-family="Helvetica,sans-Serif" font-size="11.00">_initialize_fog_monthly_grid</text>
</a>
</g>
</g>
<!-- Node6&#45;&gt;Node7 -->
<g id="edge6" class="edge"><title>Node6&#45;&gt;Node7</title>
<path fill="none" stroke="midnightblue" d="M695.858,-15.5C704.462,-15.5 713.178,-15.5 721.696,-15.5"/>
<polygon fill="midnightblue" stroke="midnightblue" points="695.828,-12.0001 685.828,-15.5 695.828,-19.0001 695.828,-12.0001"/>
</g>
<!-- Node8 -->
<g id="node8" class="node"><title>Node8</title>
<g id="a_node8"><a xlink:href="namespacemodel__domain.html#aac78dbf26ba37cf86ebed4edd7acf89b" target="_top" xlink:title="model_domain::set_method\l_pointers_sub">
<polygon fill="white" stroke="black" points="909.451,-0.5 909.451,-30.5 1061.2,-30.5 1061.2,-0.5 909.451,-0.5"/>
<text text-anchor="start" x="917.451" y="-17.7" font-family="Helvetica,sans-Serif" font-size="11.00">model_domain::set_method</text>
<text text-anchor="middle" x="985.326" y="-6.7" font-family="Helvetica,sans-Serif" font-size="11.00">_pointers_sub</text>
</a>
</g>
</g>
<!-- Node7&#45;&gt;Node8 -->
<g id="edge7" class="edge"><title>Node7&#45;&gt;Node8</title>
<path fill="none" stroke="midnightblue" d="M883.609,-15.5C892.192,-15.5 900.865,-15.5 909.332,-15.5"/>
<polygon fill="midnightblue" stroke="midnightblue" points="883.593,-12.0001 873.592,-15.5 883.592,-19.0001 883.593,-12.0001"/>
</g>
</g>
</svg>
