<?xml version="1.0" encoding="UTF-8" standalone="no"?>
<!DOCTYPE svg PUBLIC "-//W3C//DTD SVG 1.1//EN"
 "http://www.w3.org/Graphics/SVG/1.1/DTD/svg11.dtd">
<!-- Generated by graphviz version 2.38.0 (20140413.2041)
 -->
<!-- Title: model_domain::model_read_available_water_content_depth_integrated Pages: 1 -->
<svg width="343pt" height="50pt"
 viewBox="0.00 0.00 342.64 50.00" xmlns="http://www.w3.org/2000/svg" xmlns:xlink="http://www.w3.org/1999/xlink">
<g id="graph0" class="graph" transform="scale(1 1) rotate(0) translate(4 46)">
<title>model_domain::model_read_available_water_content_depth_integrated</title>
<polygon fill="white" stroke="none" points="-4,4 -4,-46 338.637,-46 338.637,4 -4,4"/>
<!-- Node351 -->
<g id="node1" class="node"><title>Node351</title>
<polygon fill="#bfbfbf" stroke="black" points="0,-0.5 0,-41.5 146.888,-41.5 146.888,-0.5 0,-0.5"/>
<text text-anchor="start" x="8" y="-28.7" font-family="Helvetica,sans-Serif" font-size="11.00">model_domain::model</text>
<text text-anchor="start" x="8" y="-17.7" font-family="Helvetica,sans-Serif" font-size="11.00">_read_available_water</text>
<text text-anchor="middle" x="73.4441" y="-6.7" font-family="Helvetica,sans-Serif" font-size="11.00">_content_depth_integrated</text>
</g>
<!-- Node352 -->
<g id="node2" class="node"><title>Node352</title>
<g id="a_node2"><a xlink:href="namespacemodel__domain.html#aac78dbf26ba37cf86ebed4edd7acf89b" target="_top" xlink:title="model_domain::set_method\l_pointers_sub">
<polygon fill="white" stroke="black" points="182.888,-6 182.888,-36 334.637,-36 334.637,-6 182.888,-6"/>
<text text-anchor="start" x="190.888" y="-23.2" font-family="Helvetica,sans-Serif" font-size="11.00">model_domain::set_method</text>
<text text-anchor="middle" x="258.763" y="-12.2" font-family="Helvetica,sans-Serif" font-size="11.00">_pointers_sub</text>
</a>
</g>
</g>
<!-- Node351&#45;&gt;Node352 -->
<g id="edge1" class="edge"><title>Node351&#45;&gt;Node352</title>
<path fill="none" stroke="midnightblue" d="M156.948,-21C165.569,-21 174.298,-21 182.828,-21"/>
<polygon fill="midnightblue" stroke="midnightblue" points="156.896,-17.5001 146.896,-21 156.896,-24.5001 156.896,-17.5001"/>
</g>
</g>
</svg>
