<?xml version="1.0" encoding="UTF-8" standalone="no"?>
<!DOCTYPE svg PUBLIC "-//W3C//DTD SVG 1.1//EN"
 "http://www.w3.org/Graphics/SVG/1.1/DTD/svg11.dtd">
<!-- Generated by graphviz version 2.38.0 (20140413.2041)
 -->
<!-- Title: daily_calculation::perform_daily_calculation Pages: 1 -->
<svg width="389pt" height="39pt"
 viewBox="0.00 0.00 389.08 39.00" xmlns="http://www.w3.org/2000/svg" xmlns:xlink="http://www.w3.org/1999/xlink">
<g id="graph0" class="graph" transform="scale(1 1) rotate(0) translate(4 35)">
<title>daily_calculation::perform_daily_calculation</title>
<polygon fill="white" stroke="none" points="-4,4 -4,-35 385.083,-35 385.083,4 -4,4"/>
<!-- Node1 -->
<g id="node1" class="node"><title>Node1</title>
<polygon fill="#bfbfbf" stroke="black" points="0,-0.5 0,-30.5 140.733,-30.5 140.733,-0.5 0,-0.5"/>
<text text-anchor="start" x="8" y="-17.7" font-family="Helvetica,sans-Serif" font-size="11.00">daily_calculation::</text>
<text text-anchor="middle" x="70.3665" y="-6.7" font-family="Helvetica,sans-Serif" font-size="11.00">perform_daily_calculation</text>
</g>
<!-- Node2 -->
<g id="node2" class="node"><title>Node2</title>
<g id="a_node2"><a xlink:href="namespacemodel__iterate.html#a05e7db04d04d173186649ed80748a6a8" target="_top" xlink:title="model_iterate::iterate\l_over_simulation_days">
<polygon fill="white" stroke="black" points="176.733,-0.5 176.733,-30.5 305.241,-30.5 305.241,-0.5 176.733,-0.5"/>
<text text-anchor="start" x="184.733" y="-17.7" font-family="Helvetica,sans-Serif" font-size="11.00">model_iterate::iterate</text>
<text text-anchor="middle" x="240.987" y="-6.7" font-family="Helvetica,sans-Serif" font-size="11.00">_over_simulation_days</text>
</a>
</g>
</g>
<!-- Node1&#45;&gt;Node2 -->
<g id="edge1" class="edge"><title>Node1&#45;&gt;Node2</title>
<path fill="none" stroke="midnightblue" d="M150.948,-15.5C159.531,-15.5 168.179,-15.5 176.535,-15.5"/>
<polygon fill="midnightblue" stroke="midnightblue" points="150.924,-12.0001 140.924,-15.5 150.924,-19.0001 150.924,-12.0001"/>
</g>
<!-- Node3 -->
<g id="node3" class="node"><title>Node3</title>
<g id="a_node3"><a xlink:href="main_8F90.html#a8ec2266d83cd6c0b762cbcbc92c0af3d" target="_top" xlink:title="Main program which references all other modules; execution begins here. ">
<polygon fill="white" stroke="black" points="341.241,-6 341.241,-25 381.083,-25 381.083,-6 341.241,-6"/>
<text text-anchor="middle" x="361.162" y="-12.2" font-family="Helvetica,sans-Serif" font-size="11.00">main</text>
</a>
</g>
</g>
<!-- Node2&#45;&gt;Node3 -->
<g id="edge2" class="edge"><title>Node2&#45;&gt;Node3</title>
<path fill="none" stroke="midnightblue" d="M315.823,-15.5C325.127,-15.5 333.908,-15.5 341.164,-15.5"/>
<polygon fill="midnightblue" stroke="midnightblue" points="315.572,-12.0001 305.572,-15.5 315.572,-19.0001 315.572,-12.0001"/>
</g>
</g>
</svg>
