<?xml version="1.0" encoding="UTF-8" standalone="no"?>
<!DOCTYPE svg PUBLIC "-//W3C//DTD SVG 1.1//EN"
 "http://www.w3.org/Graphics/SVG/1.1/DTD/svg11.dtd">
<!-- Generated by graphviz version 2.38.0 (20140413.2041)
 -->
<!-- Title: model_domain::model_calculate_snowmelt_original Pages: 1 -->
<svg width="278pt" height="50pt"
 viewBox="0.00 0.00 278.39 50.00" xmlns="http://www.w3.org/2000/svg" xmlns:xlink="http://www.w3.org/1999/xlink">
<g id="graph0" class="graph" transform="scale(1 1) rotate(0) translate(4 46)">
<title>model_domain::model_calculate_snowmelt_original</title>
<polygon fill="white" stroke="none" points="-4,4 -4,-46 274.388,-46 274.388,4 -4,4"/>
<!-- Node234 -->
<g id="node1" class="node"><title>Node234</title>
<polygon fill="#bfbfbf" stroke="black" points="0,-0.5 0,-41.5 124.228,-41.5 124.228,-0.5 0,-0.5"/>
<text text-anchor="start" x="8" y="-28.7" font-family="Helvetica,sans-Serif" font-size="11.00">model_domain::model</text>
<text text-anchor="start" x="8" y="-17.7" font-family="Helvetica,sans-Serif" font-size="11.00">_calculate_snowmelt</text>
<text text-anchor="middle" x="62.1138" y="-6.7" font-family="Helvetica,sans-Serif" font-size="11.00">_original</text>
</g>
<!-- Node235 -->
<g id="node2" class="node"><title>Node235</title>
<g id="a_node2"><a xlink:href="namespacesnowmelt____original.html#a0ea58bc1d01477d5286933262ebaabc6" target="_top" xlink:title="snowmelt__original\l::snowmelt_original\l_calculate">
<polygon fill="white" stroke="black" points="160.228,-0.5 160.228,-41.5 270.388,-41.5 270.388,-0.5 160.228,-0.5"/>
<text text-anchor="start" x="168.228" y="-28.7" font-family="Helvetica,sans-Serif" font-size="11.00">snowmelt__original</text>
<text text-anchor="start" x="168.228" y="-17.7" font-family="Helvetica,sans-Serif" font-size="11.00">::snowmelt_original</text>
<text text-anchor="middle" x="215.308" y="-6.7" font-family="Helvetica,sans-Serif" font-size="11.00">_calculate</text>
</a>
</g>
</g>
<!-- Node234&#45;&gt;Node235 -->
<g id="edge1" class="edge"><title>Node234&#45;&gt;Node235</title>
<path fill="none" stroke="midnightblue" d="M124.61,-21C132.98,-21 141.589,-21 150.006,-21"/>
<polygon fill="midnightblue" stroke="midnightblue" points="150.15,-24.5001 160.15,-21 150.15,-17.5001 150.15,-24.5001"/>
</g>
</g>
</svg>
