<?xml version="1.0" encoding="UTF-8" standalone="no"?>
<!DOCTYPE svg PUBLIC "-//W3C//DTD SVG 1.1//EN"
 "http://www.w3.org/Graphics/SVG/1.1/DTD/svg11.dtd">
<!-- Generated by graphviz version 2.38.0 (20140413.2041)
 -->
<!-- Title: netcdf4_support::netcdf_open_and_prepare_for_merging Pages: 1 -->
<svg width="888pt" height="712pt"
 viewBox="0.00 0.00 887.58 711.50" xmlns="http://www.w3.org/2000/svg" xmlns:xlink="http://www.w3.org/1999/xlink">
<g id="graph0" class="graph" transform="scale(1 1) rotate(0) translate(4 707.5)">
<title>netcdf4_support::netcdf_open_and_prepare_for_merging</title>
<polygon fill="white" stroke="none" points="-4,4 -4,-707.5 883.58,-707.5 883.58,4 -4,4"/>
<!-- Node1 -->
<g id="node1" class="node"><title>Node1</title>
<polygon fill="#bfbfbf" stroke="black" points="0,-269 0,-310 134.046,-310 134.046,-269 0,-269"/>
<text text-anchor="start" x="8" y="-297.2" font-family="Helvetica,sans-Serif" font-size="11.00">netcdf4_support::netcdf</text>
<text text-anchor="start" x="8" y="-286.2" font-family="Helvetica,sans-Serif" font-size="11.00">_open_and_prepare_for</text>
<text text-anchor="middle" x="67.0229" y="-275.2" font-family="Helvetica,sans-Serif" font-size="11.00">_merging</text>
</g>
<!-- Node2 -->
<g id="node2" class="node"><title>Node2</title>
<g id="a_node2"><a xlink:href="namespacenetcdf4__support.html#ad118f90a290289cde5043fc1ec23bca1" target="_top" xlink:title="netcdf4_support::nf\l_calculate_time_range">
<polygon fill="white" stroke="black" points="180.759,-609.5 180.759,-639.5 307.441,-639.5 307.441,-609.5 180.759,-609.5"/>
<text text-anchor="start" x="188.759" y="-626.7" font-family="Helvetica,sans-Serif" font-size="11.00">netcdf4_support::nf</text>
<text text-anchor="middle" x="244.1" y="-615.7" font-family="Helvetica,sans-Serif" font-size="11.00">_calculate_time_range</text>
</a>
</g>
</g>
<!-- Node1&#45;&gt;Node2 -->
<g id="edge1" class="edge"><title>Node1&#45;&gt;Node2</title>
<path fill="none" stroke="midnightblue" d="M74.575,-310.239C88.6535,-353.362 124.261,-455.123 170.046,-532.5 184.997,-557.768 206.233,-583.709 221.959,-601.576"/>
<polygon fill="midnightblue" stroke="midnightblue" points="219.482,-604.058 228.754,-609.186 224.704,-599.396 219.482,-604.058"/>
</g>
<!-- Node4 -->
<g id="node4" class="node"><title>Node4</title>
<g id="a_node4"><a xlink:href="namespacenetcdf4__support.html#a3f9a545cd24a2c66040977e333152f3e" target="_top" xlink:title="netcdf4_support::nf\l_get_first_and_last">
<polygon fill="white" stroke="black" points="189.011,-492.5 189.011,-522.5 299.188,-522.5 299.188,-492.5 189.011,-492.5"/>
<text text-anchor="start" x="197.011" y="-509.7" font-family="Helvetica,sans-Serif" font-size="11.00">netcdf4_support::nf</text>
<text text-anchor="middle" x="244.1" y="-498.7" font-family="Helvetica,sans-Serif" font-size="11.00">_get_first_and_last</text>
</a>
</g>
</g>
<!-- Node1&#45;&gt;Node4 -->
<g id="edge3" class="edge"><title>Node1&#45;&gt;Node4</title>
<path fill="none" stroke="midnightblue" d="M73.2435,-310.041C84.3056,-349.445 113.824,-435.949 170.046,-483.5 173.056,-486.046 176.344,-488.324 179.805,-490.362"/>
<polygon fill="midnightblue" stroke="midnightblue" points="178.215,-493.479 188.707,-494.949 181.421,-487.257 178.215,-493.479"/>
</g>
<!-- Node13 -->
<g id="node13" class="node"><title>Node13</title>
<g id="a_node13"><a xlink:href="namespacenetcdf4__support.html#ae16cf16a822cf8bd9d17ec5459b5f2bb" target="_top" xlink:title="netcdf4_support::nf\l_get_time_units">
<polygon fill="white" stroke="black" points="189.011,-159.5 189.011,-189.5 299.188,-189.5 299.188,-159.5 189.011,-159.5"/>
<text text-anchor="start" x="197.011" y="-176.7" font-family="Helvetica,sans-Serif" font-size="11.00">netcdf4_support::nf</text>
<text text-anchor="middle" x="244.1" y="-165.7" font-family="Helvetica,sans-Serif" font-size="11.00">_get_time_units</text>
</a>
</g>
</g>
<!-- Node1&#45;&gt;Node13 -->
<g id="edge15" class="edge"><title>Node1&#45;&gt;Node13</title>
<path fill="none" stroke="midnightblue" d="M86.879,-268.653C106.082,-248.514 137.573,-218.365 170.046,-199.5 173.697,-197.379 177.556,-195.401 181.516,-193.564"/>
<polygon fill="midnightblue" stroke="midnightblue" points="183.087,-196.698 190.889,-189.53 180.32,-190.268 183.087,-196.698"/>
</g>
<!-- Node14 -->
<g id="node14" class="node"><title>Node14</title>
<g id="a_node14"><a xlink:href="namespacenetcdf4__support.html#aad34f129a575be1774b4b709d5efba6c" target="_top" xlink:title="netcdf4_support::nf\l_get_time_vals">
<polygon fill="white" stroke="black" points="189.011,-345.5 189.011,-375.5 299.188,-375.5 299.188,-345.5 189.011,-345.5"/>
<text text-anchor="start" x="197.011" y="-362.7" font-family="Helvetica,sans-Serif" font-size="11.00">netcdf4_support::nf</text>
<text text-anchor="middle" x="244.1" y="-351.7" font-family="Helvetica,sans-Serif" font-size="11.00">_get_time_vals</text>
</a>
</g>
</g>
<!-- Node1&#45;&gt;Node14 -->
<g id="edge16" class="edge"><title>Node1&#45;&gt;Node14</title>
<path fill="none" stroke="midnightblue" d="M109.748,-310.032C128.044,-318.692 149.9,-328.58 170.046,-336.5 174.816,-338.375 179.798,-340.227 184.821,-342.022"/>
<polygon fill="midnightblue" stroke="midnightblue" points="183.893,-345.405 194.488,-345.392 186.197,-338.795 183.893,-345.405"/>
</g>
<!-- Node15 -->
<g id="node15" class="node"><title>Node15</title>
<g id="a_node15"><a xlink:href="namespacenetcdf4__support.html#aa2e8f7506c9fd50f984f1de77bfdc55d" target="_top" xlink:title="netcdf4_support::nf\l_get_variable_id_and_type">
<polygon fill="white" stroke="black" points="170.046,-443.5 170.046,-473.5 318.153,-473.5 318.153,-443.5 170.046,-443.5"/>
<text text-anchor="start" x="178.046" y="-460.7" font-family="Helvetica,sans-Serif" font-size="11.00">netcdf4_support::nf</text>
<text text-anchor="middle" x="244.1" y="-449.7" font-family="Helvetica,sans-Serif" font-size="11.00">_get_variable_id_and_type</text>
</a>
</g>
</g>
<!-- Node1&#45;&gt;Node15 -->
<g id="edge18" class="edge"><title>Node1&#45;&gt;Node15</title>
<path fill="none" stroke="midnightblue" d="M77.2608,-310.226C92.2764,-341.61 124.906,-401.064 170.046,-434.5 171.92,-435.888 173.878,-437.198 175.901,-438.435"/>
<polygon fill="midnightblue" stroke="midnightblue" points="174.653,-441.739 185.117,-443.4 177.973,-435.576 174.653,-441.739"/>
</g>
<!-- Node16 -->
<g id="node16" class="node"><title>Node16</title>
<g id="a_node16"><a xlink:href="namespacenetcdf4__support.html#a64c75b9bc2ca7a214b8ce3c6181b614d" target="_top" xlink:title="netcdf4_support::nf\l_get_x_and_y">
<polygon fill="white" stroke="black" points="189.011,-394.5 189.011,-424.5 299.188,-424.5 299.188,-394.5 189.011,-394.5"/>
<text text-anchor="start" x="197.011" y="-411.7" font-family="Helvetica,sans-Serif" font-size="11.00">netcdf4_support::nf</text>
<text text-anchor="middle" x="244.1" y="-400.7" font-family="Helvetica,sans-Serif" font-size="11.00">_get_x_and_y</text>
</a>
</g>
</g>
<!-- Node1&#45;&gt;Node16 -->
<g id="edge20" class="edge"><title>Node1&#45;&gt;Node16</title>
<path fill="none" stroke="midnightblue" d="M85.1405,-310.285C103.924,-331.866 135.967,-365.247 170.046,-385.5 173.064,-387.293 176.233,-388.972 179.489,-390.54"/>
<polygon fill="midnightblue" stroke="midnightblue" points="178.286,-393.834 188.848,-394.669 181.112,-387.43 178.286,-393.834"/>
</g>
<!-- Node17 -->
<g id="node17" class="node"><title>Node17</title>
<g id="a_node17"><a xlink:href="namespacenetcdf4__support.html#a35f14663565a2db3b4cb3fc4d626fb11" target="_top" xlink:title="netcdf4_support::nf\l_open_file">
<polygon fill="white" stroke="black" points="189.011,-296.5 189.011,-326.5 299.188,-326.5 299.188,-296.5 189.011,-296.5"/>
<text text-anchor="start" x="197.011" y="-313.7" font-family="Helvetica,sans-Serif" font-size="11.00">netcdf4_support::nf</text>
<text text-anchor="middle" x="244.1" y="-302.7" font-family="Helvetica,sans-Serif" font-size="11.00">_open_file</text>
</a>
</g>
</g>
<!-- Node1&#45;&gt;Node17 -->
<g id="edge22" class="edge"><title>Node1&#45;&gt;Node17</title>
<path fill="none" stroke="midnightblue" d="M134.212,-297.817C148.705,-299.638 164.03,-301.564 178.461,-303.378"/>
<polygon fill="midnightblue" stroke="midnightblue" points="178.429,-306.901 188.787,-304.675 179.302,-299.956 178.429,-306.901"/>
</g>
<!-- Node19 -->
<g id="node19" class="node"><title>Node19</title>
<g id="a_node19"><a xlink:href="namespacenetcdf4__support.html#acde440e1ad302ddd5efacb2aa46e4020" target="_top" xlink:title="netcdf4_support::nf\l_populate_dimension\l_struct">
<polygon fill="white" stroke="black" points="368.209,-241 368.209,-282 488.79,-282 488.79,-241 368.209,-241"/>
<text text-anchor="start" x="376.209" y="-269.2" font-family="Helvetica,sans-Serif" font-size="11.00">netcdf4_support::nf</text>
<text text-anchor="start" x="376.209" y="-258.2" font-family="Helvetica,sans-Serif" font-size="11.00">_populate_dimension</text>
<text text-anchor="middle" x="428.5" y="-247.2" font-family="Helvetica,sans-Serif" font-size="11.00">_struct</text>
</a>
</g>
</g>
<!-- Node1&#45;&gt;Node19 -->
<g id="edge25" class="edge"><title>Node1&#45;&gt;Node19</title>
<path fill="none" stroke="midnightblue" d="M134.375,-284.332C197.922,-279.382 293.43,-271.943 358.005,-266.913"/>
<polygon fill="midnightblue" stroke="midnightblue" points="358.396,-270.393 368.094,-266.127 357.852,-263.414 358.396,-270.393"/>
</g>
<!-- Node21 -->
<g id="node21" class="node"><title>Node21</title>
<g id="a_node21"><a xlink:href="namespacenetcdf4__support.html#a714886913deafdad6415f01eaab9bf39" target="_top" xlink:title="netcdf4_support::nf\l_populate_variable_struct">
<polygon fill="white" stroke="black" points="173.113,-208.5 173.113,-238.5 315.086,-238.5 315.086,-208.5 173.113,-208.5"/>
<text text-anchor="start" x="181.113" y="-225.7" font-family="Helvetica,sans-Serif" font-size="11.00">netcdf4_support::nf</text>
<text text-anchor="middle" x="244.1" y="-214.7" font-family="Helvetica,sans-Serif" font-size="11.00">_populate_variable_struct</text>
</a>
</g>
</g>
<!-- Node1&#45;&gt;Node21 -->
<g id="edge28" class="edge"><title>Node1&#45;&gt;Node21</title>
<path fill="none" stroke="midnightblue" d="M122.459,-268.979C145.193,-260.409 171.421,-250.521 193.602,-242.159"/>
<polygon fill="midnightblue" stroke="midnightblue" points="195.037,-245.359 203.16,-238.556 192.568,-238.809 195.037,-245.359"/>
</g>
<!-- Node23 -->
<g id="node23" class="node"><title>Node23</title>
<g id="a_node23"><a xlink:href="namespacenetcdf4__support.html#ad4700c77a73aad3eebef236d3cfb8f07" target="_top" xlink:title="netcdf4_support::nf\l_return_native_coord\l_bounds">
<polygon fill="white" stroke="black" points="184.121,-99 184.121,-140 304.078,-140 304.078,-99 184.121,-99"/>
<text text-anchor="start" x="192.121" y="-127.2" font-family="Helvetica,sans-Serif" font-size="11.00">netcdf4_support::nf</text>
<text text-anchor="start" x="192.121" y="-116.2" font-family="Helvetica,sans-Serif" font-size="11.00">_return_native_coord</text>
<text text-anchor="middle" x="244.1" y="-105.2" font-family="Helvetica,sans-Serif" font-size="11.00">_bounds</text>
</a>
</g>
</g>
<!-- Node1&#45;&gt;Node23 -->
<g id="edge34" class="edge"><title>Node1&#45;&gt;Node23</title>
<path fill="none" stroke="midnightblue" d="M78.3991,-268.646C94.321,-238.556 127.458,-182.919 170.046,-149.5 171.842,-148.09 173.715,-146.737 175.645,-145.439"/>
<polygon fill="midnightblue" stroke="midnightblue" points="177.702,-148.284 184.425,-140.095 174.063,-142.304 177.702,-148.284"/>
</g>
<!-- Node24 -->
<g id="node24" class="node"><title>Node24</title>
<g id="a_node24"><a xlink:href="namespacenetcdf4__support.html#af880cc183048ba8f2e4af3dcac8ae862" target="_top" xlink:title="netcdf4_support::nf\l_set_iteration_bounds">
<polygon fill="white" stroke="black" points="181.975,-49.5 181.975,-79.5 306.224,-79.5 306.224,-49.5 181.975,-49.5"/>
<text text-anchor="start" x="189.975" y="-66.7" font-family="Helvetica,sans-Serif" font-size="11.00">netcdf4_support::nf</text>
<text text-anchor="middle" x="244.1" y="-55.7" font-family="Helvetica,sans-Serif" font-size="11.00">_set_iteration_bounds</text>
</a>
</g>
</g>
<!-- Node1&#45;&gt;Node24 -->
<g id="edge35" class="edge"><title>Node1&#45;&gt;Node24</title>
<path fill="none" stroke="midnightblue" d="M73.0241,-268.707C83.7843,-228.353 112.917,-139.043 170.046,-89.5 171.995,-87.8094 174.065,-86.2316 176.225,-84.7593"/>
<polygon fill="midnightblue" stroke="midnightblue" points="178.13,-87.699 184.946,-79.5879 174.559,-81.678 178.13,-87.699"/>
</g>
<!-- Node25 -->
<g id="node25" class="node"><title>Node25</title>
<g id="a_node25"><a xlink:href="namespacenetcdf4__support.html#a2fcb07227cc2ee946263d0196adb55dc" target="_top" xlink:title="netcdf4_support::nf\l_set_start_count_stride">
<polygon fill="white" stroke="black" points="178.927,-0.5 178.927,-30.5 309.272,-30.5 309.272,-0.5 178.927,-0.5"/>
<text text-anchor="start" x="186.927" y="-17.7" font-family="Helvetica,sans-Serif" font-size="11.00">netcdf4_support::nf</text>
<text text-anchor="middle" x="244.1" y="-6.7" font-family="Helvetica,sans-Serif" font-size="11.00">_set_start_count_stride</text>
</a>
</g>
</g>
<!-- Node1&#45;&gt;Node25 -->
<g id="edge36" class="edge"><title>Node1&#45;&gt;Node25</title>
<path fill="none" stroke="midnightblue" d="M70.5835,-268.737C77.5382,-221.226 101.127,-103.753 170.046,-39.5 171.321,-38.3109 172.657,-37.1806 174.043,-36.1063"/>
<polygon fill="midnightblue" stroke="midnightblue" points="176.051,-38.9746 182.469,-30.5449 172.195,-33.1324 176.051,-38.9746"/>
</g>
<!-- Node3 -->
<g id="node3" class="node"><title>Node3</title>
<g id="a_node3"><a xlink:href="namespacedatetime.html#a9ac1a0a808a83a072ebc08cf0b3b4d8a" target="_top" xlink:title="datetime::julian_day">
<polygon fill="white" stroke="black" points="371.58,-684 371.58,-703 485.42,-703 485.42,-684 371.58,-684"/>
<text text-anchor="middle" x="428.5" y="-690.2" font-family="Helvetica,sans-Serif" font-size="11.00">datetime::julian_day</text>
</a>
</g>
</g>
<!-- Node2&#45;&gt;Node3 -->
<g id="edge2" class="edge"><title>Node2&#45;&gt;Node3</title>
<path fill="none" stroke="midnightblue" d="M274.138,-639.519C295.782,-650.29 326.287,-664.59 354.153,-674.5 360.97,-676.924 368.243,-679.184 375.462,-681.237"/>
<polygon fill="midnightblue" stroke="midnightblue" points="374.655,-684.645 385.224,-683.907 376.501,-677.893 374.655,-684.645"/>
</g>
<!-- Node5 -->
<g id="node5" class="node"><title>Node5</title>
<g id="a_node5"><a xlink:href="namespacenetcdf4__support.html#a7138fa9ca363dd10d3601c64e7063f6a" target="_top" xlink:title="netcdf4_support::nf\l_return_dimsize">
<polygon fill="white" stroke="black" points="373.411,-634.5 373.411,-664.5 483.588,-664.5 483.588,-634.5 373.411,-634.5"/>
<text text-anchor="start" x="381.411" y="-651.7" font-family="Helvetica,sans-Serif" font-size="11.00">netcdf4_support::nf</text>
<text text-anchor="middle" x="428.5" y="-640.7" font-family="Helvetica,sans-Serif" font-size="11.00">_return_dimsize</text>
</a>
</g>
</g>
<!-- Node4&#45;&gt;Node5 -->
<g id="edge4" class="edge"><title>Node4&#45;&gt;Node5</title>
<path fill="none" stroke="midnightblue" d="M255.307,-522.858C272.704,-547.885 310.486,-597.479 354.153,-625.5 357.268,-627.499 360.565,-629.346 363.968,-631.05"/>
<polygon fill="midnightblue" stroke="midnightblue" points="362.621,-634.283 373.173,-635.236 365.519,-627.911 362.621,-634.283"/>
</g>
<!-- Node6 -->
<g id="node6" class="node"><title>Node6</title>
<g id="a_node6"><a xlink:href="namespacenetcdf4__support.html#a71b923d03b66bdff21911ff7a745a326" target="_top" xlink:title="netcdf4_support::nf\l_get_variable_vector_short">
<polygon fill="white" stroke="black" points="354.153,-585.5 354.153,-615.5 502.846,-615.5 502.846,-585.5 354.153,-585.5"/>
<text text-anchor="start" x="362.153" y="-602.7" font-family="Helvetica,sans-Serif" font-size="11.00">netcdf4_support::nf</text>
<text text-anchor="middle" x="428.5" y="-591.7" font-family="Helvetica,sans-Serif" font-size="11.00">_get_variable_vector_short</text>
</a>
</g>
</g>
<!-- Node4&#45;&gt;Node6 -->
<g id="edge5" class="edge"><title>Node4&#45;&gt;Node6</title>
<path fill="none" stroke="midnightblue" d="M265.526,-522.604C286.801,-537.801 321.521,-561.13 354.153,-576.5 358.148,-578.381 362.329,-580.176 366.583,-581.875"/>
<polygon fill="midnightblue" stroke="midnightblue" points="365.376,-585.161 375.967,-585.439 367.861,-578.617 365.376,-585.161"/>
</g>
<!-- Node9 -->
<g id="node9" class="node"><title>Node9</title>
<g id="a_node9"><a xlink:href="namespacenetcdf4__support.html#a4324282002ee25b651a7cc12fb78bb51" target="_top" xlink:title="netcdf4_support::nf\l_get_variable_vector_int">
<polygon fill="white" stroke="black" points="360.572,-536.5 360.572,-566.5 496.428,-566.5 496.428,-536.5 360.572,-536.5"/>
<text text-anchor="start" x="368.572" y="-553.7" font-family="Helvetica,sans-Serif" font-size="11.00">netcdf4_support::nf</text>
<text text-anchor="middle" x="428.5" y="-542.7" font-family="Helvetica,sans-Serif" font-size="11.00">_get_variable_vector_int</text>
</a>
</g>
</g>
<!-- Node4&#45;&gt;Node9 -->
<g id="edge8" class="edge"><title>Node4&#45;&gt;Node9</title>
<path fill="none" stroke="midnightblue" d="M299.332,-520.582C316.868,-524.812 336.599,-529.572 355.227,-534.066"/>
<polygon fill="midnightblue" stroke="midnightblue" points="354.604,-537.516 365.146,-536.458 356.245,-530.711 354.604,-537.516"/>
</g>
<!-- Node10 -->
<g id="node10" class="node"><title>Node10</title>
<g id="a_node10"><a xlink:href="namespacenetcdf4__support.html#a67f676d85d4d9212060053851fec7f22" target="_top" xlink:title="netcdf4_support::nf\l_get_variable_vector_float">
<polygon fill="white" stroke="black" points="355.985,-487.5 355.985,-517.5 501.015,-517.5 501.015,-487.5 355.985,-487.5"/>
<text text-anchor="start" x="363.985" y="-504.7" font-family="Helvetica,sans-Serif" font-size="11.00">netcdf4_support::nf</text>
<text text-anchor="middle" x="428.5" y="-493.7" font-family="Helvetica,sans-Serif" font-size="11.00">_get_variable_vector_float</text>
</a>
</g>
</g>
<!-- Node4&#45;&gt;Node10 -->
<g id="edge10" class="edge"><title>Node4&#45;&gt;Node10</title>
<path fill="none" stroke="midnightblue" d="M299.332,-506.013C313.89,-505.614 329.961,-505.174 345.658,-504.743"/>
<polygon fill="midnightblue" stroke="midnightblue" points="346,-508.236 355.9,-504.463 345.808,-501.238 346,-508.236"/>
</g>
<!-- Node11 -->
<g id="node11" class="node"><title>Node11</title>
<g id="a_node11"><a xlink:href="namespacenetcdf4__support.html#a2aef556f129131e1afd5987ceda97c21" target="_top" xlink:title="netcdf4_support::nf\l_get_variable_vector\l_double">
<polygon fill="white" stroke="black" points="369.439,-389 369.439,-430 487.56,-430 487.56,-389 369.439,-389"/>
<text text-anchor="start" x="377.439" y="-417.2" font-family="Helvetica,sans-Serif" font-size="11.00">netcdf4_support::nf</text>
<text text-anchor="start" x="377.439" y="-406.2" font-family="Helvetica,sans-Serif" font-size="11.00">_get_variable_vector</text>
<text text-anchor="middle" x="428.5" y="-395.2" font-family="Helvetica,sans-Serif" font-size="11.00">_double</text>
</a>
</g>
</g>
<!-- Node4&#45;&gt;Node11 -->
<g id="edge12" class="edge"><title>Node4&#45;&gt;Node11</title>
<path fill="none" stroke="midnightblue" d="M299.43,-493.549C306.016,-490.749 312.429,-487.427 318.153,-483.5 338.989,-469.207 333.837,-454.522 354.153,-439.5 356.186,-437.997 358.305,-436.555 360.487,-435.174"/>
<polygon fill="midnightblue" stroke="midnightblue" points="362.272,-438.184 369.168,-430.141 358.762,-432.128 362.272,-438.184"/>
</g>
<!-- Node12 -->
<g id="node12" class="node"><title>Node12</title>
<g id="a_node12"><a xlink:href="namespaceexceptions.html#a84dd04476b06e0a398bfe6d106a82a4d" target="_top" xlink:title="exceptions::warn">
<polygon fill="white" stroke="black" points="379.228,-449 379.228,-468 477.771,-468 477.771,-449 379.228,-449"/>
<text text-anchor="middle" x="428.5" y="-455.2" font-family="Helvetica,sans-Serif" font-size="11.00">exceptions::warn</text>
</a>
</g>
</g>
<!-- Node4&#45;&gt;Node12 -->
<g id="edge14" class="edge"><title>Node4&#45;&gt;Node12</title>
<path fill="none" stroke="midnightblue" d="M299.332,-492.931C325.636,-485.865 356.88,-477.471 381.934,-470.741"/>
<polygon fill="midnightblue" stroke="midnightblue" points="383.158,-474.036 391.907,-468.062 381.342,-467.276 383.158,-474.036"/>
</g>
<!-- Node7 -->
<g id="node7" class="node"><title>Node7</title>
<g id="a_node7"><a xlink:href="namespacenetcdf4__support.html#ac8c7276a5849ae6d17ffef1787e3f234" target="_top" xlink:title="netcdf4_support::nf_trap">
<polygon fill="white" stroke="black" points="547.405,-350 547.405,-369 682.654,-369 682.654,-350 547.405,-350"/>
<text text-anchor="middle" x="615.03" y="-356.2" font-family="Helvetica,sans-Serif" font-size="11.00">netcdf4_support::nf_trap</text>
</a>
</g>
</g>
<!-- Node6&#45;&gt;Node7 -->
<g id="edge6" class="edge"><title>Node6&#45;&gt;Node7</title>
<path fill="none" stroke="midnightblue" d="M489.693,-585.316C494.407,-582.81 498.873,-579.893 502.846,-576.5 566.675,-521.995 598.328,-421.743 609.356,-379.307"/>
<polygon fill="midnightblue" stroke="midnightblue" points="612.806,-379.939 611.827,-369.389 606.014,-378.246 612.806,-379.939"/>
</g>
<!-- Node8 -->
<g id="node8" class="node"><title>Node8</title>
<g id="a_node8"><a xlink:href="namespaceconstants__and__conversions.html#ac13fba285229deab77131132e6f62caf" target="_top" xlink:title="constants_and_conversions\l::char_ptr_to_fortran_string">
<polygon fill="white" stroke="black" points="727.213,-344.5 727.213,-374.5 879.58,-374.5 879.58,-344.5 727.213,-344.5"/>
<text text-anchor="start" x="735.213" y="-361.7" font-family="Helvetica,sans-Serif" font-size="11.00">constants_and_conversions</text>
<text text-anchor="middle" x="803.396" y="-350.7" font-family="Helvetica,sans-Serif" font-size="11.00">::char_ptr_to_fortran_string</text>
</a>
</g>
</g>
<!-- Node7&#45;&gt;Node8 -->
<g id="edge7" class="edge"><title>Node7&#45;&gt;Node8</title>
<path fill="none" stroke="midnightblue" d="M682.786,-359.5C693.853,-359.5 705.462,-359.5 716.915,-359.5"/>
<polygon fill="midnightblue" stroke="midnightblue" points="716.922,-363 726.922,-359.5 716.922,-356 716.922,-363"/>
</g>
<!-- Node9&#45;&gt;Node7 -->
<g id="edge9" class="edge"><title>Node9&#45;&gt;Node7</title>
<path fill="none" stroke="midnightblue" d="M488.189,-536.377C493.389,-533.849 498.371,-530.911 502.846,-527.5 556.039,-486.961 591.8,-413.251 606.493,-378.541"/>
<polygon fill="midnightblue" stroke="midnightblue" points="609.808,-379.681 610.372,-369.102 603.333,-377.021 609.808,-379.681"/>
</g>
<!-- Node10&#45;&gt;Node7 -->
<g id="edge11" class="edge"><title>Node10&#45;&gt;Node7</title>
<path fill="none" stroke="midnightblue" d="M483.79,-487.387C490.444,-484.565 496.963,-481.286 502.846,-477.5 545.219,-450.232 582.698,-403.399 601.409,-377.697"/>
<polygon fill="midnightblue" stroke="midnightblue" points="604.469,-379.434 607.427,-369.26 598.77,-375.369 604.469,-379.434"/>
</g>
<!-- Node11&#45;&gt;Node7 -->
<g id="edge13" class="edge"><title>Node11&#45;&gt;Node7</title>
<path fill="none" stroke="midnightblue" d="M487.633,-393.748C513.91,-386.628 544.486,-378.344 568.983,-371.706"/>
<polygon fill="midnightblue" stroke="midnightblue" points="569.998,-375.057 578.735,-369.063 568.167,-368.301 569.998,-375.057"/>
</g>
<!-- Node14&#45;&gt;Node11 -->
<g id="edge17" class="edge"><title>Node14&#45;&gt;Node11</title>
<path fill="none" stroke="midnightblue" d="M299.332,-375.069C318.197,-380.137 339.603,-385.887 359.444,-391.217"/>
<polygon fill="midnightblue" stroke="midnightblue" points="358.781,-394.663 369.346,-393.878 360.597,-387.903 358.781,-394.663"/>
</g>
<!-- Node15&#45;&gt;Node12 -->
<g id="edge19" class="edge"><title>Node15&#45;&gt;Node12</title>
<path fill="none" stroke="midnightblue" d="M318.238,-458.5C335.067,-458.5 352.752,-458.5 368.873,-458.5"/>
<polygon fill="midnightblue" stroke="midnightblue" points="369.216,-462 379.216,-458.5 369.216,-455 369.216,-462"/>
</g>
<!-- Node16&#45;&gt;Node11 -->
<g id="edge21" class="edge"><title>Node16&#45;&gt;Node11</title>
<path fill="none" stroke="midnightblue" d="M299.332,-409.5C318.111,-409.5 339.408,-409.5 359.172,-409.5"/>
<polygon fill="midnightblue" stroke="midnightblue" points="359.347,-413 369.346,-409.5 359.346,-406 359.347,-413"/>
</g>
<!-- Node17&#45;&gt;Node7 -->
<g id="edge23" class="edge"><title>Node17&#45;&gt;Node7</title>
<path fill="none" stroke="midnightblue" d="M299.246,-312.638C351.637,-314.41 433.13,-318.937 502.846,-330.5 526.692,-334.455 552.874,-341.163 573.837,-347.132"/>
<polygon fill="midnightblue" stroke="midnightblue" points="573.097,-350.562 583.676,-349.988 575.048,-343.839 573.097,-350.562"/>
</g>
<!-- Node18 -->
<g id="node18" class="node"><title>Node18</title>
<g id="a_node18"><a xlink:href="namespacenetcdf4__support.html#ae3647a050723866e061cd0b58a013985" target="_top" xlink:title="netcdf4_support::netcdf\l_dump_cdl">
<polygon fill="white" stroke="black" points="363.016,-339.5 363.016,-369.5 493.984,-369.5 493.984,-339.5 363.016,-339.5"/>
<text text-anchor="start" x="371.016" y="-356.7" font-family="Helvetica,sans-Serif" font-size="11.00">netcdf4_support::netcdf</text>
<text text-anchor="middle" x="428.5" y="-345.7" font-family="Helvetica,sans-Serif" font-size="11.00">_dump_cdl</text>
</a>
</g>
</g>
<!-- Node17&#45;&gt;Node18 -->
<g id="edge24" class="edge"><title>Node17&#45;&gt;Node18</title>
<path fill="none" stroke="midnightblue" d="M299.332,-324.285C316.512,-328.335 335.798,-332.882 354.091,-337.194"/>
<polygon fill="midnightblue" stroke="midnightblue" points="353.304,-340.605 363.84,-339.493 354.91,-333.791 353.304,-340.605"/>
</g>
<!-- Node19&#45;&gt;Node7 -->
<g id="edge26" class="edge"><title>Node19&#45;&gt;Node7</title>
<path fill="none" stroke="midnightblue" d="M473.964,-282.101C483.552,-286.715 493.587,-291.675 502.846,-296.5 532.974,-312.199 566.839,-331.657 589.191,-344.761"/>
<polygon fill="midnightblue" stroke="midnightblue" points="587.628,-347.902 598.022,-349.959 591.179,-341.87 587.628,-347.902"/>
</g>
<!-- Node20 -->
<g id="node20" class="node"><title>Node20</title>
<g id="a_node20"><a xlink:href="namespaceconstants__and__conversions.html#adeac78899e44bc3d58e26397fa64e4a7" target="_top" xlink:title="constants_and_conversions\l::c_to_fortran_string">
<polygon fill="white" stroke="black" points="538.846,-148.5 538.846,-178.5 691.213,-178.5 691.213,-148.5 538.846,-148.5"/>
<text text-anchor="start" x="546.846" y="-165.7" font-family="Helvetica,sans-Serif" font-size="11.00">constants_and_conversions</text>
<text text-anchor="middle" x="615.03" y="-154.7" font-family="Helvetica,sans-Serif" font-size="11.00">::c_to_fortran_string</text>
</a>
</g>
</g>
<!-- Node19&#45;&gt;Node20 -->
<g id="edge27" class="edge"><title>Node19&#45;&gt;Node20</title>
<path fill="none" stroke="midnightblue" d="M468.183,-240.956C500.118,-223.996 545.158,-200.076 576.712,-183.319"/>
<polygon fill="midnightblue" stroke="midnightblue" points="578.446,-186.361 585.636,-178.579 575.162,-180.179 578.446,-186.361"/>
</g>
<!-- Node21&#45;&gt;Node7 -->
<g id="edge29" class="edge"><title>Node21&#45;&gt;Node7</title>
<path fill="none" stroke="midnightblue" d="M315.097,-211.036C369.046,-204.791 444.105,-203.608 502.846,-231.5 552.058,-254.867 588.226,-311.349 604.489,-340.851"/>
<polygon fill="midnightblue" stroke="midnightblue" points="601.434,-342.562 609.231,-349.735 607.609,-339.265 601.434,-342.562"/>
</g>
<!-- Node21&#45;&gt;Node20 -->
<g id="edge30" class="edge"><title>Node21&#45;&gt;Node20</title>
<path fill="none" stroke="midnightblue" d="M304.596,-208.373C309.445,-205.853 314.05,-202.917 318.153,-199.5 343.829,-178.117 325.421,-150.556 354.153,-133.5 422.679,-92.8206 519.355,-121.999 573.399,-144.383"/>
<polygon fill="midnightblue" stroke="midnightblue" points="572.086,-147.628 582.658,-148.325 574.828,-141.187 572.086,-147.628"/>
</g>
<!-- Node22 -->
<g id="node22" class="node"><title>Node22</title>
<g id="a_node22"><a xlink:href="namespacenetcdf4__support.html#aa2d6e99c4cd59ef92c2878aa06c4a67e" target="_top" xlink:title="netcdf4_support::nf\l_populate_attribute\l_struct">
<polygon fill="white" stroke="black" points="373.406,-143 373.406,-184 483.594,-184 483.594,-143 373.406,-143"/>
<text text-anchor="start" x="381.406" y="-171.2" font-family="Helvetica,sans-Serif" font-size="11.00">netcdf4_support::nf</text>
<text text-anchor="start" x="381.406" y="-160.2" font-family="Helvetica,sans-Serif" font-size="11.00">_populate_attribute</text>
<text text-anchor="middle" x="428.5" y="-149.2" font-family="Helvetica,sans-Serif" font-size="11.00">_struct</text>
</a>
</g>
</g>
<!-- Node21&#45;&gt;Node22 -->
<g id="edge31" class="edge"><title>Node21&#45;&gt;Node22</title>
<path fill="none" stroke="midnightblue" d="M291.086,-208.397C300.063,-205.448 309.403,-202.378 318.153,-199.5 332.871,-194.66 348.702,-189.45 363.622,-184.538"/>
<polygon fill="midnightblue" stroke="midnightblue" points="364.87,-187.812 373.274,-181.36 362.681,-181.163 364.87,-187.812"/>
</g>
<!-- Node22&#45;&gt;Node7 -->
<g id="edge32" class="edge"><title>Node22&#45;&gt;Node7</title>
<path fill="none" stroke="midnightblue" d="M481.699,-184.187C489.2,-188.33 496.511,-193.1 502.846,-198.5 551.602,-240.054 588.862,-307.758 605.104,-340.533"/>
<polygon fill="midnightblue" stroke="midnightblue" points="602.117,-342.395 609.627,-349.869 608.417,-339.344 602.117,-342.395"/>
</g>
<!-- Node22&#45;&gt;Node20 -->
<g id="edge33" class="edge"><title>Node22&#45;&gt;Node20</title>
<path fill="none" stroke="midnightblue" d="M483.867,-163.5C497.774,-163.5 513.071,-163.5 528.14,-163.5"/>
<polygon fill="midnightblue" stroke="midnightblue" points="528.517,-167 538.517,-163.5 528.517,-160 528.517,-167"/>
</g>
</g>
</svg>
