<?xml version="1.0" encoding="UTF-8" standalone="no"?>
<!DOCTYPE svg PUBLIC "-//W3C//DTD SVG 1.1//EN"
 "http://www.w3.org/Graphics/SVG/1.1/DTD/svg11.dtd">
<!-- Generated by graphviz version 2.38.0 (20140413.2041)
 -->
<!-- Title: crop_coefficients__fao56::crop_coefficients_fao56_calculate Pages: 1 -->
<svg width="299pt" height="61pt"
 viewBox="0.00 0.00 299.22 61.00" xmlns="http://www.w3.org/2000/svg" xmlns:xlink="http://www.w3.org/1999/xlink">
<g id="graph0" class="graph" transform="scale(1 1) rotate(0) translate(4 57)">
<title>crop_coefficients__fao56::crop_coefficients_fao56_calculate</title>
<polygon fill="white" stroke="none" points="-4,4 -4,-57 295.217,-57 295.217,4 -4,4"/>
<!-- Node17 -->
<g id="node1" class="node"><title>Node17</title>
<polygon fill="#bfbfbf" stroke="black" points="0,-6 0,-47 138.3,-47 138.3,-6 0,-6"/>
<text text-anchor="start" x="8" y="-34.2" font-family="Helvetica,sans-Serif" font-size="11.00">crop_coefficients_</text>
<text text-anchor="start" x="8" y="-23.2" font-family="Helvetica,sans-Serif" font-size="11.00">_fao56::crop_coefficients</text>
<text text-anchor="middle" x="69.1499" y="-12.2" font-family="Helvetica,sans-Serif" font-size="11.00">_fao56_calculate</text>
</g>
<!-- Node18 -->
<g id="node2" class="node"><title>Node18</title>
<g id="a_node2"><a xlink:href="namespacecrop__coefficients____fao56.html#a2e5eaecdad409378faa4c5f4fc5e6e54" target="_top" xlink:title="Update the current basal crop coefficient (Kcb) for a SINGLE irrigation table entry. ">
<polygon fill="white" stroke="black" points="174.3,-0.5 174.3,-52.5 291.217,-52.5 291.217,-0.5 174.3,-0.5"/>
<text text-anchor="start" x="182.3" y="-39.7" font-family="Helvetica,sans-Serif" font-size="11.00">crop_coefficients_</text>
<text text-anchor="start" x="182.3" y="-28.7" font-family="Helvetica,sans-Serif" font-size="11.00">_fao56::update_crop</text>
<text text-anchor="start" x="182.3" y="-17.7" font-family="Helvetica,sans-Serif" font-size="11.00">_coefficient_date_as</text>
<text text-anchor="middle" x="232.759" y="-6.7" font-family="Helvetica,sans-Serif" font-size="11.00">_threshold</text>
</a>
</g>
</g>
<!-- Node17&#45;&gt;Node18 -->
<g id="edge1" class="edge"><title>Node17&#45;&gt;Node18</title>
<path fill="none" stroke="midnightblue" d="M138.687,-26.5C147.066,-26.5 155.625,-26.5 163.992,-26.5"/>
<polygon fill="midnightblue" stroke="midnightblue" points="164.079,-30.0001 174.079,-26.5 164.079,-23.0001 164.079,-30.0001"/>
</g>
</g>
</svg>
