<?xml version="1.0" encoding="UTF-8" standalone="no"?>
<!DOCTYPE svg PUBLIC "-//W3C//DTD SVG 1.1//EN"
 "http://www.w3.org/Graphics/SVG/1.1/DTD/svg11.dtd">
<!-- Generated by graphviz version 2.38.0 (20140413.2041)
 -->
<!-- Title: data_catalog_entry::transform_grid_to_grid_sub Pages: 1 -->
<svg width="662pt" height="180pt"
 viewBox="0.00 0.00 661.80 180.00" xmlns="http://www.w3.org/2000/svg" xmlns:xlink="http://www.w3.org/1999/xlink">
<g id="graph0" class="graph" transform="scale(1 1) rotate(0) translate(4 176)">
<title>data_catalog_entry::transform_grid_to_grid_sub</title>
<polygon fill="white" stroke="none" points="-4,4 -4,-176 657.803,-176 657.803,4 -4,4"/>
<!-- Node108 -->
<g id="node1" class="node"><title>Node108</title>
<polygon fill="#bfbfbf" stroke="black" points="0,-65.5 0,-106.5 109.57,-106.5 109.57,-65.5 0,-65.5"/>
<text text-anchor="start" x="8" y="-93.7" font-family="Helvetica,sans-Serif" font-size="11.00">data_catalog_entry</text>
<text text-anchor="start" x="8" y="-82.7" font-family="Helvetica,sans-Serif" font-size="11.00">::transform_grid_to</text>
<text text-anchor="middle" x="54.7849" y="-71.7" font-family="Helvetica,sans-Serif" font-size="11.00">_grid_sub</text>
</g>
<!-- Node109 -->
<g id="node2" class="node"><title>Node109</title>
<g id="a_node2"><a xlink:href="namespaceexceptions.html#a22a1bf2808fdc249e6b378ee3f221156" target="_top" xlink:title="exceptions::die">
<polygon fill="white" stroke="black" points="173.075,-152.5 173.075,-171.5 262.455,-171.5 262.455,-152.5 173.075,-152.5"/>
<text text-anchor="middle" x="217.765" y="-158.7" font-family="Helvetica,sans-Serif" font-size="11.00">exceptions::die</text>
</a>
</g>
</g>
<!-- Node108&#45;&gt;Node109 -->
<g id="edge1" class="edge"><title>Node108&#45;&gt;Node109</title>
<path fill="none" stroke="midnightblue" d="M83.2555,-106.551C100.427,-118.589 123.418,-133.287 145.57,-143 151.049,-145.402 156.902,-147.561 162.81,-149.485"/>
<polygon fill="midnightblue" stroke="midnightblue" points="162.162,-152.946 172.747,-152.503 164.196,-146.248 162.162,-152.946"/>
</g>
<!-- Node110 -->
<g id="node3" class="node"><title>Node110</title>
<g id="a_node3"><a xlink:href="namespacegrid.html#a9f969ff295204df249fd233a3adc0168" target="_top" xlink:title="grid::grid_completelycover">
<polygon fill="white" stroke="black" points="145.57,-114.5 145.57,-133.5 289.96,-133.5 289.96,-114.5 145.57,-114.5"/>
<text text-anchor="middle" x="217.765" y="-120.7" font-family="Helvetica,sans-Serif" font-size="11.00">grid::grid_completelycover</text>
</a>
</g>
</g>
<!-- Node108&#45;&gt;Node110 -->
<g id="edge2" class="edge"><title>Node108&#45;&gt;Node110</title>
<path fill="none" stroke="midnightblue" d="M109.837,-98.7592C128.179,-103.089 148.582,-107.905 166.608,-112.16"/>
<polygon fill="midnightblue" stroke="midnightblue" points="165.813,-115.569 176.349,-114.46 167.421,-108.756 165.813,-115.569"/>
</g>
<!-- Node111 -->
<g id="node4" class="node"><title>Node111</title>
<g id="a_node4"><a xlink:href="namespacegrid.html#afa350ce941557d82c522ed95e7758c44" target="_top" xlink:title="grid::grid_gridtogrid_int">
<polygon fill="white" stroke="black" points="153.511,-76.5 153.511,-95.5 282.019,-95.5 282.019,-76.5 153.511,-76.5"/>
<text text-anchor="middle" x="217.765" y="-82.7" font-family="Helvetica,sans-Serif" font-size="11.00">grid::grid_gridtogrid_int</text>
</a>
</g>
</g>
<!-- Node108&#45;&gt;Node111 -->
<g id="edge3" class="edge"><title>Node108&#45;&gt;Node111</title>
<path fill="none" stroke="midnightblue" d="M109.837,-86C120.537,-86 131.937,-86 143.159,-86"/>
<polygon fill="midnightblue" stroke="midnightblue" points="143.388,-89.5001 153.388,-86 143.388,-82.5001 143.388,-89.5001"/>
</g>
<!-- Node119 -->
<g id="node12" class="node"><title>Node119</title>
<g id="a_node12"><a xlink:href="namespacegrid.html#a5d46ebd32a7a83ebf0ba59757bbf754a" target="_top" xlink:title="grid::grid_gridtogrid_sgl">
<polygon fill="white" stroke="black" points="152.289,-38.5 152.289,-57.5 283.241,-57.5 283.241,-38.5 152.289,-38.5"/>
<text text-anchor="middle" x="217.765" y="-44.7" font-family="Helvetica,sans-Serif" font-size="11.00">grid::grid_gridtogrid_sgl</text>
</a>
</g>
</g>
<!-- Node108&#45;&gt;Node119 -->
<g id="edge11" class="edge"><title>Node108&#45;&gt;Node119</title>
<path fill="none" stroke="midnightblue" d="M109.837,-73.2408C128.179,-68.9111 148.582,-64.0949 166.608,-59.8398"/>
<polygon fill="midnightblue" stroke="midnightblue" points="167.421,-63.2442 176.349,-57.5403 165.813,-56.4314 167.421,-63.2442"/>
</g>
<!-- Node120 -->
<g id="node13" class="node"><title>Node120</title>
<g id="a_node13"><a xlink:href="namespacegrid.html#a6eb75c46ff6156376f88e567ac0e5271" target="_top" xlink:title="Call PROJ4 to transform coordinates. ">
<polygon fill="white" stroke="black" points="162.081,-0.5 162.081,-19.5 273.45,-19.5 273.45,-0.5 162.081,-0.5"/>
<text text-anchor="middle" x="217.765" y="-6.7" font-family="Helvetica,sans-Serif" font-size="11.00">grid::grid_transform</text>
</a>
</g>
</g>
<!-- Node108&#45;&gt;Node120 -->
<g id="edge14" class="edge"><title>Node108&#45;&gt;Node120</title>
<path fill="none" stroke="midnightblue" d="M83.2555,-65.4488C100.427,-53.4109 123.418,-38.7127 145.57,-29 150.974,-26.6305 156.742,-24.498 162.567,-22.5941"/>
<polygon fill="midnightblue" stroke="midnightblue" points="163.827,-25.8693 172.371,-19.6043 161.784,-19.1737 163.827,-25.8693"/>
</g>
<!-- Node112 -->
<g id="node5" class="node"><title>Node112</title>
<g id="a_node5"><a xlink:href="namespacegrid.html#ace8ea960868faf40cf79d5303f881ed8" target="_top" xlink:title="grid::grid_populatexy">
<polygon fill="white" stroke="black" points="343.986,-38.5 343.986,-57.5 462.106,-57.5 462.106,-38.5 343.986,-38.5"/>
<text text-anchor="middle" x="403.046" y="-44.7" font-family="Helvetica,sans-Serif" font-size="11.00">grid::grid_populatexy</text>
</a>
</g>
</g>
<!-- Node111&#45;&gt;Node112 -->
<g id="edge4" class="edge"><title>Node111&#45;&gt;Node112</title>
<path fill="none" stroke="midnightblue" d="M265.015,-76.411C289.636,-71.3061 320.107,-64.9887 346.058,-59.6082"/>
<polygon fill="midnightblue" stroke="midnightblue" points="347.048,-62.9774 356.129,-57.5201 345.627,-56.1232 347.048,-62.9774"/>
</g>
<!-- Node115 -->
<g id="node8" class="node"><title>Node115</title>
<g id="a_node8"><a xlink:href="namespacegrid.html#a54795390c62b55fd83c35818f8cd4ce3" target="_top" xlink:title="grid::grid_getgridcolrownum">
<polygon fill="white" stroke="black" points="327.18,-76.5 327.18,-95.5 478.913,-95.5 478.913,-76.5 327.18,-76.5"/>
<text text-anchor="middle" x="403.046" y="-82.7" font-family="Helvetica,sans-Serif" font-size="11.00">grid::grid_getgridcolrownum</text>
</a>
</g>
</g>
<!-- Node111&#45;&gt;Node115 -->
<g id="edge7" class="edge"><title>Node111&#45;&gt;Node115</title>
<path fill="none" stroke="midnightblue" d="M282.097,-86C293.301,-86 305.13,-86 316.82,-86"/>
<polygon fill="midnightblue" stroke="midnightblue" points="317.038,-89.5001 327.038,-86 317.038,-82.5001 317.038,-89.5001"/>
</g>
<!-- Node118 -->
<g id="node11" class="node"><title>Node118</title>
<g id="a_node11"><a xlink:href="namespacegrid.html#aad55d9adaeb57f8da93ceee8597869f9" target="_top" xlink:title="grid::grid_majorityfilter_int">
<polygon fill="white" stroke="black" points="332.078,-114.5 332.078,-133.5 474.014,-133.5 474.014,-114.5 332.078,-114.5"/>
<text text-anchor="middle" x="403.046" y="-120.7" font-family="Helvetica,sans-Serif" font-size="11.00">grid::grid_majorityfilter_int</text>
</a>
</g>
</g>
<!-- Node111&#45;&gt;Node118 -->
<g id="edge10" class="edge"><title>Node111&#45;&gt;Node118</title>
<path fill="none" stroke="midnightblue" d="M265.015,-95.589C289.636,-100.694 320.107,-107.011 346.058,-112.392"/>
<polygon fill="midnightblue" stroke="midnightblue" points="345.627,-115.877 356.129,-114.48 347.048,-109.023 345.627,-115.877"/>
</g>
<!-- Node113 -->
<g id="node6" class="node"><title>Node113</title>
<g id="a_node6"><a xlink:href="namespacegrid.html#ad3fbf6446fa8a58df8888c05b7165324" target="_top" xlink:title="grid::grid_getgridx">
<polygon fill="white" stroke="black" points="532.943,-38.5 532.943,-57.5 636.992,-57.5 636.992,-38.5 532.943,-38.5"/>
<text text-anchor="middle" x="584.968" y="-44.7" font-family="Helvetica,sans-Serif" font-size="11.00">grid::grid_getgridx</text>
</a>
</g>
</g>
<!-- Node112&#45;&gt;Node113 -->
<g id="edge5" class="edge"><title>Node112&#45;&gt;Node113</title>
<path fill="none" stroke="midnightblue" d="M462.461,-48C481.683,-48 503.105,-48 522.544,-48"/>
<polygon fill="midnightblue" stroke="midnightblue" points="522.809,-51.5001 532.809,-48 522.809,-44.5001 522.809,-51.5001"/>
</g>
<!-- Node114 -->
<g id="node7" class="node"><title>Node114</title>
<g id="a_node7"><a xlink:href="namespacegrid.html#a93d74de05bc5c8aee4cb556f461be266" target="_top" xlink:title="grid::grid_getgridy">
<polygon fill="white" stroke="black" points="532.943,-0.5 532.943,-19.5 636.992,-19.5 636.992,-0.5 532.943,-0.5"/>
<text text-anchor="middle" x="584.968" y="-6.7" font-family="Helvetica,sans-Serif" font-size="11.00">grid::grid_getgridy</text>
</a>
</g>
</g>
<!-- Node112&#45;&gt;Node114 -->
<g id="edge6" class="edge"><title>Node112&#45;&gt;Node114</title>
<path fill="none" stroke="midnightblue" d="M449.448,-38.411C473.618,-33.3061 503.53,-26.9887 529.005,-21.6082"/>
<polygon fill="midnightblue" stroke="midnightblue" points="529.831,-25.011 538.892,-19.5201 528.385,-18.1621 529.831,-25.011"/>
</g>
<!-- Node116 -->
<g id="node9" class="node"><title>Node116</title>
<g id="a_node9"><a xlink:href="namespacegrid.html#a6b5506d49fb44b008286c59a82e98c1e" target="_top" xlink:title="grid::grid_getgridcolnum">
<polygon fill="white" stroke="black" points="517.963,-114.5 517.963,-133.5 651.972,-133.5 651.972,-114.5 517.963,-114.5"/>
<text text-anchor="middle" x="584.968" y="-120.7" font-family="Helvetica,sans-Serif" font-size="11.00">grid::grid_getgridcolnum</text>
</a>
</g>
</g>
<!-- Node115&#45;&gt;Node116 -->
<g id="edge8" class="edge"><title>Node115&#45;&gt;Node116</title>
<path fill="none" stroke="midnightblue" d="M449.448,-95.589C473.618,-100.694 503.53,-107.011 529.005,-112.392"/>
<polygon fill="midnightblue" stroke="midnightblue" points="528.385,-115.838 538.892,-114.48 529.831,-108.989 528.385,-115.838"/>
</g>
<!-- Node117 -->
<g id="node10" class="node"><title>Node117</title>
<g id="a_node10"><a xlink:href="namespacegrid.html#a9aa473ecf87cf6e11795f2b6e78c920e" target="_top" xlink:title="grid::grid_getgridrownum">
<polygon fill="white" stroke="black" points="516.132,-76.5 516.132,-95.5 653.803,-95.5 653.803,-76.5 516.132,-76.5"/>
<text text-anchor="middle" x="584.968" y="-82.7" font-family="Helvetica,sans-Serif" font-size="11.00">grid::grid_getgridrownum</text>
</a>
</g>
</g>
<!-- Node115&#45;&gt;Node117 -->
<g id="edge9" class="edge"><title>Node115&#45;&gt;Node117</title>
<path fill="none" stroke="midnightblue" d="M479.046,-86C487.943,-86 497.042,-86 505.979,-86"/>
<polygon fill="midnightblue" stroke="midnightblue" points="505.983,-89.5001 515.983,-86 505.982,-82.5001 505.983,-89.5001"/>
</g>
<!-- Node119&#45;&gt;Node112 -->
<g id="edge12" class="edge"><title>Node119&#45;&gt;Node112</title>
<path fill="none" stroke="midnightblue" d="M283.383,-48C299.685,-48 317.239,-48 333.716,-48"/>
<polygon fill="midnightblue" stroke="midnightblue" points="333.816,-51.5001 343.816,-48 333.816,-44.5001 333.816,-51.5001"/>
</g>
<!-- Node119&#45;&gt;Node115 -->
<g id="edge13" class="edge"><title>Node119&#45;&gt;Node115</title>
<path fill="none" stroke="midnightblue" d="M265.015,-57.589C289.636,-62.6939 320.107,-69.0113 346.058,-74.3918"/>
<polygon fill="midnightblue" stroke="midnightblue" points="345.627,-77.8768 356.129,-76.4799 347.048,-71.0226 345.627,-77.8768"/>
</g>
<!-- Node120&#45;&gt;Node112 -->
<g id="edge15" class="edge"><title>Node120&#45;&gt;Node112</title>
<path fill="none" stroke="midnightblue" d="M265.015,-19.589C289.636,-24.6939 320.107,-31.0113 346.058,-36.3918"/>
<polygon fill="midnightblue" stroke="midnightblue" points="345.627,-39.8768 356.129,-38.4799 347.048,-33.0226 345.627,-39.8768"/>
</g>
<!-- Node121 -->
<g id="node14" class="node"><title>Node121</title>
<g id="a_node14"><a xlink:href="namespacegrid.html#a4e234a7e1a3a1ba76a7c92bab7114bf7" target="_top" xlink:title="grid::grid_checkforproj4error">
<polygon fill="white" stroke="black" points="325.96,-0.5 325.96,-19.5 480.132,-19.5 480.132,-0.5 325.96,-0.5"/>
<text text-anchor="middle" x="403.046" y="-6.7" font-family="Helvetica,sans-Serif" font-size="11.00">grid::grid_checkforproj4error</text>
</a>
</g>
</g>
<!-- Node120&#45;&gt;Node121 -->
<g id="edge16" class="edge"><title>Node120&#45;&gt;Node121</title>
<path fill="none" stroke="midnightblue" d="M273.755,-10C286.907,-10 301.264,-10 315.459,-10"/>
<polygon fill="midnightblue" stroke="midnightblue" points="315.747,-13.5001 325.747,-10 315.747,-6.5001 315.747,-13.5001"/>
</g>
</g>
</svg>
