<?xml version="1.0" encoding="UTF-8" standalone="no"?>
<!DOCTYPE svg PUBLIC "-//W3C//DTD SVG 1.1//EN"
 "http://www.w3.org/Graphics/SVG/1.1/DTD/svg11.dtd">
<!-- Generated by graphviz version 2.38.0 (20140413.2041)
 -->
<!-- Title: model_initialize::initialize_percent_pervious Pages: 1 -->
<svg width="302pt" height="142pt"
 viewBox="0.00 0.00 302.21 142.00" xmlns="http://www.w3.org/2000/svg" xmlns:xlink="http://www.w3.org/1999/xlink">
<g id="graph0" class="graph" transform="scale(1 1) rotate(0) translate(4 138)">
<title>model_initialize::initialize_percent_pervious</title>
<polygon fill="white" stroke="none" points="-4,4 -4,-138 298.209,-138 298.209,4 -4,4"/>
<!-- Node89 -->
<g id="node1" class="node"><title>Node89</title>
<polygon fill="#bfbfbf" stroke="black" points="0,-52 0,-82 136.447,-82 136.447,-52 0,-52"/>
<text text-anchor="start" x="8" y="-69.2" font-family="Helvetica,sans-Serif" font-size="11.00">model_initialize::initialize</text>
<text text-anchor="middle" x="68.2234" y="-58.2" font-family="Helvetica,sans-Serif" font-size="11.00">_percent_pervious</text>
</g>
<!-- Node90 -->
<g id="node2" class="node"><title>Node90</title>
<g id="a_node2"><a xlink:href="namespaceexceptions.html#a22a1bf2808fdc249e6b378ee3f221156" target="_top" xlink:title="exceptions::die">
<polygon fill="white" stroke="black" points="188.638,-114.5 188.638,-133.5 278.018,-133.5 278.018,-114.5 188.638,-114.5"/>
<text text-anchor="middle" x="233.328" y="-120.7" font-family="Helvetica,sans-Serif" font-size="11.00">exceptions::die</text>
</a>
</g>
</g>
<!-- Node89&#45;&gt;Node90 -->
<g id="edge1" class="edge"><title>Node89&#45;&gt;Node90</title>
<path fill="none" stroke="midnightblue" d="M108.777,-82.0399C127.932,-89.2006 151.309,-97.7601 172.447,-105 178.541,-107.087 185.011,-109.223 191.358,-111.273"/>
<polygon fill="midnightblue" stroke="midnightblue" points="190.569,-114.696 201.16,-114.406 192.7,-108.028 190.569,-114.696"/>
</g>
<!-- Node91 -->
<g id="node3" class="node"><title>Node91</title>
<g id="a_node3"><a xlink:href="namespacegrid.html#adfcb9064d9b58a49eb61093cd4809a43" target="_top" xlink:title="grid::grid_destroy">
<polygon fill="white" stroke="black" points="182.834,-76.5 182.834,-95.5 283.821,-95.5 283.821,-76.5 182.834,-76.5"/>
<text text-anchor="middle" x="233.328" y="-82.7" font-family="Helvetica,sans-Serif" font-size="11.00">grid::grid_destroy</text>
</a>
</g>
</g>
<!-- Node89&#45;&gt;Node91 -->
<g id="edge2" class="edge"><title>Node89&#45;&gt;Node91</title>
<path fill="none" stroke="midnightblue" d="M136.506,-74.8377C148.451,-76.2292 160.818,-77.6698 172.538,-79.0351"/>
<polygon fill="midnightblue" stroke="midnightblue" points="172.306,-82.5316 182.644,-80.2123 173.116,-75.5786 172.306,-82.5316"/>
</g>
<!-- Node92 -->
<g id="node4" class="node"><title>Node92</title>
<g id="a_node4"><a xlink:href="namespacegrid.html#a02803f7fe27d0354d3d16a15bd1338da" target="_top" xlink:title="grid::grid_writearcgrid">
<polygon fill="white" stroke="black" points="172.447,-38.5 172.447,-57.5 294.209,-57.5 294.209,-38.5 172.447,-38.5"/>
<text text-anchor="middle" x="233.328" y="-44.7" font-family="Helvetica,sans-Serif" font-size="11.00">grid::grid_writearcgrid</text>
</a>
</g>
</g>
<!-- Node89&#45;&gt;Node92 -->
<g id="edge3" class="edge"><title>Node89&#45;&gt;Node92</title>
<path fill="none" stroke="midnightblue" d="M136.506,-59.1623C145.021,-58.1704 153.749,-57.1536 162.306,-56.1569"/>
<polygon fill="midnightblue" stroke="midnightblue" points="162.719,-59.6325 172.247,-54.9988 161.909,-52.6795 162.719,-59.6325"/>
</g>
<!-- Node93 -->
<g id="node5" class="node"><title>Node93</title>
<g id="a_node5"><a xlink:href="namespaceexceptions.html#a84dd04476b06e0a398bfe6d106a82a4d" target="_top" xlink:title="exceptions::warn">
<polygon fill="white" stroke="black" points="184.056,-0.5 184.056,-19.5 282.599,-19.5 282.599,-0.5 184.056,-0.5"/>
<text text-anchor="middle" x="233.328" y="-6.7" font-family="Helvetica,sans-Serif" font-size="11.00">exceptions::warn</text>
</a>
</g>
</g>
<!-- Node89&#45;&gt;Node93 -->
<g id="edge4" class="edge"><title>Node89&#45;&gt;Node93</title>
<path fill="none" stroke="midnightblue" d="M108.777,-51.9601C127.932,-44.7994 151.309,-36.2399 172.447,-29 178.541,-26.9126 185.011,-24.7771 191.358,-22.7267"/>
<polygon fill="midnightblue" stroke="midnightblue" points="192.7,-25.9721 201.16,-19.5939 190.569,-19.3044 192.7,-25.9721"/>
</g>
</g>
</svg>
