<?xml version="1.0" encoding="UTF-8" standalone="no"?>
<!DOCTYPE svg PUBLIC "-//W3C//DTD SVG 1.1//EN"
 "http://www.w3.org/Graphics/SVG/1.1/DTD/svg11.dtd">
<!-- Generated by graphviz version 2.38.0 (20140413.2041)
 -->
<!-- Title: model_domain::model_calculate_actual_et_thornthwaite_mather Pages: 1 -->
<svg width="310pt" height="50pt"
 viewBox="0.00 0.00 309.58 50.00" xmlns="http://www.w3.org/2000/svg" xmlns:xlink="http://www.w3.org/1999/xlink">
<g id="graph0" class="graph" transform="scale(1 1) rotate(0) translate(4 46)">
<title>model_domain::model_calculate_actual_et_thornthwaite_mather</title>
<polygon fill="white" stroke="none" points="-4,4 -4,-46 305.578,-46 305.578,4 -4,4"/>
<!-- Node1 -->
<g id="node1" class="node"><title>Node1</title>
<polygon fill="#bfbfbf" stroke="black" points="0,-0.5 0,-41.5 124.228,-41.5 124.228,-0.5 0,-0.5"/>
<text text-anchor="start" x="8" y="-28.7" font-family="Helvetica,sans-Serif" font-size="11.00">model_domain::model</text>
<text text-anchor="start" x="8" y="-17.7" font-family="Helvetica,sans-Serif" font-size="11.00">_calculate_actual_et</text>
<text text-anchor="middle" x="62.1138" y="-6.7" font-family="Helvetica,sans-Serif" font-size="11.00">_thornthwaite_mather</text>
</g>
<!-- Node2 -->
<g id="node2" class="node"><title>Node2</title>
<g id="a_node2"><a xlink:href="namespaceactual__et____thornthwaite__mather.html#a1174dff3b1f53e05ba3a3979ac7730a8" target="_top" xlink:title="actual_et__thornthwaite\l_mather::calculate_actual\l_et_thornthwaite_mather">
<polygon fill="white" stroke="black" points="160.228,-0.5 160.228,-41.5 301.578,-41.5 301.578,-0.5 160.228,-0.5"/>
<text text-anchor="start" x="168.228" y="-28.7" font-family="Helvetica,sans-Serif" font-size="11.00">actual_et__thornthwaite</text>
<text text-anchor="start" x="168.228" y="-17.7" font-family="Helvetica,sans-Serif" font-size="11.00">_mather::calculate_actual</text>
<text text-anchor="middle" x="230.903" y="-6.7" font-family="Helvetica,sans-Serif" font-size="11.00">_et_thornthwaite_mather</text>
</a>
</g>
</g>
<!-- Node1&#45;&gt;Node2 -->
<g id="edge1" class="edge"><title>Node1&#45;&gt;Node2</title>
<path fill="none" stroke="midnightblue" d="M124.273,-21C132.626,-21 141.3,-21 149.925,-21"/>
<polygon fill="midnightblue" stroke="midnightblue" points="150.006,-24.5001 160.006,-21 150.005,-17.5001 150.006,-24.5001"/>
</g>
</g>
</svg>
