<?xml version="1.0" encoding="UTF-8" standalone="no"?>
<!DOCTYPE svg PUBLIC "-//W3C//DTD SVG 1.1//EN"
 "http://www.w3.org/Graphics/SVG/1.1/DTD/svg11.dtd">
<!-- Generated by graphviz version 2.38.0 (20140413.2041)
 -->
<!-- Title: netcdf4_support::nf_set_standard_variables Pages: 1 -->
<svg width="907pt" height="100pt"
 viewBox="0.00 0.00 906.51 99.50" xmlns="http://www.w3.org/2000/svg" xmlns:xlink="http://www.w3.org/1999/xlink">
<g id="graph0" class="graph" transform="scale(1 1) rotate(0) translate(4 95.5)">
<title>netcdf4_support::nf_set_standard_variables</title>
<polygon fill="white" stroke="none" points="-4,4 -4,-95.5 902.513,-95.5 902.513,4 -4,4"/>
<!-- Node629 -->
<g id="node1" class="node"><title>Node629</title>
<polygon fill="#bfbfbf" stroke="black" points="0,-33 0,-63 135.856,-63 135.856,-33 0,-33"/>
<text text-anchor="start" x="8" y="-50.2" font-family="Helvetica,sans-Serif" font-size="11.00">netcdf4_support::nf</text>
<text text-anchor="middle" x="67.928" y="-39.2" font-family="Helvetica,sans-Serif" font-size="11.00">_set_standard_variables</text>
</g>
<!-- Node630 -->
<g id="node2" class="node"><title>Node630</title>
<g id="a_node2"><a xlink:href="namespacenetcdf4__support.html#a4bc9b9f951c1dc1cc1f50ba727794071" target="_top" xlink:title="netcdf4_support::netcdf\l_open_and_prepare_as_output">
<polygon fill="white" stroke="black" points="171.856,-61 171.856,-91 341.383,-91 341.383,-61 171.856,-61"/>
<text text-anchor="start" x="179.856" y="-78.2" font-family="Helvetica,sans-Serif" font-size="11.00">netcdf4_support::netcdf</text>
<text text-anchor="middle" x="256.62" y="-67.2" font-family="Helvetica,sans-Serif" font-size="11.00">_open_and_prepare_as_output</text>
</a>
</g>
</g>
<!-- Node629&#45;&gt;Node630 -->
<g id="edge1" class="edge"><title>Node629&#45;&gt;Node630</title>
<path fill="none" stroke="midnightblue" d="M145.976,-59.5557C154.509,-60.8354 163.228,-62.1432 171.838,-63.4345"/>
<polygon fill="midnightblue" stroke="midnightblue" points="146.473,-56.0911 136.064,-58.0691 145.434,-63.0137 146.473,-56.0911"/>
</g>
<!-- Node634 -->
<g id="node6" class="node"><title>Node634</title>
<g id="a_node6"><a xlink:href="namespacenetcdf4__support.html#a6c0e12debd35545980fa63ade1094e93" target="_top" xlink:title="netcdf4_support::netcdf\l_open_and_prepare_as_output\l_archive">
<polygon fill="white" stroke="black" points="171.856,-0.5 171.856,-41.5 341.383,-41.5 341.383,-0.5 171.856,-0.5"/>
<text text-anchor="start" x="179.856" y="-28.7" font-family="Helvetica,sans-Serif" font-size="11.00">netcdf4_support::netcdf</text>
<text text-anchor="start" x="179.856" y="-17.7" font-family="Helvetica,sans-Serif" font-size="11.00">_open_and_prepare_as_output</text>
<text text-anchor="middle" x="256.62" y="-6.7" font-family="Helvetica,sans-Serif" font-size="11.00">_archive</text>
</a>
</g>
</g>
<!-- Node629&#45;&gt;Node634 -->
<g id="edge5" class="edge"><title>Node629&#45;&gt;Node634</title>
<path fill="none" stroke="midnightblue" d="M145.976,-36.857C154.509,-35.623 163.228,-34.3619 171.838,-33.1167"/>
<polygon fill="midnightblue" stroke="midnightblue" points="145.46,-33.3951 136.064,-38.2905 146.462,-40.3231 145.46,-33.3951"/>
</g>
<!-- Node631 -->
<g id="node3" class="node"><title>Node631</title>
<g id="a_node3"><a xlink:href="namespacefog____monthly__grid.html#a8e7386e0dfea998459a45c270e0afecc" target="_top" xlink:title="Initialize the fog drip algorithm. ">
<polygon fill="white" stroke="black" points="377.383,-61 377.383,-91 523.015,-91 523.015,-61 377.383,-61"/>
<text text-anchor="start" x="385.383" y="-78.2" font-family="Helvetica,sans-Serif" font-size="11.00">fog__monthly_grid::</text>
<text text-anchor="middle" x="450.199" y="-67.2" font-family="Helvetica,sans-Serif" font-size="11.00">fog_monthly_grid_initialize</text>
</a>
</g>
</g>
<!-- Node630&#45;&gt;Node631 -->
<g id="edge2" class="edge"><title>Node630&#45;&gt;Node631</title>
<path fill="none" stroke="midnightblue" d="M351.7,-76C360.284,-76 368.885,-76 377.229,-76"/>
<polygon fill="midnightblue" stroke="midnightblue" points="351.649,-72.5001 341.649,-76 351.649,-79.5001 351.649,-72.5001"/>
</g>
<!-- Node632 -->
<g id="node4" class="node"><title>Node632</title>
<g id="a_node4"><a xlink:href="namespacemodel__domain.html#ad24a97a20a893d728e39930306e8b1d4" target="_top" xlink:title="model_domain::model\l_initialize_fog_monthly_grid">
<polygon fill="white" stroke="black" points="559.015,-61 559.015,-91 710.764,-91 710.764,-61 559.015,-61"/>
<text text-anchor="start" x="567.015" y="-78.2" font-family="Helvetica,sans-Serif" font-size="11.00">model_domain::model</text>
<text text-anchor="middle" x="634.889" y="-67.2" font-family="Helvetica,sans-Serif" font-size="11.00">_initialize_fog_monthly_grid</text>
</a>
</g>
</g>
<!-- Node631&#45;&gt;Node632 -->
<g id="edge3" class="edge"><title>Node631&#45;&gt;Node632</title>
<path fill="none" stroke="midnightblue" d="M533.171,-76C541.774,-76 550.49,-76 559.009,-76"/>
<polygon fill="midnightblue" stroke="midnightblue" points="533.141,-72.5001 523.141,-76 533.141,-79.5001 533.141,-72.5001"/>
</g>
<!-- Node633 -->
<g id="node5" class="node"><title>Node633</title>
<g id="a_node5"><a xlink:href="namespacemodel__domain.html#aac78dbf26ba37cf86ebed4edd7acf89b" target="_top" xlink:title="model_domain::set_method\l_pointers_sub">
<polygon fill="white" stroke="black" points="746.764,-61 746.764,-91 898.513,-91 898.513,-61 746.764,-61"/>
<text text-anchor="start" x="754.764" y="-78.2" font-family="Helvetica,sans-Serif" font-size="11.00">model_domain::set_method</text>
<text text-anchor="middle" x="822.638" y="-67.2" font-family="Helvetica,sans-Serif" font-size="11.00">_pointers_sub</text>
</a>
</g>
</g>
<!-- Node632&#45;&gt;Node633 -->
<g id="edge4" class="edge"><title>Node632&#45;&gt;Node633</title>
<path fill="none" stroke="midnightblue" d="M720.922,-76C729.505,-76 738.177,-76 746.644,-76"/>
<polygon fill="midnightblue" stroke="midnightblue" points="720.905,-72.5001 710.905,-76 720.905,-79.5001 720.905,-72.5001"/>
</g>
<!-- Node635 -->
<g id="node7" class="node"><title>Node635</title>
<g id="a_node7"><a xlink:href="namespacedata__catalog__entry.html#a3ea40e0b58c61d01a18065ea3c1b4fcd" target="_top" xlink:title="data_catalog_entry\l::put_values_to_local\l_netcdf_sub">
<polygon fill="white" stroke="black" points="390.524,-0.5 390.524,-41.5 509.874,-41.5 509.874,-0.5 390.524,-0.5"/>
<text text-anchor="start" x="398.524" y="-28.7" font-family="Helvetica,sans-Serif" font-size="11.00">data_catalog_entry</text>
<text text-anchor="start" x="398.524" y="-17.7" font-family="Helvetica,sans-Serif" font-size="11.00">::put_values_to_local</text>
<text text-anchor="middle" x="450.199" y="-6.7" font-family="Helvetica,sans-Serif" font-size="11.00">_netcdf_sub</text>
</a>
</g>
</g>
<!-- Node634&#45;&gt;Node635 -->
<g id="edge6" class="edge"><title>Node634&#45;&gt;Node635</title>
<path fill="none" stroke="midnightblue" d="M351.677,-21C364.822,-21 378.011,-21 390.253,-21"/>
<polygon fill="midnightblue" stroke="midnightblue" points="351.649,-17.5001 341.649,-21 351.649,-24.5001 351.649,-17.5001"/>
</g>
</g>
</svg>
