<?xml version="1.0" encoding="UTF-8" standalone="no"?>
<!DOCTYPE svg PUBLIC "-//W3C//DTD SVG 1.1//EN"
 "http://www.w3.org/Graphics/SVG/1.1/DTD/svg11.dtd">
<!-- Generated by graphviz version 2.38.0 (20140413.2041)
 -->
<!-- Title: model_initialize::initialize_hydrologic_soil_groups Pages: 1 -->
<svg width="636pt" height="39pt"
 viewBox="0.00 0.00 636.13 39.00" xmlns="http://www.w3.org/2000/svg" xmlns:xlink="http://www.w3.org/1999/xlink">
<g id="graph0" class="graph" transform="scale(1 1) rotate(0) translate(4 35)">
<title>model_initialize::initialize_hydrologic_soil_groups</title>
<polygon fill="white" stroke="none" points="-4,4 -4,-35 632.129,-35 632.129,4 -4,4"/>
<!-- Node1 -->
<g id="node1" class="node"><title>Node1</title>
<polygon fill="#bfbfbf" stroke="black" points="0,-0.5 0,-30.5 136.447,-30.5 136.447,-0.5 0,-0.5"/>
<text text-anchor="start" x="8" y="-17.7" font-family="Helvetica,sans-Serif" font-size="11.00">model_initialize::initialize</text>
<text text-anchor="middle" x="68.2234" y="-6.7" font-family="Helvetica,sans-Serif" font-size="11.00">_hydrologic_soil_groups</text>
</g>
<!-- Node2 -->
<g id="node2" class="node"><title>Node2</title>
<g id="a_node2"><a xlink:href="namespacemodel__initialize.html#ad5de643aae8f976ef39b44ec8276c528" target="_top" xlink:title="Initialize soils, landuse, and available water content values. ">
<polygon fill="white" stroke="black" points="172.447,-0.5 172.447,-30.5 362.717,-30.5 362.717,-0.5 172.447,-0.5"/>
<text text-anchor="start" x="180.447" y="-17.7" font-family="Helvetica,sans-Serif" font-size="11.00">model_initialize::initialize</text>
<text text-anchor="middle" x="267.582" y="-6.7" font-family="Helvetica,sans-Serif" font-size="11.00">_soils_landuse_awc_flowdir_values</text>
</a>
</g>
</g>
<!-- Node1&#45;&gt;Node2 -->
<g id="edge1" class="edge"><title>Node1&#45;&gt;Node2</title>
<path fill="none" stroke="midnightblue" d="M146.706,-15.5C155.101,-15.5 163.71,-15.5 172.275,-15.5"/>
<polygon fill="midnightblue" stroke="midnightblue" points="146.591,-12.0001 136.591,-15.5 146.591,-19.0001 146.591,-12.0001"/>
</g>
<!-- Node3 -->
<g id="node3" class="node"><title>Node3</title>
<g id="a_node3"><a xlink:href="namespacemodel__initialize.html#a46370bf2e9ea112d1f219277ba7fd3ce" target="_top" xlink:title="model_initialize::initialize_all">
<polygon fill="white" stroke="black" points="398.717,-6 398.717,-25 552.287,-25 552.287,-6 398.717,-6"/>
<text text-anchor="middle" x="475.502" y="-12.2" font-family="Helvetica,sans-Serif" font-size="11.00">model_initialize::initialize_all</text>
</a>
</g>
</g>
<!-- Node2&#45;&gt;Node3 -->
<g id="edge2" class="edge"><title>Node2&#45;&gt;Node3</title>
<path fill="none" stroke="midnightblue" d="M372.924,-15.5C381.552,-15.5 390.167,-15.5 398.527,-15.5"/>
<polygon fill="midnightblue" stroke="midnightblue" points="372.804,-12.0001 362.804,-15.5 372.804,-19.0001 372.804,-12.0001"/>
</g>
<!-- Node4 -->
<g id="node4" class="node"><title>Node4</title>
<g id="a_node4"><a xlink:href="main_8F90.html#a8ec2266d83cd6c0b762cbcbc92c0af3d" target="_top" xlink:title="Main program which references all other modules; execution begins here. ">
<polygon fill="white" stroke="black" points="588.287,-6 588.287,-25 628.129,-25 628.129,-6 588.287,-6"/>
<text text-anchor="middle" x="608.208" y="-12.2" font-family="Helvetica,sans-Serif" font-size="11.00">main</text>
</a>
</g>
</g>
<!-- Node3&#45;&gt;Node4 -->
<g id="edge3" class="edge"><title>Node3&#45;&gt;Node4</title>
<path fill="none" stroke="midnightblue" d="M562.627,-15.5C572.122,-15.5 580.964,-15.5 588.229,-15.5"/>
<polygon fill="midnightblue" stroke="midnightblue" points="562.534,-12.0001 552.534,-15.5 562.534,-19.0001 562.534,-12.0001"/>
</g>
</g>
</svg>
