<?xml version="1.0" encoding="UTF-8" standalone="no"?>
<!DOCTYPE svg PUBLIC "-//W3C//DTD SVG 1.1//EN"
 "http://www.w3.org/Graphics/SVG/1.1/DTD/svg11.dtd">
<!-- Generated by graphviz version 2.38.0 (20140413.2041)
 -->
<!-- Title: model_domain::model_calculate_routing_none Pages: 1 -->
<svg width="332pt" height="39pt"
 viewBox="0.00 0.00 331.62 39.00" xmlns="http://www.w3.org/2000/svg" xmlns:xlink="http://www.w3.org/1999/xlink">
<g id="graph0" class="graph" transform="scale(1 1) rotate(0) translate(4 35)">
<title>model_domain::model_calculate_routing_none</title>
<polygon fill="white" stroke="none" points="-4,4 -4,-35 327.621,-35 327.621,4 -4,4"/>
<!-- Node198 -->
<g id="node1" class="node"><title>Node198</title>
<polygon fill="#bfbfbf" stroke="black" points="0,-0.5 0,-30.5 135.872,-30.5 135.872,-0.5 0,-0.5"/>
<text text-anchor="start" x="8" y="-17.7" font-family="Helvetica,sans-Serif" font-size="11.00">model_domain::model</text>
<text text-anchor="middle" x="67.936" y="-6.7" font-family="Helvetica,sans-Serif" font-size="11.00">_calculate_routing_none</text>
</g>
<!-- Node199 -->
<g id="node2" class="node"><title>Node199</title>
<g id="a_node2"><a xlink:href="namespacemodel__domain.html#aac78dbf26ba37cf86ebed4edd7acf89b" target="_top" xlink:title="model_domain::set_method\l_pointers_sub">
<polygon fill="white" stroke="black" points="171.872,-0.5 171.872,-30.5 323.621,-30.5 323.621,-0.5 171.872,-0.5"/>
<text text-anchor="start" x="179.872" y="-17.7" font-family="Helvetica,sans-Serif" font-size="11.00">model_domain::set_method</text>
<text text-anchor="middle" x="247.747" y="-6.7" font-family="Helvetica,sans-Serif" font-size="11.00">_pointers_sub</text>
</a>
</g>
</g>
<!-- Node198&#45;&gt;Node199 -->
<g id="edge1" class="edge"><title>Node198&#45;&gt;Node199</title>
<path fill="none" stroke="midnightblue" d="M146.179,-15.5C154.678,-15.5 163.321,-15.5 171.791,-15.5"/>
<polygon fill="midnightblue" stroke="midnightblue" points="145.905,-12.0001 135.905,-15.5 145.905,-19.0001 145.905,-12.0001"/>
</g>
</g>
</svg>
