<?xml version="1.0" encoding="UTF-8" standalone="no"?>
<!DOCTYPE svg PUBLIC "-//W3C//DTD SVG 1.1//EN"
 "http://www.w3.org/Graphics/SVG/1.1/DTD/svg11.dtd">
<!-- Generated by graphviz version 2.38.0 (20140413.2041)
 -->
<!-- Title: direct_recharge__gridded_data::direct_recharge_calculate Pages: 1 -->
<svg width="521pt" height="50pt"
 viewBox="0.00 0.00 521.19 50.00" xmlns="http://www.w3.org/2000/svg" xmlns:xlink="http://www.w3.org/1999/xlink">
<g id="graph0" class="graph" transform="scale(1 1) rotate(0) translate(4 46)">
<title>direct_recharge__gridded_data::direct_recharge_calculate</title>
<polygon fill="white" stroke="none" points="-4,4 -4,-46 517.191,-46 517.191,4 -4,4"/>
<!-- Node6 -->
<g id="node1" class="node"><title>Node6</title>
<polygon fill="#bfbfbf" stroke="black" points="0,-0.5 0,-41.5 141.361,-41.5 141.361,-0.5 0,-0.5"/>
<text text-anchor="start" x="8" y="-28.7" font-family="Helvetica,sans-Serif" font-size="11.00">direct_recharge__gridded</text>
<text text-anchor="start" x="8" y="-17.7" font-family="Helvetica,sans-Serif" font-size="11.00">_data::direct_recharge</text>
<text text-anchor="middle" x="70.6807" y="-6.7" font-family="Helvetica,sans-Serif" font-size="11.00">_calculate</text>
</g>
<!-- Node7 -->
<g id="node2" class="node"><title>Node7</title>
<g id="a_node2"><a xlink:href="namespacemodel__domain.html#a4433e4eb5533589dc2ed2d69319a0b5e" target="_top" xlink:title="model_domain::model\l_calculate_direct_recharge\l_gridded">
<polygon fill="white" stroke="black" points="177.361,-0.5 177.361,-41.5 325.442,-41.5 325.442,-0.5 177.361,-0.5"/>
<text text-anchor="start" x="185.361" y="-28.7" font-family="Helvetica,sans-Serif" font-size="11.00">model_domain::model</text>
<text text-anchor="start" x="185.361" y="-17.7" font-family="Helvetica,sans-Serif" font-size="11.00">_calculate_direct_recharge</text>
<text text-anchor="middle" x="251.402" y="-6.7" font-family="Helvetica,sans-Serif" font-size="11.00">_gridded</text>
</a>
</g>
</g>
<!-- Node6&#45;&gt;Node7 -->
<g id="edge1" class="edge"><title>Node6&#45;&gt;Node7</title>
<path fill="none" stroke="midnightblue" d="M151.552,-21C160.138,-21 168.842,-21 177.342,-21"/>
<polygon fill="midnightblue" stroke="midnightblue" points="151.547,-17.5001 141.547,-21 151.547,-24.5001 151.547,-17.5001"/>
</g>
<!-- Node8 -->
<g id="node3" class="node"><title>Node8</title>
<g id="a_node3"><a xlink:href="namespacemodel__domain.html#aac78dbf26ba37cf86ebed4edd7acf89b" target="_top" xlink:title="model_domain::set_method\l_pointers_sub">
<polygon fill="white" stroke="black" points="361.442,-6 361.442,-36 513.191,-36 513.191,-6 361.442,-6"/>
<text text-anchor="start" x="369.442" y="-23.2" font-family="Helvetica,sans-Serif" font-size="11.00">model_domain::set_method</text>
<text text-anchor="middle" x="437.316" y="-12.2" font-family="Helvetica,sans-Serif" font-size="11.00">_pointers_sub</text>
</a>
</g>
</g>
<!-- Node7&#45;&gt;Node8 -->
<g id="edge2" class="edge"><title>Node7&#45;&gt;Node8</title>
<path fill="none" stroke="midnightblue" d="M335.868,-21C344.327,-21 352.882,-21 361.245,-21"/>
<polygon fill="midnightblue" stroke="midnightblue" points="335.618,-17.5001 325.618,-21 335.618,-24.5001 335.618,-17.5001"/>
</g>
</g>
</svg>
