<?xml version="1.0" encoding="UTF-8" standalone="no"?>
<!DOCTYPE svg PUBLIC "-//W3C//DTD SVG 1.1//EN"
 "http://www.w3.org/Graphics/SVG/1.1/DTD/svg11.dtd">
<!-- Generated by graphviz version 2.38.0 (20140413.2041)
 -->
<!-- Title: netcdf4_support::netcdf_get_variable_slice Pages: 1 -->
<!--zoomable 258 -->
<svg id="main" version="1.1" xmlns="http://www.w3.org/2000/svg" xmlns:xlink="http://www.w3.org/1999/xlink" xml:space="preserve" onload="init(evt)">
<style type="text/css"><![CDATA[
.edge:hover path { stroke: red; }
.edge:hover polygon { stroke: red; fill: red; }
]]></style>
<script type="text/javascript"><![CDATA[
var edges = document.getElementsByTagName('g');
if (edges && edges.length) {
  for (var i=0;i<edges.length;i++) {
    if (edges[i].id.substr(0,4)=='edge') {
      edges[i].setAttribute('class','edge');
    }
  }
}
]]></script>
        <defs>
                <circle id="rim" cx="0" cy="0" r="7"/>
                <circle id="rim2" cx="0" cy="0" r="3.5"/>
                <g id="zoomPlus">
                        <use xlink:href="#rim" fill="#404040">
                                <set attributeName="fill" to="#808080" begin="zoomplus.mouseover" end="zoomplus.mouseout"/>
                        </use>
                        <path d="M-4,0h8M0,-4v8" fill="none" stroke="white" stroke-width="1.5" pointer-events="none"/>
                </g>
                <g id="zoomMin">
                        <use xlink:href="#rim" fill="#404040">
                                <set attributeName="fill" to="#808080" begin="zoomminus.mouseover" end="zoomminus.mouseout"/>
                        </use>
                        <path d="M-4,0h8" fill="none" stroke="white" stroke-width="1.5" pointer-events="none"/>
                </g>
                <g id="dirArrow">
                        <path fill="none" stroke="white" stroke-width="1.5" d="M0,-3.0v7 M-2.5,-0.5L0,-3.0L2.5,-0.5"/>
                </g>
               <g id="resetDef">
                       <use xlink:href="#rim2" fill="#404040">
                               <set attributeName="fill" to="#808080" begin="reset.mouseover" end="reset.mouseout"/>
                       </use>
               </g>
        </defs>

<script type="text/javascript">
var viewWidth = 825;
var viewHeight = 258;
var sectionId = 'dynsection-38';
</script>
<script xlink:href="svgpan.js"/>
<svg id="graph" class="graph">
<g id="viewport">
<title>netcdf4_support::netcdf_get_variable_slice</title>
<polygon fill="white" stroke="none" points="-4,4 -4,-254 820.555,-254 820.555,4 -4,4"/>
<!-- Node1 -->
<g id="node1" class="node"><title>Node1</title>
<polygon fill="#bfbfbf" stroke="black" points="0,-76 0,-106 130.968,-106 130.968,-76 0,-76"/>
<text text-anchor="start" x="8" y="-93.2" font-family="Helvetica,sans-Serif" font-size="11.00">netcdf4_support::netcdf</text>
<text text-anchor="middle" x="65.4841" y="-82.2" font-family="Helvetica,sans-Serif" font-size="11.00">_get_variable_slice</text>
</g>
<!-- Node2 -->
<g id="node2" class="node"><title>Node2</title>
<g id="a_node2"><a xlink:href="namespacenetcdf4__support.html#a67ae6168c1f09c755c4e314978ec9ecf" target="_top" xlink:title="netcdf4_support::nf\l_get_variable_slice_float">
<polygon fill="white" stroke="black" points="168.8,-150 168.8,-180 305.88,-180 305.88,-150 168.8,-150"/>
<text text-anchor="start" x="176.8" y="-167.2" font-family="Helvetica,sans-Serif" font-size="11.00">netcdf4_support::nf</text>
<text text-anchor="middle" x="237.34" y="-156.2" font-family="Helvetica,sans-Serif" font-size="11.00">_get_variable_slice_float</text>
</a>
</g>
</g>
<!-- Node1&#45;&gt;Node2 -->
<g id="edge1" class="edge"><title>Node1&#45;&gt;Node2</title>
<path fill="none" stroke="midnightblue" d="M95.5585,-106.211C115.419,-116.345 142.475,-129.65 166.968,-140 172.054,-142.149 177.394,-144.283 182.76,-146.347"/>
<polygon fill="midnightblue" stroke="midnightblue" points="181.803,-149.727 192.395,-149.973 184.269,-143.175 181.803,-149.727"/>
</g>
<!-- Node7 -->
<g id="node7" class="node"><title>Node7</title>
<g id="a_node7"><a xlink:href="namespaceexceptions.html#a84dd04476b06e0a398bfe6d106a82a4d" target="_top" xlink:title="exceptions::warn">
<polygon fill="white" stroke="black" points="351.054,-60.5 351.054,-79.5 449.597,-79.5 449.597,-60.5 351.054,-60.5"/>
<text text-anchor="middle" x="400.326" y="-66.7" font-family="Helvetica,sans-Serif" font-size="11.00">exceptions::warn</text>
</a>
</g>
</g>
<!-- Node1&#45;&gt;Node7 -->
<g id="edge17" class="edge"><title>Node1&#45;&gt;Node7</title>
<path fill="none" stroke="midnightblue" d="M89.7049,-75.8841C109.373,-64.0365 138.79,-48.5043 166.968,-42 227.918,-27.931 245.846,-32.7569 307.712,-42 318.243,-43.5734 341.159,-50.5779 361.437,-57.1869"/>
<polygon fill="midnightblue" stroke="midnightblue" points="360.52,-60.5699 371.113,-60.3739 362.71,-53.9212 360.52,-60.5699"/>
</g>
<!-- Node8 -->
<g id="node8" class="node"><title>Node8</title>
<g id="a_node8"><a xlink:href="namespacenetcdf4__support.html#a03478999542c85e3a93b618472e57409" target="_top" xlink:title="netcdf4_support::nf\l_get_variable_slice_int">
<polygon fill="white" stroke="black" points="173.387,-101 173.387,-131 301.293,-131 301.293,-101 173.387,-101"/>
<text text-anchor="start" x="181.387" y="-118.2" font-family="Helvetica,sans-Serif" font-size="11.00">netcdf4_support::nf</text>
<text text-anchor="middle" x="237.34" y="-107.2" font-family="Helvetica,sans-Serif" font-size="11.00">_get_variable_slice_int</text>
</a>
</g>
</g>
<!-- Node1&#45;&gt;Node8 -->
<g id="edge7" class="edge"><title>Node1&#45;&gt;Node8</title>
<path fill="none" stroke="midnightblue" d="M131.184,-100.523C141.628,-102.06 152.505,-103.661 163.133,-105.225"/>
<polygon fill="midnightblue" stroke="midnightblue" points="162.82,-108.717 173.223,-106.71 163.839,-101.791 162.82,-108.717"/>
</g>
<!-- Node10 -->
<g id="node10" class="node"><title>Node10</title>
<g id="a_node10"><a xlink:href="namespacenetcdf4__support.html#a01e484c5f5d08b52dc1a21a37fe8f82b" target="_top" xlink:title="netcdf4_support::nf\l_get_variable_slice_short">
<polygon fill="white" stroke="black" points="166.968,-52 166.968,-82 307.712,-82 307.712,-52 166.968,-52"/>
<text text-anchor="start" x="174.968" y="-69.2" font-family="Helvetica,sans-Serif" font-size="11.00">netcdf4_support::nf</text>
<text text-anchor="middle" x="237.34" y="-58.2" font-family="Helvetica,sans-Serif" font-size="11.00">_get_variable_slice_short</text>
</a>
</g>
</g>
<!-- Node1&#45;&gt;Node10 -->
<g id="edge12" class="edge"><title>Node1&#45;&gt;Node10</title>
<path fill="none" stroke="midnightblue" d="M131.184,-81.8582C139.54,-80.6775 148.173,-79.4577 156.733,-78.2481"/>
<polygon fill="midnightblue" stroke="midnightblue" points="157.317,-81.7006 166.729,-76.8358 156.337,-74.7694 157.317,-81.7006"/>
</g>
<!-- Node3 -->
<g id="node3" class="node"><title>Node3</title>
<g id="a_node3"><a xlink:href="namespacenetcdf4__support.html#a26ac7fa9681548ec954f9cec8fbfa3b2" target="_top" xlink:title="netcdf4_support::nf\l_return_varindex">
<polygon fill="white" stroke="black" points="345.237,-99 345.237,-129 455.414,-129 455.414,-99 345.237,-99"/>
<text text-anchor="start" x="353.237" y="-116.2" font-family="Helvetica,sans-Serif" font-size="11.00">netcdf4_support::nf</text>
<text text-anchor="middle" x="400.326" y="-105.2" font-family="Helvetica,sans-Serif" font-size="11.00">_return_varindex</text>
</a>
</g>
</g>
<!-- Node2&#45;&gt;Node3 -->
<g id="edge2" class="edge"><title>Node2&#45;&gt;Node3</title>
<path fill="none" stroke="midnightblue" d="M285.77,-149.974C303.459,-144.37 323.727,-137.95 342.197,-132.098"/>
<polygon fill="midnightblue" stroke="midnightblue" points="343.48,-135.363 351.956,-129.006 341.366,-128.69 343.48,-135.363"/>
</g>
<!-- Node4 -->
<g id="node4" class="node"><title>Node4</title>
<g id="a_node4"><a xlink:href="namespacenetcdf4__support.html#ad8273174f9f1c33842425cb4a46a4339" target="_top" xlink:title="netcdf4_support::nf\l_get_variable_array\l_as_vector_float">
<polygon fill="white" stroke="black" points="343.712,-208.5 343.712,-249.5 456.939,-249.5 456.939,-208.5 343.712,-208.5"/>
<text text-anchor="start" x="351.712" y="-236.7" font-family="Helvetica,sans-Serif" font-size="11.00">netcdf4_support::nf</text>
<text text-anchor="start" x="351.712" y="-225.7" font-family="Helvetica,sans-Serif" font-size="11.00">_get_variable_array</text>
<text text-anchor="middle" x="400.326" y="-214.7" font-family="Helvetica,sans-Serif" font-size="11.00">_as_vector_float</text>
</a>
</g>
</g>
<!-- Node2&#45;&gt;Node4 -->
<g id="edge3" class="edge"><title>Node2&#45;&gt;Node4</title>
<path fill="none" stroke="midnightblue" d="M276.084,-180.005C294.54,-187.342 317.219,-196.358 338.069,-204.647"/>
<polygon fill="midnightblue" stroke="midnightblue" points="336.913,-207.954 347.498,-208.396 339.499,-201.449 336.913,-207.954"/>
</g>
<!-- Node2&#45;&gt;Node7 -->
<g id="edge6" class="edge"><title>Node2&#45;&gt;Node7</title>
<path fill="none" stroke="midnightblue" d="M291.273,-149.853C297.101,-147.063 302.722,-143.801 307.712,-140 329.782,-123.187 321.502,-105.629 343.712,-89 346.204,-87.1339 348.893,-85.4428 351.695,-83.9114"/>
<polygon fill="midnightblue" stroke="midnightblue" points="353.387,-86.983 360.932,-79.5453 350.396,-80.6543 353.387,-86.983"/>
</g>
<!-- Node5 -->
<g id="node5" class="node"><title>Node5</title>
<g id="a_node5"><a xlink:href="namespacenetcdf4__support.html#ac8c7276a5849ae6d17ffef1787e3f234" target="_top" xlink:title="netcdf4_support::nf_trap">
<polygon fill="white" stroke="black" points="492.939,-159.5 492.939,-178.5 628.188,-178.5 628.188,-159.5 492.939,-159.5"/>
<text text-anchor="middle" x="560.564" y="-165.7" font-family="Helvetica,sans-Serif" font-size="11.00">netcdf4_support::nf_trap</text>
</a>
</g>
</g>
<!-- Node4&#45;&gt;Node5 -->
<g id="edge4" class="edge"><title>Node4&#45;&gt;Node5</title>
<path fill="none" stroke="midnightblue" d="M455.782,-208.351C478.677,-199.67 504.633,-189.828 524.86,-182.159"/>
<polygon fill="midnightblue" stroke="midnightblue" points="526.182,-185.401 534.291,-178.583 523.7,-178.856 526.182,-185.401"/>
</g>
<!-- Node6 -->
<g id="node6" class="node"><title>Node6</title>
<g id="a_node6"><a xlink:href="namespaceconstants__and__conversions.html#ac13fba285229deab77131132e6f62caf" target="_top" xlink:title="constants_and_conversions\l::char_ptr_to_fortran_string">
<polygon fill="white" stroke="black" points="664.188,-154 664.188,-184 816.555,-184 816.555,-154 664.188,-154"/>
<text text-anchor="start" x="672.188" y="-171.2" font-family="Helvetica,sans-Serif" font-size="11.00">constants_and_conversions</text>
<text text-anchor="middle" x="740.372" y="-160.2" font-family="Helvetica,sans-Serif" font-size="11.00">::char_ptr_to_fortran_string</text>
</a>
</g>
</g>
<!-- Node5&#45;&gt;Node6 -->
<g id="edge5" class="edge"><title>Node5&#45;&gt;Node6</title>
<path fill="none" stroke="midnightblue" d="M628.279,-169C636.637,-169 645.274,-169 653.868,-169"/>
<polygon fill="midnightblue" stroke="midnightblue" points="653.919,-172.5 663.919,-169 653.919,-165.5 653.919,-172.5"/>
</g>
<!-- Node8&#45;&gt;Node3 -->
<g id="edge8" class="edge"><title>Node8&#45;&gt;Node3</title>
<path fill="none" stroke="midnightblue" d="M301.504,-115.215C312.564,-115.078 324.083,-114.935 335.17,-114.797"/>
<polygon fill="midnightblue" stroke="midnightblue" points="335.25,-118.296 345.205,-114.672 335.163,-111.297 335.25,-118.296"/>
</g>
<!-- Node8&#45;&gt;Node7 -->
<g id="edge11" class="edge"><title>Node8&#45;&gt;Node7</title>
<path fill="none" stroke="midnightblue" d="M291.053,-100.938C312.076,-94.9306 335.982,-88.0999 355.973,-82.3877"/>
<polygon fill="midnightblue" stroke="midnightblue" points="357.084,-85.7104 365.737,-79.5976 355.16,-78.9798 357.084,-85.7104"/>
</g>
<!-- Node9 -->
<g id="node9" class="node"><title>Node9</title>
<g id="a_node9"><a xlink:href="namespacenetcdf4__support.html#a766a0f03c04ffa213abf8311ba8f9f85" target="_top" xlink:title="netcdf4_support::nf\l_get_variable_array\l_as_vector_int">
<polygon fill="white" stroke="black" points="343.712,-148.5 343.712,-189.5 456.939,-189.5 456.939,-148.5 343.712,-148.5"/>
<text text-anchor="start" x="351.712" y="-176.7" font-family="Helvetica,sans-Serif" font-size="11.00">netcdf4_support::nf</text>
<text text-anchor="start" x="351.712" y="-165.7" font-family="Helvetica,sans-Serif" font-size="11.00">_get_variable_array</text>
<text text-anchor="middle" x="400.326" y="-154.7" font-family="Helvetica,sans-Serif" font-size="11.00">_as_vector_int</text>
</a>
</g>
</g>
<!-- Node8&#45;&gt;Node9 -->
<g id="edge9" class="edge"><title>Node8&#45;&gt;Node9</title>
<path fill="none" stroke="midnightblue" d="M284.041,-131.046C299.505,-136.137 317.09,-141.926 333.786,-147.423"/>
<polygon fill="midnightblue" stroke="midnightblue" points="332.897,-150.815 343.49,-150.618 335.086,-144.166 332.897,-150.815"/>
</g>
<!-- Node9&#45;&gt;Node5 -->
<g id="edge10" class="edge"><title>Node9&#45;&gt;Node5</title>
<path fill="none" stroke="midnightblue" d="M457.115,-169C465.429,-169 474.12,-169 482.775,-169"/>
<polygon fill="midnightblue" stroke="midnightblue" points="482.892,-172.5 492.892,-169 482.892,-165.5 482.892,-172.5"/>
</g>
<!-- Node10&#45;&gt;Node3 -->
<g id="edge13" class="edge"><title>Node10&#45;&gt;Node3</title>
<path fill="none" stroke="midnightblue" d="M289.72,-82.0003C305.113,-86.4943 322.147,-91.4676 338.108,-96.1273"/>
<polygon fill="midnightblue" stroke="midnightblue" points="337.302,-99.5381 347.882,-98.981 339.264,-92.8186 337.302,-99.5381"/>
</g>
<!-- Node10&#45;&gt;Node7 -->
<g id="edge16" class="edge"><title>Node10&#45;&gt;Node7</title>
<path fill="none" stroke="midnightblue" d="M308.014,-68.2984C318.962,-68.5024 330.181,-68.7115 340.842,-68.9102"/>
<polygon fill="midnightblue" stroke="midnightblue" points="340.803,-72.4099 350.866,-69.0969 340.933,-65.4111 340.803,-72.4099"/>
</g>
<!-- Node11 -->
<g id="node11" class="node"><title>Node11</title>
<g id="a_node11"><a xlink:href="namespacenetcdf4__support.html#a39ec664145f0d0a54d69abafd51a4226" target="_top" xlink:title="netcdf4_support::nf\l_get_variable_array\l_as_vector_short">
<polygon fill="white" stroke="black" points="343.712,-0.5 343.712,-41.5 456.939,-41.5 456.939,-0.5 343.712,-0.5"/>
<text text-anchor="start" x="351.712" y="-28.7" font-family="Helvetica,sans-Serif" font-size="11.00">netcdf4_support::nf</text>
<text text-anchor="start" x="351.712" y="-17.7" font-family="Helvetica,sans-Serif" font-size="11.00">_get_variable_array</text>
<text text-anchor="middle" x="400.326" y="-6.7" font-family="Helvetica,sans-Serif" font-size="11.00">_as_vector_short</text>
</a>
</g>
</g>
<!-- Node10&#45;&gt;Node11 -->
<g id="edge14" class="edge"><title>Node10&#45;&gt;Node11</title>
<path fill="none" stroke="midnightblue" d="M291.053,-51.9379C304.687,-48.0419 319.534,-43.7996 333.739,-39.7407"/>
<polygon fill="midnightblue" stroke="midnightblue" points="334.794,-43.0793 343.448,-36.9665 332.871,-36.3487 334.794,-43.0793"/>
</g>
<!-- Node11&#45;&gt;Node5 -->
<g id="edge15" class="edge"><title>Node11&#45;&gt;Node5</title>
<path fill="none" stroke="midnightblue" d="M443.374,-41.536C448.114,-44.4697 452.742,-47.6416 456.939,-51 494.534,-81.0818 529.291,-126.114 547.1,-150.946"/>
<polygon fill="midnightblue" stroke="midnightblue" points="544.441,-153.248 553.067,-159.401 550.161,-149.212 544.441,-153.248"/>
</g>
</g>
</svg>
        <g id="navigator" transform="translate(0 0)" fill="#404254">
                <rect fill="#f2f5e9" fill-opacity="0.5" stroke="#606060" stroke-width=".5" x="0" y="0" width="60" height="60"/>
                <use id="zoomplus" xlink:href="#zoomPlus" x="17" y="9" onmousedown="handleZoom(evt,'in')"/>
                <use id="zoomminus" xlink:href="#zoomMin" x="42" y="9" onmousedown="handleZoom(evt,'out')"/>
                <use id="reset" xlink:href="#resetDef" x="30" y="36" onmousedown="handleReset()"/>
                <g id="arrowUp" xlink:href="#dirArrow" transform="translate(30 24)" onmousedown="handlePan(0,-1)">
                  <use xlink:href="#rim" fill="#404040">
                        <set attributeName="fill" to="#808080" begin="arrowUp.mouseover" end="arrowUp.mouseout"/>
                  </use>
                  <path fill="none" stroke="white" stroke-width="1.5" d="M0,-3.0v7 M-2.5,-0.5L0,-3.0L2.5,-0.5"/>
                </g>
                <g id="arrowRight" xlink:href="#dirArrow" transform="rotate(90) translate(36 -43)" onmousedown="handlePan(1,0)">
                  <use xlink:href="#rim" fill="#404040">
                        <set attributeName="fill" to="#808080" begin="arrowRight.mouseover" end="arrowRight.mouseout"/>
                  </use>
                  <path fill="none" stroke="white" stroke-width="1.5" d="M0,-3.0v7 M-2.5,-0.5L0,-3.0L2.5,-0.5"/>
                </g>
                <g id="arrowDown" xlink:href="#dirArrow" transform="rotate(180) translate(-30 -48)" onmousedown="handlePan(0,1)">
                  <use xlink:href="#rim" fill="#404040">
                        <set attributeName="fill" to="#808080" begin="arrowDown.mouseover" end="arrowDown.mouseout"/>
                  </use>
                  <path fill="none" stroke="white" stroke-width="1.5" d="M0,-3.0v7 M-2.5,-0.5L0,-3.0L2.5,-0.5"/>
                </g>
                <g id="arrowLeft" xlink:href="#dirArrow" transform="rotate(270) translate(-36 17)" onmousedown="handlePan(-1,0)">
                  <use xlink:href="#rim" fill="#404040">
                        <set attributeName="fill" to="#808080" begin="arrowLeft.mouseover" end="arrowLeft.mouseout"/>
                  </use>
                  <path fill="none" stroke="white" stroke-width="1.5" d="M0,-3.0v7 M-2.5,-0.5L0,-3.0L2.5,-0.5"/>
                </g>
        </g>
        <svg viewBox="0 0 15 15" width="100%" height="30px" preserveAspectRatio="xMaxYMin meet">
         <g id="arrow_out" transform="scale(0.3 0.3)">
          <a xlink:href="namespacenetcdf4__support_a997d4ec63d37cb56378ab434c9b3075b_cgraph_org.svg" target="_base">
           <rect id="button" ry="5" rx="5" y="6" x="6" height="38" width="38"
                fill="#f2f5e9" fill-opacity="0.5" stroke="#606060" stroke-width="1.0"/>
           <path id="arrow"
             d="M 11.500037,31.436501 C 11.940474,20.09759 22.043105,11.32322 32.158766,21.979434 L 37.068811,17.246167 C 37.068811,17.246167 37.088388,32 37.088388,32 L 22.160133,31.978069 C 22.160133,31.978069 26.997745,27.140456 26.997745,27.140456 C 18.528582,18.264221 13.291696,25.230495 11.500037,31.436501 z"
             style="fill:#404040;"/>
          </a>
         </g>
        </svg>
</svg>
