<?xml version="1.0" encoding="UTF-8" standalone="no"?>
<!DOCTYPE svg PUBLIC "-//W3C//DTD SVG 1.1//EN"
 "http://www.w3.org/Graphics/SVG/1.1/DTD/svg11.dtd">
<!-- Generated by graphviz version 2.38.0 (20140413.2041)
 -->
<!-- Title: grid::grid_getgridcolrownum Pages: 1 -->
<svg width="475pt" height="104pt"
 viewBox="0.00 0.00 475.32 104.00" xmlns="http://www.w3.org/2000/svg" xmlns:xlink="http://www.w3.org/1999/xlink">
<g id="graph0" class="graph" transform="scale(1 1) rotate(0) translate(4 100)">
<title>grid::grid_getgridcolrownum</title>
<polygon fill="white" stroke="none" points="-4,4 -4,-100 471.322,-100 471.322,4 -4,4"/>
<!-- Node1 -->
<g id="node1" class="node"><title>Node1</title>
<polygon fill="#bfbfbf" stroke="black" points="0,-38.5 0,-57.5 151.733,-57.5 151.733,-38.5 0,-38.5"/>
<text text-anchor="middle" x="75.8665" y="-44.7" font-family="Helvetica,sans-Serif" font-size="11.00">grid::grid_getgridcolrownum</text>
</g>
<!-- Node2 -->
<g id="node2" class="node"><title>Node2</title>
<g id="a_node2"><a xlink:href="namespacegrid.html#afa350ce941557d82c522ed95e7758c44" target="_top" xlink:title="grid::grid_gridtogrid_int">
<polygon fill="white" stroke="black" points="190.488,-76.5 190.488,-95.5 318.997,-95.5 318.997,-76.5 190.488,-76.5"/>
<text text-anchor="middle" x="254.742" y="-82.7" font-family="Helvetica,sans-Serif" font-size="11.00">grid::grid_gridtogrid_int</text>
</a>
</g>
</g>
<!-- Node1&#45;&gt;Node2 -->
<g id="edge1" class="edge"><title>Node1&#45;&gt;Node2</title>
<path fill="none" stroke="midnightblue" d="M131.57,-59.7526C156.581,-65.1258 185.825,-71.4086 209.43,-76.4799"/>
<polygon fill="midnightblue" stroke="midnightblue" points="132.012,-56.2676 121.5,-57.589 130.541,-63.1115 132.012,-56.2676"/>
</g>
<!-- Node4 -->
<g id="node4" class="node"><title>Node4</title>
<g id="a_node4"><a xlink:href="namespacegrid.html#a5d46ebd32a7a83ebf0ba59757bbf754a" target="_top" xlink:title="grid::grid_gridtogrid_sgl">
<polygon fill="white" stroke="black" points="189.266,-38.5 189.266,-57.5 320.219,-57.5 320.219,-38.5 189.266,-38.5"/>
<text text-anchor="middle" x="254.742" y="-44.7" font-family="Helvetica,sans-Serif" font-size="11.00">grid::grid_gridtogrid_sgl</text>
</a>
</g>
</g>
<!-- Node1&#45;&gt;Node4 -->
<g id="edge3" class="edge"><title>Node1&#45;&gt;Node4</title>
<path fill="none" stroke="midnightblue" d="M162.134,-48C171.253,-48 180.417,-48 189.237,-48"/>
<polygon fill="midnightblue" stroke="midnightblue" points="161.878,-44.5001 151.878,-48 161.878,-51.5001 161.878,-44.5001"/>
</g>
<!-- Node5 -->
<g id="node5" class="node"><title>Node5</title>
<g id="a_node5"><a xlink:href="namespacegrid.html#a565a676f138a2e48293c5bfadf0d539e" target="_top" xlink:title="grid::grid_gridtopoint_int">
<polygon fill="white" stroke="black" points="187.733,-0.5 187.733,-19.5 321.752,-19.5 321.752,-0.5 187.733,-0.5"/>
<text text-anchor="middle" x="254.742" y="-6.7" font-family="Helvetica,sans-Serif" font-size="11.00">grid::grid_gridtopoint_int</text>
</a>
</g>
</g>
<!-- Node1&#45;&gt;Node5 -->
<g id="edge5" class="edge"><title>Node1&#45;&gt;Node5</title>
<path fill="none" stroke="midnightblue" d="M131.57,-36.2474C156.581,-30.8742 185.825,-24.5914 209.43,-19.5201"/>
<polygon fill="midnightblue" stroke="midnightblue" points="130.541,-32.8885 121.5,-38.411 132.012,-39.7324 130.541,-32.8885"/>
</g>
<!-- Node3 -->
<g id="node3" class="node"><title>Node3</title>
<g id="a_node3"><a xlink:href="namespacedata__catalog__entry.html#aacf51804adb730b5710c4060576a7948" target="_top" xlink:title="data_catalog_entry\l::transform_grid_to\l_grid_sub">
<polygon fill="white" stroke="black" points="357.752,-46.5 357.752,-87.5 467.322,-87.5 467.322,-46.5 357.752,-46.5"/>
<text text-anchor="start" x="365.752" y="-74.7" font-family="Helvetica,sans-Serif" font-size="11.00">data_catalog_entry</text>
<text text-anchor="start" x="365.752" y="-63.7" font-family="Helvetica,sans-Serif" font-size="11.00">::transform_grid_to</text>
<text text-anchor="middle" x="412.537" y="-52.7" font-family="Helvetica,sans-Serif" font-size="11.00">_grid_sub</text>
</a>
</g>
</g>
<!-- Node2&#45;&gt;Node3 -->
<g id="edge2" class="edge"><title>Node2&#45;&gt;Node3</title>
<path fill="none" stroke="midnightblue" d="M329.097,-77.054C338.737,-75.8783 348.47,-74.6913 357.703,-73.5653"/>
<polygon fill="midnightblue" stroke="midnightblue" points="328.613,-73.587 319.11,-78.272 329.46,-80.5356 328.613,-73.587"/>
</g>
<!-- Node4&#45;&gt;Node3 -->
<g id="edge4" class="edge"><title>Node4&#45;&gt;Node3</title>
<path fill="none" stroke="midnightblue" d="M330.392,-57.1039C339.59,-58.2256 348.848,-59.3547 357.652,-60.4284"/>
<polygon fill="midnightblue" stroke="midnightblue" points="330.81,-53.6291 320.46,-55.8926 329.963,-60.5776 330.81,-53.6291"/>
</g>
</g>
</svg>
