<?xml version="1.0" encoding="UTF-8" standalone="no"?>
<!DOCTYPE svg PUBLIC "-//W3C//DTD SVG 1.1//EN"
 "http://www.w3.org/Graphics/SVG/1.1/DTD/svg11.dtd">
<!-- Generated by graphviz version 2.38.0 (20140413.2041)
 -->
<!-- Title: data_catalog_entry::put_values_to_local_netcdf_sub Pages: 1 -->
<!--zoomable 629 -->
<svg id="main" version="1.1" xmlns="http://www.w3.org/2000/svg" xmlns:xlink="http://www.w3.org/1999/xlink" xml:space="preserve" onload="init(evt)">
<style type="text/css"><![CDATA[
.edge:hover path { stroke: red; }
.edge:hover polygon { stroke: red; fill: red; }
]]></style>
<script type="text/javascript"><![CDATA[
var edges = document.getElementsByTagName('g');
if (edges && edges.length) {
  for (var i=0;i<edges.length;i++) {
    if (edges[i].id.substr(0,4)=='edge') {
      edges[i].setAttribute('class','edge');
    }
  }
}
]]></script>
        <defs>
                <circle id="rim" cx="0" cy="0" r="7"/>
                <circle id="rim2" cx="0" cy="0" r="3.5"/>
                <g id="zoomPlus">
                        <use xlink:href="#rim" fill="#404040">
                                <set attributeName="fill" to="#808080" begin="zoomplus.mouseover" end="zoomplus.mouseout"/>
                        </use>
                        <path d="M-4,0h8M0,-4v8" fill="none" stroke="white" stroke-width="1.5" pointer-events="none"/>
                </g>
                <g id="zoomMin">
                        <use xlink:href="#rim" fill="#404040">
                                <set attributeName="fill" to="#808080" begin="zoomminus.mouseover" end="zoomminus.mouseout"/>
                        </use>
                        <path d="M-4,0h8" fill="none" stroke="white" stroke-width="1.5" pointer-events="none"/>
                </g>
                <g id="dirArrow">
                        <path fill="none" stroke="white" stroke-width="1.5" d="M0,-3.0v7 M-2.5,-0.5L0,-3.0L2.5,-0.5"/>
                </g>
               <g id="resetDef">
                       <use xlink:href="#rim2" fill="#404040">
                               <set attributeName="fill" to="#808080" begin="reset.mouseover" end="reset.mouseout"/>
                       </use>
               </g>
        </defs>

<script type="text/javascript">
var viewWidth = 1065;
var viewHeight = 629;
var sectionId = 'dynsection-18';
</script>
<script xlink:href="svgpan.js"/>
<svg id="graph" class="graph">
<g id="viewport">
<title>data_catalog_entry::put_values_to_local_netcdf_sub</title>
<polygon fill="white" stroke="none" points="-4,4 -4,-625.404 1060.97,-625.404 1060.97,4 -4,4"/>
<!-- Node1 -->
<g id="node1" class="node"><title>Node1</title>
<polygon fill="#bfbfbf" stroke="black" points="0,-39 0,-80 119.351,-80 119.351,-39 0,-39"/>
<text text-anchor="start" x="8" y="-67.2" font-family="Helvetica,sans-Serif" font-size="11.00">data_catalog_entry</text>
<text text-anchor="start" x="8" y="-56.2" font-family="Helvetica,sans-Serif" font-size="11.00">::put_values_to_local</text>
<text text-anchor="middle" x="59.6753" y="-45.2" font-family="Helvetica,sans-Serif" font-size="11.00">_netcdf_sub</text>
</g>
<!-- Node2 -->
<g id="node2" class="node"><title>Node2</title>
<g id="a_node2"><a xlink:href="namespacenetcdf4__support.html#a13cacde9c54b298cd00fd53fed078736" target="_top" xlink:title="netcdf4_support::netcdf\l_open_and_prepare_as_output\l_archive">
<polygon fill="white" stroke="black" points="155.351,-307 155.351,-348 324.878,-348 324.878,-307 155.351,-307"/>
<text text-anchor="start" x="163.351" y="-335.2" font-family="Helvetica,sans-Serif" font-size="11.00">netcdf4_support::netcdf</text>
<text text-anchor="start" x="163.351" y="-324.2" font-family="Helvetica,sans-Serif" font-size="11.00">_open_and_prepare_as_output</text>
<text text-anchor="middle" x="240.114" y="-313.2" font-family="Helvetica,sans-Serif" font-size="11.00">_archive</text>
</a>
</g>
</g>
<!-- Node1&#45;&gt;Node2 -->
<g id="edge1" class="edge"><title>Node1&#45;&gt;Node2</title>
<path fill="none" stroke="midnightblue" d="M74.3808,-80.0845C105.844,-127.34 183.329,-243.716 219.687,-298.322"/>
<polygon fill="midnightblue" stroke="midnightblue" points="216.907,-300.461 225.362,-306.845 222.733,-296.582 216.907,-300.461"/>
</g>
<!-- Node20 -->
<g id="node20" class="node"><title>Node20</title>
<g id="a_node20"><a xlink:href="namespacenetcdf4__support.html#ad886108ada01049368a1eaf046a33a32" target="_top" xlink:title="netcdf4_support::netcdf\l_put_variable_vector">
<polygon fill="white" stroke="black" points="555.685,-83.5 555.685,-113.5 686.653,-113.5 686.653,-83.5 555.685,-83.5"/>
<text text-anchor="start" x="563.685" y="-100.7" font-family="Helvetica,sans-Serif" font-size="11.00">netcdf4_support::netcdf</text>
<text text-anchor="middle" x="621.169" y="-89.7" font-family="Helvetica,sans-Serif" font-size="11.00">_put_variable_vector</text>
</a>
</g>
</g>
<!-- Node1&#45;&gt;Node20 -->
<g id="edge28" class="edge"><title>Node1&#45;&gt;Node20</title>
<path fill="none" stroke="midnightblue" d="M119.616,-59.4574C205.512,-59.9705 370,-63.126 508.985,-78.5 520.788,-79.8056 533.227,-81.6123 545.341,-83.6102"/>
<polygon fill="midnightblue" stroke="midnightblue" points="544.974,-87.0979 555.42,-85.3265 546.149,-80.1973 544.974,-87.0979"/>
</g>
<!-- Node21 -->
<g id="node21" class="node"><title>Node21</title>
<g id="a_node21"><a xlink:href="namespacenetcdf4__support.html#a78f84d0c950f4e9718ba2d8060192355" target="_top" xlink:title="netcdf4_support::netcdf\l_put_variable_array">
<polygon fill="white" stroke="black" points="174.63,-0.5 174.63,-30.5 305.598,-30.5 305.598,-0.5 174.63,-0.5"/>
<text text-anchor="start" x="182.63" y="-17.7" font-family="Helvetica,sans-Serif" font-size="11.00">netcdf4_support::netcdf</text>
<text text-anchor="middle" x="240.114" y="-6.7" font-family="Helvetica,sans-Serif" font-size="11.00">_put_variable_array</text>
</a>
</g>
</g>
<!-- Node1&#45;&gt;Node21 -->
<g id="edge26" class="edge"><title>Node1&#45;&gt;Node21</title>
<path fill="none" stroke="midnightblue" d="M119.597,-44.9708C135.15,-41.1359 152.096,-36.9573 168.209,-32.984"/>
<polygon fill="midnightblue" stroke="midnightblue" points="169.243,-36.334 178.114,-30.5416 167.567,-29.5376 169.243,-36.334"/>
</g>
<!-- Node3 -->
<g id="node3" class="node"><title>Node3</title>
<g id="a_node3"><a xlink:href="namespacenetcdf4__support.html#ad6629f4108c3dcd35a20b03a0ef68ba5" target="_top" xlink:title="netcdf4_support::nf\l_create">
<polygon fill="white" stroke="black" points="379.843,-586.5 379.843,-616.5 490.02,-616.5 490.02,-586.5 379.843,-586.5"/>
<text text-anchor="start" x="387.843" y="-603.7" font-family="Helvetica,sans-Serif" font-size="11.00">netcdf4_support::nf</text>
<text text-anchor="middle" x="434.932" y="-592.7" font-family="Helvetica,sans-Serif" font-size="11.00">_create</text>
</a>
</g>
</g>
<!-- Node2&#45;&gt;Node3 -->
<g id="edge2" class="edge"><title>Node2&#45;&gt;Node3</title>
<path fill="none" stroke="midnightblue" d="M245.259,-348.32C255.818,-395.952 288.2,-513.662 360.878,-577.5 363.895,-580.15 367.211,-582.508 370.715,-584.607"/>
<polygon fill="midnightblue" stroke="midnightblue" points="369.261,-587.796 379.747,-589.309 372.493,-581.587 369.261,-587.796"/>
</g>
<!-- Node7 -->
<g id="node7" class="node"><title>Node7</title>
<g id="a_node7"><a xlink:href="namespacenetcdf4__support.html#a00a0dc30e681bdc43764c0a3cad74075" target="_top" xlink:title="netcdf4_support::nf\l_set_standard_dimensions">
<polygon fill="white" stroke="black" points="361.195,-537.5 361.195,-567.5 508.668,-567.5 508.668,-537.5 361.195,-537.5"/>
<text text-anchor="start" x="369.195" y="-554.7" font-family="Helvetica,sans-Serif" font-size="11.00">netcdf4_support::nf</text>
<text text-anchor="middle" x="434.932" y="-543.7" font-family="Helvetica,sans-Serif" font-size="11.00">_set_standard_dimensions</text>
</a>
</g>
</g>
<!-- Node2&#45;&gt;Node7 -->
<g id="edge6" class="edge"><title>Node2&#45;&gt;Node7</title>
<path fill="none" stroke="midnightblue" d="M248.692,-348.09C264.06,-387.215 302.471,-472.82 360.878,-522.5 365.427,-526.37 370.544,-529.791 375.903,-532.805"/>
<polygon fill="midnightblue" stroke="midnightblue" points="374.595,-536.067 385.093,-537.499 377.779,-529.833 374.595,-536.067"/>
</g>
<!-- Node8 -->
<g id="node8" class="node"><title>Node8</title>
<g id="a_node8"><a xlink:href="namespacenetcdf4__support.html#abc5c3dbf8acae163fbfcf84e4cee8ab4" target="_top" xlink:title="netcdf4_support::nf\l_define_dimensions">
<polygon fill="white" stroke="black" points="564.246,-474.5 564.246,-504.5 678.091,-504.5 678.091,-474.5 564.246,-474.5"/>
<text text-anchor="start" x="572.246" y="-491.7" font-family="Helvetica,sans-Serif" font-size="11.00">netcdf4_support::nf</text>
<text text-anchor="middle" x="621.169" y="-480.7" font-family="Helvetica,sans-Serif" font-size="11.00">_define_dimensions</text>
</a>
</g>
</g>
<!-- Node2&#45;&gt;Node8 -->
<g id="edge7" class="edge"><title>Node2&#45;&gt;Node8</title>
<path fill="none" stroke="midnightblue" d="M249.109,-348.137C264.441,-384.433 301.792,-458.669 360.878,-488.5 421.028,-518.869 499.484,-514.066 554.275,-504.839"/>
<polygon fill="midnightblue" stroke="midnightblue" points="554.986,-508.267 564.22,-503.072 553.762,-501.375 554.986,-508.267"/>
</g>
<!-- Node9 -->
<g id="node9" class="node"><title>Node9</title>
<g id="a_node9"><a xlink:href="namespacenetcdf4__support.html#ab39abe545c42ab75fd342e7e90370a60" target="_top" xlink:title="netcdf4_support::nf\l_set_standard_variables">
<polygon fill="white" stroke="black" points="367.004,-449.5 367.004,-479.5 502.86,-479.5 502.86,-449.5 367.004,-449.5"/>
<text text-anchor="start" x="375.004" y="-466.7" font-family="Helvetica,sans-Serif" font-size="11.00">netcdf4_support::nf</text>
<text text-anchor="middle" x="434.932" y="-455.7" font-family="Helvetica,sans-Serif" font-size="11.00">_set_standard_variables</text>
</a>
</g>
</g>
<!-- Node2&#45;&gt;Node9 -->
<g id="edge9" class="edge"><title>Node2&#45;&gt;Node9</title>
<path fill="none" stroke="midnightblue" d="M260.165,-348.346C282.472,-371.784 321.413,-409.79 360.878,-434.5 367.11,-438.402 373.936,-441.985 380.835,-445.213"/>
<polygon fill="midnightblue" stroke="midnightblue" points="379.678,-448.529 390.237,-449.389 382.519,-442.131 379.678,-448.529"/>
</g>
<!-- Node10 -->
<g id="node10" class="node"><title>Node10</title>
<g id="a_node10"><a xlink:href="namespacenetcdf4__support.html#a3e28f7c215b2a46ef88ce147905b5380" target="_top" xlink:title="netcdf4_support::nf\l_define_variables">
<polygon fill="white" stroke="black" points="566.08,-405.5 566.08,-435.5 676.257,-435.5 676.257,-405.5 566.08,-405.5"/>
<text text-anchor="start" x="574.08" y="-422.7" font-family="Helvetica,sans-Serif" font-size="11.00">netcdf4_support::nf</text>
<text text-anchor="middle" x="621.169" y="-411.7" font-family="Helvetica,sans-Serif" font-size="11.00">_define_variables</text>
</a>
</g>
</g>
<!-- Node2&#45;&gt;Node10 -->
<g id="edge10" class="edge"><title>Node2&#45;&gt;Node10</title>
<path fill="none" stroke="midnightblue" d="M266.912,-348.226C290.037,-365.528 325.654,-389.132 360.878,-400.5 424.958,-421.182 502.376,-424.554 555.844,-423.766"/>
<polygon fill="midnightblue" stroke="midnightblue" points="555.945,-427.264 565.873,-423.565 555.805,-420.266 555.945,-427.264"/>
</g>
<!-- Node11 -->
<g id="node11" class="node"><title>Node11</title>
<g id="a_node11"><a xlink:href="namespacenetcdf4__support.html#aa2e8f7506c9fd50f984f1de77bfdc55d" target="_top" xlink:title="netcdf4_support::nf\l_get_variable_id_and_type">
<polygon fill="white" stroke="black" points="360.878,-361.5 360.878,-391.5 508.985,-391.5 508.985,-361.5 360.878,-361.5"/>
<text text-anchor="start" x="368.878" y="-378.7" font-family="Helvetica,sans-Serif" font-size="11.00">netcdf4_support::nf</text>
<text text-anchor="middle" x="434.932" y="-367.7" font-family="Helvetica,sans-Serif" font-size="11.00">_get_variable_id_and_type</text>
</a>
</g>
</g>
<!-- Node2&#45;&gt;Node11 -->
<g id="edge12" class="edge"><title>Node2&#45;&gt;Node11</title>
<path fill="none" stroke="midnightblue" d="M322.048,-348.067C336.312,-351.692 351.04,-355.435 364.939,-358.967"/>
<polygon fill="midnightblue" stroke="midnightblue" points="364.341,-362.426 374.895,-361.497 366.065,-355.642 364.341,-362.426"/>
</g>
<!-- Node13 -->
<g id="node13" class="node"><title>Node13</title>
<g id="a_node13"><a xlink:href="namespacenetcdf4__support.html#af32d2648803a8e58f7a989506eb4d5aa" target="_top" xlink:title="netcdf4_support::nf\l_set_standard_attributes">
<polygon fill="white" stroke="black" points="366.391,-312.5 366.391,-342.5 503.472,-342.5 503.472,-312.5 366.391,-312.5"/>
<text text-anchor="start" x="374.391" y="-329.7" font-family="Helvetica,sans-Serif" font-size="11.00">netcdf4_support::nf</text>
<text text-anchor="middle" x="434.932" y="-318.7" font-family="Helvetica,sans-Serif" font-size="11.00">_set_standard_attributes</text>
</a>
</g>
</g>
<!-- Node2&#45;&gt;Node13 -->
<g id="edge14" class="edge"><title>Node2&#45;&gt;Node13</title>
<path fill="none" stroke="midnightblue" d="M325.126,-327.5C335.401,-327.5 345.868,-327.5 356.048,-327.5"/>
<polygon fill="midnightblue" stroke="midnightblue" points="356.115,-331 366.115,-327.5 356.115,-324 356.115,-331"/>
</g>
<!-- Node14 -->
<g id="node14" class="node"><title>Node14</title>
<g id="a_node14"><a xlink:href="namespacenetcdf4__support.html#a0d54b6940a404b3e7a3213b05c9be012" target="_top" xlink:title="netcdf4_support::nf\l_set_global_attributes">
<polygon fill="white" stroke="black" points="373.116,-263.5 373.116,-293.5 496.747,-293.5 496.747,-263.5 373.116,-263.5"/>
<text text-anchor="start" x="381.116" y="-280.7" font-family="Helvetica,sans-Serif" font-size="11.00">netcdf4_support::nf</text>
<text text-anchor="middle" x="434.932" y="-269.7" font-family="Helvetica,sans-Serif" font-size="11.00">_set_global_attributes</text>
</a>
</g>
</g>
<!-- Node2&#45;&gt;Node14 -->
<g id="edge15" class="edge"><title>Node2&#45;&gt;Node14</title>
<path fill="none" stroke="midnightblue" d="M322.048,-306.933C336.312,-303.308 351.04,-299.565 364.939,-296.033"/>
<polygon fill="midnightblue" stroke="midnightblue" points="366.065,-299.358 374.895,-293.503 364.341,-292.574 366.065,-299.358"/>
</g>
<!-- Node15 -->
<g id="node15" class="node"><title>Node15</title>
<g id="a_node15"><a xlink:href="namespacenetcdf4__support.html#a552fe7031185ea4d81868f4d62c44021" target="_top" xlink:title="netcdf4_support::nf\l_put_attributes">
<polygon fill="white" stroke="black" points="379.843,-214.5 379.843,-244.5 490.02,-244.5 490.02,-214.5 379.843,-214.5"/>
<text text-anchor="start" x="387.843" y="-231.7" font-family="Helvetica,sans-Serif" font-size="11.00">netcdf4_support::nf</text>
<text text-anchor="middle" x="434.932" y="-220.7" font-family="Helvetica,sans-Serif" font-size="11.00">_put_attributes</text>
</a>
</g>
</g>
<!-- Node2&#45;&gt;Node15 -->
<g id="edge16" class="edge"><title>Node2&#45;&gt;Node15</title>
<path fill="none" stroke="midnightblue" d="M270.044,-306.92C293.648,-290.805 328.302,-268.655 360.878,-253.5 364.937,-251.612 369.185,-249.807 373.505,-248.095"/>
<polygon fill="midnightblue" stroke="midnightblue" points="374.907,-251.307 383.027,-244.501 372.436,-244.757 374.907,-251.307"/>
</g>
<!-- Node17 -->
<g id="node17" class="node"><title>Node17</title>
<g id="a_node17"><a xlink:href="namespacenetcdf4__support.html#a42ab68a9a8bd8347f64339759a7c4714" target="_top" xlink:title="netcdf4_support::nf\l_define_deflate">
<polygon fill="white" stroke="black" points="566.08,-181.5 566.08,-211.5 676.257,-211.5 676.257,-181.5 566.08,-181.5"/>
<text text-anchor="start" x="574.08" y="-198.7" font-family="Helvetica,sans-Serif" font-size="11.00">netcdf4_support::nf</text>
<text text-anchor="middle" x="621.169" y="-187.7" font-family="Helvetica,sans-Serif" font-size="11.00">_define_deflate</text>
</a>
</g>
</g>
<!-- Node2&#45;&gt;Node17 -->
<g id="edge19" class="edge"><title>Node2&#45;&gt;Node17</title>
<path fill="none" stroke="midnightblue" d="M253.849,-306.646C272.952,-277.569 312.051,-226 360.878,-204.5 422.834,-177.219 501.426,-179.216 555.758,-185.515"/>
<polygon fill="midnightblue" stroke="midnightblue" points="555.595,-189.022 565.95,-186.78 556.457,-182.075 555.595,-189.022"/>
</g>
<!-- Node18 -->
<g id="node18" class="node"><title>Node18</title>
<g id="a_node18"><a xlink:href="namespacenetcdf4__support.html#a805e940f20a61297b780e5db8d2f78b7" target="_top" xlink:title="netcdf4_support::nf\l_enddef">
<polygon fill="white" stroke="black" points="566.08,-132.5 566.08,-162.5 676.257,-162.5 676.257,-132.5 566.08,-132.5"/>
<text text-anchor="start" x="574.08" y="-149.7" font-family="Helvetica,sans-Serif" font-size="11.00">netcdf4_support::nf</text>
<text text-anchor="middle" x="621.169" y="-138.7" font-family="Helvetica,sans-Serif" font-size="11.00">_enddef</text>
</a>
</g>
</g>
<!-- Node2&#45;&gt;Node18 -->
<g id="edge21" class="edge"><title>Node2&#45;&gt;Node18</title>
<path fill="none" stroke="midnightblue" d="M250.972,-306.887C268.133,-273.529 306.894,-208.44 360.878,-178.5 420.97,-145.173 500.795,-140.442 555.924,-142.129"/>
<polygon fill="midnightblue" stroke="midnightblue" points="555.793,-145.626 565.92,-142.513 556.062,-138.632 555.793,-145.626"/>
</g>
<!-- Node19 -->
<g id="node19" class="node"><title>Node19</title>
<g id="a_node19"><a xlink:href="namespacenetcdf4__support.html#a38ce80fb362cea1b8e76451f51e74330" target="_top" xlink:title="netcdf4_support::nf\l_put_x_and_y">
<polygon fill="white" stroke="black" points="379.843,-88.5 379.843,-118.5 490.02,-118.5 490.02,-88.5 379.843,-88.5"/>
<text text-anchor="start" x="387.843" y="-105.7" font-family="Helvetica,sans-Serif" font-size="11.00">netcdf4_support::nf</text>
<text text-anchor="middle" x="434.932" y="-94.7" font-family="Helvetica,sans-Serif" font-size="11.00">_put_x_and_y</text>
</a>
</g>
</g>
<!-- Node2&#45;&gt;Node19 -->
<g id="edge23" class="edge"><title>Node2&#45;&gt;Node19</title>
<path fill="none" stroke="midnightblue" d="M248.842,-306.713C264.339,-267.652 302.783,-182.801 360.878,-133.5 365.432,-129.635 370.551,-126.217 375.912,-123.206"/>
<polygon fill="midnightblue" stroke="midnightblue" points="377.788,-126.178 385.104,-118.514 374.606,-119.943 377.788,-126.178"/>
</g>
<!-- Node4 -->
<g id="node4" class="node"><title>Node4</title>
<g id="a_node4"><a xlink:href="namespacenetcdf4__support.html#ac8c7276a5849ae6d17ffef1787e3f234" target="_top" xlink:title="netcdf4_support::nf_trap">
<polygon fill="white" stroke="black" points="733.352,-211 733.352,-230 868.601,-230 868.601,-211 733.352,-211"/>
<text text-anchor="middle" x="800.977" y="-217.2" font-family="Helvetica,sans-Serif" font-size="11.00">netcdf4_support::nf_trap</text>
</a>
</g>
</g>
<!-- Node3&#45;&gt;Node4 -->
<g id="edge3" class="edge"><title>Node3&#45;&gt;Node4</title>
<path fill="none" stroke="midnightblue" d="M490.269,-614.118C548.199,-624.157 639.402,-629.704 697.352,-582.5 752.286,-537.754 787.808,-308.918 797.373,-240.101"/>
<polygon fill="midnightblue" stroke="midnightblue" points="800.846,-240.535 798.728,-230.155 793.91,-239.591 800.846,-240.535"/>
</g>
<!-- Node6 -->
<g id="node6" class="node"><title>Node6</title>
<g id="a_node6"><a xlink:href="namespaceconstants__and__conversions.html#a7685661976b5b344a61522a38564dab2" target="_top" xlink:title="constants_and_conversions\l::fortran_to_c_string">
<polygon fill="white" stroke="black" points="544.985,-542.5 544.985,-572.5 697.352,-572.5 697.352,-542.5 544.985,-542.5"/>
<text text-anchor="start" x="552.985" y="-559.7" font-family="Helvetica,sans-Serif" font-size="11.00">constants_and_conversions</text>
<text text-anchor="middle" x="621.169" y="-548.7" font-family="Helvetica,sans-Serif" font-size="11.00">::fortran_to_c_string</text>
</a>
</g>
</g>
<!-- Node3&#45;&gt;Node6 -->
<g id="edge5" class="edge"><title>Node3&#45;&gt;Node6</title>
<path fill="none" stroke="midnightblue" d="M490.212,-588.537C508.109,-584.262 528.312,-579.437 547.361,-574.888"/>
<polygon fill="midnightblue" stroke="midnightblue" points="548.286,-578.266 557.2,-572.538 546.66,-571.457 548.286,-578.266"/>
</g>
<!-- Node5 -->
<g id="node5" class="node"><title>Node5</title>
<g id="a_node5"><a xlink:href="namespaceconstants__and__conversions.html#ac13fba285229deab77131132e6f62caf" target="_top" xlink:title="constants_and_conversions\l::char_ptr_to_fortran_string">
<polygon fill="white" stroke="black" points="904.601,-205.5 904.601,-235.5 1056.97,-235.5 1056.97,-205.5 904.601,-205.5"/>
<text text-anchor="start" x="912.601" y="-222.7" font-family="Helvetica,sans-Serif" font-size="11.00">constants_and_conversions</text>
<text text-anchor="middle" x="980.784" y="-211.7" font-family="Helvetica,sans-Serif" font-size="11.00">::char_ptr_to_fortran_string</text>
</a>
</g>
</g>
<!-- Node4&#45;&gt;Node5 -->
<g id="edge4" class="edge"><title>Node4&#45;&gt;Node5</title>
<path fill="none" stroke="midnightblue" d="M868.692,-220.5C877.049,-220.5 885.686,-220.5 894.281,-220.5"/>
<polygon fill="midnightblue" stroke="midnightblue" points="894.332,-224 904.332,-220.5 894.332,-217 894.332,-224"/>
</g>
<!-- Node8&#45;&gt;Node4 -->
<g id="edge8" class="edge"><title>Node8&#45;&gt;Node4</title>
<path fill="none" stroke="midnightblue" d="M656.743,-474.446C670.735,-467.024 686.187,-456.963 697.352,-444.5 753.947,-381.327 784.437,-281.634 795.309,-239.892"/>
<polygon fill="midnightblue" stroke="midnightblue" points="798.713,-240.709 797.759,-230.157 791.924,-239.001 798.713,-240.709"/>
</g>
<!-- Node10&#45;&gt;Node4 -->
<g id="edge11" class="edge"><title>Node10&#45;&gt;Node4</title>
<path fill="none" stroke="midnightblue" d="M676.397,-407.779C683.902,-404.55 691.152,-400.521 697.352,-395.5 749.938,-352.913 781.395,-275.682 793.819,-239.794"/>
<polygon fill="midnightblue" stroke="midnightblue" points="797.22,-240.661 797.066,-230.067 790.58,-238.444 797.22,-240.661"/>
</g>
<!-- Node12 -->
<g id="node12" class="node"><title>Node12</title>
<g id="a_node12"><a xlink:href="namespaceexceptions.html#a84dd04476b06e0a398bfe6d106a82a4d" target="_top" xlink:title="exceptions::warn">
<polygon fill="white" stroke="black" points="571.897,-367 571.897,-386 670.44,-386 670.44,-367 571.897,-367"/>
<text text-anchor="middle" x="621.169" y="-373.2" font-family="Helvetica,sans-Serif" font-size="11.00">exceptions::warn</text>
</a>
</g>
</g>
<!-- Node11&#45;&gt;Node12 -->
<g id="edge13" class="edge"><title>Node11&#45;&gt;Node12</title>
<path fill="none" stroke="midnightblue" d="M509.012,-376.5C526.483,-376.5 544.91,-376.5 561.627,-376.5"/>
<polygon fill="midnightblue" stroke="midnightblue" points="561.792,-380 571.792,-376.5 561.792,-373 561.792,-380"/>
</g>
<!-- Node16 -->
<g id="node16" class="node"><title>Node16</title>
<g id="a_node16"><a xlink:href="namespacenetcdf4__support.html#ab2daa2b8ddb99e883974862b6419d0bc" target="_top" xlink:title="netcdf4_support::nf\l_put_attribute">
<polygon fill="white" stroke="black" points="566.08,-230.5 566.08,-260.5 676.257,-260.5 676.257,-230.5 566.08,-230.5"/>
<text text-anchor="start" x="574.08" y="-247.7" font-family="Helvetica,sans-Serif" font-size="11.00">netcdf4_support::nf</text>
<text text-anchor="middle" x="621.169" y="-236.7" font-family="Helvetica,sans-Serif" font-size="11.00">_put_attribute</text>
</a>
</g>
</g>
<!-- Node15&#45;&gt;Node16 -->
<g id="edge17" class="edge"><title>Node15&#45;&gt;Node16</title>
<path fill="none" stroke="midnightblue" d="M490.212,-234.214C510.829,-236.004 534.507,-238.061 555.956,-239.923"/>
<polygon fill="midnightblue" stroke="midnightblue" points="555.693,-243.414 565.958,-240.792 556.298,-236.44 555.693,-243.414"/>
</g>
<!-- Node16&#45;&gt;Node4 -->
<g id="edge18" class="edge"><title>Node16&#45;&gt;Node4</title>
<path fill="none" stroke="midnightblue" d="M676.483,-237.863C691.144,-235.802 707.292,-233.532 722.941,-231.331"/>
<polygon fill="midnightblue" stroke="midnightblue" points="723.716,-234.757 733.131,-229.899 722.741,-227.825 723.716,-234.757"/>
</g>
<!-- Node17&#45;&gt;Node4 -->
<g id="edge20" class="edge"><title>Node17&#45;&gt;Node4</title>
<path fill="none" stroke="midnightblue" d="M676.483,-203.831C691.144,-205.81 707.292,-207.99 722.941,-210.102"/>
<polygon fill="midnightblue" stroke="midnightblue" points="722.753,-213.608 733.131,-211.477 723.689,-206.671 722.753,-213.608"/>
</g>
<!-- Node18&#45;&gt;Node4 -->
<g id="edge22" class="edge"><title>Node18&#45;&gt;Node4</title>
<path fill="none" stroke="midnightblue" d="M672.652,-162.568C680.972,-165.35 689.454,-168.371 697.352,-171.5 723.498,-181.859 752.32,-195.86 772.745,-206.244"/>
<polygon fill="midnightblue" stroke="midnightblue" points="771.279,-209.425 781.774,-210.876 774.474,-203.197 771.279,-209.425"/>
</g>
<!-- Node19&#45;&gt;Node20 -->
<g id="edge24" class="edge"><title>Node19&#45;&gt;Node20</title>
<path fill="none" stroke="midnightblue" d="M490.212,-102.027C507.497,-101.558 526.933,-101.03 545.403,-100.529"/>
<polygon fill="midnightblue" stroke="midnightblue" points="545.644,-104.024 555.545,-100.254 545.454,-97.0265 545.644,-104.024"/>
</g>
<!-- Node20&#45;&gt;Node4 -->
<g id="edge25" class="edge"><title>Node20&#45;&gt;Node4</title>
<path fill="none" stroke="midnightblue" d="M679.213,-113.637C685.519,-116.201 691.697,-119.143 697.352,-122.5 734.008,-144.258 767.996,-181.374 786.176,-203.147"/>
<polygon fill="midnightblue" stroke="midnightblue" points="783.508,-205.413 792.55,-210.935 788.925,-200.98 783.508,-205.413"/>
</g>
<!-- Node21&#45;&gt;Node4 -->
<g id="edge27" class="edge"><title>Node21&#45;&gt;Node4</title>
<path fill="none" stroke="midnightblue" d="M305.743,-8.10512C399.261,-0.66356 574.54,0.768066 697.352,-73.5 747.363,-103.743 779.222,-168.707 792.651,-201.186"/>
<polygon fill="midnightblue" stroke="midnightblue" points="789.55,-202.86 796.498,-210.859 796.054,-200.273 789.55,-202.86"/>
</g>
</g>
</svg>
        <g id="navigator" transform="translate(0 0)" fill="#404254">
                <rect fill="#f2f5e9" fill-opacity="0.5" stroke="#606060" stroke-width=".5" x="0" y="0" width="60" height="60"/>
                <use id="zoomplus" xlink:href="#zoomPlus" x="17" y="9" onmousedown="handleZoom(evt,'in')"/>
                <use id="zoomminus" xlink:href="#zoomMin" x="42" y="9" onmousedown="handleZoom(evt,'out')"/>
                <use id="reset" xlink:href="#resetDef" x="30" y="36" onmousedown="handleReset()"/>
                <g id="arrowUp" xlink:href="#dirArrow" transform="translate(30 24)" onmousedown="handlePan(0,-1)">
                  <use xlink:href="#rim" fill="#404040">
                        <set attributeName="fill" to="#808080" begin="arrowUp.mouseover" end="arrowUp.mouseout"/>
                  </use>
                  <path fill="none" stroke="white" stroke-width="1.5" d="M0,-3.0v7 M-2.5,-0.5L0,-3.0L2.5,-0.5"/>
                </g>
                <g id="arrowRight" xlink:href="#dirArrow" transform="rotate(90) translate(36 -43)" onmousedown="handlePan(1,0)">
                  <use xlink:href="#rim" fill="#404040">
                        <set attributeName="fill" to="#808080" begin="arrowRight.mouseover" end="arrowRight.mouseout"/>
                  </use>
                  <path fill="none" stroke="white" stroke-width="1.5" d="M0,-3.0v7 M-2.5,-0.5L0,-3.0L2.5,-0.5"/>
                </g>
                <g id="arrowDown" xlink:href="#dirArrow" transform="rotate(180) translate(-30 -48)" onmousedown="handlePan(0,1)">
                  <use xlink:href="#rim" fill="#404040">
                        <set attributeName="fill" to="#808080" begin="arrowDown.mouseover" end="arrowDown.mouseout"/>
                  </use>
                  <path fill="none" stroke="white" stroke-width="1.5" d="M0,-3.0v7 M-2.5,-0.5L0,-3.0L2.5,-0.5"/>
                </g>
                <g id="arrowLeft" xlink:href="#dirArrow" transform="rotate(270) translate(-36 17)" onmousedown="handlePan(-1,0)">
                  <use xlink:href="#rim" fill="#404040">
                        <set attributeName="fill" to="#808080" begin="arrowLeft.mouseover" end="arrowLeft.mouseout"/>
                  </use>
                  <path fill="none" stroke="white" stroke-width="1.5" d="M0,-3.0v7 M-2.5,-0.5L0,-3.0L2.5,-0.5"/>
                </g>
        </g>
        <svg viewBox="0 0 15 15" width="100%" height="30px" preserveAspectRatio="xMaxYMin meet">
         <g id="arrow_out" transform="scale(0.3 0.3)">
          <a xlink:href="namespacedata__catalog__entry_a3ea40e0b58c61d01a18065ea3c1b4fcd_cgraph_org.svg" target="_base">
           <rect id="button" ry="5" rx="5" y="6" x="6" height="38" width="38"
                fill="#f2f5e9" fill-opacity="0.5" stroke="#606060" stroke-width="1.0"/>
           <path id="arrow"
             d="M 11.500037,31.436501 C 11.940474,20.09759 22.043105,11.32322 32.158766,21.979434 L 37.068811,17.246167 C 37.068811,17.246167 37.088388,32 37.088388,32 L 22.160133,31.978069 C 22.160133,31.978069 26.997745,27.140456 26.997745,27.140456 C 18.528582,18.264221 13.291696,25.230495 11.500037,31.436501 z"
             style="fill:#404040;"/>
          </a>
         </g>
        </svg>
</svg>
