<?xml version="1.0" encoding="UTF-8" standalone="no"?>
<!DOCTYPE svg PUBLIC "-//W3C//DTD SVG 1.1//EN"
 "http://www.w3.org/Graphics/SVG/1.1/DTD/svg11.dtd">
<!-- Generated by graphviz version 2.38.0 (20140413.2041)
 -->
<!-- Title: grid::grid_readsurfergrid_sub Pages: 1 -->
<svg width="643pt" height="39pt"
 viewBox="0.00 0.00 642.91 39.00" xmlns="http://www.w3.org/2000/svg" xmlns:xlink="http://www.w3.org/1999/xlink">
<g id="graph0" class="graph" transform="scale(1 1) rotate(0) translate(4 35)">
<title>grid::grid_readsurfergrid_sub</title>
<polygon fill="white" stroke="none" points="-4,4 -4,-35 638.908,-35 638.908,4 -4,4"/>
<!-- Node1 -->
<g id="node1" class="node"><title>Node1</title>
<polygon fill="#bfbfbf" stroke="black" points="0,-6 0,-25 157.244,-25 157.244,-6 0,-6"/>
<text text-anchor="middle" x="78.6218" y="-12.2" font-family="Helvetica,sans-Serif" font-size="11.00">grid::grid_readsurfergrid_sub</text>
</g>
<!-- Node2 -->
<g id="node2" class="node"><title>Node2</title>
<g id="a_node2"><a xlink:href="namespacegrid.html#a82580ae20a6d538ff34ef5d2263bf679" target="_top" xlink:title="grid::grid_readexisting">
<polygon fill="white" stroke="black" points="193.244,-6 193.244,-25 317.471,-25 317.471,-6 193.244,-6"/>
<text text-anchor="middle" x="255.357" y="-12.2" font-family="Helvetica,sans-Serif" font-size="11.00">grid::grid_readexisting</text>
</a>
</g>
</g>
<!-- Node1&#45;&gt;Node2 -->
<g id="edge1" class="edge"><title>Node1&#45;&gt;Node2</title>
<path fill="none" stroke="midnightblue" d="M167.471,-15.5C176.166,-15.5 184.855,-15.5 193.194,-15.5"/>
<polygon fill="midnightblue" stroke="midnightblue" points="167.281,-12.0001 157.281,-15.5 167.281,-19.0001 167.281,-12.0001"/>
</g>
<!-- Node3 -->
<g id="node3" class="node"><title>Node3</title>
<g id="a_node3"><a xlink:href="namespacedata__catalog__entry.html#a25575c8a43161050427bd7a7d471e83d" target="_top" xlink:title="data_catalog_entry\l::getvalues_gridded_sub">
<polygon fill="white" stroke="black" points="353.471,-0.5 353.471,-30.5 489.338,-30.5 489.338,-0.5 353.471,-0.5"/>
<text text-anchor="start" x="361.471" y="-17.7" font-family="Helvetica,sans-Serif" font-size="11.00">data_catalog_entry</text>
<text text-anchor="middle" x="421.405" y="-6.7" font-family="Helvetica,sans-Serif" font-size="11.00">::getvalues_gridded_sub</text>
</a>
</g>
</g>
<!-- Node2&#45;&gt;Node3 -->
<g id="edge2" class="edge"><title>Node2&#45;&gt;Node3</title>
<path fill="none" stroke="midnightblue" d="M328.043,-15.5C336.43,-15.5 344.964,-15.5 353.286,-15.5"/>
<polygon fill="midnightblue" stroke="midnightblue" points="327.909,-12.0001 317.909,-15.5 327.909,-19.0001 327.909,-12.0001"/>
</g>
<!-- Node4 -->
<g id="node4" class="node"><title>Node4</title>
<g id="a_node4"><a xlink:href="namespacedata__catalog__entry.html#a9e0a89ab19a5bfd61f2dfb8265648234" target="_top" xlink:title="data_catalog_entry\l::getvalues_sub">
<polygon fill="white" stroke="black" points="525.338,-0.5 525.338,-30.5 634.908,-30.5 634.908,-0.5 525.338,-0.5"/>
<text text-anchor="start" x="533.338" y="-17.7" font-family="Helvetica,sans-Serif" font-size="11.00">data_catalog_entry</text>
<text text-anchor="middle" x="580.123" y="-6.7" font-family="Helvetica,sans-Serif" font-size="11.00">::getvalues_sub</text>
</a>
</g>
</g>
<!-- Node3&#45;&gt;Node4 -->
<g id="edge3" class="edge"><title>Node3&#45;&gt;Node4</title>
<path fill="none" stroke="midnightblue" d="M500.051,-15.5C508.5,-15.5 516.96,-15.5 525.038,-15.5"/>
<polygon fill="midnightblue" stroke="midnightblue" points="499.777,-12.0001 489.777,-15.5 499.777,-19.0001 499.777,-12.0001"/>
</g>
</g>
</svg>
