<?xml version="1.0" encoding="UTF-8" standalone="no"?>
<!DOCTYPE svg PUBLIC "-//W3C//DTD SVG 1.1//EN"
 "http://www.w3.org/Graphics/SVG/1.1/DTD/svg11.dtd">
<!-- Generated by graphviz version 2.38.0 (20140413.2041)
 -->
<!-- Title: growing_degree_day::growing_degree_day_initialize Pages: 1 -->
<svg width="437pt" height="50pt"
 viewBox="0.00 0.00 437.41 50.00" xmlns="http://www.w3.org/2000/svg" xmlns:xlink="http://www.w3.org/1999/xlink">
<g id="graph0" class="graph" transform="scale(1 1) rotate(0) translate(4 46)">
<title>growing_degree_day::growing_degree_day_initialize</title>
<polygon fill="white" stroke="none" points="-4,4 -4,-46 433.413,-46 433.413,4 -4,4"/>
<!-- Node1 -->
<g id="node1" class="node"><title>Node1</title>
<polygon fill="#bfbfbf" stroke="black" points="0,-0.5 0,-41.5 124.856,-41.5 124.856,-0.5 0,-0.5"/>
<text text-anchor="start" x="8" y="-28.7" font-family="Helvetica,sans-Serif" font-size="11.00">growing_degree_day</text>
<text text-anchor="start" x="8" y="-17.7" font-family="Helvetica,sans-Serif" font-size="11.00">::growing_degree_day</text>
<text text-anchor="middle" x="62.428" y="-6.7" font-family="Helvetica,sans-Serif" font-size="11.00">_initialize</text>
</g>
<!-- Node2 -->
<g id="node2" class="node"><title>Node2</title>
<g id="a_node2"><a xlink:href="namespacedatetime.html#a45ad8eb2d0529ecfc6bcb3671ebc8415" target="_top" xlink:title="datetime::mmdd2doy">
<polygon fill="white" stroke="black" points="160.856,-11.5 160.856,-30.5 279.573,-30.5 279.573,-11.5 160.856,-11.5"/>
<text text-anchor="middle" x="220.214" y="-17.7" font-family="Helvetica,sans-Serif" font-size="11.00">datetime::mmdd2doy</text>
</a>
</g>
</g>
<!-- Node1&#45;&gt;Node2 -->
<g id="edge1" class="edge"><title>Node1&#45;&gt;Node2</title>
<path fill="none" stroke="midnightblue" d="M124.999,-21C133.343,-21 141.949,-21 150.409,-21"/>
<polygon fill="midnightblue" stroke="midnightblue" points="150.63,-24.5001 160.63,-21 150.63,-17.5001 150.63,-24.5001"/>
</g>
<!-- Node3 -->
<g id="node3" class="node"><title>Node3</title>
<g id="a_node3"><a xlink:href="namespacedatetime.html#a9ac1a0a808a83a072ebc08cf0b3b4d8a" target="_top" xlink:title="datetime::julian_day">
<polygon fill="white" stroke="black" points="315.573,-11.5 315.573,-30.5 429.413,-30.5 429.413,-11.5 315.573,-11.5"/>
<text text-anchor="middle" x="372.493" y="-17.7" font-family="Helvetica,sans-Serif" font-size="11.00">datetime::julian_day</text>
</a>
</g>
</g>
<!-- Node2&#45;&gt;Node3 -->
<g id="edge2" class="edge"><title>Node2&#45;&gt;Node3</title>
<path fill="none" stroke="midnightblue" d="M279.746,-21C288.066,-21 296.672,-21 305.127,-21"/>
<polygon fill="midnightblue" stroke="midnightblue" points="305.338,-24.5001 315.338,-21 305.338,-17.5001 305.338,-24.5001"/>
</g>
</g>
</svg>
