<?xml version="1.0" encoding="UTF-8" standalone="no"?>
<!DOCTYPE svg PUBLIC "-//W3C//DTD SVG 1.1//EN"
 "http://www.w3.org/Graphics/SVG/1.1/DTD/svg11.dtd">
<!-- Generated by graphviz version 2.38.0 (20140413.2041)
 -->
<!-- Title: model_domain::model_dump_variables Pages: 1 -->
<svg width="496pt" height="39pt"
 viewBox="0.00 0.00 496.11 39.00" xmlns="http://www.w3.org/2000/svg" xmlns:xlink="http://www.w3.org/1999/xlink">
<g id="graph0" class="graph" transform="scale(1 1) rotate(0) translate(4 35)">
<title>model_domain::model_dump_variables</title>
<polygon fill="white" stroke="none" points="-4,4 -4,-35 492.108,-35 492.108,4 -4,4"/>
<!-- Node1 -->
<g id="node1" class="node"><title>Node1</title>
<polygon fill="#bfbfbf" stroke="black" points="0,-0.5 0,-30.5 124.228,-30.5 124.228,-0.5 0,-0.5"/>
<text text-anchor="start" x="8" y="-17.7" font-family="Helvetica,sans-Serif" font-size="11.00">model_domain::model</text>
<text text-anchor="middle" x="62.1138" y="-6.7" font-family="Helvetica,sans-Serif" font-size="11.00">_dump_variables</text>
</g>
<!-- Node2 -->
<g id="node2" class="node"><title>Node2</title>
<g id="a_node2"><a xlink:href="namespacemodel__domain.html#ad27837c8a61c5348c44db7cf3d1ec43a" target="_top" xlink:title="model_domain::model\l_dump_variables_by_cell">
<polygon fill="white" stroke="black" points="160.228,-0.5 160.228,-30.5 300.359,-30.5 300.359,-0.5 160.228,-0.5"/>
<text text-anchor="start" x="168.228" y="-17.7" font-family="Helvetica,sans-Serif" font-size="11.00">model_domain::model</text>
<text text-anchor="middle" x="230.293" y="-6.7" font-family="Helvetica,sans-Serif" font-size="11.00">_dump_variables_by_cell</text>
</a>
</g>
</g>
<!-- Node1&#45;&gt;Node2 -->
<g id="edge1" class="edge"><title>Node1&#45;&gt;Node2</title>
<path fill="none" stroke="midnightblue" d="M134.67,-15.5C143.075,-15.5 151.641,-15.5 160.015,-15.5"/>
<polygon fill="midnightblue" stroke="midnightblue" points="134.521,-12.0001 124.521,-15.5 134.521,-19.0001 134.521,-12.0001"/>
</g>
<!-- Node3 -->
<g id="node3" class="node"><title>Node3</title>
<g id="a_node3"><a xlink:href="namespacemodel__domain.html#aac78dbf26ba37cf86ebed4edd7acf89b" target="_top" xlink:title="model_domain::set_method\l_pointers_sub">
<polygon fill="white" stroke="black" points="336.359,-0.5 336.359,-30.5 488.108,-30.5 488.108,-0.5 336.359,-0.5"/>
<text text-anchor="start" x="344.359" y="-17.7" font-family="Helvetica,sans-Serif" font-size="11.00">model_domain::set_method</text>
<text text-anchor="middle" x="412.233" y="-6.7" font-family="Helvetica,sans-Serif" font-size="11.00">_pointers_sub</text>
</a>
</g>
</g>
<!-- Node2&#45;&gt;Node3 -->
<g id="edge2" class="edge"><title>Node2&#45;&gt;Node3</title>
<path fill="none" stroke="midnightblue" d="M310.839,-15.5C319.296,-15.5 327.878,-15.5 336.279,-15.5"/>
<polygon fill="midnightblue" stroke="midnightblue" points="310.605,-12.0001 300.605,-15.5 310.605,-19.0001 310.605,-12.0001"/>
</g>
</g>
</svg>
