<?xml version="1.0" encoding="UTF-8" standalone="no"?>
<!DOCTYPE svg PUBLIC "-//W3C//DTD SVG 1.1//EN"
 "http://www.w3.org/Graphics/SVG/1.1/DTD/svg11.dtd">
<!-- Generated by graphviz version 2.38.0 (20140413.2041)
 -->
<!-- Title: et__jensen_haise::et_jh_calculate Pages: 1 -->
<svg width="310pt" height="170pt"
 viewBox="0.00 0.00 310.24 170.00" xmlns="http://www.w3.org/2000/svg" xmlns:xlink="http://www.w3.org/1999/xlink">
<g id="graph0" class="graph" transform="scale(1 1) rotate(0) translate(4 166)">
<title>et__jensen_haise::et_jh_calculate</title>
<polygon fill="white" stroke="none" points="-4,4 -4,-166 306.239,-166 306.239,4 -4,4"/>
<!-- Node1 -->
<g id="node1" class="node"><title>Node1</title>
<polygon fill="#bfbfbf" stroke="black" points="0,-66 0,-96 117.524,-96 117.524,-66 0,-66"/>
<text text-anchor="start" x="8" y="-83.2" font-family="Helvetica,sans-Serif" font-size="11.00">et__jensen_haise::et</text>
<text text-anchor="middle" x="58.7622" y="-72.2" font-family="Helvetica,sans-Serif" font-size="11.00">_jh_calculate</text>
</g>
<!-- Node2 -->
<g id="node2" class="node"><title>Node2</title>
<g id="a_node2"><a xlink:href="namespacesolar__calculations.html#a7f8fe8507c901504b1f5e77fc91701f1" target="_top" xlink:title="Estimate percent of possible sunshine. ">
<polygon fill="white" stroke="black" points="153.524,-120.5 153.524,-161.5 302.239,-161.5 302.239,-120.5 153.524,-120.5"/>
<text text-anchor="start" x="161.524" y="-148.7" font-family="Helvetica,sans-Serif" font-size="11.00">solar_calculations</text>
<text text-anchor="start" x="161.524" y="-137.7" font-family="Helvetica,sans-Serif" font-size="11.00">::estimate_percent_of</text>
<text text-anchor="middle" x="227.882" y="-126.7" font-family="Helvetica,sans-Serif" font-size="11.00">_possible_sunshine__psun</text>
</a>
</g>
</g>
<!-- Node1&#45;&gt;Node2 -->
<g id="edge1" class="edge"><title>Node1&#45;&gt;Node2</title>
<path fill="none" stroke="midnightblue" d="M101.933,-96.1405C119.55,-102.465 140.45,-109.969 160.067,-117.012"/>
<polygon fill="midnightblue" stroke="midnightblue" points="158.979,-120.34 169.573,-120.425 161.344,-113.752 158.979,-120.34"/>
</g>
<!-- Node3 -->
<g id="node3" class="node"><title>Node3</title>
<g id="a_node3"><a xlink:href="namespacesolar__calculations.html#a474867a73dd025f53cde7f7e2b871b47" target="_top" xlink:title="Calculate the inverse relative Earth&#45;Sun distance for a given day of the year. ">
<polygon fill="white" stroke="black" points="171.574,-60.5 171.574,-101.5 284.189,-101.5 284.189,-60.5 171.574,-60.5"/>
<text text-anchor="start" x="179.574" y="-88.7" font-family="Helvetica,sans-Serif" font-size="11.00">solar_calculations</text>
<text text-anchor="start" x="179.574" y="-77.7" font-family="Helvetica,sans-Serif" font-size="11.00">::relative_earth_sun</text>
<text text-anchor="middle" x="227.882" y="-66.7" font-family="Helvetica,sans-Serif" font-size="11.00">_distance__d_r</text>
</a>
</g>
</g>
<!-- Node1&#45;&gt;Node3 -->
<g id="edge2" class="edge"><title>Node1&#45;&gt;Node3</title>
<path fill="none" stroke="midnightblue" d="M117.743,-81C131.778,-81 146.877,-81 161.236,-81"/>
<polygon fill="midnightblue" stroke="midnightblue" points="161.535,-84.5001 171.535,-81 161.535,-77.5001 161.535,-84.5001"/>
</g>
<!-- Node4 -->
<g id="node4" class="node"><title>Node4</title>
<g id="a_node4"><a xlink:href="namespacesolar__calculations.html#a24590af8aedbf0702f0cb6d188edb1f2" target="_top" xlink:title="Calculate the solar declination for a given day of the year. ">
<polygon fill="white" stroke="black" points="175.549,-0.5 175.549,-41.5 280.215,-41.5 280.215,-0.5 175.549,-0.5"/>
<text text-anchor="start" x="183.549" y="-28.7" font-family="Helvetica,sans-Serif" font-size="11.00">solar_calculations</text>
<text text-anchor="start" x="183.549" y="-17.7" font-family="Helvetica,sans-Serif" font-size="11.00">::solar_declination</text>
<text text-anchor="middle" x="227.882" y="-6.7" font-family="Helvetica,sans-Serif" font-size="11.00">_simple__delta</text>
</a>
</g>
</g>
<!-- Node1&#45;&gt;Node4 -->
<g id="edge3" class="edge"><title>Node1&#45;&gt;Node4</title>
<path fill="none" stroke="midnightblue" d="M101.933,-65.8595C121.303,-58.9052 144.643,-50.5257 165.881,-42.9007"/>
<polygon fill="midnightblue" stroke="midnightblue" points="167.24,-46.1316 175.469,-39.4583 164.875,-39.5433 167.24,-46.1316"/>
</g>
</g>
</svg>
