<?xml version="1.0" encoding="UTF-8" standalone="no"?>
<!DOCTYPE svg PUBLIC "-//W3C//DTD SVG 1.1//EN"
 "http://www.w3.org/Graphics/SVG/1.1/DTD/svg11.dtd">
<!-- Generated by graphviz version 2.38.0 (20140413.2041)
 -->
<!-- Title: dictionary::get_values_as_logical_given_list_of_keys_sub Pages: 1 -->
<svg width="266pt" height="50pt"
 viewBox="0.00 0.00 265.56 50.00" xmlns="http://www.w3.org/2000/svg" xmlns:xlink="http://www.w3.org/1999/xlink">
<g id="graph0" class="graph" transform="scale(1 1) rotate(0) translate(4 46)">
<title>dictionary::get_values_as_logical_given_list_of_keys_sub</title>
<polygon fill="white" stroke="none" points="-4,4 -4,-46 261.557,-46 261.557,4 -4,4"/>
<!-- Node1 -->
<g id="node1" class="node"><title>Node1</title>
<polygon fill="#bfbfbf" stroke="black" points="0,-0.5 0,-41.5 123.014,-41.5 123.014,-0.5 0,-0.5"/>
<text text-anchor="start" x="8" y="-28.7" font-family="Helvetica,sans-Serif" font-size="11.00">dictionary::get_values</text>
<text text-anchor="start" x="8" y="-17.7" font-family="Helvetica,sans-Serif" font-size="11.00">_as_logical_given_list</text>
<text text-anchor="middle" x="61.5068" y="-6.7" font-family="Helvetica,sans-Serif" font-size="11.00">_of_keys_sub</text>
</g>
<!-- Node2 -->
<g id="node2" class="node"><title>Node2</title>
<g id="a_node2"><a xlink:href="namespaceexceptions.html#a84dd04476b06e0a398bfe6d106a82a4d" target="_top" xlink:title="exceptions::warn">
<polygon fill="white" stroke="black" points="159.014,-11.5 159.014,-30.5 257.557,-30.5 257.557,-11.5 159.014,-11.5"/>
<text text-anchor="middle" x="208.285" y="-17.7" font-family="Helvetica,sans-Serif" font-size="11.00">exceptions::warn</text>
</a>
</g>
</g>
<!-- Node1&#45;&gt;Node2 -->
<g id="edge1" class="edge"><title>Node1&#45;&gt;Node2</title>
<path fill="none" stroke="midnightblue" d="M123.067,-21C131.551,-21 140.257,-21 148.703,-21"/>
<polygon fill="midnightblue" stroke="midnightblue" points="148.843,-24.5001 158.843,-21 148.843,-17.5001 148.843,-24.5001"/>
</g>
</g>
</svg>
