<?xml version="1.0" encoding="UTF-8" standalone="no"?>
<!DOCTYPE svg PUBLIC "-//W3C//DTD SVG 1.1//EN"
 "http://www.w3.org/Graphics/SVG/1.1/DTD/svg11.dtd">
<!-- Generated by graphviz version 2.38.0 (20140413.2041)
 -->
<!-- Title: netcdf4_support::nf_get_variable_slice_int Pages: 1 -->
<!--zoomable 138 -->
<svg id="main" version="1.1" xmlns="http://www.w3.org/2000/svg" xmlns:xlink="http://www.w3.org/1999/xlink" xml:space="preserve" onload="init(evt)">
<style type="text/css"><![CDATA[
.edge:hover path { stroke: red; }
.edge:hover polygon { stroke: red; fill: red; }
]]></style>
<script type="text/javascript"><![CDATA[
var edges = document.getElementsByTagName('g');
if (edges && edges.length) {
  for (var i=0;i<edges.length;i++) {
    if (edges[i].id.substr(0,4)=='edge') {
      edges[i].setAttribute('class','edge');
    }
  }
}
]]></script>
        <defs>
                <circle id="rim" cx="0" cy="0" r="7"/>
                <circle id="rim2" cx="0" cy="0" r="3.5"/>
                <g id="zoomPlus">
                        <use xlink:href="#rim" fill="#404040">
                                <set attributeName="fill" to="#808080" begin="zoomplus.mouseover" end="zoomplus.mouseout"/>
                        </use>
                        <path d="M-4,0h8M0,-4v8" fill="none" stroke="white" stroke-width="1.5" pointer-events="none"/>
                </g>
                <g id="zoomMin">
                        <use xlink:href="#rim" fill="#404040">
                                <set attributeName="fill" to="#808080" begin="zoomminus.mouseover" end="zoomminus.mouseout"/>
                        </use>
                        <path d="M-4,0h8" fill="none" stroke="white" stroke-width="1.5" pointer-events="none"/>
                </g>
                <g id="dirArrow">
                        <path fill="none" stroke="white" stroke-width="1.5" d="M0,-3.0v7 M-2.5,-0.5L0,-3.0L2.5,-0.5"/>
                </g>
               <g id="resetDef">
                       <use xlink:href="#rim2" fill="#404040">
                               <set attributeName="fill" to="#808080" begin="reset.mouseover" end="reset.mouseout"/>
                       </use>
               </g>
        </defs>

<script type="text/javascript">
var viewWidth = 645;
var viewHeight = 138;
var sectionId = 'dynsection-42';
</script>
<script xlink:href="svgpan.js"/>
<svg id="graph" class="graph">
<g id="viewport">
<title>netcdf4_support::nf_get_variable_slice_int</title>
<polygon fill="white" stroke="none" points="-4,4 -4,-134 640.75,-134 640.75,4 -4,4"/>
<!-- Node377 -->
<g id="node1" class="node"><title>Node377</title>
<polygon fill="#bfbfbf" stroke="black" points="0,-39 0,-69 127.907,-69 127.907,-39 0,-39"/>
<text text-anchor="start" x="8" y="-56.2" font-family="Helvetica,sans-Serif" font-size="11.00">netcdf4_support::nf</text>
<text text-anchor="middle" x="63.9534" y="-45.2" font-family="Helvetica,sans-Serif" font-size="11.00">_get_variable_slice_int</text>
</g>
<!-- Node378 -->
<g id="node2" class="node"><title>Node378</title>
<g id="a_node2"><a xlink:href="namespacenetcdf4__support.html#adf0b3c18448e867fe9997beb238e34fd" target="_top" xlink:title="netcdf4_support::nf\l_get_variable_array\l_as_vector_int">
<polygon fill="white" stroke="black" points="163.907,-88.5 163.907,-129.5 277.134,-129.5 277.134,-88.5 163.907,-88.5"/>
<text text-anchor="start" x="171.907" y="-116.7" font-family="Helvetica,sans-Serif" font-size="11.00">netcdf4_support::nf</text>
<text text-anchor="start" x="171.907" y="-105.7" font-family="Helvetica,sans-Serif" font-size="11.00">_get_variable_array</text>
<text text-anchor="middle" x="220.521" y="-94.7" font-family="Helvetica,sans-Serif" font-size="11.00">_as_vector_int</text>
</a>
</g>
</g>
<!-- Node377&#45;&gt;Node378 -->
<g id="edge1" class="edge"><title>Node377&#45;&gt;Node378</title>
<path fill="none" stroke="midnightblue" d="M107.19,-69.029C121.624,-74.1651 138.127,-80.0375 153.959,-85.6709"/>
<polygon fill="midnightblue" stroke="midnightblue" points="153.11,-89.0839 163.705,-89.1389 155.457,-82.4889 153.11,-89.0839"/>
</g>
<!-- Node381 -->
<g id="node5" class="node"><title>Node381</title>
<g id="a_node5"><a xlink:href="namespacenetcdf4__support.html#a26ac7fa9681548ec954f9cec8fbfa3b2" target="_top" xlink:title="netcdf4_support::nf\l_return_varindex">
<polygon fill="white" stroke="black" points="165.432,-39 165.432,-69 275.609,-69 275.609,-39 165.432,-39"/>
<text text-anchor="start" x="173.432" y="-56.2" font-family="Helvetica,sans-Serif" font-size="11.00">netcdf4_support::nf</text>
<text text-anchor="middle" x="220.521" y="-45.2" font-family="Helvetica,sans-Serif" font-size="11.00">_return_varindex</text>
</a>
</g>
</g>
<!-- Node377&#45;&gt;Node381 -->
<g id="edge4" class="edge"><title>Node377&#45;&gt;Node381</title>
<path fill="none" stroke="midnightblue" d="M128.268,-54C137.016,-54 146.012,-54 154.786,-54"/>
<polygon fill="midnightblue" stroke="midnightblue" points="154.956,-57.5001 164.956,-54 154.956,-50.5001 154.956,-57.5001"/>
</g>
<!-- Node382 -->
<g id="node6" class="node"><title>Node382</title>
<g id="a_node6"><a xlink:href="namespaceexceptions.html#a84dd04476b06e0a398bfe6d106a82a4d" target="_top" xlink:title="exceptions::warn">
<polygon fill="white" stroke="black" points="171.249,-0.5 171.249,-19.5 269.792,-19.5 269.792,-0.5 171.249,-0.5"/>
<text text-anchor="middle" x="220.521" y="-6.7" font-family="Helvetica,sans-Serif" font-size="11.00">exceptions::warn</text>
</a>
</g>
</g>
<!-- Node377&#45;&gt;Node382 -->
<g id="edge5" class="edge"><title>Node377&#45;&gt;Node382</title>
<path fill="none" stroke="midnightblue" d="M117.714,-38.9808C136.752,-33.5613 158.005,-27.5114 176.148,-22.3468"/>
<polygon fill="midnightblue" stroke="midnightblue" points="177.213,-25.6825 185.873,-19.5783 175.297,-18.95 177.213,-25.6825"/>
</g>
<!-- Node379 -->
<g id="node3" class="node"><title>Node379</title>
<g id="a_node3"><a xlink:href="namespacenetcdf4__support.html#ac8c7276a5849ae6d17ffef1787e3f234" target="_top" xlink:title="netcdf4_support::nf_trap">
<polygon fill="white" stroke="black" points="313.134,-99.5 313.134,-118.5 448.383,-118.5 448.383,-99.5 313.134,-99.5"/>
<text text-anchor="middle" x="380.759" y="-105.7" font-family="Helvetica,sans-Serif" font-size="11.00">netcdf4_support::nf_trap</text>
</a>
</g>
</g>
<!-- Node378&#45;&gt;Node379 -->
<g id="edge2" class="edge"><title>Node378&#45;&gt;Node379</title>
<path fill="none" stroke="midnightblue" d="M277.309,-109C285.623,-109 294.315,-109 302.969,-109"/>
<polygon fill="midnightblue" stroke="midnightblue" points="303.087,-112.5 313.087,-109 303.087,-105.5 303.087,-112.5"/>
</g>
<!-- Node380 -->
<g id="node4" class="node"><title>Node380</title>
<g id="a_node4"><a xlink:href="namespaceconstants__and__conversions.html#ac13fba285229deab77131132e6f62caf" target="_top" xlink:title="constants_and_conversions\l::char_ptr_to_fortran_string">
<polygon fill="white" stroke="black" points="484.383,-94 484.383,-124 636.75,-124 636.75,-94 484.383,-94"/>
<text text-anchor="start" x="492.383" y="-111.2" font-family="Helvetica,sans-Serif" font-size="11.00">constants_and_conversions</text>
<text text-anchor="middle" x="560.567" y="-100.2" font-family="Helvetica,sans-Serif" font-size="11.00">::char_ptr_to_fortran_string</text>
</a>
</g>
</g>
<!-- Node379&#45;&gt;Node380 -->
<g id="edge3" class="edge"><title>Node379&#45;&gt;Node380</title>
<path fill="none" stroke="midnightblue" d="M448.474,-109C456.831,-109 465.468,-109 474.063,-109"/>
<polygon fill="midnightblue" stroke="midnightblue" points="474.114,-112.5 484.114,-109 474.114,-105.5 474.114,-112.5"/>
</g>
</g>
</svg>
        <g id="navigator" transform="translate(0 0)" fill="#404254">
                <rect fill="#f2f5e9" fill-opacity="0.5" stroke="#606060" stroke-width=".5" x="0" y="0" width="60" height="60"/>
                <use id="zoomplus" xlink:href="#zoomPlus" x="17" y="9" onmousedown="handleZoom(evt,'in')"/>
                <use id="zoomminus" xlink:href="#zoomMin" x="42" y="9" onmousedown="handleZoom(evt,'out')"/>
                <use id="reset" xlink:href="#resetDef" x="30" y="36" onmousedown="handleReset()"/>
                <g id="arrowUp" xlink:href="#dirArrow" transform="translate(30 24)" onmousedown="handlePan(0,-1)">
                  <use xlink:href="#rim" fill="#404040">
                        <set attributeName="fill" to="#808080" begin="arrowUp.mouseover" end="arrowUp.mouseout"/>
                  </use>
                  <path fill="none" stroke="white" stroke-width="1.5" d="M0,-3.0v7 M-2.5,-0.5L0,-3.0L2.5,-0.5"/>
                </g>
                <g id="arrowRight" xlink:href="#dirArrow" transform="rotate(90) translate(36 -43)" onmousedown="handlePan(1,0)">
                  <use xlink:href="#rim" fill="#404040">
                        <set attributeName="fill" to="#808080" begin="arrowRight.mouseover" end="arrowRight.mouseout"/>
                  </use>
                  <path fill="none" stroke="white" stroke-width="1.5" d="M0,-3.0v7 M-2.5,-0.5L0,-3.0L2.5,-0.5"/>
                </g>
                <g id="arrowDown" xlink:href="#dirArrow" transform="rotate(180) translate(-30 -48)" onmousedown="handlePan(0,1)">
                  <use xlink:href="#rim" fill="#404040">
                        <set attributeName="fill" to="#808080" begin="arrowDown.mouseover" end="arrowDown.mouseout"/>
                  </use>
                  <path fill="none" stroke="white" stroke-width="1.5" d="M0,-3.0v7 M-2.5,-0.5L0,-3.0L2.5,-0.5"/>
                </g>
                <g id="arrowLeft" xlink:href="#dirArrow" transform="rotate(270) translate(-36 17)" onmousedown="handlePan(-1,0)">
                  <use xlink:href="#rim" fill="#404040">
                        <set attributeName="fill" to="#808080" begin="arrowLeft.mouseover" end="arrowLeft.mouseout"/>
                  </use>
                  <path fill="none" stroke="white" stroke-width="1.5" d="M0,-3.0v7 M-2.5,-0.5L0,-3.0L2.5,-0.5"/>
                </g>
        </g>
        <svg viewBox="0 0 15 15" width="100%" height="30px" preserveAspectRatio="xMaxYMin meet">
         <g id="arrow_out" transform="scale(0.3 0.3)">
          <a xlink:href="namespacenetcdf4__support_a03478999542c85e3a93b618472e57409_cgraph_org.svg" target="_base">
           <rect id="button" ry="5" rx="5" y="6" x="6" height="38" width="38"
                fill="#f2f5e9" fill-opacity="0.5" stroke="#606060" stroke-width="1.0"/>
           <path id="arrow"
             d="M 11.500037,31.436501 C 11.940474,20.09759 22.043105,11.32322 32.158766,21.979434 L 37.068811,17.246167 C 37.068811,17.246167 37.088388,32 37.088388,32 L 22.160133,31.978069 C 22.160133,31.978069 26.997745,27.140456 26.997745,27.140456 C 18.528582,18.264221 13.291696,25.230495 11.500037,31.436501 z"
             style="fill:#404040;"/>
          </a>
         </g>
        </svg>
</svg>
