<?xml version="1.0" encoding="UTF-8" standalone="no"?>
<!DOCTYPE svg PUBLIC "-//W3C//DTD SVG 1.1//EN"
 "http://www.w3.org/Graphics/SVG/1.1/DTD/svg11.dtd">
<!-- Generated by graphviz version 2.38.0 (20140413.2041)
 -->
<!-- Title: model_domain::model_initialize_available_water_content_gridded Pages: 1 -->
<svg width="300pt" height="50pt"
 viewBox="0.00 0.00 300.44 50.00" xmlns="http://www.w3.org/2000/svg" xmlns:xlink="http://www.w3.org/1999/xlink">
<g id="graph0" class="graph" transform="scale(1 1) rotate(0) translate(4 46)">
<title>model_domain::model_initialize_available_water_content_gridded</title>
<polygon fill="white" stroke="none" points="-4,4 -4,-46 296.437,-46 296.437,4 -4,4"/>
<!-- Node1 -->
<g id="node1" class="node"><title>Node1</title>
<polygon fill="#bfbfbf" stroke="black" points="0,-0.5 0,-41.5 134.03,-41.5 134.03,-0.5 0,-0.5"/>
<text text-anchor="start" x="8" y="-28.7" font-family="Helvetica,sans-Serif" font-size="11.00">model_domain::model</text>
<text text-anchor="start" x="8" y="-17.7" font-family="Helvetica,sans-Serif" font-size="11.00">_initialize_available</text>
<text text-anchor="middle" x="67.0149" y="-6.7" font-family="Helvetica,sans-Serif" font-size="11.00">_water_content_gridded</text>
</g>
<!-- Node2 -->
<g id="node2" class="node"><title>Node2</title>
<g id="a_node2"><a xlink:href="namespaceawc____gridded__values.html#a6f32f2187c7835ac657c5743064379e4" target="_top" xlink:title="awc__gridded_values\l::awc_gridded_values\l_initialize">
<polygon fill="white" stroke="black" points="170.03,-0.5 170.03,-41.5 292.437,-41.5 292.437,-0.5 170.03,-0.5"/>
<text text-anchor="start" x="178.03" y="-28.7" font-family="Helvetica,sans-Serif" font-size="11.00">awc__gridded_values</text>
<text text-anchor="start" x="178.03" y="-17.7" font-family="Helvetica,sans-Serif" font-size="11.00">::awc_gridded_values</text>
<text text-anchor="middle" x="231.233" y="-6.7" font-family="Helvetica,sans-Serif" font-size="11.00">_initialize</text>
</a>
</g>
</g>
<!-- Node1&#45;&gt;Node2 -->
<g id="edge1" class="edge"><title>Node1&#45;&gt;Node2</title>
<path fill="none" stroke="midnightblue" d="M134.463,-21C142.799,-21 151.348,-21 159.743,-21"/>
<polygon fill="midnightblue" stroke="midnightblue" points="159.881,-24.5001 169.881,-21 159.881,-17.5001 159.881,-24.5001"/>
</g>
</g>
</svg>
