<?xml version="1.0" encoding="UTF-8" standalone="no"?>
<!DOCTYPE svg PUBLIC "-//W3C//DTD SVG 1.1//EN"
 "http://www.w3.org/Graphics/SVG/1.1/DTD/svg11.dtd">
<!-- Generated by graphviz version 2.38.0 (20140413.2041)
 -->
<!-- Title: crop_coefficients__fao56::crop_coefficients_fao56_calculate Pages: 1 -->
<svg width="543pt" height="50pt"
 viewBox="0.00 0.00 542.62 50.00" xmlns="http://www.w3.org/2000/svg" xmlns:xlink="http://www.w3.org/1999/xlink">
<g id="graph0" class="graph" transform="scale(1 1) rotate(0) translate(4 46)">
<title>crop_coefficients__fao56::crop_coefficients_fao56_calculate</title>
<polygon fill="white" stroke="none" points="-4,4 -4,-46 538.616,-46 538.616,4 -4,4"/>
<!-- Node1 -->
<g id="node1" class="node"><title>Node1</title>
<polygon fill="#bfbfbf" stroke="black" points="0,-0.5 0,-41.5 138.3,-41.5 138.3,-0.5 0,-0.5"/>
<text text-anchor="start" x="8" y="-28.7" font-family="Helvetica,sans-Serif" font-size="11.00">crop_coefficients_</text>
<text text-anchor="start" x="8" y="-17.7" font-family="Helvetica,sans-Serif" font-size="11.00">_fao56::crop_coefficients</text>
<text text-anchor="middle" x="69.1499" y="-6.7" font-family="Helvetica,sans-Serif" font-size="11.00">_fao56_calculate</text>
</g>
<!-- Node2 -->
<g id="node2" class="node"><title>Node2</title>
<g id="a_node2"><a xlink:href="namespacemodel__domain.html#a95b2e2fe14b8b2913da8f4841445038d" target="_top" xlink:title="model_domain::model\l_update_crop_coefficient_fao56">
<polygon fill="white" stroke="black" points="174.3,-6 174.3,-36 346.867,-36 346.867,-6 174.3,-6"/>
<text text-anchor="start" x="182.3" y="-23.2" font-family="Helvetica,sans-Serif" font-size="11.00">model_domain::model</text>
<text text-anchor="middle" x="260.583" y="-12.2" font-family="Helvetica,sans-Serif" font-size="11.00">_update_crop_coefficient_fao56</text>
</a>
</g>
</g>
<!-- Node1&#45;&gt;Node2 -->
<g id="edge1" class="edge"><title>Node1&#45;&gt;Node2</title>
<path fill="none" stroke="midnightblue" d="M148.681,-21C157.081,-21 165.657,-21 174.132,-21"/>
<polygon fill="midnightblue" stroke="midnightblue" points="148.54,-17.5001 138.54,-21 148.54,-24.5001 148.54,-17.5001"/>
</g>
<!-- Node3 -->
<g id="node3" class="node"><title>Node3</title>
<g id="a_node3"><a xlink:href="namespacemodel__domain.html#aac78dbf26ba37cf86ebed4edd7acf89b" target="_top" xlink:title="model_domain::set_method\l_pointers_sub">
<polygon fill="white" stroke="black" points="382.867,-6 382.867,-36 534.616,-36 534.616,-6 382.867,-6"/>
<text text-anchor="start" x="390.867" y="-23.2" font-family="Helvetica,sans-Serif" font-size="11.00">model_domain::set_method</text>
<text text-anchor="middle" x="458.742" y="-12.2" font-family="Helvetica,sans-Serif" font-size="11.00">_pointers_sub</text>
</a>
</g>
</g>
<!-- Node2&#45;&gt;Node3 -->
<g id="edge2" class="edge"><title>Node2&#45;&gt;Node3</title>
<path fill="none" stroke="midnightblue" d="M357.112,-21C365.707,-21 374.328,-21 382.71,-21"/>
<polygon fill="midnightblue" stroke="midnightblue" points="357.051,-17.5001 347.051,-21 357.051,-24.5001 357.051,-17.5001"/>
</g>
</g>
</svg>
