<?xml version="1.0" encoding="UTF-8" standalone="no"?>
<!DOCTYPE svg PUBLIC "-//W3C//DTD SVG 1.1//EN"
 "http://www.w3.org/Graphics/SVG/1.1/DTD/svg11.dtd">
<!-- Generated by graphviz version 2.38.0 (20140413.2041)
 -->
<!-- Title: precipitation__method_of_fragments::read_daily_fragments Pages: 1 -->
<svg width="277pt" height="50pt"
 viewBox="0.00 0.00 276.57 50.00" xmlns="http://www.w3.org/2000/svg" xmlns:xlink="http://www.w3.org/1999/xlink">
<g id="graph0" class="graph" transform="scale(1 1) rotate(0) translate(4 46)">
<title>precipitation__method_of_fragments::read_daily_fragments</title>
<polygon fill="white" stroke="none" points="-4,4 -4,-46 272.567,-46 272.567,4 -4,4"/>
<!-- Node13 -->
<g id="node1" class="node"><title>Node13</title>
<polygon fill="#bfbfbf" stroke="black" points="0,-0.5 0,-41.5 143.188,-41.5 143.188,-0.5 0,-0.5"/>
<text text-anchor="start" x="8" y="-28.7" font-family="Helvetica,sans-Serif" font-size="11.00">precipitation__method</text>
<text text-anchor="start" x="8" y="-17.7" font-family="Helvetica,sans-Serif" font-size="11.00">_of_fragments::read_daily</text>
<text text-anchor="middle" x="71.5938" y="-6.7" font-family="Helvetica,sans-Serif" font-size="11.00">_fragments</text>
</g>
<!-- Node14 -->
<g id="node2" class="node"><title>Node14</title>
<g id="a_node2"><a xlink:href="namespaceexceptions.html#a22a1bf2808fdc249e6b378ee3f221156" target="_top" xlink:title="exceptions::die">
<polygon fill="white" stroke="black" points="179.188,-11.5 179.188,-30.5 268.567,-30.5 268.567,-11.5 179.188,-11.5"/>
<text text-anchor="middle" x="223.877" y="-17.7" font-family="Helvetica,sans-Serif" font-size="11.00">exceptions::die</text>
</a>
</g>
</g>
<!-- Node13&#45;&gt;Node14 -->
<g id="edge1" class="edge"><title>Node13&#45;&gt;Node14</title>
<path fill="none" stroke="midnightblue" d="M143.335,-21C151.9,-21 160.541,-21 168.812,-21"/>
<polygon fill="midnightblue" stroke="midnightblue" points="169.056,-24.5001 179.056,-21 169.056,-17.5001 169.056,-24.5001"/>
</g>
</g>
</svg>
