<?xml version="1.0" encoding="UTF-8" standalone="no"?>
<!DOCTYPE svg PUBLIC "-//W3C//DTD SVG 1.1//EN"
 "http://www.w3.org/Graphics/SVG/1.1/DTD/svg11.dtd">
<!-- Generated by graphviz version 2.38.0 (20140413.2041)
 -->
<!-- Title: netcdf4_support::nf_get_x_and_y Pages: 1 -->
<svg width="632pt" height="50pt"
 viewBox="0.00 0.00 631.91 50.00" xmlns="http://www.w3.org/2000/svg" xmlns:xlink="http://www.w3.org/1999/xlink">
<g id="graph0" class="graph" transform="scale(1 1) rotate(0) translate(4 46)">
<title>netcdf4_support::nf_get_x_and_y</title>
<polygon fill="white" stroke="none" points="-4,4 -4,-46 627.913,-46 627.913,4 -4,4"/>
<!-- Node191 -->
<g id="node1" class="node"><title>Node191</title>
<polygon fill="#bfbfbf" stroke="black" points="0,-6 0,-36 110.177,-36 110.177,-6 0,-6"/>
<text text-anchor="start" x="8" y="-23.2" font-family="Helvetica,sans-Serif" font-size="11.00">netcdf4_support::nf</text>
<text text-anchor="middle" x="55.0884" y="-12.2" font-family="Helvetica,sans-Serif" font-size="11.00">_get_x_and_y</text>
</g>
<!-- Node192 -->
<g id="node2" class="node"><title>Node192</title>
<g id="a_node2"><a xlink:href="namespacenetcdf4__support.html#a8e61a749fc18f3f802e6b886cdfb4f6c" target="_top" xlink:title="netcdf4_support::nf\l_get_variable_vector\l_double">
<polygon fill="white" stroke="black" points="146.177,-0.5 146.177,-41.5 264.297,-41.5 264.297,-0.5 146.177,-0.5"/>
<text text-anchor="start" x="154.177" y="-28.7" font-family="Helvetica,sans-Serif" font-size="11.00">netcdf4_support::nf</text>
<text text-anchor="start" x="154.177" y="-17.7" font-family="Helvetica,sans-Serif" font-size="11.00">_get_variable_vector</text>
<text text-anchor="middle" x="205.237" y="-6.7" font-family="Helvetica,sans-Serif" font-size="11.00">_double</text>
</a>
</g>
</g>
<!-- Node191&#45;&gt;Node192 -->
<g id="edge1" class="edge"><title>Node191&#45;&gt;Node192</title>
<path fill="none" stroke="midnightblue" d="M110.412,-21C118.632,-21 127.201,-21 135.674,-21"/>
<polygon fill="midnightblue" stroke="midnightblue" points="135.931,-24.5001 145.931,-21 135.931,-17.5001 135.931,-24.5001"/>
</g>
<!-- Node193 -->
<g id="node3" class="node"><title>Node193</title>
<g id="a_node3"><a xlink:href="namespacenetcdf4__support.html#ac8c7276a5849ae6d17ffef1787e3f234" target="_top" xlink:title="netcdf4_support::nf_trap">
<polygon fill="white" stroke="black" points="300.297,-11.5 300.297,-30.5 435.546,-30.5 435.546,-11.5 300.297,-11.5"/>
<text text-anchor="middle" x="367.922" y="-17.7" font-family="Helvetica,sans-Serif" font-size="11.00">netcdf4_support::nf_trap</text>
</a>
</g>
</g>
<!-- Node192&#45;&gt;Node193 -->
<g id="edge2" class="edge"><title>Node192&#45;&gt;Node193</title>
<path fill="none" stroke="midnightblue" d="M264.703,-21C272.868,-21 281.36,-21 289.805,-21"/>
<polygon fill="midnightblue" stroke="midnightblue" points="290.057,-24.5001 300.057,-21 290.057,-17.5001 290.057,-24.5001"/>
</g>
<!-- Node194 -->
<g id="node4" class="node"><title>Node194</title>
<g id="a_node4"><a xlink:href="namespaceconstants__and__conversions.html#ac13fba285229deab77131132e6f62caf" target="_top" xlink:title="constants_and_conversions\l::char_ptr_to_fortran_string">
<polygon fill="white" stroke="black" points="471.546,-6 471.546,-36 623.913,-36 623.913,-6 471.546,-6"/>
<text text-anchor="start" x="479.546" y="-23.2" font-family="Helvetica,sans-Serif" font-size="11.00">constants_and_conversions</text>
<text text-anchor="middle" x="547.73" y="-12.2" font-family="Helvetica,sans-Serif" font-size="11.00">::char_ptr_to_fortran_string</text>
</a>
</g>
</g>
<!-- Node193&#45;&gt;Node194 -->
<g id="edge3" class="edge"><title>Node193&#45;&gt;Node194</title>
<path fill="none" stroke="midnightblue" d="M435.637,-21C443.994,-21 452.632,-21 461.226,-21"/>
<polygon fill="midnightblue" stroke="midnightblue" points="461.277,-24.5001 471.277,-21 461.277,-17.5001 461.277,-24.5001"/>
</g>
</g>
</svg>
