<?xml version="1.0" encoding="UTF-8" standalone="no"?>
<!DOCTYPE svg PUBLIC "-//W3C//DTD SVG 1.1//EN"
 "http://www.w3.org/Graphics/SVG/1.1/DTD/svg11.dtd">
<!-- Generated by graphviz version 2.38.0 (20140413.2041)
 -->
<!-- Title: grid::grid_getgridcolrownum Pages: 1 -->
<svg width="333pt" height="66pt"
 viewBox="0.00 0.00 333.40 66.00" xmlns="http://www.w3.org/2000/svg" xmlns:xlink="http://www.w3.org/1999/xlink">
<g id="graph0" class="graph" transform="scale(1 1) rotate(0) translate(4 62)">
<title>grid::grid_getgridcolrownum</title>
<polygon fill="white" stroke="none" points="-4,4 -4,-62 329.404,-62 329.404,4 -4,4"/>
<!-- Node1 -->
<g id="node1" class="node"><title>Node1</title>
<polygon fill="#bfbfbf" stroke="black" points="0,-19.5 0,-38.5 151.733,-38.5 151.733,-19.5 0,-19.5"/>
<text text-anchor="middle" x="75.8665" y="-25.7" font-family="Helvetica,sans-Serif" font-size="11.00">grid::grid_getgridcolrownum</text>
</g>
<!-- Node2 -->
<g id="node2" class="node"><title>Node2</title>
<g id="a_node2"><a xlink:href="namespacegrid.html#a6b5506d49fb44b008286c59a82e98c1e" target="_top" xlink:title="grid::grid_getgridcolnum">
<polygon fill="white" stroke="black" points="189.564,-38.5 189.564,-57.5 323.573,-57.5 323.573,-38.5 189.564,-38.5"/>
<text text-anchor="middle" x="256.569" y="-44.7" font-family="Helvetica,sans-Serif" font-size="11.00">grid::grid_getgridcolnum</text>
</a>
</g>
</g>
<!-- Node1&#45;&gt;Node2 -->
<g id="edge1" class="edge"><title>Node1&#45;&gt;Node2</title>
<path fill="none" stroke="midnightblue" d="M151.876,-36.9751C160.967,-37.9417 170.261,-38.9299 179.369,-39.8983"/>
<polygon fill="midnightblue" stroke="midnightblue" points="179.239,-43.4041 189.553,-40.981 179.979,-36.4433 179.239,-43.4041"/>
</g>
<!-- Node3 -->
<g id="node3" class="node"><title>Node3</title>
<g id="a_node3"><a xlink:href="namespacegrid.html#a9aa473ecf87cf6e11795f2b6e78c920e" target="_top" xlink:title="grid::grid_getgridrownum">
<polygon fill="white" stroke="black" points="187.733,-0.5 187.733,-19.5 325.404,-19.5 325.404,-0.5 187.733,-0.5"/>
<text text-anchor="middle" x="256.569" y="-6.7" font-family="Helvetica,sans-Serif" font-size="11.00">grid::grid_getgridrownum</text>
</a>
</g>
</g>
<!-- Node1&#45;&gt;Node3 -->
<g id="edge2" class="edge"><title>Node1&#45;&gt;Node3</title>
<path fill="none" stroke="midnightblue" d="M151.876,-21.0249C160.388,-20.1198 169.079,-19.1957 177.629,-18.2867"/>
<polygon fill="midnightblue" stroke="midnightblue" points="178.007,-21.7663 187.581,-17.2286 177.267,-14.8056 178.007,-21.7663"/>
</g>
</g>
</svg>
