<?xml version="1.0" encoding="UTF-8" standalone="no"?>
<!DOCTYPE svg PUBLIC "-//W3C//DTD SVG 1.1//EN"
 "http://www.w3.org/Graphics/SVG/1.1/DTD/svg11.dtd">
<!-- Generated by graphviz version 2.38.0 (20140413.2041)
 -->
<!-- Title: model_domain::model_initialize_actual_et_fao56 Pages: 1 -->
<svg width="335pt" height="39pt"
 viewBox="0.00 0.00 335.30 39.00" xmlns="http://www.w3.org/2000/svg" xmlns:xlink="http://www.w3.org/1999/xlink">
<g id="graph0" class="graph" transform="scale(1 1) rotate(0) translate(4 35)">
<title>model_domain::model_initialize_actual_et_fao56</title>
<polygon fill="white" stroke="none" points="-4,4 -4,-35 331.3,-35 331.3,4 -4,4"/>
<!-- Node399 -->
<g id="node1" class="node"><title>Node399</title>
<polygon fill="#bfbfbf" stroke="black" points="0,-0.5 0,-30.5 145.653,-30.5 145.653,-0.5 0,-0.5"/>
<text text-anchor="start" x="8" y="-17.7" font-family="Helvetica,sans-Serif" font-size="11.00">model_domain::model</text>
<text text-anchor="middle" x="72.8264" y="-6.7" font-family="Helvetica,sans-Serif" font-size="11.00">_initialize_actual_et_fao56</text>
</g>
<!-- Node400 -->
<g id="node2" class="node"><title>Node400</title>
<g id="a_node2"><a xlink:href="namespaceactual__et____fao56.html#a4c4fbb5724ac3fc854c21d6d6f1b4083" target="_top" xlink:title="actual_et__fao56::initialize\l_actual_et_fao56">
<polygon fill="white" stroke="black" points="181.653,-0.5 181.653,-30.5 327.3,-30.5 327.3,-0.5 181.653,-0.5"/>
<text text-anchor="start" x="189.653" y="-17.7" font-family="Helvetica,sans-Serif" font-size="11.00">actual_et__fao56::initialize</text>
<text text-anchor="middle" x="254.477" y="-6.7" font-family="Helvetica,sans-Serif" font-size="11.00">_actual_et_fao56</text>
</a>
</g>
</g>
<!-- Node399&#45;&gt;Node400 -->
<g id="edge1" class="edge"><title>Node399&#45;&gt;Node400</title>
<path fill="none" stroke="midnightblue" d="M145.862,-15.5C154.19,-15.5 162.73,-15.5 171.181,-15.5"/>
<polygon fill="midnightblue" stroke="midnightblue" points="171.425,-19.0001 181.425,-15.5 171.425,-12.0001 171.425,-19.0001"/>
</g>
</g>
</svg>
