<?xml version="1.0" encoding="UTF-8" standalone="no"?>
<!DOCTYPE svg PUBLIC "-//W3C//DTD SVG 1.1//EN"
 "http://www.w3.org/Graphics/SVG/1.1/DTD/svg11.dtd">
<!-- Generated by graphviz version 2.38.0 (20140413.2041)
 -->
<!-- Title: netcdf4_support::nf_get_time_vals Pages: 1 -->
<svg width="659pt" height="157pt"
 viewBox="0.00 0.00 659.47 157.00" xmlns="http://www.w3.org/2000/svg" xmlns:xlink="http://www.w3.org/1999/xlink">
<g id="graph0" class="graph" transform="scale(1 1) rotate(0) translate(4 153)">
<title>netcdf4_support::nf_get_time_vals</title>
<polygon fill="white" stroke="none" points="-4,4 -4,-153 655.472,-153 655.472,4 -4,4"/>
<!-- Node184 -->
<g id="node1" class="node"><title>Node184</title>
<polygon fill="#bfbfbf" stroke="black" points="0,-61 0,-91 110.177,-91 110.177,-61 0,-61"/>
<text text-anchor="start" x="8" y="-78.2" font-family="Helvetica,sans-Serif" font-size="11.00">netcdf4_support::nf</text>
<text text-anchor="middle" x="55.0884" y="-67.2" font-family="Helvetica,sans-Serif" font-size="11.00">_get_time_vals</text>
</g>
<!-- Node185 -->
<g id="node2" class="node"><title>Node185</title>
<g id="a_node2"><a xlink:href="namespacenetcdf4__support.html#a6d3d402059d71a8bd24a01dc6116ff7d" target="_top" xlink:title="netcdf4_support::netcdf\l_open_and_prepare_as_input">
<polygon fill="white" stroke="black" points="146.177,-61 146.177,-91 308.974,-91 308.974,-61 146.177,-61"/>
<text text-anchor="start" x="154.177" y="-78.2" font-family="Helvetica,sans-Serif" font-size="11.00">netcdf4_support::netcdf</text>
<text text-anchor="middle" x="227.575" y="-67.2" font-family="Helvetica,sans-Serif" font-size="11.00">_open_and_prepare_as_input</text>
</a>
</g>
</g>
<!-- Node184&#45;&gt;Node185 -->
<g id="edge1" class="edge"><title>Node184&#45;&gt;Node185</title>
<path fill="none" stroke="midnightblue" d="M120.764,-76C129.002,-76 137.512,-76 145.962,-76"/>
<polygon fill="midnightblue" stroke="midnightblue" points="120.5,-72.5001 110.5,-76 120.5,-79.5001 120.5,-72.5001"/>
</g>
<!-- Node189 -->
<g id="node6" class="node"><title>Node189</title>
<g id="a_node6"><a xlink:href="namespacenetcdf4__support.html#a8be734b602e654816c17b5e27d0fbffb" target="_top" xlink:title="netcdf4_support::netcdf\l_open_and_prepare_for\l_merging">
<polygon fill="white" stroke="black" points="160.552,-0.5 160.552,-41.5 294.598,-41.5 294.598,-0.5 160.552,-0.5"/>
<text text-anchor="start" x="168.552" y="-28.7" font-family="Helvetica,sans-Serif" font-size="11.00">netcdf4_support::netcdf</text>
<text text-anchor="start" x="168.552" y="-17.7" font-family="Helvetica,sans-Serif" font-size="11.00">_open_and_prepare_for</text>
<text text-anchor="middle" x="227.575" y="-6.7" font-family="Helvetica,sans-Serif" font-size="11.00">_merging</text>
</a>
</g>
</g>
<!-- Node184&#45;&gt;Node189 -->
<g id="edge6" class="edge"><title>Node184&#45;&gt;Node189</title>
<path fill="none" stroke="midnightblue" d="M112.482,-57.8072C128.595,-52.609 146.267,-46.9078 162.789,-41.5777"/>
<polygon fill="midnightblue" stroke="midnightblue" points="111.117,-54.5697 102.675,-60.971 113.266,-61.2317 111.117,-54.5697"/>
</g>
<!-- Node190 -->
<g id="node7" class="node"><title>Node190</title>
<g id="a_node7"><a xlink:href="namespacenetcdf4__support.html#a7b3b3cf3aab614eb336e12694c5d76ef" target="_top" xlink:title="netcdf4_support::netcdf\l_open_file">
<polygon fill="white" stroke="black" points="162.091,-110 162.091,-140 293.06,-140 293.06,-110 162.091,-110"/>
<text text-anchor="start" x="170.091" y="-127.2" font-family="Helvetica,sans-Serif" font-size="11.00">netcdf4_support::netcdf</text>
<text text-anchor="middle" x="227.575" y="-116.2" font-family="Helvetica,sans-Serif" font-size="11.00">_open_file</text>
</a>
</g>
</g>
<!-- Node184&#45;&gt;Node190 -->
<g id="edge7" class="edge"><title>Node184&#45;&gt;Node190</title>
<path fill="none" stroke="midnightblue" d="M118.348,-93.8941C136.685,-99.1644 156.556,-104.876 174.206,-109.948"/>
<polygon fill="midnightblue" stroke="midnightblue" points="119.209,-90.5 108.631,-91.1014 117.275,-97.2276 119.209,-90.5"/>
</g>
<!-- Node186 -->
<g id="node3" class="node"><title>Node186</title>
<g id="a_node3"><a xlink:href="namespacedata__catalog__entry.html#aeb285131f87ed64deba0a9041a9c6405" target="_top" xlink:title="data_catalog_entry\l::getvalues_dynamic\l_netcdf_sub">
<polygon fill="white" stroke="black" points="367.299,-107.5 367.299,-148.5 483.577,-148.5 483.577,-107.5 367.299,-107.5"/>
<text text-anchor="start" x="375.299" y="-135.7" font-family="Helvetica,sans-Serif" font-size="11.00">data_catalog_entry</text>
<text text-anchor="start" x="375.299" y="-124.7" font-family="Helvetica,sans-Serif" font-size="11.00">::getvalues_dynamic</text>
<text text-anchor="middle" x="425.438" y="-113.7" font-family="Helvetica,sans-Serif" font-size="11.00">_netcdf_sub</text>
</a>
</g>
</g>
<!-- Node185&#45;&gt;Node186 -->
<g id="edge2" class="edge"><title>Node185&#45;&gt;Node186</title>
<path fill="none" stroke="midnightblue" d="M295.087,-93.6584C318.521,-99.8797 344.638,-106.814 367.235,-112.813"/>
<polygon fill="midnightblue" stroke="midnightblue" points="295.79,-90.2238 285.227,-91.0406 293.994,-96.9895 295.79,-90.2238"/>
</g>
<!-- Node188 -->
<g id="node5" class="node"><title>Node188</title>
<g id="a_node5"><a xlink:href="namespacedata__catalog__entry.html#ac3e1f0d9d9e146fbb77c0084e1e9fc14" target="_top" xlink:title="data_catalog_entry\l::getvalues_static_netcdf_sub">
<polygon fill="white" stroke="black" points="344.974,-58 344.974,-88 505.902,-88 505.902,-58 344.974,-58"/>
<text text-anchor="start" x="352.974" y="-75.2" font-family="Helvetica,sans-Serif" font-size="11.00">data_catalog_entry</text>
<text text-anchor="middle" x="425.438" y="-64.2" font-family="Helvetica,sans-Serif" font-size="11.00">::getvalues_static_netcdf_sub</text>
</a>
</g>
</g>
<!-- Node185&#45;&gt;Node188 -->
<g id="edge4" class="edge"><title>Node185&#45;&gt;Node188</title>
<path fill="none" stroke="midnightblue" d="M319.126,-74.6131C327.72,-74.4814 336.391,-74.3486 344.87,-74.2187"/>
<polygon fill="midnightblue" stroke="midnightblue" points="319.033,-71.114 309.088,-74.7668 319.141,-78.1131 319.033,-71.114"/>
</g>
<!-- Node187 -->
<g id="node4" class="node"><title>Node187</title>
<g id="a_node4"><a xlink:href="namespacedata__catalog__entry.html#a9e0a89ab19a5bfd61f2dfb8265648234" target="_top" xlink:title="data_catalog_entry\l::getvalues_sub">
<polygon fill="white" stroke="black" points="541.902,-85 541.902,-115 651.472,-115 651.472,-85 541.902,-85"/>
<text text-anchor="start" x="549.902" y="-102.2" font-family="Helvetica,sans-Serif" font-size="11.00">data_catalog_entry</text>
<text text-anchor="middle" x="596.687" y="-91.2" font-family="Helvetica,sans-Serif" font-size="11.00">::getvalues_sub</text>
</a>
</g>
</g>
<!-- Node186&#45;&gt;Node187 -->
<g id="edge3" class="edge"><title>Node186&#45;&gt;Node187</title>
<path fill="none" stroke="midnightblue" d="M494.041,-116.816C509.94,-114.186 526.675,-111.417 541.874,-108.903"/>
<polygon fill="midnightblue" stroke="midnightblue" points="493.033,-113.435 483.738,-118.52 494.175,-120.341 493.033,-113.435"/>
</g>
<!-- Node188&#45;&gt;Node187 -->
<g id="edge5" class="edge"><title>Node188&#45;&gt;Node187</title>
<path fill="none" stroke="midnightblue" d="M516.245,-87.3267C524.871,-88.7028 533.425,-90.0674 541.547,-91.3631"/>
<polygon fill="midnightblue" stroke="midnightblue" points="516.533,-83.8285 506.107,-85.7094 515.431,-90.7411 516.533,-83.8285"/>
</g>
<!-- Node190&#45;&gt;Node186 -->
<g id="edge8" class="edge"><title>Node190&#45;&gt;Node186</title>
<path fill="none" stroke="midnightblue" d="M303.469,-126.147C324.57,-126.47 347.183,-126.817 367.081,-127.121"/>
<polygon fill="midnightblue" stroke="midnightblue" points="303.304,-122.644 293.251,-125.991 303.196,-129.643 303.304,-122.644"/>
</g>
<!-- Node190&#45;&gt;Node188 -->
<g id="edge9" class="edge"><title>Node190&#45;&gt;Node188</title>
<path fill="none" stroke="midnightblue" d="M295.176,-107.318C318.821,-101.041 345.19,-94.0397 367.914,-88.0068"/>
<polygon fill="midnightblue" stroke="midnightblue" points="293.994,-104.011 285.227,-109.959 295.79,-110.776 293.994,-104.011"/>
</g>
</g>
</svg>
