<?xml version="1.0" encoding="UTF-8" standalone="no"?>
<!DOCTYPE svg PUBLIC "-//W3C//DTD SVG 1.1//EN"
 "http://www.w3.org/Graphics/SVG/1.1/DTD/svg11.dtd">
<!-- Generated by graphviz version 2.38.0 (20140413.2041)
 -->
<!-- Title: et__gridded_values::et_gridded_values_initialize Pages: 1 -->
<svg width="489pt" height="88pt"
 viewBox="0.00 0.00 489.40 88.00" xmlns="http://www.w3.org/2000/svg" xmlns:xlink="http://www.w3.org/1999/xlink">
<g id="graph0" class="graph" transform="scale(1 1) rotate(0) translate(4 84)">
<title>et__gridded_values::et_gridded_values_initialize</title>
<polygon fill="white" stroke="none" points="-4,4 -4,-84 485.399,-84 485.399,4 -4,4"/>
<!-- Node1 -->
<g id="node1" class="node"><title>Node1</title>
<polygon fill="#bfbfbf" stroke="black" points="0,-19 0,-60 112.019,-60 112.019,-19 0,-19"/>
<text text-anchor="start" x="8" y="-47.2" font-family="Helvetica,sans-Serif" font-size="11.00">et__gridded_values</text>
<text text-anchor="start" x="8" y="-36.2" font-family="Helvetica,sans-Serif" font-size="11.00">::et_gridded_values</text>
<text text-anchor="middle" x="56.0095" y="-25.2" font-family="Helvetica,sans-Serif" font-size="11.00">_initialize</text>
</g>
<!-- Node2 -->
<g id="node2" class="node"><title>Node2</title>
<g id="a_node2"><a xlink:href="namespacemodel__domain.html#aab7726dd6c71dbddc877e4f4498e5f7e" target="_top" xlink:title="model_domain::model\l_initialize_et_daily_grid">
<polygon fill="white" stroke="black" points="155.966,-49.5 155.966,-79.5 285.704,-79.5 285.704,-49.5 155.966,-49.5"/>
<text text-anchor="start" x="163.966" y="-66.7" font-family="Helvetica,sans-Serif" font-size="11.00">model_domain::model</text>
<text text-anchor="middle" x="220.835" y="-55.7" font-family="Helvetica,sans-Serif" font-size="11.00">_initialize_et_daily_grid</text>
</a>
</g>
</g>
<!-- Node1&#45;&gt;Node2 -->
<g id="edge1" class="edge"><title>Node1&#45;&gt;Node2</title>
<path fill="none" stroke="midnightblue" d="M122.162,-49.5035C133.236,-51.2038 144.729,-52.9683 155.774,-54.6642"/>
<polygon fill="midnightblue" stroke="midnightblue" points="122.55,-46.0221 112.135,-47.9639 121.488,-52.941 122.55,-46.0221"/>
</g>
<!-- Node4 -->
<g id="node4" class="node"><title>Node4</title>
<g id="a_node4"><a xlink:href="namespacemodel__domain.html#ad81755f7a28f5df66a51b36386cf285a" target="_top" xlink:title="model_domain::model\l_initialize_et_monthly_grid">
<polygon fill="white" stroke="black" points="148.019,-0.5 148.019,-30.5 293.65,-30.5 293.65,-0.5 148.019,-0.5"/>
<text text-anchor="start" x="156.019" y="-17.7" font-family="Helvetica,sans-Serif" font-size="11.00">model_domain::model</text>
<text text-anchor="middle" x="220.835" y="-6.7" font-family="Helvetica,sans-Serif" font-size="11.00">_initialize_et_monthly_grid</text>
</a>
</g>
</g>
<!-- Node1&#45;&gt;Node4 -->
<g id="edge3" class="edge"><title>Node1&#45;&gt;Node4</title>
<path fill="none" stroke="midnightblue" d="M122.225,-29.8875C130.615,-28.6508 139.244,-27.3789 147.736,-26.1272"/>
<polygon fill="midnightblue" stroke="midnightblue" points="121.517,-26.4538 112.135,-31.3747 122.538,-33.379 121.517,-26.4538"/>
</g>
<!-- Node3 -->
<g id="node3" class="node"><title>Node3</title>
<g id="a_node3"><a xlink:href="namespacemodel__domain.html#aac78dbf26ba37cf86ebed4edd7acf89b" target="_top" xlink:title="model_domain::set_method\l_pointers_sub">
<polygon fill="white" stroke="black" points="329.65,-24.5 329.65,-54.5 481.399,-54.5 481.399,-24.5 329.65,-24.5"/>
<text text-anchor="start" x="337.65" y="-41.7" font-family="Helvetica,sans-Serif" font-size="11.00">model_domain::set_method</text>
<text text-anchor="middle" x="405.525" y="-30.7" font-family="Helvetica,sans-Serif" font-size="11.00">_pointers_sub</text>
</a>
</g>
</g>
<!-- Node2&#45;&gt;Node3 -->
<g id="edge2" class="edge"><title>Node2&#45;&gt;Node3</title>
<path fill="none" stroke="midnightblue" d="M295.781,-54.3809C306.855,-52.8655 318.283,-51.3016 329.382,-49.7829"/>
<polygon fill="midnightblue" stroke="midnightblue" points="295.164,-50.9326 285.731,-55.7562 296.113,-57.868 295.164,-50.9326"/>
</g>
<!-- Node4&#45;&gt;Node3 -->
<g id="edge4" class="edge"><title>Node4&#45;&gt;Node3</title>
<path fill="none" stroke="midnightblue" d="M303.806,-26.2686C312.41,-27.3989 321.126,-28.5439 329.644,-29.6629"/>
<polygon fill="midnightblue" stroke="midnightblue" points="304.147,-22.7834 293.776,-24.951 303.235,-29.7238 304.147,-22.7834"/>
</g>
</g>
</svg>
