<?xml version="1.0" encoding="UTF-8" standalone="no"?>
<!DOCTYPE svg PUBLIC "-//W3C//DTD SVG 1.1//EN"
 "http://www.w3.org/Graphics/SVG/1.1/DTD/svg11.dtd">
<!-- Generated by graphviz version 2.38.0 (20140413.2041)
 -->
<!-- Title: model_domain::model_calculate_et_daily_grid Pages: 1 -->
<svg width="290pt" height="50pt"
 viewBox="0.00 0.00 290.04 50.00" xmlns="http://www.w3.org/2000/svg" xmlns:xlink="http://www.w3.org/1999/xlink">
<g id="graph0" class="graph" transform="scale(1 1) rotate(0) translate(4 46)">
<title>model_domain::model_calculate_et_daily_grid</title>
<polygon fill="white" stroke="none" points="-4,4 -4,-46 286.043,-46 286.043,4 -4,4"/>
<!-- Node259 -->
<g id="node1" class="node"><title>Node259</title>
<polygon fill="#bfbfbf" stroke="black" points="0,-6 0,-36 134.024,-36 134.024,-6 0,-6"/>
<text text-anchor="start" x="8" y="-23.2" font-family="Helvetica,sans-Serif" font-size="11.00">model_domain::model</text>
<text text-anchor="middle" x="67.0122" y="-12.2" font-family="Helvetica,sans-Serif" font-size="11.00">_calculate_et_daily_grid</text>
</g>
<!-- Node260 -->
<g id="node2" class="node"><title>Node260</title>
<g id="a_node2"><a xlink:href="namespaceet____gridded__values.html#a47620ef47e89b4af2dadbae1b0b7b70b" target="_top" xlink:title="et__gridded_values\l::et_gridded_values\l_calculate">
<polygon fill="white" stroke="black" points="170.024,-0.5 170.024,-41.5 282.043,-41.5 282.043,-0.5 170.024,-0.5"/>
<text text-anchor="start" x="178.024" y="-28.7" font-family="Helvetica,sans-Serif" font-size="11.00">et__gridded_values</text>
<text text-anchor="start" x="178.024" y="-17.7" font-family="Helvetica,sans-Serif" font-size="11.00">::et_gridded_values</text>
<text text-anchor="middle" x="226.034" y="-6.7" font-family="Helvetica,sans-Serif" font-size="11.00">_calculate</text>
</a>
</g>
</g>
<!-- Node259&#45;&gt;Node260 -->
<g id="edge1" class="edge"><title>Node259&#45;&gt;Node260</title>
<path fill="none" stroke="midnightblue" d="M134.148,-21C142.61,-21 151.268,-21 159.716,-21"/>
<polygon fill="midnightblue" stroke="midnightblue" points="159.89,-24.5001 169.89,-21 159.89,-17.5001 159.89,-24.5001"/>
</g>
</g>
</svg>
