<?xml version="1.0" encoding="UTF-8" standalone="no"?>
<!DOCTYPE svg PUBLIC "-//W3C//DTD SVG 1.1//EN"
 "http://www.w3.org/Graphics/SVG/1.1/DTD/svg11.dtd">
<!-- Generated by graphviz version 2.38.0 (20140413.2041)
 -->
<!-- Title: precipitation__method_of_fragments::precipitation_method_of_fragments_initialize Pages: 1 -->
<svg width="513pt" height="198pt"
 viewBox="0.00 0.00 513.23 197.85" xmlns="http://www.w3.org/2000/svg" xmlns:xlink="http://www.w3.org/1999/xlink">
<g id="graph0" class="graph" transform="scale(1 1) rotate(0) translate(4 193.854)">
<title>precipitation__method_of_fragments::precipitation_method_of_fragments_initialize</title>
<polygon fill="white" stroke="none" points="-4,4 -4,-193.854 509.226,-193.854 509.226,4 -4,4"/>
<!-- Node0 -->
<g id="node1" class="node"><title>Node0</title>
<polygon fill="#bfbfbf" stroke="black" points="0,-90.5 0,-131.5 174.372,-131.5 174.372,-90.5 0,-90.5"/>
<text text-anchor="start" x="8" y="-118.7" font-family="Helvetica,sans-Serif" font-size="11.00">precipitation__method</text>
<text text-anchor="start" x="8" y="-107.7" font-family="Helvetica,sans-Serif" font-size="11.00">_of_fragments::precipitation</text>
<text text-anchor="middle" x="87.186" y="-96.7" font-family="Helvetica,sans-Serif" font-size="11.00">_method_of_fragments_initialize</text>
</g>
<!-- Node1 -->
<g id="node2" class="node"><title>Node1</title>
<g id="a_node2"><a xlink:href="namespaceexceptions.html#a22a1bf2808fdc249e6b378ee3f221156" target="_top" xlink:title="exceptions::die">
<polygon fill="white" stroke="black" points="415.846,-71.5 415.846,-90.5 505.226,-90.5 505.226,-71.5 415.846,-71.5"/>
<text text-anchor="middle" x="460.536" y="-77.7" font-family="Helvetica,sans-Serif" font-size="11.00">exceptions::die</text>
</a>
</g>
</g>
<!-- Node0&#45;&gt;Node1 -->
<g id="edge1" class="edge"><title>Node0&#45;&gt;Node1</title>
<path fill="none" stroke="midnightblue" d="M119.85,-131.581C143.665,-145.777 177.684,-163.407 210.372,-171 283.74,-188.042 311.164,-201.922 379.846,-171 412.191,-156.437 436.714,-121.539 449.544,-99.7272"/>
<polygon fill="midnightblue" stroke="midnightblue" points="452.744,-101.177 454.602,-90.7467 446.645,-97.7423 452.744,-101.177"/>
</g>
<!-- Node2 -->
<g id="node3" class="node"><title>Node2</title>
<g id="a_node3"><a xlink:href="namespaceprecipitation____method__of__fragments.html#a8333b8ad450ca979b691760de96116b8" target="_top" xlink:title="precipitation__method\l_of_fragments::process\l_fragment_sets">
<polygon fill="white" stroke="black" points="229.635,-120.5 229.635,-161.5 360.582,-161.5 360.582,-120.5 229.635,-120.5"/>
<text text-anchor="start" x="237.635" y="-148.7" font-family="Helvetica,sans-Serif" font-size="11.00">precipitation__method</text>
<text text-anchor="start" x="237.635" y="-137.7" font-family="Helvetica,sans-Serif" font-size="11.00">_of_fragments::process</text>
<text text-anchor="middle" x="295.109" y="-126.7" font-family="Helvetica,sans-Serif" font-size="11.00">_fragment_sets</text>
</a>
</g>
</g>
<!-- Node0&#45;&gt;Node2 -->
<g id="edge2" class="edge"><title>Node0&#45;&gt;Node2</title>
<path fill="none" stroke="midnightblue" d="M174.621,-123.592C189.555,-125.768 204.966,-128.013 219.552,-130.138"/>
<polygon fill="midnightblue" stroke="midnightblue" points="219.101,-133.609 229.502,-131.588 220.111,-126.682 219.101,-133.609"/>
</g>
<!-- Node3 -->
<g id="node4" class="node"><title>Node3</title>
<g id="a_node4"><a xlink:href="namespaceprecipitation____method__of__fragments.html#a6f207f0d60f30bad39d043050c1d2fc9" target="_top" xlink:title="precipitation__method\l_of_fragments::read_daily\l_fragments">
<polygon fill="white" stroke="black" points="223.515,-60.5 223.515,-101.5 366.703,-101.5 366.703,-60.5 223.515,-60.5"/>
<text text-anchor="start" x="231.515" y="-88.7" font-family="Helvetica,sans-Serif" font-size="11.00">precipitation__method</text>
<text text-anchor="start" x="231.515" y="-77.7" font-family="Helvetica,sans-Serif" font-size="11.00">_of_fragments::read_daily</text>
<text text-anchor="middle" x="295.109" y="-66.7" font-family="Helvetica,sans-Serif" font-size="11.00">_fragments</text>
</a>
</g>
</g>
<!-- Node0&#45;&gt;Node3 -->
<g id="edge3" class="edge"><title>Node0&#45;&gt;Node3</title>
<path fill="none" stroke="midnightblue" d="M174.621,-98.4077C187.474,-96.5351 200.681,-94.6112 213.41,-92.7567"/>
<polygon fill="midnightblue" stroke="midnightblue" points="214.11,-96.1917 223.501,-91.2866 213.101,-89.2649 214.11,-96.1917"/>
</g>
<!-- Node4 -->
<g id="node5" class="node"><title>Node4</title>
<g id="a_node5"><a xlink:href="namespaceprecipitation____method__of__fragments.html#a56afd260110a51be20bea090f78a2d83" target="_top" xlink:title="precipitation__method\l_of_fragments::read_fragments\l_sequence">
<polygon fill="white" stroke="black" points="210.372,-0.5 210.372,-41.5 379.846,-41.5 379.846,-0.5 210.372,-0.5"/>
<text text-anchor="start" x="218.372" y="-28.7" font-family="Helvetica,sans-Serif" font-size="11.00">precipitation__method</text>
<text text-anchor="start" x="218.372" y="-17.7" font-family="Helvetica,sans-Serif" font-size="11.00">_of_fragments::read_fragments</text>
<text text-anchor="middle" x="295.109" y="-6.7" font-family="Helvetica,sans-Serif" font-size="11.00">_sequence</text>
</a>
</g>
</g>
<!-- Node0&#45;&gt;Node4 -->
<g id="edge5" class="edge"><title>Node0&#45;&gt;Node4</title>
<path fill="none" stroke="midnightblue" d="M127.285,-90.4027C151.012,-78.256 182.078,-62.9706 210.372,-51 214.848,-49.1065 219.488,-47.2252 224.185,-45.3818"/>
<polygon fill="midnightblue" stroke="midnightblue" points="225.793,-48.5134 233.872,-41.6591 223.282,-41.9793 225.793,-48.5134"/>
</g>
<!-- Node3&#45;&gt;Node1 -->
<g id="edge4" class="edge"><title>Node3&#45;&gt;Node1</title>
<path fill="none" stroke="midnightblue" d="M366.84,-81C379.78,-81 393.094,-81 405.452,-81"/>
<polygon fill="midnightblue" stroke="midnightblue" points="405.579,-84.5001 415.579,-81 405.579,-77.5001 405.579,-84.5001"/>
</g>
<!-- Node4&#45;&gt;Node1 -->
<g id="edge6" class="edge"><title>Node4&#45;&gt;Node1</title>
<path fill="none" stroke="midnightblue" d="M353.811,-41.5357C362.542,-44.6828 371.438,-47.9117 379.846,-51 394.585,-56.4143 410.812,-62.5003 424.755,-67.7685"/>
<polygon fill="midnightblue" stroke="midnightblue" points="423.859,-71.1715 434.45,-71.4387 426.337,-64.6249 423.859,-71.1715"/>
</g>
</g>
</svg>
