<?xml version="1.0" encoding="UTF-8" standalone="no"?>
<!DOCTYPE svg PUBLIC "-//W3C//DTD SVG 1.1//EN"
 "http://www.w3.org/Graphics/SVG/1.1/DTD/svg11.dtd">
<!-- Generated by graphviz version 2.38.0 (20140413.2041)
 -->
<!-- Title: netcdf4_support::nf_return_native_coord_bounds Pages: 1 -->
<!--zoomable 133 -->
<svg id="main" version="1.1" xmlns="http://www.w3.org/2000/svg" xmlns:xlink="http://www.w3.org/1999/xlink" xml:space="preserve" onload="init(evt)">
<style type="text/css"><![CDATA[
.edge:hover path { stroke: red; }
.edge:hover polygon { stroke: red; fill: red; }
]]></style>
<script type="text/javascript"><![CDATA[
var edges = document.getElementsByTagName('g');
if (edges && edges.length) {
  for (var i=0;i<edges.length;i++) {
    if (edges[i].id.substr(0,4)=='edge') {
      edges[i].setAttribute('class','edge');
    }
  }
}
]]></script>
        <defs>
                <circle id="rim" cx="0" cy="0" r="7"/>
                <circle id="rim2" cx="0" cy="0" r="3.5"/>
                <g id="zoomPlus">
                        <use xlink:href="#rim" fill="#404040">
                                <set attributeName="fill" to="#808080" begin="zoomplus.mouseover" end="zoomplus.mouseout"/>
                        </use>
                        <path d="M-4,0h8M0,-4v8" fill="none" stroke="white" stroke-width="1.5" pointer-events="none"/>
                </g>
                <g id="zoomMin">
                        <use xlink:href="#rim" fill="#404040">
                                <set attributeName="fill" to="#808080" begin="zoomminus.mouseover" end="zoomminus.mouseout"/>
                        </use>
                        <path d="M-4,0h8" fill="none" stroke="white" stroke-width="1.5" pointer-events="none"/>
                </g>
                <g id="dirArrow">
                        <path fill="none" stroke="white" stroke-width="1.5" d="M0,-3.0v7 M-2.5,-0.5L0,-3.0L2.5,-0.5"/>
                </g>
               <g id="resetDef">
                       <use xlink:href="#rim2" fill="#404040">
                               <set attributeName="fill" to="#808080" begin="reset.mouseover" end="reset.mouseout"/>
                       </use>
               </g>
        </defs>

<script type="text/javascript">
var viewWidth = 669;
var viewHeight = 133;
var sectionId = 'dynsection-16';
</script>
<script xlink:href="svgpan.js"/>
<svg id="graph" class="graph">
<g id="viewport">
<title>netcdf4_support::nf_return_native_coord_bounds</title>
<polygon fill="white" stroke="none" points="-4,4 -4,-129 665.253,-129 665.253,4 -4,4"/>
<!-- Node174 -->
<g id="node1" class="node"><title>Node174</title>
<polygon fill="#bfbfbf" stroke="black" points="0,-27.5 0,-68.5 119.958,-68.5 119.958,-27.5 0,-27.5"/>
<text text-anchor="start" x="8" y="-55.7" font-family="Helvetica,sans-Serif" font-size="11.00">netcdf4_support::nf</text>
<text text-anchor="start" x="8" y="-44.7" font-family="Helvetica,sans-Serif" font-size="11.00">_return_native_coord</text>
<text text-anchor="middle" x="59.9788" y="-33.7" font-family="Helvetica,sans-Serif" font-size="11.00">_bounds</text>
</g>
<!-- Node175 -->
<g id="node2" class="node"><title>Node175</title>
<g id="a_node2"><a xlink:href="namespacenetcdf4__support.html#a6d3d402059d71a8bd24a01dc6116ff7d" target="_top" xlink:title="netcdf4_support::netcdf\l_open_and_prepare_as_input">
<polygon fill="white" stroke="black" points="155.958,-61 155.958,-91 318.755,-91 318.755,-61 155.958,-61"/>
<text text-anchor="start" x="163.958" y="-78.2" font-family="Helvetica,sans-Serif" font-size="11.00">netcdf4_support::netcdf</text>
<text text-anchor="middle" x="237.356" y="-67.2" font-family="Helvetica,sans-Serif" font-size="11.00">_open_and_prepare_as_input</text>
</a>
</g>
</g>
<!-- Node174&#45;&gt;Node175 -->
<g id="edge1" class="edge"><title>Node174&#45;&gt;Node175</title>
<path fill="none" stroke="midnightblue" d="M130.422,-59.087C138.788,-60.4227 147.387,-61.7955 155.894,-63.1537"/>
<polygon fill="midnightblue" stroke="midnightblue" points="130.78,-55.6 120.354,-57.4795 129.677,-62.5124 130.78,-55.6"/>
</g>
<!-- Node179 -->
<g id="node6" class="node"><title>Node179</title>
<g id="a_node6"><a xlink:href="namespacenetcdf4__support.html#a8be734b602e654816c17b5e27d0fbffb" target="_top" xlink:title="netcdf4_support::netcdf\l_open_and_prepare_for\l_merging">
<polygon fill="white" stroke="black" points="170.333,-0.5 170.333,-41.5 304.379,-41.5 304.379,-0.5 170.333,-0.5"/>
<text text-anchor="start" x="178.333" y="-28.7" font-family="Helvetica,sans-Serif" font-size="11.00">netcdf4_support::netcdf</text>
<text text-anchor="start" x="178.333" y="-17.7" font-family="Helvetica,sans-Serif" font-size="11.00">_open_and_prepare_for</text>
<text text-anchor="middle" x="237.356" y="-6.7" font-family="Helvetica,sans-Serif" font-size="11.00">_merging</text>
</a>
</g>
</g>
<!-- Node174&#45;&gt;Node179 -->
<g id="edge6" class="edge"><title>Node174&#45;&gt;Node179</title>
<path fill="none" stroke="midnightblue" d="M130.257,-37.3344C143.381,-35.3139 157.081,-33.2048 170.108,-31.1991"/>
<polygon fill="midnightblue" stroke="midnightblue" points="129.705,-33.8781 120.354,-38.859 130.77,-40.7966 129.705,-33.8781"/>
</g>
<!-- Node176 -->
<g id="node3" class="node"><title>Node176</title>
<g id="a_node3"><a xlink:href="namespacedata__catalog__entry.html#aeb285131f87ed64deba0a9041a9c6405" target="_top" xlink:title="data_catalog_entry\l::getvalues_dynamic\l_netcdf_sub">
<polygon fill="white" stroke="black" points="377.08,-83.5 377.08,-124.5 493.358,-124.5 493.358,-83.5 377.08,-83.5"/>
<text text-anchor="start" x="385.08" y="-111.7" font-family="Helvetica,sans-Serif" font-size="11.00">data_catalog_entry</text>
<text text-anchor="start" x="385.08" y="-100.7" font-family="Helvetica,sans-Serif" font-size="11.00">::getvalues_dynamic</text>
<text text-anchor="middle" x="435.219" y="-89.7" font-family="Helvetica,sans-Serif" font-size="11.00">_netcdf_sub</text>
</a>
</g>
</g>
<!-- Node175&#45;&gt;Node176 -->
<g id="edge2" class="edge"><title>Node175&#45;&gt;Node176</title>
<path fill="none" stroke="midnightblue" d="M329.002,-88.9585C345.359,-91.2968 361.988,-93.6741 377.052,-95.8275"/>
<polygon fill="midnightblue" stroke="midnightblue" points="329.264,-85.4604 318.869,-87.5099 328.273,-92.3899 329.264,-85.4604"/>
</g>
<!-- Node178 -->
<g id="node5" class="node"><title>Node178</title>
<g id="a_node5"><a xlink:href="namespacedata__catalog__entry.html#ac3e1f0d9d9e146fbb77c0084e1e9fc14" target="_top" xlink:title="data_catalog_entry\l::getvalues_static_netcdf_sub">
<polygon fill="white" stroke="black" points="354.755,-34 354.755,-64 515.683,-64 515.683,-34 354.755,-34"/>
<text text-anchor="start" x="362.755" y="-51.2" font-family="Helvetica,sans-Serif" font-size="11.00">data_catalog_entry</text>
<text text-anchor="middle" x="435.219" y="-40.2" font-family="Helvetica,sans-Serif" font-size="11.00">::getvalues_static_netcdf_sub</text>
</a>
</g>
</g>
<!-- Node175&#45;&gt;Node178 -->
<g id="edge4" class="edge"><title>Node175&#45;&gt;Node178</title>
<path fill="none" stroke="midnightblue" d="M328.907,-63.5175C337.501,-62.3327 346.171,-61.1375 354.651,-59.9686"/>
<polygon fill="midnightblue" stroke="midnightblue" points="328.297,-60.0683 318.869,-64.9012 329.253,-67.0027 328.297,-60.0683"/>
</g>
<!-- Node177 -->
<g id="node4" class="node"><title>Node177</title>
<g id="a_node4"><a xlink:href="namespacedata__catalog__entry.html#a9e0a89ab19a5bfd61f2dfb8265648234" target="_top" xlink:title="data_catalog_entry\l::getvalues_sub">
<polygon fill="white" stroke="black" points="551.683,-61 551.683,-91 661.253,-91 661.253,-61 551.683,-61"/>
<text text-anchor="start" x="559.683" y="-78.2" font-family="Helvetica,sans-Serif" font-size="11.00">data_catalog_entry</text>
<text text-anchor="middle" x="606.468" y="-67.2" font-family="Helvetica,sans-Serif" font-size="11.00">::getvalues_sub</text>
</a>
</g>
</g>
<!-- Node176&#45;&gt;Node177 -->
<g id="edge3" class="edge"><title>Node176&#45;&gt;Node177</title>
<path fill="none" stroke="midnightblue" d="M503.822,-92.8161C519.721,-90.1858 536.456,-87.4172 551.655,-84.9027"/>
<polygon fill="midnightblue" stroke="midnightblue" points="502.814,-89.4351 493.519,-94.5205 503.956,-96.3413 502.814,-89.4351"/>
</g>
<!-- Node178&#45;&gt;Node177 -->
<g id="edge5" class="edge"><title>Node178&#45;&gt;Node177</title>
<path fill="none" stroke="midnightblue" d="M526.025,-63.3267C534.652,-64.7028 543.206,-66.0674 551.327,-67.3631"/>
<polygon fill="midnightblue" stroke="midnightblue" points="526.314,-59.8285 515.888,-61.7094 525.211,-66.7411 526.314,-59.8285"/>
</g>
</g>
</svg>
        <g id="navigator" transform="translate(0 0)" fill="#404254">
                <rect fill="#f2f5e9" fill-opacity="0.5" stroke="#606060" stroke-width=".5" x="0" y="0" width="60" height="60"/>
                <use id="zoomplus" xlink:href="#zoomPlus" x="17" y="9" onmousedown="handleZoom(evt,'in')"/>
                <use id="zoomminus" xlink:href="#zoomMin" x="42" y="9" onmousedown="handleZoom(evt,'out')"/>
                <use id="reset" xlink:href="#resetDef" x="30" y="36" onmousedown="handleReset()"/>
                <g id="arrowUp" xlink:href="#dirArrow" transform="translate(30 24)" onmousedown="handlePan(0,-1)">
                  <use xlink:href="#rim" fill="#404040">
                        <set attributeName="fill" to="#808080" begin="arrowUp.mouseover" end="arrowUp.mouseout"/>
                  </use>
                  <path fill="none" stroke="white" stroke-width="1.5" d="M0,-3.0v7 M-2.5,-0.5L0,-3.0L2.5,-0.5"/>
                </g>
                <g id="arrowRight" xlink:href="#dirArrow" transform="rotate(90) translate(36 -43)" onmousedown="handlePan(1,0)">
                  <use xlink:href="#rim" fill="#404040">
                        <set attributeName="fill" to="#808080" begin="arrowRight.mouseover" end="arrowRight.mouseout"/>
                  </use>
                  <path fill="none" stroke="white" stroke-width="1.5" d="M0,-3.0v7 M-2.5,-0.5L0,-3.0L2.5,-0.5"/>
                </g>
                <g id="arrowDown" xlink:href="#dirArrow" transform="rotate(180) translate(-30 -48)" onmousedown="handlePan(0,1)">
                  <use xlink:href="#rim" fill="#404040">
                        <set attributeName="fill" to="#808080" begin="arrowDown.mouseover" end="arrowDown.mouseout"/>
                  </use>
                  <path fill="none" stroke="white" stroke-width="1.5" d="M0,-3.0v7 M-2.5,-0.5L0,-3.0L2.5,-0.5"/>
                </g>
                <g id="arrowLeft" xlink:href="#dirArrow" transform="rotate(270) translate(-36 17)" onmousedown="handlePan(-1,0)">
                  <use xlink:href="#rim" fill="#404040">
                        <set attributeName="fill" to="#808080" begin="arrowLeft.mouseover" end="arrowLeft.mouseout"/>
                  </use>
                  <path fill="none" stroke="white" stroke-width="1.5" d="M0,-3.0v7 M-2.5,-0.5L0,-3.0L2.5,-0.5"/>
                </g>
        </g>
        <svg viewBox="0 0 15 15" width="100%" height="30px" preserveAspectRatio="xMaxYMin meet">
         <g id="arrow_out" transform="scale(0.3 0.3)">
          <a xlink:href="namespacenetcdf4__support_ad4700c77a73aad3eebef236d3cfb8f07_icgraph_org.svg" target="_base">
           <rect id="button" ry="5" rx="5" y="6" x="6" height="38" width="38"
                fill="#f2f5e9" fill-opacity="0.5" stroke="#606060" stroke-width="1.0"/>
           <path id="arrow"
             d="M 11.500037,31.436501 C 11.940474,20.09759 22.043105,11.32322 32.158766,21.979434 L 37.068811,17.246167 C 37.068811,17.246167 37.088388,32 37.088388,32 L 22.160133,31.978069 C 22.160133,31.978069 26.997745,27.140456 26.997745,27.140456 C 18.528582,18.264221 13.291696,25.230495 11.500037,31.436501 z"
             style="fill:#404040;"/>
          </a>
         </g>
        </svg>
</svg>
