<?xml version="1.0" encoding="UTF-8" standalone="no"?>
<!DOCTYPE svg PUBLIC "-//W3C//DTD SVG 1.1//EN"
 "http://www.w3.org/Graphics/SVG/1.1/DTD/svg11.dtd">
<!-- Generated by graphviz version 2.38.0 (20140413.2041)
 -->
<!-- Title: netcdf4_support::nf_put_lat_and_lon Pages: 1 -->
<!--zoomable 39 -->
<svg id="main" version="1.1" xmlns="http://www.w3.org/2000/svg" xmlns:xlink="http://www.w3.org/1999/xlink" xml:space="preserve" onload="init(evt)">
<style type="text/css"><![CDATA[
.edge:hover path { stroke: red; }
.edge:hover polygon { stroke: red; fill: red; }
]]></style>
<script type="text/javascript"><![CDATA[
var edges = document.getElementsByTagName('g');
if (edges && edges.length) {
  for (var i=0;i<edges.length;i++) {
    if (edges[i].id.substr(0,4)=='edge') {
      edges[i].setAttribute('class','edge');
    }
  }
}
]]></script>
        <defs>
                <circle id="rim" cx="0" cy="0" r="7"/>
                <circle id="rim2" cx="0" cy="0" r="3.5"/>
                <g id="zoomPlus">
                        <use xlink:href="#rim" fill="#404040">
                                <set attributeName="fill" to="#808080" begin="zoomplus.mouseover" end="zoomplus.mouseout"/>
                        </use>
                        <path d="M-4,0h8M0,-4v8" fill="none" stroke="white" stroke-width="1.5" pointer-events="none"/>
                </g>
                <g id="zoomMin">
                        <use xlink:href="#rim" fill="#404040">
                                <set attributeName="fill" to="#808080" begin="zoomminus.mouseover" end="zoomminus.mouseout"/>
                        </use>
                        <path d="M-4,0h8" fill="none" stroke="white" stroke-width="1.5" pointer-events="none"/>
                </g>
                <g id="dirArrow">
                        <path fill="none" stroke="white" stroke-width="1.5" d="M0,-3.0v7 M-2.5,-0.5L0,-3.0L2.5,-0.5"/>
                </g>
               <g id="resetDef">
                       <use xlink:href="#rim2" fill="#404040">
                               <set attributeName="fill" to="#808080" begin="reset.mouseover" end="reset.mouseout"/>
                       </use>
               </g>
        </defs>

<script type="text/javascript">
var viewWidth = 645;
var viewHeight = 39;
var sectionId = 'dynsection-92';
</script>
<script xlink:href="svgpan.js"/>
<svg id="graph" class="graph">
<g id="viewport">
<title>netcdf4_support::nf_put_lat_and_lon</title>
<polygon fill="white" stroke="none" points="-4,4 -4,-35 640.761,-35 640.761,4 -4,4"/>
<!-- Node663 -->
<g id="node1" class="node"><title>Node663</title>
<polygon fill="#bfbfbf" stroke="black" points="0,-0.5 0,-30.5 110.177,-30.5 110.177,-0.5 0,-0.5"/>
<text text-anchor="start" x="8" y="-17.7" font-family="Helvetica,sans-Serif" font-size="11.00">netcdf4_support::nf</text>
<text text-anchor="middle" x="55.0884" y="-6.7" font-family="Helvetica,sans-Serif" font-size="11.00">_put_lat_and_lon</text>
</g>
<!-- Node664 -->
<g id="node2" class="node"><title>Node664</title>
<g id="a_node2"><a xlink:href="namespacenetcdf4__support.html#a333198b161c1377afd5dcf5fd4e66713" target="_top" xlink:title="netcdf4_support::netcdf\l_put_variable_array">
<polygon fill="white" stroke="black" points="146.177,-0.5 146.177,-30.5 277.145,-30.5 277.145,-0.5 146.177,-0.5"/>
<text text-anchor="start" x="154.177" y="-17.7" font-family="Helvetica,sans-Serif" font-size="11.00">netcdf4_support::netcdf</text>
<text text-anchor="middle" x="211.661" y="-6.7" font-family="Helvetica,sans-Serif" font-size="11.00">_put_variable_array</text>
</a>
</g>
</g>
<!-- Node663&#45;&gt;Node664 -->
<g id="edge1" class="edge"><title>Node663&#45;&gt;Node664</title>
<path fill="none" stroke="midnightblue" d="M110.585,-15.5C118.831,-15.5 127.458,-15.5 136.041,-15.5"/>
<polygon fill="midnightblue" stroke="midnightblue" points="136.07,-19.0001 146.07,-15.5 136.07,-12.0001 136.07,-19.0001"/>
</g>
<!-- Node665 -->
<g id="node3" class="node"><title>Node665</title>
<g id="a_node3"><a xlink:href="namespacenetcdf4__support.html#ac8c7276a5849ae6d17ffef1787e3f234" target="_top" xlink:title="netcdf4_support::nf_trap">
<polygon fill="white" stroke="black" points="313.145,-6 313.145,-25 448.394,-25 448.394,-6 313.145,-6"/>
<text text-anchor="middle" x="380.77" y="-12.2" font-family="Helvetica,sans-Serif" font-size="11.00">netcdf4_support::nf_trap</text>
</a>
</g>
</g>
<!-- Node664&#45;&gt;Node665 -->
<g id="edge2" class="edge"><title>Node664&#45;&gt;Node665</title>
<path fill="none" stroke="midnightblue" d="M277.269,-15.5C285.719,-15.5 294.442,-15.5 303.066,-15.5"/>
<polygon fill="midnightblue" stroke="midnightblue" points="303.124,-19.0001 313.123,-15.5 303.123,-12.0001 303.124,-19.0001"/>
</g>
<!-- Node666 -->
<g id="node4" class="node"><title>Node666</title>
<g id="a_node4"><a xlink:href="namespaceconstants__and__conversions.html#ac13fba285229deab77131132e6f62caf" target="_top" xlink:title="constants_and_conversions\l::char_ptr_to_fortran_string">
<polygon fill="white" stroke="black" points="484.394,-0.5 484.394,-30.5 636.761,-30.5 636.761,-0.5 484.394,-0.5"/>
<text text-anchor="start" x="492.394" y="-17.7" font-family="Helvetica,sans-Serif" font-size="11.00">constants_and_conversions</text>
<text text-anchor="middle" x="560.577" y="-6.7" font-family="Helvetica,sans-Serif" font-size="11.00">::char_ptr_to_fortran_string</text>
</a>
</g>
</g>
<!-- Node665&#45;&gt;Node666 -->
<g id="edge3" class="edge"><title>Node665&#45;&gt;Node666</title>
<path fill="none" stroke="midnightblue" d="M448.484,-15.5C456.842,-15.5 465.479,-15.5 474.074,-15.5"/>
<polygon fill="midnightblue" stroke="midnightblue" points="474.125,-19.0001 484.125,-15.5 474.124,-12.0001 474.125,-19.0001"/>
</g>
</g>
</svg>
        <g id="navigator" transform="translate(0 0)" fill="#404254">
                <rect fill="#f2f5e9" fill-opacity="0.5" stroke="#606060" stroke-width=".5" x="0" y="0" width="60" height="60"/>
                <use id="zoomplus" xlink:href="#zoomPlus" x="17" y="9" onmousedown="handleZoom(evt,'in')"/>
                <use id="zoomminus" xlink:href="#zoomMin" x="42" y="9" onmousedown="handleZoom(evt,'out')"/>
                <use id="reset" xlink:href="#resetDef" x="30" y="36" onmousedown="handleReset()"/>
                <g id="arrowUp" xlink:href="#dirArrow" transform="translate(30 24)" onmousedown="handlePan(0,-1)">
                  <use xlink:href="#rim" fill="#404040">
                        <set attributeName="fill" to="#808080" begin="arrowUp.mouseover" end="arrowUp.mouseout"/>
                  </use>
                  <path fill="none" stroke="white" stroke-width="1.5" d="M0,-3.0v7 M-2.5,-0.5L0,-3.0L2.5,-0.5"/>
                </g>
                <g id="arrowRight" xlink:href="#dirArrow" transform="rotate(90) translate(36 -43)" onmousedown="handlePan(1,0)">
                  <use xlink:href="#rim" fill="#404040">
                        <set attributeName="fill" to="#808080" begin="arrowRight.mouseover" end="arrowRight.mouseout"/>
                  </use>
                  <path fill="none" stroke="white" stroke-width="1.5" d="M0,-3.0v7 M-2.5,-0.5L0,-3.0L2.5,-0.5"/>
                </g>
                <g id="arrowDown" xlink:href="#dirArrow" transform="rotate(180) translate(-30 -48)" onmousedown="handlePan(0,1)">
                  <use xlink:href="#rim" fill="#404040">
                        <set attributeName="fill" to="#808080" begin="arrowDown.mouseover" end="arrowDown.mouseout"/>
                  </use>
                  <path fill="none" stroke="white" stroke-width="1.5" d="M0,-3.0v7 M-2.5,-0.5L0,-3.0L2.5,-0.5"/>
                </g>
                <g id="arrowLeft" xlink:href="#dirArrow" transform="rotate(270) translate(-36 17)" onmousedown="handlePan(-1,0)">
                  <use xlink:href="#rim" fill="#404040">
                        <set attributeName="fill" to="#808080" begin="arrowLeft.mouseover" end="arrowLeft.mouseout"/>
                  </use>
                  <path fill="none" stroke="white" stroke-width="1.5" d="M0,-3.0v7 M-2.5,-0.5L0,-3.0L2.5,-0.5"/>
                </g>
        </g>
        <svg viewBox="0 0 15 15" width="100%" height="30px" preserveAspectRatio="xMaxYMin meet">
         <g id="arrow_out" transform="scale(0.3 0.3)">
          <a xlink:href="namespacenetcdf4__support_a55a403a10b71ab041dce8511b769f069_cgraph_org.svg" target="_base">
           <rect id="button" ry="5" rx="5" y="6" x="6" height="38" width="38"
                fill="#f2f5e9" fill-opacity="0.5" stroke="#606060" stroke-width="1.0"/>
           <path id="arrow"
             d="M 11.500037,31.436501 C 11.940474,20.09759 22.043105,11.32322 32.158766,21.979434 L 37.068811,17.246167 C 37.068811,17.246167 37.088388,32 37.088388,32 L 22.160133,31.978069 C 22.160133,31.978069 26.997745,27.140456 26.997745,27.140456 C 18.528582,18.264221 13.291696,25.230495 11.500037,31.436501 z"
             style="fill:#404040;"/>
          </a>
         </g>
        </svg>
</svg>
