<?xml version="1.0" encoding="UTF-8" standalone="no"?>
<!DOCTYPE svg PUBLIC "-//W3C//DTD SVG 1.1//EN"
 "http://www.w3.org/Graphics/SVG/1.1/DTD/svg11.dtd">
<!-- Generated by graphviz version 2.38.0 (20140413.2041)
 -->
<!-- Title: model_initialize::initialize_percent_pervious Pages: 1 -->
<svg width="582pt" height="39pt"
 viewBox="0.00 0.00 582.31 39.00" xmlns="http://www.w3.org/2000/svg" xmlns:xlink="http://www.w3.org/1999/xlink">
<g id="graph0" class="graph" transform="scale(1 1) rotate(0) translate(4 35)">
<title>model_initialize::initialize_percent_pervious</title>
<polygon fill="white" stroke="none" points="-4,4 -4,-35 578.306,-35 578.306,4 -4,4"/>
<!-- Node1 -->
<g id="node1" class="node"><title>Node1</title>
<polygon fill="#bfbfbf" stroke="black" points="0,-0.5 0,-30.5 136.447,-30.5 136.447,-0.5 0,-0.5"/>
<text text-anchor="start" x="8" y="-17.7" font-family="Helvetica,sans-Serif" font-size="11.00">model_initialize::initialize</text>
<text text-anchor="middle" x="68.2234" y="-6.7" font-family="Helvetica,sans-Serif" font-size="11.00">_percent_pervious</text>
</g>
<!-- Node2 -->
<g id="node2" class="node"><title>Node2</title>
<g id="a_node2"><a xlink:href="namespacemodel__initialize.html#a39e959b59f3ec67f64a1b37a5b30ebc2" target="_top" xlink:title="model_initialize::initialize\l_ancillary_values">
<polygon fill="white" stroke="black" points="172.447,-0.5 172.447,-30.5 308.894,-30.5 308.894,-0.5 172.447,-0.5"/>
<text text-anchor="start" x="180.447" y="-17.7" font-family="Helvetica,sans-Serif" font-size="11.00">model_initialize::initialize</text>
<text text-anchor="middle" x="240.67" y="-6.7" font-family="Helvetica,sans-Serif" font-size="11.00">_ancillary_values</text>
</a>
</g>
</g>
<!-- Node1&#45;&gt;Node2 -->
<g id="edge1" class="edge"><title>Node1&#45;&gt;Node2</title>
<path fill="none" stroke="midnightblue" d="M146.851,-15.5C155.325,-15.5 163.899,-15.5 172.236,-15.5"/>
<polygon fill="midnightblue" stroke="midnightblue" points="146.589,-12.0001 136.588,-15.5 146.588,-19.0001 146.589,-12.0001"/>
</g>
<!-- Node3 -->
<g id="node3" class="node"><title>Node3</title>
<g id="a_node3"><a xlink:href="namespacemodel__initialize.html#a46370bf2e9ea112d1f219277ba7fd3ce" target="_top" xlink:title="model_initialize::initialize_all">
<polygon fill="white" stroke="black" points="344.894,-6 344.894,-25 498.463,-25 498.463,-6 344.894,-6"/>
<text text-anchor="middle" x="421.678" y="-12.2" font-family="Helvetica,sans-Serif" font-size="11.00">model_initialize::initialize_all</text>
</a>
</g>
</g>
<!-- Node2&#45;&gt;Node3 -->
<g id="edge2" class="edge"><title>Node2&#45;&gt;Node3</title>
<path fill="none" stroke="midnightblue" d="M319.258,-15.5C327.668,-15.5 336.221,-15.5 344.613,-15.5"/>
<polygon fill="midnightblue" stroke="midnightblue" points="319.09,-12.0001 309.09,-15.5 319.09,-19.0001 319.09,-12.0001"/>
</g>
<!-- Node4 -->
<g id="node4" class="node"><title>Node4</title>
<g id="a_node4"><a xlink:href="main_8F90.html#a8ec2266d83cd6c0b762cbcbc92c0af3d" target="_top" xlink:title="Main program which references all other modules; execution begins here. ">
<polygon fill="white" stroke="black" points="534.463,-6 534.463,-25 574.306,-25 574.306,-6 534.463,-6"/>
<text text-anchor="middle" x="554.385" y="-12.2" font-family="Helvetica,sans-Serif" font-size="11.00">main</text>
</a>
</g>
</g>
<!-- Node3&#45;&gt;Node4 -->
<g id="edge3" class="edge"><title>Node3&#45;&gt;Node4</title>
<path fill="none" stroke="midnightblue" d="M508.803,-15.5C518.298,-15.5 527.14,-15.5 534.405,-15.5"/>
<polygon fill="midnightblue" stroke="midnightblue" points="508.711,-12.0001 498.711,-15.5 508.711,-19.0001 508.711,-12.0001"/>
</g>
</g>
</svg>
