<?xml version="1.0" encoding="UTF-8" standalone="no"?>
<!DOCTYPE svg PUBLIC "-//W3C//DTD SVG 1.1//EN"
 "http://www.w3.org/Graphics/SVG/1.1/DTD/svg11.dtd">
<!-- Generated by graphviz version 2.38.0 (20140413.2041)
 -->
<!-- Title: maximum_potential_recharge__gridded_data::maximum_potential_recharge_calculate Pages: 1 -->
<svg width="374pt" height="50pt"
 viewBox="0.00 0.00 373.79 50.00" xmlns="http://www.w3.org/2000/svg" xmlns:xlink="http://www.w3.org/1999/xlink">
<g id="graph0" class="graph" transform="scale(1 1) rotate(0) translate(4 46)">
<title>maximum_potential_recharge__gridded_data::maximum_potential_recharge_calculate</title>
<polygon fill="white" stroke="none" points="-4,4 -4,-46 369.795,-46 369.795,4 -4,4"/>
<!-- Node1 -->
<g id="node1" class="node"><title>Node1</title>
<polygon fill="#bfbfbf" stroke="black" points="0,-0.5 0,-41.5 162.771,-41.5 162.771,-0.5 0,-0.5"/>
<text text-anchor="start" x="8" y="-28.7" font-family="Helvetica,sans-Serif" font-size="11.00">maximum_potential_recharge</text>
<text text-anchor="start" x="8" y="-17.7" font-family="Helvetica,sans-Serif" font-size="11.00">__gridded_data::maximum</text>
<text text-anchor="middle" x="81.3853" y="-6.7" font-family="Helvetica,sans-Serif" font-size="11.00">_potential_recharge_calculate</text>
</g>
<!-- Node2 -->
<g id="node2" class="node"><title>Node2</title>
<g id="a_node2"><a xlink:href="namespacemodel__domain.html#a35d307a6b172f29f1ba2fc4f2e1077d5" target="_top" xlink:title="model_domain::model\l_calculate_maximum_potential\l_recharge_gridded">
<polygon fill="white" stroke="black" points="198.771,-0.5 198.771,-41.5 365.795,-41.5 365.795,-0.5 198.771,-0.5"/>
<text text-anchor="start" x="206.771" y="-28.7" font-family="Helvetica,sans-Serif" font-size="11.00">model_domain::model</text>
<text text-anchor="start" x="206.771" y="-17.7" font-family="Helvetica,sans-Serif" font-size="11.00">_calculate_maximum_potential</text>
<text text-anchor="middle" x="282.283" y="-6.7" font-family="Helvetica,sans-Serif" font-size="11.00">_recharge_gridded</text>
</a>
</g>
</g>
<!-- Node1&#45;&gt;Node2 -->
<g id="edge1" class="edge"><title>Node1&#45;&gt;Node2</title>
<path fill="none" stroke="midnightblue" d="M173.251,-21C181.704,-21 190.241,-21 198.614,-21"/>
<polygon fill="midnightblue" stroke="midnightblue" points="172.998,-17.5001 162.998,-21 172.998,-24.5001 172.998,-17.5001"/>
</g>
</g>
</svg>
