<?xml version="1.0" encoding="UTF-8" standalone="no"?>
<!DOCTYPE svg PUBLIC "-//W3C//DTD SVG 1.1//EN"
 "http://www.w3.org/Graphics/SVG/1.1/DTD/svg11.dtd">
<!-- Generated by graphviz version 2.38.0 (20140413.2041)
 -->
<!-- Title: mass_balance__impervious_surface::calculate_impervious_surface_mass_balance Pages: 1 -->
<svg width="592pt" height="50pt"
 viewBox="0.00 0.00 592.10 50.00" xmlns="http://www.w3.org/2000/svg" xmlns:xlink="http://www.w3.org/1999/xlink">
<g id="graph0" class="graph" transform="scale(1 1) rotate(0) translate(4 46)">
<title>mass_balance__impervious_surface::calculate_impervious_surface_mass_balance</title>
<polygon fill="white" stroke="none" points="-4,4 -4,-46 588.103,-46 588.103,4 -4,4"/>
<!-- Node1 -->
<g id="node1" class="node"><title>Node1</title>
<polygon fill="#bfbfbf" stroke="black" points="0,-0.5 0,-41.5 167.019,-41.5 167.019,-0.5 0,-0.5"/>
<text text-anchor="start" x="8" y="-28.7" font-family="Helvetica,sans-Serif" font-size="11.00">mass_balance__impervious</text>
<text text-anchor="start" x="8" y="-17.7" font-family="Helvetica,sans-Serif" font-size="11.00">_surface::calculate_impervious</text>
<text text-anchor="middle" x="83.5095" y="-6.7" font-family="Helvetica,sans-Serif" font-size="11.00">_surface_mass_balance</text>
</g>
<!-- Node2 -->
<g id="node2" class="node"><title>Node2</title>
<g id="a_node2"><a xlink:href="namespacedaily__calculation.html#ac74b5b0ab616d2c459e1668bc36c1784" target="_top" xlink:title="daily_calculation::\lperform_daily_calculation">
<polygon fill="white" stroke="black" points="203.019,-6 203.019,-36 343.752,-36 343.752,-6 203.019,-6"/>
<text text-anchor="start" x="211.019" y="-23.2" font-family="Helvetica,sans-Serif" font-size="11.00">daily_calculation::</text>
<text text-anchor="middle" x="273.385" y="-12.2" font-family="Helvetica,sans-Serif" font-size="11.00">perform_daily_calculation</text>
</a>
</g>
</g>
<!-- Node1&#45;&gt;Node2 -->
<g id="edge1" class="edge"><title>Node1&#45;&gt;Node2</title>
<path fill="none" stroke="midnightblue" d="M177.28,-21C185.896,-21 194.526,-21 202.878,-21"/>
<polygon fill="midnightblue" stroke="midnightblue" points="177.188,-17.5001 167.188,-21 177.188,-24.5001 177.188,-17.5001"/>
</g>
<!-- Node3 -->
<g id="node3" class="node"><title>Node3</title>
<g id="a_node3"><a xlink:href="namespacemodel__iterate.html#a05e7db04d04d173186649ed80748a6a8" target="_top" xlink:title="model_iterate::iterate\l_over_simulation_days">
<polygon fill="white" stroke="black" points="379.752,-6 379.752,-36 508.26,-36 508.26,-6 379.752,-6"/>
<text text-anchor="start" x="387.752" y="-23.2" font-family="Helvetica,sans-Serif" font-size="11.00">model_iterate::iterate</text>
<text text-anchor="middle" x="444.006" y="-12.2" font-family="Helvetica,sans-Serif" font-size="11.00">_over_simulation_days</text>
</a>
</g>
</g>
<!-- Node2&#45;&gt;Node3 -->
<g id="edge2" class="edge"><title>Node2&#45;&gt;Node3</title>
<path fill="none" stroke="midnightblue" d="M353.967,-21C362.55,-21 371.198,-21 379.554,-21"/>
<polygon fill="midnightblue" stroke="midnightblue" points="353.944,-17.5001 343.943,-21 353.943,-24.5001 353.944,-17.5001"/>
</g>
<!-- Node4 -->
<g id="node4" class="node"><title>Node4</title>
<g id="a_node4"><a xlink:href="main_8F90.html#a8ec2266d83cd6c0b762cbcbc92c0af3d" target="_top" xlink:title="Main program which references all other modules; execution begins here. ">
<polygon fill="white" stroke="black" points="544.26,-11.5 544.26,-30.5 584.103,-30.5 584.103,-11.5 544.26,-11.5"/>
<text text-anchor="middle" x="564.181" y="-17.7" font-family="Helvetica,sans-Serif" font-size="11.00">main</text>
</a>
</g>
</g>
<!-- Node3&#45;&gt;Node4 -->
<g id="edge3" class="edge"><title>Node3&#45;&gt;Node4</title>
<path fill="none" stroke="midnightblue" d="M518.842,-21C528.146,-21 536.928,-21 544.183,-21"/>
<polygon fill="midnightblue" stroke="midnightblue" points="518.591,-17.5001 508.591,-21 518.591,-24.5001 518.591,-17.5001"/>
</g>
</g>
</svg>
