<?xml version="1.0" encoding="UTF-8" standalone="no"?>
<!DOCTYPE svg PUBLIC "-//W3C//DTD SVG 1.1//EN"
 "http://www.w3.org/Graphics/SVG/1.1/DTD/svg11.dtd">
<!-- Generated by graphviz version 2.38.0 (20140413.2041)
 -->
<!-- Title: continuous_frozen_ground_index::initialize_continuous_frozen_ground_index Pages: 1 -->
<svg width="296pt" height="50pt"
 viewBox="0.00 0.00 295.52 50.00" xmlns="http://www.w3.org/2000/svg" xmlns:xlink="http://www.w3.org/1999/xlink">
<g id="graph0" class="graph" transform="scale(1 1) rotate(0) translate(4 46)">
<title>continuous_frozen_ground_index::initialize_continuous_frozen_ground_index</title>
<polygon fill="white" stroke="none" points="-4,4 -4,-46 291.522,-46 291.522,4 -4,4"/>
<!-- Node0 -->
<g id="node1" class="node"><title>Node0</title>
<polygon fill="#bfbfbf" stroke="black" points="0,-0.5 0,-41.5 152.979,-41.5 152.979,-0.5 0,-0.5"/>
<text text-anchor="start" x="8" y="-28.7" font-family="Helvetica,sans-Serif" font-size="11.00">continuous_frozen_ground</text>
<text text-anchor="start" x="8" y="-17.7" font-family="Helvetica,sans-Serif" font-size="11.00">_index::initialize_continuous</text>
<text text-anchor="middle" x="76.4895" y="-6.7" font-family="Helvetica,sans-Serif" font-size="11.00">_frozen_ground_index</text>
</g>
<!-- Node1 -->
<g id="node2" class="node"><title>Node1</title>
<g id="a_node2"><a xlink:href="namespaceexceptions.html#a84dd04476b06e0a398bfe6d106a82a4d" target="_top" xlink:title="exceptions::warn">
<polygon fill="white" stroke="black" points="188.979,-11.5 188.979,-30.5 287.522,-30.5 287.522,-11.5 188.979,-11.5"/>
<text text-anchor="middle" x="238.25" y="-17.7" font-family="Helvetica,sans-Serif" font-size="11.00">exceptions::warn</text>
</a>
</g>
</g>
<!-- Node0&#45;&gt;Node1 -->
<g id="edge1" class="edge"><title>Node0&#45;&gt;Node1</title>
<path fill="none" stroke="midnightblue" d="M153.159,-21C161.665,-21 170.235,-21 178.482,-21"/>
<polygon fill="midnightblue" stroke="midnightblue" points="178.726,-24.5001 188.726,-21 178.726,-17.5001 178.726,-24.5001"/>
</g>
</g>
</svg>
