<?xml version="1.0" encoding="UTF-8" standalone="no"?>
<!DOCTYPE svg PUBLIC "-//W3C//DTD SVG 1.1//EN"
 "http://www.w3.org/Graphics/SVG/1.1/DTD/svg11.dtd">
<!-- Generated by graphviz version 2.38.0 (20140413.2041)
 -->
<!-- Title: model_domain::model_calculate_actual_et_thornthwaite_mather_eqns Pages: 1 -->
<svg width="348pt" height="50pt"
 viewBox="0.00 0.00 348.12 50.00" xmlns="http://www.w3.org/2000/svg" xmlns:xlink="http://www.w3.org/1999/xlink">
<g id="graph0" class="graph" transform="scale(1 1) rotate(0) translate(4 46)">
<title>model_domain::model_calculate_actual_et_thornthwaite_mather_eqns</title>
<polygon fill="white" stroke="none" points="-4,4 -4,-46 344.116,-46 344.116,4 -4,4"/>
<!-- Node390 -->
<g id="node1" class="node"><title>Node390</title>
<polygon fill="#bfbfbf" stroke="black" points="0,-0.5 0,-41.5 152.367,-41.5 152.367,-0.5 0,-0.5"/>
<text text-anchor="start" x="8" y="-28.7" font-family="Helvetica,sans-Serif" font-size="11.00">model_domain::model</text>
<text text-anchor="start" x="8" y="-17.7" font-family="Helvetica,sans-Serif" font-size="11.00">_calculate_actual_et</text>
<text text-anchor="middle" x="76.1833" y="-6.7" font-family="Helvetica,sans-Serif" font-size="11.00">_thornthwaite_mather_eqns</text>
</g>
<!-- Node391 -->
<g id="node2" class="node"><title>Node391</title>
<g id="a_node2"><a xlink:href="namespacemodel__domain.html#aac78dbf26ba37cf86ebed4edd7acf89b" target="_top" xlink:title="model_domain::set_method\l_pointers_sub">
<polygon fill="white" stroke="black" points="188.367,-6 188.367,-36 340.116,-36 340.116,-6 188.367,-6"/>
<text text-anchor="start" x="196.367" y="-23.2" font-family="Helvetica,sans-Serif" font-size="11.00">model_domain::set_method</text>
<text text-anchor="middle" x="264.241" y="-12.2" font-family="Helvetica,sans-Serif" font-size="11.00">_pointers_sub</text>
</a>
</g>
</g>
<!-- Node390&#45;&gt;Node391 -->
<g id="edge1" class="edge"><title>Node390&#45;&gt;Node391</title>
<path fill="none" stroke="midnightblue" d="M162.611,-21C171.195,-21 179.866,-21 188.329,-21"/>
<polygon fill="midnightblue" stroke="midnightblue" points="162.592,-17.5001 152.592,-21 162.592,-24.5001 162.592,-17.5001"/>
</g>
</g>
</svg>
