<?xml version="1.0" encoding="UTF-8" standalone="no"?>
<!DOCTYPE svg PUBLIC "-//W3C//DTD SVG 1.1//EN"
 "http://www.w3.org/Graphics/SVG/1.1/DTD/svg11.dtd">
<!-- Generated by graphviz version 2.38.0 (20140413.2041)
 -->
<!-- Title: datetime::julian_day Pages: 1 -->
<svg width="890pt" height="409pt"
 viewBox="0.00 0.00 889.98 409.00" xmlns="http://www.w3.org/2000/svg" xmlns:xlink="http://www.w3.org/1999/xlink">
<g id="graph0" class="graph" transform="scale(1 1) rotate(0) translate(4 405)">
<title>datetime::julian_day</title>
<polygon fill="white" stroke="none" points="-4,4 -4,-405 885.98,-405 885.98,4 -4,4"/>
<!-- Node30 -->
<g id="node1" class="node"><title>Node30</title>
<polygon fill="#bfbfbf" stroke="black" points="0,-144 0,-163 113.84,-163 113.84,-144 0,-144"/>
<text text-anchor="middle" x="56.9199" y="-150.2" font-family="Helvetica,sans-Serif" font-size="11.00">datetime::julian_day</text>
</g>
<!-- Node31 -->
<g id="node2" class="node"><title>Node31</title>
<g id="a_node2"><a xlink:href="namespacedatetime.html#a9575f695885d806cc658b68cbdb75a70" target="_top" xlink:title="datetime::day_of_year">
<polygon fill="white" stroke="black" points="161.75,-303 161.75,-322 286.595,-322 286.595,-303 161.75,-303"/>
<text text-anchor="middle" x="224.173" y="-309.2" font-family="Helvetica,sans-Serif" font-size="11.00">datetime::day_of_year</text>
</a>
</g>
</g>
<!-- Node30&#45;&gt;Node31 -->
<g id="edge1" class="edge"><title>Node30&#45;&gt;Node31</title>
<path fill="none" stroke="midnightblue" d="M75.7773,-170.682C110.515,-204.105 186.153,-276.881 213.26,-302.962"/>
<polygon fill="midnightblue" stroke="midnightblue" points="77.8901,-167.857 68.2572,-163.446 73.0366,-172.902 77.8901,-167.857"/>
</g>
<!-- Node37 -->
<g id="node8" class="node"><title>Node37</title>
<g id="a_node8"><a xlink:href="namespacedatetime.html#a45ad8eb2d0529ecfc6bcb3671ebc8415" target="_top" xlink:title="datetime::mmdd2doy">
<polygon fill="white" stroke="black" points="164.814,-201 164.814,-220 283.531,-220 283.531,-201 164.814,-201"/>
<text text-anchor="middle" x="224.173" y="-207.2" font-family="Helvetica,sans-Serif" font-size="11.00">datetime::mmdd2doy</text>
</a>
</g>
</g>
<!-- Node30&#45;&gt;Node37 -->
<g id="edge7" class="edge"><title>Node30&#45;&gt;Node37</title>
<path fill="none" stroke="midnightblue" d="M88.0545,-167.196C105.808,-174.952 128.837,-184.475 149.84,-191.5 160.192,-194.962 171.54,-198.177 182.15,-200.94"/>
<polygon fill="midnightblue" stroke="midnightblue" points="89.3418,-163.939 78.7805,-163.097 86.5116,-170.341 89.3418,-163.939"/>
</g>
<!-- Node43 -->
<g id="node14" class="node"><title>Node43</title>
<g id="a_node14"><a xlink:href="namespacedatetime.html#a2e198eedb86c02c720b30c84186b7af6" target="_top" xlink:title="datetime::mmddyyyy2doy">
<polygon fill="white" stroke="black" points="153.814,-163 153.814,-182 294.531,-182 294.531,-163 153.814,-163"/>
<text text-anchor="middle" x="224.173" y="-169.2" font-family="Helvetica,sans-Serif" font-size="11.00">datetime::mmddyyyy2doy</text>
</a>
</g>
</g>
<!-- Node30&#45;&gt;Node43 -->
<g id="edge13" class="edge"><title>Node30&#45;&gt;Node43</title>
<path fill="none" stroke="midnightblue" d="M123.956,-161.092C133.774,-162.221 143.918,-163.388 153.802,-164.524"/>
<polygon fill="midnightblue" stroke="midnightblue" points="124.201,-157.598 113.867,-159.933 123.402,-164.552 124.201,-157.598"/>
</g>
<!-- Node44 -->
<g id="node15" class="node"><title>Node44</title>
<g id="a_node15"><a xlink:href="namespacedatetime.html#ac7d7f4ca4c13b5a5b0f768bdb3f30331" target="_top" xlink:title="datetime::mmddyyyy2julian">
<polygon fill="white" stroke="black" points="149.84,-125 149.84,-144 298.506,-144 298.506,-125 149.84,-125"/>
<text text-anchor="middle" x="224.173" y="-131.2" font-family="Helvetica,sans-Serif" font-size="11.00">datetime::mmddyyyy2julian</text>
</a>
</g>
</g>
<!-- Node30&#45;&gt;Node44 -->
<g id="edge14" class="edge"><title>Node30&#45;&gt;Node44</title>
<path fill="none" stroke="midnightblue" d="M124.024,-145.9C132.468,-144.929 141.153,-143.93 149.706,-142.947"/>
<polygon fill="midnightblue" stroke="midnightblue" points="123.402,-142.448 113.867,-147.067 124.201,-149.402 123.402,-142.448"/>
</g>
<!-- Node45 -->
<g id="node16" class="node"><title>Node45</title>
<g id="a_node16"><a xlink:href="namespacenetcdf4__support.html#ad118f90a290289cde5043fc1ec23bca1" target="_top" xlink:title="netcdf4_support::nf\l_calculate_time_range">
<polygon fill="white" stroke="black" points="160.832,-75.5 160.832,-105.5 287.514,-105.5 287.514,-75.5 160.832,-75.5"/>
<text text-anchor="start" x="168.832" y="-92.7" font-family="Helvetica,sans-Serif" font-size="11.00">netcdf4_support::nf</text>
<text text-anchor="middle" x="224.173" y="-81.7" font-family="Helvetica,sans-Serif" font-size="11.00">_calculate_time_range</text>
</a>
</g>
</g>
<!-- Node30&#45;&gt;Node45 -->
<g id="edge15" class="edge"><title>Node30&#45;&gt;Node45</title>
<path fill="none" stroke="midnightblue" d="M89.3238,-139.939C106.994,-132.454 129.524,-123.153 149.84,-115.5 158.777,-112.133 168.397,-108.711 177.635,-105.523"/>
<polygon fill="midnightblue" stroke="midnightblue" points="87.8806,-136.749 80.0519,-143.888 90.6237,-143.189 87.8806,-136.749"/>
</g>
<!-- Node52 -->
<g id="node23" class="node"><title>Node52</title>
<g id="a_node23"><a xlink:href="namespacedatetime.html#a6ba366beea462b03744897b6b74956b6" target="_top" xlink:title="datetime::parse_text\l_to_date_sub">
<polygon fill="white" stroke="black" points="166.34,-26.5 166.34,-56.5 282.006,-56.5 282.006,-26.5 166.34,-26.5"/>
<text text-anchor="start" x="174.34" y="-43.7" font-family="Helvetica,sans-Serif" font-size="11.00">datetime::parse_text</text>
<text text-anchor="middle" x="224.173" y="-32.7" font-family="Helvetica,sans-Serif" font-size="11.00">_to_date_sub</text>
</a>
</g>
</g>
<!-- Node30&#45;&gt;Node52 -->
<g id="edge25" class="edge"><title>Node30&#45;&gt;Node52</title>
<path fill="none" stroke="midnightblue" d="M71.9754,-135.953C88.6313,-116.232 118.147,-84.4956 149.84,-65.5 155.47,-62.1255 161.632,-59.1635 167.915,-56.5798"/>
<polygon fill="midnightblue" stroke="midnightblue" points="69.1315,-133.9 65.4606,-143.839 74.528,-138.359 69.1315,-133.9"/>
</g>
<!-- Node32 -->
<g id="node3" class="node"><title>Node32</title>
<g id="a_node3"><a xlink:href="namespacedatetime.html#a5e943042ca778d305fabbbe6f8d96aac" target="_top" xlink:title="datetime::get_day_of\l_year_fn">
<polygon fill="white" stroke="black" points="356.535,-370.5 356.535,-400.5 475.274,-400.5 475.274,-370.5 356.535,-370.5"/>
<text text-anchor="start" x="364.535" y="-387.7" font-family="Helvetica,sans-Serif" font-size="11.00">datetime::get_day_of</text>
<text text-anchor="middle" x="415.905" y="-376.7" font-family="Helvetica,sans-Serif" font-size="11.00">_year_fn</text>
</a>
</g>
</g>
<!-- Node31&#45;&gt;Node32 -->
<g id="edge2" class="edge"><title>Node31&#45;&gt;Node32</title>
<path fill="none" stroke="midnightblue" d="M253.643,-326.499C275.461,-336.922 306.481,-351.088 334.506,-361.5 342.972,-364.645 352.053,-367.675 360.955,-370.46"/>
<polygon fill="midnightblue" stroke="midnightblue" points="255.129,-323.33 244.601,-322.142 252.09,-329.636 255.129,-323.33"/>
</g>
<!-- Node33 -->
<g id="node4" class="node"><title>Node33</title>
<g id="a_node4"><a xlink:href="namespacemodel__initialize.html#aa901fa3beec7f5be635326923f7cd49b" target="_top" xlink:title="model_initialize::initialize\l_start_and_end_dates">
<polygon fill="white" stroke="black" points="347.681,-321.5 347.681,-351.5 484.128,-351.5 484.128,-321.5 347.681,-321.5"/>
<text text-anchor="start" x="355.681" y="-338.7" font-family="Helvetica,sans-Serif" font-size="11.00">model_initialize::initialize</text>
<text text-anchor="middle" x="415.905" y="-327.7" font-family="Helvetica,sans-Serif" font-size="11.00">_start_and_end_dates</text>
</a>
</g>
</g>
<!-- Node31&#45;&gt;Node33 -->
<g id="edge3" class="edge"><title>Node31&#45;&gt;Node33</title>
<path fill="none" stroke="midnightblue" d="M296.928,-321.577C313.477,-323.67 331.024,-325.89 347.385,-327.959"/>
<polygon fill="midnightblue" stroke="midnightblue" points="297.133,-318.075 286.773,-320.292 296.255,-325.019 297.133,-318.075"/>
</g>
<!-- Node36 -->
<g id="node7" class="node"><title>Node36</title>
<g id="a_node7"><a xlink:href="namespacesimulation__datetime.html#a614317d68d6d6e98353e087670dc7a98" target="_top" xlink:title="simulation_datetime\l::increment_by_one_day_sub">
<polygon fill="white" stroke="black" points="335.744,-272.5 335.744,-302.5 496.065,-302.5 496.065,-272.5 335.744,-272.5"/>
<text text-anchor="start" x="343.744" y="-289.7" font-family="Helvetica,sans-Serif" font-size="11.00">simulation_datetime</text>
<text text-anchor="middle" x="415.905" y="-278.7" font-family="Helvetica,sans-Serif" font-size="11.00">::increment_by_one_day_sub</text>
</a>
</g>
</g>
<!-- Node31&#45;&gt;Node36 -->
<g id="edge6" class="edge"><title>Node31&#45;&gt;Node36</title>
<path fill="none" stroke="midnightblue" d="M296.798,-303.062C309.478,-301.391 322.749,-299.643 335.626,-297.946"/>
<polygon fill="midnightblue" stroke="midnightblue" points="296.23,-299.607 286.773,-304.383 297.145,-306.547 296.23,-299.607"/>
</g>
<!-- Node34 -->
<g id="node5" class="node"><title>Node34</title>
<g id="a_node5"><a xlink:href="namespacemodel__initialize.html#a46370bf2e9ea112d1f219277ba7fd3ce" target="_top" xlink:title="model_initialize::initialize_all">
<polygon fill="white" stroke="black" points="536.982,-327 536.982,-346 690.552,-346 690.552,-327 536.982,-327"/>
<text text-anchor="middle" x="613.767" y="-333.2" font-family="Helvetica,sans-Serif" font-size="11.00">model_initialize::initialize_all</text>
</a>
</g>
</g>
<!-- Node33&#45;&gt;Node34 -->
<g id="edge4" class="edge"><title>Node33&#45;&gt;Node34</title>
<path fill="none" stroke="midnightblue" d="M494.367,-336.5C508.345,-336.5 522.905,-336.5 536.838,-336.5"/>
<polygon fill="midnightblue" stroke="midnightblue" points="494.309,-333 484.309,-336.5 494.309,-340 494.309,-333"/>
</g>
<!-- Node35 -->
<g id="node6" class="node"><title>Node35</title>
<g id="a_node6"><a xlink:href="main_8F90.html#a8ec2266d83cd6c0b762cbcbc92c0af3d" target="_top" xlink:title="Main program which references all other modules; execution begins here. ">
<polygon fill="white" stroke="black" points="786.185,-327 786.185,-346 826.027,-346 826.027,-327 786.185,-327"/>
<text text-anchor="middle" x="806.106" y="-333.2" font-family="Helvetica,sans-Serif" font-size="11.00">main</text>
</a>
</g>
</g>
<!-- Node34&#45;&gt;Node35 -->
<g id="edge5" class="edge"><title>Node34&#45;&gt;Node35</title>
<path fill="none" stroke="midnightblue" d="M701.03,-336.5C732.691,-336.5 765.678,-336.5 785.81,-336.5"/>
<polygon fill="midnightblue" stroke="midnightblue" points="700.815,-333 690.815,-336.5 700.815,-340 700.815,-333"/>
</g>
<!-- Node38 -->
<g id="node9" class="node"><title>Node38</title>
<g id="a_node9"><a xlink:href="namespacegrowing__degree__day.html#a0e7f6a6149d6eb2f4aa96cadc1dc86de" target="_top" xlink:title="growing_degree_day\l::growing_degree_day\l_initialize">
<polygon fill="white" stroke="black" points="353.477,-212 353.477,-253 478.333,-253 478.333,-212 353.477,-212"/>
<text text-anchor="start" x="361.477" y="-240.2" font-family="Helvetica,sans-Serif" font-size="11.00">growing_degree_day</text>
<text text-anchor="start" x="361.477" y="-229.2" font-family="Helvetica,sans-Serif" font-size="11.00">::growing_degree_day</text>
<text text-anchor="middle" x="415.905" y="-218.2" font-family="Helvetica,sans-Serif" font-size="11.00">_initialize</text>
</a>
</g>
</g>
<!-- Node37&#45;&gt;Node38 -->
<g id="edge8" class="edge"><title>Node37&#45;&gt;Node38</title>
<path fill="none" stroke="midnightblue" d="M293.675,-218.443C313.172,-220.704 334.281,-223.151 353.338,-225.361"/>
<polygon fill="midnightblue" stroke="midnightblue" points="293.983,-214.955 283.647,-217.28 293.177,-221.909 293.983,-214.955"/>
</g>
<!-- Node41 -->
<g id="node12" class="node"><title>Node41</title>
<g id="a_node12"><a xlink:href="namespacegrowing__season.html#add2a4f3df5a65bcd0406e7a24f8493f7" target="_top" xlink:title="growing_season::growing\l_season_initialize">
<polygon fill="white" stroke="black" points="345.533,-162.5 345.533,-192.5 486.276,-192.5 486.276,-162.5 345.533,-162.5"/>
<text text-anchor="start" x="353.533" y="-179.7" font-family="Helvetica,sans-Serif" font-size="11.00">growing_season::growing</text>
<text text-anchor="middle" x="415.905" y="-168.7" font-family="Helvetica,sans-Serif" font-size="11.00">_season_initialize</text>
</a>
</g>
</g>
<!-- Node37&#45;&gt;Node41 -->
<g id="edge11" class="edge"><title>Node37&#45;&gt;Node41</title>
<path fill="none" stroke="midnightblue" d="M289.848,-199.251C307.76,-196.136 327.274,-192.742 345.446,-189.581"/>
<polygon fill="midnightblue" stroke="midnightblue" points="289.049,-195.837 279.797,-200.999 290.248,-202.734 289.049,-195.837"/>
</g>
<!-- Node39 -->
<g id="node10" class="node"><title>Node39</title>
<g id="a_node10"><a xlink:href="namespacemodel__domain.html#acda9accebb6158cde99b20eb39898053" target="_top" xlink:title="model_domain::model\l_initialize_gdd">
<polygon fill="white" stroke="black" points="551.654,-217.5 551.654,-247.5 675.881,-247.5 675.881,-217.5 551.654,-217.5"/>
<text text-anchor="start" x="559.654" y="-234.7" font-family="Helvetica,sans-Serif" font-size="11.00">model_domain::model</text>
<text text-anchor="middle" x="613.767" y="-223.7" font-family="Helvetica,sans-Serif" font-size="11.00">_initialize_gdd</text>
</a>
</g>
</g>
<!-- Node38&#45;&gt;Node39 -->
<g id="edge9" class="edge"><title>Node38&#45;&gt;Node39</title>
<path fill="none" stroke="midnightblue" d="M488.357,-232.5C509.081,-232.5 531.514,-232.5 551.551,-232.5"/>
<polygon fill="midnightblue" stroke="midnightblue" points="488.339,-229 478.339,-232.5 488.339,-236 488.339,-229"/>
</g>
<!-- Node40 -->
<g id="node11" class="node"><title>Node40</title>
<g id="a_node11"><a xlink:href="namespacemodel__domain.html#aac78dbf26ba37cf86ebed4edd7acf89b" target="_top" xlink:title="model_domain::set_method\l_pointers_sub">
<polygon fill="white" stroke="black" points="730.231,-217.5 730.231,-247.5 881.98,-247.5 881.98,-217.5 730.231,-217.5"/>
<text text-anchor="start" x="738.231" y="-234.7" font-family="Helvetica,sans-Serif" font-size="11.00">model_domain::set_method</text>
<text text-anchor="middle" x="806.106" y="-223.7" font-family="Helvetica,sans-Serif" font-size="11.00">_pointers_sub</text>
</a>
</g>
</g>
<!-- Node39&#45;&gt;Node40 -->
<g id="edge10" class="edge"><title>Node39&#45;&gt;Node40</title>
<path fill="none" stroke="midnightblue" d="M686.274,-232.5C700.541,-232.5 715.566,-232.5 729.952,-232.5"/>
<polygon fill="midnightblue" stroke="midnightblue" points="686.039,-229 676.039,-232.5 686.039,-236 686.039,-229"/>
</g>
<!-- Node42 -->
<g id="node13" class="node"><title>Node42</title>
<g id="a_node13"><a xlink:href="namespacemodel__domain.html#ae57b872047925a2673ad1c369a759d42" target="_top" xlink:title="model_domain::model\l_initialize_growing\l_season">
<polygon fill="white" stroke="black" points="551.654,-157 551.654,-198 675.881,-198 675.881,-157 551.654,-157"/>
<text text-anchor="start" x="559.654" y="-185.2" font-family="Helvetica,sans-Serif" font-size="11.00">model_domain::model</text>
<text text-anchor="start" x="559.654" y="-174.2" font-family="Helvetica,sans-Serif" font-size="11.00">_initialize_growing</text>
<text text-anchor="middle" x="613.767" y="-163.2" font-family="Helvetica,sans-Serif" font-size="11.00">_season</text>
</a>
</g>
</g>
<!-- Node41&#45;&gt;Node42 -->
<g id="edge12" class="edge"><title>Node41&#45;&gt;Node42</title>
<path fill="none" stroke="midnightblue" d="M496.582,-177.5C514.908,-177.5 534.117,-177.5 551.519,-177.5"/>
<polygon fill="midnightblue" stroke="midnightblue" points="496.51,-174 486.51,-177.5 496.51,-181 496.51,-174"/>
</g>
<!-- Node46 -->
<g id="node17" class="node"><title>Node46</title>
<g id="a_node17"><a xlink:href="namespacenetcdf4__support.html#a8be734b602e654816c17b5e27d0fbffb" target="_top" xlink:title="netcdf4_support::netcdf\l_open_and_prepare_for\l_merging">
<polygon fill="white" stroke="black" points="348.882,-102 348.882,-143 482.927,-143 482.927,-102 348.882,-102"/>
<text text-anchor="start" x="356.882" y="-130.2" font-family="Helvetica,sans-Serif" font-size="11.00">netcdf4_support::netcdf</text>
<text text-anchor="start" x="356.882" y="-119.2" font-family="Helvetica,sans-Serif" font-size="11.00">_open_and_prepare_for</text>
<text text-anchor="middle" x="415.905" y="-108.2" font-family="Helvetica,sans-Serif" font-size="11.00">_merging</text>
</a>
</g>
</g>
<!-- Node45&#45;&gt;Node46 -->
<g id="edge16" class="edge"><title>Node45&#45;&gt;Node46</title>
<path fill="none" stroke="midnightblue" d="M297.807,-102.75C314.495,-105.565 332.157,-108.544 348.564,-111.311"/>
<polygon fill="midnightblue" stroke="midnightblue" points="298.004,-99.2342 287.561,-101.022 296.84,-106.137 298.004,-99.2342"/>
</g>
<!-- Node47 -->
<g id="node18" class="node"><title>Node47</title>
<g id="a_node18"><a xlink:href="namespacenetcdf4__support.html#a6d3d402059d71a8bd24a01dc6116ff7d" target="_top" xlink:title="netcdf4_support::netcdf\l_open_and_prepare_as_input">
<polygon fill="white" stroke="black" points="334.506,-52.5 334.506,-82.5 497.303,-82.5 497.303,-52.5 334.506,-52.5"/>
<text text-anchor="start" x="342.506" y="-69.7" font-family="Helvetica,sans-Serif" font-size="11.00">netcdf4_support::netcdf</text>
<text text-anchor="middle" x="415.905" y="-58.7" font-family="Helvetica,sans-Serif" font-size="11.00">_open_and_prepare_as_input</text>
</a>
</g>
</g>
<!-- Node45&#45;&gt;Node47 -->
<g id="edge17" class="edge"><title>Node45&#45;&gt;Node47</title>
<path fill="none" stroke="midnightblue" d="M297.499,-81.7324C309.494,-80.2783 322,-78.7623 334.187,-77.2849"/>
<polygon fill="midnightblue" stroke="midnightblue" points="297.067,-78.259 287.561,-82.9371 297.909,-85.2081 297.067,-78.259"/>
</g>
<!-- Node51 -->
<g id="node22" class="node"><title>Node51</title>
<g id="a_node22"><a xlink:href="namespacenetcdf4__support.html#a7b3b3cf3aab614eb336e12694c5d76ef" target="_top" xlink:title="netcdf4_support::netcdf\l_open_file">
<polygon fill="white" stroke="black" points="350.42,-3.5 350.42,-33.5 481.389,-33.5 481.389,-3.5 350.42,-3.5"/>
<text text-anchor="start" x="358.42" y="-20.7" font-family="Helvetica,sans-Serif" font-size="11.00">netcdf4_support::netcdf</text>
<text text-anchor="middle" x="415.905" y="-9.7" font-family="Helvetica,sans-Serif" font-size="11.00">_open_file</text>
</a>
</g>
</g>
<!-- Node45&#45;&gt;Node51 -->
<g id="edge22" class="edge"><title>Node45&#45;&gt;Node51</title>
<path fill="none" stroke="midnightblue" d="M284.204,-71.7767C289.102,-69.8016 293.927,-67.7038 298.506,-65.5 315.614,-57.2664 317.242,-50.403 334.506,-42.5 341.658,-39.2258 349.37,-36.2651 357.088,-33.6312"/>
<polygon fill="midnightblue" stroke="midnightblue" points="282.814,-68.5611 274.739,-75.4194 285.329,-75.0939 282.814,-68.5611"/>
</g>
<!-- Node48 -->
<g id="node19" class="node"><title>Node48</title>
<g id="a_node19"><a xlink:href="namespacedata__catalog__entry.html#aeb285131f87ed64deba0a9041a9c6405" target="_top" xlink:title="data_catalog_entry\l::getvalues_dynamic\l_netcdf_sub">
<polygon fill="white" stroke="black" points="555.628,-50 555.628,-91 671.906,-91 671.906,-50 555.628,-50"/>
<text text-anchor="start" x="563.628" y="-78.2" font-family="Helvetica,sans-Serif" font-size="11.00">data_catalog_entry</text>
<text text-anchor="start" x="563.628" y="-67.2" font-family="Helvetica,sans-Serif" font-size="11.00">::getvalues_dynamic</text>
<text text-anchor="middle" x="613.767" y="-56.2" font-family="Helvetica,sans-Serif" font-size="11.00">_netcdf_sub</text>
</a>
</g>
</g>
<!-- Node47&#45;&gt;Node48 -->
<g id="edge18" class="edge"><title>Node47&#45;&gt;Node48</title>
<path fill="none" stroke="midnightblue" d="M507.55,-68.8884C523.907,-69.1389 540.537,-69.3937 555.6,-69.6244"/>
<polygon fill="midnightblue" stroke="midnightblue" points="507.47,-65.3869 497.417,-68.7332 507.363,-72.386 507.47,-65.3869"/>
</g>
<!-- Node50 -->
<g id="node21" class="node"><title>Node50</title>
<g id="a_node21"><a xlink:href="namespacedata__catalog__entry.html#ac3e1f0d9d9e146fbb77c0084e1e9fc14" target="_top" xlink:title="data_catalog_entry\l::getvalues_static_netcdf_sub">
<polygon fill="white" stroke="black" points="533.303,-0.5 533.303,-30.5 694.231,-30.5 694.231,-0.5 533.303,-0.5"/>
<text text-anchor="start" x="541.303" y="-17.7" font-family="Helvetica,sans-Serif" font-size="11.00">data_catalog_entry</text>
<text text-anchor="middle" x="613.767" y="-6.7" font-family="Helvetica,sans-Serif" font-size="11.00">::getvalues_static_netcdf_sub</text>
</a>
</g>
</g>
<!-- Node47&#45;&gt;Node50 -->
<g id="edge20" class="edge"><title>Node47&#45;&gt;Node50</title>
<path fill="none" stroke="midnightblue" d="M483.505,-49.8182C507.15,-43.5405 533.519,-36.5397 556.243,-30.5068"/>
<polygon fill="midnightblue" stroke="midnightblue" points="482.323,-46.5105 473.556,-52.4594 484.119,-53.2762 482.323,-46.5105"/>
</g>
<!-- Node49 -->
<g id="node20" class="node"><title>Node49</title>
<g id="a_node20"><a xlink:href="namespacedata__catalog__entry.html#a9e0a89ab19a5bfd61f2dfb8265648234" target="_top" xlink:title="data_catalog_entry\l::getvalues_sub">
<polygon fill="white" stroke="black" points="751.321,-28.5 751.321,-58.5 860.891,-58.5 860.891,-28.5 751.321,-28.5"/>
<text text-anchor="start" x="759.321" y="-45.7" font-family="Helvetica,sans-Serif" font-size="11.00">data_catalog_entry</text>
<text text-anchor="middle" x="806.106" y="-34.7" font-family="Helvetica,sans-Serif" font-size="11.00">::getvalues_sub</text>
</a>
</g>
</g>
<!-- Node48&#45;&gt;Node49 -->
<g id="edge19" class="edge"><title>Node48&#45;&gt;Node49</title>
<path fill="none" stroke="midnightblue" d="M682.321,-60.9173C704.887,-57.7163 729.721,-54.1936 751.115,-51.1588"/>
<polygon fill="midnightblue" stroke="midnightblue" points="681.543,-57.4926 672.133,-62.3625 682.526,-64.4233 681.543,-57.4926"/>
</g>
<!-- Node50&#45;&gt;Node49 -->
<g id="edge21" class="edge"><title>Node50&#45;&gt;Node49</title>
<path fill="none" stroke="midnightblue" d="M704.32,-28.6738C720.348,-31.0315 736.588,-33.4206 751.215,-35.5723"/>
<polygon fill="midnightblue" stroke="midnightblue" points="704.788,-25.205 694.385,-27.2123 703.769,-32.1305 704.788,-25.205"/>
</g>
<!-- Node51&#45;&gt;Node48 -->
<g id="edge23" class="edge"><title>Node51&#45;&gt;Node48</title>
<path fill="none" stroke="midnightblue" d="M483.416,-36.1584C506.85,-42.3797 532.967,-49.3137 555.564,-55.3131"/>
<polygon fill="midnightblue" stroke="midnightblue" points="484.119,-32.7238 473.556,-33.5406 482.323,-39.4895 484.119,-32.7238"/>
</g>
<!-- Node51&#45;&gt;Node50 -->
<g id="edge24" class="edge"><title>Node51&#45;&gt;Node50</title>
<path fill="none" stroke="midnightblue" d="M491.788,-17.353C505.319,-17.1458 519.472,-16.929 533.133,-16.7197"/>
<polygon fill="midnightblue" stroke="midnightblue" points="491.525,-13.8565 481.58,-17.5094 491.633,-20.8557 491.525,-13.8565"/>
</g>
</g>
</svg>
