<?xml version="1.0" encoding="UTF-8" standalone="no"?>
<!DOCTYPE svg PUBLIC "-//W3C//DTD SVG 1.1//EN"
 "http://www.w3.org/Graphics/SVG/1.1/DTD/svg11.dtd">
<!-- Generated by graphviz version 2.38.0 (20140413.2041)
 -->
<!-- Title: awc__depth_integrated::awc_depth_integrated_initialize Pages: 1 -->
<svg width="542pt" height="50pt"
 viewBox="0.00 0.00 542.02 50.00" xmlns="http://www.w3.org/2000/svg" xmlns:xlink="http://www.w3.org/1999/xlink">
<g id="graph0" class="graph" transform="scale(1 1) rotate(0) translate(4 46)">
<title>awc__depth_integrated::awc_depth_integrated_initialize</title>
<polygon fill="white" stroke="none" points="-4,4 -4,-46 538.02,-46 538.02,4 -4,4"/>
<!-- Node5 -->
<g id="node1" class="node"><title>Node5</title>
<polygon fill="#bfbfbf" stroke="black" points="0,-0.5 0,-41.5 130.367,-41.5 130.367,-0.5 0,-0.5"/>
<text text-anchor="start" x="8" y="-28.7" font-family="Helvetica,sans-Serif" font-size="11.00">awc__depth_integrated</text>
<text text-anchor="start" x="8" y="-17.7" font-family="Helvetica,sans-Serif" font-size="11.00">::awc_depth_integrated</text>
<text text-anchor="middle" x="65.1833" y="-6.7" font-family="Helvetica,sans-Serif" font-size="11.00">_initialize</text>
</g>
<!-- Node6 -->
<g id="node2" class="node"><title>Node6</title>
<g id="a_node2"><a xlink:href="namespacemodel__domain.html#acfbd932ddd846c29d6d92a237937a95e" target="_top" xlink:title="model_domain::model\l_initialize_available\l_water_content_depth_integrated">
<polygon fill="white" stroke="black" points="166.367,-0.5 166.367,-41.5 346.271,-41.5 346.271,-0.5 166.367,-0.5"/>
<text text-anchor="start" x="174.367" y="-28.7" font-family="Helvetica,sans-Serif" font-size="11.00">model_domain::model</text>
<text text-anchor="start" x="174.367" y="-17.7" font-family="Helvetica,sans-Serif" font-size="11.00">_initialize_available</text>
<text text-anchor="middle" x="256.319" y="-6.7" font-family="Helvetica,sans-Serif" font-size="11.00">_water_content_depth_integrated</text>
</a>
</g>
</g>
<!-- Node5&#45;&gt;Node6 -->
<g id="edge1" class="edge"><title>Node5&#45;&gt;Node6</title>
<path fill="none" stroke="midnightblue" d="M140.564,-21C148.937,-21 157.531,-21 166.067,-21"/>
<polygon fill="midnightblue" stroke="midnightblue" points="140.48,-17.5001 130.48,-21 140.48,-24.5001 140.48,-17.5001"/>
</g>
<!-- Node7 -->
<g id="node3" class="node"><title>Node7</title>
<g id="a_node3"><a xlink:href="namespacemodel__domain.html#aac78dbf26ba37cf86ebed4edd7acf89b" target="_top" xlink:title="model_domain::set_method\l_pointers_sub">
<polygon fill="white" stroke="black" points="382.271,-6 382.271,-36 534.02,-36 534.02,-6 382.271,-6"/>
<text text-anchor="start" x="390.271" y="-23.2" font-family="Helvetica,sans-Serif" font-size="11.00">model_domain::set_method</text>
<text text-anchor="middle" x="458.146" y="-12.2" font-family="Helvetica,sans-Serif" font-size="11.00">_pointers_sub</text>
</a>
</g>
</g>
<!-- Node6&#45;&gt;Node7 -->
<g id="edge2" class="edge"><title>Node6&#45;&gt;Node7</title>
<path fill="none" stroke="midnightblue" d="M356.553,-21C365.201,-21 373.855,-21 382.257,-21"/>
<polygon fill="midnightblue" stroke="midnightblue" points="356.421,-17.5001 346.421,-21 356.421,-24.5001 356.421,-17.5001"/>
</g>
</g>
</svg>
