<?xml version="1.0" encoding="UTF-8" standalone="no"?>
<!DOCTYPE svg PUBLIC "-//W3C//DTD SVG 1.1//EN"
 "http://www.w3.org/Graphics/SVG/1.1/DTD/svg11.dtd">
<!-- Generated by graphviz version 2.38.0 (20140413.2041)
 -->
<!-- Title: model_domain::model_initialize_fog_monthly_grid Pages: 1 -->
<svg width="1279pt" height="665pt"
 viewBox="0.00 0.00 1279.00 664.83" xmlns="http://www.w3.org/2000/svg" xmlns:xlink="http://www.w3.org/1999/xlink">
<g id="graph0" class="graph" transform="scale(1 1) rotate(0) translate(4 660.832)">
<title>model_domain::model_initialize_fog_monthly_grid</title>
<polygon fill="white" stroke="none" points="-4,4 -4,-660.832 1275,-660.832 1275,4 -4,4"/>
<!-- Node1 -->
<g id="node1" class="node"><title>Node1</title>
<polygon fill="#bfbfbf" stroke="black" points="0,-294.06 0,-324.06 151.749,-324.06 151.749,-294.06 0,-294.06"/>
<text text-anchor="start" x="8" y="-311.26" font-family="Helvetica,sans-Serif" font-size="11.00">model_domain::model</text>
<text text-anchor="middle" x="75.8745" y="-300.26" font-family="Helvetica,sans-Serif" font-size="11.00">_initialize_fog_monthly_grid</text>
</g>
<!-- Node2 -->
<g id="node2" class="node"><title>Node2</title>
<g id="a_node2"><a xlink:href="namespacefog____monthly__grid.html#ac06ec0e265221edc2cb7bdcae6b6bb91" target="_top" xlink:title="Initialize the fog drip algorithm. ">
<polygon fill="white" stroke="black" points="187.749,-294.06 187.749,-324.06 333.38,-324.06 333.38,-294.06 187.749,-294.06"/>
<text text-anchor="start" x="195.749" y="-311.26" font-family="Helvetica,sans-Serif" font-size="11.00">fog__monthly_grid::</text>
<text text-anchor="middle" x="260.565" y="-300.26" font-family="Helvetica,sans-Serif" font-size="11.00">fog_monthly_grid_initialize</text>
</a>
</g>
</g>
<!-- Node1&#45;&gt;Node2 -->
<g id="edge1" class="edge"><title>Node1&#45;&gt;Node2</title>
<path fill="none" stroke="midnightblue" d="M151.972,-309.06C160.369,-309.06 168.954,-309.06 177.432,-309.06"/>
<polygon fill="midnightblue" stroke="midnightblue" points="177.701,-312.56 187.701,-309.06 177.701,-305.56 177.701,-312.56"/>
</g>
<!-- Node3 -->
<g id="node3" class="node"><title>Node3</title>
<g id="a_node3"><a xlink:href="namespaceexceptions.html#a22a1bf2808fdc249e6b378ee3f221156" target="_top" xlink:title="exceptions::die">
<polygon fill="white" stroke="black" points="409.454,-343.56 409.454,-362.56 498.834,-362.56 498.834,-343.56 409.454,-343.56"/>
<text text-anchor="middle" x="454.144" y="-349.76" font-family="Helvetica,sans-Serif" font-size="11.00">exceptions::die</text>
</a>
</g>
</g>
<!-- Node2&#45;&gt;Node3 -->
<g id="edge2" class="edge"><title>Node2&#45;&gt;Node3</title>
<path fill="none" stroke="midnightblue" d="M326.96,-324.079C351.415,-329.696 378.82,-335.99 401.826,-341.273"/>
<polygon fill="midnightblue" stroke="midnightblue" points="401.197,-344.72 411.726,-343.547 402.763,-337.897 401.197,-344.72"/>
</g>
<!-- Node4 -->
<g id="node4" class="node"><title>Node4</title>
<g id="a_node4"><a xlink:href="namespacenetcdf4__support.html#a37516733165a5b76f3d401654aa0e7ca" target="_top" xlink:title="netcdf4_support::netcdf\l_open_and_prepare_as_output">
<polygon fill="white" stroke="black" points="369.38,-294.06 369.38,-324.06 538.908,-324.06 538.908,-294.06 369.38,-294.06"/>
<text text-anchor="start" x="377.38" y="-311.26" font-family="Helvetica,sans-Serif" font-size="11.00">netcdf4_support::netcdf</text>
<text text-anchor="middle" x="454.144" y="-300.26" font-family="Helvetica,sans-Serif" font-size="11.00">_open_and_prepare_as_output</text>
</a>
</g>
</g>
<!-- Node2&#45;&gt;Node4 -->
<g id="edge3" class="edge"><title>Node2&#45;&gt;Node4</title>
<path fill="none" stroke="midnightblue" d="M333.447,-309.06C341.841,-309.06 350.497,-309.06 359.134,-309.06"/>
<polygon fill="midnightblue" stroke="midnightblue" points="359.247,-312.56 369.247,-309.06 359.247,-305.56 359.247,-312.56"/>
</g>
<!-- Node14 -->
<g id="node14" class="node"><title>Node14</title>
<g id="a_node14"><a xlink:href="namespaceexceptions.html#a84dd04476b06e0a398bfe6d106a82a4d" target="_top" xlink:title="exceptions::warn">
<polygon fill="white" stroke="black" points="785.927,-57.5596 785.927,-76.5596 884.47,-76.5596 884.47,-57.5596 785.927,-57.5596"/>
<text text-anchor="middle" x="835.198" y="-63.7596" font-family="Helvetica,sans-Serif" font-size="11.00">exceptions::warn</text>
</a>
</g>
</g>
<!-- Node2&#45;&gt;Node14 -->
<g id="edge31" class="edge"><title>Node2&#45;&gt;Node14</title>
<path fill="none" stroke="midnightblue" d="M271.387,-293.754C305.57,-242.109 425.429,-74.2058 574.908,-15.0596 636.116,9.15952 658.758,-0.775687 723.015,-15.0596 754.907,-22.1488 788.476,-39.3969 810.276,-52.0934"/>
<polygon fill="midnightblue" stroke="midnightblue" points="808.757,-55.2626 819.137,-57.3833 812.345,-49.2521 808.757,-55.2626"/>
</g>
<!-- Node5 -->
<g id="node5" class="node"><title>Node5</title>
<g id="a_node5"><a xlink:href="namespacenetcdf4__support.html#ad6629f4108c3dcd35a20b03a0ef68ba5" target="_top" xlink:title="netcdf4_support::nf\l_create">
<polygon fill="white" stroke="black" points="593.873,-595.06 593.873,-625.06 704.05,-625.06 704.05,-595.06 593.873,-595.06"/>
<text text-anchor="start" x="601.873" y="-612.26" font-family="Helvetica,sans-Serif" font-size="11.00">netcdf4_support::nf</text>
<text text-anchor="middle" x="648.961" y="-601.26" font-family="Helvetica,sans-Serif" font-size="11.00">_create</text>
</a>
</g>
</g>
<!-- Node4&#45;&gt;Node5 -->
<g id="edge4" class="edge"><title>Node4&#45;&gt;Node5</title>
<path fill="none" stroke="midnightblue" d="M527.226,-324.072C531.556,-326.867 535.521,-330.167 538.908,-334.06 608.555,-414.103 514.072,-483.13 574.908,-570.06 580.446,-577.973 588.067,-584.48 596.308,-589.776"/>
<polygon fill="midnightblue" stroke="midnightblue" points="594.655,-592.863 605.059,-594.864 598.174,-586.812 594.655,-592.863"/>
</g>
<!-- Node9 -->
<g id="node9" class="node"><title>Node9</title>
<g id="a_node9"><a xlink:href="namespacenetcdf4__support.html#a00a0dc30e681bdc43764c0a3cad74075" target="_top" xlink:title="netcdf4_support::nf\l_set_standard_dimensions">
<polygon fill="white" stroke="black" points="575.225,-221.06 575.225,-251.06 722.698,-251.06 722.698,-221.06 575.225,-221.06"/>
<text text-anchor="start" x="583.225" y="-238.26" font-family="Helvetica,sans-Serif" font-size="11.00">netcdf4_support::nf</text>
<text text-anchor="middle" x="648.961" y="-227.26" font-family="Helvetica,sans-Serif" font-size="11.00">_set_standard_dimensions</text>
</a>
</g>
</g>
<!-- Node4&#45;&gt;Node9 -->
<g id="edge8" class="edge"><title>Node4&#45;&gt;Node9</title>
<path fill="none" stroke="midnightblue" d="M489.999,-294.035C513.758,-283.982 546.027,-270.697 574.908,-260.06 580.075,-258.156 585.474,-256.243 590.896,-254.373"/>
<polygon fill="midnightblue" stroke="midnightblue" points="592.292,-257.595 600.634,-251.064 590.04,-250.968 592.292,-257.595"/>
</g>
<!-- Node10 -->
<g id="node10" class="node"><title>Node10</title>
<g id="a_node10"><a xlink:href="namespacenetcdf4__support.html#abc5c3dbf8acae163fbfcf84e4cee8ab4" target="_top" xlink:title="netcdf4_support::nf\l_define_dimensions">
<polygon fill="white" stroke="black" points="778.276,-546.06 778.276,-576.06 892.121,-576.06 892.121,-546.06 778.276,-546.06"/>
<text text-anchor="start" x="786.276" y="-563.26" font-family="Helvetica,sans-Serif" font-size="11.00">netcdf4_support::nf</text>
<text text-anchor="middle" x="835.198" y="-552.26" font-family="Helvetica,sans-Serif" font-size="11.00">_define_dimensions</text>
</a>
</g>
</g>
<!-- Node4&#45;&gt;Node10 -->
<g id="edge9" class="edge"><title>Node4&#45;&gt;Node10</title>
<path fill="none" stroke="midnightblue" d="M527.057,-324.222C531.426,-326.983 535.446,-330.233 538.908,-334.06 595.694,-396.819 513.96,-462.333 574.908,-521.06 625.498,-569.805 709.25,-574.333 767.841,-570.23"/>
<polygon fill="midnightblue" stroke="midnightblue" points="768.422,-573.695 778.109,-569.405 767.861,-566.717 768.422,-573.695"/>
</g>
<!-- Node11 -->
<g id="node11" class="node"><title>Node11</title>
<g id="a_node11"><a xlink:href="namespacenetcdf4__support.html#ab39abe545c42ab75fd342e7e90370a60" target="_top" xlink:title="netcdf4_support::nf\l_set_standard_variables">
<polygon fill="white" stroke="black" points="581.033,-172.06 581.033,-202.06 716.889,-202.06 716.889,-172.06 581.033,-172.06"/>
<text text-anchor="start" x="589.033" y="-189.26" font-family="Helvetica,sans-Serif" font-size="11.00">netcdf4_support::nf</text>
<text text-anchor="middle" x="648.961" y="-178.26" font-family="Helvetica,sans-Serif" font-size="11.00">_set_standard_variables</text>
</a>
</g>
</g>
<!-- Node4&#45;&gt;Node11 -->
<g id="edge11" class="edge"><title>Node4&#45;&gt;Node11</title>
<path fill="none" stroke="midnightblue" d="M470.046,-293.714C491.455,-272.451 532.977,-234.054 574.908,-211.06 578.141,-209.286 581.528,-207.616 584.996,-206.048"/>
<polygon fill="midnightblue" stroke="midnightblue" points="586.456,-209.231 594.321,-202.132 583.746,-202.777 586.456,-209.231"/>
</g>
<!-- Node12 -->
<g id="node12" class="node"><title>Node12</title>
<g id="a_node12"><a xlink:href="namespacenetcdf4__support.html#a3e28f7c215b2a46ef88ce147905b5380" target="_top" xlink:title="netcdf4_support::nf\l_define_variables">
<polygon fill="white" stroke="black" points="780.11,-497.06 780.11,-527.06 890.287,-527.06 890.287,-497.06 780.11,-497.06"/>
<text text-anchor="start" x="788.11" y="-514.26" font-family="Helvetica,sans-Serif" font-size="11.00">netcdf4_support::nf</text>
<text text-anchor="middle" x="835.198" y="-503.26" font-family="Helvetica,sans-Serif" font-size="11.00">_define_variables</text>
</a>
</g>
</g>
<!-- Node4&#45;&gt;Node12 -->
<g id="edge12" class="edge"><title>Node4&#45;&gt;Node12</title>
<path fill="none" stroke="midnightblue" d="M526.492,-324.144C531.051,-326.919 535.264,-330.195 538.908,-334.06 586.827,-384.89 522.293,-441.107 574.908,-487.06 627.766,-533.225 711.819,-532.608 769.824,-524.961"/>
<polygon fill="midnightblue" stroke="midnightblue" points="770.571,-528.391 779.978,-523.517 769.585,-521.46 770.571,-528.391"/>
</g>
<!-- Node13 -->
<g id="node13" class="node"><title>Node13</title>
<g id="a_node13"><a xlink:href="namespacenetcdf4__support.html#aa2e8f7506c9fd50f984f1de77bfdc55d" target="_top" xlink:title="netcdf4_support::nf\l_get_variable_id_and_type">
<polygon fill="white" stroke="black" points="574.908,-123.06 574.908,-153.06 723.015,-153.06 723.015,-123.06 574.908,-123.06"/>
<text text-anchor="start" x="582.908" y="-140.26" font-family="Helvetica,sans-Serif" font-size="11.00">netcdf4_support::nf</text>
<text text-anchor="middle" x="648.961" y="-129.26" font-family="Helvetica,sans-Serif" font-size="11.00">_get_variable_id_and_type</text>
</a>
</g>
</g>
<!-- Node4&#45;&gt;Node13 -->
<g id="edge14" class="edge"><title>Node4&#45;&gt;Node13</title>
<path fill="none" stroke="midnightblue" d="M463.555,-293.735C480.64,-264.003 522.282,-198.239 574.908,-162.06 577.151,-160.517 579.5,-159.069 581.924,-157.708"/>
<polygon fill="midnightblue" stroke="midnightblue" points="583.612,-160.777 590.975,-153.159 580.468,-154.523 583.612,-160.777"/>
</g>
<!-- Node15 -->
<g id="node15" class="node"><title>Node15</title>
<g id="a_node15"><a xlink:href="namespacenetcdf4__support.html#af32d2648803a8e58f7a989506eb4d5aa" target="_top" xlink:title="netcdf4_support::nf\l_set_standard_attributes">
<polygon fill="white" stroke="black" points="580.421,-74.0596 580.421,-104.06 717.502,-104.06 717.502,-74.0596 580.421,-74.0596"/>
<text text-anchor="start" x="588.421" y="-91.2596" font-family="Helvetica,sans-Serif" font-size="11.00">netcdf4_support::nf</text>
<text text-anchor="middle" x="648.961" y="-80.2596" font-family="Helvetica,sans-Serif" font-size="11.00">_set_standard_attributes</text>
</a>
</g>
</g>
<!-- Node4&#45;&gt;Node15 -->
<g id="edge16" class="edge"><title>Node4&#45;&gt;Node15</title>
<path fill="none" stroke="midnightblue" d="M460.259,-293.798C473.325,-257.115 511.449,-163.32 574.908,-113.06 576.517,-111.785 578.196,-110.577 579.931,-109.433"/>
<polygon fill="midnightblue" stroke="midnightblue" points="582.08,-112.235 589.008,-104.219 578.593,-106.165 582.08,-112.235"/>
</g>
<!-- Node16 -->
<g id="node16" class="node"><title>Node16</title>
<g id="a_node16"><a xlink:href="namespacenetcdf4__support.html#a0d54b6940a404b3e7a3213b05c9be012" target="_top" xlink:title="netcdf4_support::nf\l_set_global_attributes">
<polygon fill="white" stroke="black" points="587.146,-25.0596 587.146,-55.0596 710.777,-55.0596 710.777,-25.0596 587.146,-25.0596"/>
<text text-anchor="start" x="595.146" y="-42.2596" font-family="Helvetica,sans-Serif" font-size="11.00">netcdf4_support::nf</text>
<text text-anchor="middle" x="648.961" y="-31.2596" font-family="Helvetica,sans-Serif" font-size="11.00">_set_global_attributes</text>
</a>
</g>
</g>
<!-- Node4&#45;&gt;Node16 -->
<g id="edge17" class="edge"><title>Node4&#45;&gt;Node16</title>
<path fill="none" stroke="midnightblue" d="M458.229,-293.891C467.69,-251.226 500.306,-129.065 574.908,-64.0596 576.257,-62.8838 577.665,-61.7654 579.123,-60.7015"/>
<polygon fill="midnightblue" stroke="midnightblue" points="581.318,-63.4567 587.939,-55.1854 577.605,-57.5226 581.318,-63.4567"/>
</g>
<!-- Node17 -->
<g id="node17" class="node"><title>Node17</title>
<g id="a_node17"><a xlink:href="namespacenetcdf4__support.html#a552fe7031185ea4d81868f4d62c44021" target="_top" xlink:title="netcdf4_support::nf\l_put_attributes">
<polygon fill="white" stroke="black" points="593.873,-447.06 593.873,-477.06 704.05,-477.06 704.05,-447.06 593.873,-447.06"/>
<text text-anchor="start" x="601.873" y="-464.26" font-family="Helvetica,sans-Serif" font-size="11.00">netcdf4_support::nf</text>
<text text-anchor="middle" x="648.961" y="-453.26" font-family="Helvetica,sans-Serif" font-size="11.00">_put_attributes</text>
</a>
</g>
</g>
<!-- Node4&#45;&gt;Node17 -->
<g id="edge18" class="edge"><title>Node4&#45;&gt;Node17</title>
<path fill="none" stroke="midnightblue" d="M525.153,-324.231C530.135,-326.981 534.803,-330.228 538.908,-334.06 572.217,-365.155 543.569,-396.979 574.908,-430.06 579.22,-434.611 584.292,-438.554 589.72,-441.961"/>
<polygon fill="midnightblue" stroke="midnightblue" points="588.053,-445.038 598.486,-446.883 591.481,-438.935 588.053,-445.038"/>
</g>
<!-- Node19 -->
<g id="node19" class="node"><title>Node19</title>
<g id="a_node19"><a xlink:href="namespacenetcdf4__support.html#a42ab68a9a8bd8347f64339759a7c4714" target="_top" xlink:title="netcdf4_support::nf\l_define_deflate">
<polygon fill="white" stroke="black" points="780.11,-399.06 780.11,-429.06 890.287,-429.06 890.287,-399.06 780.11,-399.06"/>
<text text-anchor="start" x="788.11" y="-416.26" font-family="Helvetica,sans-Serif" font-size="11.00">netcdf4_support::nf</text>
<text text-anchor="middle" x="835.198" y="-405.26" font-family="Helvetica,sans-Serif" font-size="11.00">_define_deflate</text>
</a>
</g>
</g>
<!-- Node4&#45;&gt;Node19 -->
<g id="edge21" class="edge"><title>Node4&#45;&gt;Node19</title>
<path fill="none" stroke="midnightblue" d="M520.594,-324.114C527.051,-326.897 533.285,-330.183 538.908,-334.06 560.571,-348.995 552.098,-367.943 574.908,-381.06 634.624,-415.4 714.691,-420.618 769.977,-419.176"/>
<polygon fill="midnightblue" stroke="midnightblue" points="770.126,-422.673 780.001,-418.835 769.888,-415.677 770.126,-422.673"/>
</g>
<!-- Node20 -->
<g id="node20" class="node"><title>Node20</title>
<g id="a_node20"><a xlink:href="namespacenetcdf4__support.html#a805e940f20a61297b780e5db8d2f78b7" target="_top" xlink:title="netcdf4_support::nf\l_enddef">
<polygon fill="white" stroke="black" points="780.11,-350.06 780.11,-380.06 890.287,-380.06 890.287,-350.06 780.11,-350.06"/>
<text text-anchor="start" x="788.11" y="-367.26" font-family="Helvetica,sans-Serif" font-size="11.00">netcdf4_support::nf</text>
<text text-anchor="middle" x="835.198" y="-356.26" font-family="Helvetica,sans-Serif" font-size="11.00">_enddef</text>
</a>
</g>
</g>
<!-- Node4&#45;&gt;Node20 -->
<g id="edge23" class="edge"><title>Node4&#45;&gt;Node20</title>
<path fill="none" stroke="midnightblue" d="M513.659,-324.077C522.283,-326.989 530.94,-330.318 538.908,-334.06 556.314,-342.233 556.58,-352.239 574.908,-358.06 638.918,-378.387 716.347,-377.406 769.837,-373.045"/>
<polygon fill="midnightblue" stroke="midnightblue" points="770.215,-376.525 779.87,-372.164 769.603,-369.552 770.215,-376.525"/>
</g>
<!-- Node21 -->
<g id="node21" class="node"><title>Node21</title>
<g id="a_node21"><a xlink:href="namespacenetcdf4__support.html#a38ce80fb362cea1b8e76451f51e74330" target="_top" xlink:title="netcdf4_support::nf\l_put_x_and_y">
<polygon fill="white" stroke="black" points="593.873,-319.06 593.873,-349.06 704.05,-349.06 704.05,-319.06 593.873,-319.06"/>
<text text-anchor="start" x="601.873" y="-336.26" font-family="Helvetica,sans-Serif" font-size="11.00">netcdf4_support::nf</text>
<text text-anchor="middle" x="648.961" y="-325.26" font-family="Helvetica,sans-Serif" font-size="11.00">_put_x_and_y</text>
</a>
</g>
</g>
<!-- Node4&#45;&gt;Node21 -->
<g id="edge25" class="edge"><title>Node4&#45;&gt;Node21</title>
<path fill="none" stroke="midnightblue" d="M539.156,-319.952C554.018,-321.879 569.281,-323.858 583.498,-325.702"/>
<polygon fill="midnightblue" stroke="midnightblue" points="583.279,-329.202 593.646,-327.017 584.179,-322.26 583.279,-329.202"/>
</g>
<!-- Node23 -->
<g id="node23" class="node"><title>Node23</title>
<g id="a_node23"><a xlink:href="namespacenetcdf4__support.html#a55a403a10b71ab041dce8511b769f069" target="_top" xlink:title="netcdf4_support::nf\l_put_lat_and_lon">
<polygon fill="white" stroke="black" points="593.873,-270.06 593.873,-300.06 704.05,-300.06 704.05,-270.06 593.873,-270.06"/>
<text text-anchor="start" x="601.873" y="-287.26" font-family="Helvetica,sans-Serif" font-size="11.00">netcdf4_support::nf</text>
<text text-anchor="middle" x="648.961" y="-276.26" font-family="Helvetica,sans-Serif" font-size="11.00">_put_lat_and_lon</text>
</a>
</g>
</g>
<!-- Node4&#45;&gt;Node23 -->
<g id="edge28" class="edge"><title>Node4&#45;&gt;Node23</title>
<path fill="none" stroke="midnightblue" d="M539.156,-298.603C554.018,-296.753 569.281,-294.853 583.498,-293.083"/>
<polygon fill="midnightblue" stroke="midnightblue" points="584.154,-296.529 593.646,-291.82 583.29,-289.582 584.154,-296.529"/>
</g>
<!-- Node6 -->
<g id="node6" class="node"><title>Node6</title>
<g id="a_node6"><a xlink:href="namespacenetcdf4__support.html#ac8c7276a5849ae6d17ffef1787e3f234" target="_top" xlink:title="netcdf4_support::nf_trap">
<polygon fill="white" stroke="black" points="947.382,-428.56 947.382,-447.56 1082.63,-447.56 1082.63,-428.56 947.382,-428.56"/>
<text text-anchor="middle" x="1015.01" y="-434.76" font-family="Helvetica,sans-Serif" font-size="11.00">netcdf4_support::nf_trap</text>
</a>
</g>
</g>
<!-- Node5&#45;&gt;Node6 -->
<g id="edge5" class="edge"><title>Node5&#45;&gt;Node6</title>
<path fill="none" stroke="midnightblue" d="M683.345,-625.205C735.986,-646.619 839.657,-678.569 911.382,-635.06 976.619,-595.485 1002.32,-499.405 1010.63,-457.804"/>
<polygon fill="midnightblue" stroke="midnightblue" points="1014.09,-458.294 1012.49,-447.821 1007.21,-457.009 1014.09,-458.294"/>
</g>
<!-- Node8 -->
<g id="node8" class="node"><title>Node8</title>
<g id="a_node8"><a xlink:href="namespaceconstants__and__conversions.html#a7685661976b5b344a61522a38564dab2" target="_top" xlink:title="constants_and_conversions\l::fortran_to_c_string">
<polygon fill="white" stroke="black" points="759.015,-595.06 759.015,-625.06 911.382,-625.06 911.382,-595.06 759.015,-595.06"/>
<text text-anchor="start" x="767.015" y="-612.26" font-family="Helvetica,sans-Serif" font-size="11.00">constants_and_conversions</text>
<text text-anchor="middle" x="835.198" y="-601.26" font-family="Helvetica,sans-Serif" font-size="11.00">::fortran_to_c_string</text>
</a>
</g>
</g>
<!-- Node5&#45;&gt;Node8 -->
<g id="edge7" class="edge"><title>Node5&#45;&gt;Node8</title>
<path fill="none" stroke="midnightblue" d="M704.242,-610.06C718.127,-610.06 733.4,-610.06 748.446,-610.06"/>
<polygon fill="midnightblue" stroke="midnightblue" points="748.805,-613.56 758.805,-610.06 748.805,-606.56 748.805,-613.56"/>
</g>
<!-- Node7 -->
<g id="node7" class="node"><title>Node7</title>
<g id="a_node7"><a xlink:href="namespaceconstants__and__conversions.html#ac13fba285229deab77131132e6f62caf" target="_top" xlink:title="constants_and_conversions\l::char_ptr_to_fortran_string">
<polygon fill="white" stroke="black" points="1118.63,-423.06 1118.63,-453.06 1271,-453.06 1271,-423.06 1118.63,-423.06"/>
<text text-anchor="start" x="1126.63" y="-440.26" font-family="Helvetica,sans-Serif" font-size="11.00">constants_and_conversions</text>
<text text-anchor="middle" x="1194.81" y="-429.26" font-family="Helvetica,sans-Serif" font-size="11.00">::char_ptr_to_fortran_string</text>
</a>
</g>
</g>
<!-- Node6&#45;&gt;Node7 -->
<g id="edge6" class="edge"><title>Node6&#45;&gt;Node7</title>
<path fill="none" stroke="midnightblue" d="M1082.72,-438.06C1091.08,-438.06 1099.72,-438.06 1108.31,-438.06"/>
<polygon fill="midnightblue" stroke="midnightblue" points="1108.36,-441.56 1118.36,-438.06 1108.36,-434.56 1108.36,-441.56"/>
</g>
<!-- Node10&#45;&gt;Node6 -->
<g id="edge10" class="edge"><title>Node10&#45;&gt;Node6</title>
<path fill="none" stroke="midnightblue" d="M892.471,-546.27C899.047,-543.627 905.5,-540.571 911.382,-537.06 948.161,-515.102 982.106,-477.599 1000.24,-455.596"/>
<polygon fill="midnightblue" stroke="midnightblue" points="1003.04,-457.705 1006.6,-447.726 997.596,-453.306 1003.04,-457.705"/>
</g>
<!-- Node12&#45;&gt;Node6 -->
<g id="edge13" class="edge"><title>Node12&#45;&gt;Node6</title>
<path fill="none" stroke="midnightblue" d="M886.703,-497.045C895.021,-494.257 903.497,-491.22 911.382,-488.06 937.745,-477.494 966.751,-463.089 987.18,-452.454"/>
<polygon fill="midnightblue" stroke="midnightblue" points="988.972,-455.466 996.196,-447.716 985.716,-449.27 988.972,-455.466"/>
</g>
<!-- Node13&#45;&gt;Node14 -->
<g id="edge15" class="edge"><title>Node13&#45;&gt;Node14</title>
<path fill="none" stroke="midnightblue" d="M695.324,-123.029C704.527,-119.841 714.111,-116.421 723.015,-113.06 750.253,-102.776 780.788,-90.0549 802.957,-80.5988"/>
<polygon fill="midnightblue" stroke="midnightblue" points="804.398,-83.7893 812.211,-76.6338 801.641,-77.355 804.398,-83.7893"/>
</g>
<!-- Node18 -->
<g id="node18" class="node"><title>Node18</title>
<g id="a_node18"><a xlink:href="namespacenetcdf4__support.html#ab2daa2b8ddb99e883974862b6419d0bc" target="_top" xlink:title="netcdf4_support::nf\l_put_attribute">
<polygon fill="white" stroke="black" points="780.11,-448.06 780.11,-478.06 890.287,-478.06 890.287,-448.06 780.11,-448.06"/>
<text text-anchor="start" x="788.11" y="-465.26" font-family="Helvetica,sans-Serif" font-size="11.00">netcdf4_support::nf</text>
<text text-anchor="middle" x="835.198" y="-454.26" font-family="Helvetica,sans-Serif" font-size="11.00">_put_attribute</text>
</a>
</g>
</g>
<!-- Node17&#45;&gt;Node18 -->
<g id="edge19" class="edge"><title>Node17&#45;&gt;Node18</title>
<path fill="none" stroke="midnightblue" d="M704.242,-462.354C724.859,-462.466 748.537,-462.595 769.986,-462.711"/>
<polygon fill="midnightblue" stroke="midnightblue" points="769.969,-466.211 779.988,-462.765 770.007,-459.211 769.969,-466.211"/>
</g>
<!-- Node18&#45;&gt;Node6 -->
<g id="edge20" class="edge"><title>Node18&#45;&gt;Node6</title>
<path fill="none" stroke="midnightblue" d="M890.513,-455.423C905.174,-453.362 921.322,-451.091 936.97,-448.891"/>
<polygon fill="midnightblue" stroke="midnightblue" points="937.746,-452.316 947.161,-447.458 936.771,-445.385 937.746,-452.316"/>
</g>
<!-- Node19&#45;&gt;Node6 -->
<g id="edge22" class="edge"><title>Node19&#45;&gt;Node6</title>
<path fill="none" stroke="midnightblue" d="M890.513,-421.391C905.174,-423.37 921.322,-425.549 936.97,-427.661"/>
<polygon fill="midnightblue" stroke="midnightblue" points="936.783,-431.168 947.161,-429.037 937.719,-424.231 936.783,-431.168"/>
</g>
<!-- Node20&#45;&gt;Node6 -->
<g id="edge24" class="edge"><title>Node20&#45;&gt;Node6</title>
<path fill="none" stroke="midnightblue" d="M886.682,-380.127C895.002,-382.909 903.484,-385.93 911.382,-389.06 937.527,-399.418 966.349,-413.42 986.775,-423.803"/>
<polygon fill="midnightblue" stroke="midnightblue" points="985.309,-426.985 995.804,-428.435 988.504,-420.756 985.309,-426.985"/>
</g>
<!-- Node22 -->
<g id="node22" class="node"><title>Node22</title>
<g id="a_node22"><a xlink:href="namespacenetcdf4__support.html#ad886108ada01049368a1eaf046a33a32" target="_top" xlink:title="netcdf4_support::netcdf\l_put_variable_vector">
<polygon fill="white" stroke="black" points="769.714,-301.06 769.714,-331.06 900.683,-331.06 900.683,-301.06 769.714,-301.06"/>
<text text-anchor="start" x="777.714" y="-318.26" font-family="Helvetica,sans-Serif" font-size="11.00">netcdf4_support::netcdf</text>
<text text-anchor="middle" x="835.198" y="-307.26" font-family="Helvetica,sans-Serif" font-size="11.00">_put_variable_vector</text>
</a>
</g>
</g>
<!-- Node21&#45;&gt;Node22 -->
<g id="edge26" class="edge"><title>Node21&#45;&gt;Node22</title>
<path fill="none" stroke="midnightblue" d="M704.242,-328.756C721.527,-327.068 740.963,-325.169 759.433,-323.364"/>
<polygon fill="midnightblue" stroke="midnightblue" points="759.963,-326.829 769.575,-322.373 759.282,-319.862 759.963,-326.829"/>
</g>
<!-- Node22&#45;&gt;Node6 -->
<g id="edge27" class="edge"><title>Node22&#45;&gt;Node6</title>
<path fill="none" stroke="midnightblue" d="M893.243,-331.196C899.548,-333.761 905.726,-336.703 911.382,-340.06 948.038,-361.817 982.026,-398.934 1000.21,-420.707"/>
<polygon fill="midnightblue" stroke="midnightblue" points="997.537,-422.973 1006.58,-428.495 1002.95,-418.539 997.537,-422.973"/>
</g>
<!-- Node24 -->
<g id="node24" class="node"><title>Node24</title>
<g id="a_node24"><a xlink:href="namespacenetcdf4__support.html#a78f84d0c950f4e9718ba2d8060192355" target="_top" xlink:title="netcdf4_support::netcdf\l_put_variable_array">
<polygon fill="white" stroke="black" points="769.714,-252.06 769.714,-282.06 900.683,-282.06 900.683,-252.06 769.714,-252.06"/>
<text text-anchor="start" x="777.714" y="-269.26" font-family="Helvetica,sans-Serif" font-size="11.00">netcdf4_support::netcdf</text>
<text text-anchor="middle" x="835.198" y="-258.26" font-family="Helvetica,sans-Serif" font-size="11.00">_put_variable_array</text>
</a>
</g>
</g>
<!-- Node23&#45;&gt;Node24 -->
<g id="edge29" class="edge"><title>Node23&#45;&gt;Node24</title>
<path fill="none" stroke="midnightblue" d="M704.242,-279.756C721.527,-278.068 740.963,-276.169 759.433,-274.364"/>
<polygon fill="midnightblue" stroke="midnightblue" points="759.963,-277.829 769.575,-273.373 759.282,-270.862 759.963,-277.829"/>
</g>
<!-- Node24&#45;&gt;Node6 -->
<g id="edge30" class="edge"><title>Node24&#45;&gt;Node6</title>
<path fill="none" stroke="midnightblue" d="M896.264,-282.176C901.613,-284.705 906.749,-287.645 911.382,-291.06 958.203,-325.569 991.353,-388.028 1005.84,-419.242"/>
<polygon fill="midnightblue" stroke="midnightblue" points="1002.73,-420.865 1010.03,-428.545 1009.12,-417.99 1002.73,-420.865"/>
</g>
</g>
</svg>
