<?xml version="1.0" encoding="UTF-8" standalone="no"?>
<!DOCTYPE svg PUBLIC "-//W3C//DTD SVG 1.1//EN"
 "http://www.w3.org/Graphics/SVG/1.1/DTD/svg11.dtd">
<!-- Generated by graphviz version 2.38.0 (20140413.2041)
 -->
<!-- Title: model_domain::model_initialize_routing_d8 Pages: 1 -->
<!--zoomable 192 -->
<svg id="main" version="1.1" xmlns="http://www.w3.org/2000/svg" xmlns:xlink="http://www.w3.org/1999/xlink" xml:space="preserve" onload="init(evt)">
<style type="text/css"><![CDATA[
.edge:hover path { stroke: red; }
.edge:hover polygon { stroke: red; fill: red; }
]]></style>
<script type="text/javascript"><![CDATA[
var edges = document.getElementsByTagName('g');
if (edges && edges.length) {
  for (var i=0;i<edges.length;i++) {
    if (edges[i].id.substr(0,4)=='edge') {
      edges[i].setAttribute('class','edge');
    }
  }
}
]]></script>
        <defs>
                <circle id="rim" cx="0" cy="0" r="7"/>
                <circle id="rim2" cx="0" cy="0" r="3.5"/>
                <g id="zoomPlus">
                        <use xlink:href="#rim" fill="#404040">
                                <set attributeName="fill" to="#808080" begin="zoomplus.mouseover" end="zoomplus.mouseout"/>
                        </use>
                        <path d="M-4,0h8M0,-4v8" fill="none" stroke="white" stroke-width="1.5" pointer-events="none"/>
                </g>
                <g id="zoomMin">
                        <use xlink:href="#rim" fill="#404040">
                                <set attributeName="fill" to="#808080" begin="zoomminus.mouseover" end="zoomminus.mouseout"/>
                        </use>
                        <path d="M-4,0h8" fill="none" stroke="white" stroke-width="1.5" pointer-events="none"/>
                </g>
                <g id="dirArrow">
                        <path fill="none" stroke="white" stroke-width="1.5" d="M0,-3.0v7 M-2.5,-0.5L0,-3.0L2.5,-0.5"/>
                </g>
               <g id="resetDef">
                       <use xlink:href="#rim2" fill="#404040">
                               <set attributeName="fill" to="#808080" begin="reset.mouseover" end="reset.mouseout"/>
                       </use>
               </g>
        </defs>

<script type="text/javascript">
var viewWidth = 641;
var viewHeight = 192;
var sectionId = 'dynsection-13';
</script>
<script xlink:href="svgpan.js"/>
<svg id="graph" class="graph">
<g id="viewport">
<title>model_domain::model_initialize_routing_d8</title>
<polygon fill="white" stroke="none" points="-4,4 -4,-188 637.055,-188 637.055,4 -4,4"/>
<!-- Node200 -->
<g id="node1" class="node"><title>Node200</title>
<polygon fill="#bfbfbf" stroke="black" points="0,-96 0,-126 124.228,-126 124.228,-96 0,-96"/>
<text text-anchor="start" x="8" y="-113.2" font-family="Helvetica,sans-Serif" font-size="11.00">model_domain::model</text>
<text text-anchor="middle" x="62.1138" y="-102.2" font-family="Helvetica,sans-Serif" font-size="11.00">_initialize_routing_d8</text>
</g>
<!-- Node201 -->
<g id="node2" class="node"><title>Node201</title>
<g id="a_node2"><a xlink:href="namespacerouting____d8.html#a0008fcb9bc5678e484885bc650fae726" target="_top" xlink:title="routing__d8::routing\l_d8_initialize">
<polygon fill="white" stroke="black" points="160.228,-96 160.228,-126 274.078,-126 274.078,-96 160.228,-96"/>
<text text-anchor="start" x="168.228" y="-113.2" font-family="Helvetica,sans-Serif" font-size="11.00">routing__d8::routing</text>
<text text-anchor="middle" x="217.153" y="-102.2" font-family="Helvetica,sans-Serif" font-size="11.00">_d8_initialize</text>
</a>
</g>
</g>
<!-- Node200&#45;&gt;Node201 -->
<g id="edge1" class="edge"><title>Node200&#45;&gt;Node201</title>
<path fill="none" stroke="midnightblue" d="M124.479,-111C132.874,-111 141.522,-111 149.998,-111"/>
<polygon fill="midnightblue" stroke="midnightblue" points="150.222,-114.5 160.222,-111 150.222,-107.5 150.222,-114.5"/>
</g>
<!-- Node202 -->
<g id="node3" class="node"><title>Node202</title>
<g id="a_node3"><a xlink:href="namespaceexceptions.html#a22a1bf2808fdc249e6b378ee3f221156" target="_top" xlink:title="exceptions::die">
<polygon fill="white" stroke="black" points="347.995,-164.5 347.995,-183.5 437.375,-183.5 437.375,-164.5 347.995,-164.5"/>
<text text-anchor="middle" x="392.685" y="-170.7" font-family="Helvetica,sans-Serif" font-size="11.00">exceptions::die</text>
</a>
</g>
</g>
<!-- Node201&#45;&gt;Node202 -->
<g id="edge2" class="edge"><title>Node201&#45;&gt;Node202</title>
<path fill="none" stroke="midnightblue" d="M250.977,-126.013C268.354,-133.683 290.165,-142.874 310.078,-150 321.701,-154.159 334.435,-158.161 346.315,-161.665"/>
<polygon fill="midnightblue" stroke="midnightblue" points="345.471,-165.064 356.05,-164.484 347.418,-158.341 345.471,-165.064"/>
</g>
<!-- Node203 -->
<g id="node4" class="node"><title>Node203</title>
<g id="a_node4"><a xlink:href="namespacegrid.html#a02803f7fe27d0354d3d16a15bd1338da" target="_top" xlink:title="grid::grid_writearcgrid">
<polygon fill="white" stroke="black" points="511.292,-107.5 511.292,-126.5 633.055,-126.5 633.055,-107.5 511.292,-107.5"/>
<text text-anchor="middle" x="572.174" y="-113.7" font-family="Helvetica,sans-Serif" font-size="11.00">grid::grid_writearcgrid</text>
</a>
</g>
</g>
<!-- Node201&#45;&gt;Node203 -->
<g id="edge3" class="edge"><title>Node201&#45;&gt;Node203</title>
<path fill="none" stroke="midnightblue" d="M274.517,-115.262C286.263,-115.986 298.569,-116.625 310.078,-117 374.744,-119.108 448.467,-118.865 501.044,-118.238"/>
<polygon fill="midnightblue" stroke="midnightblue" points="501.314,-121.735 511.269,-118.108 501.225,-114.736 501.314,-121.735"/>
</g>
<!-- Node204 -->
<g id="node5" class="node"><title>Node204</title>
<g id="a_node5"><a xlink:href="namespacerouting____d8.html#a4ffeb4be9d01e7cae56e0886d9161b18" target="_top" xlink:title="routing__d8::routing\l_d8_assign_downstream\l_row_col">
<polygon fill="white" stroke="black" points="323.535,-66.5 323.535,-107.5 461.835,-107.5 461.835,-66.5 323.535,-66.5"/>
<text text-anchor="start" x="331.535" y="-94.7" font-family="Helvetica,sans-Serif" font-size="11.00">routing__d8::routing</text>
<text text-anchor="start" x="331.535" y="-83.7" font-family="Helvetica,sans-Serif" font-size="11.00">_d8_assign_downstream</text>
<text text-anchor="middle" x="392.685" y="-72.7" font-family="Helvetica,sans-Serif" font-size="11.00">_row_col</text>
</a>
</g>
</g>
<!-- Node201&#45;&gt;Node204 -->
<g id="edge4" class="edge"><title>Node201&#45;&gt;Node204</title>
<path fill="none" stroke="midnightblue" d="M274.494,-103.208C286.954,-101.485 300.373,-99.6287 313.526,-97.8097"/>
<polygon fill="midnightblue" stroke="midnightblue" points="314.085,-101.266 323.511,-96.4287 313.126,-94.3317 314.085,-101.266"/>
</g>
<!-- Node205 -->
<g id="node6" class="node"><title>Node205</title>
<g id="a_node6"><a xlink:href="namespacerouting____d8.html#ae2756c01d52d156a1b6c7ce48ca1e941" target="_top" xlink:title="routing__d8::routing\l_d8_determine_solution_order">
<polygon fill="white" stroke="black" points="310.078,-17 310.078,-47 475.292,-47 475.292,-17 310.078,-17"/>
<text text-anchor="start" x="318.078" y="-34.2" font-family="Helvetica,sans-Serif" font-size="11.00">routing__d8::routing</text>
<text text-anchor="middle" x="392.685" y="-23.2" font-family="Helvetica,sans-Serif" font-size="11.00">_d8_determine_solution_order</text>
</a>
</g>
</g>
<!-- Node201&#45;&gt;Node205 -->
<g id="edge5" class="edge"><title>Node201&#45;&gt;Node205</title>
<path fill="none" stroke="midnightblue" d="M240.41,-95.923C258.557,-84.13 285.17,-67.9502 310.078,-57 315.379,-54.6696 320.963,-52.4681 326.62,-50.4104"/>
<polygon fill="midnightblue" stroke="midnightblue" points="327.879,-53.6783 336.173,-47.0861 325.579,-47.0672 327.879,-53.6783"/>
</g>
<!-- Node205&#45;&gt;Node203 -->
<g id="edge7" class="edge"><title>Node205&#45;&gt;Node203</title>
<path fill="none" stroke="midnightblue" d="M449.722,-47.0316C458.425,-49.9736 467.205,-53.3082 475.292,-57 482.803,-60.4282 521.823,-85.245 547.713,-101.87"/>
<polygon fill="midnightblue" stroke="midnightblue" points="545.946,-104.895 556.25,-107.36 549.732,-99.007 545.946,-104.895"/>
</g>
<!-- Node206 -->
<g id="node7" class="node"><title>Node206</title>
<g id="a_node7"><a xlink:href="namespacerouting____d8.html#a8ff5176982b0ac8b08696510dad5b894" target="_top" xlink:title="routing__d8::routing\l_d8_get_index">
<polygon fill="white" stroke="black" points="515.248,-39 515.248,-69 629.099,-69 629.099,-39 515.248,-39"/>
<text text-anchor="start" x="523.248" y="-56.2" font-family="Helvetica,sans-Serif" font-size="11.00">routing__d8::routing</text>
<text text-anchor="middle" x="572.174" y="-45.2" font-family="Helvetica,sans-Serif" font-size="11.00">_d8_get_index</text>
</a>
</g>
</g>
<!-- Node205&#45;&gt;Node206 -->
<g id="edge6" class="edge"><title>Node205&#45;&gt;Node206</title>
<path fill="none" stroke="midnightblue" d="M475.416,-42.1307C485.41,-43.3694 495.523,-44.6229 505.244,-45.8279"/>
<polygon fill="midnightblue" stroke="midnightblue" points="504.857,-49.3066 515.211,-47.0634 505.718,-42.3598 504.857,-49.3066"/>
</g>
<!-- Node207 -->
<g id="node8" class="node"><title>Node207</title>
<g id="a_node8"><a xlink:href="namespacegrid.html#adfcb9064d9b58a49eb61093cd4809a43" target="_top" xlink:title="grid::grid_destroy">
<polygon fill="white" stroke="black" points="521.68,-0.5 521.68,-19.5 622.667,-19.5 622.667,-0.5 521.68,-0.5"/>
<text text-anchor="middle" x="572.174" y="-6.7" font-family="Helvetica,sans-Serif" font-size="11.00">grid::grid_destroy</text>
</a>
</g>
</g>
<!-- Node205&#45;&gt;Node207 -->
<g id="edge8" class="edge"><title>Node205&#45;&gt;Node207</title>
<path fill="none" stroke="midnightblue" d="M475.416,-21.8693C487.519,-20.3691 499.798,-18.8472 511.343,-17.4161"/>
<polygon fill="midnightblue" stroke="midnightblue" points="511.784,-20.8883 521.277,-16.1847 510.923,-13.9415 511.784,-20.8883"/>
</g>
</g>
</svg>
        <g id="navigator" transform="translate(0 0)" fill="#404254">
                <rect fill="#f2f5e9" fill-opacity="0.5" stroke="#606060" stroke-width=".5" x="0" y="0" width="60" height="60"/>
                <use id="zoomplus" xlink:href="#zoomPlus" x="17" y="9" onmousedown="handleZoom(evt,'in')"/>
                <use id="zoomminus" xlink:href="#zoomMin" x="42" y="9" onmousedown="handleZoom(evt,'out')"/>
                <use id="reset" xlink:href="#resetDef" x="30" y="36" onmousedown="handleReset()"/>
                <g id="arrowUp" xlink:href="#dirArrow" transform="translate(30 24)" onmousedown="handlePan(0,-1)">
                  <use xlink:href="#rim" fill="#404040">
                        <set attributeName="fill" to="#808080" begin="arrowUp.mouseover" end="arrowUp.mouseout"/>
                  </use>
                  <path fill="none" stroke="white" stroke-width="1.5" d="M0,-3.0v7 M-2.5,-0.5L0,-3.0L2.5,-0.5"/>
                </g>
                <g id="arrowRight" xlink:href="#dirArrow" transform="rotate(90) translate(36 -43)" onmousedown="handlePan(1,0)">
                  <use xlink:href="#rim" fill="#404040">
                        <set attributeName="fill" to="#808080" begin="arrowRight.mouseover" end="arrowRight.mouseout"/>
                  </use>
                  <path fill="none" stroke="white" stroke-width="1.5" d="M0,-3.0v7 M-2.5,-0.5L0,-3.0L2.5,-0.5"/>
                </g>
                <g id="arrowDown" xlink:href="#dirArrow" transform="rotate(180) translate(-30 -48)" onmousedown="handlePan(0,1)">
                  <use xlink:href="#rim" fill="#404040">
                        <set attributeName="fill" to="#808080" begin="arrowDown.mouseover" end="arrowDown.mouseout"/>
                  </use>
                  <path fill="none" stroke="white" stroke-width="1.5" d="M0,-3.0v7 M-2.5,-0.5L0,-3.0L2.5,-0.5"/>
                </g>
                <g id="arrowLeft" xlink:href="#dirArrow" transform="rotate(270) translate(-36 17)" onmousedown="handlePan(-1,0)">
                  <use xlink:href="#rim" fill="#404040">
                        <set attributeName="fill" to="#808080" begin="arrowLeft.mouseover" end="arrowLeft.mouseout"/>
                  </use>
                  <path fill="none" stroke="white" stroke-width="1.5" d="M0,-3.0v7 M-2.5,-0.5L0,-3.0L2.5,-0.5"/>
                </g>
        </g>
        <svg viewBox="0 0 15 15" width="100%" height="30px" preserveAspectRatio="xMaxYMin meet">
         <g id="arrow_out" transform="scale(0.3 0.3)">
          <a xlink:href="namespacemodel__domain_a18aeded59e98fc5ba71f5b4d6b53d732_cgraph_org.svg" target="_base">
           <rect id="button" ry="5" rx="5" y="6" x="6" height="38" width="38"
                fill="#f2f5e9" fill-opacity="0.5" stroke="#606060" stroke-width="1.0"/>
           <path id="arrow"
             d="M 11.500037,31.436501 C 11.940474,20.09759 22.043105,11.32322 32.158766,21.979434 L 37.068811,17.246167 C 37.068811,17.246167 37.088388,32 37.088388,32 L 22.160133,31.978069 C 22.160133,31.978069 26.997745,27.140456 26.997745,27.140456 C 18.528582,18.264221 13.291696,25.230495 11.500037,31.436501 z"
             style="fill:#404040;"/>
          </a>
         </g>
        </svg>
</svg>
