<?xml version="1.0" encoding="UTF-8" standalone="no"?>
<!DOCTYPE svg PUBLIC "-//W3C//DTD SVG 1.1//EN"
 "http://www.w3.org/Graphics/SVG/1.1/DTD/svg11.dtd">
<!-- Generated by graphviz version 2.38.0 (20140413.2041)
 -->
<!-- Title: grid::grid_set_output_directory_name Pages: 1 -->
<svg width="390pt" height="39pt"
 viewBox="0.00 0.00 389.70 39.00" xmlns="http://www.w3.org/2000/svg" xmlns:xlink="http://www.w3.org/1999/xlink">
<g id="graph0" class="graph" transform="scale(1 1) rotate(0) translate(4 35)">
<title>grid::grid_set_output_directory_name</title>
<polygon fill="white" stroke="none" points="-4,4 -4,-35 385.701,-35 385.701,4 -4,4"/>
<!-- Node1 -->
<g id="node1" class="node"><title>Node1</title>
<polygon fill="#bfbfbf" stroke="black" points="0,-0.5 0,-30.5 116.289,-30.5 116.289,-0.5 0,-0.5"/>
<text text-anchor="start" x="8" y="-17.7" font-family="Helvetica,sans-Serif" font-size="11.00">grid::grid_set_output</text>
<text text-anchor="middle" x="58.1445" y="-6.7" font-family="Helvetica,sans-Serif" font-size="11.00">_directory_name</text>
</g>
<!-- Node2 -->
<g id="node2" class="node"><title>Node2</title>
<g id="a_node2"><a xlink:href="namespacemodel__initialize.html#a46370bf2e9ea112d1f219277ba7fd3ce" target="_top" xlink:title="model_initialize::initialize_all">
<polygon fill="white" stroke="black" points="152.289,-6 152.289,-25 305.859,-25 305.859,-6 152.289,-6"/>
<text text-anchor="middle" x="229.074" y="-12.2" font-family="Helvetica,sans-Serif" font-size="11.00">model_initialize::initialize_all</text>
</a>
</g>
</g>
<!-- Node1&#45;&gt;Node2 -->
<g id="edge1" class="edge"><title>Node1&#45;&gt;Node2</title>
<path fill="none" stroke="midnightblue" d="M126.462,-15.5C134.879,-15.5 143.534,-15.5 152.072,-15.5"/>
<polygon fill="midnightblue" stroke="midnightblue" points="126.336,-12.0001 116.336,-15.5 126.336,-19.0001 126.336,-12.0001"/>
</g>
<!-- Node3 -->
<g id="node3" class="node"><title>Node3</title>
<g id="a_node3"><a xlink:href="main_8F90.html#a8ec2266d83cd6c0b762cbcbc92c0af3d" target="_top" xlink:title="Main program which references all other modules; execution begins here. ">
<polygon fill="white" stroke="black" points="341.859,-6 341.859,-25 381.701,-25 381.701,-6 341.859,-6"/>
<text text-anchor="middle" x="361.78" y="-12.2" font-family="Helvetica,sans-Serif" font-size="11.00">main</text>
</a>
</g>
</g>
<!-- Node2&#45;&gt;Node3 -->
<g id="edge2" class="edge"><title>Node2&#45;&gt;Node3</title>
<path fill="none" stroke="midnightblue" d="M316.198,-15.5C325.693,-15.5 334.535,-15.5 341.8,-15.5"/>
<polygon fill="midnightblue" stroke="midnightblue" points="316.106,-12.0001 306.106,-15.5 316.106,-19.0001 316.106,-12.0001"/>
</g>
</g>
</svg>
