<?xml version="1.0" encoding="UTF-8" standalone="no"?>
<!DOCTYPE svg PUBLIC "-//W3C//DTD SVG 1.1//EN"
 "http://www.w3.org/Graphics/SVG/1.1/DTD/svg11.dtd">
<!-- Generated by graphviz version 2.38.0 (20140413.2041)
 -->
<!-- Title: simulation_datetime::increment_by_one_day_sub Pages: 1 -->
<svg width="503pt" height="66pt"
 viewBox="0.00 0.00 503.47 66.00" xmlns="http://www.w3.org/2000/svg" xmlns:xlink="http://www.w3.org/1999/xlink">
<g id="graph0" class="graph" transform="scale(1 1) rotate(0) translate(4 62)">
<title>simulation_datetime::increment_by_one_day_sub</title>
<polygon fill="white" stroke="none" points="-4,4 -4,-62 499.472,-62 499.472,4 -4,4"/>
<!-- Node2 -->
<g id="node1" class="node"><title>Node2</title>
<polygon fill="#bfbfbf" stroke="black" points="0,-14 0,-44 160.321,-44 160.321,-14 0,-14"/>
<text text-anchor="start" x="8" y="-31.2" font-family="Helvetica,sans-Serif" font-size="11.00">simulation_datetime</text>
<text text-anchor="middle" x="80.1606" y="-20.2" font-family="Helvetica,sans-Serif" font-size="11.00">::increment_by_one_day_sub</text>
</g>
<!-- Node3 -->
<g id="node2" class="node"><title>Node3</title>
<g id="a_node2"><a xlink:href="namespacedatetime.html#a9575f695885d806cc658b68cbdb75a70" target="_top" xlink:title="datetime::day_of_year">
<polygon fill="white" stroke="black" points="196.321,-19.5 196.321,-38.5 321.167,-38.5 321.167,-19.5 196.321,-19.5"/>
<text text-anchor="middle" x="258.744" y="-25.7" font-family="Helvetica,sans-Serif" font-size="11.00">datetime::day_of_year</text>
</a>
</g>
</g>
<!-- Node2&#45;&gt;Node3 -->
<g id="edge1" class="edge"><title>Node2&#45;&gt;Node3</title>
<path fill="none" stroke="midnightblue" d="M160.413,-29C168.952,-29 177.605,-29 186.048,-29"/>
<polygon fill="midnightblue" stroke="midnightblue" points="186.22,-32.5001 196.22,-29 186.22,-25.5001 186.22,-32.5001"/>
</g>
<!-- Node4 -->
<g id="node3" class="node"><title>Node4</title>
<g id="a_node3"><a xlink:href="namespacedatetime.html#a9d8dbfe179e1cc628e1b7ccec684e13a" target="_top" xlink:title="datetime::gregorian_date">
<polygon fill="white" stroke="black" points="357.167,-38.5 357.167,-57.5 495.472,-57.5 495.472,-38.5 357.167,-38.5"/>
<text text-anchor="middle" x="426.319" y="-44.7" font-family="Helvetica,sans-Serif" font-size="11.00">datetime::gregorian_date</text>
</a>
</g>
</g>
<!-- Node3&#45;&gt;Node4 -->
<g id="edge2" class="edge"><title>Node3&#45;&gt;Node4</title>
<path fill="none" stroke="midnightblue" d="M321.398,-36.0749C329.725,-37.0304 338.357,-38.021 346.926,-39.0043"/>
<polygon fill="midnightblue" stroke="midnightblue" points="346.601,-42.4899 356.935,-40.1528 347.399,-35.5355 346.601,-42.4899"/>
</g>
<!-- Node5 -->
<g id="node4" class="node"><title>Node5</title>
<g id="a_node4"><a xlink:href="namespacedatetime.html#a9ac1a0a808a83a072ebc08cf0b3b4d8a" target="_top" xlink:title="datetime::julian_day">
<polygon fill="white" stroke="black" points="369.399,-0.5 369.399,-19.5 483.239,-19.5 483.239,-0.5 369.399,-0.5"/>
<text text-anchor="middle" x="426.319" y="-6.7" font-family="Helvetica,sans-Serif" font-size="11.00">datetime::julian_day</text>
</a>
</g>
</g>
<!-- Node3&#45;&gt;Node5 -->
<g id="edge3" class="edge"><title>Node3&#45;&gt;Node5</title>
<path fill="none" stroke="midnightblue" d="M321.398,-21.9251C333.681,-20.5156 346.629,-19.0297 359.06,-17.6034"/>
<polygon fill="midnightblue" stroke="midnightblue" points="359.817,-21.0395 369.353,-16.4222 359.019,-14.0851 359.817,-21.0395"/>
</g>
</g>
</svg>
