<?xml version="1.0" encoding="UTF-8" standalone="no"?>
<!DOCTYPE svg PUBLIC "-//W3C//DTD SVG 1.1//EN"
 "http://www.w3.org/Graphics/SVG/1.1/DTD/svg11.dtd">
<!-- Generated by graphviz version 2.38.0 (20140413.2041)
 -->
<!-- Title: grid::grid_checkforproj4error Pages: 1 -->
<svg width="974pt" height="116pt"
 viewBox="0.00 0.00 973.69 115.50" xmlns="http://www.w3.org/2000/svg" xmlns:xlink="http://www.w3.org/1999/xlink">
<g id="graph0" class="graph" transform="scale(1 1) rotate(0) translate(4 111.5)">
<title>grid::grid_checkforproj4error</title>
<polygon fill="white" stroke="none" points="-4,4 -4,-111.5 969.686,-111.5 969.686,4 -4,4"/>
<!-- Node1 -->
<g id="node1" class="node"><title>Node1</title>
<polygon fill="#bfbfbf" stroke="black" points="0,-60.5 0,-79.5 154.171,-79.5 154.171,-60.5 0,-60.5"/>
<text text-anchor="middle" x="77.0857" y="-66.7" font-family="Helvetica,sans-Serif" font-size="11.00">grid::grid_checkforproj4error</text>
</g>
<!-- Node2 -->
<g id="node2" class="node"><title>Node2</title>
<g id="a_node2"><a xlink:href="namespacedata__catalog__entry.html#a0617e9df002a70a08e53dbb0a92edc53" target="_top" xlink:title="data_catalog_entry\l::calc_project_boundaries_sub">
<polygon fill="white" stroke="black" points="190.171,-77 190.171,-107 355.38,-107 355.38,-77 190.171,-77"/>
<text text-anchor="start" x="198.171" y="-94.2" font-family="Helvetica,sans-Serif" font-size="11.00">data_catalog_entry</text>
<text text-anchor="middle" x="272.776" y="-83.2" font-family="Helvetica,sans-Serif" font-size="11.00">::calc_project_boundaries_sub</text>
</a>
</g>
</g>
<!-- Node1&#45;&gt;Node2 -->
<g id="edge1" class="edge"><title>Node1&#45;&gt;Node2</title>
<path fill="none" stroke="midnightblue" d="M164.358,-79.7991C172.933,-80.7731 181.621,-81.7598 190.146,-82.7282"/>
<polygon fill="midnightblue" stroke="midnightblue" points="164.69,-76.3144 154.359,-78.6634 163.9,-83.2697 164.69,-76.3144"/>
</g>
<!-- Node3 -->
<g id="node3" class="node"><title>Node3</title>
<g id="a_node3"><a xlink:href="namespacegrid.html#a6eb75c46ff6156376f88e567ac0e5271" target="_top" xlink:title="Call PROJ4 to transform coordinates. ">
<polygon fill="white" stroke="black" points="217.091,-38.5 217.091,-57.5 328.46,-57.5 328.46,-38.5 217.091,-38.5"/>
<text text-anchor="middle" x="272.776" y="-44.7" font-family="Helvetica,sans-Serif" font-size="11.00">grid::grid_transform</text>
</a>
</g>
</g>
<!-- Node1&#45;&gt;Node3 -->
<g id="edge2" class="edge"><title>Node1&#45;&gt;Node3</title>
<path fill="none" stroke="midnightblue" d="M164.713,-60.1605C182.42,-58.1493 200.588,-56.0858 216.813,-54.2429"/>
<polygon fill="midnightblue" stroke="midnightblue" points="163.9,-56.7303 154.359,-61.3366 164.69,-63.6856 163.9,-56.7303"/>
</g>
<!-- Node4 -->
<g id="node4" class="node"><title>Node4</title>
<g id="a_node4"><a xlink:href="namespacemodel__initialize.html#a63c6e7946b13f1ffe90ca3e2d7df1387" target="_top" xlink:title="model_initialize::initialize\l_latitude">
<polygon fill="white" stroke="black" points="391.38,-61 391.38,-91 527.827,-91 527.827,-61 391.38,-61"/>
<text text-anchor="start" x="399.38" y="-78.2" font-family="Helvetica,sans-Serif" font-size="11.00">model_initialize::initialize</text>
<text text-anchor="middle" x="459.604" y="-67.2" font-family="Helvetica,sans-Serif" font-size="11.00">_latitude</text>
</a>
</g>
</g>
<!-- Node3&#45;&gt;Node4 -->
<g id="edge3" class="edge"><title>Node3&#45;&gt;Node4</title>
<path fill="none" stroke="midnightblue" d="M338.375,-57.7863C355.491,-60.3792 374.01,-63.1847 391.267,-65.7991"/>
<polygon fill="midnightblue" stroke="midnightblue" points="338.892,-54.3247 328.48,-56.2873 337.843,-61.2457 338.892,-54.3247"/>
</g>
<!-- Node8 -->
<g id="node8" class="node"><title>Node8</title>
<g id="a_node8"><a xlink:href="namespacedata__catalog__entry.html#aacf51804adb730b5710c4060576a7948" target="_top" xlink:title="data_catalog_entry\l::transform_grid_to\l_grid_sub">
<polygon fill="white" stroke="black" points="404.819,-0.5 404.819,-41.5 514.389,-41.5 514.389,-0.5 404.819,-0.5"/>
<text text-anchor="start" x="412.819" y="-28.7" font-family="Helvetica,sans-Serif" font-size="11.00">data_catalog_entry</text>
<text text-anchor="start" x="412.819" y="-17.7" font-family="Helvetica,sans-Serif" font-size="11.00">::transform_grid_to</text>
<text text-anchor="middle" x="459.604" y="-6.7" font-family="Helvetica,sans-Serif" font-size="11.00">_grid_sub</text>
</a>
</g>
</g>
<!-- Node3&#45;&gt;Node8 -->
<g id="edge7" class="edge"><title>Node3&#45;&gt;Node8</title>
<path fill="none" stroke="midnightblue" d="M338.557,-38.5367C360.162,-35.3805 383.987,-31.9002 404.677,-28.8777"/>
<polygon fill="midnightblue" stroke="midnightblue" points="337.869,-35.0999 328.48,-40.0087 338.881,-42.0264 337.869,-35.0999"/>
</g>
<!-- Node5 -->
<g id="node5" class="node"><title>Node5</title>
<g id="a_node5"><a xlink:href="namespacemodel__initialize.html#a39e959b59f3ec67f64a1b37a5b30ebc2" target="_top" xlink:title="model_initialize::initialize\l_ancillary_values">
<polygon fill="white" stroke="black" points="563.827,-61 563.827,-91 700.274,-91 700.274,-61 563.827,-61"/>
<text text-anchor="start" x="571.827" y="-78.2" font-family="Helvetica,sans-Serif" font-size="11.00">model_initialize::initialize</text>
<text text-anchor="middle" x="632.051" y="-67.2" font-family="Helvetica,sans-Serif" font-size="11.00">_ancillary_values</text>
</a>
</g>
</g>
<!-- Node4&#45;&gt;Node5 -->
<g id="edge4" class="edge"><title>Node4&#45;&gt;Node5</title>
<path fill="none" stroke="midnightblue" d="M538.232,-76C546.705,-76 555.28,-76 563.617,-76"/>
<polygon fill="midnightblue" stroke="midnightblue" points="537.969,-72.5001 527.969,-76 537.969,-79.5001 537.969,-72.5001"/>
</g>
<!-- Node6 -->
<g id="node6" class="node"><title>Node6</title>
<g id="a_node6"><a xlink:href="namespacemodel__initialize.html#a46370bf2e9ea112d1f219277ba7fd3ce" target="_top" xlink:title="model_initialize::initialize_all">
<polygon fill="white" stroke="black" points="736.274,-66.5 736.274,-85.5 889.844,-85.5 889.844,-66.5 736.274,-66.5"/>
<text text-anchor="middle" x="813.059" y="-72.7" font-family="Helvetica,sans-Serif" font-size="11.00">model_initialize::initialize_all</text>
</a>
</g>
</g>
<!-- Node5&#45;&gt;Node6 -->
<g id="edge5" class="edge"><title>Node5&#45;&gt;Node6</title>
<path fill="none" stroke="midnightblue" d="M710.638,-76C719.049,-76 727.602,-76 735.994,-76"/>
<polygon fill="midnightblue" stroke="midnightblue" points="710.471,-72.5001 700.471,-76 710.471,-79.5001 710.471,-72.5001"/>
</g>
<!-- Node7 -->
<g id="node7" class="node"><title>Node7</title>
<g id="a_node7"><a xlink:href="main_8F90.html#a8ec2266d83cd6c0b762cbcbc92c0af3d" target="_top" xlink:title="Main program which references all other modules; execution begins here. ">
<polygon fill="white" stroke="black" points="925.844,-66.5 925.844,-85.5 965.686,-85.5 965.686,-66.5 925.844,-66.5"/>
<text text-anchor="middle" x="945.765" y="-72.7" font-family="Helvetica,sans-Serif" font-size="11.00">main</text>
</a>
</g>
</g>
<!-- Node6&#45;&gt;Node7 -->
<g id="edge6" class="edge"><title>Node6&#45;&gt;Node7</title>
<path fill="none" stroke="midnightblue" d="M900.183,-76C909.678,-76 918.52,-76 925.785,-76"/>
<polygon fill="midnightblue" stroke="midnightblue" points="900.091,-72.5001 890.091,-76 900.091,-79.5001 900.091,-72.5001"/>
</g>
</g>
</svg>
