<?xml version="1.0" encoding="UTF-8" standalone="no"?>
<!DOCTYPE svg PUBLIC "-//W3C//DTD SVG 1.1//EN"
 "http://www.w3.org/Graphics/SVG/1.1/DTD/svg11.dtd">
<!-- Generated by graphviz version 2.38.0 (20140413.2041)
 -->
<!-- Title: actual_et__thornthwaite_mather_eqns::thornthwaite_mather_apwl Pages: 1 -->
<!--zoomable 132 -->
<svg id="main" version="1.1" xmlns="http://www.w3.org/2000/svg" xmlns:xlink="http://www.w3.org/1999/xlink" xml:space="preserve" onload="init(evt)">
<style type="text/css"><![CDATA[
.edge:hover path { stroke: red; }
.edge:hover polygon { stroke: red; fill: red; }
]]></style>
<script type="text/javascript"><![CDATA[
var edges = document.getElementsByTagName('g');
if (edges && edges.length) {
  for (var i=0;i<edges.length;i++) {
    if (edges[i].id.substr(0,4)=='edge') {
      edges[i].setAttribute('class','edge');
    }
  }
}
]]></script>
        <defs>
                <circle id="rim" cx="0" cy="0" r="7"/>
                <circle id="rim2" cx="0" cy="0" r="3.5"/>
                <g id="zoomPlus">
                        <use xlink:href="#rim" fill="#404040">
                                <set attributeName="fill" to="#808080" begin="zoomplus.mouseover" end="zoomplus.mouseout"/>
                        </use>
                        <path d="M-4,0h8M0,-4v8" fill="none" stroke="white" stroke-width="1.5" pointer-events="none"/>
                </g>
                <g id="zoomMin">
                        <use xlink:href="#rim" fill="#404040">
                                <set attributeName="fill" to="#808080" begin="zoomminus.mouseover" end="zoomminus.mouseout"/>
                        </use>
                        <path d="M-4,0h8" fill="none" stroke="white" stroke-width="1.5" pointer-events="none"/>
                </g>
                <g id="dirArrow">
                        <path fill="none" stroke="white" stroke-width="1.5" d="M0,-3.0v7 M-2.5,-0.5L0,-3.0L2.5,-0.5"/>
                </g>
               <g id="resetDef">
                       <use xlink:href="#rim2" fill="#404040">
                               <set attributeName="fill" to="#808080" begin="reset.mouseover" end="reset.mouseout"/>
                       </use>
               </g>
        </defs>

<script type="text/javascript">
var viewWidth = 708;
var viewHeight = 132;
var sectionId = 'dynsection-3';
</script>
<script xlink:href="svgpan.js"/>
<svg id="graph" class="graph">
<g id="viewport">
<title>actual_et__thornthwaite_mather_eqns::thornthwaite_mather_apwl</title>
<polygon fill="white" stroke="none" points="-4,4 -4,-128 704.328,-128 704.328,4 -4,4"/>
<!-- Node11 -->
<g id="node1" class="node"><title>Node11</title>
<polygon fill="#bfbfbf" stroke="black" points="0,-41 0,-82 152.361,-82 152.361,-41 0,-41"/>
<text text-anchor="start" x="8" y="-69.2" font-family="Helvetica,sans-Serif" font-size="11.00">actual_et__thornthwaite</text>
<text text-anchor="start" x="8" y="-58.2" font-family="Helvetica,sans-Serif" font-size="11.00">_mather_eqns::thornthwaite</text>
<text text-anchor="middle" x="76.1807" y="-47.2" font-family="Helvetica,sans-Serif" font-size="11.00">_mather_apwl</text>
</g>
<!-- Node12 -->
<g id="node2" class="node"><title>Node12</title>
<g id="a_node2"><a xlink:href="namespaceactual__et____thornthwaite__mather__eqns.html#afb7a65ecb71917316483a79348712f96" target="_top" xlink:title="actual_et__thornthwaite\l_mather_eqns::calculate\l_actual_et_thornthwaite\l_mather_eqns">
<polygon fill="white" stroke="black" points="188.361,-71.5 188.361,-123.5 324.212,-123.5 324.212,-71.5 188.361,-71.5"/>
<text text-anchor="start" x="196.361" y="-110.7" font-family="Helvetica,sans-Serif" font-size="11.00">actual_et__thornthwaite</text>
<text text-anchor="start" x="196.361" y="-99.7" font-family="Helvetica,sans-Serif" font-size="11.00">_mather_eqns::calculate</text>
<text text-anchor="start" x="196.361" y="-88.7" font-family="Helvetica,sans-Serif" font-size="11.00">_actual_et_thornthwaite</text>
<text text-anchor="middle" x="256.287" y="-77.7" font-family="Helvetica,sans-Serif" font-size="11.00">_mather_eqns</text>
</a>
</g>
</g>
<!-- Node11&#45;&gt;Node12 -->
<g id="edge1" class="edge"><title>Node11&#45;&gt;Node12</title>
<path fill="none" stroke="midnightblue" d="M162.529,-78.7511C171.144,-80.4925 179.806,-82.2433 188.191,-83.9381"/>
<polygon fill="midnightblue" stroke="midnightblue" points="162.951,-75.2657 152.455,-76.7151 161.564,-82.127 162.951,-75.2657"/>
</g>
<!-- Node15 -->
<g id="node5" class="node"><title>Node15</title>
<g id="a_node5"><a xlink:href="namespaceactual__et____thornthwaite__mather__eqns.html#a1fdfe860673649a18f95834bccaad9dd" target="_top" xlink:title="actual_et__thornthwaite\l_mather_eqns::initialize\l_actual_et_thornthwaite\l_mather_eqns">
<polygon fill="white" stroke="black" points="189.884,-0.5 189.884,-52.5 322.689,-52.5 322.689,-0.5 189.884,-0.5"/>
<text text-anchor="start" x="197.884" y="-39.7" font-family="Helvetica,sans-Serif" font-size="11.00">actual_et__thornthwaite</text>
<text text-anchor="start" x="197.884" y="-28.7" font-family="Helvetica,sans-Serif" font-size="11.00">_mather_eqns::initialize</text>
<text text-anchor="start" x="197.884" y="-17.7" font-family="Helvetica,sans-Serif" font-size="11.00">_actual_et_thornthwaite</text>
<text text-anchor="middle" x="256.287" y="-6.7" font-family="Helvetica,sans-Serif" font-size="11.00">_mather_eqns</text>
</a>
</g>
</g>
<!-- Node11&#45;&gt;Node15 -->
<g id="edge4" class="edge"><title>Node11&#45;&gt;Node15</title>
<path fill="none" stroke="midnightblue" d="M162.425,-44.7484C171.65,-42.9356 180.93,-41.112 189.867,-39.3558"/>
<polygon fill="midnightblue" stroke="midnightblue" points="161.593,-41.3449 152.455,-46.7076 162.943,-48.2136 161.593,-41.3449"/>
</g>
<!-- Node13 -->
<g id="node3" class="node"><title>Node13</title>
<g id="a_node3"><a xlink:href="namespacemodel__domain.html#a5ec52fa20f4e08cd60a0e93811993bba" target="_top" xlink:title="model_domain::model\l_calculate_actual_et\l_thornthwaite_mather_eqns">
<polygon fill="white" stroke="black" points="360.212,-74 360.212,-115 512.579,-115 512.579,-74 360.212,-74"/>
<text text-anchor="start" x="368.212" y="-102.2" font-family="Helvetica,sans-Serif" font-size="11.00">model_domain::model</text>
<text text-anchor="start" x="368.212" y="-91.2" font-family="Helvetica,sans-Serif" font-size="11.00">_calculate_actual_et</text>
<text text-anchor="middle" x="436.395" y="-80.2" font-family="Helvetica,sans-Serif" font-size="11.00">_thornthwaite_mather_eqns</text>
</a>
</g>
</g>
<!-- Node12&#45;&gt;Node13 -->
<g id="edge2" class="edge"><title>Node12&#45;&gt;Node13</title>
<path fill="none" stroke="midnightblue" d="M334.572,-96.1982C343.012,-96.0561 351.596,-95.9115 360.013,-95.7697"/>
<polygon fill="midnightblue" stroke="midnightblue" points="334.308,-92.7021 324.368,-96.3701 334.426,-99.7011 334.308,-92.7021"/>
</g>
<!-- Node14 -->
<g id="node4" class="node"><title>Node14</title>
<g id="a_node4"><a xlink:href="namespacemodel__domain.html#aac78dbf26ba37cf86ebed4edd7acf89b" target="_top" xlink:title="model_domain::set_method\l_pointers_sub">
<polygon fill="white" stroke="black" points="548.579,-47.5 548.579,-77.5 700.328,-77.5 700.328,-47.5 548.579,-47.5"/>
<text text-anchor="start" x="556.579" y="-64.7" font-family="Helvetica,sans-Serif" font-size="11.00">model_domain::set_method</text>
<text text-anchor="middle" x="624.453" y="-53.7" font-family="Helvetica,sans-Serif" font-size="11.00">_pointers_sub</text>
</a>
</g>
</g>
<!-- Node13&#45;&gt;Node14 -->
<g id="edge3" class="edge"><title>Node13&#45;&gt;Node14</title>
<path fill="none" stroke="midnightblue" d="M522.823,-79.8073C531.407,-78.3309 540.078,-76.8396 548.541,-75.3841"/>
<polygon fill="midnightblue" stroke="midnightblue" points="522.066,-76.3861 512.804,-81.5305 523.252,-83.2848 522.066,-76.3861"/>
</g>
<!-- Node16 -->
<g id="node6" class="node"><title>Node16</title>
<g id="a_node6"><a xlink:href="namespacemodel__domain.html#ae2c7066facd759963b51fe1aa6459c93" target="_top" xlink:title="model_domain::model\l_initialize_actual_et\l_thornthwaite_mather_eqns">
<polygon fill="white" stroke="black" points="360.212,-11 360.212,-52 512.579,-52 512.579,-11 360.212,-11"/>
<text text-anchor="start" x="368.212" y="-39.2" font-family="Helvetica,sans-Serif" font-size="11.00">model_domain::model</text>
<text text-anchor="start" x="368.212" y="-28.2" font-family="Helvetica,sans-Serif" font-size="11.00">_initialize_actual_et</text>
<text text-anchor="middle" x="436.395" y="-17.2" font-family="Helvetica,sans-Serif" font-size="11.00">_thornthwaite_mather_eqns</text>
</a>
</g>
</g>
<!-- Node15&#45;&gt;Node16 -->
<g id="edge5" class="edge"><title>Node15&#45;&gt;Node16</title>
<path fill="none" stroke="midnightblue" d="M332.895,-28.6225C341.882,-28.8748 351.055,-29.1323 360.038,-29.3845"/>
<polygon fill="midnightblue" stroke="midnightblue" points="332.943,-25.1226 322.849,-28.3405 332.747,-32.1198 332.943,-25.1226"/>
</g>
<!-- Node16&#45;&gt;Node14 -->
<g id="edge6" class="edge"><title>Node16&#45;&gt;Node14</title>
<path fill="none" stroke="midnightblue" d="M522.823,-45.7336C531.407,-47.1638 540.078,-48.6085 548.541,-50.0186"/>
<polygon fill="midnightblue" stroke="midnightblue" points="523.243,-42.2554 512.804,-44.0642 522.093,-49.1602 523.243,-42.2554"/>
</g>
</g>
</svg>
        <g id="navigator" transform="translate(0 0)" fill="#404254">
                <rect fill="#f2f5e9" fill-opacity="0.5" stroke="#606060" stroke-width=".5" x="0" y="0" width="60" height="60"/>
                <use id="zoomplus" xlink:href="#zoomPlus" x="17" y="9" onmousedown="handleZoom(evt,'in')"/>
                <use id="zoomminus" xlink:href="#zoomMin" x="42" y="9" onmousedown="handleZoom(evt,'out')"/>
                <use id="reset" xlink:href="#resetDef" x="30" y="36" onmousedown="handleReset()"/>
                <g id="arrowUp" xlink:href="#dirArrow" transform="translate(30 24)" onmousedown="handlePan(0,-1)">
                  <use xlink:href="#rim" fill="#404040">
                        <set attributeName="fill" to="#808080" begin="arrowUp.mouseover" end="arrowUp.mouseout"/>
                  </use>
                  <path fill="none" stroke="white" stroke-width="1.5" d="M0,-3.0v7 M-2.5,-0.5L0,-3.0L2.5,-0.5"/>
                </g>
                <g id="arrowRight" xlink:href="#dirArrow" transform="rotate(90) translate(36 -43)" onmousedown="handlePan(1,0)">
                  <use xlink:href="#rim" fill="#404040">
                        <set attributeName="fill" to="#808080" begin="arrowRight.mouseover" end="arrowRight.mouseout"/>
                  </use>
                  <path fill="none" stroke="white" stroke-width="1.5" d="M0,-3.0v7 M-2.5,-0.5L0,-3.0L2.5,-0.5"/>
                </g>
                <g id="arrowDown" xlink:href="#dirArrow" transform="rotate(180) translate(-30 -48)" onmousedown="handlePan(0,1)">
                  <use xlink:href="#rim" fill="#404040">
                        <set attributeName="fill" to="#808080" begin="arrowDown.mouseover" end="arrowDown.mouseout"/>
                  </use>
                  <path fill="none" stroke="white" stroke-width="1.5" d="M0,-3.0v7 M-2.5,-0.5L0,-3.0L2.5,-0.5"/>
                </g>
                <g id="arrowLeft" xlink:href="#dirArrow" transform="rotate(270) translate(-36 17)" onmousedown="handlePan(-1,0)">
                  <use xlink:href="#rim" fill="#404040">
                        <set attributeName="fill" to="#808080" begin="arrowLeft.mouseover" end="arrowLeft.mouseout"/>
                  </use>
                  <path fill="none" stroke="white" stroke-width="1.5" d="M0,-3.0v7 M-2.5,-0.5L0,-3.0L2.5,-0.5"/>
                </g>
        </g>
        <svg viewBox="0 0 15 15" width="100%" height="30px" preserveAspectRatio="xMaxYMin meet">
         <g id="arrow_out" transform="scale(0.3 0.3)">
          <a xlink:href="namespaceactual__et____thornthwaite__mather__eqns_a8b67a22e831afd6c828577642d2b8942_icgraph_org.svg" target="_base">
           <rect id="button" ry="5" rx="5" y="6" x="6" height="38" width="38"
                fill="#f2f5e9" fill-opacity="0.5" stroke="#606060" stroke-width="1.0"/>
           <path id="arrow"
             d="M 11.500037,31.436501 C 11.940474,20.09759 22.043105,11.32322 32.158766,21.979434 L 37.068811,17.246167 C 37.068811,17.246167 37.088388,32 37.088388,32 L 22.160133,31.978069 C 22.160133,31.978069 26.997745,27.140456 26.997745,27.140456 C 18.528582,18.264221 13.291696,25.230495 11.500037,31.436501 z"
             style="fill:#404040;"/>
          </a>
         </g>
        </svg>
</svg>
