<?xml version="1.0" encoding="UTF-8" standalone="no"?>
<!DOCTYPE svg PUBLIC "-//W3C//DTD SVG 1.1//EN"
 "http://www.w3.org/Graphics/SVG/1.1/DTD/svg11.dtd">
<!-- Generated by graphviz version 2.38.0 (20140413.2041)
 -->
<!-- Title: solar_calculations::day_angle__gamma Pages: 1 -->
<svg width="270pt" height="50pt"
 viewBox="0.00 0.00 270.46 50.00" xmlns="http://www.w3.org/2000/svg" xmlns:xlink="http://www.w3.org/1999/xlink">
<g id="graph0" class="graph" transform="scale(1 1) rotate(0) translate(4 46)">
<title>solar_calculations::day_angle__gamma</title>
<polygon fill="white" stroke="none" points="-4,4 -4,-46 266.46,-46 266.46,4 -4,4"/>
<!-- Node1 -->
<g id="node1" class="node"><title>Node1</title>
<polygon fill="#bfbfbf" stroke="black" points="0,-6 0,-36 121.794,-36 121.794,-6 0,-6"/>
<text text-anchor="start" x="8" y="-23.2" font-family="Helvetica,sans-Serif" font-size="11.00">solar_calculations</text>
<text text-anchor="middle" x="60.8972" y="-12.2" font-family="Helvetica,sans-Serif" font-size="11.00">::day_angle__gamma</text>
</g>
<!-- Node2 -->
<g id="node2" class="node"><title>Node2</title>
<g id="a_node2"><a xlink:href="namespacesolar__calculations.html#a0e20cb68547de003e26d553738d24403" target="_top" xlink:title="Calculate the solar declination for a given day of the year. ">
<polygon fill="white" stroke="black" points="157.794,-0.5 157.794,-41.5 262.46,-41.5 262.46,-0.5 157.794,-0.5"/>
<text text-anchor="start" x="165.794" y="-28.7" font-family="Helvetica,sans-Serif" font-size="11.00">solar_calculations</text>
<text text-anchor="start" x="165.794" y="-17.7" font-family="Helvetica,sans-Serif" font-size="11.00">::solar_declination</text>
<text text-anchor="middle" x="210.127" y="-6.7" font-family="Helvetica,sans-Serif" font-size="11.00">__delta</text>
</a>
</g>
</g>
<!-- Node1&#45;&gt;Node2 -->
<g id="edge1" class="edge"><title>Node1&#45;&gt;Node2</title>
<path fill="none" stroke="midnightblue" d="M132.485,-21C140.959,-21 149.487,-21 157.617,-21"/>
<polygon fill="midnightblue" stroke="midnightblue" points="132.206,-17.5001 122.206,-21 132.206,-24.5001 132.206,-17.5001"/>
</g>
</g>
</svg>
