<?xml version="1.0" encoding="UTF-8" standalone="no"?>
<!DOCTYPE svg PUBLIC "-//W3C//DTD SVG 1.1//EN"
 "http://www.w3.org/Graphics/SVG/1.1/DTD/svg11.dtd">
<!-- Generated by graphviz version 2.38.0 (20140413.2041)
 -->
<!-- Title: netcdf4_support::nf_open_file Pages: 1 -->
<svg width="478pt" height="83pt"
 viewBox="0.00 0.00 477.79 83.00" xmlns="http://www.w3.org/2000/svg" xmlns:xlink="http://www.w3.org/1999/xlink">
<g id="graph0" class="graph" transform="scale(1 1) rotate(0) translate(4 79)">
<title>netcdf4_support::nf_open_file</title>
<polygon fill="white" stroke="none" points="-4,4 -4,-79 473.792,-79 473.792,4 -4,4"/>
<!-- Node201 -->
<g id="node1" class="node"><title>Node201</title>
<polygon fill="#bfbfbf" stroke="black" points="0,-22.5 0,-52.5 110.177,-52.5 110.177,-22.5 0,-22.5"/>
<text text-anchor="start" x="8" y="-39.7" font-family="Helvetica,sans-Serif" font-size="11.00">netcdf4_support::nf</text>
<text text-anchor="middle" x="55.0884" y="-28.7" font-family="Helvetica,sans-Serif" font-size="11.00">_open_file</text>
</g>
<!-- Node202 -->
<g id="node2" class="node"><title>Node202</title>
<g id="a_node2"><a xlink:href="namespacenetcdf4__support.html#ae3647a050723866e061cd0b58a013985" target="_top" xlink:title="netcdf4_support::netcdf\l_dump_cdl">
<polygon fill="white" stroke="black" points="148.317,-44.5 148.317,-74.5 279.285,-74.5 279.285,-44.5 148.317,-44.5"/>
<text text-anchor="start" x="156.317" y="-61.7" font-family="Helvetica,sans-Serif" font-size="11.00">netcdf4_support::netcdf</text>
<text text-anchor="middle" x="213.801" y="-50.7" font-family="Helvetica,sans-Serif" font-size="11.00">_dump_cdl</text>
</a>
</g>
</g>
<!-- Node201&#45;&gt;Node202 -->
<g id="edge1" class="edge"><title>Node201&#45;&gt;Node202</title>
<path fill="none" stroke="midnightblue" d="M110.459,-45.1328C119.418,-46.3905 128.84,-47.7132 138.191,-49.0259"/>
<polygon fill="midnightblue" stroke="midnightblue" points="137.895,-52.5186 148.284,-50.4429 138.868,-45.5866 137.895,-52.5186"/>
</g>
<!-- Node203 -->
<g id="node3" class="node"><title>Node203</title>
<g id="a_node3"><a xlink:href="namespacenetcdf4__support.html#ac8c7276a5849ae6d17ffef1787e3f234" target="_top" xlink:title="netcdf4_support::nf_trap">
<polygon fill="white" stroke="black" points="146.177,-6 146.177,-25 281.426,-25 281.426,-6 146.177,-6"/>
<text text-anchor="middle" x="213.801" y="-12.2" font-family="Helvetica,sans-Serif" font-size="11.00">netcdf4_support::nf_trap</text>
</a>
</g>
</g>
<!-- Node201&#45;&gt;Node203 -->
<g id="edge2" class="edge"><title>Node201&#45;&gt;Node203</title>
<path fill="none" stroke="midnightblue" d="M110.459,-29.8672C118.719,-28.7076 127.373,-27.4928 136.002,-26.2815"/>
<polygon fill="midnightblue" stroke="midnightblue" points="136.678,-29.7209 146.094,-24.8646 135.705,-22.7889 136.678,-29.7209"/>
</g>
<!-- Node204 -->
<g id="node4" class="node"><title>Node204</title>
<g id="a_node4"><a xlink:href="namespaceconstants__and__conversions.html#ac13fba285229deab77131132e6f62caf" target="_top" xlink:title="constants_and_conversions\l::char_ptr_to_fortran_string">
<polygon fill="white" stroke="black" points="317.426,-0.5 317.426,-30.5 469.792,-30.5 469.792,-0.5 317.426,-0.5"/>
<text text-anchor="start" x="325.426" y="-17.7" font-family="Helvetica,sans-Serif" font-size="11.00">constants_and_conversions</text>
<text text-anchor="middle" x="393.609" y="-6.7" font-family="Helvetica,sans-Serif" font-size="11.00">::char_ptr_to_fortran_string</text>
</a>
</g>
</g>
<!-- Node203&#45;&gt;Node204 -->
<g id="edge3" class="edge"><title>Node203&#45;&gt;Node204</title>
<path fill="none" stroke="midnightblue" d="M281.516,-15.5C289.874,-15.5 298.511,-15.5 307.106,-15.5"/>
<polygon fill="midnightblue" stroke="midnightblue" points="307.156,-19.0001 317.156,-15.5 307.156,-12.0001 307.156,-19.0001"/>
</g>
</g>
</svg>
