<?xml version="1.0" encoding="UTF-8" standalone="no"?>
<!DOCTYPE svg PUBLIC "-//W3C//DTD SVG 1.1//EN"
 "http://www.w3.org/Graphics/SVG/1.1/DTD/svg11.dtd">
<!-- Generated by graphviz version 2.38.0 (20140413.2041)
 -->
<!-- Title: data_catalog_entry::nullify_pointers_sub Pages: 1 -->
<svg width="294pt" height="39pt"
 viewBox="0.00 0.00 294.31 39.00" xmlns="http://www.w3.org/2000/svg" xmlns:xlink="http://www.w3.org/1999/xlink">
<g id="graph0" class="graph" transform="scale(1 1) rotate(0) translate(4 35)">
<title>data_catalog_entry::nullify_pointers_sub</title>
<polygon fill="white" stroke="none" points="-4,4 -4,-35 290.308,-35 290.308,4 -4,4"/>
<!-- Node1 -->
<g id="node1" class="node"><title>Node1</title>
<polygon fill="#bfbfbf" stroke="black" points="0,-0.5 0,-30.5 119.34,-30.5 119.34,-0.5 0,-0.5"/>
<text text-anchor="start" x="8" y="-17.7" font-family="Helvetica,sans-Serif" font-size="11.00">data_catalog_entry</text>
<text text-anchor="middle" x="59.6699" y="-6.7" font-family="Helvetica,sans-Serif" font-size="11.00">::nullify_pointers_sub</text>
</g>
<!-- Node2 -->
<g id="node2" class="node"><title>Node2</title>
<g id="a_node2"><a xlink:href="namespacenetcdf4__support.html#ac3c077adb4c2e0578d53be7d42489828" target="_top" xlink:title="netcdf4_support::netcdf\l_nullify_data_struct">
<polygon fill="white" stroke="black" points="155.34,-0.5 155.34,-30.5 286.308,-30.5 286.308,-0.5 155.34,-0.5"/>
<text text-anchor="start" x="163.34" y="-17.7" font-family="Helvetica,sans-Serif" font-size="11.00">netcdf4_support::netcdf</text>
<text text-anchor="middle" x="220.824" y="-6.7" font-family="Helvetica,sans-Serif" font-size="11.00">_nullify_data_struct</text>
</a>
</g>
</g>
<!-- Node1&#45;&gt;Node2 -->
<g id="edge1" class="edge"><title>Node1&#45;&gt;Node2</title>
<path fill="none" stroke="midnightblue" d="M119.481,-15.5C127.818,-15.5 136.483,-15.5 145.072,-15.5"/>
<polygon fill="midnightblue" stroke="midnightblue" points="145.096,-19.0001 155.096,-15.5 145.096,-12.0001 145.096,-19.0001"/>
</g>
</g>
</svg>
