<?xml version="1.0" encoding="UTF-8" standalone="no"?>
<!DOCTYPE svg PUBLIC "-//W3C//DTD SVG 1.1//EN"
 "http://www.w3.org/Graphics/SVG/1.1/DTD/svg11.dtd">
<!-- Generated by graphviz version 2.38.0 (20140413.2041)
 -->
<!-- Title: model_domain::model_calculate_actual_et_fao56 Pages: 1 -->
<svg width="516pt" height="39pt"
 viewBox="0.00 0.00 515.74 39.00" xmlns="http://www.w3.org/2000/svg" xmlns:xlink="http://www.w3.org/1999/xlink">
<g id="graph0" class="graph" transform="scale(1 1) rotate(0) translate(4 35)">
<title>model_domain::model_calculate_actual_et_fao56</title>
<polygon fill="white" stroke="none" points="-4,4 -4,-35 511.745,-35 511.745,4 -4,4"/>
<!-- Node403 -->
<g id="node1" class="node"><title>Node403</title>
<polygon fill="#bfbfbf" stroke="black" points="0,-0.5 0,-30.5 149.939,-30.5 149.939,-0.5 0,-0.5"/>
<text text-anchor="start" x="8" y="-17.7" font-family="Helvetica,sans-Serif" font-size="11.00">model_domain::model</text>
<text text-anchor="middle" x="74.9695" y="-6.7" font-family="Helvetica,sans-Serif" font-size="11.00">_calculate_actual_et_fao56</text>
</g>
<!-- Node404 -->
<g id="node2" class="node"><title>Node404</title>
<g id="a_node2"><a xlink:href="namespaceactual__et____fao56.html#a279c33dd7fe6168cfa4a2f1cba054253" target="_top" xlink:title="actual_et__fao56::calculate\l_actual_et_fao56">
<polygon fill="white" stroke="black" points="185.939,-0.5 185.939,-30.5 335.873,-30.5 335.873,-0.5 185.939,-0.5"/>
<text text-anchor="start" x="193.939" y="-17.7" font-family="Helvetica,sans-Serif" font-size="11.00">actual_et__fao56::calculate</text>
<text text-anchor="middle" x="260.906" y="-6.7" font-family="Helvetica,sans-Serif" font-size="11.00">_actual_et_fao56</text>
</a>
</g>
</g>
<!-- Node403&#45;&gt;Node404 -->
<g id="edge1" class="edge"><title>Node403&#45;&gt;Node404</title>
<path fill="none" stroke="midnightblue" d="M149.988,-15.5C158.455,-15.5 167.133,-15.5 175.719,-15.5"/>
<polygon fill="midnightblue" stroke="midnightblue" points="175.739,-19.0001 185.739,-15.5 175.739,-12.0001 175.739,-19.0001"/>
</g>
<!-- Node405 -->
<g id="node3" class="node"><title>Node405</title>
<g id="a_node3"><a xlink:href="namespaceactual__et____fao56.html#ae492f2b0b0750fc514cca8c769cb83ae" target="_top" xlink:title="Adjust the depletion fraction based on current reference ET0. ">
<polygon fill="white" stroke="black" points="371.873,-0.5 371.873,-30.5 507.745,-30.5 507.745,-0.5 371.873,-0.5"/>
<text text-anchor="start" x="379.873" y="-17.7" font-family="Helvetica,sans-Serif" font-size="11.00">actual_et__fao56::adjust</text>
<text text-anchor="middle" x="439.809" y="-6.7" font-family="Helvetica,sans-Serif" font-size="11.00">_depletion_fraction_p</text>
</a>
</g>
</g>
<!-- Node404&#45;&gt;Node405 -->
<g id="edge2" class="edge"><title>Node404&#45;&gt;Node405</title>
<path fill="none" stroke="midnightblue" d="M335.903,-15.5C344.317,-15.5 352.911,-15.5 361.368,-15.5"/>
<polygon fill="midnightblue" stroke="midnightblue" points="361.594,-19.0001 371.594,-15.5 361.594,-12.0001 361.594,-19.0001"/>
</g>
</g>
</svg>
