<?xml version="1.0" encoding="UTF-8" standalone="no"?>
<!DOCTYPE svg PUBLIC "-//W3C//DTD SVG 1.1//EN"
 "http://www.w3.org/Graphics/SVG/1.1/DTD/svg11.dtd">
<!-- Generated by graphviz version 2.38.0 (20140413.2041)
 -->
<!-- Title: runoff__curve_number::update_curve_number_fn Pages: 1 -->
<svg width="674pt" height="50pt"
 viewBox="0.00 0.00 674.31 50.00" xmlns="http://www.w3.org/2000/svg" xmlns:xlink="http://www.w3.org/1999/xlink">
<g id="graph0" class="graph" transform="scale(1 1) rotate(0) translate(4 46)">
<title>runoff__curve_number::update_curve_number_fn</title>
<polygon fill="white" stroke="none" points="-4,4 -4,-46 670.312,-46 670.312,4 -4,4"/>
<!-- Node1 -->
<g id="node1" class="node"><title>Node1</title>
<polygon fill="#bfbfbf" stroke="black" points="0,-6 0,-36 147.479,-36 147.479,-6 0,-6"/>
<text text-anchor="start" x="8" y="-23.2" font-family="Helvetica,sans-Serif" font-size="11.00">runoff__curve_number</text>
<text text-anchor="middle" x="73.7395" y="-12.2" font-family="Helvetica,sans-Serif" font-size="11.00">::update_curve_number_fn</text>
</g>
<!-- Node2 -->
<g id="node2" class="node"><title>Node2</title>
<g id="a_node2"><a xlink:href="namespacerunoff____curve__number.html#ae9da818d0a188e22ab1cb6210cb254f8" target="_top" xlink:title="Calculate the runoff by means of the curve number method. ">
<polygon fill="white" stroke="black" points="183.479,-0.5 183.479,-41.5 309.962,-41.5 309.962,-0.5 183.479,-0.5"/>
<text text-anchor="start" x="191.479" y="-28.7" font-family="Helvetica,sans-Serif" font-size="11.00">runoff__curve_number</text>
<text text-anchor="start" x="191.479" y="-17.7" font-family="Helvetica,sans-Serif" font-size="11.00">::runoff_curve_number</text>
<text text-anchor="middle" x="246.721" y="-6.7" font-family="Helvetica,sans-Serif" font-size="11.00">_calculate</text>
</a>
</g>
</g>
<!-- Node1&#45;&gt;Node2 -->
<g id="edge1" class="edge"><title>Node1&#45;&gt;Node2</title>
<path fill="none" stroke="midnightblue" d="M157.836,-21C166.462,-21 175.12,-21 183.459,-21"/>
<polygon fill="midnightblue" stroke="midnightblue" points="157.747,-17.5001 147.747,-21 157.747,-24.5001 157.747,-17.5001"/>
</g>
<!-- Node3 -->
<g id="node3" class="node"><title>Node3</title>
<g id="a_node3"><a xlink:href="namespacemodel__domain.html#a4cf0da1e10aa8b3c8105cf8e636da443" target="_top" xlink:title="model_domain::model\l_calculate_runoff_curve\l_number">
<polygon fill="white" stroke="black" points="345.962,-0.5 345.962,-41.5 478.563,-41.5 478.563,-0.5 345.962,-0.5"/>
<text text-anchor="start" x="353.962" y="-28.7" font-family="Helvetica,sans-Serif" font-size="11.00">model_domain::model</text>
<text text-anchor="start" x="353.962" y="-17.7" font-family="Helvetica,sans-Serif" font-size="11.00">_calculate_runoff_curve</text>
<text text-anchor="middle" x="412.263" y="-6.7" font-family="Helvetica,sans-Serif" font-size="11.00">_number</text>
</a>
</g>
</g>
<!-- Node2&#45;&gt;Node3 -->
<g id="edge2" class="edge"><title>Node2&#45;&gt;Node3</title>
<path fill="none" stroke="midnightblue" d="M320.028,-21C328.633,-21 337.379,-21 345.879,-21"/>
<polygon fill="midnightblue" stroke="midnightblue" points="320.016,-17.5001 310.016,-21 320.016,-24.5001 320.016,-17.5001"/>
</g>
<!-- Node4 -->
<g id="node4" class="node"><title>Node4</title>
<g id="a_node4"><a xlink:href="namespacemodel__domain.html#aac78dbf26ba37cf86ebed4edd7acf89b" target="_top" xlink:title="model_domain::set_method\l_pointers_sub">
<polygon fill="white" stroke="black" points="514.563,-6 514.563,-36 666.312,-36 666.312,-6 514.563,-6"/>
<text text-anchor="start" x="522.563" y="-23.2" font-family="Helvetica,sans-Serif" font-size="11.00">model_domain::set_method</text>
<text text-anchor="middle" x="590.438" y="-12.2" font-family="Helvetica,sans-Serif" font-size="11.00">_pointers_sub</text>
</a>
</g>
</g>
<!-- Node3&#45;&gt;Node4 -->
<g id="edge3" class="edge"><title>Node3&#45;&gt;Node4</title>
<path fill="none" stroke="midnightblue" d="M488.992,-21C497.375,-21 505.909,-21 514.285,-21"/>
<polygon fill="midnightblue" stroke="midnightblue" points="488.864,-17.5001 478.864,-21 488.864,-24.5001 488.864,-17.5001"/>
</g>
</g>
</svg>
