<?xml version="1.0" encoding="UTF-8" standalone="no"?>
<!DOCTYPE svg PUBLIC "-//W3C//DTD SVG 1.1//EN"
 "http://www.w3.org/Graphics/SVG/1.1/DTD/svg11.dtd">
<!-- Generated by graphviz version 2.38.0 (20140413.2041)
 -->
<!-- Title: actual_et__thornthwaite_mather_eqns::initialize_actual_et_thornthwaite_mather_eqns Pages: 1 -->
<svg width="329pt" height="61pt"
 viewBox="0.00 0.00 329.17 61.00" xmlns="http://www.w3.org/2000/svg" xmlns:xlink="http://www.w3.org/1999/xlink">
<g id="graph0" class="graph" transform="scale(1 1) rotate(0) translate(4 57)">
<title>actual_et__thornthwaite_mather_eqns::initialize_actual_et_thornthwaite_mather_eqns</title>
<polygon fill="white" stroke="none" points="-4,4 -4,-57 325.167,-57 325.167,4 -4,4"/>
<!-- Node1 -->
<g id="node1" class="node"><title>Node1</title>
<polygon fill="#bfbfbf" stroke="black" points="0,-0.5 0,-52.5 132.805,-52.5 132.805,-0.5 0,-0.5"/>
<text text-anchor="start" x="8" y="-39.7" font-family="Helvetica,sans-Serif" font-size="11.00">actual_et__thornthwaite</text>
<text text-anchor="start" x="8" y="-28.7" font-family="Helvetica,sans-Serif" font-size="11.00">_mather_eqns::initialize</text>
<text text-anchor="start" x="8" y="-17.7" font-family="Helvetica,sans-Serif" font-size="11.00">_actual_et_thornthwaite</text>
<text text-anchor="middle" x="66.4026" y="-6.7" font-family="Helvetica,sans-Serif" font-size="11.00">_mather_eqns</text>
</g>
<!-- Node2 -->
<g id="node2" class="node"><title>Node2</title>
<g id="a_node2"><a xlink:href="namespaceactual__et____thornthwaite__mather__eqns.html#a8b67a22e831afd6c828577642d2b8942" target="_top" xlink:title="Return an updated APWL given the max soil&#45;water&#45;capacity and current soil storage. ">
<polygon fill="white" stroke="black" points="168.805,-6 168.805,-47 321.167,-47 321.167,-6 168.805,-6"/>
<text text-anchor="start" x="176.805" y="-34.2" font-family="Helvetica,sans-Serif" font-size="11.00">actual_et__thornthwaite</text>
<text text-anchor="start" x="176.805" y="-23.2" font-family="Helvetica,sans-Serif" font-size="11.00">_mather_eqns::thornthwaite</text>
<text text-anchor="middle" x="244.986" y="-12.2" font-family="Helvetica,sans-Serif" font-size="11.00">_mather_apwl</text>
</a>
</g>
</g>
<!-- Node1&#45;&gt;Node2 -->
<g id="edge1" class="edge"><title>Node1&#45;&gt;Node2</title>
<path fill="none" stroke="midnightblue" d="M132.905,-26.5C141.3,-26.5 149.99,-26.5 158.642,-26.5"/>
<polygon fill="midnightblue" stroke="midnightblue" points="158.762,-30.0001 168.762,-26.5 158.762,-23.0001 158.762,-30.0001"/>
</g>
</g>
</svg>
