<?xml version="1.0" encoding="UTF-8" standalone="no"?>
<!DOCTYPE svg PUBLIC "-//W3C//DTD SVG 1.1//EN"
 "http://www.w3.org/Graphics/SVG/1.1/DTD/svg11.dtd">
<!-- Generated by graphviz version 2.38.0 (20140413.2041)
 -->
<!-- Title: data_catalog::catalog_delete_entry_sub Pages: 1 -->
<svg width="285pt" height="39pt"
 viewBox="0.00 0.00 285.16 39.00" xmlns="http://www.w3.org/2000/svg" xmlns:xlink="http://www.w3.org/1999/xlink">
<g id="graph0" class="graph" transform="scale(1 1) rotate(0) translate(4 35)">
<title>data_catalog::catalog_delete_entry_sub</title>
<polygon fill="white" stroke="none" points="-4,4 -4,-35 281.161,-35 281.161,4 -4,4"/>
<!-- Node1 -->
<g id="node1" class="node"><title>Node1</title>
<polygon fill="#bfbfbf" stroke="black" points="0,-0.5 0,-30.5 120.581,-30.5 120.581,-0.5 0,-0.5"/>
<text text-anchor="start" x="8" y="-17.7" font-family="Helvetica,sans-Serif" font-size="11.00">data_catalog::catalog</text>
<text text-anchor="middle" x="60.2903" y="-6.7" font-family="Helvetica,sans-Serif" font-size="11.00">_delete_entry_sub</text>
</g>
<!-- Node2 -->
<g id="node2" class="node"><title>Node2</title>
<g id="a_node2"><a xlink:href="namespacedata__catalog.html#a584ae3d5afcaba38d2d7f943218b2bed" target="_top" xlink:title="data_catalog::catalog\l_find_key_fn">
<polygon fill="white" stroke="black" points="156.581,-0.5 156.581,-30.5 277.161,-30.5 277.161,-0.5 156.581,-0.5"/>
<text text-anchor="start" x="164.581" y="-17.7" font-family="Helvetica,sans-Serif" font-size="11.00">data_catalog::catalog</text>
<text text-anchor="middle" x="216.871" y="-6.7" font-family="Helvetica,sans-Serif" font-size="11.00">_find_key_fn</text>
</a>
</g>
</g>
<!-- Node1&#45;&gt;Node2 -->
<g id="edge1" class="edge"><title>Node1&#45;&gt;Node2</title>
<path fill="none" stroke="midnightblue" d="M120.613,-15.5C129.058,-15.5 137.806,-15.5 146.423,-15.5"/>
<polygon fill="midnightblue" stroke="midnightblue" points="146.451,-19.0001 156.451,-15.5 146.451,-12.0001 146.451,-19.0001"/>
</g>
</g>
</svg>
