<?xml version="1.0" encoding="UTF-8" standalone="no"?>
<!DOCTYPE svg PUBLIC "-//W3C//DTD SVG 1.1//EN"
 "http://www.w3.org/Graphics/SVG/1.1/DTD/svg11.dtd">
<!-- Generated by graphviz version 2.38.0 (20140413.2041)
 -->
<!-- Title: actual_et__fao56::calculate_actual_et_fao56 Pages: 1 -->
<svg width="330pt" height="39pt"
 viewBox="0.00 0.00 329.81 39.00" xmlns="http://www.w3.org/2000/svg" xmlns:xlink="http://www.w3.org/1999/xlink">
<g id="graph0" class="graph" transform="scale(1 1) rotate(0) translate(4 35)">
<title>actual_et__fao56::calculate_actual_et_fao56</title>
<polygon fill="white" stroke="none" points="-4,4 -4,-35 325.806,-35 325.806,4 -4,4"/>
<!-- Node9 -->
<g id="node1" class="node"><title>Node9</title>
<polygon fill="#bfbfbf" stroke="black" points="0,-0.5 0,-30.5 149.934,-30.5 149.934,-0.5 0,-0.5"/>
<text text-anchor="start" x="8" y="-17.7" font-family="Helvetica,sans-Serif" font-size="11.00">actual_et__fao56::calculate</text>
<text text-anchor="middle" x="74.9668" y="-6.7" font-family="Helvetica,sans-Serif" font-size="11.00">_actual_et_fao56</text>
</g>
<!-- Node10 -->
<g id="node2" class="node"><title>Node10</title>
<g id="a_node2"><a xlink:href="namespaceactual__et____fao56.html#ae492f2b0b0750fc514cca8c769cb83ae" target="_top" xlink:title="Adjust the depletion fraction based on current reference ET0. ">
<polygon fill="white" stroke="black" points="185.934,-0.5 185.934,-30.5 321.806,-30.5 321.806,-0.5 185.934,-0.5"/>
<text text-anchor="start" x="193.934" y="-17.7" font-family="Helvetica,sans-Serif" font-size="11.00">actual_et__fao56::adjust</text>
<text text-anchor="middle" x="253.87" y="-6.7" font-family="Helvetica,sans-Serif" font-size="11.00">_depletion_fraction_p</text>
</a>
</g>
</g>
<!-- Node9&#45;&gt;Node10 -->
<g id="edge1" class="edge"><title>Node9&#45;&gt;Node10</title>
<path fill="none" stroke="midnightblue" d="M149.965,-15.5C158.378,-15.5 166.972,-15.5 175.429,-15.5"/>
<polygon fill="midnightblue" stroke="midnightblue" points="175.655,-19.0001 185.655,-15.5 175.655,-12.0001 175.655,-19.0001"/>
</g>
</g>
</svg>
