<?xml version="1.0" encoding="UTF-8" standalone="no"?>
<!DOCTYPE svg PUBLIC "-//W3C//DTD SVG 1.1//EN"
 "http://www.w3.org/Graphics/SVG/1.1/DTD/svg11.dtd">
<!-- Generated by graphviz version 2.38.0 (20140413.2041)
 -->
<!-- Title: grid::grid_getgridy Pages: 1 -->
<!--zoomable 167 -->
<svg id="main" version="1.1" xmlns="http://www.w3.org/2000/svg" xmlns:xlink="http://www.w3.org/1999/xlink" xml:space="preserve" onload="init(evt)">
<style type="text/css"><![CDATA[
.edge:hover path { stroke: red; }
.edge:hover polygon { stroke: red; fill: red; }
]]></style>
<script type="text/javascript"><![CDATA[
var edges = document.getElementsByTagName('g');
if (edges && edges.length) {
  for (var i=0;i<edges.length;i++) {
    if (edges[i].id.substr(0,4)=='edge') {
      edges[i].setAttribute('class','edge');
    }
  }
}
]]></script>
        <defs>
                <circle id="rim" cx="0" cy="0" r="7"/>
                <circle id="rim2" cx="0" cy="0" r="3.5"/>
                <g id="zoomPlus">
                        <use xlink:href="#rim" fill="#404040">
                                <set attributeName="fill" to="#808080" begin="zoomplus.mouseover" end="zoomplus.mouseout"/>
                        </use>
                        <path d="M-4,0h8M0,-4v8" fill="none" stroke="white" stroke-width="1.5" pointer-events="none"/>
                </g>
                <g id="zoomMin">
                        <use xlink:href="#rim" fill="#404040">
                                <set attributeName="fill" to="#808080" begin="zoomminus.mouseover" end="zoomminus.mouseout"/>
                        </use>
                        <path d="M-4,0h8" fill="none" stroke="white" stroke-width="1.5" pointer-events="none"/>
                </g>
                <g id="dirArrow">
                        <path fill="none" stroke="white" stroke-width="1.5" d="M0,-3.0v7 M-2.5,-0.5L0,-3.0L2.5,-0.5"/>
                </g>
               <g id="resetDef">
                       <use xlink:href="#rim2" fill="#404040">
                               <set attributeName="fill" to="#808080" begin="reset.mouseover" end="reset.mouseout"/>
                       </use>
               </g>
        </defs>

<script type="text/javascript">
var viewWidth = 1046;
var viewHeight = 167;
var sectionId = 'dynsection-32';
</script>
<script xlink:href="svgpan.js"/>
<svg id="graph" class="graph">
<g id="viewport">
<title>grid::grid_getgridy</title>
<polygon fill="white" stroke="none" points="-4,4 -4,-162.5 1042.49,-162.5 1042.49,4 -4,4"/>
<!-- Node181 -->
<g id="node1" class="node"><title>Node181</title>
<polygon fill="#bfbfbf" stroke="black" points="0,-76.5 0,-95.5 104.048,-95.5 104.048,-76.5 0,-76.5"/>
<text text-anchor="middle" x="52.0242" y="-82.7" font-family="Helvetica,sans-Serif" font-size="11.00">grid::grid_getgridy</text>
</g>
<!-- Node182 -->
<g id="node2" class="node"><title>Node182</title>
<g id="a_node2"><a xlink:href="namespacegrid.html#ace8ea960868faf40cf79d5303f881ed8" target="_top" xlink:title="grid::grid_populatexy">
<polygon fill="white" stroke="black" points="140.048,-76.5 140.048,-95.5 258.169,-95.5 258.169,-76.5 140.048,-76.5"/>
<text text-anchor="middle" x="199.109" y="-82.7" font-family="Helvetica,sans-Serif" font-size="11.00">grid::grid_populatexy</text>
</a>
</g>
</g>
<!-- Node181&#45;&gt;Node182 -->
<g id="edge1" class="edge"><title>Node181&#45;&gt;Node182</title>
<path fill="none" stroke="midnightblue" d="M114.39,-86C122.875,-86 131.57,-86 139.994,-86"/>
<polygon fill="midnightblue" stroke="midnightblue" points="114.176,-82.5001 104.176,-86 114.175,-89.5001 114.176,-82.5001"/>
</g>
<!-- Node183 -->
<g id="node3" class="node"><title>Node183</title>
<g id="a_node3"><a xlink:href="namespacegrid.html#a6eb75c46ff6156376f88e567ac0e5271" target="_top" xlink:title="Call PROJ4 to transform coordinates. ">
<polygon fill="white" stroke="black" points="305.494,-114.5 305.494,-133.5 416.863,-133.5 416.863,-114.5 305.494,-114.5"/>
<text text-anchor="middle" x="361.178" y="-120.7" font-family="Helvetica,sans-Serif" font-size="11.00">grid::grid_transform</text>
</a>
</g>
</g>
<!-- Node182&#45;&gt;Node183 -->
<g id="edge2" class="edge"><title>Node182&#45;&gt;Node183</title>
<path fill="none" stroke="midnightblue" d="M250.522,-97.968C272.953,-103.293 298.999,-109.476 320.077,-114.48"/>
<polygon fill="midnightblue" stroke="midnightblue" points="251.039,-94.4935 240.501,-95.589 249.422,-101.304 251.039,-94.4935"/>
</g>
<!-- Node184 -->
<g id="node4" class="node"><title>Node184</title>
<g id="a_node4"><a xlink:href="namespacemodel__initialize.html#a63c6e7946b13f1ffe90ca3e2d7df1387" target="_top" xlink:title="model_initialize::initialize\l_latitude">
<polygon fill="white" stroke="black" points="464.188,-128 464.188,-158 600.635,-158 600.635,-128 464.188,-128"/>
<text text-anchor="start" x="472.188" y="-145.2" font-family="Helvetica,sans-Serif" font-size="11.00">model_initialize::initialize</text>
<text text-anchor="middle" x="532.411" y="-134.2" font-family="Helvetica,sans-Serif" font-size="11.00">_latitude</text>
</a>
</g>
</g>
<!-- Node182&#45;&gt;Node184 -->
<g id="edge13" class="edge"><title>Node182&#45;&gt;Node184</title>
<path fill="none" stroke="midnightblue" d="M219.277,-101.982C237.31,-115.898 265.722,-135.053 294.169,-143 349.904,-158.57 415.922,-157.049 464.147,-152.508"/>
<polygon fill="midnightblue" stroke="midnightblue" points="221.31,-99.1267 211.304,-95.6432 216.954,-104.606 221.31,-99.1267"/>
</g>
<!-- Node189 -->
<g id="node9" class="node"><title>Node189</title>
<g id="a_node9"><a xlink:href="namespacegrid.html#a565a676f138a2e48293c5bfadf0d539e" target="_top" xlink:title="grid::grid_gridtopoint_int">
<polygon fill="white" stroke="black" points="294.169,-76.5 294.169,-95.5 428.188,-95.5 428.188,-76.5 294.169,-76.5"/>
<text text-anchor="middle" x="361.178" y="-82.7" font-family="Helvetica,sans-Serif" font-size="11.00">grid::grid_gridtopoint_int</text>
</a>
</g>
</g>
<!-- Node182&#45;&gt;Node189 -->
<g id="edge8" class="edge"><title>Node182&#45;&gt;Node189</title>
<path fill="none" stroke="midnightblue" d="M268.568,-86C277.038,-86 285.684,-86 294.117,-86"/>
<polygon fill="midnightblue" stroke="midnightblue" points="268.35,-82.5001 258.35,-86 268.35,-89.5001 268.35,-82.5001"/>
</g>
<!-- Node190 -->
<g id="node10" class="node"><title>Node190</title>
<g id="a_node10"><a xlink:href="namespacegrid.html#afa350ce941557d82c522ed95e7758c44" target="_top" xlink:title="grid::grid_gridtogrid_int">
<polygon fill="white" stroke="black" points="296.924,-38.5 296.924,-57.5 425.433,-57.5 425.433,-38.5 296.924,-38.5"/>
<text text-anchor="middle" x="361.178" y="-44.7" font-family="Helvetica,sans-Serif" font-size="11.00">grid::grid_gridtogrid_int</text>
</a>
</g>
</g>
<!-- Node182&#45;&gt;Node190 -->
<g id="edge9" class="edge"><title>Node182&#45;&gt;Node190</title>
<path fill="none" stroke="midnightblue" d="M250.522,-74.032C272.953,-68.7069 298.999,-62.5238 320.077,-57.5201"/>
<polygon fill="midnightblue" stroke="midnightblue" points="249.422,-70.6958 240.501,-76.411 251.039,-77.5065 249.422,-70.6958"/>
</g>
<!-- Node191 -->
<g id="node11" class="node"><title>Node191</title>
<g id="a_node11"><a xlink:href="namespacegrid.html#a5d46ebd32a7a83ebf0ba59757bbf754a" target="_top" xlink:title="grid::grid_gridtogrid_sgl">
<polygon fill="white" stroke="black" points="295.702,-0.5 295.702,-19.5 426.655,-19.5 426.655,-0.5 295.702,-0.5"/>
<text text-anchor="middle" x="361.178" y="-6.7" font-family="Helvetica,sans-Serif" font-size="11.00">grid::grid_gridtogrid_sgl</text>
</a>
</g>
</g>
<!-- Node182&#45;&gt;Node191 -->
<g id="edge11" class="edge"><title>Node182&#45;&gt;Node191</title>
<path fill="none" stroke="midnightblue" d="M221.811,-70.5634C240.321,-57.9692 268.012,-40.4475 294.169,-29 302.472,-25.3662 311.663,-22.2155 320.482,-19.5812"/>
<polygon fill="midnightblue" stroke="midnightblue" points="219.745,-67.7367 213.51,-76.302 223.726,-73.4949 219.745,-67.7367"/>
</g>
<!-- Node183&#45;&gt;Node184 -->
<g id="edge3" class="edge"><title>Node183&#45;&gt;Node184</title>
<path fill="none" stroke="midnightblue" d="M427.121,-131.291C439.209,-132.648 451.864,-134.069 464.024,-135.434"/>
<polygon fill="midnightblue" stroke="midnightblue" points="427.452,-127.806 417.124,-130.169 426.671,-134.763 427.452,-127.806"/>
</g>
<!-- Node188 -->
<g id="node8" class="node"><title>Node188</title>
<g id="a_node8"><a xlink:href="namespacedata__catalog__entry.html#aacf51804adb730b5710c4060576a7948" target="_top" xlink:title="data_catalog_entry\l::transform_grid_to\l_grid_sub">
<polygon fill="white" stroke="black" points="477.626,-27.5 477.626,-68.5 587.196,-68.5 587.196,-27.5 477.626,-27.5"/>
<text text-anchor="start" x="485.626" y="-55.7" font-family="Helvetica,sans-Serif" font-size="11.00">data_catalog_entry</text>
<text text-anchor="start" x="485.626" y="-44.7" font-family="Helvetica,sans-Serif" font-size="11.00">::transform_grid_to</text>
<text text-anchor="middle" x="532.411" y="-33.7" font-family="Helvetica,sans-Serif" font-size="11.00">_grid_sub</text>
</a>
</g>
</g>
<!-- Node183&#45;&gt;Node188 -->
<g id="edge7" class="edge"><title>Node183&#45;&gt;Node188</title>
<path fill="none" stroke="midnightblue" d="M410.7,-111.391C416.66,-109.446 422.611,-107.308 428.188,-105 452.589,-94.9014 478.609,-80.5068 498.42,-68.71"/>
<polygon fill="midnightblue" stroke="midnightblue" points="409.243,-108.178 400.725,-114.478 411.313,-114.865 409.243,-108.178"/>
</g>
<!-- Node185 -->
<g id="node5" class="node"><title>Node185</title>
<g id="a_node5"><a xlink:href="namespacemodel__initialize.html#a39e959b59f3ec67f64a1b37a5b30ebc2" target="_top" xlink:title="model_initialize::initialize\l_ancillary_values">
<polygon fill="white" stroke="black" points="636.635,-128 636.635,-158 773.082,-158 773.082,-128 636.635,-128"/>
<text text-anchor="start" x="644.635" y="-145.2" font-family="Helvetica,sans-Serif" font-size="11.00">model_initialize::initialize</text>
<text text-anchor="middle" x="704.858" y="-134.2" font-family="Helvetica,sans-Serif" font-size="11.00">_ancillary_values</text>
</a>
</g>
</g>
<!-- Node184&#45;&gt;Node185 -->
<g id="edge4" class="edge"><title>Node184&#45;&gt;Node185</title>
<path fill="none" stroke="midnightblue" d="M611.039,-143C619.513,-143 628.087,-143 636.424,-143"/>
<polygon fill="midnightblue" stroke="midnightblue" points="610.776,-139.5 600.776,-143 610.776,-146.5 610.776,-139.5"/>
</g>
<!-- Node186 -->
<g id="node6" class="node"><title>Node186</title>
<g id="a_node6"><a xlink:href="namespacemodel__initialize.html#a46370bf2e9ea112d1f219277ba7fd3ce" target="_top" xlink:title="model_initialize::initialize_all">
<polygon fill="white" stroke="black" points="809.082,-133.5 809.082,-152.5 962.651,-152.5 962.651,-133.5 809.082,-133.5"/>
<text text-anchor="middle" x="885.866" y="-139.7" font-family="Helvetica,sans-Serif" font-size="11.00">model_initialize::initialize_all</text>
</a>
</g>
</g>
<!-- Node185&#45;&gt;Node186 -->
<g id="edge5" class="edge"><title>Node185&#45;&gt;Node186</title>
<path fill="none" stroke="midnightblue" d="M783.446,-143C791.856,-143 800.409,-143 808.801,-143"/>
<polygon fill="midnightblue" stroke="midnightblue" points="783.278,-139.5 773.278,-143 783.278,-146.5 783.278,-139.5"/>
</g>
<!-- Node187 -->
<g id="node7" class="node"><title>Node187</title>
<g id="a_node7"><a xlink:href="main_8F90.html#a8ec2266d83cd6c0b762cbcbc92c0af3d" target="_top" xlink:title="Main program which references all other modules; execution begins here. ">
<polygon fill="white" stroke="black" points="998.651,-133.5 998.651,-152.5 1038.49,-152.5 1038.49,-133.5 998.651,-133.5"/>
<text text-anchor="middle" x="1018.57" y="-139.7" font-family="Helvetica,sans-Serif" font-size="11.00">main</text>
</a>
</g>
</g>
<!-- Node186&#45;&gt;Node187 -->
<g id="edge6" class="edge"><title>Node186&#45;&gt;Node187</title>
<path fill="none" stroke="midnightblue" d="M972.991,-143C982.486,-143 991.328,-143 998.593,-143"/>
<polygon fill="midnightblue" stroke="midnightblue" points="972.899,-139.5 962.899,-143 972.899,-146.5 972.899,-139.5"/>
</g>
<!-- Node190&#45;&gt;Node188 -->
<g id="edge10" class="edge"><title>Node190&#45;&gt;Node188</title>
<path fill="none" stroke="midnightblue" d="M435.795,-48C449.823,-48 464.262,-48 477.533,-48"/>
<polygon fill="midnightblue" stroke="midnightblue" points="435.676,-44.5001 425.676,-48 435.676,-51.5001 435.676,-44.5001"/>
</g>
<!-- Node191&#45;&gt;Node188 -->
<g id="edge12" class="edge"><title>Node191&#45;&gt;Node188</title>
<path fill="none" stroke="midnightblue" d="M414.727,-21.7995C434.673,-26.2781 457.408,-31.3832 477.48,-35.8901"/>
<polygon fill="midnightblue" stroke="midnightblue" points="415.407,-18.365 404.883,-19.589 413.873,-25.1949 415.407,-18.365"/>
</g>
</g>
</svg>
        <g id="navigator" transform="translate(0 0)" fill="#404254">
                <rect fill="#f2f5e9" fill-opacity="0.5" stroke="#606060" stroke-width=".5" x="0" y="0" width="60" height="60"/>
                <use id="zoomplus" xlink:href="#zoomPlus" x="17" y="9" onmousedown="handleZoom(evt,'in')"/>
                <use id="zoomminus" xlink:href="#zoomMin" x="42" y="9" onmousedown="handleZoom(evt,'out')"/>
                <use id="reset" xlink:href="#resetDef" x="30" y="36" onmousedown="handleReset()"/>
                <g id="arrowUp" xlink:href="#dirArrow" transform="translate(30 24)" onmousedown="handlePan(0,-1)">
                  <use xlink:href="#rim" fill="#404040">
                        <set attributeName="fill" to="#808080" begin="arrowUp.mouseover" end="arrowUp.mouseout"/>
                  </use>
                  <path fill="none" stroke="white" stroke-width="1.5" d="M0,-3.0v7 M-2.5,-0.5L0,-3.0L2.5,-0.5"/>
                </g>
                <g id="arrowRight" xlink:href="#dirArrow" transform="rotate(90) translate(36 -43)" onmousedown="handlePan(1,0)">
                  <use xlink:href="#rim" fill="#404040">
                        <set attributeName="fill" to="#808080" begin="arrowRight.mouseover" end="arrowRight.mouseout"/>
                  </use>
                  <path fill="none" stroke="white" stroke-width="1.5" d="M0,-3.0v7 M-2.5,-0.5L0,-3.0L2.5,-0.5"/>
                </g>
                <g id="arrowDown" xlink:href="#dirArrow" transform="rotate(180) translate(-30 -48)" onmousedown="handlePan(0,1)">
                  <use xlink:href="#rim" fill="#404040">
                        <set attributeName="fill" to="#808080" begin="arrowDown.mouseover" end="arrowDown.mouseout"/>
                  </use>
                  <path fill="none" stroke="white" stroke-width="1.5" d="M0,-3.0v7 M-2.5,-0.5L0,-3.0L2.5,-0.5"/>
                </g>
                <g id="arrowLeft" xlink:href="#dirArrow" transform="rotate(270) translate(-36 17)" onmousedown="handlePan(-1,0)">
                  <use xlink:href="#rim" fill="#404040">
                        <set attributeName="fill" to="#808080" begin="arrowLeft.mouseover" end="arrowLeft.mouseout"/>
                  </use>
                  <path fill="none" stroke="white" stroke-width="1.5" d="M0,-3.0v7 M-2.5,-0.5L0,-3.0L2.5,-0.5"/>
                </g>
        </g>
        <svg viewBox="0 0 15 15" width="100%" height="30px" preserveAspectRatio="xMaxYMin meet">
         <g id="arrow_out" transform="scale(0.3 0.3)">
          <a xlink:href="namespacegrid_a93d74de05bc5c8aee4cb556f461be266_icgraph_org.svg" target="_base">
           <rect id="button" ry="5" rx="5" y="6" x="6" height="38" width="38"
                fill="#f2f5e9" fill-opacity="0.5" stroke="#606060" stroke-width="1.0"/>
           <path id="arrow"
             d="M 11.500037,31.436501 C 11.940474,20.09759 22.043105,11.32322 32.158766,21.979434 L 37.068811,17.246167 C 37.068811,17.246167 37.088388,32 37.088388,32 L 22.160133,31.978069 C 22.160133,31.978069 26.997745,27.140456 26.997745,27.140456 C 18.528582,18.264221 13.291696,25.230495 11.500037,31.436501 z"
             style="fill:#404040;"/>
          </a>
         </g>
        </svg>
</svg>
