<?xml version="1.0" encoding="UTF-8" standalone="no"?>
<!DOCTYPE svg PUBLIC "-//W3C//DTD SVG 1.1//EN"
 "http://www.w3.org/Graphics/SVG/1.1/DTD/svg11.dtd">
<!-- Generated by graphviz version 2.38.0 (20140413.2041)
 -->
<!-- Title: netcdf4_support::nf_calculate_time_range Pages: 1 -->
<svg width="676pt" height="157pt"
 viewBox="0.00 0.00 675.98 157.00" xmlns="http://www.w3.org/2000/svg" xmlns:xlink="http://www.w3.org/1999/xlink">
<g id="graph0" class="graph" transform="scale(1 1) rotate(0) translate(4 153)">
<title>netcdf4_support::nf_calculate_time_range</title>
<polygon fill="white" stroke="none" points="-4,4 -4,-153 671.978,-153 671.978,4 -4,4"/>
<!-- Node1 -->
<g id="node1" class="node"><title>Node1</title>
<polygon fill="#bfbfbf" stroke="black" points="0,-61 0,-91 126.682,-91 126.682,-61 0,-61"/>
<text text-anchor="start" x="8" y="-78.2" font-family="Helvetica,sans-Serif" font-size="11.00">netcdf4_support::nf</text>
<text text-anchor="middle" x="63.3411" y="-67.2" font-family="Helvetica,sans-Serif" font-size="11.00">_calculate_time_range</text>
</g>
<!-- Node2 -->
<g id="node2" class="node"><title>Node2</title>
<g id="a_node2"><a xlink:href="namespacenetcdf4__support.html#a137d06ed171ec8d77e5af2fbb44b0c4c" target="_top" xlink:title="netcdf4_support::netcdf\l_open_and_prepare_as_input">
<polygon fill="white" stroke="black" points="162.682,-61 162.682,-91 325.479,-91 325.479,-61 162.682,-61"/>
<text text-anchor="start" x="170.682" y="-78.2" font-family="Helvetica,sans-Serif" font-size="11.00">netcdf4_support::netcdf</text>
<text text-anchor="middle" x="244.081" y="-67.2" font-family="Helvetica,sans-Serif" font-size="11.00">_open_and_prepare_as_input</text>
</a>
</g>
</g>
<!-- Node1&#45;&gt;Node2 -->
<g id="edge1" class="edge"><title>Node1&#45;&gt;Node2</title>
<path fill="none" stroke="midnightblue" d="M136.95,-76C145.326,-76 153.905,-76 162.38,-76"/>
<polygon fill="midnightblue" stroke="midnightblue" points="136.856,-72.5001 126.856,-76 136.856,-79.5001 136.856,-72.5001"/>
</g>
<!-- Node6 -->
<g id="node6" class="node"><title>Node6</title>
<g id="a_node6"><a xlink:href="namespacenetcdf4__support.html#a8be734b602e654816c17b5e27d0fbffb" target="_top" xlink:title="netcdf4_support::netcdf\l_open_and_prepare_for\l_merging">
<polygon fill="white" stroke="black" points="177.058,-0.5 177.058,-41.5 311.104,-41.5 311.104,-0.5 177.058,-0.5"/>
<text text-anchor="start" x="185.058" y="-28.7" font-family="Helvetica,sans-Serif" font-size="11.00">netcdf4_support::netcdf</text>
<text text-anchor="start" x="185.058" y="-17.7" font-family="Helvetica,sans-Serif" font-size="11.00">_open_and_prepare_for</text>
<text text-anchor="middle" x="244.081" y="-6.7" font-family="Helvetica,sans-Serif" font-size="11.00">_merging</text>
</a>
</g>
</g>
<!-- Node1&#45;&gt;Node6 -->
<g id="edge6" class="edge"><title>Node1&#45;&gt;Node6</title>
<path fill="none" stroke="midnightblue" d="M123.093,-57.9214C140.302,-52.6259 159.235,-46.8003 176.874,-41.3725"/>
<polygon fill="midnightblue" stroke="midnightblue" points="121.711,-54.6847 113.182,-60.971 123.77,-61.3751 121.711,-54.6847"/>
</g>
<!-- Node7 -->
<g id="node7" class="node"><title>Node7</title>
<g id="a_node7"><a xlink:href="namespacenetcdf4__support.html#a7b3b3cf3aab614eb336e12694c5d76ef" target="_top" xlink:title="netcdf4_support::netcdf\l_open_file">
<polygon fill="white" stroke="black" points="178.597,-110 178.597,-140 309.565,-140 309.565,-110 178.597,-110"/>
<text text-anchor="start" x="186.597" y="-127.2" font-family="Helvetica,sans-Serif" font-size="11.00">netcdf4_support::netcdf</text>
<text text-anchor="middle" x="244.081" y="-116.2" font-family="Helvetica,sans-Serif" font-size="11.00">_open_file</text>
</a>
</g>
</g>
<!-- Node1&#45;&gt;Node7 -->
<g id="edge7" class="edge"><title>Node1&#45;&gt;Node7</title>
<path fill="none" stroke="midnightblue" d="M129.083,-93.7485C148.455,-99.0591 169.501,-104.829 188.176,-109.948"/>
<polygon fill="midnightblue" stroke="midnightblue" points="129.997,-90.3699 119.427,-91.1014 128.146,-97.1208 129.997,-90.3699"/>
</g>
<!-- Node3 -->
<g id="node3" class="node"><title>Node3</title>
<g id="a_node3"><a xlink:href="namespacedata__catalog__entry.html#aeb285131f87ed64deba0a9041a9c6405" target="_top" xlink:title="data_catalog_entry\l::getvalues_dynamic\l_netcdf_sub">
<polygon fill="white" stroke="black" points="383.804,-107.5 383.804,-148.5 500.083,-148.5 500.083,-107.5 383.804,-107.5"/>
<text text-anchor="start" x="391.804" y="-135.7" font-family="Helvetica,sans-Serif" font-size="11.00">data_catalog_entry</text>
<text text-anchor="start" x="391.804" y="-124.7" font-family="Helvetica,sans-Serif" font-size="11.00">::getvalues_dynamic</text>
<text text-anchor="middle" x="441.944" y="-113.7" font-family="Helvetica,sans-Serif" font-size="11.00">_netcdf_sub</text>
</a>
</g>
</g>
<!-- Node2&#45;&gt;Node3 -->
<g id="edge2" class="edge"><title>Node2&#45;&gt;Node3</title>
<path fill="none" stroke="midnightblue" d="M311.593,-93.6584C335.026,-99.8797 361.144,-106.814 383.741,-112.813"/>
<polygon fill="midnightblue" stroke="midnightblue" points="312.296,-90.2238 301.732,-91.0406 310.499,-96.9895 312.296,-90.2238"/>
</g>
<!-- Node5 -->
<g id="node5" class="node"><title>Node5</title>
<g id="a_node5"><a xlink:href="namespacedata__catalog__entry.html#ac3e1f0d9d9e146fbb77c0084e1e9fc14" target="_top" xlink:title="data_catalog_entry\l::getvalues_static_netcdf_sub">
<polygon fill="white" stroke="black" points="361.479,-58 361.479,-88 522.408,-88 522.408,-58 361.479,-58"/>
<text text-anchor="start" x="369.479" y="-75.2" font-family="Helvetica,sans-Serif" font-size="11.00">data_catalog_entry</text>
<text text-anchor="middle" x="441.944" y="-64.2" font-family="Helvetica,sans-Serif" font-size="11.00">::getvalues_static_netcdf_sub</text>
</a>
</g>
</g>
<!-- Node2&#45;&gt;Node5 -->
<g id="edge4" class="edge"><title>Node2&#45;&gt;Node5</title>
<path fill="none" stroke="midnightblue" d="M335.631,-74.6131C344.226,-74.4814 352.896,-74.3486 361.376,-74.2187"/>
<polygon fill="midnightblue" stroke="midnightblue" points="335.539,-71.114 325.594,-74.7668 335.646,-78.1131 335.539,-71.114"/>
</g>
<!-- Node4 -->
<g id="node4" class="node"><title>Node4</title>
<g id="a_node4"><a xlink:href="namespacedata__catalog__entry.html#a9e0a89ab19a5bfd61f2dfb8265648234" target="_top" xlink:title="data_catalog_entry\l::getvalues_sub">
<polygon fill="white" stroke="black" points="558.408,-85 558.408,-115 667.978,-115 667.978,-85 558.408,-85"/>
<text text-anchor="start" x="566.408" y="-102.2" font-family="Helvetica,sans-Serif" font-size="11.00">data_catalog_entry</text>
<text text-anchor="middle" x="613.193" y="-91.2" font-family="Helvetica,sans-Serif" font-size="11.00">::getvalues_sub</text>
</a>
</g>
</g>
<!-- Node3&#45;&gt;Node4 -->
<g id="edge3" class="edge"><title>Node3&#45;&gt;Node4</title>
<path fill="none" stroke="midnightblue" d="M510.546,-116.816C526.445,-114.186 543.18,-111.417 558.38,-108.903"/>
<polygon fill="midnightblue" stroke="midnightblue" points="509.538,-113.435 500.244,-118.52 510.681,-120.341 509.538,-113.435"/>
</g>
<!-- Node5&#45;&gt;Node4 -->
<g id="edge5" class="edge"><title>Node5&#45;&gt;Node4</title>
<path fill="none" stroke="midnightblue" d="M532.75,-87.3267C541.376,-88.7028 549.93,-90.0674 558.052,-91.3631"/>
<polygon fill="midnightblue" stroke="midnightblue" points="533.039,-83.8285 522.612,-85.7094 531.936,-90.7411 533.039,-83.8285"/>
</g>
<!-- Node7&#45;&gt;Node3 -->
<g id="edge8" class="edge"><title>Node7&#45;&gt;Node3</title>
<path fill="none" stroke="midnightblue" d="M319.975,-126.147C341.075,-126.47 363.688,-126.817 383.586,-127.121"/>
<polygon fill="midnightblue" stroke="midnightblue" points="319.809,-122.644 309.756,-125.991 319.702,-129.643 319.809,-122.644"/>
</g>
<!-- Node7&#45;&gt;Node5 -->
<g id="edge9" class="edge"><title>Node7&#45;&gt;Node5</title>
<path fill="none" stroke="midnightblue" d="M311.681,-107.318C335.326,-101.041 361.696,-94.0397 384.419,-88.0068"/>
<polygon fill="midnightblue" stroke="midnightblue" points="310.499,-104.011 301.732,-109.959 312.296,-110.776 310.499,-104.011"/>
</g>
</g>
</svg>
