<?xml version="1.0" encoding="UTF-8" standalone="no"?>
<!DOCTYPE svg PUBLIC "-//W3C//DTD SVG 1.1//EN"
 "http://www.w3.org/Graphics/SVG/1.1/DTD/svg11.dtd">
<!-- Generated by graphviz version 2.38.0 (20140413.2041)
 -->
<!-- Title: direct_soil_moisture__gridded_data::direct_soil_moisture_calculate Pages: 1 -->
<svg width="492pt" height="50pt"
 viewBox="0.00 0.00 492.43 50.00" xmlns="http://www.w3.org/2000/svg" xmlns:xlink="http://www.w3.org/1999/xlink">
<g id="graph0" class="graph" transform="scale(1 1) rotate(0) translate(4 46)">
<title>direct_soil_moisture__gridded_data::direct_soil_moisture_calculate</title>
<polygon fill="white" stroke="none" points="-4,4 -4,-46 488.429,-46 488.429,4 -4,4"/>
<!-- Node1 -->
<g id="node1" class="node"><title>Node1</title>
<polygon fill="#bfbfbf" stroke="black" points="0,-0.5 0,-41.5 136.452,-41.5 136.452,-0.5 0,-0.5"/>
<text text-anchor="start" x="8" y="-28.7" font-family="Helvetica,sans-Serif" font-size="11.00">direct_soil_moisture</text>
<text text-anchor="start" x="8" y="-17.7" font-family="Helvetica,sans-Serif" font-size="11.00">__gridded_data::direct</text>
<text text-anchor="middle" x="68.2261" y="-6.7" font-family="Helvetica,sans-Serif" font-size="11.00">_soil_moisture_calculate</text>
</g>
<!-- Node2 -->
<g id="node2" class="node"><title>Node2</title>
<g id="a_node2"><a xlink:href="namespacemodel__domain.html#a8be6e8a3f6f80533812be9148a6af679" target="_top" xlink:title="model_domain::model\l_calculate_direct_soil\l_moisture_gridded">
<polygon fill="white" stroke="black" points="172.452,-0.5 172.452,-41.5 296.68,-41.5 296.68,-0.5 172.452,-0.5"/>
<text text-anchor="start" x="180.452" y="-28.7" font-family="Helvetica,sans-Serif" font-size="11.00">model_domain::model</text>
<text text-anchor="start" x="180.452" y="-17.7" font-family="Helvetica,sans-Serif" font-size="11.00">_calculate_direct_soil</text>
<text text-anchor="middle" x="234.566" y="-6.7" font-family="Helvetica,sans-Serif" font-size="11.00">_moisture_gridded</text>
</a>
</g>
</g>
<!-- Node1&#45;&gt;Node2 -->
<g id="edge1" class="edge"><title>Node1&#45;&gt;Node2</title>
<path fill="none" stroke="midnightblue" d="M146.644,-21C155.296,-21 164.018,-21 172.425,-21"/>
<polygon fill="midnightblue" stroke="midnightblue" points="146.544,-17.5001 136.544,-21 146.544,-24.5001 146.544,-17.5001"/>
</g>
<!-- Node3 -->
<g id="node3" class="node"><title>Node3</title>
<g id="a_node3"><a xlink:href="namespacemodel__domain.html#aac78dbf26ba37cf86ebed4edd7acf89b" target="_top" xlink:title="model_domain::set_method\l_pointers_sub">
<polygon fill="white" stroke="black" points="332.68,-6 332.68,-36 484.429,-36 484.429,-6 332.68,-6"/>
<text text-anchor="start" x="340.68" y="-23.2" font-family="Helvetica,sans-Serif" font-size="11.00">model_domain::set_method</text>
<text text-anchor="middle" x="408.554" y="-12.2" font-family="Helvetica,sans-Serif" font-size="11.00">_pointers_sub</text>
</a>
</g>
</g>
<!-- Node2&#45;&gt;Node3 -->
<g id="edge2" class="edge"><title>Node2&#45;&gt;Node3</title>
<path fill="none" stroke="midnightblue" d="M306.877,-21C315.328,-21 323.975,-21 332.477,-21"/>
<polygon fill="midnightblue" stroke="midnightblue" points="306.687,-17.5001 296.687,-21 306.687,-24.5001 306.687,-17.5001"/>
</g>
</g>
</svg>
