<?xml version="1.0" encoding="UTF-8" standalone="no"?>
<!DOCTYPE svg PUBLIC "-//W3C//DTD SVG 1.1//EN"
 "http://www.w3.org/Graphics/SVG/1.1/DTD/svg11.dtd">
<!-- Generated by graphviz version 2.38.0 (20140413.2041)
 -->
<!-- Title: model_domain::model_initialize_interception_gash Pages: 1 -->
<svg width="494pt" height="154pt"
 viewBox="0.00 0.00 494.30 154.00" xmlns="http://www.w3.org/2000/svg" xmlns:xlink="http://www.w3.org/1999/xlink">
<g id="graph0" class="graph" transform="scale(1 1) rotate(0) translate(4 150)">
<title>model_domain::model_initialize_interception_gash</title>
<polygon fill="white" stroke="none" points="-4,4 -4,-150 490.303,-150 490.303,4 -4,4"/>
<!-- Node1 -->
<g id="node1" class="node"><title>Node1</title>
<polygon fill="#bfbfbf" stroke="black" points="0,-61 0,-91 154.204,-91 154.204,-61 0,-61"/>
<text text-anchor="start" x="8" y="-78.2" font-family="Helvetica,sans-Serif" font-size="11.00">model_domain::model</text>
<text text-anchor="middle" x="77.1018" y="-67.2" font-family="Helvetica,sans-Serif" font-size="11.00">_initialize_interception_gash</text>
</g>
<!-- Node2 -->
<g id="node2" class="node"><title>Node2</title>
<g id="a_node2"><a xlink:href="namespaceinterception____gash.html#a419e65fd85d4c1f7b36c056dde2753e6" target="_top" xlink:title="Initialize the Gash interception algorithm. ">
<polygon fill="white" stroke="black" points="190.204,-55.5 190.204,-96.5 299.161,-96.5 299.161,-55.5 190.204,-55.5"/>
<text text-anchor="start" x="198.204" y="-83.7" font-family="Helvetica,sans-Serif" font-size="11.00">interception__gash</text>
<text text-anchor="start" x="198.204" y="-72.7" font-family="Helvetica,sans-Serif" font-size="11.00">::interception_gash</text>
<text text-anchor="middle" x="244.682" y="-61.7" font-family="Helvetica,sans-Serif" font-size="11.00">_initialize</text>
</a>
</g>
</g>
<!-- Node1&#45;&gt;Node2 -->
<g id="edge1" class="edge"><title>Node1&#45;&gt;Node2</title>
<path fill="none" stroke="midnightblue" d="M154.591,-76C163.146,-76 171.79,-76 180.157,-76"/>
<polygon fill="midnightblue" stroke="midnightblue" points="180.2,-79.5001 190.2,-76 180.2,-72.5001 180.2,-79.5001"/>
</g>
<!-- Node3 -->
<g id="node3" class="node"><title>Node3</title>
<g id="a_node3"><a xlink:href="namespaceexceptions.html#a22a1bf2808fdc249e6b378ee3f221156" target="_top" xlink:title="exceptions::die">
<polygon fill="white" stroke="black" points="366.042,-126.5 366.042,-145.5 455.422,-145.5 455.422,-126.5 366.042,-126.5"/>
<text text-anchor="middle" x="410.732" y="-132.7" font-family="Helvetica,sans-Serif" font-size="11.00">exceptions::die</text>
</a>
</g>
</g>
<!-- Node2&#45;&gt;Node3 -->
<g id="edge2" class="edge"><title>Node2&#45;&gt;Node3</title>
<path fill="none" stroke="midnightblue" d="M286.471,-96.568C301.528,-103.657 318.888,-111.251 335.161,-117 342.168,-119.475 349.651,-121.772 357.072,-123.851"/>
<polygon fill="midnightblue" stroke="midnightblue" points="356.18,-127.235 366.746,-126.455 358,-120.476 356.18,-127.235"/>
</g>
<!-- Node4 -->
<g id="node4" class="node"><title>Node4</title>
<g id="a_node4"><a xlink:href="namespacegrid.html#a02803f7fe27d0354d3d16a15bd1338da" target="_top" xlink:title="grid::grid_writearcgrid">
<polygon fill="white" stroke="black" points="349.851,-88.5 349.851,-107.5 471.613,-107.5 471.613,-88.5 349.851,-88.5"/>
<text text-anchor="middle" x="410.732" y="-94.7" font-family="Helvetica,sans-Serif" font-size="11.00">grid::grid_writearcgrid</text>
</a>
</g>
</g>
<!-- Node2&#45;&gt;Node4 -->
<g id="edge3" class="edge"><title>Node2&#45;&gt;Node4</title>
<path fill="none" stroke="midnightblue" d="M299.398,-83.2036C312.206,-84.9212 326.064,-86.7796 339.491,-88.5802"/>
<polygon fill="midnightblue" stroke="midnightblue" points="339.274,-92.0824 349.65,-89.9427 340.204,-85.1445 339.274,-92.0824"/>
</g>
<!-- Node5 -->
<g id="node5" class="node"><title>Node5</title>
<g id="a_node5"><a xlink:href="namespaceinterception____gash.html#a2cac17c5d7097b18259258a9e725b315" target="_top" xlink:title="interception__gash\l::precipitation_at_saturation">
<polygon fill="white" stroke="black" points="335.161,-39 335.161,-69 486.303,-69 486.303,-39 335.161,-39"/>
<text text-anchor="start" x="343.161" y="-56.2" font-family="Helvetica,sans-Serif" font-size="11.00">interception__gash</text>
<text text-anchor="middle" x="410.732" y="-45.2" font-family="Helvetica,sans-Serif" font-size="11.00">::precipitation_at_saturation</text>
</a>
</g>
</g>
<!-- Node2&#45;&gt;Node5 -->
<g id="edge4" class="edge"><title>Node2&#45;&gt;Node5</title>
<path fill="none" stroke="midnightblue" d="M299.398,-68.7964C307.592,-67.6975 316.216,-66.5411 324.882,-65.3789"/>
<polygon fill="midnightblue" stroke="midnightblue" points="325.604,-68.8134 335.05,-64.0152 324.674,-61.8755 325.604,-68.8134"/>
</g>
<!-- Node6 -->
<g id="node6" class="node"><title>Node6</title>
<g id="a_node6"><a xlink:href="namespaceexceptions.html#a84dd04476b06e0a398bfe6d106a82a4d" target="_top" xlink:title="exceptions::warn">
<polygon fill="white" stroke="black" points="361.461,-0.5 361.461,-19.5 460.004,-19.5 460.004,-0.5 361.461,-0.5"/>
<text text-anchor="middle" x="410.732" y="-6.7" font-family="Helvetica,sans-Serif" font-size="11.00">exceptions::warn</text>
</a>
</g>
</g>
<!-- Node2&#45;&gt;Node6 -->
<g id="edge5" class="edge"><title>Node2&#45;&gt;Node6</title>
<path fill="none" stroke="midnightblue" d="M281.443,-55.3981C297.503,-46.7314 316.911,-37.0459 335.161,-30 342.459,-27.1826 350.304,-24.6104 358.069,-22.318"/>
<polygon fill="midnightblue" stroke="midnightblue" points="359.141,-25.6523 367.814,-19.5665 357.239,-18.9157 359.141,-25.6523"/>
</g>
</g>
</svg>
