<?xml version="1.0" encoding="UTF-8" standalone="no"?>
<!DOCTYPE svg PUBLIC "-//W3C//DTD SVG 1.1//EN"
 "http://www.w3.org/Graphics/SVG/1.1/DTD/svg11.dtd">
<!-- Generated by graphviz version 2.38.0 (20140413.2041)
 -->
<!-- Title: model_domain::model_calculate_et_hargreaves Pages: 1 -->
<svg width="527pt" height="318pt"
 viewBox="0.00 0.00 526.68 317.50" xmlns="http://www.w3.org/2000/svg" xmlns:xlink="http://www.w3.org/1999/xlink">
<g id="graph0" class="graph" transform="scale(1 1) rotate(0) translate(4 313.5)">
<title>model_domain::model_calculate_et_hargreaves</title>
<polygon fill="white" stroke="none" points="-4,4 -4,-313.5 522.68,-313.5 522.68,4 -4,4"/>
<!-- Node1 -->
<g id="node1" class="node"><title>Node1</title>
<polygon fill="#bfbfbf" stroke="black" points="0,-153 0,-183 141.974,-183 141.974,-153 0,-153"/>
<text text-anchor="start" x="8" y="-170.2" font-family="Helvetica,sans-Serif" font-size="11.00">model_domain::model</text>
<text text-anchor="middle" x="70.9868" y="-159.2" font-family="Helvetica,sans-Serif" font-size="11.00">_calculate_et_hargreaves</text>
</g>
<!-- Node2 -->
<g id="node2" class="node"><title>Node2</title>
<g id="a_node2"><a xlink:href="namespaceet____hargreaves__samani.html#a7e98ab45c36ffcbbd21626348162801c" target="_top" xlink:title="et__hargreaves_samani\l::et_hargreaves_calculate">
<polygon fill="white" stroke="black" points="177.974,-153 177.974,-183 319.942,-183 319.942,-153 177.974,-153"/>
<text text-anchor="start" x="185.974" y="-170.2" font-family="Helvetica,sans-Serif" font-size="11.00">et__hargreaves_samani</text>
<text text-anchor="middle" x="248.958" y="-159.2" font-family="Helvetica,sans-Serif" font-size="11.00">::et_hargreaves_calculate</text>
</a>
</g>
</g>
<!-- Node1&#45;&gt;Node2 -->
<g id="edge1" class="edge"><title>Node1&#45;&gt;Node2</title>
<path fill="none" stroke="midnightblue" d="M142.041,-168C150.514,-168 159.219,-168 167.823,-168"/>
<polygon fill="midnightblue" stroke="midnightblue" points="167.857,-171.5 177.857,-168 167.857,-164.5 167.857,-171.5"/>
</g>
<!-- Node3 -->
<g id="node3" class="node"><title>Node3</title>
<g id="a_node3"><a xlink:href="namespacemeteorological__calculations.html#a009361cfc8abf0bb0e40a04ff5f57043" target="_top" xlink:title="meteorological_calculations\l::equivalent_evaporation">
<polygon fill="white" stroke="black" points="361.745,-279 361.745,-309 512.877,-309 512.877,-279 361.745,-279"/>
<text text-anchor="start" x="369.745" y="-296.2" font-family="Helvetica,sans-Serif" font-size="11.00">meteorological_calculations</text>
<text text-anchor="middle" x="437.311" y="-285.2" font-family="Helvetica,sans-Serif" font-size="11.00">::equivalent_evaporation</text>
</a>
</g>
</g>
<!-- Node2&#45;&gt;Node3 -->
<g id="edge2" class="edge"><title>Node2&#45;&gt;Node3</title>
<path fill="none" stroke="midnightblue" d="M261.638,-183.136C279.569,-205.361 316.019,-246.704 355.942,-270 358.925,-271.741 362.045,-273.365 365.252,-274.879"/>
<polygon fill="midnightblue" stroke="midnightblue" points="363.905,-278.11 374.473,-278.861 366.68,-271.684 363.905,-278.11"/>
</g>
<!-- Node4 -->
<g id="node4" class="node"><title>Node4</title>
<g id="a_node4"><a xlink:href="namespaceet____hargreaves__samani.html#a3e3e065378cd6ead7b71c9ba4e603ff0" target="_top" xlink:title="et__hargreaves_samani\l::et0_hargreaves">
<polygon fill="white" stroke="black" points="370.302,-230 370.302,-260 504.321,-260 504.321,-230 370.302,-230"/>
<text text-anchor="start" x="378.302" y="-247.2" font-family="Helvetica,sans-Serif" font-size="11.00">et__hargreaves_samani</text>
<text text-anchor="middle" x="437.311" y="-236.2" font-family="Helvetica,sans-Serif" font-size="11.00">::et0_hargreaves</text>
</a>
</g>
</g>
<!-- Node2&#45;&gt;Node4 -->
<g id="edge3" class="edge"><title>Node2&#45;&gt;Node4</title>
<path fill="none" stroke="midnightblue" d="M276.812,-183.059C297.888,-194.475 328.206,-210.02 355.942,-221 361.019,-223.01 366.334,-224.946 371.707,-226.787"/>
<polygon fill="midnightblue" stroke="midnightblue" points="370.809,-230.177 381.403,-229.993 373.007,-223.53 370.809,-230.177"/>
</g>
<!-- Node5 -->
<g id="node5" class="node"><title>Node5</title>
<g id="a_node5"><a xlink:href="namespacesolar__calculations.html#aa61d6954b032ce851013718b57cd6b2d" target="_top" xlink:title="Calculate extraterrestrial radiation given latitude and time of year. ">
<polygon fill="white" stroke="black" points="355.942,-181 355.942,-211 518.68,-211 518.68,-181 355.942,-181"/>
<text text-anchor="start" x="363.942" y="-198.2" font-family="Helvetica,sans-Serif" font-size="11.00">solar_calculations</text>
<text text-anchor="middle" x="437.311" y="-187.2" font-family="Helvetica,sans-Serif" font-size="11.00">::extraterrestrial_radiation__ra</text>
</a>
</g>
</g>
<!-- Node2&#45;&gt;Node5 -->
<g id="edge4" class="edge"><title>Node2&#45;&gt;Node5</title>
<path fill="none" stroke="midnightblue" d="M320.144,-178.546C328.524,-179.805 337.168,-181.104 345.783,-182.398"/>
<polygon fill="midnightblue" stroke="midnightblue" points="345.454,-185.888 355.863,-183.913 346.494,-178.965 345.454,-185.888"/>
</g>
<!-- Node6 -->
<g id="node6" class="node"><title>Node6</title>
<g id="a_node6"><a xlink:href="namespacesolar__calculations.html#a474867a73dd025f53cde7f7e2b871b47" target="_top" xlink:title="Calculate the inverse relative Earth&#45;Sun distance for a given day of the year. ">
<polygon fill="white" stroke="black" points="381.003,-120.5 381.003,-161.5 493.619,-161.5 493.619,-120.5 381.003,-120.5"/>
<text text-anchor="start" x="389.003" y="-148.7" font-family="Helvetica,sans-Serif" font-size="11.00">solar_calculations</text>
<text text-anchor="start" x="389.003" y="-137.7" font-family="Helvetica,sans-Serif" font-size="11.00">::relative_earth_sun</text>
<text text-anchor="middle" x="437.311" y="-126.7" font-family="Helvetica,sans-Serif" font-size="11.00">_distance__d_r</text>
</a>
</g>
</g>
<!-- Node2&#45;&gt;Node6 -->
<g id="edge5" class="edge"><title>Node2&#45;&gt;Node6</title>
<path fill="none" stroke="midnightblue" d="M320.144,-157.831C336.806,-155.417 354.513,-152.851 370.949,-150.47"/>
<polygon fill="midnightblue" stroke="midnightblue" points="371.603,-153.912 380.997,-149.014 370.599,-146.984 371.603,-153.912"/>
</g>
<!-- Node7 -->
<g id="node7" class="node"><title>Node7</title>
<g id="a_node7"><a xlink:href="namespacesolar__calculations.html#a24590af8aedbf0702f0cb6d188edb1f2" target="_top" xlink:title="Calculate the solar declination for a given day of the year. ">
<polygon fill="white" stroke="black" points="384.978,-60.5 384.978,-101.5 489.644,-101.5 489.644,-60.5 384.978,-60.5"/>
<text text-anchor="start" x="392.978" y="-88.7" font-family="Helvetica,sans-Serif" font-size="11.00">solar_calculations</text>
<text text-anchor="start" x="392.978" y="-77.7" font-family="Helvetica,sans-Serif" font-size="11.00">::solar_declination</text>
<text text-anchor="middle" x="437.311" y="-66.7" font-family="Helvetica,sans-Serif" font-size="11.00">_simple__delta</text>
</a>
</g>
</g>
<!-- Node2&#45;&gt;Node7 -->
<g id="edge6" class="edge"><title>Node2&#45;&gt;Node7</title>
<path fill="none" stroke="midnightblue" d="M275.592,-152.938C296.754,-140.816 327.776,-123.759 355.942,-111 362.14,-108.192 368.686,-105.431 375.257,-102.789"/>
<polygon fill="midnightblue" stroke="midnightblue" points="376.84,-105.928 384.867,-99.0131 374.279,-99.4133 376.84,-105.928"/>
</g>
<!-- Node8 -->
<g id="node8" class="node"><title>Node8</title>
<g id="a_node8"><a xlink:href="namespacesolar__calculations.html#a323a4fc9e85d45fc9de7ed1dcd9018e0" target="_top" xlink:title="Calculate sunrise/sunset angle, in RADIANS. ">
<polygon fill="white" stroke="black" points="372.745,-0.5 372.745,-41.5 501.877,-41.5 501.877,-0.5 372.745,-0.5"/>
<text text-anchor="start" x="380.745" y="-28.7" font-family="Helvetica,sans-Serif" font-size="11.00">solar_calculations</text>
<text text-anchor="start" x="380.745" y="-17.7" font-family="Helvetica,sans-Serif" font-size="11.00">::sunrise_sunset_angle</text>
<text text-anchor="middle" x="437.311" y="-6.7" font-family="Helvetica,sans-Serif" font-size="11.00">__omega_s</text>
</a>
</g>
</g>
<!-- Node2&#45;&gt;Node8 -->
<g id="edge7" class="edge"><title>Node2&#45;&gt;Node8</title>
<path fill="none" stroke="midnightblue" d="M259.934,-152.959C276.922,-128.413 313.754,-79.616 355.942,-51 358.368,-49.3541 360.897,-47.7839 363.498,-46.2875"/>
<polygon fill="midnightblue" stroke="midnightblue" points="365.375,-49.2542 372.574,-41.4814 362.099,-43.0679 365.375,-49.2542"/>
</g>
</g>
</svg>
