<?xml version="1.0" encoding="UTF-8" standalone="no"?>
<!DOCTYPE svg PUBLIC "-//W3C//DTD SVG 1.1//EN"
 "http://www.w3.org/Graphics/SVG/1.1/DTD/svg11.dtd">
<!-- Generated by graphviz version 2.38.0 (20140413.2041)
 -->
<!-- Title: model_domain::model_calculate_actual_et_thornthwaite_mather_eqns Pages: 1 -->
<svg width="521pt" height="110pt"
 viewBox="0.00 0.00 520.58 110.00" xmlns="http://www.w3.org/2000/svg" xmlns:xlink="http://www.w3.org/1999/xlink">
<g id="graph0" class="graph" transform="scale(1 1) rotate(0) translate(4 106)">
<title>model_domain::model_calculate_actual_et_thornthwaite_mather_eqns</title>
<polygon fill="white" stroke="none" points="-4,4 -4,-106 516.579,-106 516.579,4 -4,4"/>
<!-- Node1 -->
<g id="node1" class="node"><title>Node1</title>
<polygon fill="#bfbfbf" stroke="black" points="0,-30.5 0,-71.5 152.367,-71.5 152.367,-30.5 0,-30.5"/>
<text text-anchor="start" x="8" y="-58.7" font-family="Helvetica,sans-Serif" font-size="11.00">model_domain::model</text>
<text text-anchor="start" x="8" y="-47.7" font-family="Helvetica,sans-Serif" font-size="11.00">_calculate_actual_et</text>
<text text-anchor="middle" x="76.1833" y="-36.7" font-family="Helvetica,sans-Serif" font-size="11.00">_thornthwaite_mather_eqns</text>
</g>
<!-- Node2 -->
<g id="node2" class="node"><title>Node2</title>
<g id="a_node2"><a xlink:href="namespaceactual__et____thornthwaite__mather__eqns.html#a9f7f2f95c21676187762e5bed2884b39" target="_top" xlink:title="actual_et__thornthwaite\l_mather_eqns::calculate\l_actual_et_thornthwaite\l_mather_eqns">
<polygon fill="white" stroke="black" points="188.367,-25 188.367,-77 324.217,-77 324.217,-25 188.367,-25"/>
<text text-anchor="start" x="196.367" y="-64.2" font-family="Helvetica,sans-Serif" font-size="11.00">actual_et__thornthwaite</text>
<text text-anchor="start" x="196.367" y="-53.2" font-family="Helvetica,sans-Serif" font-size="11.00">_mather_eqns::calculate</text>
<text text-anchor="start" x="196.367" y="-42.2" font-family="Helvetica,sans-Serif" font-size="11.00">_actual_et_thornthwaite</text>
<text text-anchor="middle" x="256.292" y="-31.2" font-family="Helvetica,sans-Serif" font-size="11.00">_mather_eqns</text>
</a>
</g>
</g>
<!-- Node1&#45;&gt;Node2 -->
<g id="edge1" class="edge"><title>Node1&#45;&gt;Node2</title>
<path fill="none" stroke="midnightblue" d="M152.459,-51C160.896,-51 169.503,-51 177.965,-51"/>
<polygon fill="midnightblue" stroke="midnightblue" points="178.195,-54.5001 188.195,-51 178.195,-47.5001 178.195,-54.5001"/>
</g>
<!-- Node3 -->
<g id="node3" class="node"><title>Node3</title>
<g id="a_node3"><a xlink:href="namespaceactual__et____thornthwaite__mather__eqns.html#a8b67a22e831afd6c828577642d2b8942" target="_top" xlink:title="Return an updated APWL given the max soil&#45;water&#45;capacity and current soil storage. ">
<polygon fill="white" stroke="black" points="360.217,-60.5 360.217,-101.5 512.579,-101.5 512.579,-60.5 360.217,-60.5"/>
<text text-anchor="start" x="368.217" y="-88.7" font-family="Helvetica,sans-Serif" font-size="11.00">actual_et__thornthwaite</text>
<text text-anchor="start" x="368.217" y="-77.7" font-family="Helvetica,sans-Serif" font-size="11.00">_mather_eqns::thornthwaite</text>
<text text-anchor="middle" x="436.398" y="-66.7" font-family="Helvetica,sans-Serif" font-size="11.00">_mather_apwl</text>
</a>
</g>
</g>
<!-- Node2&#45;&gt;Node3 -->
<g id="edge2" class="edge"><title>Node2&#45;&gt;Node3</title>
<path fill="none" stroke="midnightblue" d="M324.372,-62.299C332.736,-63.7077 341.375,-65.1628 349.969,-66.6104"/>
<polygon fill="midnightblue" stroke="midnightblue" points="349.575,-70.0933 360.017,-68.3029 350.738,-63.1905 349.575,-70.0933"/>
</g>
<!-- Node4 -->
<g id="node4" class="node"><title>Node4</title>
<g id="a_node4"><a xlink:href="namespaceactual__et____thornthwaite__mather__eqns.html#aa6c9bb2bd8feb1650afb7bf778c8aafd" target="_top" xlink:title="Return the current soil moisture given the max soil&#45;water&#45;capacity and current APWL. ">
<polygon fill="white" stroke="black" points="360.217,-0.5 360.217,-41.5 512.579,-41.5 512.579,-0.5 360.217,-0.5"/>
<text text-anchor="start" x="368.217" y="-28.7" font-family="Helvetica,sans-Serif" font-size="11.00">actual_et__thornthwaite</text>
<text text-anchor="start" x="368.217" y="-17.7" font-family="Helvetica,sans-Serif" font-size="11.00">_mather_eqns::thornthwaite</text>
<text text-anchor="middle" x="436.398" y="-6.7" font-family="Helvetica,sans-Serif" font-size="11.00">_mather_soil_moisture</text>
</a>
</g>
</g>
<!-- Node2&#45;&gt;Node4 -->
<g id="edge3" class="edge"><title>Node2&#45;&gt;Node4</title>
<path fill="none" stroke="midnightblue" d="M324.372,-39.701C332.736,-38.2923 341.375,-36.8372 349.969,-35.3896"/>
<polygon fill="midnightblue" stroke="midnightblue" points="350.738,-38.8095 360.017,-33.6971 349.575,-31.9067 350.738,-38.8095"/>
</g>
</g>
</svg>
