<?xml version="1.0" encoding="UTF-8" standalone="no"?>
<!DOCTYPE svg PUBLIC "-//W3C//DTD SVG 1.1//EN"
 "http://www.w3.org/Graphics/SVG/1.1/DTD/svg11.dtd">
<!-- Generated by graphviz version 2.38.0 (20140413.2041)
 -->
<!-- Title: mass_balance__snow::calculate_snow_mass_balance Pages: 1 -->
<svg width="555pt" height="50pt"
 viewBox="0.00 0.00 554.81 50.00" xmlns="http://www.w3.org/2000/svg" xmlns:xlink="http://www.w3.org/1999/xlink">
<g id="graph0" class="graph" transform="scale(1 1) rotate(0) translate(4 46)">
<title>mass_balance__snow::calculate_snow_mass_balance</title>
<polygon fill="white" stroke="none" points="-4,4 -4,-46 550.806,-46 550.806,4 -4,4"/>
<!-- Node1 -->
<g id="node1" class="node"><title>Node1</title>
<polygon fill="#bfbfbf" stroke="black" points="0,-0.5 0,-41.5 129.722,-41.5 129.722,-0.5 0,-0.5"/>
<text text-anchor="start" x="8" y="-28.7" font-family="Helvetica,sans-Serif" font-size="11.00">mass_balance__snow</text>
<text text-anchor="start" x="8" y="-17.7" font-family="Helvetica,sans-Serif" font-size="11.00">::calculate_snow_mass</text>
<text text-anchor="middle" x="64.8611" y="-6.7" font-family="Helvetica,sans-Serif" font-size="11.00">_balance</text>
</g>
<!-- Node2 -->
<g id="node2" class="node"><title>Node2</title>
<g id="a_node2"><a xlink:href="namespacedaily__calculation.html#ac74b5b0ab616d2c459e1668bc36c1784" target="_top" xlink:title="daily_calculation::\lperform_daily_calculation">
<polygon fill="white" stroke="black" points="165.722,-6 165.722,-36 306.455,-36 306.455,-6 165.722,-6"/>
<text text-anchor="start" x="173.722" y="-23.2" font-family="Helvetica,sans-Serif" font-size="11.00">daily_calculation::</text>
<text text-anchor="middle" x="236.089" y="-12.2" font-family="Helvetica,sans-Serif" font-size="11.00">perform_daily_calculation</text>
</a>
</g>
</g>
<!-- Node1&#45;&gt;Node2 -->
<g id="edge1" class="edge"><title>Node1&#45;&gt;Node2</title>
<path fill="none" stroke="midnightblue" d="M140.102,-21C148.592,-21 157.224,-21 165.649,-21"/>
<polygon fill="midnightblue" stroke="midnightblue" points="139.839,-17.5001 129.839,-21 139.839,-24.5001 139.839,-17.5001"/>
</g>
<!-- Node3 -->
<g id="node3" class="node"><title>Node3</title>
<g id="a_node3"><a xlink:href="namespacemodel__iterate.html#a05e7db04d04d173186649ed80748a6a8" target="_top" xlink:title="model_iterate::iterate\l_over_simulation_days">
<polygon fill="white" stroke="black" points="342.455,-6 342.455,-36 470.963,-36 470.963,-6 342.455,-6"/>
<text text-anchor="start" x="350.455" y="-23.2" font-family="Helvetica,sans-Serif" font-size="11.00">model_iterate::iterate</text>
<text text-anchor="middle" x="406.709" y="-12.2" font-family="Helvetica,sans-Serif" font-size="11.00">_over_simulation_days</text>
</a>
</g>
</g>
<!-- Node2&#45;&gt;Node3 -->
<g id="edge2" class="edge"><title>Node2&#45;&gt;Node3</title>
<path fill="none" stroke="midnightblue" d="M316.67,-21C325.253,-21 333.901,-21 342.258,-21"/>
<polygon fill="midnightblue" stroke="midnightblue" points="316.647,-17.5001 306.647,-21 316.647,-24.5001 316.647,-17.5001"/>
</g>
<!-- Node4 -->
<g id="node4" class="node"><title>Node4</title>
<g id="a_node4"><a xlink:href="main_8F90.html#a8ec2266d83cd6c0b762cbcbc92c0af3d" target="_top" xlink:title="Main program which references all other modules; execution begins here. ">
<polygon fill="white" stroke="black" points="506.963,-11.5 506.963,-30.5 546.806,-30.5 546.806,-11.5 506.963,-11.5"/>
<text text-anchor="middle" x="526.885" y="-17.7" font-family="Helvetica,sans-Serif" font-size="11.00">main</text>
</a>
</g>
</g>
<!-- Node3&#45;&gt;Node4 -->
<g id="edge3" class="edge"><title>Node3&#45;&gt;Node4</title>
<path fill="none" stroke="midnightblue" d="M481.546,-21C490.849,-21 499.631,-21 506.886,-21"/>
<polygon fill="midnightblue" stroke="midnightblue" points="481.294,-17.5001 471.294,-21 481.294,-24.5001 481.294,-17.5001"/>
</g>
</g>
</svg>
