<?xml version="1.0" encoding="UTF-8" standalone="no"?>
<!DOCTYPE svg PUBLIC "-//W3C//DTD SVG 1.1//EN"
 "http://www.w3.org/Graphics/SVG/1.1/DTD/svg11.dtd">
<!-- Generated by graphviz version 2.38.0 (20140413.2041)
 -->
<!-- Title: netcdf4_support::netcdf_put_variable_vector Pages: 1 -->
<svg width="1092pt" height="172pt"
 viewBox="0.00 0.00 1091.83 171.50" xmlns="http://www.w3.org/2000/svg" xmlns:xlink="http://www.w3.org/1999/xlink">
<g id="graph0" class="graph" transform="scale(1 1) rotate(0) translate(4 167.5)">
<title>netcdf4_support::netcdf_put_variable_vector</title>
<polygon fill="white" stroke="none" points="-4,4 -4,-167.5 1087.83,-167.5 1087.83,4 -4,4"/>
<!-- Node728 -->
<g id="node1" class="node"><title>Node728</title>
<polygon fill="#bfbfbf" stroke="black" points="0,-44 0,-74 130.968,-74 130.968,-44 0,-44"/>
<text text-anchor="start" x="8" y="-61.2" font-family="Helvetica,sans-Serif" font-size="11.00">netcdf4_support::netcdf</text>
<text text-anchor="middle" x="65.4841" y="-50.2" font-family="Helvetica,sans-Serif" font-size="11.00">_put_variable_vector</text>
</g>
<!-- Node729 -->
<g id="node2" class="node"><title>Node729</title>
<g id="a_node2"><a xlink:href="namespacefog____monthly__grid.html#acef2be3cd8295a3fb9bbeae7706207f7" target="_top" xlink:title="fog__monthly_grid::\lfog_monthly_grid_calculate">
<polygon fill="white" stroke="black" points="166.968,-118 166.968,-148 316.886,-148 316.886,-118 166.968,-118"/>
<text text-anchor="start" x="174.968" y="-135.2" font-family="Helvetica,sans-Serif" font-size="11.00">fog__monthly_grid::</text>
<text text-anchor="middle" x="241.927" y="-124.2" font-family="Helvetica,sans-Serif" font-size="11.00">fog_monthly_grid_calculate</text>
</a>
</g>
</g>
<!-- Node728&#45;&gt;Node729 -->
<g id="edge1" class="edge"><title>Node728&#45;&gt;Node729</title>
<path fill="none" stroke="midnightblue" d="M111.779,-78.2143C141.018,-90.6177 178.505,-106.52 205.551,-117.993"/>
<polygon fill="midnightblue" stroke="midnightblue" points="112.779,-74.8368 102.206,-74.1536 110.045,-81.2809 112.779,-74.8368"/>
</g>
<!-- Node732 -->
<g id="node5" class="node"><title>Node732</title>
<g id="a_node5"><a xlink:href="namespacenetcdf4__support.html#a38ce80fb362cea1b8e76451f51e74330" target="_top" xlink:title="netcdf4_support::nf\l_put_x_and_y">
<polygon fill="white" stroke="black" points="186.839,-44 186.839,-74 297.015,-74 297.015,-44 186.839,-44"/>
<text text-anchor="start" x="194.839" y="-61.2" font-family="Helvetica,sans-Serif" font-size="11.00">netcdf4_support::nf</text>
<text text-anchor="middle" x="241.927" y="-50.2" font-family="Helvetica,sans-Serif" font-size="11.00">_put_x_and_y</text>
</a>
</g>
</g>
<!-- Node728&#45;&gt;Node732 -->
<g id="edge4" class="edge"><title>Node728&#45;&gt;Node732</title>
<path fill="none" stroke="midnightblue" d="M141.808,-59C156.928,-59 172.534,-59 186.763,-59"/>
<polygon fill="midnightblue" stroke="midnightblue" points="141.44,-55.5001 131.44,-59 141.44,-62.5001 141.44,-55.5001"/>
</g>
<!-- Node737 -->
<g id="node10" class="node"><title>Node737</title>
<g id="a_node10"><a xlink:href="namespacedata__catalog__entry.html#a3ea40e0b58c61d01a18065ea3c1b4fcd" target="_top" xlink:title="data_catalog_entry\l::put_values_to_local\l_netcdf_sub">
<polygon fill="white" stroke="black" points="571.553,-0.5 571.553,-41.5 690.904,-41.5 690.904,-0.5 571.553,-0.5"/>
<text text-anchor="start" x="579.553" y="-28.7" font-family="Helvetica,sans-Serif" font-size="11.00">data_catalog_entry</text>
<text text-anchor="start" x="579.553" y="-17.7" font-family="Helvetica,sans-Serif" font-size="11.00">::put_values_to_local</text>
<text text-anchor="middle" x="631.229" y="-6.7" font-family="Helvetica,sans-Serif" font-size="11.00">_netcdf_sub</text>
</a>
</g>
</g>
<!-- Node728&#45;&gt;Node737 -->
<g id="edge11" class="edge"><title>Node728&#45;&gt;Node737</title>
<path fill="none" stroke="midnightblue" d="M130.402,-41.5486C142.48,-38.6926 155.059,-36.0138 166.968,-34 310.56,-9.71868 482.685,-13.2741 571.215,-17.4414"/>
<polygon fill="midnightblue" stroke="midnightblue" points="129.292,-38.2165 120.401,-43.9786 130.944,-45.0186 129.292,-38.2165"/>
</g>
<!-- Node730 -->
<g id="node3" class="node"><title>Node730</title>
<g id="a_node3"><a xlink:href="namespacemodel__domain.html#ae877b5eae76f44562c1d97e09ae87ee8" target="_top" xlink:title="model_domain::model\l_calculate_fog_monthly_grid">
<polygon fill="white" stroke="black" points="740.044,-133 740.044,-163 896.08,-163 896.08,-133 740.044,-133"/>
<text text-anchor="start" x="748.044" y="-150.2" font-family="Helvetica,sans-Serif" font-size="11.00">model_domain::model</text>
<text text-anchor="middle" x="818.062" y="-139.2" font-family="Helvetica,sans-Serif" font-size="11.00">_calculate_fog_monthly_grid</text>
</a>
</g>
</g>
<!-- Node729&#45;&gt;Node730 -->
<g id="edge2" class="edge"><title>Node729&#45;&gt;Node730</title>
<path fill="none" stroke="midnightblue" d="M327.267,-135.203C438.429,-138.108 632.425,-143.176 739.888,-145.984"/>
<polygon fill="midnightblue" stroke="midnightblue" points="327.191,-131.7 317.103,-134.938 327.008,-138.698 327.191,-131.7"/>
</g>
<!-- Node731 -->
<g id="node4" class="node"><title>Node731</title>
<g id="a_node4"><a xlink:href="namespacemodel__domain.html#aac78dbf26ba37cf86ebed4edd7acf89b" target="_top" xlink:title="model_domain::set_method\l_pointers_sub">
<polygon fill="white" stroke="black" points="932.08,-108 932.08,-138 1083.83,-138 1083.83,-108 932.08,-108"/>
<text text-anchor="start" x="940.08" y="-125.2" font-family="Helvetica,sans-Serif" font-size="11.00">model_domain::set_method</text>
<text text-anchor="middle" x="1007.95" y="-114.2" font-family="Helvetica,sans-Serif" font-size="11.00">_pointers_sub</text>
</a>
</g>
</g>
<!-- Node730&#45;&gt;Node731 -->
<g id="edge3" class="edge"><title>Node730&#45;&gt;Node731</title>
<path fill="none" stroke="midnightblue" d="M906.273,-136.396C914.814,-135.26 923.43,-134.113 931.836,-132.995"/>
<polygon fill="midnightblue" stroke="midnightblue" points="905.749,-132.935 896.298,-137.723 906.673,-139.874 905.749,-132.935"/>
</g>
<!-- Node733 -->
<g id="node6" class="node"><title>Node733</title>
<g id="a_node6"><a xlink:href="namespacenetcdf4__support.html#a4bc9b9f951c1dc1cc1f50ba727794071" target="_top" xlink:title="netcdf4_support::netcdf\l_open_and_prepare_as_output">
<polygon fill="white" stroke="black" points="352.886,-87 352.886,-117 522.413,-117 522.413,-87 352.886,-87"/>
<text text-anchor="start" x="360.886" y="-104.2" font-family="Helvetica,sans-Serif" font-size="11.00">netcdf4_support::netcdf</text>
<text text-anchor="middle" x="437.649" y="-93.2" font-family="Helvetica,sans-Serif" font-size="11.00">_open_and_prepare_as_output</text>
</a>
</g>
</g>
<!-- Node732&#45;&gt;Node733 -->
<g id="edge5" class="edge"><title>Node732&#45;&gt;Node733</title>
<path fill="none" stroke="midnightblue" d="M307.022,-73.227C326.894,-77.638 348.853,-82.512 368.961,-86.9754"/>
<polygon fill="midnightblue" stroke="midnightblue" points="307.668,-69.7852 297.147,-71.0351 306.151,-76.6189 307.668,-69.7852"/>
</g>
<!-- Node736 -->
<g id="node9" class="node"><title>Node736</title>
<g id="a_node9"><a xlink:href="namespacenetcdf4__support.html#a6c0e12debd35545980fa63ade1094e93" target="_top" xlink:title="netcdf4_support::netcdf\l_open_and_prepare_as_output\l_archive">
<polygon fill="white" stroke="black" points="352.886,-26.5 352.886,-67.5 522.413,-67.5 522.413,-26.5 352.886,-26.5"/>
<text text-anchor="start" x="360.886" y="-54.7" font-family="Helvetica,sans-Serif" font-size="11.00">netcdf4_support::netcdf</text>
<text text-anchor="start" x="360.886" y="-43.7" font-family="Helvetica,sans-Serif" font-size="11.00">_open_and_prepare_as_output</text>
<text text-anchor="middle" x="437.649" y="-32.7" font-family="Helvetica,sans-Serif" font-size="11.00">_archive</text>
</a>
</g>
</g>
<!-- Node732&#45;&gt;Node736 -->
<g id="edge9" class="edge"><title>Node732&#45;&gt;Node736</title>
<path fill="none" stroke="midnightblue" d="M307.483,-55.0011C321.972,-54.1036 337.551,-53.1386 352.7,-52.2002"/>
<polygon fill="midnightblue" stroke="midnightblue" points="306.912,-51.5297 297.147,-55.6414 307.344,-58.5163 306.912,-51.5297"/>
</g>
<!-- Node734 -->
<g id="node7" class="node"><title>Node734</title>
<g id="a_node7"><a xlink:href="namespacefog____monthly__grid.html#a8e7386e0dfea998459a45c270e0afecc" target="_top" xlink:title="Initialize the fog drip algorithm. ">
<polygon fill="white" stroke="black" points="558.413,-85 558.413,-115 704.044,-115 704.044,-85 558.413,-85"/>
<text text-anchor="start" x="566.413" y="-102.2" font-family="Helvetica,sans-Serif" font-size="11.00">fog__monthly_grid::</text>
<text text-anchor="middle" x="631.229" y="-91.2" font-family="Helvetica,sans-Serif" font-size="11.00">fog_monthly_grid_initialize</text>
</a>
</g>
</g>
<!-- Node733&#45;&gt;Node734 -->
<g id="edge6" class="edge"><title>Node733&#45;&gt;Node734</title>
<path fill="none" stroke="midnightblue" d="M532.73,-101.018C541.313,-100.928 549.915,-100.838 558.259,-100.751"/>
<polygon fill="midnightblue" stroke="midnightblue" points="532.642,-97.5185 522.679,-101.123 532.715,-104.518 532.642,-97.5185"/>
</g>
<!-- Node735 -->
<g id="node8" class="node"><title>Node735</title>
<g id="a_node8"><a xlink:href="namespacemodel__domain.html#ad24a97a20a893d728e39930306e8b1d4" target="_top" xlink:title="model_domain::model\l_initialize_fog_monthly_grid">
<polygon fill="white" stroke="black" points="742.188,-84 742.188,-114 893.937,-114 893.937,-84 742.188,-84"/>
<text text-anchor="start" x="750.188" y="-101.2" font-family="Helvetica,sans-Serif" font-size="11.00">model_domain::model</text>
<text text-anchor="middle" x="818.062" y="-90.2" font-family="Helvetica,sans-Serif" font-size="11.00">_initialize_fog_monthly_grid</text>
</a>
</g>
</g>
<!-- Node734&#45;&gt;Node735 -->
<g id="edge7" class="edge"><title>Node734&#45;&gt;Node735</title>
<path fill="none" stroke="midnightblue" d="M714.459,-99.5551C723.597,-99.5057 732.869,-99.4555 741.912,-99.4066"/>
<polygon fill="midnightblue" stroke="midnightblue" points="714.2,-96.0564 704.219,-99.6105 714.238,-103.056 714.2,-96.0564"/>
</g>
<!-- Node735&#45;&gt;Node731 -->
<g id="edge8" class="edge"><title>Node735&#45;&gt;Node731</title>
<path fill="none" stroke="midnightblue" d="M904.15,-109.869C913.44,-111.055 922.848,-112.257 932.003,-113.426"/>
<polygon fill="midnightblue" stroke="midnightblue" points="904.495,-106.384 894.132,-108.589 903.608,-113.328 904.495,-106.384"/>
</g>
<!-- Node736&#45;&gt;Node737 -->
<g id="edge10" class="edge"><title>Node736&#45;&gt;Node737</title>
<path fill="none" stroke="midnightblue" d="M532.706,-34.2352C545.852,-32.4511 559.041,-30.6612 571.282,-28.9998"/>
<polygon fill="midnightblue" stroke="midnightblue" points="532.117,-30.7829 522.679,-35.596 533.059,-37.7193 532.117,-30.7829"/>
</g>
</g>
</svg>
