<?xml version="1.0" encoding="UTF-8" standalone="no"?>
<!DOCTYPE svg PUBLIC "-//W3C//DTD SVG 1.1//EN"
 "http://www.w3.org/Graphics/SVG/1.1/DTD/svg11.dtd">
<!-- Generated by graphviz version 2.38.0 (20140413.2041)
 -->
<!-- Title: netcdf4_support::nf_get_variable_vector_int Pages: 1 -->
<svg width="503pt" height="39pt"
 viewBox="0.00 0.00 503.47 39.00" xmlns="http://www.w3.org/2000/svg" xmlns:xlink="http://www.w3.org/1999/xlink">
<g id="graph0" class="graph" transform="scale(1 1) rotate(0) translate(4 35)">
<title>netcdf4_support::nf_get_variable_vector_int</title>
<polygon fill="white" stroke="none" points="-4,4 -4,-35 499.472,-35 499.472,4 -4,4"/>
<!-- Node432 -->
<g id="node1" class="node"><title>Node432</title>
<polygon fill="#bfbfbf" stroke="black" points="0,-0.5 0,-30.5 135.856,-30.5 135.856,-0.5 0,-0.5"/>
<text text-anchor="start" x="8" y="-17.7" font-family="Helvetica,sans-Serif" font-size="11.00">netcdf4_support::nf</text>
<text text-anchor="middle" x="67.928" y="-6.7" font-family="Helvetica,sans-Serif" font-size="11.00">_get_variable_vector_int</text>
</g>
<!-- Node433 -->
<g id="node2" class="node"><title>Node433</title>
<g id="a_node2"><a xlink:href="namespacenetcdf4__support.html#ac8c7276a5849ae6d17ffef1787e3f234" target="_top" xlink:title="netcdf4_support::nf_trap">
<polygon fill="white" stroke="black" points="171.856,-6 171.856,-25 307.105,-25 307.105,-6 171.856,-6"/>
<text text-anchor="middle" x="239.48" y="-12.2" font-family="Helvetica,sans-Serif" font-size="11.00">netcdf4_support::nf_trap</text>
</a>
</g>
</g>
<!-- Node432&#45;&gt;Node433 -->
<g id="edge1" class="edge"><title>Node432&#45;&gt;Node433</title>
<path fill="none" stroke="midnightblue" d="M135.94,-15.5C144.389,-15.5 153.085,-15.5 161.671,-15.5"/>
<polygon fill="midnightblue" stroke="midnightblue" points="161.678,-19.0001 171.678,-15.5 161.678,-12.0001 161.678,-19.0001"/>
</g>
<!-- Node434 -->
<g id="node3" class="node"><title>Node434</title>
<g id="a_node3"><a xlink:href="namespaceconstants__and__conversions.html#ac13fba285229deab77131132e6f62caf" target="_top" xlink:title="constants_and_conversions\l::char_ptr_to_fortran_string">
<polygon fill="white" stroke="black" points="343.105,-0.5 343.105,-30.5 495.472,-30.5 495.472,-0.5 343.105,-0.5"/>
<text text-anchor="start" x="351.105" y="-17.7" font-family="Helvetica,sans-Serif" font-size="11.00">constants_and_conversions</text>
<text text-anchor="middle" x="419.288" y="-6.7" font-family="Helvetica,sans-Serif" font-size="11.00">::char_ptr_to_fortran_string</text>
</a>
</g>
</g>
<!-- Node433&#45;&gt;Node434 -->
<g id="edge2" class="edge"><title>Node433&#45;&gt;Node434</title>
<path fill="none" stroke="midnightblue" d="M307.195,-15.5C315.553,-15.5 324.19,-15.5 332.785,-15.5"/>
<polygon fill="midnightblue" stroke="midnightblue" points="332.836,-19.0001 342.835,-15.5 332.835,-12.0001 332.836,-19.0001"/>
</g>
</g>
</svg>
