<?xml version="1.0" encoding="UTF-8" standalone="no"?>
<!DOCTYPE svg PUBLIC "-//W3C//DTD SVG 1.1//EN"
 "http://www.w3.org/Graphics/SVG/1.1/DTD/svg11.dtd">
<!-- Generated by graphviz version 2.38.0 (20140413.2041)
 -->
<!-- Title: netcdf4_support::nf_get_variable_slice_float Pages: 1 -->
<svg width="655pt" height="100pt"
 viewBox="0.00 0.00 654.55 99.50" xmlns="http://www.w3.org/2000/svg" xmlns:xlink="http://www.w3.org/1999/xlink">
<g id="graph0" class="graph" transform="scale(1 1) rotate(0) translate(4 95.5)">
<title>netcdf4_support::nf_get_variable_slice_float</title>
<polygon fill="white" stroke="none" points="-4,4 -4,-95.5 650.547,-95.5 650.547,4 -4,4"/>
<!-- Node1 -->
<g id="node1" class="node"><title>Node1</title>
<polygon fill="#bfbfbf" stroke="black" points="0,-27.5 0,-57.5 137.081,-57.5 137.081,-27.5 0,-27.5"/>
<text text-anchor="start" x="8" y="-44.7" font-family="Helvetica,sans-Serif" font-size="11.00">netcdf4_support::nf</text>
<text text-anchor="middle" x="68.5403" y="-33.7" font-family="Helvetica,sans-Serif" font-size="11.00">_get_variable_slice_float</text>
</g>
<!-- Node2 -->
<g id="node2" class="node"><title>Node2</title>
<g id="a_node2"><a xlink:href="namespacenetcdf4__support.html#a997d4ec63d37cb56378ab434c9b3075b" target="_top" xlink:title="netcdf4_support::netcdf\l_get_variable_slice">
<polygon fill="white" stroke="black" points="173.081,-27.5 173.081,-57.5 304.049,-57.5 304.049,-27.5 173.081,-27.5"/>
<text text-anchor="start" x="181.081" y="-44.7" font-family="Helvetica,sans-Serif" font-size="11.00">netcdf4_support::netcdf</text>
<text text-anchor="middle" x="238.565" y="-33.7" font-family="Helvetica,sans-Serif" font-size="11.00">_get_variable_slice</text>
</a>
</g>
</g>
<!-- Node1&#45;&gt;Node2 -->
<g id="edge1" class="edge"><title>Node1&#45;&gt;Node2</title>
<path fill="none" stroke="midnightblue" d="M147.673,-42.5C156.149,-42.5 164.705,-42.5 172.993,-42.5"/>
<polygon fill="midnightblue" stroke="midnightblue" points="147.398,-39.0001 137.398,-42.5 147.398,-46.0001 147.398,-39.0001"/>
</g>
<!-- Node3 -->
<g id="node3" class="node"><title>Node3</title>
<g id="a_node3"><a xlink:href="namespacedata__catalog__entry.html#aeb285131f87ed64deba0a9041a9c6405" target="_top" xlink:title="data_catalog_entry\l::getvalues_dynamic\l_netcdf_sub">
<polygon fill="white" stroke="black" points="362.374,-50 362.374,-91 478.652,-91 478.652,-50 362.374,-50"/>
<text text-anchor="start" x="370.374" y="-78.2" font-family="Helvetica,sans-Serif" font-size="11.00">data_catalog_entry</text>
<text text-anchor="start" x="370.374" y="-67.2" font-family="Helvetica,sans-Serif" font-size="11.00">::getvalues_dynamic</text>
<text text-anchor="middle" x="420.513" y="-56.2" font-family="Helvetica,sans-Serif" font-size="11.00">_netcdf_sub</text>
</a>
</g>
</g>
<!-- Node2&#45;&gt;Node3 -->
<g id="edge2" class="edge"><title>Node2&#45;&gt;Node3</title>
<path fill="none" stroke="midnightblue" d="M314.168,-54.1084C330.227,-56.607 346.958,-59.2105 362.234,-61.5874"/>
<polygon fill="midnightblue" stroke="midnightblue" points="314.695,-50.6483 304.276,-52.5691 313.619,-57.5651 314.695,-50.6483"/>
</g>
<!-- Node5 -->
<g id="node5" class="node"><title>Node5</title>
<g id="a_node5"><a xlink:href="namespacedata__catalog__entry.html#ac3e1f0d9d9e146fbb77c0084e1e9fc14" target="_top" xlink:title="data_catalog_entry\l::getvalues_static_netcdf_sub">
<polygon fill="white" stroke="black" points="340.049,-0.5 340.049,-30.5 500.977,-30.5 500.977,-0.5 340.049,-0.5"/>
<text text-anchor="start" x="348.049" y="-17.7" font-family="Helvetica,sans-Serif" font-size="11.00">data_catalog_entry</text>
<text text-anchor="middle" x="420.513" y="-6.7" font-family="Helvetica,sans-Serif" font-size="11.00">::getvalues_static_netcdf_sub</text>
</a>
</g>
</g>
<!-- Node2&#45;&gt;Node5 -->
<g id="edge4" class="edge"><title>Node2&#45;&gt;Node5</title>
<path fill="none" stroke="midnightblue" d="M314.178,-31.3048C322.704,-30.0256 331.419,-28.7179 340.005,-27.4296"/>
<polygon fill="midnightblue" stroke="midnightblue" points="313.646,-27.8454 304.276,-32.7905 314.685,-34.7679 313.646,-27.8454"/>
</g>
<!-- Node4 -->
<g id="node4" class="node"><title>Node4</title>
<g id="a_node4"><a xlink:href="namespacedata__catalog__entry.html#a9e0a89ab19a5bfd61f2dfb8265648234" target="_top" xlink:title="data_catalog_entry\l::getvalues_sub">
<polygon fill="white" stroke="black" points="536.977,-27.5 536.977,-57.5 646.547,-57.5 646.547,-27.5 536.977,-27.5"/>
<text text-anchor="start" x="544.977" y="-44.7" font-family="Helvetica,sans-Serif" font-size="11.00">data_catalog_entry</text>
<text text-anchor="middle" x="591.762" y="-33.7" font-family="Helvetica,sans-Serif" font-size="11.00">::getvalues_sub</text>
</a>
</g>
</g>
<!-- Node3&#45;&gt;Node4 -->
<g id="edge3" class="edge"><title>Node3&#45;&gt;Node4</title>
<path fill="none" stroke="midnightblue" d="M489.116,-59.3161C505.014,-56.6858 521.75,-53.9172 536.949,-51.4027"/>
<polygon fill="midnightblue" stroke="midnightblue" points="488.108,-55.9351 478.813,-61.0205 489.25,-62.8413 488.108,-55.9351"/>
</g>
<!-- Node5&#45;&gt;Node4 -->
<g id="edge5" class="edge"><title>Node5&#45;&gt;Node4</title>
<path fill="none" stroke="midnightblue" d="M511.319,-29.8267C519.946,-31.2028 528.5,-32.5674 536.621,-33.8631"/>
<polygon fill="midnightblue" stroke="midnightblue" points="511.608,-26.3285 501.182,-28.2094 510.505,-33.2411 511.608,-26.3285"/>
</g>
</g>
</svg>
