<?xml version="1.0" encoding="UTF-8" standalone="no"?>
<!DOCTYPE svg PUBLIC "-//W3C//DTD SVG 1.1//EN"
 "http://www.w3.org/Graphics/SVG/1.1/DTD/svg11.dtd">
<!-- Generated by graphviz version 2.38.0 (20140413.2041)
 -->
<!-- Title: model_domain::model_calculate_et_jensen_haise Pages: 1 -->
<svg width="498pt" height="170pt"
 viewBox="0.00 0.00 498.01 170.00" xmlns="http://www.w3.org/2000/svg" xmlns:xlink="http://www.w3.org/1999/xlink">
<g id="graph0" class="graph" transform="scale(1 1) rotate(0) translate(4 166)">
<title>model_domain::model_calculate_et_jensen_haise</title>
<polygon fill="white" stroke="none" points="-4,4 -4,-166 494.009,-166 494.009,4 -4,4"/>
<!-- Node1 -->
<g id="node1" class="node"><title>Node1</title>
<polygon fill="#bfbfbf" stroke="black" points="0,-66 0,-96 151.771,-96 151.771,-66 0,-66"/>
<text text-anchor="start" x="8" y="-83.2" font-family="Helvetica,sans-Serif" font-size="11.00">model_domain::model</text>
<text text-anchor="middle" x="75.8853" y="-72.2" font-family="Helvetica,sans-Serif" font-size="11.00">_calculate_et_jensen_haise</text>
</g>
<!-- Node2 -->
<g id="node2" class="node"><title>Node2</title>
<g id="a_node2"><a xlink:href="namespaceet____jensen__haise.html#a0f89e1d331fb1f00a6623dee62758dde" target="_top" xlink:title="et__jensen_haise::et\l_jh_calculate">
<polygon fill="white" stroke="black" points="187.771,-66 187.771,-96 305.295,-96 305.295,-66 187.771,-66"/>
<text text-anchor="start" x="195.771" y="-83.2" font-family="Helvetica,sans-Serif" font-size="11.00">et__jensen_haise::et</text>
<text text-anchor="middle" x="246.533" y="-72.2" font-family="Helvetica,sans-Serif" font-size="11.00">_jh_calculate</text>
</a>
</g>
</g>
<!-- Node1&#45;&gt;Node2 -->
<g id="edge1" class="edge"><title>Node1&#45;&gt;Node2</title>
<path fill="none" stroke="midnightblue" d="M151.839,-81C160.407,-81 169.106,-81 177.576,-81"/>
<polygon fill="midnightblue" stroke="midnightblue" points="177.769,-84.5001 187.769,-81 177.769,-77.5001 177.769,-84.5001"/>
</g>
<!-- Node3 -->
<g id="node3" class="node"><title>Node3</title>
<g id="a_node3"><a xlink:href="namespacesolar__calculations.html#a7f8fe8507c901504b1f5e77fc91701f1" target="_top" xlink:title="Estimate percent of possible sunshine. ">
<polygon fill="white" stroke="black" points="341.295,-120.5 341.295,-161.5 490.009,-161.5 490.009,-120.5 341.295,-120.5"/>
<text text-anchor="start" x="349.295" y="-148.7" font-family="Helvetica,sans-Serif" font-size="11.00">solar_calculations</text>
<text text-anchor="start" x="349.295" y="-137.7" font-family="Helvetica,sans-Serif" font-size="11.00">::estimate_percent_of</text>
<text text-anchor="middle" x="415.652" y="-126.7" font-family="Helvetica,sans-Serif" font-size="11.00">_possible_sunshine__psun</text>
</a>
</g>
</g>
<!-- Node2&#45;&gt;Node3 -->
<g id="edge2" class="edge"><title>Node2&#45;&gt;Node3</title>
<path fill="none" stroke="midnightblue" d="M289.704,-96.1405C307.321,-102.465 328.221,-109.969 347.837,-117.012"/>
<polygon fill="midnightblue" stroke="midnightblue" points="346.749,-120.34 357.344,-120.425 349.115,-113.752 346.749,-120.34"/>
</g>
<!-- Node4 -->
<g id="node4" class="node"><title>Node4</title>
<g id="a_node4"><a xlink:href="namespacesolar__calculations.html#a474867a73dd025f53cde7f7e2b871b47" target="_top" xlink:title="Calculate the inverse relative Earth&#45;Sun distance for a given day of the year. ">
<polygon fill="white" stroke="black" points="359.344,-60.5 359.344,-101.5 471.96,-101.5 471.96,-60.5 359.344,-60.5"/>
<text text-anchor="start" x="367.344" y="-88.7" font-family="Helvetica,sans-Serif" font-size="11.00">solar_calculations</text>
<text text-anchor="start" x="367.344" y="-77.7" font-family="Helvetica,sans-Serif" font-size="11.00">::relative_earth_sun</text>
<text text-anchor="middle" x="415.652" y="-66.7" font-family="Helvetica,sans-Serif" font-size="11.00">_distance__d_r</text>
</a>
</g>
</g>
<!-- Node2&#45;&gt;Node4 -->
<g id="edge3" class="edge"><title>Node2&#45;&gt;Node4</title>
<path fill="none" stroke="midnightblue" d="M305.514,-81C319.548,-81 334.648,-81 349.007,-81"/>
<polygon fill="midnightblue" stroke="midnightblue" points="349.306,-84.5001 359.306,-81 349.306,-77.5001 349.306,-84.5001"/>
</g>
<!-- Node5 -->
<g id="node5" class="node"><title>Node5</title>
<g id="a_node5"><a xlink:href="namespacesolar__calculations.html#a24590af8aedbf0702f0cb6d188edb1f2" target="_top" xlink:title="Calculate the solar declination for a given day of the year. ">
<polygon fill="white" stroke="black" points="363.319,-0.5 363.319,-41.5 467.985,-41.5 467.985,-0.5 363.319,-0.5"/>
<text text-anchor="start" x="371.319" y="-28.7" font-family="Helvetica,sans-Serif" font-size="11.00">solar_calculations</text>
<text text-anchor="start" x="371.319" y="-17.7" font-family="Helvetica,sans-Serif" font-size="11.00">::solar_declination</text>
<text text-anchor="middle" x="415.652" y="-6.7" font-family="Helvetica,sans-Serif" font-size="11.00">_simple__delta</text>
</a>
</g>
</g>
<!-- Node2&#45;&gt;Node5 -->
<g id="edge4" class="edge"><title>Node2&#45;&gt;Node5</title>
<path fill="none" stroke="midnightblue" d="M289.704,-65.8595C309.074,-58.9052 332.414,-50.5257 353.651,-42.9007"/>
<polygon fill="midnightblue" stroke="midnightblue" points="355.011,-46.1316 363.24,-39.4583 352.645,-39.5433 355.011,-46.1316"/>
</g>
</g>
</svg>
