<?xml version="1.0" encoding="UTF-8" standalone="no"?>
<!DOCTYPE svg PUBLIC "-//W3C//DTD SVG 1.1//EN"
 "http://www.w3.org/Graphics/SVG/1.1/DTD/svg11.dtd">
<!-- Generated by graphviz version 2.38.0 (20140413.2041)
 -->
<!-- Title: model_domain::model_initialize_et_monthly_grid Pages: 1 -->
<svg width="427pt" height="50pt"
 viewBox="0.00 0.00 427.03 50.00" xmlns="http://www.w3.org/2000/svg" xmlns:xlink="http://www.w3.org/1999/xlink">
<g id="graph0" class="graph" transform="scale(1 1) rotate(0) translate(4 46)">
<title>model_domain::model_initialize_et_monthly_grid</title>
<polygon fill="white" stroke="none" points="-4,4 -4,-46 423.03,-46 423.03,4 -4,4"/>
<!-- Node263 -->
<g id="node1" class="node"><title>Node263</title>
<polygon fill="#bfbfbf" stroke="black" points="0,-6 0,-36 145.631,-36 145.631,-6 0,-6"/>
<text text-anchor="start" x="8" y="-23.2" font-family="Helvetica,sans-Serif" font-size="11.00">model_domain::model</text>
<text text-anchor="middle" x="72.8157" y="-12.2" font-family="Helvetica,sans-Serif" font-size="11.00">_initialize_et_monthly_grid</text>
</g>
<!-- Node264 -->
<g id="node2" class="node"><title>Node264</title>
<g id="a_node2"><a xlink:href="namespaceet____gridded__values.html#afe00fc3329ba0727a175b106c3812526" target="_top" xlink:title="et__gridded_values\l::et_gridded_values\l_initialize">
<polygon fill="white" stroke="black" points="181.631,-0.5 181.631,-41.5 293.65,-41.5 293.65,-0.5 181.631,-0.5"/>
<text text-anchor="start" x="189.631" y="-28.7" font-family="Helvetica,sans-Serif" font-size="11.00">et__gridded_values</text>
<text text-anchor="start" x="189.631" y="-17.7" font-family="Helvetica,sans-Serif" font-size="11.00">::et_gridded_values</text>
<text text-anchor="middle" x="237.641" y="-6.7" font-family="Helvetica,sans-Serif" font-size="11.00">_initialize</text>
</a>
</g>
</g>
<!-- Node263&#45;&gt;Node264 -->
<g id="edge1" class="edge"><title>Node263&#45;&gt;Node264</title>
<path fill="none" stroke="midnightblue" d="M145.707,-21C154.186,-21 162.805,-21 171.189,-21"/>
<polygon fill="midnightblue" stroke="midnightblue" points="171.274,-24.5001 181.274,-21 171.274,-17.5001 171.274,-24.5001"/>
</g>
<!-- Node265 -->
<g id="node3" class="node"><title>Node265</title>
<g id="a_node3"><a xlink:href="namespaceexceptions.html#a22a1bf2808fdc249e6b378ee3f221156" target="_top" xlink:title="exceptions::die">
<polygon fill="white" stroke="black" points="329.65,-11.5 329.65,-30.5 419.03,-30.5 419.03,-11.5 329.65,-11.5"/>
<text text-anchor="middle" x="374.34" y="-17.7" font-family="Helvetica,sans-Serif" font-size="11.00">exceptions::die</text>
</a>
</g>
</g>
<!-- Node264&#45;&gt;Node265 -->
<g id="edge2" class="edge"><title>Node264&#45;&gt;Node265</title>
<path fill="none" stroke="midnightblue" d="M293.817,-21C302.288,-21 311.025,-21 319.467,-21"/>
<polygon fill="midnightblue" stroke="midnightblue" points="319.581,-24.5001 329.581,-21 319.581,-17.5001 319.581,-24.5001"/>
</g>
</g>
</svg>
