<?xml version="1.0" encoding="UTF-8" standalone="no"?>
<!DOCTYPE svg PUBLIC "-//W3C//DTD SVG 1.1//EN"
 "http://www.w3.org/Graphics/SVG/1.1/DTD/svg11.dtd">
<!-- Generated by graphviz version 2.38.0 (20140413.2041)
 -->
<!-- Title: model_domain::model_calculate_interception_gash Pages: 1 -->
<svg width="311pt" height="50pt"
 viewBox="0.00 0.00 311.45 50.00" xmlns="http://www.w3.org/2000/svg" xmlns:xlink="http://www.w3.org/1999/xlink">
<g id="graph0" class="graph" transform="scale(1 1) rotate(0) translate(4 46)">
<title>model_domain::model_calculate_interception_gash</title>
<polygon fill="white" stroke="none" points="-4,4 -4,-46 307.447,-46 307.447,4 -4,4"/>
<!-- Node1 -->
<g id="node1" class="node"><title>Node1</title>
<polygon fill="#bfbfbf" stroke="black" points="0,-6 0,-36 158.49,-36 158.49,-6 0,-6"/>
<text text-anchor="start" x="8" y="-23.2" font-family="Helvetica,sans-Serif" font-size="11.00">model_domain::model</text>
<text text-anchor="middle" x="79.2449" y="-12.2" font-family="Helvetica,sans-Serif" font-size="11.00">_calculate_interception_gash</text>
</g>
<!-- Node2 -->
<g id="node2" class="node"><title>Node2</title>
<g id="a_node2"><a xlink:href="namespaceinterception____gash.html#a6117dfa2d18098392c9cf59823ff780d" target="_top" xlink:title="interception__gash\l::interception_gash\l_calculate">
<polygon fill="white" stroke="black" points="194.49,-0.5 194.49,-41.5 303.447,-41.5 303.447,-0.5 194.49,-0.5"/>
<text text-anchor="start" x="202.49" y="-28.7" font-family="Helvetica,sans-Serif" font-size="11.00">interception__gash</text>
<text text-anchor="start" x="202.49" y="-17.7" font-family="Helvetica,sans-Serif" font-size="11.00">::interception_gash</text>
<text text-anchor="middle" x="248.969" y="-6.7" font-family="Helvetica,sans-Serif" font-size="11.00">_calculate</text>
</a>
</g>
</g>
<!-- Node1&#45;&gt;Node2 -->
<g id="edge1" class="edge"><title>Node1&#45;&gt;Node2</title>
<path fill="none" stroke="midnightblue" d="M158.705,-21C167.312,-21 175.995,-21 184.39,-21"/>
<polygon fill="midnightblue" stroke="midnightblue" points="184.462,-24.5001 194.462,-21 184.462,-17.5001 184.462,-24.5001"/>
</g>
</g>
</svg>
