<?xml version="1.0" encoding="UTF-8" standalone="no"?>
<!DOCTYPE svg PUBLIC "-//W3C//DTD SVG 1.1//EN"
 "http://www.w3.org/Graphics/SVG/1.1/DTD/svg11.dtd">
<!-- Generated by graphviz version 2.38.0 (20140413.2041)
 -->
<!-- Title: netcdf4_support::nf_get_variable_vector_double Pages: 1 -->
<svg width="814pt" height="149pt"
 viewBox="0.00 0.00 813.59 149.00" xmlns="http://www.w3.org/2000/svg" xmlns:xlink="http://www.w3.org/1999/xlink">
<g id="graph0" class="graph" transform="scale(1 1) rotate(0) translate(4 145)">
<title>netcdf4_support::nf_get_variable_vector_double</title>
<polygon fill="white" stroke="none" points="-4,4 -4,-145 809.593,-145 809.593,4 -4,4"/>
<!-- Node1 -->
<g id="node1" class="node"><title>Node1</title>
<polygon fill="#bfbfbf" stroke="black" points="0,-53 0,-94 118.121,-94 118.121,-53 0,-53"/>
<text text-anchor="start" x="8" y="-81.2" font-family="Helvetica,sans-Serif" font-size="11.00">netcdf4_support::nf</text>
<text text-anchor="start" x="8" y="-70.2" font-family="Helvetica,sans-Serif" font-size="11.00">_get_variable_vector</text>
<text text-anchor="middle" x="59.0603" y="-59.2" font-family="Helvetica,sans-Serif" font-size="11.00">_double</text>
</g>
<!-- Node2 -->
<g id="node2" class="node"><title>Node2</title>
<g id="a_node2"><a xlink:href="namespacenetcdf4__support.html#a3f9a545cd24a2c66040977e333152f3e" target="_top" xlink:title="netcdf4_support::nf\l_get_first_and_last">
<polygon fill="white" stroke="black" points="154.121,-9.5 154.121,-39.5 264.297,-39.5 264.297,-9.5 154.121,-9.5"/>
<text text-anchor="start" x="162.121" y="-26.7" font-family="Helvetica,sans-Serif" font-size="11.00">netcdf4_support::nf</text>
<text text-anchor="middle" x="209.209" y="-15.7" font-family="Helvetica,sans-Serif" font-size="11.00">_get_first_and_last</text>
</a>
</g>
</g>
<!-- Node1&#45;&gt;Node2 -->
<g id="edge1" class="edge"><title>Node1&#45;&gt;Node2</title>
<path fill="none" stroke="midnightblue" d="M127.971,-51.0388C139.706,-47.1571 151.65,-43.2068 162.612,-39.5811"/>
<polygon fill="midnightblue" stroke="midnightblue" points="126.582,-47.8113 118.187,-54.2745 128.781,-54.4572 126.582,-47.8113"/>
</g>
<!-- Node9 -->
<g id="node9" class="node"><title>Node9</title>
<g id="a_node9"><a xlink:href="namespacenetcdf4__support.html#aad34f129a575be1774b4b709d5efba6c" target="_top" xlink:title="netcdf4_support::nf\l_get_time_vals">
<polygon fill="white" stroke="black" points="154.121,-58.5 154.121,-88.5 264.297,-88.5 264.297,-58.5 154.121,-58.5"/>
<text text-anchor="start" x="162.121" y="-75.7" font-family="Helvetica,sans-Serif" font-size="11.00">netcdf4_support::nf</text>
<text text-anchor="middle" x="209.209" y="-64.7" font-family="Helvetica,sans-Serif" font-size="11.00">_get_time_vals</text>
</a>
</g>
</g>
<!-- Node1&#45;&gt;Node9 -->
<g id="edge11" class="edge"><title>Node1&#45;&gt;Node9</title>
<path fill="none" stroke="midnightblue" d="M128.28,-73.5C136.944,-73.5 145.716,-73.5 154.116,-73.5"/>
<polygon fill="midnightblue" stroke="midnightblue" points="128.187,-70.0001 118.187,-73.5 128.187,-77.0001 128.187,-70.0001"/>
</g>
<!-- Node10 -->
<g id="node10" class="node"><title>Node10</title>
<g id="a_node10"><a xlink:href="namespacenetcdf4__support.html#a64c75b9bc2ca7a214b8ce3c6181b614d" target="_top" xlink:title="netcdf4_support::nf\l_get_x_and_y">
<polygon fill="white" stroke="black" points="154.121,-107.5 154.121,-137.5 264.297,-137.5 264.297,-107.5 154.121,-107.5"/>
<text text-anchor="start" x="162.121" y="-124.7" font-family="Helvetica,sans-Serif" font-size="11.00">netcdf4_support::nf</text>
<text text-anchor="middle" x="209.209" y="-113.7" font-family="Helvetica,sans-Serif" font-size="11.00">_get_x_and_y</text>
</a>
</g>
</g>
<!-- Node1&#45;&gt;Node10 -->
<g id="edge15" class="edge"><title>Node1&#45;&gt;Node10</title>
<path fill="none" stroke="midnightblue" d="M127.971,-95.9612C139.706,-99.8429 151.65,-103.793 162.612,-107.419"/>
<polygon fill="midnightblue" stroke="midnightblue" points="128.781,-92.5428 118.187,-92.7255 126.582,-99.1887 128.781,-92.5428"/>
</g>
<!-- Node3 -->
<g id="node3" class="node"><title>Node3</title>
<g id="a_node3"><a xlink:href="namespacenetcdf4__support.html#a8be734b602e654816c17b5e27d0fbffb" target="_top" xlink:title="netcdf4_support::netcdf\l_open_and_prepare_for\l_merging">
<polygon fill="white" stroke="black" points="314.673,-50 314.673,-91 448.719,-91 448.719,-50 314.673,-50"/>
<text text-anchor="start" x="322.673" y="-78.2" font-family="Helvetica,sans-Serif" font-size="11.00">netcdf4_support::netcdf</text>
<text text-anchor="start" x="322.673" y="-67.2" font-family="Helvetica,sans-Serif" font-size="11.00">_open_and_prepare_for</text>
<text text-anchor="middle" x="381.696" y="-56.2" font-family="Helvetica,sans-Serif" font-size="11.00">_merging</text>
</a>
</g>
</g>
<!-- Node2&#45;&gt;Node3 -->
<g id="edge2" class="edge"><title>Node2&#45;&gt;Node3</title>
<path fill="none" stroke="midnightblue" d="M274.482,-41.8419C287.587,-45.3778 301.397,-49.1039 314.565,-52.6568"/>
<polygon fill="midnightblue" stroke="midnightblue" points="275.187,-38.4071 264.621,-39.1812 273.364,-45.1654 275.187,-38.4071"/>
</g>
<!-- Node4 -->
<g id="node4" class="node"><title>Node4</title>
<g id="a_node4"><a xlink:href="namespacenetcdf4__support.html#a137d06ed171ec8d77e5af2fbb44b0c4c" target="_top" xlink:title="netcdf4_support::netcdf\l_open_and_prepare_as_input">
<polygon fill="white" stroke="black" points="300.297,-110.5 300.297,-140.5 463.095,-140.5 463.095,-110.5 300.297,-110.5"/>
<text text-anchor="start" x="308.297" y="-127.7" font-family="Helvetica,sans-Serif" font-size="11.00">netcdf4_support::netcdf</text>
<text text-anchor="middle" x="381.696" y="-116.7" font-family="Helvetica,sans-Serif" font-size="11.00">_open_and_prepare_as_input</text>
</a>
</g>
</g>
<!-- Node2&#45;&gt;Node4 -->
<g id="edge3" class="edge"><title>Node2&#45;&gt;Node4</title>
<path fill="none" stroke="midnightblue" d="M259.549,-44.9003C261.195,-46.0476 262.784,-47.2472 264.297,-48.5 285.951,-66.4236 277.64,-83.8634 300.297,-100.5 305.599,-104.393 311.522,-107.69 317.682,-110.48"/>
<polygon fill="midnightblue" stroke="midnightblue" points="261.297,-41.866 250.948,-39.595 257.622,-47.8238 261.297,-41.866"/>
</g>
<!-- Node8 -->
<g id="node8" class="node"><title>Node8</title>
<g id="a_node8"><a xlink:href="namespacenetcdf4__support.html#a7b3b3cf3aab614eb336e12694c5d76ef" target="_top" xlink:title="netcdf4_support::netcdf\l_open_file">
<polygon fill="white" stroke="black" points="316.212,-0.5 316.212,-30.5 447.18,-30.5 447.18,-0.5 316.212,-0.5"/>
<text text-anchor="start" x="324.212" y="-17.7" font-family="Helvetica,sans-Serif" font-size="11.00">netcdf4_support::netcdf</text>
<text text-anchor="middle" x="381.696" y="-6.7" font-family="Helvetica,sans-Serif" font-size="11.00">_open_file</text>
</a>
</g>
</g>
<!-- Node2&#45;&gt;Node8 -->
<g id="edge8" class="edge"><title>Node2&#45;&gt;Node8</title>
<path fill="none" stroke="midnightblue" d="M274.79,-21.0908C288.308,-20.3772 302.564,-19.6246 316.083,-18.9109"/>
<polygon fill="midnightblue" stroke="midnightblue" points="274.422,-17.6052 264.621,-21.6276 274.792,-24.5955 274.422,-17.6052"/>
</g>
<!-- Node5 -->
<g id="node5" class="node"><title>Node5</title>
<g id="a_node5"><a xlink:href="namespacedata__catalog__entry.html#aeb285131f87ed64deba0a9041a9c6405" target="_top" xlink:title="data_catalog_entry\l::getvalues_dynamic\l_netcdf_sub">
<polygon fill="white" stroke="black" points="521.42,-77 521.42,-118 637.698,-118 637.698,-77 521.42,-77"/>
<text text-anchor="start" x="529.42" y="-105.2" font-family="Helvetica,sans-Serif" font-size="11.00">data_catalog_entry</text>
<text text-anchor="start" x="529.42" y="-94.2" font-family="Helvetica,sans-Serif" font-size="11.00">::getvalues_dynamic</text>
<text text-anchor="middle" x="579.559" y="-83.2" font-family="Helvetica,sans-Serif" font-size="11.00">_netcdf_sub</text>
</a>
</g>
</g>
<!-- Node4&#45;&gt;Node5 -->
<g id="edge4" class="edge"><title>Node4&#45;&gt;Node5</title>
<path fill="none" stroke="midnightblue" d="M473.342,-112.542C489.699,-110.203 506.328,-107.826 521.391,-105.672"/>
<polygon fill="midnightblue" stroke="midnightblue" points="472.613,-109.11 463.209,-113.99 473.604,-116.04 472.613,-109.11"/>
</g>
<!-- Node7 -->
<g id="node7" class="node"><title>Node7</title>
<g id="a_node7"><a xlink:href="namespacedata__catalog__entry.html#ac3e1f0d9d9e146fbb77c0084e1e9fc14" target="_top" xlink:title="data_catalog_entry\l::getvalues_static_netcdf_sub">
<polygon fill="white" stroke="black" points="499.095,-27.5 499.095,-57.5 660.023,-57.5 660.023,-27.5 499.095,-27.5"/>
<text text-anchor="start" x="507.095" y="-44.7" font-family="Helvetica,sans-Serif" font-size="11.00">data_catalog_entry</text>
<text text-anchor="middle" x="579.559" y="-33.7" font-family="Helvetica,sans-Serif" font-size="11.00">::getvalues_static_netcdf_sub</text>
</a>
</g>
</g>
<!-- Node4&#45;&gt;Node7 -->
<g id="edge6" class="edge"><title>Node4&#45;&gt;Node7</title>
<path fill="none" stroke="midnightblue" d="M451.461,-106.42C455.479,-104.601 459.388,-102.631 463.095,-100.5 481.912,-89.683 480.295,-78.3483 499.095,-67.5 505.734,-63.6689 513.03,-60.3526 520.426,-57.5021"/>
<polygon fill="midnightblue" stroke="midnightblue" points="449.819,-103.312 441.937,-110.392 452.514,-109.773 449.819,-103.312"/>
</g>
<!-- Node6 -->
<g id="node6" class="node"><title>Node6</title>
<g id="a_node6"><a xlink:href="namespacedata__catalog__entry.html#a9e0a89ab19a5bfd61f2dfb8265648234" target="_top" xlink:title="data_catalog_entry\l::getvalues_sub">
<polygon fill="white" stroke="black" points="696.023,-54.5 696.023,-84.5 805.593,-84.5 805.593,-54.5 696.023,-54.5"/>
<text text-anchor="start" x="704.023" y="-71.7" font-family="Helvetica,sans-Serif" font-size="11.00">data_catalog_entry</text>
<text text-anchor="middle" x="750.808" y="-60.7" font-family="Helvetica,sans-Serif" font-size="11.00">::getvalues_sub</text>
</a>
</g>
</g>
<!-- Node5&#45;&gt;Node6 -->
<g id="edge5" class="edge"><title>Node5&#45;&gt;Node6</title>
<path fill="none" stroke="midnightblue" d="M648.161,-86.3161C664.06,-83.6858 680.795,-80.9172 695.995,-78.4027"/>
<polygon fill="midnightblue" stroke="midnightblue" points="647.153,-82.9351 637.859,-88.0205 648.296,-89.8413 647.153,-82.9351"/>
</g>
<!-- Node7&#45;&gt;Node6 -->
<g id="edge7" class="edge"><title>Node7&#45;&gt;Node6</title>
<path fill="none" stroke="midnightblue" d="M670.365,-56.8267C678.991,-58.2028 687.546,-59.5674 695.667,-60.8631"/>
<polygon fill="midnightblue" stroke="midnightblue" points="670.654,-53.3285 660.227,-55.2094 669.551,-60.2411 670.654,-53.3285"/>
</g>
<!-- Node8&#45;&gt;Node5 -->
<g id="edge9" class="edge"><title>Node8&#45;&gt;Node5</title>
<path fill="none" stroke="midnightblue" d="M448.878,-34.1571C453.764,-36.116 458.553,-38.2302 463.095,-40.5 480.749,-49.3235 481.762,-57.06 499.095,-66.5 506.117,-70.3248 513.713,-73.9153 521.327,-77.2002"/>
<polygon fill="midnightblue" stroke="midnightblue" points="449.993,-30.8373 439.402,-30.5813 447.522,-37.3865 449.993,-30.8373"/>
</g>
<!-- Node8&#45;&gt;Node7 -->
<g id="edge10" class="edge"><title>Node8&#45;&gt;Node7</title>
<path fill="none" stroke="midnightblue" d="M457.579,-25.8228C471.11,-27.6881 485.264,-29.6391 498.925,-31.5223"/>
<polygon fill="midnightblue" stroke="midnightblue" points="457.756,-22.3141 447.372,-24.4156 456.8,-29.2485 457.756,-22.3141"/>
</g>
<!-- Node9&#45;&gt;Node3 -->
<g id="edge13" class="edge"><title>Node9&#45;&gt;Node3</title>
<path fill="none" stroke="midnightblue" d="M274.868,-72.3622C287.858,-72.1336 301.526,-71.8931 314.565,-71.6637"/>
<polygon fill="midnightblue" stroke="midnightblue" points="274.558,-68.867 264.621,-72.5425 274.681,-75.866 274.558,-68.867"/>
</g>
<!-- Node9&#45;&gt;Node4 -->
<g id="edge12" class="edge"><title>Node9&#45;&gt;Node4</title>
<path fill="none" stroke="midnightblue" d="M269.285,-91.5188C289.581,-97.7092 312.069,-104.568 331.495,-110.493"/>
<polygon fill="midnightblue" stroke="midnightblue" points="270.107,-88.1103 259.521,-88.5406 268.065,-94.8058 270.107,-88.1103"/>
</g>
<!-- Node9&#45;&gt;Node8 -->
<g id="edge14" class="edge"><title>Node9&#45;&gt;Node8</title>
<path fill="none" stroke="midnightblue" d="M259.385,-54.9856C272.622,-50.1392 286.966,-45.0111 300.297,-40.5 310.128,-37.1733 320.69,-33.7689 330.821,-30.5858"/>
<polygon fill="midnightblue" stroke="midnightblue" points="258.146,-51.7118 249.972,-58.4519 260.565,-58.2805 258.146,-51.7118"/>
</g>
<!-- Node10&#45;&gt;Node3 -->
<g id="edge17" class="edge"><title>Node10&#45;&gt;Node3</title>
<path fill="none" stroke="midnightblue" d="M269.372,-104.455C283.893,-100.026 299.532,-95.2558 314.366,-90.7313"/>
<polygon fill="midnightblue" stroke="midnightblue" points="268.065,-101.194 259.521,-107.459 270.107,-107.89 268.065,-101.194"/>
</g>
<!-- Node10&#45;&gt;Node4 -->
<g id="edge16" class="edge"><title>Node10&#45;&gt;Node4</title>
<path fill="none" stroke="midnightblue" d="M274.885,-123.638C283.122,-123.783 291.633,-123.933 300.082,-124.081"/>
<polygon fill="midnightblue" stroke="midnightblue" points="274.681,-120.134 264.621,-123.457 274.558,-127.133 274.681,-120.134"/>
</g>
</g>
</svg>
