<?xml version="1.0" encoding="UTF-8" standalone="no"?>
<!DOCTYPE svg PUBLIC "-//W3C//DTD SVG 1.1//EN"
 "http://www.w3.org/Graphics/SVG/1.1/DTD/svg11.dtd">
<!-- Generated by graphviz version 2.38.0 (20140413.2041)
 -->
<!-- Title: datetime::get_day_of_year_fn Pages: 1 -->
<svg width="462pt" height="66pt"
 viewBox="0.00 0.00 461.89 66.00" xmlns="http://www.w3.org/2000/svg" xmlns:xlink="http://www.w3.org/1999/xlink">
<g id="graph0" class="graph" transform="scale(1 1) rotate(0) translate(4 62)">
<title>datetime::get_day_of_year_fn</title>
<polygon fill="white" stroke="none" points="-4,4 -4,-62 457.889,-62 457.889,4 -4,4"/>
<!-- Node1 -->
<g id="node1" class="node"><title>Node1</title>
<polygon fill="#bfbfbf" stroke="black" points="0,-14 0,-44 118.738,-44 118.738,-14 0,-14"/>
<text text-anchor="start" x="8" y="-31.2" font-family="Helvetica,sans-Serif" font-size="11.00">datetime::get_day_of</text>
<text text-anchor="middle" x="59.3691" y="-20.2" font-family="Helvetica,sans-Serif" font-size="11.00">_year_fn</text>
</g>
<!-- Node2 -->
<g id="node2" class="node"><title>Node2</title>
<g id="a_node2"><a xlink:href="namespacedatetime.html#a9575f695885d806cc658b68cbdb75a70" target="_top" xlink:title="datetime::day_of_year">
<polygon fill="white" stroke="black" points="154.738,-19.5 154.738,-38.5 279.583,-38.5 279.583,-19.5 154.738,-19.5"/>
<text text-anchor="middle" x="217.161" y="-25.7" font-family="Helvetica,sans-Serif" font-size="11.00">datetime::day_of_year</text>
</a>
</g>
</g>
<!-- Node1&#45;&gt;Node2 -->
<g id="edge1" class="edge"><title>Node1&#45;&gt;Node2</title>
<path fill="none" stroke="midnightblue" d="M118.823,-29C127.201,-29 135.9,-29 144.496,-29"/>
<polygon fill="midnightblue" stroke="midnightblue" points="144.515,-32.5001 154.515,-29 144.515,-25.5001 144.515,-32.5001"/>
</g>
<!-- Node3 -->
<g id="node3" class="node"><title>Node3</title>
<g id="a_node3"><a xlink:href="namespacedatetime.html#a9d8dbfe179e1cc628e1b7ccec684e13a" target="_top" xlink:title="datetime::gregorian_date">
<polygon fill="white" stroke="black" points="315.583,-38.5 315.583,-57.5 453.889,-57.5 453.889,-38.5 315.583,-38.5"/>
<text text-anchor="middle" x="384.736" y="-44.7" font-family="Helvetica,sans-Serif" font-size="11.00">datetime::gregorian_date</text>
</a>
</g>
</g>
<!-- Node2&#45;&gt;Node3 -->
<g id="edge2" class="edge"><title>Node2&#45;&gt;Node3</title>
<path fill="none" stroke="midnightblue" d="M279.815,-36.0749C288.142,-37.0304 296.774,-38.021 305.343,-39.0043"/>
<polygon fill="midnightblue" stroke="midnightblue" points="305.018,-42.4899 315.352,-40.1528 305.816,-35.5355 305.018,-42.4899"/>
</g>
<!-- Node4 -->
<g id="node4" class="node"><title>Node4</title>
<g id="a_node4"><a xlink:href="namespacedatetime.html#a9ac1a0a808a83a072ebc08cf0b3b4d8a" target="_top" xlink:title="datetime::julian_day">
<polygon fill="white" stroke="black" points="327.816,-0.5 327.816,-19.5 441.656,-19.5 441.656,-0.5 327.816,-0.5"/>
<text text-anchor="middle" x="384.736" y="-6.7" font-family="Helvetica,sans-Serif" font-size="11.00">datetime::julian_day</text>
</a>
</g>
</g>
<!-- Node2&#45;&gt;Node4 -->
<g id="edge3" class="edge"><title>Node2&#45;&gt;Node4</title>
<path fill="none" stroke="midnightblue" d="M279.815,-21.9251C292.098,-20.5156 305.046,-19.0297 317.477,-17.6034"/>
<polygon fill="midnightblue" stroke="midnightblue" points="318.234,-21.0395 327.77,-16.4222 317.436,-14.0851 318.234,-21.0395"/>
</g>
</g>
</svg>
