<?xml version="1.0" encoding="UTF-8" standalone="no"?>
<!DOCTYPE svg PUBLIC "-//W3C//DTD SVG 1.1//EN"
 "http://www.w3.org/Graphics/SVG/1.1/DTD/svg11.dtd">
<!-- Generated by graphviz version 2.38.0 (20140413.2041)
 -->
<!-- Title: file_operations::open_file_read_access_sub Pages: 1 -->
<svg width="286pt" height="78pt"
 viewBox="0.00 0.00 285.74 77.50" xmlns="http://www.w3.org/2000/svg" xmlns:xlink="http://www.w3.org/1999/xlink">
<g id="graph0" class="graph" transform="scale(1 1) rotate(0) translate(4 73.5)">
<title>file_operations::open_file_read_access_sub</title>
<polygon fill="white" stroke="none" points="-4,4 -4,-73.5 281.741,-73.5 281.741,4 -4,4"/>
<!-- Node1 -->
<g id="node1" class="node"><title>Node1</title>
<polygon fill="#bfbfbf" stroke="black" points="0,-22.5 0,-52.5 128.519,-52.5 128.519,-22.5 0,-22.5"/>
<text text-anchor="start" x="8" y="-39.7" font-family="Helvetica,sans-Serif" font-size="11.00">file_operations::open</text>
<text text-anchor="middle" x="64.2595" y="-28.7" font-family="Helvetica,sans-Serif" font-size="11.00">_file_read_access_sub</text>
</g>
<!-- Node2 -->
<g id="node2" class="node"><title>Node2</title>
<g id="a_node2"><a xlink:href="namespaceexceptions.html#a22a1bf2808fdc249e6b378ee3f221156" target="_top" xlink:title="exceptions::die">
<polygon fill="white" stroke="black" points="176.44,-50 176.44,-69 265.82,-69 265.82,-50 176.44,-50"/>
<text text-anchor="middle" x="221.13" y="-56.2" font-family="Helvetica,sans-Serif" font-size="11.00">exceptions::die</text>
</a>
</g>
</g>
<!-- Node1&#45;&gt;Node2 -->
<g id="edge1" class="edge"><title>Node1&#45;&gt;Node2</title>
<path fill="none" stroke="midnightblue" d="M128.698,-46.5117C141.228,-48.2917 154.264,-50.1435 166.434,-51.8723"/>
<polygon fill="midnightblue" stroke="midnightblue" points="166.03,-55.3499 176.423,-53.2912 167.015,-48.4195 166.03,-55.3499"/>
</g>
<!-- Node3 -->
<g id="node3" class="node"><title>Node3</title>
<g id="a_node3"><a xlink:href="namespacefile__operations.html#a70a2b74bf72f0296e7751d4a94242a9f" target="_top" xlink:title="file_operations::fully\l_qualified_filename">
<polygon fill="white" stroke="black" points="164.519,-0.5 164.519,-30.5 277.741,-30.5 277.741,-0.5 164.519,-0.5"/>
<text text-anchor="start" x="172.519" y="-17.7" font-family="Helvetica,sans-Serif" font-size="11.00">file_operations::fully</text>
<text text-anchor="middle" x="221.13" y="-6.7" font-family="Helvetica,sans-Serif" font-size="11.00">_qualified_filename</text>
</a>
</g>
</g>
<!-- Node1&#45;&gt;Node3 -->
<g id="edge2" class="edge"><title>Node1&#45;&gt;Node3</title>
<path fill="none" stroke="midnightblue" d="M128.698,-28.4883C137.224,-27.2772 145.984,-26.0328 154.546,-24.8165"/>
<polygon fill="midnightblue" stroke="midnightblue" points="155.071,-28.2771 164.48,-23.4054 154.087,-21.3467 155.071,-28.2771"/>
</g>
</g>
</svg>
