<?xml version="1.0" encoding="UTF-8" standalone="no"?>
<!DOCTYPE svg PUBLIC "-//W3C//DTD SVG 1.1//EN"
 "http://www.w3.org/Graphics/SVG/1.1/DTD/svg11.dtd">
<!-- Generated by graphviz version 2.38.0 (20140413.2041)
 -->
<!-- Title: routing__d8::routing_d8_assign_downstream_row_col Pages: 1 -->
<svg width="644pt" height="50pt"
 viewBox="0.00 0.00 644.13 50.00" xmlns="http://www.w3.org/2000/svg" xmlns:xlink="http://www.w3.org/1999/xlink">
<g id="graph0" class="graph" transform="scale(1 1) rotate(0) translate(4 46)">
<title>routing__d8::routing_d8_assign_downstream_row_col</title>
<polygon fill="white" stroke="none" points="-4,4 -4,-46 640.127,-46 640.127,4 -4,4"/>
<!-- Node1 -->
<g id="node1" class="node"><title>Node1</title>
<polygon fill="#bfbfbf" stroke="black" points="0,-0.5 0,-41.5 138.3,-41.5 138.3,-0.5 0,-0.5"/>
<text text-anchor="start" x="8" y="-28.7" font-family="Helvetica,sans-Serif" font-size="11.00">routing__d8::routing</text>
<text text-anchor="start" x="8" y="-17.7" font-family="Helvetica,sans-Serif" font-size="11.00">_d8_assign_downstream</text>
<text text-anchor="middle" x="69.1499" y="-6.7" font-family="Helvetica,sans-Serif" font-size="11.00">_row_col</text>
</g>
<!-- Node2 -->
<g id="node2" class="node"><title>Node2</title>
<g id="a_node2"><a xlink:href="namespacerouting____d8.html#a0008fcb9bc5678e484885bc650fae726" target="_top" xlink:title="routing__d8::routing\l_d8_initialize">
<polygon fill="white" stroke="black" points="174.3,-6 174.3,-36 288.15,-36 288.15,-6 174.3,-6"/>
<text text-anchor="start" x="182.3" y="-23.2" font-family="Helvetica,sans-Serif" font-size="11.00">routing__d8::routing</text>
<text text-anchor="middle" x="231.225" y="-12.2" font-family="Helvetica,sans-Serif" font-size="11.00">_d8_initialize</text>
</a>
</g>
</g>
<!-- Node1&#45;&gt;Node2 -->
<g id="edge1" class="edge"><title>Node1&#45;&gt;Node2</title>
<path fill="none" stroke="midnightblue" d="M148.598,-21C157.229,-21 165.886,-21 174.165,-21"/>
<polygon fill="midnightblue" stroke="midnightblue" points="148.501,-17.5001 138.501,-21 148.5,-24.5001 148.501,-17.5001"/>
</g>
<!-- Node3 -->
<g id="node3" class="node"><title>Node3</title>
<g id="a_node3"><a xlink:href="namespacemodel__domain.html#a18aeded59e98fc5ba71f5b4d6b53d732" target="_top" xlink:title="model_domain::model\l_initialize_routing_d8">
<polygon fill="white" stroke="black" points="324.15,-6 324.15,-36 448.378,-36 448.378,-6 324.15,-6"/>
<text text-anchor="start" x="332.15" y="-23.2" font-family="Helvetica,sans-Serif" font-size="11.00">model_domain::model</text>
<text text-anchor="middle" x="386.264" y="-12.2" font-family="Helvetica,sans-Serif" font-size="11.00">_initialize_routing_d8</text>
</a>
</g>
</g>
<!-- Node2&#45;&gt;Node3 -->
<g id="edge2" class="edge"><title>Node2&#45;&gt;Node3</title>
<path fill="none" stroke="midnightblue" d="M298.544,-21C307,-21 315.624,-21 323.995,-21"/>
<polygon fill="midnightblue" stroke="midnightblue" points="298.342,-17.5001 288.342,-21 298.342,-24.5001 298.342,-17.5001"/>
</g>
<!-- Node4 -->
<g id="node4" class="node"><title>Node4</title>
<g id="a_node4"><a xlink:href="namespacemodel__domain.html#aac78dbf26ba37cf86ebed4edd7acf89b" target="_top" xlink:title="model_domain::set_method\l_pointers_sub">
<polygon fill="white" stroke="black" points="484.378,-6 484.378,-36 636.127,-36 636.127,-6 484.378,-6"/>
<text text-anchor="start" x="492.378" y="-23.2" font-family="Helvetica,sans-Serif" font-size="11.00">model_domain::set_method</text>
<text text-anchor="middle" x="560.252" y="-12.2" font-family="Helvetica,sans-Serif" font-size="11.00">_pointers_sub</text>
</a>
</g>
</g>
<!-- Node3&#45;&gt;Node4 -->
<g id="edge3" class="edge"><title>Node3&#45;&gt;Node4</title>
<path fill="none" stroke="midnightblue" d="M458.575,-21C467.027,-21 475.673,-21 484.176,-21"/>
<polygon fill="midnightblue" stroke="midnightblue" points="458.385,-17.5001 448.385,-21 458.385,-24.5001 458.385,-17.5001"/>
</g>
</g>
</svg>
