<?xml version="1.0" encoding="UTF-8" standalone="no"?>
<!DOCTYPE svg PUBLIC "-//W3C//DTD SVG 1.1//EN"
 "http://www.w3.org/Graphics/SVG/1.1/DTD/svg11.dtd">
<!-- Generated by graphviz version 2.38.0 (20140413.2041)
 -->
<!-- Title: actual_et__fao56::initialize_actual_et_fao56 Pages: 1 -->
<svg width="523pt" height="39pt"
 viewBox="0.00 0.00 523.05 39.00" xmlns="http://www.w3.org/2000/svg" xmlns:xlink="http://www.w3.org/1999/xlink">
<g id="graph0" class="graph" transform="scale(1 1) rotate(0) translate(4 35)">
<title>actual_et__fao56::initialize_actual_et_fao56</title>
<polygon fill="white" stroke="none" points="-4,4 -4,-35 519.049,-35 519.049,4 -4,4"/>
<!-- Node1 -->
<g id="node1" class="node"><title>Node1</title>
<polygon fill="#bfbfbf" stroke="black" points="0,-0.5 0,-30.5 145.647,-30.5 145.647,-0.5 0,-0.5"/>
<text text-anchor="start" x="8" y="-17.7" font-family="Helvetica,sans-Serif" font-size="11.00">actual_et__fao56::initialize</text>
<text text-anchor="middle" x="72.8237" y="-6.7" font-family="Helvetica,sans-Serif" font-size="11.00">_actual_et_fao56</text>
</g>
<!-- Node2 -->
<g id="node2" class="node"><title>Node2</title>
<g id="a_node2"><a xlink:href="namespacemodel__domain.html#a6cb15cb5aa631989320cf03e19ced4a5" target="_top" xlink:title="model_domain::model\l_initialize_actual_et_fao56">
<polygon fill="white" stroke="black" points="181.647,-0.5 181.647,-30.5 327.3,-30.5 327.3,-0.5 181.647,-0.5"/>
<text text-anchor="start" x="189.647" y="-17.7" font-family="Helvetica,sans-Serif" font-size="11.00">model_domain::model</text>
<text text-anchor="middle" x="254.474" y="-6.7" font-family="Helvetica,sans-Serif" font-size="11.00">_initialize_actual_et_fao56</text>
</a>
</g>
</g>
<!-- Node1&#45;&gt;Node2 -->
<g id="edge1" class="edge"><title>Node1&#45;&gt;Node2</title>
<path fill="none" stroke="midnightblue" d="M156.103,-15.5C164.553,-15.5 173.094,-15.5 181.422,-15.5"/>
<polygon fill="midnightblue" stroke="midnightblue" points="155.859,-12.0001 145.859,-15.5 155.859,-19.0001 155.859,-12.0001"/>
</g>
<!-- Node3 -->
<g id="node3" class="node"><title>Node3</title>
<g id="a_node3"><a xlink:href="namespacemodel__domain.html#aac78dbf26ba37cf86ebed4edd7acf89b" target="_top" xlink:title="model_domain::set_method\l_pointers_sub">
<polygon fill="white" stroke="black" points="363.3,-0.5 363.3,-30.5 515.049,-30.5 515.049,-0.5 363.3,-0.5"/>
<text text-anchor="start" x="371.3" y="-17.7" font-family="Helvetica,sans-Serif" font-size="11.00">model_domain::set_method</text>
<text text-anchor="middle" x="439.175" y="-6.7" font-family="Helvetica,sans-Serif" font-size="11.00">_pointers_sub</text>
</a>
</g>
</g>
<!-- Node2&#45;&gt;Node3 -->
<g id="edge2" class="edge"><title>Node2&#45;&gt;Node3</title>
<path fill="none" stroke="midnightblue" d="M337.45,-15.5C346.055,-15.5 354.771,-15.5 363.29,-15.5"/>
<polygon fill="midnightblue" stroke="midnightblue" points="337.42,-12.0001 327.42,-15.5 337.42,-19.0001 337.42,-12.0001"/>
</g>
</g>
</svg>
