<?xml version="1.0" encoding="UTF-8" standalone="no"?>
<!DOCTYPE svg PUBLIC "-//W3C//DTD SVG 1.1//EN"
 "http://www.w3.org/Graphics/SVG/1.1/DTD/svg11.dtd">
<!-- Generated by graphviz version 2.38.0 (20140413.2041)
 -->
<!-- Title: routing__d8::routing_d8_get_index Pages: 1 -->
<svg width="821pt" height="39pt"
 viewBox="0.00 0.00 820.89 39.00" xmlns="http://www.w3.org/2000/svg" xmlns:xlink="http://www.w3.org/1999/xlink">
<g id="graph0" class="graph" transform="scale(1 1) rotate(0) translate(4 35)">
<title>routing__d8::routing_d8_get_index</title>
<polygon fill="white" stroke="none" points="-4,4 -4,-35 816.892,-35 816.892,4 -4,4"/>
<!-- Node11 -->
<g id="node1" class="node"><title>Node11</title>
<polygon fill="#bfbfbf" stroke="black" points="0,-0.5 0,-30.5 113.851,-30.5 113.851,-0.5 0,-0.5"/>
<text text-anchor="start" x="8" y="-17.7" font-family="Helvetica,sans-Serif" font-size="11.00">routing__d8::routing</text>
<text text-anchor="middle" x="56.9253" y="-6.7" font-family="Helvetica,sans-Serif" font-size="11.00">_d8_get_index</text>
</g>
<!-- Node12 -->
<g id="node2" class="node"><title>Node12</title>
<g id="a_node2"><a xlink:href="namespacerouting____d8.html#ae2756c01d52d156a1b6c7ce48ca1e941" target="_top" xlink:title="routing__d8::routing\l_d8_determine_solution_order">
<polygon fill="white" stroke="black" points="149.851,-0.5 149.851,-30.5 315.065,-30.5 315.065,-0.5 149.851,-0.5"/>
<text text-anchor="start" x="157.851" y="-17.7" font-family="Helvetica,sans-Serif" font-size="11.00">routing__d8::routing</text>
<text text-anchor="middle" x="232.458" y="-6.7" font-family="Helvetica,sans-Serif" font-size="11.00">_d8_determine_solution_order</text>
</a>
</g>
</g>
<!-- Node11&#45;&gt;Node12 -->
<g id="edge1" class="edge"><title>Node11&#45;&gt;Node12</title>
<path fill="none" stroke="midnightblue" d="M124.498,-15.5C132.703,-15.5 141.162,-15.5 149.561,-15.5"/>
<polygon fill="midnightblue" stroke="midnightblue" points="124.266,-12.0001 114.266,-15.5 124.266,-19.0001 124.266,-12.0001"/>
</g>
<!-- Node13 -->
<g id="node3" class="node"><title>Node13</title>
<g id="a_node3"><a xlink:href="namespacerouting____d8.html#a0008fcb9bc5678e484885bc650fae726" target="_top" xlink:title="routing__d8::routing\l_d8_initialize">
<polygon fill="white" stroke="black" points="351.065,-0.5 351.065,-30.5 464.916,-30.5 464.916,-0.5 351.065,-0.5"/>
<text text-anchor="start" x="359.065" y="-17.7" font-family="Helvetica,sans-Serif" font-size="11.00">routing__d8::routing</text>
<text text-anchor="middle" x="407.99" y="-6.7" font-family="Helvetica,sans-Serif" font-size="11.00">_d8_initialize</text>
</a>
</g>
</g>
<!-- Node12&#45;&gt;Node13 -->
<g id="edge2" class="edge"><title>Node12&#45;&gt;Node13</title>
<path fill="none" stroke="midnightblue" d="M325.389,-15.5C334.108,-15.5 342.757,-15.5 350.982,-15.5"/>
<polygon fill="midnightblue" stroke="midnightblue" points="325.143,-12.0001 315.143,-15.5 325.143,-19.0001 325.143,-12.0001"/>
</g>
<!-- Node14 -->
<g id="node4" class="node"><title>Node14</title>
<g id="a_node4"><a xlink:href="namespacemodel__domain.html#a18aeded59e98fc5ba71f5b4d6b53d732" target="_top" xlink:title="model_domain::model\l_initialize_routing_d8">
<polygon fill="white" stroke="black" points="500.916,-0.5 500.916,-30.5 625.143,-30.5 625.143,-0.5 500.916,-0.5"/>
<text text-anchor="start" x="508.916" y="-17.7" font-family="Helvetica,sans-Serif" font-size="11.00">model_domain::model</text>
<text text-anchor="middle" x="563.029" y="-6.7" font-family="Helvetica,sans-Serif" font-size="11.00">_initialize_routing_d8</text>
</a>
</g>
</g>
<!-- Node13&#45;&gt;Node14 -->
<g id="edge3" class="edge"><title>Node13&#45;&gt;Node14</title>
<path fill="none" stroke="midnightblue" d="M475.309,-15.5C483.765,-15.5 492.39,-15.5 500.761,-15.5"/>
<polygon fill="midnightblue" stroke="midnightblue" points="475.107,-12.0001 465.107,-15.5 475.107,-19.0001 475.107,-12.0001"/>
</g>
<!-- Node15 -->
<g id="node5" class="node"><title>Node15</title>
<g id="a_node5"><a xlink:href="namespacemodel__domain.html#aac78dbf26ba37cf86ebed4edd7acf89b" target="_top" xlink:title="model_domain::set_method\l_pointers_sub">
<polygon fill="white" stroke="black" points="661.143,-0.5 661.143,-30.5 812.892,-30.5 812.892,-0.5 661.143,-0.5"/>
<text text-anchor="start" x="669.143" y="-17.7" font-family="Helvetica,sans-Serif" font-size="11.00">model_domain::set_method</text>
<text text-anchor="middle" x="737.018" y="-6.7" font-family="Helvetica,sans-Serif" font-size="11.00">_pointers_sub</text>
</a>
</g>
</g>
<!-- Node14&#45;&gt;Node15 -->
<g id="edge4" class="edge"><title>Node14&#45;&gt;Node15</title>
<path fill="none" stroke="midnightblue" d="M635.34,-15.5C643.792,-15.5 652.439,-15.5 660.941,-15.5"/>
<polygon fill="midnightblue" stroke="midnightblue" points="635.15,-12.0001 625.15,-15.5 635.15,-19.0001 635.15,-12.0001"/>
</g>
</g>
</svg>
