<?xml version="1.0" encoding="UTF-8" standalone="no"?>
<!DOCTYPE svg PUBLIC "-//W3C//DTD SVG 1.1//EN"
 "http://www.w3.org/Graphics/SVG/1.1/DTD/svg11.dtd">
<!-- Generated by graphviz version 2.38.0 (20140413.2041)
 -->
<!-- Title: model_domain::model_calculate_direct_soil_moisture_gridded Pages: 1 -->
<svg width="305pt" height="50pt"
 viewBox="0.00 0.00 304.68 50.00" xmlns="http://www.w3.org/2000/svg" xmlns:xlink="http://www.w3.org/1999/xlink">
<g id="graph0" class="graph" transform="scale(1 1) rotate(0) translate(4 46)">
<title>model_domain::model_calculate_direct_soil_moisture_gridded</title>
<polygon fill="white" stroke="none" points="-4,4 -4,-46 300.68,-46 300.68,4 -4,4"/>
<!-- Node430 -->
<g id="node1" class="node"><title>Node430</title>
<polygon fill="#bfbfbf" stroke="black" points="0,-0.5 0,-41.5 124.228,-41.5 124.228,-0.5 0,-0.5"/>
<text text-anchor="start" x="8" y="-28.7" font-family="Helvetica,sans-Serif" font-size="11.00">model_domain::model</text>
<text text-anchor="start" x="8" y="-17.7" font-family="Helvetica,sans-Serif" font-size="11.00">_calculate_direct_soil</text>
<text text-anchor="middle" x="62.1138" y="-6.7" font-family="Helvetica,sans-Serif" font-size="11.00">_moisture_gridded</text>
</g>
<!-- Node431 -->
<g id="node2" class="node"><title>Node431</title>
<g id="a_node2"><a xlink:href="namespacedirect__soil__moisture____gridded__data.html#a911efed4fc9495831db9589bc3d0b384" target="_top" xlink:title="direct_soil_moisture\l__gridded_data::direct\l_soil_moisture_calculate">
<polygon fill="white" stroke="black" points="160.228,-0.5 160.228,-41.5 296.68,-41.5 296.68,-0.5 160.228,-0.5"/>
<text text-anchor="start" x="168.228" y="-28.7" font-family="Helvetica,sans-Serif" font-size="11.00">direct_soil_moisture</text>
<text text-anchor="start" x="168.228" y="-17.7" font-family="Helvetica,sans-Serif" font-size="11.00">__gridded_data::direct</text>
<text text-anchor="middle" x="228.454" y="-6.7" font-family="Helvetica,sans-Serif" font-size="11.00">_soil_moisture_calculate</text>
</a>
</g>
</g>
<!-- Node430&#45;&gt;Node431 -->
<g id="edge1" class="edge"><title>Node430&#45;&gt;Node431</title>
<path fill="none" stroke="midnightblue" d="M124.308,-21C132.704,-21 141.412,-21 150.051,-21"/>
<polygon fill="midnightblue" stroke="midnightblue" points="150.136,-24.5001 160.136,-21 150.136,-17.5001 150.136,-24.5001"/>
</g>
</g>
</svg>
