<?xml version="1.0" encoding="UTF-8" standalone="no"?>
<!DOCTYPE svg PUBLIC "-//W3C//DTD SVG 1.1//EN"
 "http://www.w3.org/Graphics/SVG/1.1/DTD/svg11.dtd">
<!-- Generated by graphviz version 2.38.0 (20140413.2041)
 -->
<!-- Title: et__hargreaves_samani::et0_hargreaves Pages: 1 -->
<svg width="686pt" height="39pt"
 viewBox="0.00 0.00 685.71 39.00" xmlns="http://www.w3.org/2000/svg" xmlns:xlink="http://www.w3.org/1999/xlink">
<g id="graph0" class="graph" transform="scale(1 1) rotate(0) translate(4 35)">
<title>et__hargreaves_samani::et0_hargreaves</title>
<polygon fill="white" stroke="none" points="-4,4 -4,-35 681.71,-35 681.71,4 -4,4"/>
<!-- Node13 -->
<g id="node1" class="node"><title>Node13</title>
<polygon fill="#bfbfbf" stroke="black" points="0,-0.5 0,-30.5 134.019,-30.5 134.019,-0.5 0,-0.5"/>
<text text-anchor="start" x="8" y="-17.7" font-family="Helvetica,sans-Serif" font-size="11.00">et__hargreaves_samani</text>
<text text-anchor="middle" x="67.0095" y="-6.7" font-family="Helvetica,sans-Serif" font-size="11.00">::et0_hargreaves</text>
</g>
<!-- Node14 -->
<g id="node2" class="node"><title>Node14</title>
<g id="a_node2"><a xlink:href="namespaceet____hargreaves__samani.html#a7e98ab45c36ffcbbd21626348162801c" target="_top" xlink:title="et__hargreaves_samani\l::et_hargreaves_calculate">
<polygon fill="white" stroke="black" points="170.019,-0.5 170.019,-30.5 311.987,-30.5 311.987,-0.5 170.019,-0.5"/>
<text text-anchor="start" x="178.019" y="-17.7" font-family="Helvetica,sans-Serif" font-size="11.00">et__hargreaves_samani</text>
<text text-anchor="middle" x="241.003" y="-6.7" font-family="Helvetica,sans-Serif" font-size="11.00">::et_hargreaves_calculate</text>
</a>
</g>
</g>
<!-- Node13&#45;&gt;Node14 -->
<g id="edge1" class="edge"><title>Node13&#45;&gt;Node14</title>
<path fill="none" stroke="midnightblue" d="M144.693,-15.5C153.112,-15.5 161.65,-15.5 169.982,-15.5"/>
<polygon fill="midnightblue" stroke="midnightblue" points="144.507,-12.0001 134.507,-15.5 144.507,-19.0001 144.507,-12.0001"/>
</g>
<!-- Node15 -->
<g id="node3" class="node"><title>Node15</title>
<g id="a_node3"><a xlink:href="namespacemodel__domain.html#a37864c313f4ed6b63b5e90f4ef3f2e1f" target="_top" xlink:title="model_domain::model\l_calculate_et_hargreaves">
<polygon fill="white" stroke="black" points="347.987,-0.5 347.987,-30.5 489.961,-30.5 489.961,-0.5 347.987,-0.5"/>
<text text-anchor="start" x="355.987" y="-17.7" font-family="Helvetica,sans-Serif" font-size="11.00">model_domain::model</text>
<text text-anchor="middle" x="418.974" y="-6.7" font-family="Helvetica,sans-Serif" font-size="11.00">_calculate_et_hargreaves</text>
</a>
</g>
</g>
<!-- Node14&#45;&gt;Node15 -->
<g id="edge2" class="edge"><title>Node14&#45;&gt;Node15</title>
<path fill="none" stroke="midnightblue" d="M322.091,-15.5C330.694,-15.5 339.4,-15.5 347.874,-15.5"/>
<polygon fill="midnightblue" stroke="midnightblue" points="322.057,-12.0001 312.057,-15.5 322.057,-19.0001 322.057,-12.0001"/>
</g>
<!-- Node16 -->
<g id="node4" class="node"><title>Node16</title>
<g id="a_node4"><a xlink:href="namespacemodel__domain.html#aac78dbf26ba37cf86ebed4edd7acf89b" target="_top" xlink:title="model_domain::set_method\l_pointers_sub">
<polygon fill="white" stroke="black" points="525.961,-0.5 525.961,-30.5 677.71,-30.5 677.71,-0.5 525.961,-0.5"/>
<text text-anchor="start" x="533.961" y="-17.7" font-family="Helvetica,sans-Serif" font-size="11.00">model_domain::set_method</text>
<text text-anchor="middle" x="601.835" y="-6.7" font-family="Helvetica,sans-Serif" font-size="11.00">_pointers_sub</text>
</a>
</g>
</g>
<!-- Node15&#45;&gt;Node16 -->
<g id="edge3" class="edge"><title>Node15&#45;&gt;Node16</title>
<path fill="none" stroke="midnightblue" d="M500.419,-15.5C508.895,-15.5 517.49,-15.5 525.9,-15.5"/>
<polygon fill="midnightblue" stroke="midnightblue" points="500.159,-12.0001 490.159,-15.5 500.159,-19.0001 500.159,-12.0001"/>
</g>
</g>
</svg>
