<?xml version="1.0" encoding="UTF-8" standalone="no"?>
<!DOCTYPE svg PUBLIC "-//W3C//DTD SVG 1.1//EN"
 "http://www.w3.org/Graphics/SVG/1.1/DTD/svg11.dtd">
<!-- Generated by graphviz version 2.38.0 (20140413.2041)
 -->
<!-- Title: data_catalog_entry::getvalues_static_netcdf_sub Pages: 1 -->
<svg width="314pt" height="39pt"
 viewBox="0.00 0.00 314.50 39.00" xmlns="http://www.w3.org/2000/svg" xmlns:xlink="http://www.w3.org/1999/xlink">
<g id="graph0" class="graph" transform="scale(1 1) rotate(0) translate(4 35)">
<title>data_catalog_entry::getvalues_static_netcdf_sub</title>
<polygon fill="white" stroke="none" points="-4,4 -4,-35 310.498,-35 310.498,4 -4,4"/>
<!-- Node232 -->
<g id="node1" class="node"><title>Node232</title>
<polygon fill="#bfbfbf" stroke="black" points="0,-0.5 0,-30.5 160.928,-30.5 160.928,-0.5 0,-0.5"/>
<text text-anchor="start" x="8" y="-17.7" font-family="Helvetica,sans-Serif" font-size="11.00">data_catalog_entry</text>
<text text-anchor="middle" x="80.4641" y="-6.7" font-family="Helvetica,sans-Serif" font-size="11.00">::getvalues_static_netcdf_sub</text>
</g>
<!-- Node233 -->
<g id="node2" class="node"><title>Node233</title>
<g id="a_node2"><a xlink:href="namespacedata__catalog__entry.html#a9e0a89ab19a5bfd61f2dfb8265648234" target="_top" xlink:title="data_catalog_entry\l::getvalues_sub">
<polygon fill="white" stroke="black" points="196.928,-0.5 196.928,-30.5 306.498,-30.5 306.498,-0.5 196.928,-0.5"/>
<text text-anchor="start" x="204.928" y="-17.7" font-family="Helvetica,sans-Serif" font-size="11.00">data_catalog_entry</text>
<text text-anchor="middle" x="251.713" y="-6.7" font-family="Helvetica,sans-Serif" font-size="11.00">::getvalues_sub</text>
</a>
</g>
</g>
<!-- Node232&#45;&gt;Node233 -->
<g id="edge1" class="edge"><title>Node232&#45;&gt;Node233</title>
<path fill="none" stroke="midnightblue" d="M171.271,-15.5C179.897,-15.5 188.451,-15.5 196.573,-15.5"/>
<polygon fill="midnightblue" stroke="midnightblue" points="171.133,-12.0001 161.133,-15.5 171.133,-19.0001 171.133,-12.0001"/>
</g>
</g>
</svg>
