<?xml version="1.0" encoding="UTF-8" standalone="no"?>
<!DOCTYPE svg PUBLIC "-//W3C//DTD SVG 1.1//EN"
 "http://www.w3.org/Graphics/SVG/1.1/DTD/svg11.dtd">
<!-- Generated by graphviz version 2.38.0 (20140413.2041)
 -->
<!-- Title: grid::grid_gridtogrid_sgl Pages: 1 -->
<svg width="285pt" height="50pt"
 viewBox="0.00 0.00 284.52 50.00" xmlns="http://www.w3.org/2000/svg" xmlns:xlink="http://www.w3.org/1999/xlink">
<g id="graph0" class="graph" transform="scale(1 1) rotate(0) translate(4 46)">
<title>grid::grid_gridtogrid_sgl</title>
<polygon fill="white" stroke="none" points="-4,4 -4,-46 280.522,-46 280.522,4 -4,4"/>
<!-- Node237 -->
<g id="node1" class="node"><title>Node237</title>
<polygon fill="#bfbfbf" stroke="black" points="0,-11.5 0,-30.5 130.952,-30.5 130.952,-11.5 0,-11.5"/>
<text text-anchor="middle" x="65.4761" y="-17.7" font-family="Helvetica,sans-Serif" font-size="11.00">grid::grid_gridtogrid_sgl</text>
</g>
<!-- Node238 -->
<g id="node2" class="node"><title>Node238</title>
<g id="a_node2"><a xlink:href="namespacedata__catalog__entry.html#aacf51804adb730b5710c4060576a7948" target="_top" xlink:title="data_catalog_entry\l::transform_grid_to\l_grid_sub">
<polygon fill="white" stroke="black" points="166.952,-0.5 166.952,-41.5 276.522,-41.5 276.522,-0.5 166.952,-0.5"/>
<text text-anchor="start" x="174.952" y="-28.7" font-family="Helvetica,sans-Serif" font-size="11.00">data_catalog_entry</text>
<text text-anchor="start" x="174.952" y="-17.7" font-family="Helvetica,sans-Serif" font-size="11.00">::transform_grid_to</text>
<text text-anchor="middle" x="221.737" y="-6.7" font-family="Helvetica,sans-Serif" font-size="11.00">_grid_sub</text>
</a>
</g>
</g>
<!-- Node237&#45;&gt;Node238 -->
<g id="edge1" class="edge"><title>Node237&#45;&gt;Node238</title>
<path fill="none" stroke="midnightblue" d="M141.105,-21C149.75,-21 158.436,-21 166.73,-21"/>
<polygon fill="midnightblue" stroke="midnightblue" points="141.003,-17.5001 131.003,-21 141.003,-24.5001 141.003,-17.5001"/>
</g>
</g>
</svg>
