<?xml version="1.0" encoding="UTF-8" standalone="no"?>
<!DOCTYPE svg PUBLIC "-//W3C//DTD SVG 1.1//EN"
 "http://www.w3.org/Graphics/SVG/1.1/DTD/svg11.dtd">
<!-- Generated by graphviz version 2.38.0 (20140413.2041)
 -->
<!-- Title: model_initialize::read_landuse_codes Pages: 1 -->
<svg width="285pt" height="66pt"
 viewBox="0.00 0.00 285.10 66.00" xmlns="http://www.w3.org/2000/svg" xmlns:xlink="http://www.w3.org/1999/xlink">
<g id="graph0" class="graph" transform="scale(1 1) rotate(0) translate(4 62)">
<title>model_initialize::read_landuse_codes</title>
<polygon fill="white" stroke="none" points="-4,4 -4,-62 281.097,-62 281.097,4 -4,4"/>
<!-- Node1 -->
<g id="node1" class="node"><title>Node1</title>
<polygon fill="#bfbfbf" stroke="black" points="0,-14 0,-44 119.334,-44 119.334,-14 0,-14"/>
<text text-anchor="start" x="8" y="-31.2" font-family="Helvetica,sans-Serif" font-size="11.00">model_initialize::read</text>
<text text-anchor="middle" x="59.6672" y="-20.2" font-family="Helvetica,sans-Serif" font-size="11.00">_landuse_codes</text>
</g>
<!-- Node2 -->
<g id="node2" class="node"><title>Node2</title>
<g id="a_node2"><a xlink:href="namespacegrid.html#a02803f7fe27d0354d3d16a15bd1338da" target="_top" xlink:title="grid::grid_writearcgrid">
<polygon fill="white" stroke="black" points="155.334,-38.5 155.334,-57.5 277.097,-57.5 277.097,-38.5 155.334,-38.5"/>
<text text-anchor="middle" x="216.216" y="-44.7" font-family="Helvetica,sans-Serif" font-size="11.00">grid::grid_writearcgrid</text>
</a>
</g>
</g>
<!-- Node1&#45;&gt;Node2 -->
<g id="edge1" class="edge"><title>Node1&#45;&gt;Node2</title>
<path fill="none" stroke="midnightblue" d="M119.536,-36.2373C127.936,-37.2699 136.644,-38.3405 145.23,-39.3961"/>
<polygon fill="midnightblue" stroke="midnightblue" points="144.877,-42.8789 155.229,-40.6253 145.731,-35.9312 144.877,-42.8789"/>
</g>
<!-- Node3 -->
<g id="node3" class="node"><title>Node3</title>
<g id="a_node3"><a xlink:href="namespaceexceptions.html#a84dd04476b06e0a398bfe6d106a82a4d" target="_top" xlink:title="exceptions::warn">
<polygon fill="white" stroke="black" points="166.944,-0.5 166.944,-19.5 265.487,-19.5 265.487,-0.5 166.944,-0.5"/>
<text text-anchor="middle" x="216.216" y="-6.7" font-family="Helvetica,sans-Serif" font-size="11.00">exceptions::warn</text>
</a>
</g>
</g>
<!-- Node1&#45;&gt;Node3 -->
<g id="edge2" class="edge"><title>Node1&#45;&gt;Node3</title>
<path fill="none" stroke="midnightblue" d="M119.536,-21.7627C131.665,-20.2716 144.437,-18.7015 156.558,-17.2113"/>
<polygon fill="midnightblue" stroke="midnightblue" points="157.061,-20.6759 166.559,-15.9818 156.207,-13.7282 157.061,-20.6759"/>
</g>
</g>
</svg>
