<?xml version="1.0" encoding="UTF-8" standalone="no"?>
<!DOCTYPE svg PUBLIC "-//W3C//DTD SVG 1.1//EN"
 "http://www.w3.org/Graphics/SVG/1.1/DTD/svg11.dtd">
<!-- Generated by graphviz version 2.38.0 (20140413.2041)
 -->
<!-- Title: netcdf4_support::nf_get_variable_array_as_vector_float Pages: 1 -->
<svg width="804pt" height="100pt"
 viewBox="0.00 0.00 803.77 99.50" xmlns="http://www.w3.org/2000/svg" xmlns:xlink="http://www.w3.org/1999/xlink">
<g id="graph0" class="graph" transform="scale(1 1) rotate(0) translate(4 95.5)">
<title>netcdf4_support::nf_get_variable_array_as_vector_float</title>
<polygon fill="white" stroke="none" points="-4,4 -4,-95.5 799.774,-95.5 799.774,4 -4,4"/>
<!-- Node482 -->
<g id="node1" class="node"><title>Node482</title>
<polygon fill="#bfbfbf" stroke="black" points="0,-22 0,-63 113.228,-63 113.228,-22 0,-22"/>
<text text-anchor="start" x="8" y="-50.2" font-family="Helvetica,sans-Serif" font-size="11.00">netcdf4_support::nf</text>
<text text-anchor="start" x="8" y="-39.2" font-family="Helvetica,sans-Serif" font-size="11.00">_get_variable_array</text>
<text text-anchor="middle" x="56.6138" y="-28.2" font-family="Helvetica,sans-Serif" font-size="11.00">_as_vector_float</text>
</g>
<!-- Node483 -->
<g id="node2" class="node"><title>Node483</title>
<g id="a_node2"><a xlink:href="namespacenetcdf4__support.html#a67ae6168c1f09c755c4e314978ec9ecf" target="_top" xlink:title="netcdf4_support::nf\l_get_variable_slice_float">
<polygon fill="white" stroke="black" points="149.228,-27.5 149.228,-57.5 286.308,-57.5 286.308,-27.5 149.228,-27.5"/>
<text text-anchor="start" x="157.228" y="-44.7" font-family="Helvetica,sans-Serif" font-size="11.00">netcdf4_support::nf</text>
<text text-anchor="middle" x="217.768" y="-33.7" font-family="Helvetica,sans-Serif" font-size="11.00">_get_variable_slice_float</text>
</a>
</g>
</g>
<!-- Node482&#45;&gt;Node483 -->
<g id="edge1" class="edge"><title>Node482&#45;&gt;Node483</title>
<path fill="none" stroke="midnightblue" d="M123.465,-42.5C131.926,-42.5 140.599,-42.5 149.088,-42.5"/>
<polygon fill="midnightblue" stroke="midnightblue" points="123.278,-39.0001 113.278,-42.5 123.278,-46.0001 123.278,-39.0001"/>
</g>
<!-- Node484 -->
<g id="node3" class="node"><title>Node484</title>
<g id="a_node3"><a xlink:href="namespacenetcdf4__support.html#a997d4ec63d37cb56378ab434c9b3075b" target="_top" xlink:title="netcdf4_support::netcdf\l_get_variable_slice">
<polygon fill="white" stroke="black" points="322.308,-27.5 322.308,-57.5 453.276,-57.5 453.276,-27.5 322.308,-27.5"/>
<text text-anchor="start" x="330.308" y="-44.7" font-family="Helvetica,sans-Serif" font-size="11.00">netcdf4_support::netcdf</text>
<text text-anchor="middle" x="387.792" y="-33.7" font-family="Helvetica,sans-Serif" font-size="11.00">_get_variable_slice</text>
</a>
</g>
</g>
<!-- Node483&#45;&gt;Node484 -->
<g id="edge2" class="edge"><title>Node483&#45;&gt;Node484</title>
<path fill="none" stroke="midnightblue" d="M296.901,-42.5C305.376,-42.5 313.932,-42.5 322.221,-42.5"/>
<polygon fill="midnightblue" stroke="midnightblue" points="296.625,-39.0001 286.625,-42.5 296.625,-46.0001 296.625,-39.0001"/>
</g>
<!-- Node485 -->
<g id="node4" class="node"><title>Node485</title>
<g id="a_node4"><a xlink:href="namespacedata__catalog__entry.html#aeb285131f87ed64deba0a9041a9c6405" target="_top" xlink:title="data_catalog_entry\l::getvalues_dynamic\l_netcdf_sub">
<polygon fill="white" stroke="black" points="511.601,-50 511.601,-91 627.88,-91 627.88,-50 511.601,-50"/>
<text text-anchor="start" x="519.601" y="-78.2" font-family="Helvetica,sans-Serif" font-size="11.00">data_catalog_entry</text>
<text text-anchor="start" x="519.601" y="-67.2" font-family="Helvetica,sans-Serif" font-size="11.00">::getvalues_dynamic</text>
<text text-anchor="middle" x="569.74" y="-56.2" font-family="Helvetica,sans-Serif" font-size="11.00">_netcdf_sub</text>
</a>
</g>
</g>
<!-- Node484&#45;&gt;Node485 -->
<g id="edge3" class="edge"><title>Node484&#45;&gt;Node485</title>
<path fill="none" stroke="midnightblue" d="M463.396,-54.1084C479.454,-56.607 496.186,-59.2105 511.462,-61.5874"/>
<polygon fill="midnightblue" stroke="midnightblue" points="463.923,-50.6483 453.503,-52.5691 462.846,-57.5651 463.923,-50.6483"/>
</g>
<!-- Node487 -->
<g id="node6" class="node"><title>Node487</title>
<g id="a_node6"><a xlink:href="namespacedata__catalog__entry.html#ac3e1f0d9d9e146fbb77c0084e1e9fc14" target="_top" xlink:title="data_catalog_entry\l::getvalues_static_netcdf_sub">
<polygon fill="white" stroke="black" points="489.276,-0.5 489.276,-30.5 650.205,-30.5 650.205,-0.5 489.276,-0.5"/>
<text text-anchor="start" x="497.276" y="-17.7" font-family="Helvetica,sans-Serif" font-size="11.00">data_catalog_entry</text>
<text text-anchor="middle" x="569.74" y="-6.7" font-family="Helvetica,sans-Serif" font-size="11.00">::getvalues_static_netcdf_sub</text>
</a>
</g>
</g>
<!-- Node484&#45;&gt;Node487 -->
<g id="edge5" class="edge"><title>Node484&#45;&gt;Node487</title>
<path fill="none" stroke="midnightblue" d="M463.406,-31.3048C471.931,-30.0256 480.647,-28.7179 489.233,-27.4296"/>
<polygon fill="midnightblue" stroke="midnightblue" points="462.873,-27.8454 453.503,-32.7905 463.912,-34.7679 462.873,-27.8454"/>
</g>
<!-- Node486 -->
<g id="node5" class="node"><title>Node486</title>
<g id="a_node5"><a xlink:href="namespacedata__catalog__entry.html#a9e0a89ab19a5bfd61f2dfb8265648234" target="_top" xlink:title="data_catalog_entry\l::getvalues_sub">
<polygon fill="white" stroke="black" points="686.205,-27.5 686.205,-57.5 795.774,-57.5 795.774,-27.5 686.205,-27.5"/>
<text text-anchor="start" x="694.205" y="-44.7" font-family="Helvetica,sans-Serif" font-size="11.00">data_catalog_entry</text>
<text text-anchor="middle" x="740.99" y="-33.7" font-family="Helvetica,sans-Serif" font-size="11.00">::getvalues_sub</text>
</a>
</g>
</g>
<!-- Node485&#45;&gt;Node486 -->
<g id="edge4" class="edge"><title>Node485&#45;&gt;Node486</title>
<path fill="none" stroke="midnightblue" d="M638.343,-59.3161C654.242,-56.6858 670.977,-53.9172 686.176,-51.4027"/>
<polygon fill="midnightblue" stroke="midnightblue" points="637.335,-55.9351 628.04,-61.0205 638.478,-62.8413 637.335,-55.9351"/>
</g>
<!-- Node487&#45;&gt;Node486 -->
<g id="edge6" class="edge"><title>Node487&#45;&gt;Node486</title>
<path fill="none" stroke="midnightblue" d="M660.547,-29.8267C669.173,-31.2028 677.727,-32.5674 685.849,-33.8631"/>
<polygon fill="midnightblue" stroke="midnightblue" points="660.836,-26.3285 650.409,-28.2094 659.733,-33.2411 660.836,-26.3285"/>
</g>
</g>
</svg>
