<?xml version="1.0" encoding="UTF-8" standalone="no"?>
<!DOCTYPE svg PUBLIC "-//W3C//DTD SVG 1.1//EN"
 "http://www.w3.org/Graphics/SVG/1.1/DTD/svg11.dtd">
<!-- Generated by graphviz version 2.38.0 (20140413.2041)
 -->
<!-- Title: netcdf4_support::netcdf_put_packed_variable_array Pages: 1 -->
<svg width="729pt" height="39pt"
 viewBox="0.00 0.00 728.52 39.00" xmlns="http://www.w3.org/2000/svg" xmlns:xlink="http://www.w3.org/1999/xlink">
<g id="graph0" class="graph" transform="scale(1 1) rotate(0) translate(4 35)">
<title>netcdf4_support::netcdf_put_packed_variable_array</title>
<polygon fill="white" stroke="none" points="-4,4 -4,-35 724.518,-35 724.518,4 -4,4"/>
<!-- Node1 -->
<g id="node1" class="node"><title>Node1</title>
<polygon fill="#bfbfbf" stroke="black" points="0,-0.5 0,-30.5 154.816,-30.5 154.816,-0.5 0,-0.5"/>
<text text-anchor="start" x="8" y="-17.7" font-family="Helvetica,sans-Serif" font-size="11.00">netcdf4_support::netcdf</text>
<text text-anchor="middle" x="77.408" y="-6.7" font-family="Helvetica,sans-Serif" font-size="11.00">_put_packed_variable_array</text>
</g>
<!-- Node2 -->
<g id="node2" class="node"><title>Node2</title>
<g id="a_node2"><a xlink:href="namespacefog____monthly__grid.html#acef2be3cd8295a3fb9bbeae7706207f7" target="_top" xlink:title="fog__monthly_grid::\lfog_monthly_grid_calculate">
<polygon fill="white" stroke="black" points="190.816,-0.5 190.816,-30.5 340.733,-30.5 340.733,-0.5 190.816,-0.5"/>
<text text-anchor="start" x="198.816" y="-17.7" font-family="Helvetica,sans-Serif" font-size="11.00">fog__monthly_grid::</text>
<text text-anchor="middle" x="265.775" y="-6.7" font-family="Helvetica,sans-Serif" font-size="11.00">fog_monthly_grid_calculate</text>
</a>
</g>
</g>
<!-- Node1&#45;&gt;Node2 -->
<g id="edge1" class="edge"><title>Node1&#45;&gt;Node2</title>
<path fill="none" stroke="midnightblue" d="M165.276,-15.5C173.729,-15.5 182.253,-15.5 190.566,-15.5"/>
<polygon fill="midnightblue" stroke="midnightblue" points="165.017,-12.0001 155.017,-15.5 165.017,-19.0001 165.017,-12.0001"/>
</g>
<!-- Node3 -->
<g id="node3" class="node"><title>Node3</title>
<g id="a_node3"><a xlink:href="namespacemodel__domain.html#ae877b5eae76f44562c1d97e09ae87ee8" target="_top" xlink:title="model_domain::model\l_calculate_fog_monthly_grid">
<polygon fill="white" stroke="black" points="376.733,-0.5 376.733,-30.5 532.769,-30.5 532.769,-0.5 376.733,-0.5"/>
<text text-anchor="start" x="384.733" y="-17.7" font-family="Helvetica,sans-Serif" font-size="11.00">model_domain::model</text>
<text text-anchor="middle" x="454.751" y="-6.7" font-family="Helvetica,sans-Serif" font-size="11.00">_calculate_fog_monthly_grid</text>
</a>
</g>
</g>
<!-- Node2&#45;&gt;Node3 -->
<g id="edge2" class="edge"><title>Node2&#45;&gt;Node3</title>
<path fill="none" stroke="midnightblue" d="M351.197,-15.5C359.66,-15.5 368.224,-15.5 376.607,-15.5"/>
<polygon fill="midnightblue" stroke="midnightblue" points="350.941,-12.0001 340.941,-15.5 350.941,-19.0001 350.941,-12.0001"/>
</g>
<!-- Node4 -->
<g id="node4" class="node"><title>Node4</title>
<g id="a_node4"><a xlink:href="namespacemodel__domain.html#aac78dbf26ba37cf86ebed4edd7acf89b" target="_top" xlink:title="model_domain::set_method\l_pointers_sub">
<polygon fill="white" stroke="black" points="568.769,-0.5 568.769,-30.5 720.518,-30.5 720.518,-0.5 568.769,-0.5"/>
<text text-anchor="start" x="576.769" y="-17.7" font-family="Helvetica,sans-Serif" font-size="11.00">model_domain::set_method</text>
<text text-anchor="middle" x="644.643" y="-6.7" font-family="Helvetica,sans-Serif" font-size="11.00">_pointers_sub</text>
</a>
</g>
</g>
<!-- Node3&#45;&gt;Node4 -->
<g id="edge3" class="edge"><title>Node3&#45;&gt;Node4</title>
<path fill="none" stroke="midnightblue" d="M543.241,-15.5C551.69,-15.5 560.21,-15.5 568.525,-15.5"/>
<polygon fill="midnightblue" stroke="midnightblue" points="542.987,-12.0001 532.987,-15.5 542.987,-19.0001 542.987,-12.0001"/>
</g>
</g>
</svg>
