<?xml version="1.0" encoding="UTF-8" standalone="no"?>
<!DOCTYPE svg PUBLIC "-//W3C//DTD SVG 1.1//EN"
 "http://www.w3.org/Graphics/SVG/1.1/DTD/svg11.dtd">
<!-- Generated by graphviz version 2.38.0 (20140413.2041)
 -->
<!-- Title: precipitation__method_of_fragments::update_random_values Pages: 1 -->
<svg width="511pt" height="50pt"
 viewBox="0.00 0.00 510.81 50.00" xmlns="http://www.w3.org/2000/svg" xmlns:xlink="http://www.w3.org/1999/xlink">
<g id="graph0" class="graph" transform="scale(1 1) rotate(0) translate(4 46)">
<title>precipitation__method_of_fragments::update_random_values</title>
<polygon fill="white" stroke="none" points="-4,4 -4,-46 506.809,-46 506.809,4 -4,4"/>
<!-- Node1 -->
<g id="node1" class="node"><title>Node1</title>
<polygon fill="#bfbfbf" stroke="black" points="0,-0.5 0,-41.5 126.075,-41.5 126.075,-0.5 0,-0.5"/>
<text text-anchor="start" x="8" y="-28.7" font-family="Helvetica,sans-Serif" font-size="11.00">precipitation__method</text>
<text text-anchor="start" x="8" y="-17.7" font-family="Helvetica,sans-Serif" font-size="11.00">_of_fragments::update</text>
<text text-anchor="middle" x="63.0376" y="-6.7" font-family="Helvetica,sans-Serif" font-size="11.00">_random_values</text>
</g>
<!-- Node2 -->
<g id="node2" class="node"><title>Node2</title>
<g id="a_node2"><a xlink:href="namespaceprecipitation____method__of__fragments.html#a9218dbc0310b272327ea652a5cd8c44a" target="_top" xlink:title="Update rainfall fragments on daily basis. ">
<polygon fill="white" stroke="black" points="162.075,-0.5 162.075,-41.5 288.15,-41.5 288.15,-0.5 162.075,-0.5"/>
<text text-anchor="start" x="170.075" y="-28.7" font-family="Helvetica,sans-Serif" font-size="11.00">precipitation__method</text>
<text text-anchor="start" x="170.075" y="-17.7" font-family="Helvetica,sans-Serif" font-size="11.00">_of_fragments::update</text>
<text text-anchor="middle" x="225.113" y="-6.7" font-family="Helvetica,sans-Serif" font-size="11.00">_fragments</text>
</a>
</g>
</g>
<!-- Node1&#45;&gt;Node2 -->
<g id="edge1" class="edge"><title>Node1&#45;&gt;Node2</title>
<path fill="none" stroke="midnightblue" d="M136.617,-21C145.072,-21 153.638,-21 161.935,-21"/>
<polygon fill="midnightblue" stroke="midnightblue" points="136.385,-17.5001 126.385,-21 136.385,-24.5001 136.385,-17.5001"/>
</g>
<!-- Node3 -->
<g id="node3" class="node"><title>Node3</title>
<g id="a_node3"><a xlink:href="namespaceprecipitation____method__of__fragments.html#af4340543bf2d535747aee82e1dace47c" target="_top" xlink:title="precipitation__method\l_of_fragments::precipitation\l_method_of_fragments_calculate">
<polygon fill="white" stroke="black" points="324.15,-0.5 324.15,-41.5 502.809,-41.5 502.809,-0.5 324.15,-0.5"/>
<text text-anchor="start" x="332.15" y="-28.7" font-family="Helvetica,sans-Serif" font-size="11.00">precipitation__method</text>
<text text-anchor="start" x="332.15" y="-17.7" font-family="Helvetica,sans-Serif" font-size="11.00">_of_fragments::precipitation</text>
<text text-anchor="middle" x="413.479" y="-6.7" font-family="Helvetica,sans-Serif" font-size="11.00">_method_of_fragments_calculate</text>
</a>
</g>
</g>
<!-- Node2&#45;&gt;Node3 -->
<g id="edge2" class="edge"><title>Node2&#45;&gt;Node3</title>
<path fill="none" stroke="midnightblue" d="M298.339,-21C306.791,-21 315.486,-21 324.125,-21"/>
<polygon fill="midnightblue" stroke="midnightblue" points="298.17,-17.5001 288.17,-21 298.17,-24.5001 298.17,-17.5001"/>
</g>
</g>
</svg>
