<?xml version="1.0" encoding="UTF-8" standalone="no"?>
<!DOCTYPE svg PUBLIC "-//W3C//DTD SVG 1.1//EN"
 "http://www.w3.org/Graphics/SVG/1.1/DTD/svg11.dtd">
<!-- Generated by graphviz version 2.38.0 (20140413.2041)
 -->
<!-- Title: model_initialize::initialize_latitude Pages: 1 -->
<svg width="632pt" height="142pt"
 viewBox="0.00 0.00 632.43 142.00" xmlns="http://www.w3.org/2000/svg" xmlns:xlink="http://www.w3.org/1999/xlink">
<g id="graph0" class="graph" transform="scale(1 1) rotate(0) translate(4 138)">
<title>model_initialize::initialize_latitude</title>
<polygon fill="white" stroke="none" points="-4,4 -4,-138 628.429,-138 628.429,4 -4,4"/>
<!-- Node1 -->
<g id="node1" class="node"><title>Node1</title>
<polygon fill="#bfbfbf" stroke="black" points="0,-52 0,-82 136.447,-82 136.447,-52 0,-52"/>
<text text-anchor="start" x="8" y="-69.2" font-family="Helvetica,sans-Serif" font-size="11.00">model_initialize::initialize</text>
<text text-anchor="middle" x="68.2234" y="-58.2" font-family="Helvetica,sans-Serif" font-size="11.00">_latitude</text>
</g>
<!-- Node2 -->
<g id="node2" class="node"><title>Node2</title>
<g id="a_node2"><a xlink:href="namespacegrid.html#adfcb9064d9b58a49eb61093cd4809a43" target="_top" xlink:title="grid::grid_destroy">
<polygon fill="white" stroke="black" points="182.834,-114.5 182.834,-133.5 283.821,-133.5 283.821,-114.5 182.834,-114.5"/>
<text text-anchor="middle" x="233.328" y="-120.7" font-family="Helvetica,sans-Serif" font-size="11.00">grid::grid_destroy</text>
</a>
</g>
</g>
<!-- Node1&#45;&gt;Node2 -->
<g id="edge1" class="edge"><title>Node1&#45;&gt;Node2</title>
<path fill="none" stroke="midnightblue" d="M112.504,-82.1253C138.218,-91.1115 170.497,-102.392 195.072,-110.98"/>
<polygon fill="midnightblue" stroke="midnightblue" points="194.158,-114.368 204.753,-114.363 196.468,-107.76 194.158,-114.368"/>
</g>
<!-- Node3 -->
<g id="node3" class="node"><title>Node3</title>
<g id="a_node3"><a xlink:href="namespacegrid.html#ace8ea960868faf40cf79d5303f881ed8" target="_top" xlink:title="grid::grid_populatexy">
<polygon fill="white" stroke="black" points="348.234,-76.5 348.234,-95.5 466.355,-95.5 466.355,-76.5 348.234,-76.5"/>
<text text-anchor="middle" x="407.295" y="-82.7" font-family="Helvetica,sans-Serif" font-size="11.00">grid::grid_populatexy</text>
</a>
</g>
</g>
<!-- Node1&#45;&gt;Node3 -->
<g id="edge2" class="edge"><title>Node1&#45;&gt;Node3</title>
<path fill="none" stroke="midnightblue" d="M136.625,-70.7993C194.984,-74.0888 279.016,-78.8256 337.717,-82.1344"/>
<polygon fill="midnightblue" stroke="midnightblue" points="337.824,-85.6459 348.005,-82.7143 338.218,-78.657 337.824,-85.6459"/>
</g>
<!-- Node6 -->
<g id="node6" class="node"><title>Node6</title>
<g id="a_node6"><a xlink:href="namespacegrid.html#a6eb75c46ff6156376f88e567ac0e5271" target="_top" xlink:title="Call PROJ4 to transform coordinates. ">
<polygon fill="white" stroke="black" points="177.643,-38.5 177.643,-57.5 289.012,-57.5 289.012,-38.5 177.643,-38.5"/>
<text text-anchor="middle" x="233.328" y="-44.7" font-family="Helvetica,sans-Serif" font-size="11.00">grid::grid_transform</text>
</a>
</g>
</g>
<!-- Node1&#45;&gt;Node6 -->
<g id="edge5" class="edge"><title>Node1&#45;&gt;Node6</title>
<path fill="none" stroke="midnightblue" d="M136.506,-59.1623C146.773,-57.9663 157.351,-56.734 167.563,-55.5445"/>
<polygon fill="midnightblue" stroke="midnightblue" points="168.099,-59.0058 177.627,-54.3721 167.289,-52.0528 168.099,-59.0058"/>
</g>
<!-- Node8 -->
<g id="node8" class="node"><title>Node8</title>
<g id="a_node8"><a xlink:href="namespacegrid.html#a02803f7fe27d0354d3d16a15bd1338da" target="_top" xlink:title="grid::grid_writearcgrid">
<polygon fill="white" stroke="black" points="172.447,-0.5 172.447,-19.5 294.209,-19.5 294.209,-0.5 172.447,-0.5"/>
<text text-anchor="middle" x="233.328" y="-6.7" font-family="Helvetica,sans-Serif" font-size="11.00">grid::grid_writearcgrid</text>
</a>
</g>
</g>
<!-- Node1&#45;&gt;Node8 -->
<g id="edge8" class="edge"><title>Node1&#45;&gt;Node8</title>
<path fill="none" stroke="midnightblue" d="M108.777,-51.9601C127.932,-44.7994 151.309,-36.2399 172.447,-29 178.541,-26.9126 185.011,-24.7771 191.358,-22.7267"/>
<polygon fill="midnightblue" stroke="midnightblue" points="192.7,-25.9721 201.16,-19.5939 190.569,-19.3044 192.7,-25.9721"/>
</g>
<!-- Node4 -->
<g id="node4" class="node"><title>Node4</title>
<g id="a_node4"><a xlink:href="namespacegrid.html#ad3fbf6446fa8a58df8888c05b7165324" target="_top" xlink:title="grid::grid_getgridx">
<polygon fill="white" stroke="black" points="520.38,-95.5 520.38,-114.5 624.429,-114.5 624.429,-95.5 520.38,-95.5"/>
<text text-anchor="middle" x="572.405" y="-101.7" font-family="Helvetica,sans-Serif" font-size="11.00">grid::grid_getgridx</text>
</a>
</g>
</g>
<!-- Node3&#45;&gt;Node4 -->
<g id="edge3" class="edge"><title>Node3&#45;&gt;Node4</title>
<path fill="none" stroke="midnightblue" d="M466.72,-92.8058C480.77,-94.4423 495.818,-96.1952 509.999,-97.8471"/>
<polygon fill="midnightblue" stroke="midnightblue" points="509.807,-101.348 520.144,-99.0289 510.617,-94.3953 509.807,-101.348"/>
</g>
<!-- Node5 -->
<g id="node5" class="node"><title>Node5</title>
<g id="a_node5"><a xlink:href="namespacegrid.html#a93d74de05bc5c8aee4cb556f461be266" target="_top" xlink:title="grid::grid_getgridy">
<polygon fill="white" stroke="black" points="520.38,-57.5 520.38,-76.5 624.429,-76.5 624.429,-57.5 520.38,-57.5"/>
<text text-anchor="middle" x="572.405" y="-63.7" font-family="Helvetica,sans-Serif" font-size="11.00">grid::grid_getgridy</text>
</a>
</g>
</g>
<!-- Node3&#45;&gt;Node5 -->
<g id="edge4" class="edge"><title>Node3&#45;&gt;Node5</title>
<path fill="none" stroke="midnightblue" d="M466.72,-79.1942C480.77,-77.5577 495.818,-75.8048 509.999,-74.1529"/>
<polygon fill="midnightblue" stroke="midnightblue" points="510.617,-77.6047 520.144,-72.9711 509.807,-70.6517 510.617,-77.6047"/>
</g>
<!-- Node6&#45;&gt;Node3 -->
<g id="edge7" class="edge"><title>Node6&#45;&gt;Node3</title>
<path fill="none" stroke="midnightblue" d="M277.722,-57.589C300.722,-62.6713 329.16,-68.9554 353.439,-74.3203"/>
<polygon fill="midnightblue" stroke="midnightblue" points="352.693,-77.7398 363.212,-76.4799 354.203,-70.9046 352.693,-77.7398"/>
</g>
<!-- Node7 -->
<g id="node7" class="node"><title>Node7</title>
<g id="a_node7"><a xlink:href="namespacegrid.html#a4e234a7e1a3a1ba76a7c92bab7114bf7" target="_top" xlink:title="grid::grid_checkforproj4error">
<polygon fill="white" stroke="black" points="330.209,-38.5 330.209,-57.5 484.38,-57.5 484.38,-38.5 330.209,-38.5"/>
<text text-anchor="middle" x="407.295" y="-44.7" font-family="Helvetica,sans-Serif" font-size="11.00">grid::grid_checkforproj4error</text>
</a>
</g>
</g>
<!-- Node6&#45;&gt;Node7 -->
<g id="edge6" class="edge"><title>Node6&#45;&gt;Node7</title>
<path fill="none" stroke="midnightblue" d="M289.212,-48C299.045,-48 309.504,-48 319.971,-48"/>
<polygon fill="midnightblue" stroke="midnightblue" points="319.987,-51.5001 329.987,-48 319.987,-44.5001 319.987,-51.5001"/>
</g>
</g>
</svg>
