<?xml version="1.0" encoding="UTF-8" standalone="no"?>
<!DOCTYPE svg PUBLIC "-//W3C//DTD SVG 1.1//EN"
 "http://www.w3.org/Graphics/SVG/1.1/DTD/svg11.dtd">
<!-- Generated by graphviz version 2.38.0 (20140413.2041)
 -->
<!-- Title: grid::grid_read Pages: 1 -->
<svg width="412pt" height="39pt"
 viewBox="0.00 0.00 412.37 39.00" xmlns="http://www.w3.org/2000/svg" xmlns:xlink="http://www.w3.org/1999/xlink">
<g id="graph0" class="graph" transform="scale(1 1) rotate(0) translate(4 35)">
<title>grid::grid_read</title>
<polygon fill="white" stroke="none" points="-4,4 -4,-35 408.367,-35 408.367,4 -4,4"/>
<!-- Node32 -->
<g id="node1" class="node"><title>Node32</title>
<polygon fill="#bfbfbf" stroke="black" points="0,-6 0,-25 86.9307,-25 86.9307,-6 0,-6"/>
<text text-anchor="middle" x="43.4653" y="-12.2" font-family="Helvetica,sans-Serif" font-size="11.00">grid::grid_read</text>
</g>
<!-- Node33 -->
<g id="node2" class="node"><title>Node33</title>
<g id="a_node2"><a xlink:href="namespacedata__catalog__entry.html#a25575c8a43161050427bd7a7d471e83d" target="_top" xlink:title="data_catalog_entry\l::getvalues_gridded_sub">
<polygon fill="white" stroke="black" points="122.931,-0.5 122.931,-30.5 258.797,-30.5 258.797,-0.5 122.931,-0.5"/>
<text text-anchor="start" x="130.931" y="-17.7" font-family="Helvetica,sans-Serif" font-size="11.00">data_catalog_entry</text>
<text text-anchor="middle" x="190.864" y="-6.7" font-family="Helvetica,sans-Serif" font-size="11.00">::getvalues_gridded_sub</text>
</a>
</g>
</g>
<!-- Node32&#45;&gt;Node33 -->
<g id="edge1" class="edge"><title>Node32&#45;&gt;Node33</title>
<path fill="none" stroke="midnightblue" d="M97.4902,-15.5C105.714,-15.5 114.3,-15.5 122.784,-15.5"/>
<polygon fill="midnightblue" stroke="midnightblue" points="97.3034,-12.0001 87.3033,-15.5 97.3033,-19.0001 97.3034,-12.0001"/>
</g>
<!-- Node34 -->
<g id="node3" class="node"><title>Node34</title>
<g id="a_node3"><a xlink:href="namespacedata__catalog__entry.html#a9e0a89ab19a5bfd61f2dfb8265648234" target="_top" xlink:title="data_catalog_entry\l::getvalues_sub">
<polygon fill="white" stroke="black" points="294.797,-0.5 294.797,-30.5 404.367,-30.5 404.367,-0.5 294.797,-0.5"/>
<text text-anchor="start" x="302.797" y="-17.7" font-family="Helvetica,sans-Serif" font-size="11.00">data_catalog_entry</text>
<text text-anchor="middle" x="349.582" y="-6.7" font-family="Helvetica,sans-Serif" font-size="11.00">::getvalues_sub</text>
</a>
</g>
</g>
<!-- Node33&#45;&gt;Node34 -->
<g id="edge2" class="edge"><title>Node33&#45;&gt;Node34</title>
<path fill="none" stroke="midnightblue" d="M269.51,-15.5C277.959,-15.5 286.42,-15.5 294.498,-15.5"/>
<polygon fill="midnightblue" stroke="midnightblue" points="269.236,-12.0001 259.236,-15.5 269.236,-19.0001 269.236,-12.0001"/>
</g>
</g>
</svg>
