<?xml version="1.0" encoding="UTF-8" standalone="no"?>
<!DOCTYPE svg PUBLIC "-//W3C//DTD SVG 1.1//EN"
 "http://www.w3.org/Graphics/SVG/1.1/DTD/svg11.dtd">
<!-- Generated by graphviz version 2.38.0 (20140413.2041)
 -->
<!-- Title: logfiles::write_to_logfiles_sub Pages: 1 -->
<svg width="371pt" height="39pt"
 viewBox="0.00 0.00 370.71 39.00" xmlns="http://www.w3.org/2000/svg" xmlns:xlink="http://www.w3.org/1999/xlink">
<g id="graph0" class="graph" transform="scale(1 1) rotate(0) translate(4 35)">
<title>logfiles::write_to_logfiles_sub</title>
<polygon fill="white" stroke="none" points="-4,4 -4,-35 366.709,-35 366.709,4 -4,4"/>
<!-- Node1 -->
<g id="node1" class="node"><title>Node1</title>
<polygon fill="#bfbfbf" stroke="black" points="0,-0.5 0,-30.5 94.8691,-30.5 94.8691,-0.5 0,-0.5"/>
<text text-anchor="start" x="8" y="-17.7" font-family="Helvetica,sans-Serif" font-size="11.00">logfiles::write_to</text>
<text text-anchor="middle" x="47.4346" y="-6.7" font-family="Helvetica,sans-Serif" font-size="11.00">_logfiles_sub</text>
</g>
<!-- Node2 -->
<g id="node2" class="node"><title>Node2</title>
<g id="a_node2"><a xlink:href="namespacelogfiles.html#ae807d3b84516a40194bbe44ae47ef553" target="_top" xlink:title="Write multiple lines of output to Fortran logical unit. ">
<polygon fill="white" stroke="black" points="130.869,-6 130.869,-25 250.794,-25 250.794,-6 130.869,-6"/>
<text text-anchor="middle" x="190.832" y="-12.2" font-family="Helvetica,sans-Serif" font-size="11.00">logfiles::writemultiline</text>
</a>
</g>
</g>
<!-- Node1&#45;&gt;Node2 -->
<g id="edge1" class="edge"><title>Node1&#45;&gt;Node2</title>
<path fill="none" stroke="midnightblue" d="M95.1252,-15.5C103.335,-15.5 112.035,-15.5 120.704,-15.5"/>
<polygon fill="midnightblue" stroke="midnightblue" points="120.835,-19.0001 130.835,-15.5 120.835,-12.0001 120.835,-19.0001"/>
</g>
<!-- Node3 -->
<g id="node3" class="node"><title>Node3</title>
<g id="a_node3"><a xlink:href="namespacelogfiles.html#a2fce1c64bdfb476bc84f63e22f72aaee" target="_top" xlink:title="logfiles::split">
<polygon fill="white" stroke="black" points="286.794,-6 286.794,-25 362.709,-25 362.709,-6 286.794,-6"/>
<text text-anchor="middle" x="324.752" y="-12.2" font-family="Helvetica,sans-Serif" font-size="11.00">logfiles::split</text>
</a>
</g>
</g>
<!-- Node2&#45;&gt;Node3 -->
<g id="edge2" class="edge"><title>Node2&#45;&gt;Node3</title>
<path fill="none" stroke="midnightblue" d="M250.846,-15.5C259.433,-15.5 268.177,-15.5 276.49,-15.5"/>
<polygon fill="midnightblue" stroke="midnightblue" points="276.744,-19.0001 286.744,-15.5 276.744,-12.0001 276.744,-19.0001"/>
</g>
</g>
</svg>
