<?xml version="1.0" encoding="UTF-8" standalone="no"?>
<!DOCTYPE svg PUBLIC "-//W3C//DTD SVG 1.1//EN"
 "http://www.w3.org/Graphics/SVG/1.1/DTD/svg11.dtd">
<!-- Generated by graphviz version 2.38.0 (20140413.2041)
 -->
<!-- Title: netcdf4_support::nf_get_variable_array_float Pages: 1 -->
<svg width="508pt" height="39pt"
 viewBox="0.00 0.00 507.75 39.00" xmlns="http://www.w3.org/2000/svg" xmlns:xlink="http://www.w3.org/1999/xlink">
<g id="graph0" class="graph" transform="scale(1 1) rotate(0) translate(4 35)">
<title>netcdf4_support::nf_get_variable_array_float</title>
<polygon fill="white" stroke="none" points="-4,4 -4,-35 503.752,-35 503.752,4 -4,4"/>
<!-- Node475 -->
<g id="node1" class="node"><title>Node475</title>
<polygon fill="#bfbfbf" stroke="black" points="0,-0.5 0,-30.5 140.137,-30.5 140.137,-0.5 0,-0.5"/>
<text text-anchor="start" x="8" y="-17.7" font-family="Helvetica,sans-Serif" font-size="11.00">netcdf4_support::nf</text>
<text text-anchor="middle" x="70.0684" y="-6.7" font-family="Helvetica,sans-Serif" font-size="11.00">_get_variable_array_float</text>
</g>
<!-- Node476 -->
<g id="node2" class="node"><title>Node476</title>
<g id="a_node2"><a xlink:href="namespacenetcdf4__support.html#ac8c7276a5849ae6d17ffef1787e3f234" target="_top" xlink:title="netcdf4_support::nf_trap">
<polygon fill="white" stroke="black" points="176.137,-6 176.137,-25 311.386,-25 311.386,-6 176.137,-6"/>
<text text-anchor="middle" x="243.761" y="-12.2" font-family="Helvetica,sans-Serif" font-size="11.00">netcdf4_support::nf_trap</text>
</a>
</g>
</g>
<!-- Node475&#45;&gt;Node476 -->
<g id="edge1" class="edge"><title>Node475&#45;&gt;Node476</title>
<path fill="none" stroke="midnightblue" d="M140.408,-15.5C148.744,-15.5 157.297,-15.5 165.735,-15.5"/>
<polygon fill="midnightblue" stroke="midnightblue" points="165.948,-19.0001 175.948,-15.5 165.948,-12.0001 165.948,-19.0001"/>
</g>
<!-- Node477 -->
<g id="node3" class="node"><title>Node477</title>
<g id="a_node3"><a xlink:href="namespaceconstants__and__conversions.html#ac13fba285229deab77131132e6f62caf" target="_top" xlink:title="constants_and_conversions\l::char_ptr_to_fortran_string">
<polygon fill="white" stroke="black" points="347.386,-0.5 347.386,-30.5 499.752,-30.5 499.752,-0.5 347.386,-0.5"/>
<text text-anchor="start" x="355.386" y="-17.7" font-family="Helvetica,sans-Serif" font-size="11.00">constants_and_conversions</text>
<text text-anchor="middle" x="423.569" y="-6.7" font-family="Helvetica,sans-Serif" font-size="11.00">::char_ptr_to_fortran_string</text>
</a>
</g>
</g>
<!-- Node476&#45;&gt;Node477 -->
<g id="edge2" class="edge"><title>Node476&#45;&gt;Node477</title>
<path fill="none" stroke="midnightblue" d="M311.476,-15.5C319.834,-15.5 328.471,-15.5 337.066,-15.5"/>
<polygon fill="midnightblue" stroke="midnightblue" points="337.116,-19.0001 347.116,-15.5 337.116,-12.0001 337.116,-19.0001"/>
</g>
</g>
</svg>
