<?xml version="1.0" encoding="UTF-8" standalone="no"?>
<!DOCTYPE svg PUBLIC "-//W3C//DTD SVG 1.1//EN"
 "http://www.w3.org/Graphics/SVG/1.1/DTD/svg11.dtd">
<!-- Generated by graphviz version 2.38.0 (20140413.2041)
 -->
<!-- Title: interception__bucket::interception_bucket_calculate Pages: 1 -->
<svg width="478pt" height="50pt"
 viewBox="0.00 0.00 477.78 50.00" xmlns="http://www.w3.org/2000/svg" xmlns:xlink="http://www.w3.org/1999/xlink">
<g id="graph0" class="graph" transform="scale(1 1) rotate(0) translate(4 46)">
<title>interception__bucket::interception_bucket_calculate</title>
<polygon fill="white" stroke="none" points="-4,4 -4,-46 473.782,-46 473.782,4 -4,4"/>
<!-- Node1 -->
<g id="node1" class="node"><title>Node1</title>
<polygon fill="#bfbfbf" stroke="black" points="0,-0.5 0,-41.5 117.514,-41.5 117.514,-0.5 0,-0.5"/>
<text text-anchor="start" x="8" y="-28.7" font-family="Helvetica,sans-Serif" font-size="11.00">interception__bucket</text>
<text text-anchor="start" x="8" y="-17.7" font-family="Helvetica,sans-Serif" font-size="11.00">::interception_bucket</text>
<text text-anchor="middle" x="58.7568" y="-6.7" font-family="Helvetica,sans-Serif" font-size="11.00">_calculate</text>
</g>
<!-- Node2 -->
<g id="node2" class="node"><title>Node2</title>
<g id="a_node2"><a xlink:href="namespacemodel__domain.html#ad32468c880e3c68cb40300622a7f43c7" target="_top" xlink:title="model_domain::model\l_calculate_interception\l_bucket">
<polygon fill="white" stroke="black" points="153.514,-0.5 153.514,-41.5 282.033,-41.5 282.033,-0.5 153.514,-0.5"/>
<text text-anchor="start" x="161.514" y="-28.7" font-family="Helvetica,sans-Serif" font-size="11.00">model_domain::model</text>
<text text-anchor="start" x="161.514" y="-17.7" font-family="Helvetica,sans-Serif" font-size="11.00">_calculate_interception</text>
<text text-anchor="middle" x="217.773" y="-6.7" font-family="Helvetica,sans-Serif" font-size="11.00">_bucket</text>
</a>
</g>
</g>
<!-- Node1&#45;&gt;Node2 -->
<g id="edge1" class="edge"><title>Node1&#45;&gt;Node2</title>
<path fill="none" stroke="midnightblue" d="M127.988,-21C136.446,-21 145.067,-21 153.447,-21"/>
<polygon fill="midnightblue" stroke="midnightblue" points="127.778,-17.5001 117.778,-21 127.778,-24.5001 127.778,-17.5001"/>
</g>
<!-- Node3 -->
<g id="node3" class="node"><title>Node3</title>
<g id="a_node3"><a xlink:href="namespacemodel__domain.html#aac78dbf26ba37cf86ebed4edd7acf89b" target="_top" xlink:title="model_domain::set_method\l_pointers_sub">
<polygon fill="white" stroke="black" points="318.033,-6 318.033,-36 469.782,-36 469.782,-6 318.033,-6"/>
<text text-anchor="start" x="326.033" y="-23.2" font-family="Helvetica,sans-Serif" font-size="11.00">model_domain::set_method</text>
<text text-anchor="middle" x="393.907" y="-12.2" font-family="Helvetica,sans-Serif" font-size="11.00">_pointers_sub</text>
</a>
</g>
</g>
<!-- Node2&#45;&gt;Node3 -->
<g id="edge2" class="edge"><title>Node2&#45;&gt;Node3</title>
<path fill="none" stroke="midnightblue" d="M292.297,-21C300.719,-21 309.314,-21 317.757,-21"/>
<polygon fill="midnightblue" stroke="midnightblue" points="292.132,-17.5001 282.132,-21 292.132,-24.5001 292.132,-17.5001"/>
</g>
</g>
</svg>
