<?xml version="1.0" encoding="UTF-8" standalone="no"?>
<!DOCTYPE svg PUBLIC "-//W3C//DTD SVG 1.1//EN"
 "http://www.w3.org/Graphics/SVG/1.1/DTD/svg11.dtd">
<!-- Generated by graphviz version 2.38.0 (20140413.2041)
 -->
<!-- Title: netcdf4_support::nf_get_xyz_units Pages: 1 -->
<svg width="659pt" height="100pt"
 viewBox="0.00 0.00 659.47 99.50" xmlns="http://www.w3.org/2000/svg" xmlns:xlink="http://www.w3.org/1999/xlink">
<g id="graph0" class="graph" transform="scale(1 1) rotate(0) translate(4 95.5)">
<title>netcdf4_support::nf_get_xyz_units</title>
<polygon fill="white" stroke="none" points="-4,4 -4,-95.5 655.472,-95.5 655.472,4 -4,4"/>
<!-- Node531 -->
<g id="node1" class="node"><title>Node531</title>
<polygon fill="#bfbfbf" stroke="black" points="0,-27.5 0,-57.5 110.177,-57.5 110.177,-27.5 0,-27.5"/>
<text text-anchor="start" x="8" y="-44.7" font-family="Helvetica,sans-Serif" font-size="11.00">netcdf4_support::nf</text>
<text text-anchor="middle" x="55.0884" y="-33.7" font-family="Helvetica,sans-Serif" font-size="11.00">_get_xyz_units</text>
</g>
<!-- Node532 -->
<g id="node2" class="node"><title>Node532</title>
<g id="a_node2"><a xlink:href="namespacenetcdf4__support.html#a6d3d402059d71a8bd24a01dc6116ff7d" target="_top" xlink:title="netcdf4_support::netcdf\l_open_and_prepare_as_input">
<polygon fill="white" stroke="black" points="146.177,-27.5 146.177,-57.5 308.974,-57.5 308.974,-27.5 146.177,-27.5"/>
<text text-anchor="start" x="154.177" y="-44.7" font-family="Helvetica,sans-Serif" font-size="11.00">netcdf4_support::netcdf</text>
<text text-anchor="middle" x="227.575" y="-33.7" font-family="Helvetica,sans-Serif" font-size="11.00">_open_and_prepare_as_input</text>
</a>
</g>
</g>
<!-- Node531&#45;&gt;Node532 -->
<g id="edge1" class="edge"><title>Node531&#45;&gt;Node532</title>
<path fill="none" stroke="midnightblue" d="M120.764,-42.5C129.002,-42.5 137.512,-42.5 145.962,-42.5"/>
<polygon fill="midnightblue" stroke="midnightblue" points="120.5,-39.0001 110.5,-42.5 120.5,-46.0001 120.5,-39.0001"/>
</g>
<!-- Node533 -->
<g id="node3" class="node"><title>Node533</title>
<g id="a_node3"><a xlink:href="namespacedata__catalog__entry.html#aeb285131f87ed64deba0a9041a9c6405" target="_top" xlink:title="data_catalog_entry\l::getvalues_dynamic\l_netcdf_sub">
<polygon fill="white" stroke="black" points="367.299,-50 367.299,-91 483.577,-91 483.577,-50 367.299,-50"/>
<text text-anchor="start" x="375.299" y="-78.2" font-family="Helvetica,sans-Serif" font-size="11.00">data_catalog_entry</text>
<text text-anchor="start" x="375.299" y="-67.2" font-family="Helvetica,sans-Serif" font-size="11.00">::getvalues_dynamic</text>
<text text-anchor="middle" x="425.438" y="-56.2" font-family="Helvetica,sans-Serif" font-size="11.00">_netcdf_sub</text>
</a>
</g>
</g>
<!-- Node532&#45;&gt;Node533 -->
<g id="edge2" class="edge"><title>Node532&#45;&gt;Node533</title>
<path fill="none" stroke="midnightblue" d="M319.221,-55.4585C335.578,-57.7968 352.208,-60.1741 367.271,-62.3275"/>
<polygon fill="midnightblue" stroke="midnightblue" points="319.483,-51.9604 309.088,-54.0099 318.492,-58.8899 319.483,-51.9604"/>
</g>
<!-- Node535 -->
<g id="node5" class="node"><title>Node535</title>
<g id="a_node5"><a xlink:href="namespacedata__catalog__entry.html#ac3e1f0d9d9e146fbb77c0084e1e9fc14" target="_top" xlink:title="data_catalog_entry\l::getvalues_static_netcdf_sub">
<polygon fill="white" stroke="black" points="344.974,-0.5 344.974,-30.5 505.902,-30.5 505.902,-0.5 344.974,-0.5"/>
<text text-anchor="start" x="352.974" y="-17.7" font-family="Helvetica,sans-Serif" font-size="11.00">data_catalog_entry</text>
<text text-anchor="middle" x="425.438" y="-6.7" font-family="Helvetica,sans-Serif" font-size="11.00">::getvalues_static_netcdf_sub</text>
</a>
</g>
</g>
<!-- Node532&#45;&gt;Node535 -->
<g id="edge4" class="edge"><title>Node532&#45;&gt;Node535</title>
<path fill="none" stroke="midnightblue" d="M319.126,-30.0175C327.72,-28.8327 336.391,-27.6375 344.87,-26.4686"/>
<polygon fill="midnightblue" stroke="midnightblue" points="318.517,-26.5683 309.088,-31.4012 319.473,-33.5027 318.517,-26.5683"/>
</g>
<!-- Node534 -->
<g id="node4" class="node"><title>Node534</title>
<g id="a_node4"><a xlink:href="namespacedata__catalog__entry.html#a9e0a89ab19a5bfd61f2dfb8265648234" target="_top" xlink:title="data_catalog_entry\l::getvalues_sub">
<polygon fill="white" stroke="black" points="541.902,-27.5 541.902,-57.5 651.472,-57.5 651.472,-27.5 541.902,-27.5"/>
<text text-anchor="start" x="549.902" y="-44.7" font-family="Helvetica,sans-Serif" font-size="11.00">data_catalog_entry</text>
<text text-anchor="middle" x="596.687" y="-33.7" font-family="Helvetica,sans-Serif" font-size="11.00">::getvalues_sub</text>
</a>
</g>
</g>
<!-- Node533&#45;&gt;Node534 -->
<g id="edge3" class="edge"><title>Node533&#45;&gt;Node534</title>
<path fill="none" stroke="midnightblue" d="M494.041,-59.3161C509.94,-56.6858 526.675,-53.9172 541.874,-51.4027"/>
<polygon fill="midnightblue" stroke="midnightblue" points="493.033,-55.9351 483.738,-61.0205 494.175,-62.8413 493.033,-55.9351"/>
</g>
<!-- Node535&#45;&gt;Node534 -->
<g id="edge5" class="edge"><title>Node535&#45;&gt;Node534</title>
<path fill="none" stroke="midnightblue" d="M516.245,-29.8267C524.871,-31.2028 533.425,-32.5674 541.547,-33.8631"/>
<polygon fill="midnightblue" stroke="midnightblue" points="516.533,-26.3285 506.107,-28.2094 515.431,-33.2411 516.533,-26.3285"/>
</g>
</g>
</svg>
