<?xml version="1.0" encoding="UTF-8" standalone="no"?>
<!DOCTYPE svg PUBLIC "-//W3C//DTD SVG 1.1//EN"
 "http://www.w3.org/Graphics/SVG/1.1/DTD/svg11.dtd">
<!-- Generated by graphviz version 2.38.0 (20140413.2041)
 -->
<!-- Title: file_operations::write_line_of_data_sub Pages: 1 -->
<svg width="274pt" height="39pt"
 viewBox="0.00 0.00 274.11 39.00" xmlns="http://www.w3.org/2000/svg" xmlns:xlink="http://www.w3.org/1999/xlink">
<g id="graph0" class="graph" transform="scale(1 1) rotate(0) translate(4 35)">
<title>file_operations::write_line_of_data_sub</title>
<polygon fill="white" stroke="none" points="-4,4 -4,-35 270.107,-35 270.107,4 -4,4"/>
<!-- Node27 -->
<g id="node1" class="node"><title>Node27</title>
<polygon fill="#bfbfbf" stroke="black" points="0,-0.5 0,-30.5 116.885,-30.5 116.885,-0.5 0,-0.5"/>
<text text-anchor="start" x="8" y="-17.7" font-family="Helvetica,sans-Serif" font-size="11.00">file_operations::write</text>
<text text-anchor="middle" x="58.4426" y="-6.7" font-family="Helvetica,sans-Serif" font-size="11.00">_line_of_data_sub</text>
</g>
<!-- Node28 -->
<g id="node2" class="node"><title>Node28</title>
<g id="a_node2"><a xlink:href="namespacefile__operations.html#a70a2b74bf72f0296e7751d4a94242a9f" target="_top" xlink:title="file_operations::fully\l_qualified_filename">
<polygon fill="white" stroke="black" points="152.885,-0.5 152.885,-30.5 266.107,-30.5 266.107,-0.5 152.885,-0.5"/>
<text text-anchor="start" x="160.885" y="-17.7" font-family="Helvetica,sans-Serif" font-size="11.00">file_operations::fully</text>
<text text-anchor="middle" x="209.496" y="-6.7" font-family="Helvetica,sans-Serif" font-size="11.00">_qualified_filename</text>
</a>
</g>
</g>
<!-- Node27&#45;&gt;Node28 -->
<g id="edge1" class="edge"><title>Node27&#45;&gt;Node28</title>
<path fill="none" stroke="midnightblue" d="M117.071,-15.5C125.341,-15.5 133.904,-15.5 142.323,-15.5"/>
<polygon fill="midnightblue" stroke="midnightblue" points="142.492,-19.0001 152.492,-15.5 142.492,-12.0001 142.492,-19.0001"/>
</g>
</g>
</svg>
