<?xml version="1.0" encoding="UTF-8" standalone="no"?>
<!DOCTYPE svg PUBLIC "-//W3C//DTD SVG 1.1//EN"
 "http://www.w3.org/Graphics/SVG/1.1/DTD/svg11.dtd">
<!-- Generated by graphviz version 2.38.0 (20140413.2041)
 -->
<!-- Title: model_domain::model_initialize_available_water_content_depth_integrated Pages: 1 -->
<svg width="376pt" height="50pt"
 viewBox="0.00 0.00 375.65 50.00" xmlns="http://www.w3.org/2000/svg" xmlns:xlink="http://www.w3.org/1999/xlink">
<g id="graph0" class="graph" transform="scale(1 1) rotate(0) translate(4 46)">
<title>model_domain::model_initialize_available_water_content_depth_integrated</title>
<polygon fill="white" stroke="none" points="-4,4 -4,-46 371.653,-46 371.653,4 -4,4"/>
<!-- Node355 -->
<g id="node1" class="node"><title>Node355</title>
<polygon fill="#bfbfbf" stroke="black" points="0,-0.5 0,-41.5 179.904,-41.5 179.904,-0.5 0,-0.5"/>
<text text-anchor="start" x="8" y="-28.7" font-family="Helvetica,sans-Serif" font-size="11.00">model_domain::model</text>
<text text-anchor="start" x="8" y="-17.7" font-family="Helvetica,sans-Serif" font-size="11.00">_initialize_available</text>
<text text-anchor="middle" x="89.9521" y="-6.7" font-family="Helvetica,sans-Serif" font-size="11.00">_water_content_depth_integrated</text>
</g>
<!-- Node356 -->
<g id="node2" class="node"><title>Node356</title>
<g id="a_node2"><a xlink:href="namespacemodel__domain.html#aac78dbf26ba37cf86ebed4edd7acf89b" target="_top" xlink:title="model_domain::set_method\l_pointers_sub">
<polygon fill="white" stroke="black" points="215.904,-6 215.904,-36 367.653,-36 367.653,-6 215.904,-6"/>
<text text-anchor="start" x="223.904" y="-23.2" font-family="Helvetica,sans-Serif" font-size="11.00">model_domain::set_method</text>
<text text-anchor="middle" x="291.779" y="-12.2" font-family="Helvetica,sans-Serif" font-size="11.00">_pointers_sub</text>
</a>
</g>
</g>
<!-- Node355&#45;&gt;Node356 -->
<g id="edge1" class="edge"><title>Node355&#45;&gt;Node356</title>
<path fill="none" stroke="midnightblue" d="M190.187,-21C198.834,-21 207.489,-21 215.891,-21"/>
<polygon fill="midnightblue" stroke="midnightblue" points="190.054,-17.5001 180.054,-21 190.054,-24.5001 190.054,-17.5001"/>
</g>
</g>
</svg>
