<?xml version="1.0" encoding="UTF-8" standalone="no"?>
<!DOCTYPE svg PUBLIC "-//W3C//DTD SVG 1.1//EN"
 "http://www.w3.org/Graphics/SVG/1.1/DTD/svg11.dtd">
<!-- Generated by graphviz version 2.38.0 (20140413.2041)
 -->
<!-- Title: model_initialize::read_hydrologic_soil_groups Pages: 1 -->
<svg width="634pt" height="39pt"
 viewBox="0.00 0.00 634.31 39.00" xmlns="http://www.w3.org/2000/svg" xmlns:xlink="http://www.w3.org/1999/xlink">
<g id="graph0" class="graph" transform="scale(1 1) rotate(0) translate(4 35)">
<title>model_initialize::read_hydrologic_soil_groups</title>
<polygon fill="white" stroke="none" points="-4,4 -4,-35 630.314,-35 630.314,4 -4,4"/>
<!-- Node123 -->
<g id="node1" class="node"><title>Node123</title>
<polygon fill="#bfbfbf" stroke="black" points="0,-0.5 0,-30.5 134.631,-30.5 134.631,-0.5 0,-0.5"/>
<text text-anchor="start" x="8" y="-17.7" font-family="Helvetica,sans-Serif" font-size="11.00">model_initialize::read</text>
<text text-anchor="middle" x="67.3157" y="-6.7" font-family="Helvetica,sans-Serif" font-size="11.00">_hydrologic_soil_groups</text>
</g>
<!-- Node124 -->
<g id="node2" class="node"><title>Node124</title>
<g id="a_node2"><a xlink:href="namespacemodel__initialize.html#ad5de643aae8f976ef39b44ec8276c528" target="_top" xlink:title="Initialize soils, landuse, and available water content values. ">
<polygon fill="white" stroke="black" points="170.631,-0.5 170.631,-30.5 360.902,-30.5 360.902,-0.5 170.631,-0.5"/>
<text text-anchor="start" x="178.631" y="-17.7" font-family="Helvetica,sans-Serif" font-size="11.00">model_initialize::initialize</text>
<text text-anchor="middle" x="265.767" y="-6.7" font-family="Helvetica,sans-Serif" font-size="11.00">_soils_landuse_awc_flowdir_values</text>
</a>
</g>
</g>
<!-- Node123&#45;&gt;Node124 -->
<g id="edge1" class="edge"><title>Node123&#45;&gt;Node124</title>
<path fill="none" stroke="midnightblue" d="M144.912,-15.5C153.285,-15.5 161.879,-15.5 170.434,-15.5"/>
<polygon fill="midnightblue" stroke="midnightblue" points="144.825,-12.0001 134.825,-15.5 144.825,-19.0001 144.825,-12.0001"/>
</g>
<!-- Node125 -->
<g id="node3" class="node"><title>Node125</title>
<g id="a_node3"><a xlink:href="namespacemodel__initialize.html#a46370bf2e9ea112d1f219277ba7fd3ce" target="_top" xlink:title="model_initialize::initialize_all">
<polygon fill="white" stroke="black" points="396.902,-6 396.902,-25 550.472,-25 550.472,-6 396.902,-6"/>
<text text-anchor="middle" x="473.687" y="-12.2" font-family="Helvetica,sans-Serif" font-size="11.00">model_initialize::initialize_all</text>
</a>
</g>
</g>
<!-- Node124&#45;&gt;Node125 -->
<g id="edge2" class="edge"><title>Node124&#45;&gt;Node125</title>
<path fill="none" stroke="midnightblue" d="M371.109,-15.5C379.737,-15.5 388.352,-15.5 396.712,-15.5"/>
<polygon fill="midnightblue" stroke="midnightblue" points="370.988,-12.0001 360.988,-15.5 370.988,-19.0001 370.988,-12.0001"/>
</g>
<!-- Node126 -->
<g id="node4" class="node"><title>Node126</title>
<g id="a_node4"><a xlink:href="main_8F90.html#a8ec2266d83cd6c0b762cbcbc92c0af3d" target="_top" xlink:title="Main program which references all other modules; execution begins here. ">
<polygon fill="white" stroke="black" points="586.472,-6 586.472,-25 626.314,-25 626.314,-6 586.472,-6"/>
<text text-anchor="middle" x="606.393" y="-12.2" font-family="Helvetica,sans-Serif" font-size="11.00">main</text>
</a>
</g>
</g>
<!-- Node125&#45;&gt;Node126 -->
<g id="edge3" class="edge"><title>Node125&#45;&gt;Node126</title>
<path fill="none" stroke="midnightblue" d="M560.811,-15.5C570.306,-15.5 579.148,-15.5 586.413,-15.5"/>
<polygon fill="midnightblue" stroke="midnightblue" points="560.719,-12.0001 550.719,-15.5 560.719,-19.0001 560.719,-12.0001"/>
</g>
</g>
</svg>
