<?xml version="1.0" encoding="UTF-8" standalone="no"?>
<!DOCTYPE svg PUBLIC "-//W3C//DTD SVG 1.1//EN"
 "http://www.w3.org/Graphics/SVG/1.1/DTD/svg11.dtd">
<!-- Generated by graphviz version 2.38.0 (20140413.2041)
 -->
<!-- Title: snowmelt__original::snowmelt_original_calculate Pages: 1 -->
<svg width="278pt" height="50pt"
 viewBox="0.00 0.00 278.39 50.00" xmlns="http://www.w3.org/2000/svg" xmlns:xlink="http://www.w3.org/1999/xlink">
<g id="graph0" class="graph" transform="scale(1 1) rotate(0) translate(4 46)">
<title>snowmelt__original::snowmelt_original_calculate</title>
<polygon fill="white" stroke="none" points="-4,4 -4,-46 274.388,-46 274.388,4 -4,4"/>
<!-- Node1 -->
<g id="node1" class="node"><title>Node1</title>
<polygon fill="#bfbfbf" stroke="black" points="0,-0.5 0,-41.5 110.161,-41.5 110.161,-0.5 0,-0.5"/>
<text text-anchor="start" x="8" y="-28.7" font-family="Helvetica,sans-Serif" font-size="11.00">snowmelt__original</text>
<text text-anchor="start" x="8" y="-17.7" font-family="Helvetica,sans-Serif" font-size="11.00">::snowmelt_original</text>
<text text-anchor="middle" x="55.0803" y="-6.7" font-family="Helvetica,sans-Serif" font-size="11.00">_calculate</text>
</g>
<!-- Node2 -->
<g id="node2" class="node"><title>Node2</title>
<g id="a_node2"><a xlink:href="namespacemodel__domain.html#a71155a627ac7618db7a0058971ae2d37" target="_top" xlink:title="model_domain::model\l_calculate_snowmelt\l_original">
<polygon fill="white" stroke="black" points="146.161,-0.5 146.161,-41.5 270.388,-41.5 270.388,-0.5 146.161,-0.5"/>
<text text-anchor="start" x="154.161" y="-28.7" font-family="Helvetica,sans-Serif" font-size="11.00">model_domain::model</text>
<text text-anchor="start" x="154.161" y="-17.7" font-family="Helvetica,sans-Serif" font-size="11.00">_calculate_snowmelt</text>
<text text-anchor="middle" x="208.274" y="-6.7" font-family="Helvetica,sans-Serif" font-size="11.00">_original</text>
</a>
</g>
</g>
<!-- Node1&#45;&gt;Node2 -->
<g id="edge1" class="edge"><title>Node1&#45;&gt;Node2</title>
<path fill="none" stroke="midnightblue" d="M120.459,-21C128.942,-21 137.617,-21 146.044,-21"/>
<polygon fill="midnightblue" stroke="midnightblue" points="120.238,-17.5001 110.238,-21 120.238,-24.5001 120.238,-17.5001"/>
</g>
</g>
</svg>
