<?xml version="1.0" encoding="UTF-8" standalone="no"?>
<!DOCTYPE svg PUBLIC "-//W3C//DTD SVG 1.1//EN"
 "http://www.w3.org/Graphics/SVG/1.1/DTD/svg11.dtd">
<!-- Generated by graphviz version 2.38.0 (20140413.2041)
 -->
<!-- Title: model_initialize::initialize_landuse_codes Pages: 1 -->
<svg width="279pt" height="66pt"
 viewBox="0.00 0.00 278.99 66.00" xmlns="http://www.w3.org/2000/svg" xmlns:xlink="http://www.w3.org/1999/xlink">
<g id="graph0" class="graph" transform="scale(1 1) rotate(0) translate(4 62)">
<title>model_initialize::initialize_landuse_codes</title>
<polygon fill="white" stroke="none" points="-4,4 -4,-62 274.99,-62 274.99,4 -4,4"/>
<!-- Node185 -->
<g id="node1" class="node"><title>Node185</title>
<polygon fill="#bfbfbf" stroke="black" points="0,-14 0,-44 136.447,-44 136.447,-14 0,-14"/>
<text text-anchor="start" x="8" y="-31.2" font-family="Helvetica,sans-Serif" font-size="11.00">model_initialize::initialize</text>
<text text-anchor="middle" x="68.2234" y="-20.2" font-family="Helvetica,sans-Serif" font-size="11.00">_landuse_codes</text>
</g>
<!-- Node186 -->
<g id="node2" class="node"><title>Node186</title>
<g id="a_node2"><a xlink:href="namespaceexceptions.html#a22a1bf2808fdc249e6b378ee3f221156" target="_top" xlink:title="exceptions::die">
<polygon fill="white" stroke="black" points="177.028,-38.5 177.028,-57.5 266.408,-57.5 266.408,-38.5 177.028,-38.5"/>
<text text-anchor="middle" x="221.718" y="-44.7" font-family="Helvetica,sans-Serif" font-size="11.00">exceptions::die</text>
</a>
</g>
</g>
<!-- Node185&#45;&gt;Node186 -->
<g id="edge1" class="edge"><title>Node185&#45;&gt;Node186</title>
<path fill="none" stroke="midnightblue" d="M136.553,-37.4443C146.641,-38.7095 156.931,-40 166.695,-41.2245"/>
<polygon fill="midnightblue" stroke="midnightblue" points="166.291,-44.7012 176.648,-42.4729 167.162,-37.7556 166.291,-44.7012"/>
</g>
<!-- Node187 -->
<g id="node3" class="node"><title>Node187</title>
<g id="a_node3"><a xlink:href="namespaceexceptions.html#a84dd04476b06e0a398bfe6d106a82a4d" target="_top" xlink:title="exceptions::warn">
<polygon fill="white" stroke="black" points="172.447,-0.5 172.447,-19.5 270.99,-19.5 270.99,-0.5 172.447,-0.5"/>
<text text-anchor="middle" x="221.718" y="-6.7" font-family="Helvetica,sans-Serif" font-size="11.00">exceptions::warn</text>
</a>
</g>
</g>
<!-- Node185&#45;&gt;Node187 -->
<g id="edge2" class="edge"><title>Node185&#45;&gt;Node187</title>
<path fill="none" stroke="midnightblue" d="M136.553,-20.5557C145.093,-19.4847 153.777,-18.3955 162.164,-17.3436"/>
<polygon fill="midnightblue" stroke="midnightblue" points="162.731,-20.8001 172.218,-16.0828 161.86,-13.8545 162.731,-20.8001"/>
</g>
</g>
</svg>
