<?xml version="1.0" encoding="UTF-8" standalone="no"?>
<!DOCTYPE svg PUBLIC "-//W3C//DTD SVG 1.1//EN"
 "http://www.w3.org/Graphics/SVG/1.1/DTD/svg11.dtd">
<!-- Generated by graphviz version 2.38.0 (20140413.2041)
 -->
<!-- Title: model_domain::model_initialize_et_daily_grid Pages: 1 -->
<svg width="411pt" height="50pt"
 viewBox="0.00 0.00 411.14 50.00" xmlns="http://www.w3.org/2000/svg" xmlns:xlink="http://www.w3.org/1999/xlink">
<g id="graph0" class="graph" transform="scale(1 1) rotate(0) translate(4 46)">
<title>model_domain::model_initialize_et_daily_grid</title>
<polygon fill="white" stroke="none" points="-4,4 -4,-46 407.137,-46 407.137,4 -4,4"/>
<!-- Node1 -->
<g id="node1" class="node"><title>Node1</title>
<polygon fill="#bfbfbf" stroke="black" points="0,-6 0,-36 129.738,-36 129.738,-6 0,-6"/>
<text text-anchor="start" x="8" y="-23.2" font-family="Helvetica,sans-Serif" font-size="11.00">model_domain::model</text>
<text text-anchor="middle" x="64.8691" y="-12.2" font-family="Helvetica,sans-Serif" font-size="11.00">_initialize_et_daily_grid</text>
</g>
<!-- Node2 -->
<g id="node2" class="node"><title>Node2</title>
<g id="a_node2"><a xlink:href="namespaceet____gridded__values.html#afe00fc3329ba0727a175b106c3812526" target="_top" xlink:title="et__gridded_values\l::et_gridded_values\l_initialize">
<polygon fill="white" stroke="black" points="165.738,-0.5 165.738,-41.5 277.757,-41.5 277.757,-0.5 165.738,-0.5"/>
<text text-anchor="start" x="173.738" y="-28.7" font-family="Helvetica,sans-Serif" font-size="11.00">et__gridded_values</text>
<text text-anchor="start" x="173.738" y="-17.7" font-family="Helvetica,sans-Serif" font-size="11.00">::et_gridded_values</text>
<text text-anchor="middle" x="221.748" y="-6.7" font-family="Helvetica,sans-Serif" font-size="11.00">_initialize</text>
</a>
</g>
</g>
<!-- Node1&#45;&gt;Node2 -->
<g id="edge1" class="edge"><title>Node1&#45;&gt;Node2</title>
<path fill="none" stroke="midnightblue" d="M129.758,-21C138.17,-21 146.803,-21 155.241,-21"/>
<polygon fill="midnightblue" stroke="midnightblue" points="155.411,-24.5001 165.41,-21 155.41,-17.5001 155.411,-24.5001"/>
</g>
<!-- Node3 -->
<g id="node3" class="node"><title>Node3</title>
<g id="a_node3"><a xlink:href="namespaceexceptions.html#a22a1bf2808fdc249e6b378ee3f221156" target="_top" xlink:title="exceptions::die">
<polygon fill="white" stroke="black" points="313.757,-11.5 313.757,-30.5 403.137,-30.5 403.137,-11.5 313.757,-11.5"/>
<text text-anchor="middle" x="358.447" y="-17.7" font-family="Helvetica,sans-Serif" font-size="11.00">exceptions::die</text>
</a>
</g>
</g>
<!-- Node2&#45;&gt;Node3 -->
<g id="edge2" class="edge"><title>Node2&#45;&gt;Node3</title>
<path fill="none" stroke="midnightblue" d="M277.924,-21C286.395,-21 295.132,-21 303.574,-21"/>
<polygon fill="midnightblue" stroke="midnightblue" points="303.688,-24.5001 313.688,-21 303.688,-17.5001 303.688,-24.5001"/>
</g>
</g>
</svg>
