<?xml version="1.0" encoding="UTF-8" standalone="no"?>
<!DOCTYPE svg PUBLIC "-//W3C//DTD SVG 1.1//EN"
 "http://www.w3.org/Graphics/SVG/1.1/DTD/svg11.dtd">
<!-- Generated by graphviz version 2.38.0 (20140413.2041)
 -->
<!-- Title: netcdf4_support::netcdf_open_and_prepare_as_output Pages: 1 -->
<!--zoomable 648 -->
<svg id="main" version="1.1" xmlns="http://www.w3.org/2000/svg" xmlns:xlink="http://www.w3.org/1999/xlink" xml:space="preserve" onload="init(evt)">
<style type="text/css"><![CDATA[
.edge:hover path { stroke: red; }
.edge:hover polygon { stroke: red; fill: red; }
]]></style>
<script type="text/javascript"><![CDATA[
var edges = document.getElementsByTagName('g');
if (edges && edges.length) {
  for (var i=0;i<edges.length;i++) {
    if (edges[i].id.substr(0,4)=='edge') {
      edges[i].setAttribute('class','edge');
    }
  }
}
]]></script>
        <defs>
                <circle id="rim" cx="0" cy="0" r="7"/>
                <circle id="rim2" cx="0" cy="0" r="3.5"/>
                <g id="zoomPlus">
                        <use xlink:href="#rim" fill="#404040">
                                <set attributeName="fill" to="#808080" begin="zoomplus.mouseover" end="zoomplus.mouseout"/>
                        </use>
                        <path d="M-4,0h8M0,-4v8" fill="none" stroke="white" stroke-width="1.5" pointer-events="none"/>
                </g>
                <g id="zoomMin">
                        <use xlink:href="#rim" fill="#404040">
                                <set attributeName="fill" to="#808080" begin="zoomminus.mouseover" end="zoomminus.mouseout"/>
                        </use>
                        <path d="M-4,0h8" fill="none" stroke="white" stroke-width="1.5" pointer-events="none"/>
                </g>
                <g id="dirArrow">
                        <path fill="none" stroke="white" stroke-width="1.5" d="M0,-3.0v7 M-2.5,-0.5L0,-3.0L2.5,-0.5"/>
                </g>
               <g id="resetDef">
                       <use xlink:href="#rim2" fill="#404040">
                               <set attributeName="fill" to="#808080" begin="reset.mouseover" end="reset.mouseout"/>
                       </use>
               </g>
        </defs>

<script type="text/javascript">
var viewWidth = 910;
var viewHeight = 648;
var sectionId = 'dynsection-12';
</script>
<script xlink:href="svgpan.js"/>
<svg id="graph" class="graph">
<g id="viewport">
<title>netcdf4_support::netcdf_open_and_prepare_as_output</title>
<polygon fill="white" stroke="none" points="-4,4 -4,-644.273 905.617,-644.273 905.617,4 -4,4"/>
<!-- Node132 -->
<g id="node1" class="node"><title>Node132</title>
<polygon fill="#bfbfbf" stroke="black" points="0,-294.5 0,-324.5 169.527,-324.5 169.527,-294.5 0,-294.5"/>
<text text-anchor="start" x="8" y="-311.7" font-family="Helvetica,sans-Serif" font-size="11.00">netcdf4_support::netcdf</text>
<text text-anchor="middle" x="84.7637" y="-300.7" font-family="Helvetica,sans-Serif" font-size="11.00">_open_and_prepare_as_output</text>
</g>
<!-- Node133 -->
<g id="node2" class="node"><title>Node133</title>
<g id="a_node2"><a xlink:href="namespacenetcdf4__support.html#ad6629f4108c3dcd35a20b03a0ef68ba5" target="_top" xlink:title="netcdf4_support::nf\l_create">
<polygon fill="white" stroke="black" points="224.493,-578.5 224.493,-608.5 334.669,-608.5 334.669,-578.5 224.493,-578.5"/>
<text text-anchor="start" x="232.493" y="-595.7" font-family="Helvetica,sans-Serif" font-size="11.00">netcdf4_support::nf</text>
<text text-anchor="middle" x="279.581" y="-584.7" font-family="Helvetica,sans-Serif" font-size="11.00">_create</text>
</a>
</g>
</g>
<!-- Node132&#45;&gt;Node133 -->
<g id="edge1" class="edge"><title>Node132&#45;&gt;Node133</title>
<path fill="none" stroke="midnightblue" d="M89.6614,-324.536C101.026,-365.82 137.69,-482.563 205.527,-553.5 213.102,-561.421 222.596,-568.158 232.208,-573.718"/>
<polygon fill="midnightblue" stroke="midnightblue" points="230.557,-576.804 241.017,-578.493 233.893,-570.65 230.557,-576.804"/>
</g>
<!-- Node137 -->
<g id="node6" class="node"><title>Node137</title>
<g id="a_node6"><a xlink:href="namespacenetcdf4__support.html#a42ab68a9a8bd8347f64339759a7c4714" target="_top" xlink:title="netcdf4_support::nf\l_define_deflate">
<polygon fill="white" stroke="black" points="410.73,-529.5 410.73,-559.5 520.906,-559.5 520.906,-529.5 410.73,-529.5"/>
<text text-anchor="start" x="418.73" y="-546.7" font-family="Helvetica,sans-Serif" font-size="11.00">netcdf4_support::nf</text>
<text text-anchor="middle" x="465.818" y="-535.7" font-family="Helvetica,sans-Serif" font-size="11.00">_define_deflate</text>
</a>
</g>
</g>
<!-- Node132&#45;&gt;Node137 -->
<g id="edge5" class="edge"><title>Node132&#45;&gt;Node137</title>
<path fill="none" stroke="midnightblue" d="M92.2686,-324.56C107.22,-357.334 147.279,-435.398 205.527,-475.5 263.952,-515.724 344.611,-532.508 400.383,-539.507"/>
<polygon fill="midnightblue" stroke="midnightblue" points="400.154,-543.004 410.496,-540.703 400.977,-536.053 400.154,-543.004"/>
</g>
<!-- Node138 -->
<g id="node7" class="node"><title>Node138</title>
<g id="a_node7"><a xlink:href="namespacenetcdf4__support.html#abc5c3dbf8acae163fbfcf84e4cee8ab4" target="_top" xlink:title="netcdf4_support::nf\l_define_dimensions">
<polygon fill="white" stroke="black" points="408.896,-480.5 408.896,-510.5 522.741,-510.5 522.741,-480.5 408.896,-480.5"/>
<text text-anchor="start" x="416.896" y="-497.7" font-family="Helvetica,sans-Serif" font-size="11.00">netcdf4_support::nf</text>
<text text-anchor="middle" x="465.818" y="-486.7" font-family="Helvetica,sans-Serif" font-size="11.00">_define_dimensions</text>
</a>
</g>
</g>
<!-- Node132&#45;&gt;Node138 -->
<g id="edge7" class="edge"><title>Node132&#45;&gt;Node138</title>
<path fill="none" stroke="midnightblue" d="M95.5307,-324.914C113.673,-352.195 155.329,-408.802 205.527,-437.5 265.47,-471.769 343.96,-485.792 398.816,-491.53"/>
<polygon fill="midnightblue" stroke="midnightblue" points="398.48,-495.013 408.774,-492.508 399.164,-488.047 398.48,-495.013"/>
</g>
<!-- Node139 -->
<g id="node8" class="node"><title>Node139</title>
<g id="a_node8"><a xlink:href="namespacenetcdf4__support.html#a3e28f7c215b2a46ef88ce147905b5380" target="_top" xlink:title="netcdf4_support::nf\l_define_variables">
<polygon fill="white" stroke="black" points="410.73,-431.5 410.73,-461.5 520.906,-461.5 520.906,-431.5 410.73,-431.5"/>
<text text-anchor="start" x="418.73" y="-448.7" font-family="Helvetica,sans-Serif" font-size="11.00">netcdf4_support::nf</text>
<text text-anchor="middle" x="465.818" y="-437.7" font-family="Helvetica,sans-Serif" font-size="11.00">_define_variables</text>
</a>
</g>
</g>
<!-- Node132&#45;&gt;Node139 -->
<g id="edge9" class="edge"><title>Node132&#45;&gt;Node139</title>
<path fill="none" stroke="midnightblue" d="M99.1767,-324.549C119.712,-346.52 161.246,-386.889 205.527,-406.5 268.03,-434.181 346.362,-443.153 400.483,-445.84"/>
<polygon fill="midnightblue" stroke="midnightblue" points="400.491,-449.343 410.635,-446.284 400.797,-442.35 400.491,-449.343"/>
</g>
<!-- Node140 -->
<g id="node9" class="node"><title>Node140</title>
<g id="a_node9"><a xlink:href="namespacenetcdf4__support.html#a805e940f20a61297b780e5db8d2f78b7" target="_top" xlink:title="netcdf4_support::nf\l_enddef">
<polygon fill="white" stroke="black" points="410.73,-382.5 410.73,-412.5 520.906,-412.5 520.906,-382.5 410.73,-382.5"/>
<text text-anchor="start" x="418.73" y="-399.7" font-family="Helvetica,sans-Serif" font-size="11.00">netcdf4_support::nf</text>
<text text-anchor="middle" x="465.818" y="-388.7" font-family="Helvetica,sans-Serif" font-size="11.00">_enddef</text>
</a>
</g>
</g>
<!-- Node132&#45;&gt;Node140 -->
<g id="edge11" class="edge"><title>Node132&#45;&gt;Node140</title>
<path fill="none" stroke="midnightblue" d="M103.807,-324.736C126.075,-342.519 165.879,-371.074 205.527,-383.5 269.684,-403.607 347.089,-405.038 400.533,-402.729"/>
<polygon fill="midnightblue" stroke="midnightblue" points="400.74,-406.223 410.558,-402.24 400.399,-399.231 400.74,-406.223"/>
</g>
<!-- Node141 -->
<g id="node10" class="node"><title>Node141</title>
<g id="a_node10"><a xlink:href="namespacenetcdf4__support.html#aa2e8f7506c9fd50f984f1de77bfdc55d" target="_top" xlink:title="netcdf4_support::nf\l_get_variable_id_and_type">
<polygon fill="white" stroke="black" points="205.527,-343.5 205.527,-373.5 353.635,-373.5 353.635,-343.5 205.527,-343.5"/>
<text text-anchor="start" x="213.527" y="-360.7" font-family="Helvetica,sans-Serif" font-size="11.00">netcdf4_support::nf</text>
<text text-anchor="middle" x="279.581" y="-349.7" font-family="Helvetica,sans-Serif" font-size="11.00">_get_variable_id_and_type</text>
</a>
</g>
</g>
<!-- Node132&#45;&gt;Node141 -->
<g id="edge13" class="edge"><title>Node132&#45;&gt;Node141</title>
<path fill="none" stroke="midnightblue" d="M144.926,-324.535C165.377,-329.732 188.471,-335.601 209.638,-340.98"/>
<polygon fill="midnightblue" stroke="midnightblue" points="208.977,-344.423 219.531,-343.494 210.701,-337.639 208.977,-344.423"/>
</g>
<!-- Node143 -->
<g id="node12" class="node"><title>Node143</title>
<g id="a_node12"><a xlink:href="namespacenetcdf4__support.html#a552fe7031185ea4d81868f4d62c44021" target="_top" xlink:title="netcdf4_support::nf\l_put_attributes">
<polygon fill="white" stroke="black" points="224.493,-294.5 224.493,-324.5 334.669,-324.5 334.669,-294.5 224.493,-294.5"/>
<text text-anchor="start" x="232.493" y="-311.7" font-family="Helvetica,sans-Serif" font-size="11.00">netcdf4_support::nf</text>
<text text-anchor="middle" x="279.581" y="-300.7" font-family="Helvetica,sans-Serif" font-size="11.00">_put_attributes</text>
</a>
</g>
</g>
<!-- Node132&#45;&gt;Node143 -->
<g id="edge15" class="edge"><title>Node132&#45;&gt;Node143</title>
<path fill="none" stroke="midnightblue" d="M169.775,-309.5C184.638,-309.5 199.901,-309.5 214.118,-309.5"/>
<polygon fill="midnightblue" stroke="midnightblue" points="214.265,-313 224.265,-309.5 214.265,-306 214.265,-313"/>
</g>
<!-- Node145 -->
<g id="node14" class="node"><title>Node145</title>
<g id="a_node14"><a xlink:href="namespacenetcdf4__support.html#a55a403a10b71ab041dce8511b769f069" target="_top" xlink:title="netcdf4_support::nf\l_put_lat_and_lon">
<polygon fill="white" stroke="black" points="224.493,-245.5 224.493,-275.5 334.669,-275.5 334.669,-245.5 224.493,-245.5"/>
<text text-anchor="start" x="232.493" y="-262.7" font-family="Helvetica,sans-Serif" font-size="11.00">netcdf4_support::nf</text>
<text text-anchor="middle" x="279.581" y="-251.7" font-family="Helvetica,sans-Serif" font-size="11.00">_put_lat_and_lon</text>
</a>
</g>
</g>
<!-- Node132&#45;&gt;Node145 -->
<g id="edge18" class="edge"><title>Node132&#45;&gt;Node145</title>
<path fill="none" stroke="midnightblue" d="M144.926,-294.465C167.009,-288.854 192.172,-282.459 214.664,-276.743"/>
<polygon fill="midnightblue" stroke="midnightblue" points="215.625,-280.11 224.455,-274.255 213.901,-273.326 215.625,-280.11"/>
</g>
<!-- Node147 -->
<g id="node16" class="node"><title>Node147</title>
<g id="a_node16"><a xlink:href="namespacenetcdf4__support.html#a38ce80fb362cea1b8e76451f51e74330" target="_top" xlink:title="netcdf4_support::nf\l_put_x_and_y">
<polygon fill="white" stroke="black" points="224.493,-196.5 224.493,-226.5 334.669,-226.5 334.669,-196.5 224.493,-196.5"/>
<text text-anchor="start" x="232.493" y="-213.7" font-family="Helvetica,sans-Serif" font-size="11.00">netcdf4_support::nf</text>
<text text-anchor="middle" x="279.581" y="-202.7" font-family="Helvetica,sans-Serif" font-size="11.00">_put_x_and_y</text>
</a>
</g>
</g>
<!-- Node132&#45;&gt;Node147 -->
<g id="edge21" class="edge"><title>Node132&#45;&gt;Node147</title>
<path fill="none" stroke="midnightblue" d="M107.469,-294.271C130.865,-278.341 169.592,-253.354 205.527,-236.5 210.187,-234.315 215.091,-232.223 220.063,-230.245"/>
<polygon fill="midnightblue" stroke="midnightblue" points="221.562,-233.42 229.66,-226.588 219.069,-226.878 221.562,-233.42"/>
</g>
<!-- Node149 -->
<g id="node18" class="node"><title>Node149</title>
<g id="a_node18"><a xlink:href="namespacenetcdf4__support.html#a03ebce69c35f3bba94e0a1c50938952b" target="_top" xlink:title="netcdf4_support::nf\l_set_global_attributes">
<polygon fill="white" stroke="black" points="217.765,-147.5 217.765,-177.5 341.397,-177.5 341.397,-147.5 217.765,-147.5"/>
<text text-anchor="start" x="225.765" y="-164.7" font-family="Helvetica,sans-Serif" font-size="11.00">netcdf4_support::nf</text>
<text text-anchor="middle" x="279.581" y="-153.7" font-family="Helvetica,sans-Serif" font-size="11.00">_set_global_attributes</text>
</a>
</g>
</g>
<!-- Node132&#45;&gt;Node149 -->
<g id="edge24" class="edge"><title>Node132&#45;&gt;Node149</title>
<path fill="none" stroke="midnightblue" d="M96.9404,-294.137C116.309,-268.545 158.567,-217.085 205.527,-187.5 208.721,-185.488 212.095,-183.616 215.573,-181.878"/>
<polygon fill="midnightblue" stroke="midnightblue" points="217.324,-184.926 224.964,-177.585 214.414,-178.56 217.324,-184.926"/>
</g>
<!-- Node150 -->
<g id="node19" class="node"><title>Node150</title>
<g id="a_node19"><a xlink:href="namespacenetcdf4__support.html#adfc0607f2466530b3171b1428e5f4d7b" target="_top" xlink:title="netcdf4_support::nf\l_set_standard_attributes">
<polygon fill="white" stroke="black" points="211.041,-98.5 211.041,-128.5 348.121,-128.5 348.121,-98.5 211.041,-98.5"/>
<text text-anchor="start" x="219.041" y="-115.7" font-family="Helvetica,sans-Serif" font-size="11.00">netcdf4_support::nf</text>
<text text-anchor="middle" x="279.581" y="-104.7" font-family="Helvetica,sans-Serif" font-size="11.00">_set_standard_attributes</text>
</a>
</g>
</g>
<!-- Node132&#45;&gt;Node150 -->
<g id="edge25" class="edge"><title>Node132&#45;&gt;Node150</title>
<path fill="none" stroke="midnightblue" d="M92.3582,-294.29C107.488,-261.133 147.881,-181.849 205.527,-138.5 208.018,-136.627 210.659,-134.888 213.403,-133.274"/>
<polygon fill="midnightblue" stroke="midnightblue" points="215.219,-136.274 222.454,-128.534 211.971,-130.072 215.219,-136.274"/>
</g>
<!-- Node151 -->
<g id="node20" class="node"><title>Node151</title>
<g id="a_node20"><a xlink:href="namespacenetcdf4__support.html#a00a0dc30e681bdc43764c0a3cad74075" target="_top" xlink:title="netcdf4_support::nf\l_set_standard_dimensions">
<polygon fill="white" stroke="black" points="205.844,-49.5 205.844,-79.5 353.318,-79.5 353.318,-49.5 205.844,-49.5"/>
<text text-anchor="start" x="213.844" y="-66.7" font-family="Helvetica,sans-Serif" font-size="11.00">netcdf4_support::nf</text>
<text text-anchor="middle" x="279.581" y="-55.7" font-family="Helvetica,sans-Serif" font-size="11.00">_set_standard_dimensions</text>
</a>
</g>
</g>
<!-- Node132&#45;&gt;Node151 -->
<g id="edge26" class="edge"><title>Node132&#45;&gt;Node151</title>
<path fill="none" stroke="midnightblue" d="M89.7071,-294.386C100.852,-254.636 136.359,-146.264 205.527,-88.5 207.064,-87.2164 208.672,-86.0009 210.337,-84.8498"/>
<polygon fill="midnightblue" stroke="midnightblue" points="212.295,-87.7568 219.074,-79.6149 208.697,-81.7521 212.295,-87.7568"/>
</g>
<!-- Node152 -->
<g id="node21" class="node"><title>Node152</title>
<g id="a_node21"><a xlink:href="namespacenetcdf4__support.html#ab39abe545c42ab75fd342e7e90370a60" target="_top" xlink:title="netcdf4_support::nf\l_set_standard_variables">
<polygon fill="white" stroke="black" points="211.653,-0.5 211.653,-30.5 347.509,-30.5 347.509,-0.5 211.653,-0.5"/>
<text text-anchor="start" x="219.653" y="-17.7" font-family="Helvetica,sans-Serif" font-size="11.00">netcdf4_support::nf</text>
<text text-anchor="middle" x="279.581" y="-6.7" font-family="Helvetica,sans-Serif" font-size="11.00">_set_standard_variables</text>
</a>
</g>
</g>
<!-- Node132&#45;&gt;Node152 -->
<g id="edge27" class="edge"><title>Node132&#45;&gt;Node152</title>
<path fill="none" stroke="midnightblue" d="M88.0711,-294.457C95.8195,-249.086 125.097,-112.258 205.527,-39.5 206.821,-38.3301 208.172,-37.2172 209.572,-36.1584"/>
<polygon fill="midnightblue" stroke="midnightblue" points="211.567,-39.0368 218.063,-30.667 207.765,-33.1591 211.567,-39.0368"/>
</g>
<!-- Node134 -->
<g id="node3" class="node"><title>Node134</title>
<g id="a_node3"><a xlink:href="namespacenetcdf4__support.html#ac8c7276a5849ae6d17ffef1787e3f234" target="_top" xlink:title="netcdf4_support::nf_trap">
<polygon fill="white" stroke="black" points="578.001,-412 578.001,-431 713.25,-431 713.25,-412 578.001,-412"/>
<text text-anchor="middle" x="645.626" y="-418.2" font-family="Helvetica,sans-Serif" font-size="11.00">netcdf4_support::nf_trap</text>
</a>
</g>
</g>
<!-- Node133&#45;&gt;Node134 -->
<g id="edge2" class="edge"><title>Node133&#45;&gt;Node134</title>
<path fill="none" stroke="midnightblue" d="M313.965,-608.645C366.606,-630.059 470.276,-662.01 542.001,-618.5 607.239,-578.926 632.937,-482.845 641.245,-441.245"/>
<polygon fill="midnightblue" stroke="midnightblue" points="644.714,-441.734 643.109,-431.261 637.833,-440.449 644.714,-441.734"/>
</g>
<!-- Node136 -->
<g id="node5" class="node"><title>Node136</title>
<g id="a_node5"><a xlink:href="namespaceconstants__and__conversions.html#a7685661976b5b344a61522a38564dab2" target="_top" xlink:title="constants_and_conversions\l::fortran_to_c_string">
<polygon fill="white" stroke="black" points="389.635,-578.5 389.635,-608.5 542.001,-608.5 542.001,-578.5 389.635,-578.5"/>
<text text-anchor="start" x="397.635" y="-595.7" font-family="Helvetica,sans-Serif" font-size="11.00">constants_and_conversions</text>
<text text-anchor="middle" x="465.818" y="-584.7" font-family="Helvetica,sans-Serif" font-size="11.00">::fortran_to_c_string</text>
</a>
</g>
</g>
<!-- Node133&#45;&gt;Node136 -->
<g id="edge4" class="edge"><title>Node133&#45;&gt;Node136</title>
<path fill="none" stroke="midnightblue" d="M334.862,-593.5C348.747,-593.5 364.02,-593.5 379.065,-593.5"/>
<polygon fill="midnightblue" stroke="midnightblue" points="379.425,-597 389.425,-593.5 379.425,-590 379.425,-597"/>
</g>
<!-- Node135 -->
<g id="node4" class="node"><title>Node135</title>
<g id="a_node4"><a xlink:href="namespaceconstants__and__conversions.html#ac13fba285229deab77131132e6f62caf" target="_top" xlink:title="constants_and_conversions\l::char_ptr_to_fortran_string">
<polygon fill="white" stroke="black" points="749.25,-406.5 749.25,-436.5 901.617,-436.5 901.617,-406.5 749.25,-406.5"/>
<text text-anchor="start" x="757.25" y="-423.7" font-family="Helvetica,sans-Serif" font-size="11.00">constants_and_conversions</text>
<text text-anchor="middle" x="825.434" y="-412.7" font-family="Helvetica,sans-Serif" font-size="11.00">::char_ptr_to_fortran_string</text>
</a>
</g>
</g>
<!-- Node134&#45;&gt;Node135 -->
<g id="edge3" class="edge"><title>Node134&#45;&gt;Node135</title>
<path fill="none" stroke="midnightblue" d="M713.341,-421.5C721.699,-421.5 730.336,-421.5 738.93,-421.5"/>
<polygon fill="midnightblue" stroke="midnightblue" points="738.981,-425 748.981,-421.5 738.981,-418 738.981,-425"/>
</g>
<!-- Node137&#45;&gt;Node134 -->
<g id="edge6" class="edge"><title>Node137&#45;&gt;Node134</title>
<path fill="none" stroke="midnightblue" d="M521.115,-530.491C528.37,-527.674 535.531,-524.363 542.001,-520.5 578.781,-498.543 612.725,-461.04 630.864,-439.037"/>
<polygon fill="midnightblue" stroke="midnightblue" points="633.661,-441.145 637.222,-431.167 628.215,-436.746 633.661,-441.145"/>
</g>
<!-- Node138&#45;&gt;Node134 -->
<g id="edge8" class="edge"><title>Node138&#45;&gt;Node134</title>
<path fill="none" stroke="midnightblue" d="M517.323,-480.486C525.641,-477.697 534.116,-474.66 542.001,-471.5 568.364,-460.934 597.37,-446.53 617.799,-435.895"/>
<polygon fill="midnightblue" stroke="midnightblue" points="619.592,-438.907 626.816,-431.156 616.335,-432.71 619.592,-438.907"/>
</g>
<!-- Node139&#45;&gt;Node134 -->
<g id="edge10" class="edge"><title>Node139&#45;&gt;Node134</title>
<path fill="none" stroke="midnightblue" d="M521.132,-438.863C535.794,-436.802 551.942,-434.532 567.59,-432.331"/>
<polygon fill="midnightblue" stroke="midnightblue" points="568.365,-435.757 577.78,-430.899 567.391,-428.825 568.365,-435.757"/>
</g>
<!-- Node140&#45;&gt;Node134 -->
<g id="edge12" class="edge"><title>Node140&#45;&gt;Node134</title>
<path fill="none" stroke="midnightblue" d="M521.132,-404.831C535.794,-406.81 551.942,-408.99 567.59,-411.102"/>
<polygon fill="midnightblue" stroke="midnightblue" points="567.402,-414.608 577.78,-412.477 568.339,-407.671 567.402,-414.608"/>
</g>
<!-- Node142 -->
<g id="node11" class="node"><title>Node142</title>
<g id="a_node11"><a xlink:href="namespaceexceptions.html#a84dd04476b06e0a398bfe6d106a82a4d" target="_top" xlink:title="exceptions::warn">
<polygon fill="white" stroke="black" points="416.547,-344 416.547,-363 515.09,-363 515.09,-344 416.547,-344"/>
<text text-anchor="middle" x="465.818" y="-350.2" font-family="Helvetica,sans-Serif" font-size="11.00">exceptions::warn</text>
</a>
</g>
</g>
<!-- Node141&#45;&gt;Node142 -->
<g id="edge14" class="edge"><title>Node141&#45;&gt;Node142</title>
<path fill="none" stroke="midnightblue" d="M353.661,-356.517C371.132,-356.043 389.559,-355.542 406.277,-355.089"/>
<polygon fill="midnightblue" stroke="midnightblue" points="406.54,-358.583 416.441,-354.813 406.35,-351.586 406.54,-358.583"/>
</g>
<!-- Node144 -->
<g id="node13" class="node"><title>Node144</title>
<g id="a_node13"><a xlink:href="namespacenetcdf4__support.html#ac357b1ab9f92cd64fde8c8863e4b0dfb" target="_top" xlink:title="netcdf4_support::nf\l_put_attribute">
<polygon fill="white" stroke="black" points="410.73,-294.5 410.73,-324.5 520.906,-324.5 520.906,-294.5 410.73,-294.5"/>
<text text-anchor="start" x="418.73" y="-311.7" font-family="Helvetica,sans-Serif" font-size="11.00">netcdf4_support::nf</text>
<text text-anchor="middle" x="465.818" y="-300.7" font-family="Helvetica,sans-Serif" font-size="11.00">_put_attribute</text>
</a>
</g>
</g>
<!-- Node143&#45;&gt;Node144 -->
<g id="edge16" class="edge"><title>Node143&#45;&gt;Node144</title>
<path fill="none" stroke="midnightblue" d="M334.862,-309.5C355.479,-309.5 379.157,-309.5 400.605,-309.5"/>
<polygon fill="midnightblue" stroke="midnightblue" points="400.607,-313 410.607,-309.5 400.607,-306 400.607,-313"/>
</g>
<!-- Node144&#45;&gt;Node134 -->
<g id="edge17" class="edge"><title>Node144&#45;&gt;Node134</title>
<path fill="none" stroke="midnightblue" d="M520.487,-324.523C527.912,-327.406 535.287,-330.725 542.001,-334.5 576.182,-353.714 609.664,-385.139 628.666,-404.499"/>
<polygon fill="midnightblue" stroke="midnightblue" points="626.198,-406.982 635.659,-411.75 631.236,-402.122 626.198,-406.982"/>
</g>
<!-- Node146 -->
<g id="node15" class="node"><title>Node146</title>
<g id="a_node15"><a xlink:href="namespacenetcdf4__support.html#a333198b161c1377afd5dcf5fd4e66713" target="_top" xlink:title="netcdf4_support::netcdf\l_put_variable_array">
<polygon fill="white" stroke="black" points="400.334,-245.5 400.334,-275.5 531.302,-275.5 531.302,-245.5 400.334,-245.5"/>
<text text-anchor="start" x="408.334" y="-262.7" font-family="Helvetica,sans-Serif" font-size="11.00">netcdf4_support::netcdf</text>
<text text-anchor="middle" x="465.818" y="-251.7" font-family="Helvetica,sans-Serif" font-size="11.00">_put_variable_array</text>
</a>
</g>
</g>
<!-- Node145&#45;&gt;Node146 -->
<g id="edge19" class="edge"><title>Node145&#45;&gt;Node146</title>
<path fill="none" stroke="midnightblue" d="M334.862,-260.5C352.147,-260.5 371.583,-260.5 390.053,-260.5"/>
<polygon fill="midnightblue" stroke="midnightblue" points="390.195,-264 400.195,-260.5 390.195,-257 390.195,-264"/>
</g>
<!-- Node146&#45;&gt;Node134 -->
<g id="edge20" class="edge"><title>Node146&#45;&gt;Node134</title>
<path fill="none" stroke="midnightblue" d="M524.441,-275.567C530.643,-278.364 536.638,-281.649 542.001,-285.5 586.063,-317.135 619.658,-373.233 635.173,-402.514"/>
<polygon fill="midnightblue" stroke="midnightblue" points="632.2,-404.385 639.895,-411.669 638.422,-401.177 632.2,-404.385"/>
</g>
<!-- Node148 -->
<g id="node17" class="node"><title>Node148</title>
<g id="a_node17"><a xlink:href="namespacenetcdf4__support.html#a0c16d0db4e8e316fe30746454db8d269" target="_top" xlink:title="netcdf4_support::netcdf\l_put_variable_vector">
<polygon fill="white" stroke="black" points="400.334,-196.5 400.334,-226.5 531.302,-226.5 531.302,-196.5 400.334,-196.5"/>
<text text-anchor="start" x="408.334" y="-213.7" font-family="Helvetica,sans-Serif" font-size="11.00">netcdf4_support::netcdf</text>
<text text-anchor="middle" x="465.818" y="-202.7" font-family="Helvetica,sans-Serif" font-size="11.00">_put_variable_vector</text>
</a>
</g>
</g>
<!-- Node147&#45;&gt;Node148 -->
<g id="edge22" class="edge"><title>Node147&#45;&gt;Node148</title>
<path fill="none" stroke="midnightblue" d="M334.862,-211.5C352.147,-211.5 371.583,-211.5 390.053,-211.5"/>
<polygon fill="midnightblue" stroke="midnightblue" points="390.195,-215 400.195,-211.5 390.195,-208 390.195,-215"/>
</g>
<!-- Node148&#45;&gt;Node134 -->
<g id="edge23" class="edge"><title>Node148&#45;&gt;Node134</title>
<path fill="none" stroke="midnightblue" d="M526.52,-226.586C532.066,-229.36 537.344,-232.635 542.001,-236.5 596.796,-281.971 627.453,-364.665 639.107,-402.13"/>
<polygon fill="midnightblue" stroke="midnightblue" points="635.788,-403.247 642.008,-411.823 642.494,-401.24 635.788,-403.247"/>
</g>
</g>
</svg>
        <g id="navigator" transform="translate(0 0)" fill="#404254">
                <rect fill="#f2f5e9" fill-opacity="0.5" stroke="#606060" stroke-width=".5" x="0" y="0" width="60" height="60"/>
                <use id="zoomplus" xlink:href="#zoomPlus" x="17" y="9" onmousedown="handleZoom(evt,'in')"/>
                <use id="zoomminus" xlink:href="#zoomMin" x="42" y="9" onmousedown="handleZoom(evt,'out')"/>
                <use id="reset" xlink:href="#resetDef" x="30" y="36" onmousedown="handleReset()"/>
                <g id="arrowUp" xlink:href="#dirArrow" transform="translate(30 24)" onmousedown="handlePan(0,-1)">
                  <use xlink:href="#rim" fill="#404040">
                        <set attributeName="fill" to="#808080" begin="arrowUp.mouseover" end="arrowUp.mouseout"/>
                  </use>
                  <path fill="none" stroke="white" stroke-width="1.5" d="M0,-3.0v7 M-2.5,-0.5L0,-3.0L2.5,-0.5"/>
                </g>
                <g id="arrowRight" xlink:href="#dirArrow" transform="rotate(90) translate(36 -43)" onmousedown="handlePan(1,0)">
                  <use xlink:href="#rim" fill="#404040">
                        <set attributeName="fill" to="#808080" begin="arrowRight.mouseover" end="arrowRight.mouseout"/>
                  </use>
                  <path fill="none" stroke="white" stroke-width="1.5" d="M0,-3.0v7 M-2.5,-0.5L0,-3.0L2.5,-0.5"/>
                </g>
                <g id="arrowDown" xlink:href="#dirArrow" transform="rotate(180) translate(-30 -48)" onmousedown="handlePan(0,1)">
                  <use xlink:href="#rim" fill="#404040">
                        <set attributeName="fill" to="#808080" begin="arrowDown.mouseover" end="arrowDown.mouseout"/>
                  </use>
                  <path fill="none" stroke="white" stroke-width="1.5" d="M0,-3.0v7 M-2.5,-0.5L0,-3.0L2.5,-0.5"/>
                </g>
                <g id="arrowLeft" xlink:href="#dirArrow" transform="rotate(270) translate(-36 17)" onmousedown="handlePan(-1,0)">
                  <use xlink:href="#rim" fill="#404040">
                        <set attributeName="fill" to="#808080" begin="arrowLeft.mouseover" end="arrowLeft.mouseout"/>
                  </use>
                  <path fill="none" stroke="white" stroke-width="1.5" d="M0,-3.0v7 M-2.5,-0.5L0,-3.0L2.5,-0.5"/>
                </g>
        </g>
        <svg viewBox="0 0 15 15" width="100%" height="30px" preserveAspectRatio="xMaxYMin meet">
         <g id="arrow_out" transform="scale(0.3 0.3)">
          <a xlink:href="namespacenetcdf4__support_a4bc9b9f951c1dc1cc1f50ba727794071_cgraph_org.svg" target="_base">
           <rect id="button" ry="5" rx="5" y="6" x="6" height="38" width="38"
                fill="#f2f5e9" fill-opacity="0.5" stroke="#606060" stroke-width="1.0"/>
           <path id="arrow"
             d="M 11.500037,31.436501 C 11.940474,20.09759 22.043105,11.32322 32.158766,21.979434 L 37.068811,17.246167 C 37.068811,17.246167 37.088388,32 37.088388,32 L 22.160133,31.978069 C 22.160133,31.978069 26.997745,27.140456 26.997745,27.140456 C 18.528582,18.264221 13.291696,25.230495 11.500037,31.436501 z"
             style="fill:#404040;"/>
          </a>
         </g>
        </svg>
</svg>
