<?xml version="1.0" encoding="UTF-8" standalone="no"?>
<!DOCTYPE svg PUBLIC "-//W3C//DTD SVG 1.1//EN"
 "http://www.w3.org/Graphics/SVG/1.1/DTD/svg11.dtd">
<!-- Generated by graphviz version 2.38.0 (20140413.2041)
 -->
<!-- Title: file_operations::fully_qualified_filename Pages: 1 -->
<svg width="286pt" height="258pt"
 viewBox="0.00 0.00 285.74 258.00" xmlns="http://www.w3.org/2000/svg" xmlns:xlink="http://www.w3.org/1999/xlink">
<g id="graph0" class="graph" transform="scale(1 1) rotate(0) translate(4 254)">
<title>file_operations::fully_qualified_filename</title>
<polygon fill="white" stroke="none" points="-4,4 -4,-254 281.741,-254 281.741,4 -4,4"/>
<!-- Node33 -->
<g id="node1" class="node"><title>Node33</title>
<polygon fill="#bfbfbf" stroke="black" points="0,-104.5 0,-134.5 113.222,-134.5 113.222,-104.5 0,-104.5"/>
<text text-anchor="start" x="8" y="-121.7" font-family="Helvetica,sans-Serif" font-size="11.00">file_operations::fully</text>
<text text-anchor="middle" x="56.6111" y="-110.7" font-family="Helvetica,sans-Serif" font-size="11.00">_qualified_filename</text>
</g>
<!-- Node34 -->
<g id="node2" class="node"><title>Node34</title>
<g id="a_node2"><a xlink:href="namespacefile__operations.html#a15d1f86957ab49f6a337829ae4b893b2" target="_top" xlink:title="file_operations::does\l_file_exist_fn">
<polygon fill="white" stroke="black" points="154.725,-219.5 154.725,-249.5 272.239,-249.5 272.239,-219.5 154.725,-219.5"/>
<text text-anchor="start" x="162.725" y="-236.7" font-family="Helvetica,sans-Serif" font-size="11.00">file_operations::does</text>
<text text-anchor="middle" x="213.482" y="-225.7" font-family="Helvetica,sans-Serif" font-size="11.00">_file_exist_fn</text>
</a>
</g>
</g>
<!-- Node33&#45;&gt;Node34 -->
<g id="edge1" class="edge"><title>Node33&#45;&gt;Node34</title>
<path fill="none" stroke="midnightblue" d="M76.302,-142.482C93.5101,-162.417 120.635,-190.916 149.222,-209.5 154.965,-213.233 161.352,-216.558 167.798,-219.468"/>
<polygon fill="midnightblue" stroke="midnightblue" points="78.9104,-140.146 69.7762,-134.778 73.5691,-144.671 78.9104,-140.146"/>
</g>
<!-- Node35 -->
<g id="node3" class="node"><title>Node35</title>
<g id="a_node3"><a xlink:href="namespacedata__catalog__entry.html#afa55f20583261f5e940eafeecbb4b27a" target="_top" xlink:title="data_catalog_entry\l::initialize_gridded\l_data_object_sub">
<polygon fill="white" stroke="black" points="158.697,-159 158.697,-200 268.267,-200 268.267,-159 158.697,-159"/>
<text text-anchor="start" x="166.697" y="-187.2" font-family="Helvetica,sans-Serif" font-size="11.00">data_catalog_entry</text>
<text text-anchor="start" x="166.697" y="-176.2" font-family="Helvetica,sans-Serif" font-size="11.00">::initialize_gridded</text>
<text text-anchor="middle" x="213.482" y="-165.2" font-family="Helvetica,sans-Serif" font-size="11.00">_data_object_sub</text>
</a>
</g>
</g>
<!-- Node33&#45;&gt;Node35 -->
<g id="edge2" class="edge"><title>Node33&#45;&gt;Node35</title>
<path fill="none" stroke="midnightblue" d="M106.345,-138.38C123.205,-144.912 142.18,-152.264 159.374,-158.925"/>
<polygon fill="midnightblue" stroke="midnightblue" points="107.281,-134.99 96.6915,-134.641 104.752,-141.517 107.281,-134.99"/>
</g>
<!-- Node36 -->
<g id="node4" class="node"><title>Node36</title>
<g id="a_node4"><a xlink:href="namespacedata__catalog__entry.html#a31b67392fa06e1353337a50f04c3f7c1" target="_top" xlink:title="data_catalog_entry\l::initialize_netcdf\l_data_object_sub">
<polygon fill="white" stroke="black" points="158.697,-99 158.697,-140 268.267,-140 268.267,-99 158.697,-99"/>
<text text-anchor="start" x="166.697" y="-127.2" font-family="Helvetica,sans-Serif" font-size="11.00">data_catalog_entry</text>
<text text-anchor="start" x="166.697" y="-116.2" font-family="Helvetica,sans-Serif" font-size="11.00">::initialize_netcdf</text>
<text text-anchor="middle" x="213.482" y="-105.2" font-family="Helvetica,sans-Serif" font-size="11.00">_data_object_sub</text>
</a>
</g>
</g>
<!-- Node33&#45;&gt;Node36 -->
<g id="edge3" class="edge"><title>Node33&#45;&gt;Node36</title>
<path fill="none" stroke="midnightblue" d="M123.62,-119.5C135.243,-119.5 147.218,-119.5 158.465,-119.5"/>
<polygon fill="midnightblue" stroke="midnightblue" points="123.523,-116 113.523,-119.5 123.523,-123 123.523,-116"/>
</g>
<!-- Node37 -->
<g id="node5" class="node"><title>Node37</title>
<g id="a_node5"><a xlink:href="namespacefile__operations.html#aacd9e77c4953683ad68306612045de76" target="_top" xlink:title="file_operations::open\l_file_read_access_sub">
<polygon fill="white" stroke="black" points="149.222,-49.5 149.222,-79.5 277.741,-79.5 277.741,-49.5 149.222,-49.5"/>
<text text-anchor="start" x="157.222" y="-66.7" font-family="Helvetica,sans-Serif" font-size="11.00">file_operations::open</text>
<text text-anchor="middle" x="213.482" y="-55.7" font-family="Helvetica,sans-Serif" font-size="11.00">_file_read_access_sub</text>
</a>
</g>
</g>
<!-- Node33&#45;&gt;Node37 -->
<g id="edge4" class="edge"><title>Node33&#45;&gt;Node37</title>
<path fill="none" stroke="midnightblue" d="M109.404,-101.107C129.166,-94.0883 151.441,-86.1778 170.214,-79.5108"/>
<polygon fill="midnightblue" stroke="midnightblue" points="108.182,-97.8262 99.9302,-104.471 110.525,-104.423 108.182,-97.8262"/>
</g>
<!-- Node38 -->
<g id="node6" class="node"><title>Node38</title>
<g id="a_node6"><a xlink:href="namespacefile__operations.html#a388b20fef1ab65c64e7708c7f7e73b30" target="_top" xlink:title="file_operations::write\l_line_of_data_sub">
<polygon fill="white" stroke="black" points="155.039,-0.5 155.039,-30.5 271.924,-30.5 271.924,-0.5 155.039,-0.5"/>
<text text-anchor="start" x="163.039" y="-17.7" font-family="Helvetica,sans-Serif" font-size="11.00">file_operations::write</text>
<text text-anchor="middle" x="213.482" y="-6.7" font-family="Helvetica,sans-Serif" font-size="11.00">_line_of_data_sub</text>
</a>
</g>
</g>
<!-- Node33&#45;&gt;Node38 -->
<g id="edge5" class="edge"><title>Node33&#45;&gt;Node38</title>
<path fill="none" stroke="midnightblue" d="M79.3991,-96.9563C96.99,-79.7326 123.042,-56.3354 149.222,-40.5 155.285,-36.8329 161.981,-33.5115 168.68,-30.5751"/>
<polygon fill="midnightblue" stroke="midnightblue" points="76.5558,-94.8486 71.9422,-104.386 81.4965,-99.8073 76.5558,-94.8486"/>
</g>
</g>
</svg>
