<?xml version="1.0" encoding="UTF-8" standalone="no"?>
<!DOCTYPE svg PUBLIC "-//W3C//DTD SVG 1.1//EN"
 "http://www.w3.org/Graphics/SVG/1.1/DTD/svg11.dtd">
<!-- Generated by graphviz version 2.38.0 (20140413.2041)
 -->
<!-- Title: growing_season::growing_season_update Pages: 1 -->
<svg width="327pt" height="39pt"
 viewBox="0.00 0.00 326.73 39.00" xmlns="http://www.w3.org/2000/svg" xmlns:xlink="http://www.w3.org/1999/xlink">
<g id="graph0" class="graph" transform="scale(1 1) rotate(0) translate(4 35)">
<title>growing_season::growing_season_update</title>
<polygon fill="white" stroke="none" points="-4,4 -4,-35 322.733,-35 322.733,4 -4,4"/>
<!-- Node1 -->
<g id="node1" class="node"><title>Node1</title>
<polygon fill="#bfbfbf" stroke="black" points="0,-0.5 0,-30.5 140.744,-30.5 140.744,-0.5 0,-0.5"/>
<text text-anchor="start" x="8" y="-17.7" font-family="Helvetica,sans-Serif" font-size="11.00">growing_season::growing</text>
<text text-anchor="middle" x="70.3718" y="-6.7" font-family="Helvetica,sans-Serif" font-size="11.00">_season_update</text>
</g>
<!-- Node2 -->
<g id="node2" class="node"><title>Node2</title>
<g id="a_node2"><a xlink:href="namespacemodel__domain.html#ae39eafd2f7a12e47b1b63ad22f03fcc8" target="_top" xlink:title="model_domain::model\l_update_growing_season">
<polygon fill="white" stroke="black" points="176.744,-0.5 176.744,-30.5 318.733,-30.5 318.733,-0.5 176.744,-0.5"/>
<text text-anchor="start" x="184.744" y="-17.7" font-family="Helvetica,sans-Serif" font-size="11.00">model_domain::model</text>
<text text-anchor="middle" x="247.739" y="-6.7" font-family="Helvetica,sans-Serif" font-size="11.00">_update_growing_season</text>
</a>
</g>
</g>
<!-- Node1&#45;&gt;Node2 -->
<g id="edge1" class="edge"><title>Node1&#45;&gt;Node2</title>
<path fill="none" stroke="midnightblue" d="M150.946,-15.5C159.533,-15.5 168.224,-15.5 176.687,-15.5"/>
<polygon fill="midnightblue" stroke="midnightblue" points="150.933,-12.0001 140.933,-15.5 150.933,-19.0001 150.933,-12.0001"/>
</g>
</g>
</svg>
