<?xml version="1.0" encoding="UTF-8" standalone="no"?>
<!DOCTYPE svg PUBLIC "-//W3C//DTD SVG 1.1//EN"
 "http://www.w3.org/Graphics/SVG/1.1/DTD/svg11.dtd">
<!-- Generated by graphviz version 2.38.0 (20140413.2041)
 -->
<!-- Title: model_domain::model_calculate_maximum_potential_recharge_gridded Pages: 1 -->
<svg width="374pt" height="50pt"
 viewBox="0.00 0.00 373.79 50.00" xmlns="http://www.w3.org/2000/svg" xmlns:xlink="http://www.w3.org/1999/xlink">
<g id="graph0" class="graph" transform="scale(1 1) rotate(0) translate(4 46)">
<title>model_domain::model_calculate_maximum_potential_recharge_gridded</title>
<polygon fill="white" stroke="none" points="-4,4 -4,-46 369.795,-46 369.795,4 -4,4"/>
<!-- Node441 -->
<g id="node1" class="node"><title>Node441</title>
<polygon fill="#bfbfbf" stroke="black" points="0,-0.5 0,-41.5 167.024,-41.5 167.024,-0.5 0,-0.5"/>
<text text-anchor="start" x="8" y="-28.7" font-family="Helvetica,sans-Serif" font-size="11.00">model_domain::model</text>
<text text-anchor="start" x="8" y="-17.7" font-family="Helvetica,sans-Serif" font-size="11.00">_calculate_maximum_potential</text>
<text text-anchor="middle" x="83.5122" y="-6.7" font-family="Helvetica,sans-Serif" font-size="11.00">_recharge_gridded</text>
</g>
<!-- Node442 -->
<g id="node2" class="node"><title>Node442</title>
<g id="a_node2"><a xlink:href="namespacemaximum__potential__recharge____gridded__data.html#a41ba653e4ee6822b557cc12453d2bc53" target="_top" xlink:title="maximum_potential_recharge\l__gridded_data::maximum\l_potential_recharge_calculate">
<polygon fill="white" stroke="black" points="203.024,-0.5 203.024,-41.5 365.795,-41.5 365.795,-0.5 203.024,-0.5"/>
<text text-anchor="start" x="211.024" y="-28.7" font-family="Helvetica,sans-Serif" font-size="11.00">maximum_potential_recharge</text>
<text text-anchor="start" x="211.024" y="-17.7" font-family="Helvetica,sans-Serif" font-size="11.00">__gridded_data::maximum</text>
<text text-anchor="middle" x="284.41" y="-6.7" font-family="Helvetica,sans-Serif" font-size="11.00">_potential_recharge_calculate</text>
</a>
</g>
</g>
<!-- Node441&#45;&gt;Node442 -->
<g id="edge1" class="edge"><title>Node441&#45;&gt;Node442</title>
<path fill="none" stroke="midnightblue" d="M167.135,-21C175.65,-21 184.335,-21 192.929,-21"/>
<polygon fill="midnightblue" stroke="midnightblue" points="192.962,-24.5001 202.962,-21 192.962,-17.5001 192.962,-24.5001"/>
</g>
</g>
</svg>
