<?xml version="1.0" encoding="UTF-8" standalone="no"?>
<!DOCTYPE svg PUBLIC "-//W3C//DTD SVG 1.1//EN"
 "http://www.w3.org/Graphics/SVG/1.1/DTD/svg11.dtd">
<!-- Generated by graphviz version 2.38.0 (20140413.2041)
 -->
<!-- Title: actual_et__thornthwaite_mather_eqns::calculate_actual_et_thornthwaite_mather_eqns Pages: 1 -->
<svg width="520pt" height="61pt"
 viewBox="0.00 0.00 519.97 61.00" xmlns="http://www.w3.org/2000/svg" xmlns:xlink="http://www.w3.org/1999/xlink">
<g id="graph0" class="graph" transform="scale(1 1) rotate(0) translate(4 57)">
<title>actual_et__thornthwaite_mather_eqns::calculate_actual_et_thornthwaite_mather_eqns</title>
<polygon fill="white" stroke="none" points="-4,4 -4,-57 515.966,-57 515.966,4 -4,4"/>
<!-- Node1 -->
<g id="node1" class="node"><title>Node1</title>
<polygon fill="#bfbfbf" stroke="black" points="0,-0.5 0,-52.5 135.851,-52.5 135.851,-0.5 0,-0.5"/>
<text text-anchor="start" x="8" y="-39.7" font-family="Helvetica,sans-Serif" font-size="11.00">actual_et__thornthwaite</text>
<text text-anchor="start" x="8" y="-28.7" font-family="Helvetica,sans-Serif" font-size="11.00">_mather_eqns::calculate</text>
<text text-anchor="start" x="8" y="-17.7" font-family="Helvetica,sans-Serif" font-size="11.00">_actual_et_thornthwaite</text>
<text text-anchor="middle" x="67.9253" y="-6.7" font-family="Helvetica,sans-Serif" font-size="11.00">_mather_eqns</text>
</g>
<!-- Node2 -->
<g id="node2" class="node"><title>Node2</title>
<g id="a_node2"><a xlink:href="namespacemodel__domain.html#a5ec52fa20f4e08cd60a0e93811993bba" target="_top" xlink:title="model_domain::model\l_calculate_actual_et\l_thornthwaite_mather_eqns">
<polygon fill="white" stroke="black" points="171.851,-6 171.851,-47 324.217,-47 324.217,-6 171.851,-6"/>
<text text-anchor="start" x="179.851" y="-34.2" font-family="Helvetica,sans-Serif" font-size="11.00">model_domain::model</text>
<text text-anchor="start" x="179.851" y="-23.2" font-family="Helvetica,sans-Serif" font-size="11.00">_calculate_actual_et</text>
<text text-anchor="middle" x="248.034" y="-12.2" font-family="Helvetica,sans-Serif" font-size="11.00">_thornthwaite_mather_eqns</text>
</a>
</g>
</g>
<!-- Node1&#45;&gt;Node2 -->
<g id="edge1" class="edge"><title>Node1&#45;&gt;Node2</title>
<path fill="none" stroke="midnightblue" d="M146.21,-26.5C154.651,-26.5 163.235,-26.5 171.652,-26.5"/>
<polygon fill="midnightblue" stroke="midnightblue" points="146.007,-23.0001 136.007,-26.5 146.007,-30.0001 146.007,-23.0001"/>
</g>
<!-- Node3 -->
<g id="node3" class="node"><title>Node3</title>
<g id="a_node3"><a xlink:href="namespacemodel__domain.html#aac78dbf26ba37cf86ebed4edd7acf89b" target="_top" xlink:title="model_domain::set_method\l_pointers_sub">
<polygon fill="white" stroke="black" points="360.217,-11.5 360.217,-41.5 511.966,-41.5 511.966,-11.5 360.217,-11.5"/>
<text text-anchor="start" x="368.217" y="-28.7" font-family="Helvetica,sans-Serif" font-size="11.00">model_domain::set_method</text>
<text text-anchor="middle" x="436.092" y="-17.7" font-family="Helvetica,sans-Serif" font-size="11.00">_pointers_sub</text>
</a>
</g>
</g>
<!-- Node2&#45;&gt;Node3 -->
<g id="edge2" class="edge"><title>Node2&#45;&gt;Node3</title>
<path fill="none" stroke="midnightblue" d="M334.462,-26.5C343.046,-26.5 351.717,-26.5 360.18,-26.5"/>
<polygon fill="midnightblue" stroke="midnightblue" points="334.443,-23.0001 324.443,-26.5 334.443,-30.0001 334.443,-23.0001"/>
</g>
</g>
</svg>
