<?xml version="1.0" encoding="UTF-8" standalone="no"?>
<!DOCTYPE svg PUBLIC "-//W3C//DTD SVG 1.1//EN"
 "http://www.w3.org/Graphics/SVG/1.1/DTD/svg11.dtd">
<!-- Generated by graphviz version 2.38.0 (20140413.2041)
 -->
<!-- Title: awc__gridded_values::awc_gridded_values_initialize Pages: 1 -->
<svg width="488pt" height="50pt"
 viewBox="0.00 0.00 488.19 50.00" xmlns="http://www.w3.org/2000/svg" xmlns:xlink="http://www.w3.org/1999/xlink">
<g id="graph0" class="graph" transform="scale(1 1) rotate(0) translate(4 46)">
<title>awc__gridded_values::awc_gridded_values_initialize</title>
<polygon fill="white" stroke="none" points="-4,4 -4,-46 484.186,-46 484.186,4 -4,4"/>
<!-- Node1 -->
<g id="node1" class="node"><title>Node1</title>
<polygon fill="#bfbfbf" stroke="black" points="0,-0.5 0,-41.5 122.407,-41.5 122.407,-0.5 0,-0.5"/>
<text text-anchor="start" x="8" y="-28.7" font-family="Helvetica,sans-Serif" font-size="11.00">awc__gridded_values</text>
<text text-anchor="start" x="8" y="-17.7" font-family="Helvetica,sans-Serif" font-size="11.00">::awc_gridded_values</text>
<text text-anchor="middle" x="61.2034" y="-6.7" font-family="Helvetica,sans-Serif" font-size="11.00">_initialize</text>
</g>
<!-- Node2 -->
<g id="node2" class="node"><title>Node2</title>
<g id="a_node2"><a xlink:href="namespacemodel__domain.html#a432c26406d91c1ce9628cbcdf8348a34" target="_top" xlink:title="model_domain::model\l_initialize_available\l_water_content_gridded">
<polygon fill="white" stroke="black" points="158.407,-0.5 158.407,-41.5 292.437,-41.5 292.437,-0.5 158.407,-0.5"/>
<text text-anchor="start" x="166.407" y="-28.7" font-family="Helvetica,sans-Serif" font-size="11.00">model_domain::model</text>
<text text-anchor="start" x="166.407" y="-17.7" font-family="Helvetica,sans-Serif" font-size="11.00">_initialize_available</text>
<text text-anchor="middle" x="225.422" y="-6.7" font-family="Helvetica,sans-Serif" font-size="11.00">_water_content_gridded</text>
</a>
</g>
</g>
<!-- Node1&#45;&gt;Node2 -->
<g id="edge1" class="edge"><title>Node1&#45;&gt;Node2</title>
<path fill="none" stroke="midnightblue" d="M132.812,-21C141.261,-21 149.864,-21 158.248,-21"/>
<polygon fill="midnightblue" stroke="midnightblue" points="132.607,-17.5001 122.607,-21 132.607,-24.5001 132.607,-17.5001"/>
</g>
<!-- Node3 -->
<g id="node3" class="node"><title>Node3</title>
<g id="a_node3"><a xlink:href="namespacemodel__domain.html#aac78dbf26ba37cf86ebed4edd7acf89b" target="_top" xlink:title="model_domain::set_method\l_pointers_sub">
<polygon fill="white" stroke="black" points="328.437,-6 328.437,-36 480.186,-36 480.186,-6 328.437,-6"/>
<text text-anchor="start" x="336.437" y="-23.2" font-family="Helvetica,sans-Serif" font-size="11.00">model_domain::set_method</text>
<text text-anchor="middle" x="404.311" y="-12.2" font-family="Helvetica,sans-Serif" font-size="11.00">_pointers_sub</text>
</a>
</g>
</g>
<!-- Node2&#45;&gt;Node3 -->
<g id="edge2" class="edge"><title>Node2&#45;&gt;Node3</title>
<path fill="none" stroke="midnightblue" d="M302.785,-21C311.262,-21 319.891,-21 328.351,-21"/>
<polygon fill="midnightblue" stroke="midnightblue" points="302.54,-17.5001 292.54,-21 302.54,-24.5001 302.54,-17.5001"/>
</g>
</g>
</svg>
