<?xml version="1.0" encoding="UTF-8" standalone="no"?>
<!DOCTYPE svg PUBLIC "-//W3C//DTD SVG 1.1//EN"
 "http://www.w3.org/Graphics/SVG/1.1/DTD/svg11.dtd">
<!-- Generated by graphviz version 2.38.0 (20140413.2041)
 -->
<!-- Title: continuous_frozen_ground_index::update_continuous_frozen_ground_index Pages: 1 -->
<svg width="317pt" height="50pt"
 viewBox="0.00 0.00 316.97 50.00" xmlns="http://www.w3.org/2000/svg" xmlns:xlink="http://www.w3.org/1999/xlink">
<g id="graph0" class="graph" transform="scale(1 1) rotate(0) translate(4 46)">
<title>continuous_frozen_ground_index::update_continuous_frozen_ground_index</title>
<polygon fill="white" stroke="none" points="-4,4 -4,-46 312.969,-46 312.969,4 -4,4"/>
<!-- Node5 -->
<g id="node1" class="node"><title>Node5</title>
<polygon fill="#bfbfbf" stroke="black" points="0,-0.5 0,-41.5 147.495,-41.5 147.495,-0.5 0,-0.5"/>
<text text-anchor="start" x="8" y="-28.7" font-family="Helvetica,sans-Serif" font-size="11.00">continuous_frozen_ground</text>
<text text-anchor="start" x="8" y="-17.7" font-family="Helvetica,sans-Serif" font-size="11.00">_index::update_continuous</text>
<text text-anchor="middle" x="73.7476" y="-6.7" font-family="Helvetica,sans-Serif" font-size="11.00">_frozen_ground_index</text>
</g>
<!-- Node6 -->
<g id="node2" class="node"><title>Node6</title>
<g id="a_node2"><a xlink:href="namespacemodel__domain.html#ad47dffbb70494e6fb64ab855b0359991" target="_top" xlink:title="model_domain::model\l_calculate_continuous\l_frozen_ground_index">
<polygon fill="white" stroke="black" points="183.495,-0.5 183.495,-41.5 308.969,-41.5 308.969,-0.5 183.495,-0.5"/>
<text text-anchor="start" x="191.495" y="-28.7" font-family="Helvetica,sans-Serif" font-size="11.00">model_domain::model</text>
<text text-anchor="start" x="191.495" y="-17.7" font-family="Helvetica,sans-Serif" font-size="11.00">_calculate_continuous</text>
<text text-anchor="middle" x="246.232" y="-6.7" font-family="Helvetica,sans-Serif" font-size="11.00">_frozen_ground_index</text>
</a>
</g>
</g>
<!-- Node5&#45;&gt;Node6 -->
<g id="edge1" class="edge"><title>Node5&#45;&gt;Node6</title>
<path fill="none" stroke="midnightblue" d="M157.68,-21C166.346,-21 175.044,-21 183.416,-21"/>
<polygon fill="midnightblue" stroke="midnightblue" points="157.543,-17.5001 147.543,-21 157.543,-24.5001 157.543,-17.5001"/>
</g>
</g>
</svg>
