<?xml version="1.0" encoding="UTF-8" standalone="no"?>
<!DOCTYPE svg PUBLIC "-//W3C//DTD SVG 1.1//EN"
 "http://www.w3.org/Graphics/SVG/1.1/DTD/svg11.dtd">
<!-- Generated by graphviz version 2.38.0 (20140413.2041)
 -->
<!-- Title: precipitation__method_of_fragments::precipitation_method_of_fragments_initialize Pages: 1 -->
<svg width="546pt" height="50pt"
 viewBox="0.00 0.00 546.25 50.00" xmlns="http://www.w3.org/2000/svg" xmlns:xlink="http://www.w3.org/1999/xlink">
<g id="graph0" class="graph" transform="scale(1 1) rotate(0) translate(4 46)">
<title>precipitation__method_of_fragments::precipitation_method_of_fragments_initialize</title>
<polygon fill="white" stroke="none" points="-4,4 -4,-46 542.252,-46 542.252,4 -4,4"/>
<!-- Node1 -->
<g id="node1" class="node"><title>Node1</title>
<polygon fill="#bfbfbf" stroke="black" points="0,-0.5 0,-41.5 174.372,-41.5 174.372,-0.5 0,-0.5"/>
<text text-anchor="start" x="8" y="-28.7" font-family="Helvetica,sans-Serif" font-size="11.00">precipitation__method</text>
<text text-anchor="start" x="8" y="-17.7" font-family="Helvetica,sans-Serif" font-size="11.00">_of_fragments::precipitation</text>
<text text-anchor="middle" x="87.186" y="-6.7" font-family="Helvetica,sans-Serif" font-size="11.00">_method_of_fragments_initialize</text>
</g>
<!-- Node2 -->
<g id="node2" class="node"><title>Node2</title>
<g id="a_node2"><a xlink:href="namespacemodel__domain.html#a1a4353c536673d3273b23cfc14580194" target="_top" xlink:title="model_domain::model\l_initialize_precip_method\l_of_fragments">
<polygon fill="white" stroke="black" points="210.372,-0.5 210.372,-41.5 350.503,-41.5 350.503,-0.5 210.372,-0.5"/>
<text text-anchor="start" x="218.372" y="-28.7" font-family="Helvetica,sans-Serif" font-size="11.00">model_domain::model</text>
<text text-anchor="start" x="218.372" y="-17.7" font-family="Helvetica,sans-Serif" font-size="11.00">_initialize_precip_method</text>
<text text-anchor="middle" x="280.438" y="-6.7" font-family="Helvetica,sans-Serif" font-size="11.00">_of_fragments</text>
</a>
</g>
</g>
<!-- Node1&#45;&gt;Node2 -->
<g id="edge1" class="edge"><title>Node1&#45;&gt;Node2</title>
<path fill="none" stroke="midnightblue" d="M184.715,-21C193.36,-21 201.995,-21 210.337,-21"/>
<polygon fill="midnightblue" stroke="midnightblue" points="184.58,-17.5001 174.58,-21 184.58,-24.5001 184.58,-17.5001"/>
</g>
<!-- Node3 -->
<g id="node3" class="node"><title>Node3</title>
<g id="a_node3"><a xlink:href="namespacemodel__domain.html#aac78dbf26ba37cf86ebed4edd7acf89b" target="_top" xlink:title="model_domain::set_method\l_pointers_sub">
<polygon fill="white" stroke="black" points="386.503,-6 386.503,-36 538.252,-36 538.252,-6 386.503,-6"/>
<text text-anchor="start" x="394.503" y="-23.2" font-family="Helvetica,sans-Serif" font-size="11.00">model_domain::set_method</text>
<text text-anchor="middle" x="462.378" y="-12.2" font-family="Helvetica,sans-Serif" font-size="11.00">_pointers_sub</text>
</a>
</g>
</g>
<!-- Node2&#45;&gt;Node3 -->
<g id="edge2" class="edge"><title>Node2&#45;&gt;Node3</title>
<path fill="none" stroke="midnightblue" d="M360.983,-21C369.441,-21 378.022,-21 386.424,-21"/>
<polygon fill="midnightblue" stroke="midnightblue" points="360.75,-17.5001 350.75,-21 360.75,-24.5001 360.75,-17.5001"/>
</g>
</g>
</svg>
