<?xml version="1.0" encoding="UTF-8" standalone="no"?>
<!DOCTYPE svg PUBLIC "-//W3C//DTD SVG 1.1//EN"
 "http://www.w3.org/Graphics/SVG/1.1/DTD/svg11.dtd">
<!-- Generated by graphviz version 2.38.0 (20140413.2041)
 -->
<!-- Title: model_initialize::initialize_soils_landuse_awc_flowdir_values Pages: 1 -->
<svg width="464pt" height="39pt"
 viewBox="0.00 0.00 463.68 39.00" xmlns="http://www.w3.org/2000/svg" xmlns:xlink="http://www.w3.org/1999/xlink">
<g id="graph0" class="graph" transform="scale(1 1) rotate(0) translate(4 35)">
<title>model_initialize::initialize_soils_landuse_awc_flowdir_values</title>
<polygon fill="white" stroke="none" points="-4,4 -4,-35 459.683,-35 459.683,4 -4,4"/>
<!-- Node50 -->
<g id="node1" class="node"><title>Node50</title>
<polygon fill="#bfbfbf" stroke="black" points="0,-0.5 0,-30.5 190.271,-30.5 190.271,-0.5 0,-0.5"/>
<text text-anchor="start" x="8" y="-17.7" font-family="Helvetica,sans-Serif" font-size="11.00">model_initialize::initialize</text>
<text text-anchor="middle" x="95.1353" y="-6.7" font-family="Helvetica,sans-Serif" font-size="11.00">_soils_landuse_awc_flowdir_values</text>
</g>
<!-- Node51 -->
<g id="node2" class="node"><title>Node51</title>
<g id="a_node2"><a xlink:href="namespacemodel__initialize.html#a46370bf2e9ea112d1f219277ba7fd3ce" target="_top" xlink:title="model_initialize::initialize_all">
<polygon fill="white" stroke="black" points="226.271,-6 226.271,-25 379.84,-25 379.84,-6 226.271,-6"/>
<text text-anchor="middle" x="303.055" y="-12.2" font-family="Helvetica,sans-Serif" font-size="11.00">model_initialize::initialize_all</text>
</a>
</g>
</g>
<!-- Node50&#45;&gt;Node51 -->
<g id="edge1" class="edge"><title>Node50&#45;&gt;Node51</title>
<path fill="none" stroke="midnightblue" d="M200.477,-15.5C209.105,-15.5 217.721,-15.5 226.08,-15.5"/>
<polygon fill="midnightblue" stroke="midnightblue" points="200.357,-12.0001 190.357,-15.5 200.357,-19.0001 200.357,-12.0001"/>
</g>
<!-- Node52 -->
<g id="node3" class="node"><title>Node52</title>
<g id="a_node3"><a xlink:href="main_8F90.html#a8ec2266d83cd6c0b762cbcbc92c0af3d" target="_top" xlink:title="Main program which references all other modules; execution begins here. ">
<polygon fill="white" stroke="black" points="415.84,-6 415.84,-25 455.683,-25 455.683,-6 415.84,-6"/>
<text text-anchor="middle" x="435.761" y="-12.2" font-family="Helvetica,sans-Serif" font-size="11.00">main</text>
</a>
</g>
</g>
<!-- Node51&#45;&gt;Node52 -->
<g id="edge2" class="edge"><title>Node51&#45;&gt;Node52</title>
<path fill="none" stroke="midnightblue" d="M390.18,-15.5C399.675,-15.5 408.517,-15.5 415.782,-15.5"/>
<polygon fill="midnightblue" stroke="midnightblue" points="390.088,-12.0001 380.088,-15.5 390.088,-19.0001 390.088,-12.0001"/>
</g>
</g>
</svg>
