<?xml version="1.0" encoding="UTF-8" standalone="no"?>
<!DOCTYPE svg PUBLIC "-//W3C//DTD SVG 1.1//EN"
 "http://www.w3.org/Graphics/SVG/1.1/DTD/svg11.dtd">
<!-- Generated by graphviz version 2.38.0 (20140413.2041)
 -->
<!-- Title: actual_et__fao56::adjust_depletion_fraction_p Pages: 1 -->
<svg width="703pt" height="39pt"
 viewBox="0.00 0.00 703.49 39.00" xmlns="http://www.w3.org/2000/svg" xmlns:xlink="http://www.w3.org/1999/xlink">
<g id="graph0" class="graph" transform="scale(1 1) rotate(0) translate(4 35)">
<title>actual_et__fao56::adjust_depletion_fraction_p</title>
<polygon fill="white" stroke="none" points="-4,4 -4,-35 699.494,-35 699.494,4 -4,4"/>
<!-- Node1 -->
<g id="node1" class="node"><title>Node1</title>
<polygon fill="#bfbfbf" stroke="black" points="0,-0.5 0,-30.5 135.872,-30.5 135.872,-0.5 0,-0.5"/>
<text text-anchor="start" x="8" y="-17.7" font-family="Helvetica,sans-Serif" font-size="11.00">actual_et__fao56::adjust</text>
<text text-anchor="middle" x="67.936" y="-6.7" font-family="Helvetica,sans-Serif" font-size="11.00">_depletion_fraction_p</text>
</g>
<!-- Node2 -->
<g id="node2" class="node"><title>Node2</title>
<g id="a_node2"><a xlink:href="namespaceactual__et____fao56.html#a6d5cfde61a969dd90999ed2ad93fce43" target="_top" xlink:title="actual_et__fao56::calculate\l_actual_et_fao56">
<polygon fill="white" stroke="black" points="171.872,-0.5 171.872,-30.5 321.806,-30.5 321.806,-0.5 171.872,-0.5"/>
<text text-anchor="start" x="179.872" y="-17.7" font-family="Helvetica,sans-Serif" font-size="11.00">actual_et__fao56::calculate</text>
<text text-anchor="middle" x="246.839" y="-6.7" font-family="Helvetica,sans-Serif" font-size="11.00">_actual_et_fao56</text>
</a>
</g>
</g>
<!-- Node1&#45;&gt;Node2 -->
<g id="edge1" class="edge"><title>Node1&#45;&gt;Node2</title>
<path fill="none" stroke="midnightblue" d="M146.264,-15.5C154.697,-15.5 163.266,-15.5 171.66,-15.5"/>
<polygon fill="midnightblue" stroke="midnightblue" points="146.068,-12.0001 136.068,-15.5 146.068,-19.0001 146.068,-12.0001"/>
</g>
<!-- Node3 -->
<g id="node3" class="node"><title>Node3</title>
<g id="a_node3"><a xlink:href="namespacemodel__domain.html#abc504689fe438ebd0011fb27942079ce" target="_top" xlink:title="model_domain::model\l_calculate_actual_et_fao56">
<polygon fill="white" stroke="black" points="357.806,-0.5 357.806,-30.5 507.745,-30.5 507.745,-0.5 357.806,-0.5"/>
<text text-anchor="start" x="365.806" y="-17.7" font-family="Helvetica,sans-Serif" font-size="11.00">model_domain::model</text>
<text text-anchor="middle" x="432.775" y="-6.7" font-family="Helvetica,sans-Serif" font-size="11.00">_calculate_actual_et_fao56</text>
</a>
</g>
</g>
<!-- Node2&#45;&gt;Node3 -->
<g id="edge2" class="edge"><title>Node2&#45;&gt;Node3</title>
<path fill="none" stroke="midnightblue" d="M331.876,-15.5C340.461,-15.5 349.139,-15.5 357.608,-15.5"/>
<polygon fill="midnightblue" stroke="midnightblue" points="331.858,-12.0001 321.858,-15.5 331.858,-19.0001 331.858,-12.0001"/>
</g>
<!-- Node4 -->
<g id="node4" class="node"><title>Node4</title>
<g id="a_node4"><a xlink:href="namespacemodel__domain.html#aac78dbf26ba37cf86ebed4edd7acf89b" target="_top" xlink:title="model_domain::set_method\l_pointers_sub">
<polygon fill="white" stroke="black" points="543.745,-0.5 543.745,-30.5 695.494,-30.5 695.494,-0.5 543.745,-0.5"/>
<text text-anchor="start" x="551.745" y="-17.7" font-family="Helvetica,sans-Serif" font-size="11.00">model_domain::set_method</text>
<text text-anchor="middle" x="619.619" y="-6.7" font-family="Helvetica,sans-Serif" font-size="11.00">_pointers_sub</text>
</a>
</g>
</g>
<!-- Node3&#45;&gt;Node4 -->
<g id="edge3" class="edge"><title>Node3&#45;&gt;Node4</title>
<path fill="none" stroke="midnightblue" d="M518.168,-15.5C526.644,-15.5 535.21,-15.5 543.58,-15.5"/>
<polygon fill="midnightblue" stroke="midnightblue" points="517.893,-12.0001 507.893,-15.5 517.893,-19.0001 517.893,-12.0001"/>
</g>
</g>
</svg>
