<?xml version="1.0" encoding="UTF-8" standalone="no"?>
<!DOCTYPE svg PUBLIC "-//W3C//DTD SVG 1.1//EN"
 "http://www.w3.org/Graphics/SVG/1.1/DTD/svg11.dtd">
<!-- Generated by graphviz version 2.38.0 (20140413.2041)
 -->
<!-- Title: meteorological_calculations::dewpoint_vapor_pressure__e_a Pages: 1 -->
<svg width="386pt" height="39pt"
 viewBox="0.00 0.00 386.05 39.00" xmlns="http://www.w3.org/2000/svg" xmlns:xlink="http://www.w3.org/1999/xlink">
<g id="graph0" class="graph" transform="scale(1 1) rotate(0) translate(4 35)">
<title>meteorological_calculations::dewpoint_vapor_pressure__e_a</title>
<polygon fill="white" stroke="none" points="-4,4 -4,-35 382.052,-35 382.052,4 -4,4"/>
<!-- Node3 -->
<g id="node1" class="node"><title>Node3</title>
<polygon fill="#bfbfbf" stroke="black" points="0,-0.5 0,-30.5 179.281,-30.5 179.281,-0.5 0,-0.5"/>
<text text-anchor="start" x="8" y="-17.7" font-family="Helvetica,sans-Serif" font-size="11.00">meteorological_calculations</text>
<text text-anchor="middle" x="89.6406" y="-6.7" font-family="Helvetica,sans-Serif" font-size="11.00">::dewpoint_vapor_pressure__e_a</text>
</g>
<!-- Node4 -->
<g id="node2" class="node"><title>Node4</title>
<g id="a_node2"><a xlink:href="namespacesolar__calculations.html#abd778a5e83a2d7bc1ef65308323f9f09" target="_top" xlink:title="Calculate net longwave radiation flux. ">
<polygon fill="white" stroke="black" points="215.281,-0.5 215.281,-30.5 378.052,-30.5 378.052,-0.5 215.281,-0.5"/>
<text text-anchor="start" x="223.281" y="-17.7" font-family="Helvetica,sans-Serif" font-size="11.00">solar_calculations</text>
<text text-anchor="middle" x="296.667" y="-6.7" font-family="Helvetica,sans-Serif" font-size="11.00">::net_longwave_radiation__rnl</text>
</a>
</g>
</g>
<!-- Node3&#45;&gt;Node4 -->
<g id="edge1" class="edge"><title>Node3&#45;&gt;Node4</title>
<path fill="none" stroke="midnightblue" d="M189.465,-15.5C198.086,-15.5 206.742,-15.5 215.189,-15.5"/>
<polygon fill="midnightblue" stroke="midnightblue" points="189.376,-12.0001 179.376,-15.5 189.375,-19.0001 189.376,-12.0001"/>
</g>
</g>
</svg>
