<?xml version="1.0" encoding="UTF-8" standalone="no"?>
<!DOCTYPE svg PUBLIC "-//W3C//DTD SVG 1.1//EN"
 "http://www.w3.org/Graphics/SVG/1.1/DTD/svg11.dtd">
<!-- Generated by graphviz version 2.38.0 (20140413.2041)
 -->
<!-- Title: netcdf4_support::netcdf_open_file Pages: 1 -->
<svg width="481pt" height="100pt"
 viewBox="0.00 0.00 481.47 99.50" xmlns="http://www.w3.org/2000/svg" xmlns:xlink="http://www.w3.org/1999/xlink">
<g id="graph0" class="graph" transform="scale(1 1) rotate(0) translate(4 95.5)">
<title>netcdf4_support::netcdf_open_file</title>
<polygon fill="white" stroke="none" points="-4,4 -4,-95.5 477.466,-95.5 477.466,4 -4,4"/>
<!-- Node234 -->
<g id="node1" class="node"><title>Node234</title>
<polygon fill="#bfbfbf" stroke="black" points="0,-27.5 0,-57.5 130.968,-57.5 130.968,-27.5 0,-27.5"/>
<text text-anchor="start" x="8" y="-44.7" font-family="Helvetica,sans-Serif" font-size="11.00">netcdf4_support::netcdf</text>
<text text-anchor="middle" x="65.4841" y="-33.7" font-family="Helvetica,sans-Serif" font-size="11.00">_open_file</text>
</g>
<!-- Node235 -->
<g id="node2" class="node"><title>Node235</title>
<g id="a_node2"><a xlink:href="namespacedata__catalog__entry.html#aeb285131f87ed64deba0a9041a9c6405" target="_top" xlink:title="data_catalog_entry\l::getvalues_dynamic\l_netcdf_sub">
<polygon fill="white" stroke="black" points="189.293,-50 189.293,-91 305.572,-91 305.572,-50 189.293,-50"/>
<text text-anchor="start" x="197.293" y="-78.2" font-family="Helvetica,sans-Serif" font-size="11.00">data_catalog_entry</text>
<text text-anchor="start" x="197.293" y="-67.2" font-family="Helvetica,sans-Serif" font-size="11.00">::getvalues_dynamic</text>
<text text-anchor="middle" x="247.432" y="-56.2" font-family="Helvetica,sans-Serif" font-size="11.00">_netcdf_sub</text>
</a>
</g>
</g>
<!-- Node234&#45;&gt;Node235 -->
<g id="edge1" class="edge"><title>Node234&#45;&gt;Node235</title>
<path fill="none" stroke="midnightblue" d="M141.088,-54.1084C157.146,-56.607 173.878,-59.2105 189.154,-61.5874"/>
<polygon fill="midnightblue" stroke="midnightblue" points="141.615,-50.6483 131.195,-52.5691 140.538,-57.5651 141.615,-50.6483"/>
</g>
<!-- Node237 -->
<g id="node4" class="node"><title>Node237</title>
<g id="a_node4"><a xlink:href="namespacedata__catalog__entry.html#ac3e1f0d9d9e146fbb77c0084e1e9fc14" target="_top" xlink:title="data_catalog_entry\l::getvalues_static_netcdf_sub">
<polygon fill="white" stroke="black" points="166.968,-0.5 166.968,-30.5 327.896,-30.5 327.896,-0.5 166.968,-0.5"/>
<text text-anchor="start" x="174.968" y="-17.7" font-family="Helvetica,sans-Serif" font-size="11.00">data_catalog_entry</text>
<text text-anchor="middle" x="247.432" y="-6.7" font-family="Helvetica,sans-Serif" font-size="11.00">::getvalues_static_netcdf_sub</text>
</a>
</g>
</g>
<!-- Node234&#45;&gt;Node237 -->
<g id="edge3" class="edge"><title>Node234&#45;&gt;Node237</title>
<path fill="none" stroke="midnightblue" d="M141.098,-31.3048C149.623,-30.0256 158.338,-28.7179 166.925,-27.4296"/>
<polygon fill="midnightblue" stroke="midnightblue" points="140.565,-27.8454 131.195,-32.7905 141.604,-34.7679 140.565,-27.8454"/>
</g>
<!-- Node236 -->
<g id="node3" class="node"><title>Node236</title>
<g id="a_node3"><a xlink:href="namespacedata__catalog__entry.html#a9e0a89ab19a5bfd61f2dfb8265648234" target="_top" xlink:title="data_catalog_entry\l::getvalues_sub">
<polygon fill="white" stroke="black" points="363.896,-27.5 363.896,-57.5 473.466,-57.5 473.466,-27.5 363.896,-27.5"/>
<text text-anchor="start" x="371.896" y="-44.7" font-family="Helvetica,sans-Serif" font-size="11.00">data_catalog_entry</text>
<text text-anchor="middle" x="418.681" y="-33.7" font-family="Helvetica,sans-Serif" font-size="11.00">::getvalues_sub</text>
</a>
</g>
</g>
<!-- Node235&#45;&gt;Node236 -->
<g id="edge2" class="edge"><title>Node235&#45;&gt;Node236</title>
<path fill="none" stroke="midnightblue" d="M316.035,-59.3161C331.934,-56.6858 348.669,-53.9172 363.868,-51.4027"/>
<polygon fill="midnightblue" stroke="midnightblue" points="315.027,-55.9351 305.732,-61.0205 316.17,-62.8413 315.027,-55.9351"/>
</g>
<!-- Node237&#45;&gt;Node236 -->
<g id="edge4" class="edge"><title>Node237&#45;&gt;Node236</title>
<path fill="none" stroke="midnightblue" d="M338.239,-29.8267C346.865,-31.2028 355.419,-32.5674 363.541,-33.8631"/>
<polygon fill="midnightblue" stroke="midnightblue" points="338.527,-26.3285 328.101,-28.2094 337.425,-33.2411 338.527,-26.3285"/>
</g>
</g>
</svg>
