<?xml version="1.0" encoding="UTF-8" standalone="no"?>
<!DOCTYPE svg PUBLIC "-//W3C//DTD SVG 1.1//EN"
 "http://www.w3.org/Graphics/SVG/1.1/DTD/svg11.dtd">
<!-- Generated by graphviz version 2.38.0 (20140413.2041)
 -->
<!-- Title: netcdf4_support::nf_get_scale_and_offset Pages: 1 -->
<svg width="676pt" height="100pt"
 viewBox="0.00 0.00 675.80 99.50" xmlns="http://www.w3.org/2000/svg" xmlns:xlink="http://www.w3.org/1999/xlink">
<g id="graph0" class="graph" transform="scale(1 1) rotate(0) translate(4 95.5)">
<title>netcdf4_support::nf_get_scale_and_offset</title>
<polygon fill="white" stroke="none" points="-4,4 -4,-95.5 671.8,-95.5 671.8,4 -4,4"/>
<!-- Node537 -->
<g id="node1" class="node"><title>Node537</title>
<polygon fill="#bfbfbf" stroke="black" points="0,-27.5 0,-57.5 126.505,-57.5 126.505,-27.5 0,-27.5"/>
<text text-anchor="start" x="8" y="-44.7" font-family="Helvetica,sans-Serif" font-size="11.00">netcdf4_support::nf</text>
<text text-anchor="middle" x="63.2524" y="-33.7" font-family="Helvetica,sans-Serif" font-size="11.00">_get_scale_and_offset</text>
</g>
<!-- Node538 -->
<g id="node2" class="node"><title>Node538</title>
<g id="a_node2"><a xlink:href="namespacenetcdf4__support.html#a6d3d402059d71a8bd24a01dc6116ff7d" target="_top" xlink:title="netcdf4_support::netcdf\l_open_and_prepare_as_input">
<polygon fill="white" stroke="black" points="162.505,-52.5 162.505,-82.5 325.302,-82.5 325.302,-52.5 162.505,-52.5"/>
<text text-anchor="start" x="170.505" y="-69.7" font-family="Helvetica,sans-Serif" font-size="11.00">netcdf4_support::netcdf</text>
<text text-anchor="middle" x="243.904" y="-58.7" font-family="Helvetica,sans-Serif" font-size="11.00">_open_and_prepare_as_input</text>
</a>
</g>
</g>
<!-- Node537&#45;&gt;Node538 -->
<g id="edge1" class="edge"><title>Node537&#45;&gt;Node538</title>
<path fill="none" stroke="midnightblue" d="M136.826,-52.6557C145.197,-53.8272 153.772,-55.0272 162.243,-56.2125"/>
<polygon fill="midnightblue" stroke="midnightblue" points="137.125,-49.1635 126.736,-51.2438 136.154,-56.096 137.125,-49.1635"/>
</g>
<!-- Node542 -->
<g id="node6" class="node"><title>Node542</title>
<g id="a_node6"><a xlink:href="namespacenetcdf4__support.html#a7b3b3cf3aab614eb336e12694c5d76ef" target="_top" xlink:title="netcdf4_support::netcdf\l_open_file">
<polygon fill="white" stroke="black" points="178.419,-3.5 178.419,-33.5 309.388,-33.5 309.388,-3.5 178.419,-3.5"/>
<text text-anchor="start" x="186.419" y="-20.7" font-family="Helvetica,sans-Serif" font-size="11.00">netcdf4_support::netcdf</text>
<text text-anchor="middle" x="243.904" y="-9.7" font-family="Helvetica,sans-Serif" font-size="11.00">_open_file</text>
</a>
</g>
</g>
<!-- Node537&#45;&gt;Node542 -->
<g id="edge6" class="edge"><title>Node537&#45;&gt;Node542</title>
<path fill="none" stroke="midnightblue" d="M136.661,-32.7726C150.454,-30.9196 164.806,-28.9916 178.335,-27.1741"/>
<polygon fill="midnightblue" stroke="midnightblue" points="136.181,-29.3056 126.736,-34.106 137.113,-36.2433 136.181,-29.3056"/>
</g>
<!-- Node539 -->
<g id="node3" class="node"><title>Node539</title>
<g id="a_node3"><a xlink:href="namespacedata__catalog__entry.html#aeb285131f87ed64deba0a9041a9c6405" target="_top" xlink:title="data_catalog_entry\l::getvalues_dynamic\l_netcdf_sub">
<polygon fill="white" stroke="black" points="383.627,-50 383.627,-91 499.906,-91 499.906,-50 383.627,-50"/>
<text text-anchor="start" x="391.627" y="-78.2" font-family="Helvetica,sans-Serif" font-size="11.00">data_catalog_entry</text>
<text text-anchor="start" x="391.627" y="-67.2" font-family="Helvetica,sans-Serif" font-size="11.00">::getvalues_dynamic</text>
<text text-anchor="middle" x="441.766" y="-56.2" font-family="Helvetica,sans-Serif" font-size="11.00">_netcdf_sub</text>
</a>
</g>
</g>
<!-- Node538&#45;&gt;Node539 -->
<g id="edge2" class="edge"><title>Node538&#45;&gt;Node539</title>
<path fill="none" stroke="midnightblue" d="M335.549,-68.8884C351.906,-69.1389 368.536,-69.3937 383.599,-69.6244"/>
<polygon fill="midnightblue" stroke="midnightblue" points="335.469,-65.3869 325.416,-68.7332 335.362,-72.386 335.469,-65.3869"/>
</g>
<!-- Node541 -->
<g id="node5" class="node"><title>Node541</title>
<g id="a_node5"><a xlink:href="namespacedata__catalog__entry.html#ac3e1f0d9d9e146fbb77c0084e1e9fc14" target="_top" xlink:title="data_catalog_entry\l::getvalues_static_netcdf_sub">
<polygon fill="white" stroke="black" points="361.302,-0.5 361.302,-30.5 522.23,-30.5 522.23,-0.5 361.302,-0.5"/>
<text text-anchor="start" x="369.302" y="-17.7" font-family="Helvetica,sans-Serif" font-size="11.00">data_catalog_entry</text>
<text text-anchor="middle" x="441.766" y="-6.7" font-family="Helvetica,sans-Serif" font-size="11.00">::getvalues_static_netcdf_sub</text>
</a>
</g>
</g>
<!-- Node538&#45;&gt;Node541 -->
<g id="edge4" class="edge"><title>Node538&#45;&gt;Node541</title>
<path fill="none" stroke="midnightblue" d="M311.504,-49.8182C335.149,-43.5405 361.518,-36.5397 384.242,-30.5068"/>
<polygon fill="midnightblue" stroke="midnightblue" points="310.322,-46.5105 301.555,-52.4594 312.119,-53.2762 310.322,-46.5105"/>
</g>
<!-- Node540 -->
<g id="node4" class="node"><title>Node540</title>
<g id="a_node4"><a xlink:href="namespacedata__catalog__entry.html#a9e0a89ab19a5bfd61f2dfb8265648234" target="_top" xlink:title="data_catalog_entry\l::getvalues_sub">
<polygon fill="white" stroke="black" points="558.23,-27.5 558.23,-57.5 667.8,-57.5 667.8,-27.5 558.23,-27.5"/>
<text text-anchor="start" x="566.23" y="-44.7" font-family="Helvetica,sans-Serif" font-size="11.00">data_catalog_entry</text>
<text text-anchor="middle" x="613.015" y="-33.7" font-family="Helvetica,sans-Serif" font-size="11.00">::getvalues_sub</text>
</a>
</g>
</g>
<!-- Node539&#45;&gt;Node540 -->
<g id="edge3" class="edge"><title>Node539&#45;&gt;Node540</title>
<path fill="none" stroke="midnightblue" d="M510.369,-59.3161C526.268,-56.6858 543.003,-53.9172 558.202,-51.4027"/>
<polygon fill="midnightblue" stroke="midnightblue" points="509.361,-55.9351 500.066,-61.0205 510.504,-62.8413 509.361,-55.9351"/>
</g>
<!-- Node541&#45;&gt;Node540 -->
<g id="edge5" class="edge"><title>Node541&#45;&gt;Node540</title>
<path fill="none" stroke="midnightblue" d="M532.573,-29.8267C541.199,-31.2028 549.753,-32.5674 557.875,-33.8631"/>
<polygon fill="midnightblue" stroke="midnightblue" points="532.861,-26.3285 522.435,-28.2094 531.759,-33.2411 532.861,-26.3285"/>
</g>
<!-- Node542&#45;&gt;Node539 -->
<g id="edge7" class="edge"><title>Node542&#45;&gt;Node539</title>
<path fill="none" stroke="midnightblue" d="M311.416,-36.1584C334.849,-42.3797 360.966,-49.3137 383.563,-55.3131"/>
<polygon fill="midnightblue" stroke="midnightblue" points="312.119,-32.7238 301.555,-33.5406 310.322,-39.4895 312.119,-32.7238"/>
</g>
<!-- Node542&#45;&gt;Node541 -->
<g id="edge8" class="edge"><title>Node542&#45;&gt;Node541</title>
<path fill="none" stroke="midnightblue" d="M319.787,-17.353C333.318,-17.1458 347.471,-16.929 361.132,-16.7197"/>
<polygon fill="midnightblue" stroke="midnightblue" points="319.524,-13.8565 309.579,-17.5094 319.632,-20.8557 319.524,-13.8565"/>
</g>
</g>
</svg>
