<?xml version="1.0" encoding="UTF-8" standalone="no"?>
<!DOCTYPE svg PUBLIC "-//W3C//DTD SVG 1.1//EN"
 "http://www.w3.org/Graphics/SVG/1.1/DTD/svg11.dtd">
<!-- Generated by graphviz version 2.38.0 (20140413.2041)
 -->
<!-- Title: netcdf4_support::nf_populate_variable_struct Pages: 1 -->
<svg width="673pt" height="85pt"
 viewBox="0.00 0.00 672.89 85.00" xmlns="http://www.w3.org/2000/svg" xmlns:xlink="http://www.w3.org/1999/xlink">
<g id="graph0" class="graph" transform="scale(1 1) rotate(0) translate(4 81)">
<title>netcdf4_support::nf_populate_variable_struct</title>
<polygon fill="white" stroke="none" points="-4,4 -4,-81 668.895,-81 668.895,4 -4,4"/>
<!-- Node1 -->
<g id="node1" class="node"><title>Node1</title>
<polygon fill="#bfbfbf" stroke="black" points="0,-23.5 0,-53.5 141.974,-53.5 141.974,-23.5 0,-23.5"/>
<text text-anchor="start" x="8" y="-40.7" font-family="Helvetica,sans-Serif" font-size="11.00">netcdf4_support::nf</text>
<text text-anchor="middle" x="70.9868" y="-29.7" font-family="Helvetica,sans-Serif" font-size="11.00">_populate_variable_struct</text>
</g>
<!-- Node2 -->
<g id="node2" class="node"><title>Node2</title>
<g id="a_node2"><a xlink:href="namespaceconstants__and__conversions.html#adeac78899e44bc3d58e26397fa64e4a7" target="_top" xlink:title="constants_and_conversions\l::c_to_fortran_string">
<polygon fill="white" stroke="black" points="324.161,-46.5 324.161,-76.5 476.528,-76.5 476.528,-46.5 324.161,-46.5"/>
<text text-anchor="start" x="332.161" y="-63.7" font-family="Helvetica,sans-Serif" font-size="11.00">constants_and_conversions</text>
<text text-anchor="middle" x="400.344" y="-52.7" font-family="Helvetica,sans-Serif" font-size="11.00">::c_to_fortran_string</text>
</a>
</g>
</g>
<!-- Node1&#45;&gt;Node2 -->
<g id="edge1" class="edge"><title>Node1&#45;&gt;Node2</title>
<path fill="none" stroke="midnightblue" d="M114.727,-53.5028C133.82,-59.4451 156.759,-65.5554 177.974,-68.5 222.571,-74.6902 272.685,-73.753 313.939,-70.9135"/>
<polygon fill="midnightblue" stroke="midnightblue" points="314.239,-74.401 323.954,-70.1753 313.724,-67.42 314.239,-74.401"/>
</g>
<!-- Node3 -->
<g id="node3" class="node"><title>Node3</title>
<g id="a_node3"><a xlink:href="namespacenetcdf4__support.html#aa2d6e99c4cd59ef92c2878aa06c4a67e" target="_top" xlink:title="netcdf4_support::nf\l_populate_attribute\l_struct">
<polygon fill="white" stroke="black" points="177.974,-18 177.974,-59 288.161,-59 288.161,-18 177.974,-18"/>
<text text-anchor="start" x="185.974" y="-46.2" font-family="Helvetica,sans-Serif" font-size="11.00">netcdf4_support::nf</text>
<text text-anchor="start" x="185.974" y="-35.2" font-family="Helvetica,sans-Serif" font-size="11.00">_populate_attribute</text>
<text text-anchor="middle" x="233.067" y="-24.2" font-family="Helvetica,sans-Serif" font-size="11.00">_struct</text>
</a>
</g>
</g>
<!-- Node1&#45;&gt;Node3 -->
<g id="edge2" class="edge"><title>Node1&#45;&gt;Node3</title>
<path fill="none" stroke="midnightblue" d="M142.2,-38.5C150.681,-38.5 159.311,-38.5 167.702,-38.5"/>
<polygon fill="midnightblue" stroke="midnightblue" points="167.793,-42.0001 177.793,-38.5 167.793,-35.0001 167.793,-42.0001"/>
</g>
<!-- Node4 -->
<g id="node4" class="node"><title>Node4</title>
<g id="a_node4"><a xlink:href="namespacenetcdf4__support.html#ac8c7276a5849ae6d17ffef1787e3f234" target="_top" xlink:title="netcdf4_support::nf_trap">
<polygon fill="white" stroke="black" points="332.72,-6 332.72,-25 467.969,-25 467.969,-6 332.72,-6"/>
<text text-anchor="middle" x="400.344" y="-12.2" font-family="Helvetica,sans-Serif" font-size="11.00">netcdf4_support::nf_trap</text>
</a>
</g>
</g>
<!-- Node1&#45;&gt;Node4 -->
<g id="edge6" class="edge"><title>Node1&#45;&gt;Node4</title>
<path fill="none" stroke="midnightblue" d="M114.727,-23.4972C133.82,-17.5549 156.759,-11.4446 177.974,-8.5 225.751,-1.86853 279.859,-3.41686 322.622,-6.72088"/>
<polygon fill="midnightblue" stroke="midnightblue" points="322.426,-10.2165 332.679,-7.54606 322.998,-3.23993 322.426,-10.2165"/>
</g>
<!-- Node3&#45;&gt;Node2 -->
<g id="edge5" class="edge"><title>Node3&#45;&gt;Node2</title>
<path fill="none" stroke="midnightblue" d="M288.185,-46.0311C296.53,-47.1924 305.318,-48.4152 314.144,-49.6435"/>
<polygon fill="midnightblue" stroke="midnightblue" points="313.717,-53.1177 324.104,-51.0295 314.682,-46.1845 313.717,-53.1177"/>
</g>
<!-- Node3&#45;&gt;Node4 -->
<g id="edge3" class="edge"><title>Node3&#45;&gt;Node4</title>
<path fill="none" stroke="midnightblue" d="M288.185,-30.9689C299.18,-29.4389 310.943,-27.802 322.551,-26.1866"/>
<polygon fill="midnightblue" stroke="midnightblue" points="323.267,-29.6207 332.689,-24.7757 322.302,-22.6876 323.267,-29.6207"/>
</g>
<!-- Node5 -->
<g id="node5" class="node"><title>Node5</title>
<g id="a_node5"><a xlink:href="namespaceconstants__and__conversions.html#ac13fba285229deab77131132e6f62caf" target="_top" xlink:title="constants_and_conversions\l::char_ptr_to_fortran_string">
<polygon fill="white" stroke="black" points="512.528,-0.5 512.528,-30.5 664.895,-30.5 664.895,-0.5 512.528,-0.5"/>
<text text-anchor="start" x="520.528" y="-17.7" font-family="Helvetica,sans-Serif" font-size="11.00">constants_and_conversions</text>
<text text-anchor="middle" x="588.711" y="-6.7" font-family="Helvetica,sans-Serif" font-size="11.00">::char_ptr_to_fortran_string</text>
</a>
</g>
</g>
<!-- Node4&#45;&gt;Node5 -->
<g id="edge4" class="edge"><title>Node4&#45;&gt;Node5</title>
<path fill="none" stroke="midnightblue" d="M468.101,-15.5C479.168,-15.5 490.777,-15.5 502.23,-15.5"/>
<polygon fill="midnightblue" stroke="midnightblue" points="502.237,-19.0001 512.237,-15.5 502.237,-12.0001 502.237,-19.0001"/>
</g>
</g>
</svg>
