<?xml version="1.0" encoding="UTF-8" standalone="no"?>
<!DOCTYPE svg PUBLIC "-//W3C//DTD SVG 1.1//EN"
 "http://www.w3.org/Graphics/SVG/1.1/DTD/svg11.dtd">
<!-- Generated by graphviz version 2.38.0 (20140413.2041)
 -->
<!-- Title: netcdf4_support::nf_get_x_and_y Pages: 1 -->
<svg width="659pt" height="133pt"
 viewBox="0.00 0.00 659.47 133.00" xmlns="http://www.w3.org/2000/svg" xmlns:xlink="http://www.w3.org/1999/xlink">
<g id="graph0" class="graph" transform="scale(1 1) rotate(0) translate(4 129)">
<title>netcdf4_support::nf_get_x_and_y</title>
<polygon fill="white" stroke="none" points="-4,4 -4,-129 655.472,-129 655.472,4 -4,4"/>
<!-- Node195 -->
<g id="node1" class="node"><title>Node195</title>
<polygon fill="#bfbfbf" stroke="black" points="0,-33 0,-63 110.177,-63 110.177,-33 0,-33"/>
<text text-anchor="start" x="8" y="-50.2" font-family="Helvetica,sans-Serif" font-size="11.00">netcdf4_support::nf</text>
<text text-anchor="middle" x="55.0884" y="-39.2" font-family="Helvetica,sans-Serif" font-size="11.00">_get_x_and_y</text>
</g>
<!-- Node196 -->
<g id="node2" class="node"><title>Node196</title>
<g id="a_node2"><a xlink:href="namespacenetcdf4__support.html#a6d3d402059d71a8bd24a01dc6116ff7d" target="_top" xlink:title="netcdf4_support::netcdf\l_open_and_prepare_as_input">
<polygon fill="white" stroke="black" points="146.177,-61 146.177,-91 308.974,-91 308.974,-61 146.177,-61"/>
<text text-anchor="start" x="154.177" y="-78.2" font-family="Helvetica,sans-Serif" font-size="11.00">netcdf4_support::netcdf</text>
<text text-anchor="middle" x="227.575" y="-67.2" font-family="Helvetica,sans-Serif" font-size="11.00">_open_and_prepare_as_input</text>
</a>
</g>
</g>
<!-- Node195&#45;&gt;Node196 -->
<g id="edge1" class="edge"><title>Node195&#45;&gt;Node196</title>
<path fill="none" stroke="midnightblue" d="M120.49,-58.5769C128.813,-59.9439 137.418,-61.3572 145.962,-62.7604"/>
<polygon fill="midnightblue" stroke="midnightblue" points="120.935,-55.1034 110.5,-56.9364 119.801,-62.0108 120.935,-55.1034"/>
</g>
<!-- Node200 -->
<g id="node6" class="node"><title>Node200</title>
<g id="a_node6"><a xlink:href="namespacenetcdf4__support.html#a8be734b602e654816c17b5e27d0fbffb" target="_top" xlink:title="netcdf4_support::netcdf\l_open_and_prepare_for\l_merging">
<polygon fill="white" stroke="black" points="160.552,-0.5 160.552,-41.5 294.598,-41.5 294.598,-0.5 160.552,-0.5"/>
<text text-anchor="start" x="168.552" y="-28.7" font-family="Helvetica,sans-Serif" font-size="11.00">netcdf4_support::netcdf</text>
<text text-anchor="start" x="168.552" y="-17.7" font-family="Helvetica,sans-Serif" font-size="11.00">_open_and_prepare_for</text>
<text text-anchor="middle" x="227.575" y="-6.7" font-family="Helvetica,sans-Serif" font-size="11.00">_merging</text>
</a>
</g>
</g>
<!-- Node195&#45;&gt;Node200 -->
<g id="edge6" class="edge"><title>Node195&#45;&gt;Node200</title>
<path fill="none" stroke="midnightblue" d="M120.747,-37.76C133.737,-35.7028 147.405,-33.5382 160.444,-31.4732"/>
<polygon fill="midnightblue" stroke="midnightblue" points="119.83,-34.3616 110.5,-39.3828 120.925,-41.2754 119.83,-34.3616"/>
</g>
<!-- Node197 -->
<g id="node3" class="node"><title>Node197</title>
<g id="a_node3"><a xlink:href="namespacedata__catalog__entry.html#aeb285131f87ed64deba0a9041a9c6405" target="_top" xlink:title="data_catalog_entry\l::getvalues_dynamic\l_netcdf_sub">
<polygon fill="white" stroke="black" points="367.299,-83.5 367.299,-124.5 483.577,-124.5 483.577,-83.5 367.299,-83.5"/>
<text text-anchor="start" x="375.299" y="-111.7" font-family="Helvetica,sans-Serif" font-size="11.00">data_catalog_entry</text>
<text text-anchor="start" x="375.299" y="-100.7" font-family="Helvetica,sans-Serif" font-size="11.00">::getvalues_dynamic</text>
<text text-anchor="middle" x="425.438" y="-89.7" font-family="Helvetica,sans-Serif" font-size="11.00">_netcdf_sub</text>
</a>
</g>
</g>
<!-- Node196&#45;&gt;Node197 -->
<g id="edge2" class="edge"><title>Node196&#45;&gt;Node197</title>
<path fill="none" stroke="midnightblue" d="M319.221,-88.9585C335.578,-91.2968 352.208,-93.6741 367.271,-95.8275"/>
<polygon fill="midnightblue" stroke="midnightblue" points="319.483,-85.4604 309.088,-87.5099 318.492,-92.3899 319.483,-85.4604"/>
</g>
<!-- Node199 -->
<g id="node5" class="node"><title>Node199</title>
<g id="a_node5"><a xlink:href="namespacedata__catalog__entry.html#ac3e1f0d9d9e146fbb77c0084e1e9fc14" target="_top" xlink:title="data_catalog_entry\l::getvalues_static_netcdf_sub">
<polygon fill="white" stroke="black" points="344.974,-34 344.974,-64 505.902,-64 505.902,-34 344.974,-34"/>
<text text-anchor="start" x="352.974" y="-51.2" font-family="Helvetica,sans-Serif" font-size="11.00">data_catalog_entry</text>
<text text-anchor="middle" x="425.438" y="-40.2" font-family="Helvetica,sans-Serif" font-size="11.00">::getvalues_static_netcdf_sub</text>
</a>
</g>
</g>
<!-- Node196&#45;&gt;Node199 -->
<g id="edge4" class="edge"><title>Node196&#45;&gt;Node199</title>
<path fill="none" stroke="midnightblue" d="M319.126,-63.5175C327.72,-62.3327 336.391,-61.1375 344.87,-59.9686"/>
<polygon fill="midnightblue" stroke="midnightblue" points="318.517,-60.0683 309.088,-64.9012 319.473,-67.0027 318.517,-60.0683"/>
</g>
<!-- Node198 -->
<g id="node4" class="node"><title>Node198</title>
<g id="a_node4"><a xlink:href="namespacedata__catalog__entry.html#a9e0a89ab19a5bfd61f2dfb8265648234" target="_top" xlink:title="data_catalog_entry\l::getvalues_sub">
<polygon fill="white" stroke="black" points="541.902,-61 541.902,-91 651.472,-91 651.472,-61 541.902,-61"/>
<text text-anchor="start" x="549.902" y="-78.2" font-family="Helvetica,sans-Serif" font-size="11.00">data_catalog_entry</text>
<text text-anchor="middle" x="596.687" y="-67.2" font-family="Helvetica,sans-Serif" font-size="11.00">::getvalues_sub</text>
</a>
</g>
</g>
<!-- Node197&#45;&gt;Node198 -->
<g id="edge3" class="edge"><title>Node197&#45;&gt;Node198</title>
<path fill="none" stroke="midnightblue" d="M494.041,-92.8161C509.94,-90.1858 526.675,-87.4172 541.874,-84.9027"/>
<polygon fill="midnightblue" stroke="midnightblue" points="493.033,-89.4351 483.738,-94.5205 494.175,-96.3413 493.033,-89.4351"/>
</g>
<!-- Node199&#45;&gt;Node198 -->
<g id="edge5" class="edge"><title>Node199&#45;&gt;Node198</title>
<path fill="none" stroke="midnightblue" d="M516.245,-63.3267C524.871,-64.7028 533.425,-66.0674 541.547,-67.3631"/>
<polygon fill="midnightblue" stroke="midnightblue" points="516.533,-59.8285 506.107,-61.7094 515.431,-66.7411 516.533,-59.8285"/>
</g>
</g>
</svg>
