<?xml version="1.0" encoding="UTF-8" standalone="no"?>
<!DOCTYPE svg PUBLIC "-//W3C//DTD SVG 1.1//EN"
 "http://www.w3.org/Graphics/SVG/1.1/DTD/svg11.dtd">
<!-- Generated by graphviz version 2.38.0 (20140413.2041)
 -->
<!-- Title: netcdf4_support::netcdf_open_file Pages: 1 -->
<!--zoomable 605 -->
<svg id="main" version="1.1" xmlns="http://www.w3.org/2000/svg" xmlns:xlink="http://www.w3.org/1999/xlink" xml:space="preserve" onload="init(evt)">
<style type="text/css"><![CDATA[
.edge:hover path { stroke: red; }
.edge:hover polygon { stroke: red; fill: red; }
]]></style>
<script type="text/javascript"><![CDATA[
var edges = document.getElementsByTagName('g');
if (edges && edges.length) {
  for (var i=0;i<edges.length;i++) {
    if (edges[i].id.substr(0,4)=='edge') {
      edges[i].setAttribute('class','edge');
    }
  }
}
]]></script>
        <defs>
                <circle id="rim" cx="0" cy="0" r="7"/>
                <circle id="rim2" cx="0" cy="0" r="3.5"/>
                <g id="zoomPlus">
                        <use xlink:href="#rim" fill="#404040">
                                <set attributeName="fill" to="#808080" begin="zoomplus.mouseover" end="zoomplus.mouseout"/>
                        </use>
                        <path d="M-4,0h8M0,-4v8" fill="none" stroke="white" stroke-width="1.5" pointer-events="none"/>
                </g>
                <g id="zoomMin">
                        <use xlink:href="#rim" fill="#404040">
                                <set attributeName="fill" to="#808080" begin="zoomminus.mouseover" end="zoomminus.mouseout"/>
                        </use>
                        <path d="M-4,0h8" fill="none" stroke="white" stroke-width="1.5" pointer-events="none"/>
                </g>
                <g id="dirArrow">
                        <path fill="none" stroke="white" stroke-width="1.5" d="M0,-3.0v7 M-2.5,-0.5L0,-3.0L2.5,-0.5"/>
                </g>
               <g id="resetDef">
                       <use xlink:href="#rim2" fill="#404040">
                               <set attributeName="fill" to="#808080" begin="reset.mouseover" end="reset.mouseout"/>
                       </use>
               </g>
        </defs>

<script type="text/javascript">
var viewWidth = 885;
var viewHeight = 605;
var sectionId = 'dynsection-23';
</script>
<script xlink:href="svgpan.js"/>
<svg id="graph" class="graph">
<g id="viewport">
<title>netcdf4_support::netcdf_open_file</title>
<polygon fill="white" stroke="none" points="-4,4 -4,-600.5 880.502,-600.5 880.502,4 -4,4"/>
<!-- Node1 -->
<g id="node1" class="node"><title>Node1</title>
<polygon fill="#bfbfbf" stroke="black" points="0,-225.5 0,-255.5 130.968,-255.5 130.968,-225.5 0,-225.5"/>
<text text-anchor="start" x="8" y="-242.7" font-family="Helvetica,sans-Serif" font-size="11.00">netcdf4_support::netcdf</text>
<text text-anchor="middle" x="65.4841" y="-231.7" font-family="Helvetica,sans-Serif" font-size="11.00">_open_file</text>
</g>
<!-- Node2 -->
<g id="node2" class="node"><title>Node2</title>
<g id="a_node2"><a xlink:href="namespacenetcdf4__support.html#ad118f90a290289cde5043fc1ec23bca1" target="_top" xlink:title="netcdf4_support::nf\l_calculate_time_range">
<polygon fill="white" stroke="black" points="177.681,-500.5 177.681,-530.5 304.363,-530.5 304.363,-500.5 177.681,-500.5"/>
<text text-anchor="start" x="185.681" y="-517.7" font-family="Helvetica,sans-Serif" font-size="11.00">netcdf4_support::nf</text>
<text text-anchor="middle" x="241.022" y="-506.7" font-family="Helvetica,sans-Serif" font-size="11.00">_calculate_time_range</text>
</a>
</g>
</g>
<!-- Node1&#45;&gt;Node2 -->
<g id="edge1" class="edge"><title>Node1&#45;&gt;Node2</title>
<path fill="none" stroke="midnightblue" d="M74.0982,-255.874C89.9819,-287.525 128.388,-361.915 166.968,-420.5 183.814,-446.081 205.443,-473.656 220.784,-492.473"/>
<polygon fill="midnightblue" stroke="midnightblue" points="218.093,-494.711 227.145,-500.217 223.502,-490.268 218.093,-494.711"/>
</g>
<!-- Node4 -->
<g id="node4" class="node"><title>Node4</title>
<g id="a_node4"><a xlink:href="namespacenetcdf4__support.html#a3f9a545cd24a2c66040977e333152f3e" target="_top" xlink:title="netcdf4_support::nf\l_get_first_and_last">
<polygon fill="white" stroke="black" points="185.934,-380.5 185.934,-410.5 296.11,-410.5 296.11,-380.5 185.934,-380.5"/>
<text text-anchor="start" x="193.934" y="-397.7" font-family="Helvetica,sans-Serif" font-size="11.00">netcdf4_support::nf</text>
<text text-anchor="middle" x="241.022" y="-386.7" font-family="Helvetica,sans-Serif" font-size="11.00">_get_first_and_last</text>
</a>
</g>
</g>
<!-- Node1&#45;&gt;Node4 -->
<g id="edge3" class="edge"><title>Node1&#45;&gt;Node4</title>
<path fill="none" stroke="midnightblue" d="M75.4979,-255.695C91.2123,-281.062 125.898,-332.322 166.968,-363.5 173.172,-368.209 180.176,-372.394 187.33,-376.058"/>
<polygon fill="midnightblue" stroke="midnightblue" points="185.892,-379.25 196.422,-380.419 188.92,-372.938 185.892,-379.25"/>
</g>
<!-- Node13 -->
<g id="node13" class="node"><title>Node13</title>
<g id="a_node13"><a xlink:href="namespacenetcdf4__support.html#ac2c621acfe944c1f5078aa90139612d9" target="_top" xlink:title="netcdf4_support::nf\l_get_scale_and_offset">
<polygon fill="white" stroke="black" points="177.77,-49.5 177.77,-79.5 304.274,-79.5 304.274,-49.5 177.77,-49.5"/>
<text text-anchor="start" x="185.77" y="-66.7" font-family="Helvetica,sans-Serif" font-size="11.00">netcdf4_support::nf</text>
<text text-anchor="middle" x="241.022" y="-55.7" font-family="Helvetica,sans-Serif" font-size="11.00">_get_scale_and_offset</text>
</a>
</g>
</g>
<!-- Node1&#45;&gt;Node13 -->
<g id="edge15" class="edge"><title>Node1&#45;&gt;Node13</title>
<path fill="none" stroke="midnightblue" d="M72.5294,-225.098C85.2995,-194.531 117.937,-125.932 166.968,-88.5 168.779,-87.1178 170.672,-85.8132 172.63,-84.5821"/>
<polygon fill="midnightblue" stroke="midnightblue" points="174.507,-87.5435 181.565,-79.6414 171.12,-81.4177 174.507,-87.5435"/>
</g>
<!-- Node14 -->
<g id="node14" class="node"><title>Node14</title>
<g id="a_node14"><a xlink:href="namespacenetcdf4__support.html#ae16cf16a822cf8bd9d17ec5459b5f2bb" target="_top" xlink:title="netcdf4_support::nf\l_get_time_units">
<polygon fill="white" stroke="black" points="185.934,-0.5 185.934,-30.5 296.11,-30.5 296.11,-0.5 185.934,-0.5"/>
<text text-anchor="start" x="193.934" y="-17.7" font-family="Helvetica,sans-Serif" font-size="11.00">netcdf4_support::nf</text>
<text text-anchor="middle" x="241.022" y="-6.7" font-family="Helvetica,sans-Serif" font-size="11.00">_get_time_units</text>
</a>
</g>
</g>
<!-- Node1&#45;&gt;Node14 -->
<g id="edge16" class="edge"><title>Node1&#45;&gt;Node14</title>
<path fill="none" stroke="midnightblue" d="M69.7817,-225.428C78.689,-188.269 106.732,-91.5174 166.968,-39.5 170.007,-36.8756 173.341,-34.5366 176.857,-32.4521"/>
<polygon fill="midnightblue" stroke="midnightblue" points="178.632,-35.4747 185.913,-27.7775 175.421,-29.2546 178.632,-35.4747"/>
</g>
<!-- Node15 -->
<g id="node15" class="node"><title>Node15</title>
<g id="a_node15"><a xlink:href="namespacenetcdf4__support.html#aad34f129a575be1774b4b709d5efba6c" target="_top" xlink:title="netcdf4_support::nf\l_get_time_vals">
<polygon fill="white" stroke="black" points="185.934,-274.5 185.934,-304.5 296.11,-304.5 296.11,-274.5 185.934,-274.5"/>
<text text-anchor="start" x="193.934" y="-291.7" font-family="Helvetica,sans-Serif" font-size="11.00">netcdf4_support::nf</text>
<text text-anchor="middle" x="241.022" y="-280.7" font-family="Helvetica,sans-Serif" font-size="11.00">_get_time_vals</text>
</a>
</g>
</g>
<!-- Node1&#45;&gt;Node15 -->
<g id="edge17" class="edge"><title>Node1&#45;&gt;Node15</title>
<path fill="none" stroke="midnightblue" d="M119.967,-255.601C138.031,-260.702 158.363,-266.443 177.09,-271.73"/>
<polygon fill="midnightblue" stroke="midnightblue" points="176.141,-275.099 186.715,-274.448 178.043,-268.363 176.141,-275.099"/>
</g>
<!-- Node16 -->
<g id="node16" class="node"><title>Node16</title>
<g id="a_node16"><a xlink:href="namespacenetcdf4__support.html#aa2e8f7506c9fd50f984f1de77bfdc55d" target="_top" xlink:title="netcdf4_support::nf\l_get_variable_id_and_type">
<polygon fill="white" stroke="black" points="166.968,-323.5 166.968,-353.5 315.076,-353.5 315.076,-323.5 166.968,-323.5"/>
<text text-anchor="start" x="174.968" y="-340.7" font-family="Helvetica,sans-Serif" font-size="11.00">netcdf4_support::nf</text>
<text text-anchor="middle" x="241.022" y="-329.7" font-family="Helvetica,sans-Serif" font-size="11.00">_get_variable_id_and_type</text>
</a>
</g>
</g>
<!-- Node1&#45;&gt;Node16 -->
<g id="edge19" class="edge"><title>Node1&#45;&gt;Node16</title>
<path fill="none" stroke="midnightblue" d="M83.5042,-255.693C102.637,-272.111 135.196,-298.117 166.968,-314.5 170.472,-316.307 174.14,-318.016 177.887,-319.626"/>
<polygon fill="midnightblue" stroke="midnightblue" points="176.733,-322.935 187.316,-323.424 179.348,-316.442 176.733,-322.935"/>
</g>
<!-- Node17 -->
<g id="node17" class="node"><title>Node17</title>
<g id="a_node17"><a xlink:href="namespacenetcdf4__support.html#a35f14663565a2db3b4cb3fc4d626fb11" target="_top" xlink:title="netcdf4_support::nf\l_open_file">
<polygon fill="white" stroke="black" points="185.934,-225.5 185.934,-255.5 296.11,-255.5 296.11,-225.5 185.934,-225.5"/>
<text text-anchor="start" x="193.934" y="-242.7" font-family="Helvetica,sans-Serif" font-size="11.00">netcdf4_support::nf</text>
<text text-anchor="middle" x="241.022" y="-231.7" font-family="Helvetica,sans-Serif" font-size="11.00">_open_file</text>
</a>
</g>
</g>
<!-- Node1&#45;&gt;Node17 -->
<g id="edge21" class="edge"><title>Node1&#45;&gt;Node17</title>
<path fill="none" stroke="midnightblue" d="M131.103,-240.5C145.604,-240.5 160.989,-240.5 175.487,-240.5"/>
<polygon fill="midnightblue" stroke="midnightblue" points="175.861,-244 185.861,-240.5 175.861,-237 175.861,-244"/>
</g>
<!-- Node19 -->
<g id="node19" class="node"><title>Node19</title>
<g id="a_node19"><a xlink:href="namespacenetcdf4__support.html#acde440e1ad302ddd5efacb2aa46e4020" target="_top" xlink:title="netcdf4_support::nf\l_populate_dimension\l_struct">
<polygon fill="white" stroke="black" points="365.132,-134 365.132,-175 485.712,-175 485.712,-134 365.132,-134"/>
<text text-anchor="start" x="373.132" y="-162.2" font-family="Helvetica,sans-Serif" font-size="11.00">netcdf4_support::nf</text>
<text text-anchor="start" x="373.132" y="-151.2" font-family="Helvetica,sans-Serif" font-size="11.00">_populate_dimension</text>
<text text-anchor="middle" x="425.422" y="-140.2" font-family="Helvetica,sans-Serif" font-size="11.00">_struct</text>
</a>
</g>
</g>
<!-- Node1&#45;&gt;Node19 -->
<g id="edge24" class="edge"><title>Node1&#45;&gt;Node19</title>
<path fill="none" stroke="midnightblue" d="M129.242,-225.422C192.462,-210.232 289.766,-186.853 355.196,-171.133"/>
<polygon fill="midnightblue" stroke="midnightblue" points="356.106,-174.514 365.012,-168.774 354.471,-167.707 356.106,-174.514"/>
</g>
<!-- Node21 -->
<g id="node21" class="node"><title>Node21</title>
<g id="a_node21"><a xlink:href="namespacenetcdf4__support.html#a714886913deafdad6415f01eaab9bf39" target="_top" xlink:title="netcdf4_support::nf\l_populate_variable_struct">
<polygon fill="white" stroke="black" points="170.035,-98.5 170.035,-128.5 312.009,-128.5 312.009,-98.5 170.035,-98.5"/>
<text text-anchor="start" x="178.035" y="-115.7" font-family="Helvetica,sans-Serif" font-size="11.00">netcdf4_support::nf</text>
<text text-anchor="middle" x="241.022" y="-104.7" font-family="Helvetica,sans-Serif" font-size="11.00">_populate_variable_struct</text>
</a>
</g>
</g>
<!-- Node1&#45;&gt;Node21 -->
<g id="edge27" class="edge"><title>Node1&#45;&gt;Node21</title>
<path fill="none" stroke="midnightblue" d="M83.7164,-225.255C103.302,-208.212 136.51,-180.165 166.968,-158.5 179.08,-149.885 192.849,-141.149 205.143,-133.696"/>
<polygon fill="midnightblue" stroke="midnightblue" points="207.01,-136.657 213.789,-128.515 203.412,-130.652 207.01,-136.657"/>
</g>
<!-- Node3 -->
<g id="node3" class="node"><title>Node3</title>
<g id="a_node3"><a xlink:href="namespacedatetime.html#a9ac1a0a808a83a072ebc08cf0b3b4d8a" target="_top" xlink:title="datetime::julian_day">
<polygon fill="white" stroke="black" points="368.502,-577 368.502,-596 482.342,-596 482.342,-577 368.502,-577"/>
<text text-anchor="middle" x="425.422" y="-583.2" font-family="Helvetica,sans-Serif" font-size="11.00">datetime::julian_day</text>
</a>
</g>
</g>
<!-- Node2&#45;&gt;Node3 -->
<g id="edge2" class="edge"><title>Node2&#45;&gt;Node3</title>
<path fill="none" stroke="midnightblue" d="M270.081,-530.716C291.737,-542.004 322.694,-557.166 351.076,-567.5 357.789,-569.944 364.955,-572.207 372.079,-574.255"/>
<polygon fill="midnightblue" stroke="midnightblue" points="371.152,-577.629 381.723,-576.911 373.011,-570.881 371.152,-577.629"/>
</g>
<!-- Node5 -->
<g id="node5" class="node"><title>Node5</title>
<g id="a_node5"><a xlink:href="namespacenetcdf4__support.html#a7138fa9ca363dd10d3601c64e7063f6a" target="_top" xlink:title="netcdf4_support::nf\l_return_dimsize">
<polygon fill="white" stroke="black" points="370.334,-527.5 370.334,-557.5 480.51,-557.5 480.51,-527.5 370.334,-527.5"/>
<text text-anchor="start" x="378.334" y="-544.7" font-family="Helvetica,sans-Serif" font-size="11.00">netcdf4_support::nf</text>
<text text-anchor="middle" x="425.422" y="-533.7" font-family="Helvetica,sans-Serif" font-size="11.00">_return_dimsize</text>
</a>
</g>
</g>
<!-- Node4&#45;&gt;Node5 -->
<g id="edge4" class="edge"><title>Node4&#45;&gt;Node5</title>
<path fill="none" stroke="midnightblue" d="M251.523,-410.693C268.434,-436.525 306.222,-489.06 351.076,-518.5 354.17,-520.531 357.45,-522.403 360.841,-524.127"/>
<polygon fill="midnightblue" stroke="midnightblue" points="359.473,-527.35 370.021,-528.351 362.4,-520.991 359.473,-527.35"/>
</g>
<!-- Node6 -->
<g id="node6" class="node"><title>Node6</title>
<g id="a_node6"><a xlink:href="namespacenetcdf4__support.html#a71b923d03b66bdff21911ff7a745a326" target="_top" xlink:title="netcdf4_support::nf\l_get_variable_vector_short">
<polygon fill="white" stroke="black" points="351.076,-478.5 351.076,-508.5 499.769,-508.5 499.769,-478.5 351.076,-478.5"/>
<text text-anchor="start" x="359.076" y="-495.7" font-family="Helvetica,sans-Serif" font-size="11.00">netcdf4_support::nf</text>
<text text-anchor="middle" x="425.422" y="-484.7" font-family="Helvetica,sans-Serif" font-size="11.00">_get_variable_vector_short</text>
</a>
</g>
</g>
<!-- Node4&#45;&gt;Node6 -->
<g id="edge5" class="edge"><title>Node4&#45;&gt;Node6</title>
<path fill="none" stroke="midnightblue" d="M260.717,-410.599C281.678,-426.935 317.184,-452.868 351.076,-469.5 354.864,-471.359 358.831,-473.124 362.875,-474.79"/>
<polygon fill="midnightblue" stroke="midnightblue" points="361.814,-478.133 372.403,-478.495 364.351,-471.609 361.814,-478.133"/>
</g>
<!-- Node9 -->
<g id="node9" class="node"><title>Node9</title>
<g id="a_node9"><a xlink:href="namespacenetcdf4__support.html#a4324282002ee25b651a7cc12fb78bb51" target="_top" xlink:title="netcdf4_support::nf\l_get_variable_vector_int">
<polygon fill="white" stroke="black" points="357.494,-429.5 357.494,-459.5 493.35,-459.5 493.35,-429.5 357.494,-429.5"/>
<text text-anchor="start" x="365.494" y="-446.7" font-family="Helvetica,sans-Serif" font-size="11.00">netcdf4_support::nf</text>
<text text-anchor="middle" x="425.422" y="-435.7" font-family="Helvetica,sans-Serif" font-size="11.00">_get_variable_vector_int</text>
</a>
</g>
</g>
<!-- Node4&#45;&gt;Node9 -->
<g id="edge8" class="edge"><title>Node4&#45;&gt;Node9</title>
<path fill="none" stroke="midnightblue" d="M296.254,-410.069C315.837,-415.33 338.158,-421.326 358.624,-426.824"/>
<polygon fill="midnightblue" stroke="midnightblue" points="357.936,-430.263 368.502,-429.478 359.753,-423.503 357.936,-430.263"/>
</g>
<!-- Node10 -->
<g id="node10" class="node"><title>Node10</title>
<g id="a_node10"><a xlink:href="namespacenetcdf4__support.html#a67f676d85d4d9212060053851fec7f22" target="_top" xlink:title="netcdf4_support::nf\l_get_variable_vector_float">
<polygon fill="white" stroke="black" points="352.907,-380.5 352.907,-410.5 497.937,-410.5 497.937,-380.5 352.907,-380.5"/>
<text text-anchor="start" x="360.907" y="-397.7" font-family="Helvetica,sans-Serif" font-size="11.00">netcdf4_support::nf</text>
<text text-anchor="middle" x="425.422" y="-386.7" font-family="Helvetica,sans-Serif" font-size="11.00">_get_variable_vector_float</text>
</a>
</g>
</g>
<!-- Node4&#45;&gt;Node10 -->
<g id="edge10" class="edge"><title>Node4&#45;&gt;Node10</title>
<path fill="none" stroke="midnightblue" d="M296.254,-395.5C310.812,-395.5 326.883,-395.5 342.581,-395.5"/>
<polygon fill="midnightblue" stroke="midnightblue" points="342.823,-399 352.823,-395.5 342.823,-392 342.823,-399"/>
</g>
<!-- Node11 -->
<g id="node11" class="node"><title>Node11</title>
<g id="a_node11"><a xlink:href="namespacenetcdf4__support.html#a2aef556f129131e1afd5987ceda97c21" target="_top" xlink:title="netcdf4_support::nf\l_get_variable_vector\l_double">
<polygon fill="white" stroke="black" points="366.362,-282 366.362,-323 484.482,-323 484.482,-282 366.362,-282"/>
<text text-anchor="start" x="374.362" y="-310.2" font-family="Helvetica,sans-Serif" font-size="11.00">netcdf4_support::nf</text>
<text text-anchor="start" x="374.362" y="-299.2" font-family="Helvetica,sans-Serif" font-size="11.00">_get_variable_vector</text>
<text text-anchor="middle" x="425.422" y="-288.2" font-family="Helvetica,sans-Serif" font-size="11.00">_double</text>
</a>
</g>
</g>
<!-- Node4&#45;&gt;Node11 -->
<g id="edge12" class="edge"><title>Node4&#45;&gt;Node11</title>
<path fill="none" stroke="midnightblue" d="M282.171,-380.466C293.179,-375.67 304.881,-369.918 315.076,-363.5 332.944,-352.251 333.07,-343.529 351.076,-332.5 353.833,-330.811 356.702,-329.18 359.639,-327.609"/>
<polygon fill="midnightblue" stroke="midnightblue" points="361.258,-330.713 368.61,-323.084 358.105,-324.463 361.258,-330.713"/>
</g>
<!-- Node12 -->
<g id="node12" class="node"><title>Node12</title>
<g id="a_node12"><a xlink:href="namespaceexceptions.html#a84dd04476b06e0a398bfe6d106a82a4d" target="_top" xlink:title="exceptions::warn">
<polygon fill="white" stroke="black" points="376.151,-342 376.151,-361 474.694,-361 474.694,-342 376.151,-342"/>
<text text-anchor="middle" x="425.422" y="-348.2" font-family="Helvetica,sans-Serif" font-size="11.00">exceptions::warn</text>
</a>
</g>
</g>
<!-- Node4&#45;&gt;Node12 -->
<g id="edge14" class="edge"><title>Node4&#45;&gt;Node12</title>
<path fill="none" stroke="midnightblue" d="M296.254,-382.418C321.267,-376.384 350.745,-369.273 375.12,-363.393"/>
<polygon fill="midnightblue" stroke="midnightblue" points="375.98,-366.786 384.88,-361.039 374.338,-359.981 375.98,-366.786"/>
</g>
<!-- Node7 -->
<g id="node7" class="node"><title>Node7</title>
<g id="a_node7"><a xlink:href="namespacenetcdf4__support.html#ac8c7276a5849ae6d17ffef1787e3f234" target="_top" xlink:title="netcdf4_support::nf_trap">
<polygon fill="white" stroke="black" points="544.327,-243 544.327,-262 679.576,-262 679.576,-243 544.327,-243"/>
<text text-anchor="middle" x="611.952" y="-249.2" font-family="Helvetica,sans-Serif" font-size="11.00">netcdf4_support::nf_trap</text>
</a>
</g>
</g>
<!-- Node6&#45;&gt;Node7 -->
<g id="edge6" class="edge"><title>Node6&#45;&gt;Node7</title>
<path fill="none" stroke="midnightblue" d="M486.615,-478.316C491.33,-475.81 495.795,-472.893 499.769,-469.5 563.597,-414.995 595.25,-314.743 606.279,-272.307"/>
<polygon fill="midnightblue" stroke="midnightblue" points="609.728,-272.939 608.75,-262.389 602.936,-271.246 609.728,-272.939"/>
</g>
<!-- Node8 -->
<g id="node8" class="node"><title>Node8</title>
<g id="a_node8"><a xlink:href="namespaceconstants__and__conversions.html#ac13fba285229deab77131132e6f62caf" target="_top" xlink:title="constants_and_conversions\l::char_ptr_to_fortran_string">
<polygon fill="white" stroke="black" points="724.135,-237.5 724.135,-267.5 876.502,-267.5 876.502,-237.5 724.135,-237.5"/>
<text text-anchor="start" x="732.135" y="-254.7" font-family="Helvetica,sans-Serif" font-size="11.00">constants_and_conversions</text>
<text text-anchor="middle" x="800.319" y="-243.7" font-family="Helvetica,sans-Serif" font-size="11.00">::char_ptr_to_fortran_string</text>
</a>
</g>
</g>
<!-- Node7&#45;&gt;Node8 -->
<g id="edge7" class="edge"><title>Node7&#45;&gt;Node8</title>
<path fill="none" stroke="midnightblue" d="M679.708,-252.5C690.775,-252.5 702.385,-252.5 713.838,-252.5"/>
<polygon fill="midnightblue" stroke="midnightblue" points="713.845,-256 723.845,-252.5 713.845,-249 713.845,-256"/>
</g>
<!-- Node9&#45;&gt;Node7 -->
<g id="edge9" class="edge"><title>Node9&#45;&gt;Node7</title>
<path fill="none" stroke="midnightblue" d="M485.111,-429.377C490.312,-426.849 495.293,-423.911 499.769,-420.5 552.962,-379.961 588.723,-306.251 603.415,-271.541"/>
<polygon fill="midnightblue" stroke="midnightblue" points="606.73,-272.681 607.294,-262.102 600.256,-270.021 606.73,-272.681"/>
</g>
<!-- Node10&#45;&gt;Node7 -->
<g id="edge11" class="edge"><title>Node10&#45;&gt;Node7</title>
<path fill="none" stroke="midnightblue" d="M480.712,-380.387C487.367,-377.565 493.886,-374.286 499.769,-370.5 542.141,-343.232 579.621,-296.399 598.331,-270.697"/>
<polygon fill="midnightblue" stroke="midnightblue" points="601.392,-272.434 604.349,-262.26 595.693,-268.369 601.392,-272.434"/>
</g>
<!-- Node11&#45;&gt;Node7 -->
<g id="edge13" class="edge"><title>Node11&#45;&gt;Node7</title>
<path fill="none" stroke="midnightblue" d="M484.555,-286.748C510.832,-279.628 541.408,-271.344 565.905,-264.706"/>
<polygon fill="midnightblue" stroke="midnightblue" points="566.92,-268.057 575.657,-262.063 565.09,-261.301 566.92,-268.057"/>
</g>
<!-- Node15&#45;&gt;Node11 -->
<g id="edge18" class="edge"><title>Node15&#45;&gt;Node11</title>
<path fill="none" stroke="midnightblue" d="M296.254,-293.365C315.033,-294.704 336.33,-296.222 356.094,-297.63"/>
<polygon fill="midnightblue" stroke="midnightblue" points="356.045,-301.135 366.269,-298.355 356.543,-294.153 356.045,-301.135"/>
</g>
<!-- Node16&#45;&gt;Node12 -->
<g id="edge20" class="edge"><title>Node16&#45;&gt;Node12</title>
<path fill="none" stroke="midnightblue" d="M315.16,-343.713C331.99,-344.912 349.674,-346.173 365.795,-347.322"/>
<polygon fill="midnightblue" stroke="midnightblue" points="365.915,-350.839 376.139,-348.059 366.413,-343.857 365.915,-350.839"/>
</g>
<!-- Node17&#45;&gt;Node7 -->
<g id="edge23" class="edge"><title>Node17&#45;&gt;Node7</title>
<path fill="none" stroke="midnightblue" d="M296.189,-230.364C313.644,-227.553 333.118,-224.891 351.076,-223.5 416.964,-218.395 434.22,-215.092 499.769,-223.5 524.536,-226.677 551.666,-233.681 572.925,-240.009"/>
<polygon fill="midnightblue" stroke="midnightblue" points="571.965,-243.376 582.552,-242.947 574.009,-236.68 571.965,-243.376"/>
</g>
<!-- Node18 -->
<g id="node18" class="node"><title>Node18</title>
<g id="a_node18"><a xlink:href="namespacenetcdf4__support.html#ae3647a050723866e061cd0b58a013985" target="_top" xlink:title="netcdf4_support::netcdf\l_dump_cdl">
<polygon fill="white" stroke="black" points="359.938,-232.5 359.938,-262.5 490.906,-262.5 490.906,-232.5 359.938,-232.5"/>
<text text-anchor="start" x="367.938" y="-249.7" font-family="Helvetica,sans-Serif" font-size="11.00">netcdf4_support::netcdf</text>
<text text-anchor="middle" x="425.422" y="-238.7" font-family="Helvetica,sans-Serif" font-size="11.00">_dump_cdl</text>
</a>
</g>
</g>
<!-- Node17&#45;&gt;Node18 -->
<g id="edge22" class="edge"><title>Node17&#45;&gt;Node18</title>
<path fill="none" stroke="midnightblue" d="M296.254,-242.581C312.933,-243.221 331.598,-243.938 349.411,-244.621"/>
<polygon fill="midnightblue" stroke="midnightblue" points="349.653,-248.133 359.78,-245.019 349.921,-241.138 349.653,-248.133"/>
</g>
<!-- Node19&#45;&gt;Node7 -->
<g id="edge25" class="edge"><title>Node19&#45;&gt;Node7</title>
<path fill="none" stroke="midnightblue" d="M470.886,-175.101C480.475,-179.715 490.509,-184.675 499.769,-189.5 529.896,-205.199 563.761,-224.657 586.114,-237.761"/>
<polygon fill="midnightblue" stroke="midnightblue" points="584.551,-240.902 594.944,-242.959 588.101,-234.87 584.551,-240.902"/>
</g>
<!-- Node20 -->
<g id="node20" class="node"><title>Node20</title>
<g id="a_node20"><a xlink:href="namespaceconstants__and__conversions.html#adeac78899e44bc3d58e26397fa64e4a7" target="_top" xlink:title="constants_and_conversions\l::c_to_fortran_string">
<polygon fill="white" stroke="black" points="535.769,-41.5 535.769,-71.5 688.135,-71.5 688.135,-41.5 535.769,-41.5"/>
<text text-anchor="start" x="543.769" y="-58.7" font-family="Helvetica,sans-Serif" font-size="11.00">constants_and_conversions</text>
<text text-anchor="middle" x="611.952" y="-47.7" font-family="Helvetica,sans-Serif" font-size="11.00">::c_to_fortran_string</text>
</a>
</g>
</g>
<!-- Node19&#45;&gt;Node20 -->
<g id="edge26" class="edge"><title>Node19&#45;&gt;Node20</title>
<path fill="none" stroke="midnightblue" d="M465.106,-133.956C497.04,-116.996 542.081,-93.0762 573.634,-76.3188"/>
<polygon fill="midnightblue" stroke="midnightblue" points="575.368,-79.3609 582.558,-71.5793 572.085,-73.1786 575.368,-79.3609"/>
</g>
<!-- Node21&#45;&gt;Node7 -->
<g id="edge28" class="edge"><title>Node21&#45;&gt;Node7</title>
<path fill="none" stroke="midnightblue" d="M312.097,-102.036C366.088,-96.5201 441.165,-96.2547 499.769,-124.5 548.844,-148.153 585.073,-204.508 601.38,-233.917"/>
<polygon fill="midnightblue" stroke="midnightblue" points="598.32,-235.618 606.136,-242.772 604.487,-232.306 598.32,-235.618"/>
</g>
<!-- Node21&#45;&gt;Node20 -->
<g id="edge29" class="edge"><title>Node21&#45;&gt;Node20</title>
<path fill="none" stroke="midnightblue" d="M299.594,-98.345C305.132,-95.5808 310.413,-92.3268 315.076,-88.5 339.707,-68.2857 323.461,-42.3979 351.076,-26.5 419.953,13.1534 516.097,-15.4226 570.046,-37.4779"/>
<polygon fill="midnightblue" stroke="midnightblue" points="568.717,-40.7159 579.292,-41.3639 571.429,-34.2627 568.717,-40.7159"/>
</g>
<!-- Node22 -->
<g id="node22" class="node"><title>Node22</title>
<g id="a_node22"><a xlink:href="namespacenetcdf4__support.html#aa2d6e99c4cd59ef92c2878aa06c4a67e" target="_top" xlink:title="netcdf4_support::nf\l_populate_attribute\l_struct">
<polygon fill="white" stroke="black" points="370.328,-36 370.328,-77 480.516,-77 480.516,-36 370.328,-36"/>
<text text-anchor="start" x="378.328" y="-64.2" font-family="Helvetica,sans-Serif" font-size="11.00">netcdf4_support::nf</text>
<text text-anchor="start" x="378.328" y="-53.2" font-family="Helvetica,sans-Serif" font-size="11.00">_populate_attribute</text>
<text text-anchor="middle" x="425.422" y="-42.2" font-family="Helvetica,sans-Serif" font-size="11.00">_struct</text>
</a>
</g>
</g>
<!-- Node21&#45;&gt;Node22 -->
<g id="edge30" class="edge"><title>Node21&#45;&gt;Node22</title>
<path fill="none" stroke="midnightblue" d="M290.423,-98.3747C311.94,-91.6506 337.568,-83.6419 360.621,-76.4378"/>
<polygon fill="midnightblue" stroke="midnightblue" points="361.823,-79.7292 370.324,-73.4057 359.735,-73.0479 361.823,-79.7292"/>
</g>
<!-- Node22&#45;&gt;Node7 -->
<g id="edge31" class="edge"><title>Node22&#45;&gt;Node7</title>
<path fill="none" stroke="midnightblue" d="M478.621,-77.1869C486.122,-81.3304 493.433,-86.1002 499.769,-91.5 548.524,-133.054 585.784,-200.758 602.026,-233.533"/>
<polygon fill="midnightblue" stroke="midnightblue" points="599.039,-235.395 606.549,-242.869 605.339,-232.344 599.039,-235.395"/>
</g>
<!-- Node22&#45;&gt;Node20 -->
<g id="edge32" class="edge"><title>Node22&#45;&gt;Node20</title>
<path fill="none" stroke="midnightblue" d="M480.789,-56.5C494.696,-56.5 509.993,-56.5 525.063,-56.5"/>
<polygon fill="midnightblue" stroke="midnightblue" points="525.439,-60.0001 535.439,-56.5 525.439,-53.0001 525.439,-60.0001"/>
</g>
</g>
</svg>
        <g id="navigator" transform="translate(0 0)" fill="#404254">
                <rect fill="#f2f5e9" fill-opacity="0.5" stroke="#606060" stroke-width=".5" x="0" y="0" width="60" height="60"/>
                <use id="zoomplus" xlink:href="#zoomPlus" x="17" y="9" onmousedown="handleZoom(evt,'in')"/>
                <use id="zoomminus" xlink:href="#zoomMin" x="42" y="9" onmousedown="handleZoom(evt,'out')"/>
                <use id="reset" xlink:href="#resetDef" x="30" y="36" onmousedown="handleReset()"/>
                <g id="arrowUp" xlink:href="#dirArrow" transform="translate(30 24)" onmousedown="handlePan(0,-1)">
                  <use xlink:href="#rim" fill="#404040">
                        <set attributeName="fill" to="#808080" begin="arrowUp.mouseover" end="arrowUp.mouseout"/>
                  </use>
                  <path fill="none" stroke="white" stroke-width="1.5" d="M0,-3.0v7 M-2.5,-0.5L0,-3.0L2.5,-0.5"/>
                </g>
                <g id="arrowRight" xlink:href="#dirArrow" transform="rotate(90) translate(36 -43)" onmousedown="handlePan(1,0)">
                  <use xlink:href="#rim" fill="#404040">
                        <set attributeName="fill" to="#808080" begin="arrowRight.mouseover" end="arrowRight.mouseout"/>
                  </use>
                  <path fill="none" stroke="white" stroke-width="1.5" d="M0,-3.0v7 M-2.5,-0.5L0,-3.0L2.5,-0.5"/>
                </g>
                <g id="arrowDown" xlink:href="#dirArrow" transform="rotate(180) translate(-30 -48)" onmousedown="handlePan(0,1)">
                  <use xlink:href="#rim" fill="#404040">
                        <set attributeName="fill" to="#808080" begin="arrowDown.mouseover" end="arrowDown.mouseout"/>
                  </use>
                  <path fill="none" stroke="white" stroke-width="1.5" d="M0,-3.0v7 M-2.5,-0.5L0,-3.0L2.5,-0.5"/>
                </g>
                <g id="arrowLeft" xlink:href="#dirArrow" transform="rotate(270) translate(-36 17)" onmousedown="handlePan(-1,0)">
                  <use xlink:href="#rim" fill="#404040">
                        <set attributeName="fill" to="#808080" begin="arrowLeft.mouseover" end="arrowLeft.mouseout"/>
                  </use>
                  <path fill="none" stroke="white" stroke-width="1.5" d="M0,-3.0v7 M-2.5,-0.5L0,-3.0L2.5,-0.5"/>
                </g>
        </g>
        <svg viewBox="0 0 15 15" width="100%" height="30px" preserveAspectRatio="xMaxYMin meet">
         <g id="arrow_out" transform="scale(0.3 0.3)">
          <a xlink:href="namespacenetcdf4__support_a7b3b3cf3aab614eb336e12694c5d76ef_cgraph_org.svg" target="_base">
           <rect id="button" ry="5" rx="5" y="6" x="6" height="38" width="38"
                fill="#f2f5e9" fill-opacity="0.5" stroke="#606060" stroke-width="1.0"/>
           <path id="arrow"
             d="M 11.500037,31.436501 C 11.940474,20.09759 22.043105,11.32322 32.158766,21.979434 L 37.068811,17.246167 C 37.068811,17.246167 37.088388,32 37.088388,32 L 22.160133,31.978069 C 22.160133,31.978069 26.997745,27.140456 26.997745,27.140456 C 18.528582,18.264221 13.291696,25.230495 11.500037,31.436501 z"
             style="fill:#404040;"/>
          </a>
         </g>
        </svg>
</svg>
