<?xml version="1.0" encoding="UTF-8" standalone="no"?>
<!DOCTYPE svg PUBLIC "-//W3C//DTD SVG 1.1//EN"
 "http://www.w3.org/Graphics/SVG/1.1/DTD/svg11.dtd">
<!-- Generated by graphviz version 2.38.0 (20140413.2041)
 -->
<!-- Title: direct_recharge__gridded_data::direct_recharge_initialize Pages: 1 -->
<svg width="517pt" height="50pt"
 viewBox="0.00 0.00 516.90 50.00" xmlns="http://www.w3.org/2000/svg" xmlns:xlink="http://www.w3.org/1999/xlink">
<g id="graph0" class="graph" transform="scale(1 1) rotate(0) translate(4 46)">
<title>direct_recharge__gridded_data::direct_recharge_initialize</title>
<polygon fill="white" stroke="none" points="-4,4 -4,-46 512.905,-46 512.905,4 -4,4"/>
<!-- Node2 -->
<g id="node1" class="node"><title>Node2</title>
<polygon fill="#bfbfbf" stroke="black" points="0,-0.5 0,-41.5 141.361,-41.5 141.361,-0.5 0,-0.5"/>
<text text-anchor="start" x="8" y="-28.7" font-family="Helvetica,sans-Serif" font-size="11.00">direct_recharge__gridded</text>
<text text-anchor="start" x="8" y="-17.7" font-family="Helvetica,sans-Serif" font-size="11.00">_data::direct_recharge</text>
<text text-anchor="middle" x="70.6807" y="-6.7" font-family="Helvetica,sans-Serif" font-size="11.00">_initialize</text>
</g>
<!-- Node3 -->
<g id="node2" class="node"><title>Node3</title>
<g id="a_node2"><a xlink:href="namespacemodel__domain.html#a7bd94f85696ee5036ac06e5443194e71" target="_top" xlink:title="model_domain::model\l_initialize_direct_recharge\l_gridded">
<polygon fill="white" stroke="black" points="177.361,-0.5 177.361,-41.5 321.156,-41.5 321.156,-0.5 177.361,-0.5"/>
<text text-anchor="start" x="185.361" y="-28.7" font-family="Helvetica,sans-Serif" font-size="11.00">model_domain::model</text>
<text text-anchor="start" x="185.361" y="-17.7" font-family="Helvetica,sans-Serif" font-size="11.00">_initialize_direct_recharge</text>
<text text-anchor="middle" x="249.259" y="-6.7" font-family="Helvetica,sans-Serif" font-size="11.00">_gridded</text>
</a>
</g>
</g>
<!-- Node2&#45;&gt;Node3 -->
<g id="edge1" class="edge"><title>Node2&#45;&gt;Node3</title>
<path fill="none" stroke="midnightblue" d="M151.481,-21C160.069,-21 168.765,-21 177.241,-21"/>
<polygon fill="midnightblue" stroke="midnightblue" points="151.469,-17.5001 141.469,-21 151.469,-24.5001 151.469,-17.5001"/>
</g>
<!-- Node4 -->
<g id="node3" class="node"><title>Node4</title>
<g id="a_node3"><a xlink:href="namespacemodel__domain.html#aac78dbf26ba37cf86ebed4edd7acf89b" target="_top" xlink:title="model_domain::set_method\l_pointers_sub">
<polygon fill="white" stroke="black" points="357.156,-6 357.156,-36 508.905,-36 508.905,-6 357.156,-6"/>
<text text-anchor="start" x="365.156" y="-23.2" font-family="Helvetica,sans-Serif" font-size="11.00">model_domain::set_method</text>
<text text-anchor="middle" x="433.03" y="-12.2" font-family="Helvetica,sans-Serif" font-size="11.00">_pointers_sub</text>
</a>
</g>
</g>
<!-- Node3&#45;&gt;Node4 -->
<g id="edge2" class="edge"><title>Node3&#45;&gt;Node4</title>
<path fill="none" stroke="midnightblue" d="M331.323,-21C339.908,-21 348.612,-21 357.122,-21"/>
<polygon fill="midnightblue" stroke="midnightblue" points="331.317,-17.5001 321.317,-21 331.317,-24.5001 331.317,-17.5001"/>
</g>
</g>
</svg>
