<?xml version="1.0" encoding="UTF-8" standalone="no"?>
<!DOCTYPE svg PUBLIC "-//W3C//DTD SVG 1.1//EN"
 "http://www.w3.org/Graphics/SVG/1.1/DTD/svg11.dtd">
<!-- Generated by graphviz version 2.38.0 (20140413.2041)
 -->
<!-- Title: netcdf4_support::netcdf_dump_cdl Pages: 1 -->
<!--zoomable 149 -->
<svg id="main" version="1.1" xmlns="http://www.w3.org/2000/svg" xmlns:xlink="http://www.w3.org/1999/xlink" xml:space="preserve" onload="init(evt)">
<style type="text/css"><![CDATA[
.edge:hover path { stroke: red; }
.edge:hover polygon { stroke: red; fill: red; }
]]></style>
<script type="text/javascript"><![CDATA[
var edges = document.getElementsByTagName('g');
if (edges && edges.length) {
  for (var i=0;i<edges.length;i++) {
    if (edges[i].id.substr(0,4)=='edge') {
      edges[i].setAttribute('class','edge');
    }
  }
}
]]></script>
        <defs>
                <circle id="rim" cx="0" cy="0" r="7"/>
                <circle id="rim2" cx="0" cy="0" r="3.5"/>
                <g id="zoomPlus">
                        <use xlink:href="#rim" fill="#404040">
                                <set attributeName="fill" to="#808080" begin="zoomplus.mouseover" end="zoomplus.mouseout"/>
                        </use>
                        <path d="M-4,0h8M0,-4v8" fill="none" stroke="white" stroke-width="1.5" pointer-events="none"/>
                </g>
                <g id="zoomMin">
                        <use xlink:href="#rim" fill="#404040">
                                <set attributeName="fill" to="#808080" begin="zoomminus.mouseover" end="zoomminus.mouseout"/>
                        </use>
                        <path d="M-4,0h8" fill="none" stroke="white" stroke-width="1.5" pointer-events="none"/>
                </g>
                <g id="dirArrow">
                        <path fill="none" stroke="white" stroke-width="1.5" d="M0,-3.0v7 M-2.5,-0.5L0,-3.0L2.5,-0.5"/>
                </g>
               <g id="resetDef">
                       <use xlink:href="#rim2" fill="#404040">
                               <set attributeName="fill" to="#808080" begin="reset.mouseover" end="reset.mouseout"/>
                       </use>
               </g>
        </defs>

<script type="text/javascript">
var viewWidth = 826;
var viewHeight = 149;
var sectionId = 'dynsection-64';
</script>
<script xlink:href="svgpan.js"/>
<svg id="graph" class="graph">
<g id="viewport">
<title>netcdf4_support::netcdf_dump_cdl</title>
<polygon fill="white" stroke="none" points="-4,4 -4,-145 822.44,-145 822.44,4 -4,4"/>
<!-- Node489 -->
<g id="node1" class="node"><title>Node489</title>
<polygon fill="#bfbfbf" stroke="black" points="0,-82.5 0,-112.5 130.968,-112.5 130.968,-82.5 0,-82.5"/>
<text text-anchor="start" x="8" y="-99.7" font-family="Helvetica,sans-Serif" font-size="11.00">netcdf4_support::netcdf</text>
<text text-anchor="middle" x="65.4841" y="-88.7" font-family="Helvetica,sans-Serif" font-size="11.00">_dump_cdl</text>
</g>
<!-- Node490 -->
<g id="node2" class="node"><title>Node490</title>
<g id="a_node2"><a xlink:href="namespacenetcdf4__support.html#a6d3d402059d71a8bd24a01dc6116ff7d" target="_top" xlink:title="netcdf4_support::netcdf\l_open_and_prepare_as_input">
<polygon fill="white" stroke="black" points="313.145,-110.5 313.145,-140.5 475.942,-140.5 475.942,-110.5 313.145,-110.5"/>
<text text-anchor="start" x="321.145" y="-127.7" font-family="Helvetica,sans-Serif" font-size="11.00">netcdf4_support::netcdf</text>
<text text-anchor="middle" x="394.544" y="-116.7" font-family="Helvetica,sans-Serif" font-size="11.00">_open_and_prepare_as_input</text>
</a>
</g>
</g>
<!-- Node489&#45;&gt;Node490 -->
<g id="edge1" class="edge"><title>Node489&#45;&gt;Node490</title>
<path fill="none" stroke="midnightblue" d="M141.135,-103.891C192.471,-108.286 260.594,-114.118 313.129,-118.616"/>
<polygon fill="midnightblue" stroke="midnightblue" points="141.363,-100.398 131.101,-103.032 140.766,-107.372 141.363,-100.398"/>
</g>
<!-- Node494 -->
<g id="node6" class="node"><title>Node494</title>
<g id="a_node6"><a xlink:href="namespacenetcdf4__support.html#a35f14663565a2db3b4cb3fc4d626fb11" target="_top" xlink:title="netcdf4_support::nf\l_open_file">
<polygon fill="white" stroke="black" points="166.968,-58.5 166.968,-88.5 277.145,-88.5 277.145,-58.5 166.968,-58.5"/>
<text text-anchor="start" x="174.968" y="-75.7" font-family="Helvetica,sans-Serif" font-size="11.00">netcdf4_support::nf</text>
<text text-anchor="middle" x="222.057" y="-64.7" font-family="Helvetica,sans-Serif" font-size="11.00">_open_file</text>
</a>
</g>
</g>
<!-- Node489&#45;&gt;Node494 -->
<g id="edge6" class="edge"><title>Node489&#45;&gt;Node494</title>
<path fill="none" stroke="midnightblue" d="M141.264,-85.8891C149.926,-84.5442 158.63,-83.1928 166.94,-81.9025"/>
<polygon fill="midnightblue" stroke="midnightblue" points="140.486,-82.468 131.141,-87.4609 141.56,-89.3851 140.486,-82.468"/>
</g>
<!-- Node491 -->
<g id="node3" class="node"><title>Node491</title>
<g id="a_node3"><a xlink:href="namespacedata__catalog__entry.html#aeb285131f87ed64deba0a9041a9c6405" target="_top" xlink:title="data_catalog_entry\l::getvalues_dynamic\l_netcdf_sub">
<polygon fill="white" stroke="black" points="534.267,-77 534.267,-118 650.546,-118 650.546,-77 534.267,-77"/>
<text text-anchor="start" x="542.267" y="-105.2" font-family="Helvetica,sans-Serif" font-size="11.00">data_catalog_entry</text>
<text text-anchor="start" x="542.267" y="-94.2" font-family="Helvetica,sans-Serif" font-size="11.00">::getvalues_dynamic</text>
<text text-anchor="middle" x="592.406" y="-83.2" font-family="Helvetica,sans-Serif" font-size="11.00">_netcdf_sub</text>
</a>
</g>
</g>
<!-- Node490&#45;&gt;Node491 -->
<g id="edge2" class="edge"><title>Node490&#45;&gt;Node491</title>
<path fill="none" stroke="midnightblue" d="M486.189,-112.542C502.546,-110.203 519.176,-107.826 534.239,-105.672"/>
<polygon fill="midnightblue" stroke="midnightblue" points="485.461,-109.11 476.056,-113.99 486.451,-116.04 485.461,-109.11"/>
</g>
<!-- Node493 -->
<g id="node5" class="node"><title>Node493</title>
<g id="a_node5"><a xlink:href="namespacedata__catalog__entry.html#ac3e1f0d9d9e146fbb77c0084e1e9fc14" target="_top" xlink:title="data_catalog_entry\l::getvalues_static_netcdf_sub">
<polygon fill="white" stroke="black" points="511.942,-27.5 511.942,-57.5 672.871,-57.5 672.871,-27.5 511.942,-27.5"/>
<text text-anchor="start" x="519.942" y="-44.7" font-family="Helvetica,sans-Serif" font-size="11.00">data_catalog_entry</text>
<text text-anchor="middle" x="592.406" y="-33.7" font-family="Helvetica,sans-Serif" font-size="11.00">::getvalues_static_netcdf_sub</text>
</a>
</g>
</g>
<!-- Node490&#45;&gt;Node493 -->
<g id="edge4" class="edge"><title>Node490&#45;&gt;Node493</title>
<path fill="none" stroke="midnightblue" d="M464.309,-106.42C468.326,-104.601 472.236,-102.631 475.942,-100.5 494.76,-89.683 493.143,-78.3483 511.942,-67.5 518.581,-63.6689 525.877,-60.3526 533.274,-57.5021"/>
<polygon fill="midnightblue" stroke="midnightblue" points="462.667,-103.312 454.784,-110.392 465.361,-109.773 462.667,-103.312"/>
</g>
<!-- Node492 -->
<g id="node4" class="node"><title>Node492</title>
<g id="a_node4"><a xlink:href="namespacedata__catalog__entry.html#a9e0a89ab19a5bfd61f2dfb8265648234" target="_top" xlink:title="data_catalog_entry\l::getvalues_sub">
<polygon fill="white" stroke="black" points="708.871,-54.5 708.871,-84.5 818.44,-84.5 818.44,-54.5 708.871,-54.5"/>
<text text-anchor="start" x="716.871" y="-71.7" font-family="Helvetica,sans-Serif" font-size="11.00">data_catalog_entry</text>
<text text-anchor="middle" x="763.656" y="-60.7" font-family="Helvetica,sans-Serif" font-size="11.00">::getvalues_sub</text>
</a>
</g>
</g>
<!-- Node491&#45;&gt;Node492 -->
<g id="edge3" class="edge"><title>Node491&#45;&gt;Node492</title>
<path fill="none" stroke="midnightblue" d="M661.009,-86.3161C676.908,-83.6858 693.643,-80.9172 708.842,-78.4027"/>
<polygon fill="midnightblue" stroke="midnightblue" points="660.001,-82.9351 650.706,-88.0205 661.144,-89.8413 660.001,-82.9351"/>
</g>
<!-- Node493&#45;&gt;Node492 -->
<g id="edge5" class="edge"><title>Node493&#45;&gt;Node492</title>
<path fill="none" stroke="midnightblue" d="M683.213,-56.8267C691.839,-58.2028 700.393,-59.5674 708.515,-60.8631"/>
<polygon fill="midnightblue" stroke="midnightblue" points="683.502,-53.3285 673.075,-55.2094 682.399,-60.2411 683.502,-53.3285"/>
</g>
<!-- Node494&#45;&gt;Node490 -->
<g id="edge7" class="edge"><title>Node494&#45;&gt;Node490</title>
<path fill="none" stroke="midnightblue" d="M282.133,-91.5188C302.429,-97.7092 324.916,-104.568 344.343,-110.493"/>
<polygon fill="midnightblue" stroke="midnightblue" points="282.955,-88.1103 272.369,-88.5406 280.912,-94.8058 282.955,-88.1103"/>
</g>
<!-- Node495 -->
<g id="node7" class="node"><title>Node495</title>
<g id="a_node7"><a xlink:href="namespacenetcdf4__support.html#a8be734b602e654816c17b5e27d0fbffb" target="_top" xlink:title="netcdf4_support::netcdf\l_open_and_prepare_for\l_merging">
<polygon fill="white" stroke="black" points="327.521,-50 327.521,-91 461.567,-91 461.567,-50 327.521,-50"/>
<text text-anchor="start" x="335.521" y="-78.2" font-family="Helvetica,sans-Serif" font-size="11.00">netcdf4_support::netcdf</text>
<text text-anchor="start" x="335.521" y="-67.2" font-family="Helvetica,sans-Serif" font-size="11.00">_open_and_prepare_for</text>
<text text-anchor="middle" x="394.544" y="-56.2" font-family="Helvetica,sans-Serif" font-size="11.00">_merging</text>
</a>
</g>
</g>
<!-- Node494&#45;&gt;Node495 -->
<g id="edge8" class="edge"><title>Node494&#45;&gt;Node495</title>
<path fill="none" stroke="midnightblue" d="M287.716,-72.3622C300.705,-72.1336 314.374,-71.8931 327.413,-71.6637"/>
<polygon fill="midnightblue" stroke="midnightblue" points="287.405,-68.867 277.469,-72.5425 287.529,-75.866 287.405,-68.867"/>
</g>
<!-- Node496 -->
<g id="node8" class="node"><title>Node496</title>
<g id="a_node8"><a xlink:href="namespacenetcdf4__support.html#a7b3b3cf3aab614eb336e12694c5d76ef" target="_top" xlink:title="netcdf4_support::netcdf\l_open_file">
<polygon fill="white" stroke="black" points="329.06,-0.5 329.06,-30.5 460.028,-30.5 460.028,-0.5 329.06,-0.5"/>
<text text-anchor="start" x="337.06" y="-17.7" font-family="Helvetica,sans-Serif" font-size="11.00">netcdf4_support::netcdf</text>
<text text-anchor="middle" x="394.544" y="-6.7" font-family="Helvetica,sans-Serif" font-size="11.00">_open_file</text>
</a>
</g>
</g>
<!-- Node494&#45;&gt;Node496 -->
<g id="edge9" class="edge"><title>Node494&#45;&gt;Node496</title>
<path fill="none" stroke="midnightblue" d="M272.232,-54.9856C285.469,-50.1392 299.814,-45.0111 313.145,-40.5 322.976,-37.1733 333.538,-33.7689 343.669,-30.5858"/>
<polygon fill="midnightblue" stroke="midnightblue" points="270.994,-51.7118 262.82,-58.4519 273.413,-58.2805 270.994,-51.7118"/>
</g>
<!-- Node496&#45;&gt;Node491 -->
<g id="edge10" class="edge"><title>Node496&#45;&gt;Node491</title>
<path fill="none" stroke="midnightblue" d="M461.725,-34.1571C466.612,-36.116 471.401,-38.2302 475.942,-40.5 493.597,-49.3235 494.61,-57.06 511.942,-66.5 518.965,-70.3248 526.561,-73.9153 534.175,-77.2002"/>
<polygon fill="midnightblue" stroke="midnightblue" points="462.841,-30.8373 452.249,-30.5813 460.37,-37.3865 462.841,-30.8373"/>
</g>
<!-- Node496&#45;&gt;Node493 -->
<g id="edge11" class="edge"><title>Node496&#45;&gt;Node493</title>
<path fill="none" stroke="midnightblue" d="M470.427,-25.8228C483.958,-27.6881 498.112,-29.6391 511.772,-31.5223"/>
<polygon fill="midnightblue" stroke="midnightblue" points="470.604,-22.3141 460.219,-24.4156 469.648,-29.2485 470.604,-22.3141"/>
</g>
</g>
</svg>
        <g id="navigator" transform="translate(0 0)" fill="#404254">
                <rect fill="#f2f5e9" fill-opacity="0.5" stroke="#606060" stroke-width=".5" x="0" y="0" width="60" height="60"/>
                <use id="zoomplus" xlink:href="#zoomPlus" x="17" y="9" onmousedown="handleZoom(evt,'in')"/>
                <use id="zoomminus" xlink:href="#zoomMin" x="42" y="9" onmousedown="handleZoom(evt,'out')"/>
                <use id="reset" xlink:href="#resetDef" x="30" y="36" onmousedown="handleReset()"/>
                <g id="arrowUp" xlink:href="#dirArrow" transform="translate(30 24)" onmousedown="handlePan(0,-1)">
                  <use xlink:href="#rim" fill="#404040">
                        <set attributeName="fill" to="#808080" begin="arrowUp.mouseover" end="arrowUp.mouseout"/>
                  </use>
                  <path fill="none" stroke="white" stroke-width="1.5" d="M0,-3.0v7 M-2.5,-0.5L0,-3.0L2.5,-0.5"/>
                </g>
                <g id="arrowRight" xlink:href="#dirArrow" transform="rotate(90) translate(36 -43)" onmousedown="handlePan(1,0)">
                  <use xlink:href="#rim" fill="#404040">
                        <set attributeName="fill" to="#808080" begin="arrowRight.mouseover" end="arrowRight.mouseout"/>
                  </use>
                  <path fill="none" stroke="white" stroke-width="1.5" d="M0,-3.0v7 M-2.5,-0.5L0,-3.0L2.5,-0.5"/>
                </g>
                <g id="arrowDown" xlink:href="#dirArrow" transform="rotate(180) translate(-30 -48)" onmousedown="handlePan(0,1)">
                  <use xlink:href="#rim" fill="#404040">
                        <set attributeName="fill" to="#808080" begin="arrowDown.mouseover" end="arrowDown.mouseout"/>
                  </use>
                  <path fill="none" stroke="white" stroke-width="1.5" d="M0,-3.0v7 M-2.5,-0.5L0,-3.0L2.5,-0.5"/>
                </g>
                <g id="arrowLeft" xlink:href="#dirArrow" transform="rotate(270) translate(-36 17)" onmousedown="handlePan(-1,0)">
                  <use xlink:href="#rim" fill="#404040">
                        <set attributeName="fill" to="#808080" begin="arrowLeft.mouseover" end="arrowLeft.mouseout"/>
                  </use>
                  <path fill="none" stroke="white" stroke-width="1.5" d="M0,-3.0v7 M-2.5,-0.5L0,-3.0L2.5,-0.5"/>
                </g>
        </g>
        <svg viewBox="0 0 15 15" width="100%" height="30px" preserveAspectRatio="xMaxYMin meet">
         <g id="arrow_out" transform="scale(0.3 0.3)">
          <a xlink:href="namespacenetcdf4__support_ae3647a050723866e061cd0b58a013985_icgraph_org.svg" target="_base">
           <rect id="button" ry="5" rx="5" y="6" x="6" height="38" width="38"
                fill="#f2f5e9" fill-opacity="0.5" stroke="#606060" stroke-width="1.0"/>
           <path id="arrow"
             d="M 11.500037,31.436501 C 11.940474,20.09759 22.043105,11.32322 32.158766,21.979434 L 37.068811,17.246167 C 37.068811,17.246167 37.088388,32 37.088388,32 L 22.160133,31.978069 C 22.160133,31.978069 26.997745,27.140456 26.997745,27.140456 C 18.528582,18.264221 13.291696,25.230495 11.500037,31.436501 z"
             style="fill:#404040;"/>
          </a>
         </g>
        </svg>
</svg>
