<?xml version="1.0" encoding="UTF-8" standalone="no"?>
<!DOCTYPE svg PUBLIC "-//W3C//DTD SVG 1.1//EN"
 "http://www.w3.org/Graphics/SVG/1.1/DTD/svg11.dtd">
<!-- Generated by graphviz version 2.38.0 (20140413.2041)
 -->
<!-- Title: model_domain::model_initialize_runoff_gridded_values Pages: 1 -->
<!--zoomable 115 -->
<svg id="main" version="1.1" xmlns="http://www.w3.org/2000/svg" xmlns:xlink="http://www.w3.org/1999/xlink" xml:space="preserve" onload="init(evt)">
<style type="text/css"><![CDATA[
.edge:hover path { stroke: red; }
.edge:hover polygon { stroke: red; fill: red; }
]]></style>
<script type="text/javascript"><![CDATA[
var edges = document.getElementsByTagName('g');
if (edges && edges.length) {
  for (var i=0;i<edges.length;i++) {
    if (edges[i].id.substr(0,4)=='edge') {
      edges[i].setAttribute('class','edge');
    }
  }
}
]]></script>
        <defs>
                <circle id="rim" cx="0" cy="0" r="7"/>
                <circle id="rim2" cx="0" cy="0" r="3.5"/>
                <g id="zoomPlus">
                        <use xlink:href="#rim" fill="#404040">
                                <set attributeName="fill" to="#808080" begin="zoomplus.mouseover" end="zoomplus.mouseout"/>
                        </use>
                        <path d="M-4,0h8M0,-4v8" fill="none" stroke="white" stroke-width="1.5" pointer-events="none"/>
                </g>
                <g id="zoomMin">
                        <use xlink:href="#rim" fill="#404040">
                                <set attributeName="fill" to="#808080" begin="zoomminus.mouseover" end="zoomminus.mouseout"/>
                        </use>
                        <path d="M-4,0h8" fill="none" stroke="white" stroke-width="1.5" pointer-events="none"/>
                </g>
                <g id="dirArrow">
                        <path fill="none" stroke="white" stroke-width="1.5" d="M0,-3.0v7 M-2.5,-0.5L0,-3.0L2.5,-0.5"/>
                </g>
               <g id="resetDef">
                       <use xlink:href="#rim2" fill="#404040">
                               <set attributeName="fill" to="#808080" begin="reset.mouseover" end="reset.mouseout"/>
                       </use>
               </g>
        </defs>

<script type="text/javascript">
var viewWidth = 610;
var viewHeight = 115;
var sectionId = 'dynsection-41';
</script>
<script xlink:href="svgpan.js"/>
<svg id="graph" class="graph">
<g id="viewport">
<title>model_domain::model_initialize_runoff_gridded_values</title>
<polygon fill="white" stroke="none" points="-4,4 -4,-111.4 605.94,-111.4 605.94,4 -4,4"/>
<!-- Node1 -->
<g id="node1" class="node"><title>Node1</title>
<polygon fill="#bfbfbf" stroke="black" points="0,-29.5 0,-70.5 138.112,-70.5 138.112,-29.5 0,-29.5"/>
<text text-anchor="start" x="8" y="-57.7" font-family="Helvetica,sans-Serif" font-size="11.00">model_domain::model</text>
<text text-anchor="start" x="8" y="-46.7" font-family="Helvetica,sans-Serif" font-size="11.00">_initialize_runoff_gridded</text>
<text text-anchor="middle" x="69.0559" y="-35.7" font-family="Helvetica,sans-Serif" font-size="11.00">_values</text>
</g>
<!-- Node2 -->
<g id="node2" class="node"><title>Node2</title>
<g id="a_node2"><a xlink:href="namespacerunoff____gridded__values.html#a3ac2987bbbdf8952bfb1457cad017b28" target="_top" xlink:title="Initialize the infiltration grid. ">
<polygon fill="white" stroke="black" points="174.112,-55.5 174.112,-96.5 304.892,-96.5 304.892,-55.5 174.112,-55.5"/>
<text text-anchor="start" x="182.112" y="-83.7" font-family="Helvetica,sans-Serif" font-size="11.00">runoff__gridded_values</text>
<text text-anchor="start" x="182.112" y="-72.7" font-family="Helvetica,sans-Serif" font-size="11.00">::runoff_gridded_values</text>
<text text-anchor="middle" x="239.502" y="-61.7" font-family="Helvetica,sans-Serif" font-size="11.00">_initialize</text>
</a>
</g>
</g>
<!-- Node1&#45;&gt;Node2 -->
<g id="edge1" class="edge"><title>Node1&#45;&gt;Node2</title>
<path fill="none" stroke="midnightblue" d="M138.569,-60.5752C146.858,-61.8546 155.357,-63.1664 163.73,-64.4588"/>
<polygon fill="midnightblue" stroke="midnightblue" points="163.441,-67.9556 173.858,-66.0221 164.509,-61.0375 163.441,-67.9556"/>
</g>
<!-- Node5 -->
<g id="node5" class="node"><title>Node5</title>
<g id="a_node5"><a xlink:href="namespacerunoff____gridded__values.html#aa82e4d0dd525ba2d97604ada9d167453" target="_top" xlink:title="runoff__gridded_values\l::runoff_gridded_values\l_update_ratios">
<polygon fill="white" stroke="black" points="343.336,-0.5 343.336,-41.5 474.116,-41.5 474.116,-0.5 343.336,-0.5"/>
<text text-anchor="start" x="351.336" y="-28.7" font-family="Helvetica,sans-Serif" font-size="11.00">runoff__gridded_values</text>
<text text-anchor="start" x="351.336" y="-17.7" font-family="Helvetica,sans-Serif" font-size="11.00">::runoff_gridded_values</text>
<text text-anchor="middle" x="408.726" y="-6.7" font-family="Helvetica,sans-Serif" font-size="11.00">_update_ratios</text>
</a>
</g>
</g>
<!-- Node1&#45;&gt;Node5 -->
<g id="edge5" class="edge"><title>Node1&#45;&gt;Node5</title>
<path fill="none" stroke="midnightblue" d="M138.389,-44.1314C194.836,-39.2835 274.849,-32.4118 332.99,-27.4186"/>
<polygon fill="midnightblue" stroke="midnightblue" points="333.552,-30.8832 343.216,-26.5403 332.953,-23.9089 333.552,-30.8832"/>
</g>
<!-- Node3 -->
<g id="node3" class="node"><title>Node3</title>
<g id="a_node3"><a xlink:href="namespaceexceptions.html#a22a1bf2808fdc249e6b378ee3f221156" target="_top" xlink:title="exceptions::die">
<polygon fill="white" stroke="black" points="512.56,-66.5 512.56,-85.5 601.94,-85.5 601.94,-66.5 512.56,-66.5"/>
<text text-anchor="middle" x="557.25" y="-72.7" font-family="Helvetica,sans-Serif" font-size="11.00">exceptions::die</text>
</a>
</g>
</g>
<!-- Node2&#45;&gt;Node3 -->
<g id="edge2" class="edge"><title>Node2&#45;&gt;Node3</title>
<path fill="none" stroke="midnightblue" d="M305.141,-94.5486C316.941,-97.232 329.215,-99.5679 340.892,-101 400.741,-108.34 416.958,-110.13 476.56,-101 492.015,-98.6327 508.588,-93.8243 522.596,-89.0512"/>
<polygon fill="midnightblue" stroke="midnightblue" points="524.033,-92.2555 532.29,-85.6173 521.695,-85.6573 524.033,-92.2555"/>
</g>
<!-- Node4 -->
<g id="node4" class="node"><title>Node4</title>
<g id="a_node4"><a xlink:href="namespacerunoff____gridded__values.html#a2727530636eb37b13a66e54c7f4acc1e" target="_top" xlink:title="runoff__gridded_values\l::read_runoff_ratio_table">
<polygon fill="white" stroke="black" points="340.892,-61 340.892,-91 476.56,-91 476.56,-61 340.892,-61"/>
<text text-anchor="start" x="348.892" y="-78.2" font-family="Helvetica,sans-Serif" font-size="11.00">runoff__gridded_values</text>
<text text-anchor="middle" x="408.726" y="-67.2" font-family="Helvetica,sans-Serif" font-size="11.00">::read_runoff_ratio_table</text>
</a>
</g>
</g>
<!-- Node2&#45;&gt;Node4 -->
<g id="edge3" class="edge"><title>Node2&#45;&gt;Node4</title>
<path fill="none" stroke="midnightblue" d="M305.155,-76C313.453,-76 322.015,-76 330.488,-76"/>
<polygon fill="midnightblue" stroke="midnightblue" points="330.757,-79.5001 340.757,-76 330.757,-72.5001 330.757,-79.5001"/>
</g>
<!-- Node4&#45;&gt;Node3 -->
<g id="edge4" class="edge"><title>Node4&#45;&gt;Node3</title>
<path fill="none" stroke="midnightblue" d="M476.984,-76C485.448,-76 494.019,-76 502.242,-76"/>
<polygon fill="midnightblue" stroke="midnightblue" points="502.437,-79.5001 512.437,-76 502.437,-72.5001 502.437,-79.5001"/>
</g>
<!-- Node5&#45;&gt;Node3 -->
<g id="edge6" class="edge"><title>Node5&#45;&gt;Node3</title>
<path fill="none" stroke="midnightblue" d="M464.703,-41.6365C483.71,-48.771 504.471,-56.564 521.41,-62.9224"/>
<polygon fill="midnightblue" stroke="midnightblue" points="520.308,-66.2469 530.9,-66.4845 522.768,-59.6934 520.308,-66.2469"/>
</g>
</g>
</svg>
        <g id="navigator" transform="translate(0 0)" fill="#404254">
                <rect fill="#f2f5e9" fill-opacity="0.5" stroke="#606060" stroke-width=".5" x="0" y="0" width="60" height="60"/>
                <use id="zoomplus" xlink:href="#zoomPlus" x="17" y="9" onmousedown="handleZoom(evt,'in')"/>
                <use id="zoomminus" xlink:href="#zoomMin" x="42" y="9" onmousedown="handleZoom(evt,'out')"/>
                <use id="reset" xlink:href="#resetDef" x="30" y="36" onmousedown="handleReset()"/>
                <g id="arrowUp" xlink:href="#dirArrow" transform="translate(30 24)" onmousedown="handlePan(0,-1)">
                  <use xlink:href="#rim" fill="#404040">
                        <set attributeName="fill" to="#808080" begin="arrowUp.mouseover" end="arrowUp.mouseout"/>
                  </use>
                  <path fill="none" stroke="white" stroke-width="1.5" d="M0,-3.0v7 M-2.5,-0.5L0,-3.0L2.5,-0.5"/>
                </g>
                <g id="arrowRight" xlink:href="#dirArrow" transform="rotate(90) translate(36 -43)" onmousedown="handlePan(1,0)">
                  <use xlink:href="#rim" fill="#404040">
                        <set attributeName="fill" to="#808080" begin="arrowRight.mouseover" end="arrowRight.mouseout"/>
                  </use>
                  <path fill="none" stroke="white" stroke-width="1.5" d="M0,-3.0v7 M-2.5,-0.5L0,-3.0L2.5,-0.5"/>
                </g>
                <g id="arrowDown" xlink:href="#dirArrow" transform="rotate(180) translate(-30 -48)" onmousedown="handlePan(0,1)">
                  <use xlink:href="#rim" fill="#404040">
                        <set attributeName="fill" to="#808080" begin="arrowDown.mouseover" end="arrowDown.mouseout"/>
                  </use>
                  <path fill="none" stroke="white" stroke-width="1.5" d="M0,-3.0v7 M-2.5,-0.5L0,-3.0L2.5,-0.5"/>
                </g>
                <g id="arrowLeft" xlink:href="#dirArrow" transform="rotate(270) translate(-36 17)" onmousedown="handlePan(-1,0)">
                  <use xlink:href="#rim" fill="#404040">
                        <set attributeName="fill" to="#808080" begin="arrowLeft.mouseover" end="arrowLeft.mouseout"/>
                  </use>
                  <path fill="none" stroke="white" stroke-width="1.5" d="M0,-3.0v7 M-2.5,-0.5L0,-3.0L2.5,-0.5"/>
                </g>
        </g>
        <svg viewBox="0 0 15 15" width="100%" height="30px" preserveAspectRatio="xMaxYMin meet">
         <g id="arrow_out" transform="scale(0.3 0.3)">
          <a xlink:href="namespacemodel__domain_a88a992fcd1bcf220cdba23ee7f6db209_cgraph_org.svg" target="_base">
           <rect id="button" ry="5" rx="5" y="6" x="6" height="38" width="38"
                fill="#f2f5e9" fill-opacity="0.5" stroke="#606060" stroke-width="1.0"/>
           <path id="arrow"
             d="M 11.500037,31.436501 C 11.940474,20.09759 22.043105,11.32322 32.158766,21.979434 L 37.068811,17.246167 C 37.068811,17.246167 37.088388,32 37.088388,32 L 22.160133,31.978069 C 22.160133,31.978069 26.997745,27.140456 26.997745,27.140456 C 18.528582,18.264221 13.291696,25.230495 11.500037,31.436501 z"
             style="fill:#404040;"/>
          </a>
         </g>
        </svg>
</svg>
