<?xml version="1.0" encoding="UTF-8" standalone="no"?>
<!DOCTYPE svg PUBLIC "-//W3C//DTD SVG 1.1//EN"
 "http://www.w3.org/Graphics/SVG/1.1/DTD/svg11.dtd">
<!-- Generated by graphviz version 2.38.0 (20140413.2041)
 -->
<!-- Title: mass_balance__interception::calculate_interception_mass_balance Pages: 1 -->
<svg width="581pt" height="50pt"
 viewBox="0.00 0.00 581.12 50.00" xmlns="http://www.w3.org/2000/svg" xmlns:xlink="http://www.w3.org/1999/xlink">
<g id="graph0" class="graph" transform="scale(1 1) rotate(0) translate(4 46)">
<title>mass_balance__interception::calculate_interception_mass_balance</title>
<polygon fill="white" stroke="none" points="-4,4 -4,-46 577.119,-46 577.119,4 -4,4"/>
<!-- Node1 -->
<g id="node1" class="node"><title>Node1</title>
<polygon fill="#bfbfbf" stroke="black" points="0,-0.5 0,-41.5 156.035,-41.5 156.035,-0.5 0,-0.5"/>
<text text-anchor="start" x="8" y="-28.7" font-family="Helvetica,sans-Serif" font-size="11.00">mass_balance__interception</text>
<text text-anchor="start" x="8" y="-17.7" font-family="Helvetica,sans-Serif" font-size="11.00">::calculate_interception</text>
<text text-anchor="middle" x="78.0176" y="-6.7" font-family="Helvetica,sans-Serif" font-size="11.00">_mass_balance</text>
</g>
<!-- Node2 -->
<g id="node2" class="node"><title>Node2</title>
<g id="a_node2"><a xlink:href="namespacedaily__calculation.html#ac74b5b0ab616d2c459e1668bc36c1784" target="_top" xlink:title="daily_calculation::\lperform_daily_calculation">
<polygon fill="white" stroke="black" points="192.035,-6 192.035,-36 332.768,-36 332.768,-6 192.035,-6"/>
<text text-anchor="start" x="200.035" y="-23.2" font-family="Helvetica,sans-Serif" font-size="11.00">daily_calculation::</text>
<text text-anchor="middle" x="262.402" y="-12.2" font-family="Helvetica,sans-Serif" font-size="11.00">perform_daily_calculation</text>
</a>
</g>
</g>
<!-- Node1&#45;&gt;Node2 -->
<g id="edge1" class="edge"><title>Node1&#45;&gt;Node2</title>
<path fill="none" stroke="midnightblue" d="M166.167,-21C174.777,-21 183.435,-21 191.833,-21"/>
<polygon fill="midnightblue" stroke="midnightblue" points="166.101,-17.5001 156.1,-21 166.1,-24.5001 166.101,-17.5001"/>
</g>
<!-- Node3 -->
<g id="node3" class="node"><title>Node3</title>
<g id="a_node3"><a xlink:href="namespacemodel__iterate.html#a05e7db04d04d173186649ed80748a6a8" target="_top" xlink:title="model_iterate::iterate\l_over_simulation_days">
<polygon fill="white" stroke="black" points="368.768,-6 368.768,-36 497.276,-36 497.276,-6 368.768,-6"/>
<text text-anchor="start" x="376.768" y="-23.2" font-family="Helvetica,sans-Serif" font-size="11.00">model_iterate::iterate</text>
<text text-anchor="middle" x="433.022" y="-12.2" font-family="Helvetica,sans-Serif" font-size="11.00">_over_simulation_days</text>
</a>
</g>
</g>
<!-- Node2&#45;&gt;Node3 -->
<g id="edge2" class="edge"><title>Node2&#45;&gt;Node3</title>
<path fill="none" stroke="midnightblue" d="M342.983,-21C351.566,-21 360.214,-21 368.571,-21"/>
<polygon fill="midnightblue" stroke="midnightblue" points="342.96,-17.5001 332.96,-21 342.96,-24.5001 342.96,-17.5001"/>
</g>
<!-- Node4 -->
<g id="node4" class="node"><title>Node4</title>
<g id="a_node4"><a xlink:href="main_8F90.html#a8ec2266d83cd6c0b762cbcbc92c0af3d" target="_top" xlink:title="Main program which references all other modules; execution begins here. ">
<polygon fill="white" stroke="black" points="533.276,-11.5 533.276,-30.5 573.119,-30.5 573.119,-11.5 533.276,-11.5"/>
<text text-anchor="middle" x="553.198" y="-17.7" font-family="Helvetica,sans-Serif" font-size="11.00">main</text>
</a>
</g>
</g>
<!-- Node3&#45;&gt;Node4 -->
<g id="edge3" class="edge"><title>Node3&#45;&gt;Node4</title>
<path fill="none" stroke="midnightblue" d="M507.859,-21C517.162,-21 525.944,-21 533.199,-21"/>
<polygon fill="midnightblue" stroke="midnightblue" points="507.607,-17.5001 497.607,-21 507.607,-24.5001 507.607,-17.5001"/>
</g>
</g>
</svg>
