<?xml version="1.0" encoding="UTF-8" standalone="no"?>
<!DOCTYPE svg PUBLIC "-//W3C//DTD SVG 1.1//EN"
 "http://www.w3.org/Graphics/SVG/1.1/DTD/svg11.dtd">
<!-- Generated by graphviz version 2.38.0 (20140413.2041)
 -->
<!-- Title: constants_and_conversions::char2int Pages: 1 -->
<svg width="349pt" height="39pt"
 viewBox="0.00 0.00 348.73 39.00" xmlns="http://www.w3.org/2000/svg" xmlns:xlink="http://www.w3.org/1999/xlink">
<g id="graph0" class="graph" transform="scale(1 1) rotate(0) translate(4 35)">
<title>constants_and_conversions::char2int</title>
<polygon fill="white" stroke="none" points="-4,4 -4,-35 344.733,-35 344.733,4 -4,4"/>
<!-- Node1 -->
<g id="node1" class="node"><title>Node1</title>
<polygon fill="#bfbfbf" stroke="black" points="0,-0.5 0,-30.5 152.367,-30.5 152.367,-0.5 0,-0.5"/>
<text text-anchor="start" x="8" y="-17.7" font-family="Helvetica,sans-Serif" font-size="11.00">constants_and_conversions</text>
<text text-anchor="middle" x="76.1833" y="-6.7" font-family="Helvetica,sans-Serif" font-size="11.00">::char2int</text>
</g>
<!-- Node2 -->
<g id="node2" class="node"><title>Node2</title>
<g id="a_node2"><a xlink:href="namespaceconstants__and__conversions.html#a9bb5e4e1e57429b60fb5be3ec64b680c" target="_top" xlink:title="Strip everything except numeric characters from a text string. ">
<polygon fill="white" stroke="black" points="188.367,-0.5 188.367,-30.5 340.733,-30.5 340.733,-0.5 188.367,-0.5"/>
<text text-anchor="start" x="196.367" y="-17.7" font-family="Helvetica,sans-Serif" font-size="11.00">constants_and_conversions</text>
<text text-anchor="middle" x="264.55" y="-6.7" font-family="Helvetica,sans-Serif" font-size="11.00">::keepnumeric</text>
</a>
</g>
</g>
<!-- Node1&#45;&gt;Node2 -->
<g id="edge1" class="edge"><title>Node1&#45;&gt;Node2</title>
<path fill="none" stroke="midnightblue" d="M152.449,-15.5C160.944,-15.5 169.646,-15.5 178.257,-15.5"/>
<polygon fill="midnightblue" stroke="midnightblue" points="178.307,-19.0001 188.307,-15.5 178.307,-12.0001 178.307,-19.0001"/>
</g>
</g>
</svg>
