<?xml version="1.0" encoding="UTF-8" standalone="no"?>
<!DOCTYPE svg PUBLIC "-//W3C//DTD SVG 1.1//EN"
 "http://www.w3.org/Graphics/SVG/1.1/DTD/svg11.dtd">
<!-- Generated by graphviz version 2.38.0 (20140413.2041)
 -->
<!-- Title: netcdf4_support::netcdf_coord_to_col_row Pages: 1 -->
<svg width="297pt" height="78pt"
 viewBox="0.00 0.00 297.39 77.50" xmlns="http://www.w3.org/2000/svg" xmlns:xlink="http://www.w3.org/1999/xlink">
<g id="graph0" class="graph" transform="scale(1 1) rotate(0) translate(4 73.5)">
<title>netcdf4_support::netcdf_coord_to_col_row</title>
<polygon fill="white" stroke="none" points="-4,4 -4,-73.5 293.386,-73.5 293.386,4 -4,4"/>
<!-- Node1 -->
<g id="node1" class="node"><title>Node1</title>
<polygon fill="#bfbfbf" stroke="black" points="0,-22.5 0,-52.5 130.968,-52.5 130.968,-22.5 0,-22.5"/>
<text text-anchor="start" x="8" y="-39.7" font-family="Helvetica,sans-Serif" font-size="11.00">netcdf4_support::netcdf</text>
<text text-anchor="middle" x="65.4841" y="-28.7" font-family="Helvetica,sans-Serif" font-size="11.00">_coord_to_col_row</text>
</g>
<!-- Node2 -->
<g id="node2" class="node"><title>Node2</title>
<g id="a_node2"><a xlink:href="namespaceexceptions.html#a22a1bf2808fdc249e6b378ee3f221156" target="_top" xlink:title="exceptions::die">
<polygon fill="white" stroke="black" points="183.487,-50 183.487,-69 272.867,-69 272.867,-50 183.487,-50"/>
<text text-anchor="middle" x="228.177" y="-56.2" font-family="Helvetica,sans-Serif" font-size="11.00">exceptions::die</text>
</a>
</g>
</g>
<!-- Node1&#45;&gt;Node2 -->
<g id="edge1" class="edge"><title>Node1&#45;&gt;Node2</title>
<path fill="none" stroke="midnightblue" d="M131.381,-46.3848C145.263,-48.2854 159.785,-50.2736 173.204,-52.1106"/>
<polygon fill="midnightblue" stroke="midnightblue" points="172.838,-55.5932 183.22,-53.482 173.788,-48.6579 172.838,-55.5932"/>
</g>
<!-- Node3 -->
<g id="node3" class="node"><title>Node3</title>
<g id="a_node3"><a xlink:href="namespacenetcdf4__support.html#ac89586ef72d4dd0782811b6742e87270" target="_top" xlink:title="netcdf4_support::nf\l_return_index_double">
<polygon fill="white" stroke="black" points="166.968,-0.5 166.968,-30.5 289.386,-30.5 289.386,-0.5 166.968,-0.5"/>
<text text-anchor="start" x="174.968" y="-17.7" font-family="Helvetica,sans-Serif" font-size="11.00">netcdf4_support::nf</text>
<text text-anchor="middle" x="228.177" y="-6.7" font-family="Helvetica,sans-Serif" font-size="11.00">_return_index_double</text>
</a>
</g>
</g>
<!-- Node1&#45;&gt;Node3 -->
<g id="edge2" class="edge"><title>Node1&#45;&gt;Node3</title>
<path fill="none" stroke="midnightblue" d="M131.381,-28.6152C139.679,-27.4791 148.206,-26.3117 156.589,-25.1641"/>
<polygon fill="midnightblue" stroke="midnightblue" points="157.285,-28.6015 166.717,-23.7773 156.335,-21.6662 157.285,-28.6015"/>
</g>
</g>
</svg>
