<?xml version="1.0" encoding="UTF-8" standalone="no"?>
<!DOCTYPE svg PUBLIC "-//W3C//DTD SVG 1.1//EN"
 "http://www.w3.org/Graphics/SVG/1.1/DTD/svg11.dtd">
<!-- Generated by graphviz version 2.38.0 (20140413.2041)
 -->
<!-- Title: growing_season::growing_season_initialize Pages: 1 -->
<svg width="309pt" height="50pt"
 viewBox="0.00 0.00 308.97 50.00" xmlns="http://www.w3.org/2000/svg" xmlns:xlink="http://www.w3.org/1999/xlink">
<g id="graph0" class="graph" transform="scale(1 1) rotate(0) translate(4 46)">
<title>growing_season::growing_season_initialize</title>
<polygon fill="white" stroke="none" points="-4,4 -4,-46 304.971,-46 304.971,4 -4,4"/>
<!-- Node4 -->
<g id="node1" class="node"><title>Node4</title>
<polygon fill="#bfbfbf" stroke="black" points="0,-6 0,-36 140.744,-36 140.744,-6 0,-6"/>
<text text-anchor="start" x="8" y="-23.2" font-family="Helvetica,sans-Serif" font-size="11.00">growing_season::growing</text>
<text text-anchor="middle" x="70.3718" y="-12.2" font-family="Helvetica,sans-Serif" font-size="11.00">_season_initialize</text>
</g>
<!-- Node5 -->
<g id="node2" class="node"><title>Node5</title>
<g id="a_node2"><a xlink:href="namespacemodel__domain.html#ae57b872047925a2673ad1c369a759d42" target="_top" xlink:title="model_domain::model\l_initialize_growing\l_season">
<polygon fill="white" stroke="black" points="176.744,-0.5 176.744,-41.5 300.971,-41.5 300.971,-0.5 176.744,-0.5"/>
<text text-anchor="start" x="184.744" y="-28.7" font-family="Helvetica,sans-Serif" font-size="11.00">model_domain::model</text>
<text text-anchor="start" x="184.744" y="-17.7" font-family="Helvetica,sans-Serif" font-size="11.00">_initialize_growing</text>
<text text-anchor="middle" x="238.857" y="-6.7" font-family="Helvetica,sans-Serif" font-size="11.00">_season</text>
</a>
</g>
</g>
<!-- Node4&#45;&gt;Node5 -->
<g id="edge1" class="edge"><title>Node4&#45;&gt;Node5</title>
<path fill="none" stroke="midnightblue" d="M151.079,-21C159.693,-21 168.357,-21 176.703,-21"/>
<polygon fill="midnightblue" stroke="midnightblue" points="151.012,-17.5001 141.012,-21 151.012,-24.5001 151.012,-17.5001"/>
</g>
</g>
</svg>
