<?xml version="1.0" encoding="UTF-8" standalone="no"?>
<!DOCTYPE svg PUBLIC "-//W3C//DTD SVG 1.1//EN"
 "http://www.w3.org/Graphics/SVG/1.1/DTD/svg11.dtd">
<!-- Generated by graphviz version 2.38.0 (20140413.2041)
 -->
<!-- Title: data_catalog_entry::getvalues_constant_sub Pages: 1 -->
<svg width="511pt" height="78pt"
 viewBox="0.00 0.00 511.41 77.50" xmlns="http://www.w3.org/2000/svg" xmlns:xlink="http://www.w3.org/1999/xlink">
<g id="graph0" class="graph" transform="scale(1 1) rotate(0) translate(4 73.5)">
<title>data_catalog_entry::getvalues_constant_sub</title>
<polygon fill="white" stroke="none" points="-4,4 -4,-73.5 507.41,-73.5 507.41,4 -4,4"/>
<!-- Node1 -->
<g id="node1" class="node"><title>Node1</title>
<polygon fill="#bfbfbf" stroke="black" points="0,-22.5 0,-52.5 140.754,-52.5 140.754,-22.5 0,-22.5"/>
<text text-anchor="start" x="8" y="-39.7" font-family="Helvetica,sans-Serif" font-size="11.00">data_catalog_entry</text>
<text text-anchor="middle" x="70.3772" y="-28.7" font-family="Helvetica,sans-Serif" font-size="11.00">::getvalues_constant_sub</text>
</g>
<!-- Node2 -->
<g id="node2" class="node"><title>Node2</title>
<g id="a_node2"><a xlink:href="namespaceexceptions.html#a22a1bf2808fdc249e6b378ee3f221156" target="_top" xlink:title="exceptions::die">
<polygon fill="white" stroke="black" points="207.023,-50 207.023,-69 296.403,-69 296.403,-50 207.023,-50"/>
<text text-anchor="middle" x="251.713" y="-56.2" font-family="Helvetica,sans-Serif" font-size="11.00">exceptions::die</text>
</a>
</g>
</g>
<!-- Node1&#45;&gt;Node2 -->
<g id="edge1" class="edge"><title>Node1&#45;&gt;Node2</title>
<path fill="none" stroke="midnightblue" d="M140.97,-46.0373C159.488,-48.309 179.211,-50.7285 196.754,-52.8806"/>
<polygon fill="midnightblue" stroke="midnightblue" points="196.454,-56.3699 206.805,-54.1136 197.306,-49.422 196.454,-56.3699"/>
</g>
<!-- Node3 -->
<g id="node3" class="node"><title>Node3</title>
<g id="a_node3"><a xlink:href="namespacedata__catalog__entry.html#ae25b374c1170fdd0c122e92a781e22ad" target="_top" xlink:title="data_catalog_entry\l::dump_data_structure_sub">
<polygon fill="white" stroke="black" points="176.754,-0.5 176.754,-30.5 326.672,-30.5 326.672,-0.5 176.754,-0.5"/>
<text text-anchor="start" x="184.754" y="-17.7" font-family="Helvetica,sans-Serif" font-size="11.00">data_catalog_entry</text>
<text text-anchor="middle" x="251.713" y="-6.7" font-family="Helvetica,sans-Serif" font-size="11.00">::dump_data_structure_sub</text>
</a>
</g>
</g>
<!-- Node1&#45;&gt;Node3 -->
<g id="edge2" class="edge"><title>Node1&#45;&gt;Node3</title>
<path fill="none" stroke="midnightblue" d="M140.97,-28.9627C149.391,-27.9297 158.061,-26.8661 166.662,-25.8109"/>
<polygon fill="midnightblue" stroke="midnightblue" points="167.209,-29.2702 176.708,-24.5785 166.356,-22.3223 167.209,-29.2702"/>
</g>
<!-- Node4 -->
<g id="node4" class="node"><title>Node4</title>
<g id="a_node4"><a xlink:href="namespacegrid.html#ae9708204ef8c71a8d02e9e77e48e23ff" target="_top" xlink:title="grid::grid_dumpgridextent">
<polygon fill="white" stroke="black" points="362.672,-6 362.672,-25 503.41,-25 503.41,-6 362.672,-6"/>
<text text-anchor="middle" x="433.041" y="-12.2" font-family="Helvetica,sans-Serif" font-size="11.00">grid::grid_dumpgridextent</text>
</a>
</g>
</g>
<!-- Node3&#45;&gt;Node4 -->
<g id="edge3" class="edge"><title>Node3&#45;&gt;Node4</title>
<path fill="none" stroke="midnightblue" d="M326.688,-15.5C335.217,-15.5 343.942,-15.5 352.541,-15.5"/>
<polygon fill="midnightblue" stroke="midnightblue" points="352.558,-19.0001 362.558,-15.5 352.558,-12.0001 352.558,-19.0001"/>
</g>
</g>
</svg>
