<?xml version="1.0" encoding="UTF-8" standalone="no"?>
<!DOCTYPE svg PUBLIC "-//W3C//DTD SVG 1.1//EN"
 "http://www.w3.org/Graphics/SVG/1.1/DTD/svg11.dtd">
<!-- Generated by graphviz version 2.38.0 (20140413.2041)
 -->
<!-- Title: grid::grid_writegrid Pages: 1 -->
<svg width="285pt" height="66pt"
 viewBox="0.00 0.00 285.08 66.00" xmlns="http://www.w3.org/2000/svg" xmlns:xlink="http://www.w3.org/1999/xlink">
<g id="graph0" class="graph" transform="scale(1 1) rotate(0) translate(4 62)">
<title>grid::grid_writegrid</title>
<polygon fill="white" stroke="none" points="-4,4 -4,-62 281.081,-62 281.081,4 -4,4"/>
<!-- Node1 -->
<g id="node1" class="node"><title>Node1</title>
<polygon fill="#bfbfbf" stroke="black" points="0,-19.5 0,-38.5 106.481,-38.5 106.481,-19.5 0,-19.5"/>
<text text-anchor="middle" x="53.2407" y="-25.7" font-family="Helvetica,sans-Serif" font-size="11.00">grid::grid_writegrid</text>
</g>
<!-- Node2 -->
<g id="node2" class="node"><title>Node2</title>
<g id="a_node2"><a xlink:href="namespacegrid.html#a02803f7fe27d0354d3d16a15bd1338da" target="_top" xlink:title="grid::grid_writearcgrid">
<polygon fill="white" stroke="black" points="148.9,-38.5 148.9,-57.5 270.662,-57.5 270.662,-38.5 148.9,-38.5"/>
<text text-anchor="middle" x="209.781" y="-44.7" font-family="Helvetica,sans-Serif" font-size="11.00">grid::grid_writearcgrid</text>
</a>
</g>
</g>
<!-- Node1&#45;&gt;Node2 -->
<g id="edge1" class="edge"><title>Node1&#45;&gt;Node2</title>
<path fill="none" stroke="midnightblue" d="M106.561,-35.4325C116.846,-36.6971 127.793,-38.0429 138.555,-39.3661"/>
<polygon fill="midnightblue" stroke="midnightblue" points="138.437,-42.8779 148.79,-40.6244 139.292,-35.9302 138.437,-42.8779"/>
</g>
<!-- Node3 -->
<g id="node3" class="node"><title>Node3</title>
<g id="a_node3"><a xlink:href="namespacegrid.html#a702f49b2f5d9aeaef8a6409e535fb5d6" target="_top" xlink:title="grid::grid_writesurfergrid">
<polygon fill="white" stroke="black" points="142.481,-0.5 142.481,-19.5 277.081,-19.5 277.081,-0.5 142.481,-0.5"/>
<text text-anchor="middle" x="209.781" y="-6.7" font-family="Helvetica,sans-Serif" font-size="11.00">grid::grid_writesurfergrid</text>
</a>
</g>
</g>
<!-- Node1&#45;&gt;Node3 -->
<g id="edge2" class="edge"><title>Node1&#45;&gt;Node3</title>
<path fill="none" stroke="midnightblue" d="M106.561,-22.5675C114.806,-21.5538 123.475,-20.488 132.134,-19.4234"/>
<polygon fill="midnightblue" stroke="midnightblue" points="132.77,-22.8717 142.268,-18.1775 131.916,-15.924 132.77,-22.8717"/>
</g>
</g>
</svg>
