<?xml version="1.0" encoding="UTF-8" standalone="no"?>
<!DOCTYPE svg PUBLIC "-//W3C//DTD SVG 1.1//EN"
 "http://www.w3.org/Graphics/SVG/1.1/DTD/svg11.dtd">
<!-- Generated by graphviz version 2.38.0 (20140413.2041)
 -->
<!-- Title: model_domain::model_initialize_runoff_curve_number Pages: 1 -->
<svg width="461pt" height="88pt"
 viewBox="0.00 0.00 461.28 88.00" xmlns="http://www.w3.org/2000/svg" xmlns:xlink="http://www.w3.org/1999/xlink">
<g id="graph0" class="graph" transform="scale(1 1) rotate(0) translate(4 84)">
<title>model_domain::model_initialize_runoff_curve_number</title>
<polygon fill="white" stroke="none" points="-4,4 -4,-84 457.282,-84 457.282,4 -4,4"/>
<!-- Node282 -->
<g id="node1" class="node"><title>Node282</title>
<polygon fill="#bfbfbf" stroke="black" points="0,-19 0,-60 128.315,-60 128.315,-19 0,-19"/>
<text text-anchor="start" x="8" y="-47.2" font-family="Helvetica,sans-Serif" font-size="11.00">model_domain::model</text>
<text text-anchor="start" x="8" y="-36.2" font-family="Helvetica,sans-Serif" font-size="11.00">_initialize_runoff_curve</text>
<text text-anchor="middle" x="64.1575" y="-25.2" font-family="Helvetica,sans-Serif" font-size="11.00">_number</text>
</g>
<!-- Node283 -->
<g id="node2" class="node"><title>Node283</title>
<g id="a_node2"><a xlink:href="namespacerunoff____curve__number.html#abe564eabd0170192d8569d8b59b52b4b" target="_top" xlink:title="runoff__curve_number\l::runoff_curve_number\l_initialize">
<polygon fill="white" stroke="black" points="164.315,-19 164.315,-60 290.798,-60 290.798,-19 164.315,-19"/>
<text text-anchor="start" x="172.315" y="-47.2" font-family="Helvetica,sans-Serif" font-size="11.00">runoff__curve_number</text>
<text text-anchor="start" x="172.315" y="-36.2" font-family="Helvetica,sans-Serif" font-size="11.00">::runoff_curve_number</text>
<text text-anchor="middle" x="227.557" y="-25.2" font-family="Helvetica,sans-Serif" font-size="11.00">_initialize</text>
</a>
</g>
</g>
<!-- Node282&#45;&gt;Node283 -->
<g id="edge1" class="edge"><title>Node282&#45;&gt;Node283</title>
<path fill="none" stroke="midnightblue" d="M128.483,-39.5C136.834,-39.5 145.445,-39.5 153.936,-39.5"/>
<polygon fill="midnightblue" stroke="midnightblue" points="154.207,-43.0001 164.207,-39.5 154.207,-36.0001 154.207,-43.0001"/>
</g>
<!-- Node284 -->
<g id="node3" class="node"><title>Node284</title>
<g id="a_node3"><a xlink:href="namespacerunoff____curve__number.html#aa85bdeac46410a67ea5ff584e6b5ce5a" target="_top" xlink:title="runoff__curve_number\l::cn_ii_to_cn_i">
<polygon fill="white" stroke="black" points="326.798,-49.5 326.798,-79.5 453.282,-79.5 453.282,-49.5 326.798,-49.5"/>
<text text-anchor="start" x="334.798" y="-66.7" font-family="Helvetica,sans-Serif" font-size="11.00">runoff__curve_number</text>
<text text-anchor="middle" x="390.04" y="-55.7" font-family="Helvetica,sans-Serif" font-size="11.00">::cn_ii_to_cn_i</text>
</a>
</g>
</g>
<!-- Node283&#45;&gt;Node284 -->
<g id="edge2" class="edge"><title>Node283&#45;&gt;Node284</title>
<path fill="none" stroke="midnightblue" d="M291.063,-49.2372C299.476,-50.5478 308.163,-51.9011 316.729,-53.2354"/>
<polygon fill="midnightblue" stroke="midnightblue" points="316.284,-56.7083 326.704,-54.7893 317.362,-49.7917 316.284,-56.7083"/>
</g>
<!-- Node285 -->
<g id="node4" class="node"><title>Node285</title>
<g id="a_node4"><a xlink:href="namespacerunoff____curve__number.html#a20262a56af0e16cc1afcd0c2a1e20b86" target="_top" xlink:title="runoff__curve_number\l::cn_ii_to_cn_iii">
<polygon fill="white" stroke="black" points="326.798,-0.5 326.798,-30.5 453.282,-30.5 453.282,-0.5 326.798,-0.5"/>
<text text-anchor="start" x="334.798" y="-17.7" font-family="Helvetica,sans-Serif" font-size="11.00">runoff__curve_number</text>
<text text-anchor="middle" x="390.04" y="-6.7" font-family="Helvetica,sans-Serif" font-size="11.00">::cn_ii_to_cn_iii</text>
</a>
</g>
</g>
<!-- Node283&#45;&gt;Node285 -->
<g id="edge3" class="edge"><title>Node283&#45;&gt;Node285</title>
<path fill="none" stroke="midnightblue" d="M291.063,-30.1523C299.476,-28.8941 308.163,-27.5949 316.729,-26.314"/>
<polygon fill="midnightblue" stroke="midnightblue" points="317.332,-29.7629 326.704,-24.8222 316.296,-22.8398 317.332,-29.7629"/>
</g>
</g>
</svg>
