<?xml version="1.0" encoding="UTF-8" standalone="no"?>
<!DOCTYPE svg PUBLIC "-//W3C//DTD SVG 1.1//EN"
 "http://www.w3.org/Graphics/SVG/1.1/DTD/svg11.dtd">
<!-- Generated by graphviz version 2.38.0 (20140413.2041)
 -->
<!-- Title: netcdf4_support::netcdf_update_time_starting_index Pages: 1 -->
<svg width="515pt" height="88pt"
 viewBox="0.00 0.00 514.52 88.00" xmlns="http://www.w3.org/2000/svg" xmlns:xlink="http://www.w3.org/1999/xlink">
<g id="graph0" class="graph" transform="scale(1 1) rotate(0) translate(4 84)">
<title>netcdf4_support::netcdf_update_time_starting_index</title>
<polygon fill="white" stroke="none" points="-4,4 -4,-84 510.52,-84 510.52,4 -4,4"/>
<!-- Node344 -->
<g id="node1" class="node"><title>Node344</title>
<polygon fill="#bfbfbf" stroke="black" points="0,-24.5 0,-54.5 157.265,-54.5 157.265,-24.5 0,-24.5"/>
<text text-anchor="start" x="8" y="-41.7" font-family="Helvetica,sans-Serif" font-size="11.00">netcdf4_support::netcdf</text>
<text text-anchor="middle" x="78.6326" y="-30.7" font-family="Helvetica,sans-Serif" font-size="11.00">_update_time_starting_index</text>
</g>
<!-- Node345 -->
<g id="node2" class="node"><title>Node345</title>
<g id="a_node2"><a xlink:href="namespacenetcdf4__support.html#ad9dc27ce4aee42f95a7cfc0f8c74166f" target="_top" xlink:title="netcdf4_support::nf\l_julian_day_to_index_adj">
<polygon fill="white" stroke="black" points="193.265,-24.5 193.265,-54.5 333.423,-54.5 333.423,-24.5 193.265,-24.5"/>
<text text-anchor="start" x="201.265" y="-41.7" font-family="Helvetica,sans-Serif" font-size="11.00">netcdf4_support::nf</text>
<text text-anchor="middle" x="263.344" y="-30.7" font-family="Helvetica,sans-Serif" font-size="11.00">_julian_day_to_index_adj</text>
</a>
</g>
</g>
<!-- Node344&#45;&gt;Node345 -->
<g id="edge1" class="edge"><title>Node344&#45;&gt;Node345</title>
<path fill="none" stroke="midnightblue" d="M157.384,-39.5C165.808,-39.5 174.39,-39.5 182.835,-39.5"/>
<polygon fill="midnightblue" stroke="midnightblue" points="183.048,-43.0001 193.048,-39.5 183.048,-36.0001 183.048,-43.0001"/>
</g>
<!-- Node346 -->
<g id="node3" class="node"><title>Node346</title>
<g id="a_node3"><a xlink:href="namespacenetcdf4__support.html#a3a1accdd19941a5d2c392b5b390b29be" target="_top" xlink:title="netcdf4_support::nf\l_dayvalue_to_julian_day">
<polygon fill="white" stroke="black" points="369.423,-49.5 369.423,-79.5 506.52,-79.5 506.52,-49.5 369.423,-49.5"/>
<text text-anchor="start" x="377.423" y="-66.7" font-family="Helvetica,sans-Serif" font-size="11.00">netcdf4_support::nf</text>
<text text-anchor="middle" x="437.972" y="-55.7" font-family="Helvetica,sans-Serif" font-size="11.00">_dayvalue_to_julian_day</text>
</a>
</g>
</g>
<!-- Node345&#45;&gt;Node346 -->
<g id="edge2" class="edge"><title>Node345&#45;&gt;Node346</title>
<path fill="none" stroke="midnightblue" d="M333.564,-49.5244C342.059,-50.7546 350.784,-52.0182 359.392,-53.2648"/>
<polygon fill="midnightblue" stroke="midnightblue" points="359.024,-56.7479 369.422,-54.7174 360.027,-49.8202 359.024,-56.7479"/>
</g>
<!-- Node347 -->
<g id="node4" class="node"><title>Node347</title>
<g id="a_node4"><a xlink:href="namespacenetcdf4__support.html#a161159dc3269ec364e9f52f1162c8830" target="_top" xlink:title="This was so clear the other day. ">
<polygon fill="white" stroke="black" points="378.291,-0.5 378.291,-30.5 497.652,-30.5 497.652,-0.5 378.291,-0.5"/>
<text text-anchor="start" x="386.291" y="-17.7" font-family="Helvetica,sans-Serif" font-size="11.00">netcdf4_support::nf</text>
<text text-anchor="middle" x="437.972" y="-6.7" font-family="Helvetica,sans-Serif" font-size="11.00">_julian_day_to_index</text>
</a>
</g>
</g>
<!-- Node345&#45;&gt;Node347 -->
<g id="edge3" class="edge"><title>Node345&#45;&gt;Node347</title>
<path fill="none" stroke="midnightblue" d="M333.564,-29.8766C345.027,-28.2829 356.908,-26.631 368.356,-25.0395"/>
<polygon fill="midnightblue" stroke="midnightblue" points="368.861,-28.5031 378.283,-23.6593 367.897,-21.5698 368.861,-28.5031"/>
</g>
</g>
</svg>
