<?xml version="1.0" encoding="UTF-8" standalone="no"?>
<!DOCTYPE svg PUBLIC "-//W3C//DTD SVG 1.1//EN"
 "http://www.w3.org/Graphics/SVG/1.1/DTD/svg11.dtd">
<!-- Generated by graphviz version 2.38.0 (20140413.2041)
 -->
<!-- Title: precipitation__method_of_fragments::update_fragments Pages: 1 -->
<svg width="349pt" height="50pt"
 viewBox="0.00 0.00 348.73 50.00" xmlns="http://www.w3.org/2000/svg" xmlns:xlink="http://www.w3.org/1999/xlink">
<g id="graph0" class="graph" transform="scale(1 1) rotate(0) translate(4 46)">
<title>precipitation__method_of_fragments::update_fragments</title>
<polygon fill="white" stroke="none" points="-4,4 -4,-46 344.733,-46 344.733,4 -4,4"/>
<!-- Node28 -->
<g id="node1" class="node"><title>Node28</title>
<polygon fill="#bfbfbf" stroke="black" points="0,-0.5 0,-41.5 126.075,-41.5 126.075,-0.5 0,-0.5"/>
<text text-anchor="start" x="8" y="-28.7" font-family="Helvetica,sans-Serif" font-size="11.00">precipitation__method</text>
<text text-anchor="start" x="8" y="-17.7" font-family="Helvetica,sans-Serif" font-size="11.00">_of_fragments::update</text>
<text text-anchor="middle" x="63.0376" y="-6.7" font-family="Helvetica,sans-Serif" font-size="11.00">_fragments</text>
</g>
<!-- Node29 -->
<g id="node2" class="node"><title>Node29</title>
<g id="a_node2"><a xlink:href="namespaceprecipitation____method__of__fragments.html#af4340543bf2d535747aee82e1dace47c" target="_top" xlink:title="precipitation__method\l_of_fragments::precipitation\l_method_of_fragments_calculate">
<polygon fill="white" stroke="black" points="162.075,-0.5 162.075,-41.5 340.733,-41.5 340.733,-0.5 162.075,-0.5"/>
<text text-anchor="start" x="170.075" y="-28.7" font-family="Helvetica,sans-Serif" font-size="11.00">precipitation__method</text>
<text text-anchor="start" x="170.075" y="-17.7" font-family="Helvetica,sans-Serif" font-size="11.00">_of_fragments::precipitation</text>
<text text-anchor="middle" x="251.404" y="-6.7" font-family="Helvetica,sans-Serif" font-size="11.00">_method_of_fragments_calculate</text>
</a>
</g>
</g>
<!-- Node28&#45;&gt;Node29 -->
<g id="edge1" class="edge"><title>Node28&#45;&gt;Node29</title>
<path fill="none" stroke="midnightblue" d="M136.264,-21C144.716,-21 153.411,-21 162.05,-21"/>
<polygon fill="midnightblue" stroke="midnightblue" points="136.095,-17.5001 126.095,-21 136.095,-24.5001 136.095,-17.5001"/>
</g>
</g>
</svg>
