<?xml version="1.0" encoding="UTF-8" standalone="no"?>
<!DOCTYPE svg PUBLIC "-//W3C//DTD SVG 1.1//EN"
 "http://www.w3.org/Graphics/SVG/1.1/DTD/svg11.dtd">
<!-- Generated by graphviz version 2.38.0 (20140413.2041)
 -->
<!-- Title: netcdf4_support::netcdf_put_variable_array Pages: 1 -->
<svg width="1057pt" height="100pt"
 viewBox="0.00 0.00 1056.98 99.50" xmlns="http://www.w3.org/2000/svg" xmlns:xlink="http://www.w3.org/1999/xlink">
<g id="graph0" class="graph" transform="scale(1 1) rotate(0) translate(4 95.5)">
<title>netcdf4_support::netcdf_put_variable_array</title>
<polygon fill="white" stroke="none" points="-4,4 -4,-95.5 1052.98,-95.5 1052.98,4 -4,4"/>
<!-- Node711 -->
<g id="node1" class="node"><title>Node711</title>
<polygon fill="#bfbfbf" stroke="black" points="0,-33 0,-63 130.968,-63 130.968,-33 0,-33"/>
<text text-anchor="start" x="8" y="-50.2" font-family="Helvetica,sans-Serif" font-size="11.00">netcdf4_support::netcdf</text>
<text text-anchor="middle" x="65.4841" y="-39.2" font-family="Helvetica,sans-Serif" font-size="11.00">_put_variable_array</text>
</g>
<!-- Node712 -->
<g id="node2" class="node"><title>Node712</title>
<g id="a_node2"><a xlink:href="namespacenetcdf4__support.html#a55a403a10b71ab041dce8511b769f069" target="_top" xlink:title="netcdf4_support::nf\l_put_lat_and_lon">
<polygon fill="white" stroke="black" points="171.555,-61 171.555,-91 281.732,-91 281.732,-61 171.555,-61"/>
<text text-anchor="start" x="179.555" y="-78.2" font-family="Helvetica,sans-Serif" font-size="11.00">netcdf4_support::nf</text>
<text text-anchor="middle" x="226.644" y="-67.2" font-family="Helvetica,sans-Serif" font-size="11.00">_put_lat_and_lon</text>
</a>
</g>
</g>
<!-- Node711&#45;&gt;Node712 -->
<g id="edge1" class="edge"><title>Node711&#45;&gt;Node712</title>
<path fill="none" stroke="midnightblue" d="M141.309,-61.1635C151.456,-62.9487 161.707,-64.752 171.398,-66.457"/>
<polygon fill="midnightblue" stroke="midnightblue" points="141.676,-57.6743 131.22,-59.3887 140.463,-64.5685 141.676,-57.6743"/>
</g>
<!-- Node717 -->
<g id="node7" class="node"><title>Node717</title>
<g id="a_node7"><a xlink:href="namespacedata__catalog__entry.html#a3ea40e0b58c61d01a18065ea3c1b4fcd" target="_top" xlink:title="data_catalog_entry\l::put_values_to_local\l_netcdf_sub">
<polygon fill="white" stroke="black" points="166.968,-0.5 166.968,-41.5 286.319,-41.5 286.319,-0.5 166.968,-0.5"/>
<text text-anchor="start" x="174.968" y="-28.7" font-family="Helvetica,sans-Serif" font-size="11.00">data_catalog_entry</text>
<text text-anchor="start" x="174.968" y="-17.7" font-family="Helvetica,sans-Serif" font-size="11.00">::put_values_to_local</text>
<text text-anchor="middle" x="226.644" y="-6.7" font-family="Helvetica,sans-Serif" font-size="11.00">_netcdf_sub</text>
</a>
</g>
</g>
<!-- Node711&#45;&gt;Node717 -->
<g id="edge6" class="edge"><title>Node711&#45;&gt;Node717</title>
<path fill="none" stroke="midnightblue" d="M141.251,-35.3164C149.846,-33.8583 158.517,-32.3875 166.859,-30.9723"/>
<polygon fill="midnightblue" stroke="midnightblue" points="140.494,-31.8948 131.22,-37.0181 141.665,-38.7962 140.494,-31.8948"/>
</g>
<!-- Node713 -->
<g id="node3" class="node"><title>Node713</title>
<g id="a_node3"><a xlink:href="namespacenetcdf4__support.html#a4bc9b9f951c1dc1cc1f50ba727794071" target="_top" xlink:title="netcdf4_support::netcdf\l_open_and_prepare_as_output">
<polygon fill="white" stroke="black" points="322.319,-61 322.319,-91 491.846,-91 491.846,-61 322.319,-61"/>
<text text-anchor="start" x="330.319" y="-78.2" font-family="Helvetica,sans-Serif" font-size="11.00">netcdf4_support::netcdf</text>
<text text-anchor="middle" x="407.083" y="-67.2" font-family="Helvetica,sans-Serif" font-size="11.00">_open_and_prepare_as_output</text>
</a>
</g>
</g>
<!-- Node712&#45;&gt;Node713 -->
<g id="edge2" class="edge"><title>Node712&#45;&gt;Node713</title>
<path fill="none" stroke="midnightblue" d="M292.405,-76C302.025,-76 312.056,-76 322.002,-76"/>
<polygon fill="midnightblue" stroke="midnightblue" points="292.151,-72.5001 282.151,-76 292.151,-79.5001 292.151,-72.5001"/>
</g>
<!-- Node714 -->
<g id="node4" class="node"><title>Node714</title>
<g id="a_node4"><a xlink:href="namespacefog____monthly__grid.html#a8e7386e0dfea998459a45c270e0afecc" target="_top" xlink:title="Initialize the fog drip algorithm. ">
<polygon fill="white" stroke="black" points="527.846,-61 527.846,-91 673.478,-91 673.478,-61 527.846,-61"/>
<text text-anchor="start" x="535.846" y="-78.2" font-family="Helvetica,sans-Serif" font-size="11.00">fog__monthly_grid::</text>
<text text-anchor="middle" x="600.662" y="-67.2" font-family="Helvetica,sans-Serif" font-size="11.00">fog_monthly_grid_initialize</text>
</a>
</g>
</g>
<!-- Node713&#45;&gt;Node714 -->
<g id="edge3" class="edge"><title>Node713&#45;&gt;Node714</title>
<path fill="none" stroke="midnightblue" d="M502.163,-76C510.747,-76 519.348,-76 527.692,-76"/>
<polygon fill="midnightblue" stroke="midnightblue" points="502.112,-72.5001 492.112,-76 502.112,-79.5001 502.112,-72.5001"/>
</g>
<!-- Node715 -->
<g id="node5" class="node"><title>Node715</title>
<g id="a_node5"><a xlink:href="namespacemodel__domain.html#ad24a97a20a893d728e39930306e8b1d4" target="_top" xlink:title="model_domain::model\l_initialize_fog_monthly_grid">
<polygon fill="white" stroke="black" points="709.478,-61 709.478,-91 861.227,-91 861.227,-61 709.478,-61"/>
<text text-anchor="start" x="717.478" y="-78.2" font-family="Helvetica,sans-Serif" font-size="11.00">model_domain::model</text>
<text text-anchor="middle" x="785.352" y="-67.2" font-family="Helvetica,sans-Serif" font-size="11.00">_initialize_fog_monthly_grid</text>
</a>
</g>
</g>
<!-- Node714&#45;&gt;Node715 -->
<g id="edge4" class="edge"><title>Node714&#45;&gt;Node715</title>
<path fill="none" stroke="midnightblue" d="M683.634,-76C692.237,-76 700.953,-76 709.471,-76"/>
<polygon fill="midnightblue" stroke="midnightblue" points="683.604,-72.5001 673.604,-76 683.604,-79.5001 683.604,-72.5001"/>
</g>
<!-- Node716 -->
<g id="node6" class="node"><title>Node716</title>
<g id="a_node6"><a xlink:href="namespacemodel__domain.html#aac78dbf26ba37cf86ebed4edd7acf89b" target="_top" xlink:title="model_domain::set_method\l_pointers_sub">
<polygon fill="white" stroke="black" points="897.227,-61 897.227,-91 1048.98,-91 1048.98,-61 897.227,-61"/>
<text text-anchor="start" x="905.227" y="-78.2" font-family="Helvetica,sans-Serif" font-size="11.00">model_domain::set_method</text>
<text text-anchor="middle" x="973.101" y="-67.2" font-family="Helvetica,sans-Serif" font-size="11.00">_pointers_sub</text>
</a>
</g>
</g>
<!-- Node715&#45;&gt;Node716 -->
<g id="edge5" class="edge"><title>Node715&#45;&gt;Node716</title>
<path fill="none" stroke="midnightblue" d="M871.384,-76C879.967,-76 888.64,-76 897.107,-76"/>
<polygon fill="midnightblue" stroke="midnightblue" points="871.368,-72.5001 861.368,-76 871.368,-79.5001 871.368,-72.5001"/>
</g>
</g>
</svg>
