<?xml version="1.0" encoding="UTF-8" standalone="no"?>
<!DOCTYPE svg PUBLIC "-//W3C//DTD SVG 1.1//EN"
 "http://www.w3.org/Graphics/SVG/1.1/DTD/svg11.dtd">
<!-- Generated by graphviz version 2.38.0 (20140413.2041)
 -->
<!-- Title: constants_and_conversions::keepnumeric Pages: 1 -->
<svg width="349pt" height="88pt"
 viewBox="0.00 0.00 348.73 88.00" xmlns="http://www.w3.org/2000/svg" xmlns:xlink="http://www.w3.org/1999/xlink">
<g id="graph0" class="graph" transform="scale(1 1) rotate(0) translate(4 84)">
<title>constants_and_conversions::keepnumeric</title>
<polygon fill="white" stroke="none" points="-4,4 -4,-84 344.733,-84 344.733,4 -4,4"/>
<!-- Node1 -->
<g id="node1" class="node"><title>Node1</title>
<polygon fill="#bfbfbf" stroke="black" points="0,-24.5 0,-54.5 152.367,-54.5 152.367,-24.5 0,-24.5"/>
<text text-anchor="start" x="8" y="-41.7" font-family="Helvetica,sans-Serif" font-size="11.00">constants_and_conversions</text>
<text text-anchor="middle" x="76.1833" y="-30.7" font-family="Helvetica,sans-Serif" font-size="11.00">::keepnumeric</text>
</g>
<!-- Node2 -->
<g id="node2" class="node"><title>Node2</title>
<g id="a_node2"><a xlink:href="namespaceconstants__and__conversions.html#abc2afdb9db795f37e6ce54aaa2911aca" target="_top" xlink:title="Convert a character value into a integer. ">
<polygon fill="white" stroke="black" points="188.367,-49.5 188.367,-79.5 340.733,-79.5 340.733,-49.5 188.367,-49.5"/>
<text text-anchor="start" x="196.367" y="-66.7" font-family="Helvetica,sans-Serif" font-size="11.00">constants_and_conversions</text>
<text text-anchor="middle" x="264.55" y="-55.7" font-family="Helvetica,sans-Serif" font-size="11.00">::char2int</text>
</a>
</g>
</g>
<!-- Node1&#45;&gt;Node2 -->
<g id="edge1" class="edge"><title>Node1&#45;&gt;Node2</title>
<path fill="none" stroke="midnightblue" d="M162.499,-50.9445C171.11,-52.0997 179.812,-53.267 188.307,-54.4066"/>
<polygon fill="midnightblue" stroke="midnightblue" points="162.825,-47.4571 152.449,-49.5964 161.894,-54.3949 162.825,-47.4571"/>
</g>
<!-- Node3 -->
<g id="node3" class="node"><title>Node3</title>
<g id="a_node3"><a xlink:href="namespaceconstants__and__conversions.html#a928051f0e8ed684010c21875b1eec5ff" target="_top" xlink:title="Determine if string contains numeric values. ">
<polygon fill="white" stroke="black" points="188.367,-0.5 188.367,-30.5 340.733,-30.5 340.733,-0.5 188.367,-0.5"/>
<text text-anchor="start" x="196.367" y="-17.7" font-family="Helvetica,sans-Serif" font-size="11.00">constants_and_conversions</text>
<text text-anchor="middle" x="264.55" y="-6.7" font-family="Helvetica,sans-Serif" font-size="11.00">::is_numeric</text>
</a>
</g>
</g>
<!-- Node1&#45;&gt;Node3 -->
<g id="edge2" class="edge"><title>Node1&#45;&gt;Node3</title>
<path fill="none" stroke="midnightblue" d="M162.499,-28.5133C171.11,-27.4043 179.812,-26.2837 188.307,-25.1897"/>
<polygon fill="midnightblue" stroke="midnightblue" points="161.92,-25.0588 152.449,-29.8075 162.814,-32.0015 161.92,-25.0588"/>
</g>
</g>
</svg>
