<?xml version="1.0" encoding="UTF-8" standalone="no"?>
<!DOCTYPE svg PUBLIC "-//W3C//DTD SVG 1.1//EN"
 "http://www.w3.org/Graphics/SVG/1.1/DTD/svg11.dtd">
<!-- Generated by graphviz version 2.38.0 (20140413.2041)
 -->
<!-- Title: file_operations::does_file_exist_fn Pages: 1 -->
<svg width="275pt" height="39pt"
 viewBox="0.00 0.00 274.74 39.00" xmlns="http://www.w3.org/2000/svg" xmlns:xlink="http://www.w3.org/1999/xlink">
<g id="graph0" class="graph" transform="scale(1 1) rotate(0) translate(4 35)">
<title>file_operations::does_file_exist_fn</title>
<polygon fill="white" stroke="none" points="-4,4 -4,-35 270.736,-35 270.736,4 -4,4"/>
<!-- Node1 -->
<g id="node1" class="node"><title>Node1</title>
<polygon fill="#bfbfbf" stroke="black" points="0,-0.5 0,-30.5 117.514,-30.5 117.514,-0.5 0,-0.5"/>
<text text-anchor="start" x="8" y="-17.7" font-family="Helvetica,sans-Serif" font-size="11.00">file_operations::does</text>
<text text-anchor="middle" x="58.7568" y="-6.7" font-family="Helvetica,sans-Serif" font-size="11.00">_file_exist_fn</text>
</g>
<!-- Node2 -->
<g id="node2" class="node"><title>Node2</title>
<g id="a_node2"><a xlink:href="namespacefile__operations.html#a70a2b74bf72f0296e7751d4a94242a9f" target="_top" xlink:title="file_operations::fully\l_qualified_filename">
<polygon fill="white" stroke="black" points="153.514,-0.5 153.514,-30.5 266.736,-30.5 266.736,-0.5 153.514,-0.5"/>
<text text-anchor="start" x="161.514" y="-17.7" font-family="Helvetica,sans-Serif" font-size="11.00">file_operations::fully</text>
<text text-anchor="middle" x="210.125" y="-6.7" font-family="Helvetica,sans-Serif" font-size="11.00">_qualified_filename</text>
</a>
</g>
</g>
<!-- Node1&#45;&gt;Node2 -->
<g id="edge1" class="edge"><title>Node1&#45;&gt;Node2</title>
<path fill="none" stroke="midnightblue" d="M117.934,-15.5C126.204,-15.5 134.757,-15.5 143.162,-15.5"/>
<polygon fill="midnightblue" stroke="midnightblue" points="143.31,-19.0001 153.31,-15.5 143.31,-12.0001 143.31,-19.0001"/>
</g>
</g>
</svg>
