<?xml version="1.0" encoding="UTF-8" standalone="no"?>
<!DOCTYPE svg PUBLIC "-//W3C//DTD SVG 1.1//EN"
 "http://www.w3.org/Graphics/SVG/1.1/DTD/svg11.dtd">
<!-- Generated by graphviz version 2.38.0 (20140413.2041)
 -->
<!-- Title: irrigation::irrigation__initialize Pages: 1 -->
<svg width="462pt" height="39pt"
 viewBox="0.00 0.00 462.46 39.00" xmlns="http://www.w3.org/2000/svg" xmlns:xlink="http://www.w3.org/1999/xlink">
<g id="graph0" class="graph" transform="scale(1 1) rotate(0) translate(4 35)">
<title>irrigation::irrigation__initialize</title>
<polygon fill="white" stroke="none" points="-4,4 -4,-35 458.458,-35 458.458,4 -4,4"/>
<!-- Node1 -->
<g id="node1" class="node"><title>Node1</title>
<polygon fill="#bfbfbf" stroke="black" points="0,-0.5 0,-30.5 106.481,-30.5 106.481,-0.5 0,-0.5"/>
<text text-anchor="start" x="8" y="-17.7" font-family="Helvetica,sans-Serif" font-size="11.00">irrigation::irrigation</text>
<text text-anchor="middle" x="53.2407" y="-6.7" font-family="Helvetica,sans-Serif" font-size="11.00">__initialize</text>
</g>
<!-- Node2 -->
<g id="node2" class="node"><title>Node2</title>
<g id="a_node2"><a xlink:href="namespacemodel__domain.html#aa151e61c324bf88227703908041bee41" target="_top" xlink:title="model_domain::model\l_initialize_irrigation">
<polygon fill="white" stroke="black" points="142.481,-0.5 142.481,-30.5 266.709,-30.5 266.709,-0.5 142.481,-0.5"/>
<text text-anchor="start" x="150.481" y="-17.7" font-family="Helvetica,sans-Serif" font-size="11.00">model_domain::model</text>
<text text-anchor="middle" x="204.595" y="-6.7" font-family="Helvetica,sans-Serif" font-size="11.00">_initialize_irrigation</text>
</a>
</g>
</g>
<!-- Node1&#45;&gt;Node2 -->
<g id="edge1" class="edge"><title>Node1&#45;&gt;Node2</title>
<path fill="none" stroke="midnightblue" d="M117.037,-15.5C125.459,-15.5 134.087,-15.5 142.479,-15.5"/>
<polygon fill="midnightblue" stroke="midnightblue" points="116.898,-12.0001 106.898,-15.5 116.897,-19.0001 116.898,-12.0001"/>
</g>
<!-- Node3 -->
<g id="node3" class="node"><title>Node3</title>
<g id="a_node3"><a xlink:href="namespacemodel__domain.html#aac78dbf26ba37cf86ebed4edd7acf89b" target="_top" xlink:title="model_domain::set_method\l_pointers_sub">
<polygon fill="white" stroke="black" points="302.709,-0.5 302.709,-30.5 454.458,-30.5 454.458,-0.5 302.709,-0.5"/>
<text text-anchor="start" x="310.709" y="-17.7" font-family="Helvetica,sans-Serif" font-size="11.00">model_domain::set_method</text>
<text text-anchor="middle" x="378.583" y="-6.7" font-family="Helvetica,sans-Serif" font-size="11.00">_pointers_sub</text>
</a>
</g>
</g>
<!-- Node2&#45;&gt;Node3 -->
<g id="edge2" class="edge"><title>Node2&#45;&gt;Node3</title>
<path fill="none" stroke="midnightblue" d="M276.906,-15.5C285.358,-15.5 294.004,-15.5 302.507,-15.5"/>
<polygon fill="midnightblue" stroke="midnightblue" points="276.716,-12.0001 266.716,-15.5 276.716,-19.0001 276.716,-12.0001"/>
</g>
</g>
</svg>
