<?xml version="1.0" encoding="UTF-8" standalone="no"?>
<!DOCTYPE svg PUBLIC "-//W3C//DTD SVG 1.1//EN"
 "http://www.w3.org/Graphics/SVG/1.1/DTD/svg11.dtd">
<!-- Generated by graphviz version 2.38.0 (20140413.2041)
 -->
<!-- Title: file_utilities::get_libc_errno Pages: 1 -->
<svg width="248pt" height="180pt"
 viewBox="0.00 0.00 247.80 180.00" xmlns="http://www.w3.org/2000/svg" xmlns:xlink="http://www.w3.org/1999/xlink">
<g id="graph0" class="graph" transform="scale(1 1) rotate(0) translate(4 176)">
<title>file_utilities::get_libc_errno</title>
<polygon fill="white" stroke="none" points="-4,4 -4,-176 243.8,-176 243.8,4 -4,4"/>
<!-- Node28 -->
<g id="node1" class="node"><title>Node28</title>
<polygon fill="#bfbfbf" stroke="black" points="0,-71 0,-101 91.2061,-101 91.2061,-71 0,-71"/>
<text text-anchor="start" x="8" y="-88.2" font-family="Helvetica,sans-Serif" font-size="11.00">file_utilities::get</text>
<text text-anchor="middle" x="45.603" y="-77.2" font-family="Helvetica,sans-Serif" font-size="11.00">_libc_errno</text>
</g>
<!-- Node29 -->
<g id="node2" class="node"><title>Node29</title>
<g id="a_node2"><a xlink:href="namespacefile__utilities.html#ade2f16be530d48bd7f137d5cd4c18ac3" target="_top" xlink:title="file_utilities::chdir">
<polygon fill="white" stroke="black" points="133.625,-152.5 133.625,-171.5 233.381,-171.5 233.381,-152.5 133.625,-152.5"/>
<text text-anchor="middle" x="183.503" y="-158.7" font-family="Helvetica,sans-Serif" font-size="11.00">file_utilities::chdir</text>
</a>
</g>
</g>
<!-- Node28&#45;&gt;Node29 -->
<g id="edge1" class="edge"><title>Node28&#45;&gt;Node29</title>
<path fill="none" stroke="midnightblue" d="M72.7756,-107.398C87.9809,-119.071 107.898,-133.114 127.206,-143 134.254,-146.609 142.14,-149.782 149.7,-152.451"/>
<polygon fill="midnightblue" stroke="midnightblue" points="74.8804,-104.601 64.8468,-101.198 70.5686,-110.115 74.8804,-104.601"/>
</g>
<!-- Node30 -->
<g id="node3" class="node"><title>Node30</title>
<g id="a_node3"><a xlink:href="namespacefile__utilities.html#ab7a1547a59f68f9499c414a75a44c0f9" target="_top" xlink:title="file_utilities::mkdir">
<polygon fill="white" stroke="black" points="132.102,-114.5 132.102,-133.5 234.904,-133.5 234.904,-114.5 132.102,-114.5"/>
<text text-anchor="middle" x="183.503" y="-120.7" font-family="Helvetica,sans-Serif" font-size="11.00">file_utilities::mkdir</text>
</a>
</g>
</g>
<!-- Node28&#45;&gt;Node30 -->
<g id="edge2" class="edge"><title>Node28&#45;&gt;Node30</title>
<path fill="none" stroke="midnightblue" d="M101.244,-101.278C117.192,-105.738 134.158,-110.482 148.44,-114.475"/>
<polygon fill="midnightblue" stroke="midnightblue" points="102.052,-97.8702 91.4784,-98.5479 100.166,-104.612 102.052,-97.8702"/>
</g>
<!-- Node31 -->
<g id="node4" class="node"><title>Node31</title>
<g id="a_node4"><a xlink:href="namespacefile__utilities.html#a12360fcd230bb3c72e59345e18f62688" target="_top" xlink:title="file_utilities::remove">
<polygon fill="white" stroke="black" points="127.206,-76.5 127.206,-95.5 239.8,-95.5 239.8,-76.5 127.206,-76.5"/>
<text text-anchor="middle" x="183.503" y="-82.7" font-family="Helvetica,sans-Serif" font-size="11.00">file_utilities::remove</text>
</a>
</g>
</g>
<!-- Node28&#45;&gt;Node31 -->
<g id="edge3" class="edge"><title>Node28&#45;&gt;Node31</title>
<path fill="none" stroke="midnightblue" d="M101.748,-86C109.996,-86 118.506,-86 126.766,-86"/>
<polygon fill="midnightblue" stroke="midnightblue" points="101.478,-82.5001 91.4784,-86 101.478,-89.5001 101.478,-82.5001"/>
</g>
<!-- Node32 -->
<g id="node5" class="node"><title>Node32</title>
<g id="a_node5"><a xlink:href="namespacefile__utilities.html#a9d9283f81b5b0052ff0006535ebf1abf" target="_top" xlink:title="file_utilities::rmdir">
<polygon fill="white" stroke="black" points="133.02,-38.5 133.02,-57.5 233.986,-57.5 233.986,-38.5 133.02,-38.5"/>
<text text-anchor="middle" x="183.503" y="-44.7" font-family="Helvetica,sans-Serif" font-size="11.00">file_utilities::rmdir</text>
</a>
</g>
</g>
<!-- Node28&#45;&gt;Node32 -->
<g id="edge4" class="edge"><title>Node28&#45;&gt;Node32</title>
<path fill="none" stroke="midnightblue" d="M101.244,-70.7215C117.192,-66.2621 134.158,-61.5181 148.44,-57.5246"/>
<polygon fill="midnightblue" stroke="midnightblue" points="100.166,-67.3884 91.4784,-73.4521 102.052,-74.1298 100.166,-67.3884"/>
</g>
<!-- Node33 -->
<g id="node6" class="node"><title>Node33</title>
<g id="a_node6"><a xlink:href="namespacefile__utilities.html#aa6fbc28323f54da49d8338a653daea84" target="_top" xlink:title="file_utilities::unlink">
<polygon fill="white" stroke="black" points="131.175,-0.5 131.175,-19.5 235.831,-19.5 235.831,-0.5 131.175,-0.5"/>
<text text-anchor="middle" x="183.503" y="-6.7" font-family="Helvetica,sans-Serif" font-size="11.00">file_utilities::unlink</text>
</a>
</g>
</g>
<!-- Node28&#45;&gt;Node33 -->
<g id="edge5" class="edge"><title>Node28&#45;&gt;Node33</title>
<path fill="none" stroke="midnightblue" d="M72.7756,-64.6023C87.9809,-52.9292 107.898,-38.8865 127.206,-29 134.254,-25.3913 142.14,-22.2177 149.7,-19.5493"/>
<polygon fill="midnightblue" stroke="midnightblue" points="70.5686,-61.885 64.8468,-70.802 74.8804,-67.3994 70.5686,-61.885"/>
</g>
</g>
</svg>
