<?xml version="1.0" encoding="UTF-8" standalone="no"?>
<!DOCTYPE svg PUBLIC "-//W3C//DTD SVG 1.1//EN"
 "http://www.w3.org/Graphics/SVG/1.1/DTD/svg11.dtd">
<!-- Generated by graphviz version 2.38.0 (20140413.2041)
 -->
<!-- Title: netcdf4_support::nf_set_iteration_bounds Pages: 1 -->
<svg width="674pt" height="133pt"
 viewBox="0.00 0.00 673.54 133.00" xmlns="http://www.w3.org/2000/svg" xmlns:xlink="http://www.w3.org/1999/xlink">
<g id="graph0" class="graph" transform="scale(1 1) rotate(0) translate(4 129)">
<title>netcdf4_support::nf_set_iteration_bounds</title>
<polygon fill="white" stroke="none" points="-4,4 -4,-129 669.544,-129 669.544,4 -4,4"/>
<!-- Node160 -->
<g id="node1" class="node"><title>Node160</title>
<polygon fill="#bfbfbf" stroke="black" points="0,-33 0,-63 124.249,-63 124.249,-33 0,-33"/>
<text text-anchor="start" x="8" y="-50.2" font-family="Helvetica,sans-Serif" font-size="11.00">netcdf4_support::nf</text>
<text text-anchor="middle" x="62.1245" y="-39.2" font-family="Helvetica,sans-Serif" font-size="11.00">_set_iteration_bounds</text>
</g>
<!-- Node161 -->
<g id="node2" class="node"><title>Node161</title>
<g id="a_node2"><a xlink:href="namespacenetcdf4__support.html#a6d3d402059d71a8bd24a01dc6116ff7d" target="_top" xlink:title="netcdf4_support::netcdf\l_open_and_prepare_as_input">
<polygon fill="white" stroke="black" points="160.249,-61 160.249,-91 323.046,-91 323.046,-61 160.249,-61"/>
<text text-anchor="start" x="168.249" y="-78.2" font-family="Helvetica,sans-Serif" font-size="11.00">netcdf4_support::netcdf</text>
<text text-anchor="middle" x="241.648" y="-67.2" font-family="Helvetica,sans-Serif" font-size="11.00">_open_and_prepare_as_input</text>
</a>
</g>
</g>
<!-- Node160&#45;&gt;Node161 -->
<g id="edge1" class="edge"><title>Node160&#45;&gt;Node161</title>
<path fill="none" stroke="midnightblue" d="M134.761,-59.2989C143.099,-60.614 151.646,-61.9621 160.093,-63.2945"/>
<polygon fill="midnightblue" stroke="midnightblue" points="135.139,-55.8153 124.715,-57.7145 134.048,-62.7298 135.139,-55.8153"/>
</g>
<!-- Node165 -->
<g id="node6" class="node"><title>Node165</title>
<g id="a_node6"><a xlink:href="namespacenetcdf4__support.html#a8be734b602e654816c17b5e27d0fbffb" target="_top" xlink:title="netcdf4_support::netcdf\l_open_and_prepare_for\l_merging">
<polygon fill="white" stroke="black" points="174.625,-0.5 174.625,-41.5 308.671,-41.5 308.671,-0.5 174.625,-0.5"/>
<text text-anchor="start" x="182.625" y="-28.7" font-family="Helvetica,sans-Serif" font-size="11.00">netcdf4_support::netcdf</text>
<text text-anchor="start" x="182.625" y="-17.7" font-family="Helvetica,sans-Serif" font-size="11.00">_open_and_prepare_for</text>
<text text-anchor="middle" x="241.648" y="-6.7" font-family="Helvetica,sans-Serif" font-size="11.00">_merging</text>
</a>
</g>
</g>
<!-- Node160&#45;&gt;Node165 -->
<g id="edge6" class="edge"><title>Node160&#45;&gt;Node165</title>
<path fill="none" stroke="midnightblue" d="M134.621,-37.1259C147.734,-35.1315 161.37,-33.0576 174.324,-31.0874"/>
<polygon fill="midnightblue" stroke="midnightblue" points="134.075,-33.6686 124.715,-38.6325 135.128,-40.589 134.075,-33.6686"/>
</g>
<!-- Node162 -->
<g id="node3" class="node"><title>Node162</title>
<g id="a_node3"><a xlink:href="namespacedata__catalog__entry.html#aeb285131f87ed64deba0a9041a9c6405" target="_top" xlink:title="data_catalog_entry\l::getvalues_dynamic\l_netcdf_sub">
<polygon fill="white" stroke="black" points="381.371,-83.5 381.371,-124.5 497.65,-124.5 497.65,-83.5 381.371,-83.5"/>
<text text-anchor="start" x="389.371" y="-111.7" font-family="Helvetica,sans-Serif" font-size="11.00">data_catalog_entry</text>
<text text-anchor="start" x="389.371" y="-100.7" font-family="Helvetica,sans-Serif" font-size="11.00">::getvalues_dynamic</text>
<text text-anchor="middle" x="439.51" y="-89.7" font-family="Helvetica,sans-Serif" font-size="11.00">_netcdf_sub</text>
</a>
</g>
</g>
<!-- Node161&#45;&gt;Node162 -->
<g id="edge2" class="edge"><title>Node161&#45;&gt;Node162</title>
<path fill="none" stroke="midnightblue" d="M333.293,-88.9585C349.65,-91.2968 366.28,-93.6741 381.343,-95.8275"/>
<polygon fill="midnightblue" stroke="midnightblue" points="333.555,-85.4604 323.16,-87.5099 332.565,-92.3899 333.555,-85.4604"/>
</g>
<!-- Node164 -->
<g id="node5" class="node"><title>Node164</title>
<g id="a_node5"><a xlink:href="namespacedata__catalog__entry.html#ac3e1f0d9d9e146fbb77c0084e1e9fc14" target="_top" xlink:title="data_catalog_entry\l::getvalues_static_netcdf_sub">
<polygon fill="white" stroke="black" points="359.046,-34 359.046,-64 519.975,-64 519.975,-34 359.046,-34"/>
<text text-anchor="start" x="367.046" y="-51.2" font-family="Helvetica,sans-Serif" font-size="11.00">data_catalog_entry</text>
<text text-anchor="middle" x="439.51" y="-40.2" font-family="Helvetica,sans-Serif" font-size="11.00">::getvalues_static_netcdf_sub</text>
</a>
</g>
</g>
<!-- Node161&#45;&gt;Node164 -->
<g id="edge4" class="edge"><title>Node161&#45;&gt;Node164</title>
<path fill="none" stroke="midnightblue" d="M333.198,-63.5175C341.792,-62.3327 350.463,-61.1375 358.943,-59.9686"/>
<polygon fill="midnightblue" stroke="midnightblue" points="332.589,-60.0683 323.16,-64.9012 333.545,-67.0027 332.589,-60.0683"/>
</g>
<!-- Node163 -->
<g id="node4" class="node"><title>Node163</title>
<g id="a_node4"><a xlink:href="namespacedata__catalog__entry.html#a9e0a89ab19a5bfd61f2dfb8265648234" target="_top" xlink:title="data_catalog_entry\l::getvalues_sub">
<polygon fill="white" stroke="black" points="555.975,-61 555.975,-91 665.544,-91 665.544,-61 555.975,-61"/>
<text text-anchor="start" x="563.975" y="-78.2" font-family="Helvetica,sans-Serif" font-size="11.00">data_catalog_entry</text>
<text text-anchor="middle" x="610.76" y="-67.2" font-family="Helvetica,sans-Serif" font-size="11.00">::getvalues_sub</text>
</a>
</g>
</g>
<!-- Node162&#45;&gt;Node163 -->
<g id="edge3" class="edge"><title>Node162&#45;&gt;Node163</title>
<path fill="none" stroke="midnightblue" d="M508.113,-92.8161C524.012,-90.1858 540.747,-87.4172 555.946,-84.9027"/>
<polygon fill="midnightblue" stroke="midnightblue" points="507.105,-89.4351 497.81,-94.5205 508.248,-96.3413 507.105,-89.4351"/>
</g>
<!-- Node164&#45;&gt;Node163 -->
<g id="edge5" class="edge"><title>Node164&#45;&gt;Node163</title>
<path fill="none" stroke="midnightblue" d="M530.317,-63.3267C538.943,-64.7028 547.497,-66.0674 555.619,-67.3631"/>
<polygon fill="midnightblue" stroke="midnightblue" points="530.606,-59.8285 520.179,-61.7094 529.503,-66.7411 530.606,-59.8285"/>
</g>
</g>
</svg>
