<?xml version="1.0" encoding="UTF-8" standalone="no"?>
<!DOCTYPE svg PUBLIC "-//W3C//DTD SVG 1.1//EN"
 "http://www.w3.org/Graphics/SVG/1.1/DTD/svg11.dtd">
<!-- Generated by graphviz version 2.38.0 (20140413.2041)
 -->
<!-- Title: model_domain::model_initialize_irrigation Pages: 1 -->
<!--zoomable 39 -->
<svg id="main" version="1.1" xmlns="http://www.w3.org/2000/svg" xmlns:xlink="http://www.w3.org/1999/xlink" xml:space="preserve" onload="init(evt)">
<style type="text/css"><![CDATA[
.edge:hover path { stroke: red; }
.edge:hover polygon { stroke: red; fill: red; }
]]></style>
<script type="text/javascript"><![CDATA[
var edges = document.getElementsByTagName('g');
if (edges && edges.length) {
  for (var i=0;i<edges.length;i++) {
    if (edges[i].id.substr(0,4)=='edge') {
      edges[i].setAttribute('class','edge');
    }
  }
}
]]></script>
        <defs>
                <circle id="rim" cx="0" cy="0" r="7"/>
                <circle id="rim2" cx="0" cy="0" r="3.5"/>
                <g id="zoomPlus">
                        <use xlink:href="#rim" fill="#404040">
                                <set attributeName="fill" to="#808080" begin="zoomplus.mouseover" end="zoomplus.mouseout"/>
                        </use>
                        <path d="M-4,0h8M0,-4v8" fill="none" stroke="white" stroke-width="1.5" pointer-events="none"/>
                </g>
                <g id="zoomMin">
                        <use xlink:href="#rim" fill="#404040">
                                <set attributeName="fill" to="#808080" begin="zoomminus.mouseover" end="zoomminus.mouseout"/>
                        </use>
                        <path d="M-4,0h8" fill="none" stroke="white" stroke-width="1.5" pointer-events="none"/>
                </g>
                <g id="dirArrow">
                        <path fill="none" stroke="white" stroke-width="1.5" d="M0,-3.0v7 M-2.5,-0.5L0,-3.0L2.5,-0.5"/>
                </g>
               <g id="resetDef">
                       <use xlink:href="#rim2" fill="#404040">
                               <set attributeName="fill" to="#808080" begin="reset.mouseover" end="reset.mouseout"/>
                       </use>
               </g>
        </defs>

<script type="text/javascript">
var viewWidth = 651;
var viewHeight = 39;
var sectionId = 'dynsection-49';
</script>
<script xlink:href="svgpan.js"/>
<svg id="graph" class="graph">
<g id="viewport">
<title>model_domain::model_initialize_irrigation</title>
<polygon fill="white" stroke="none" points="-4,4 -4,-35 647.442,-35 647.442,4 -4,4"/>
<!-- Node321 -->
<g id="node1" class="node"><title>Node321</title>
<polygon fill="#bfbfbf" stroke="black" points="0,-0.5 0,-30.5 124.228,-30.5 124.228,-0.5 0,-0.5"/>
<text text-anchor="start" x="8" y="-17.7" font-family="Helvetica,sans-Serif" font-size="11.00">model_domain::model</text>
<text text-anchor="middle" x="62.1138" y="-6.7" font-family="Helvetica,sans-Serif" font-size="11.00">_initialize_irrigation</text>
</g>
<!-- Node322 -->
<g id="node2" class="node"><title>Node322</title>
<g id="a_node2"><a xlink:href="namespaceirrigation.html#a4967e74e2a8b2077014603a91e590ff3" target="_top" xlink:title="Estimate the irrigation water required to sustain plant growth. ">
<polygon fill="white" stroke="black" points="160.228,-0.5 160.228,-30.5 266.709,-30.5 266.709,-0.5 160.228,-0.5"/>
<text text-anchor="start" x="168.228" y="-17.7" font-family="Helvetica,sans-Serif" font-size="11.00">irrigation::irrigation</text>
<text text-anchor="middle" x="213.468" y="-6.7" font-family="Helvetica,sans-Serif" font-size="11.00">__initialize</text>
</a>
</g>
</g>
<!-- Node321&#45;&gt;Node322 -->
<g id="edge1" class="edge"><title>Node321&#45;&gt;Node322</title>
<path fill="none" stroke="midnightblue" d="M124.293,-15.5C132.769,-15.5 141.486,-15.5 149.985,-15.5"/>
<polygon fill="midnightblue" stroke="midnightblue" points="150.215,-19.0001 160.215,-15.5 150.215,-12.0001 150.215,-19.0001"/>
</g>
<!-- Node323 -->
<g id="node3" class="node"><title>Node323</title>
<g id="a_node3"><a xlink:href="namespaceconstants__and__conversions.html#a928051f0e8ed684010c21875b1eec5ff" target="_top" xlink:title="Determine if string contains numeric values. ">
<polygon fill="white" stroke="black" points="302.709,-0.5 302.709,-30.5 455.076,-30.5 455.076,-0.5 302.709,-0.5"/>
<text text-anchor="start" x="310.709" y="-17.7" font-family="Helvetica,sans-Serif" font-size="11.00">constants_and_conversions</text>
<text text-anchor="middle" x="378.892" y="-6.7" font-family="Helvetica,sans-Serif" font-size="11.00">::is_numeric</text>
</a>
</g>
</g>
<!-- Node322&#45;&gt;Node323 -->
<g id="edge2" class="edge"><title>Node322&#45;&gt;Node323</title>
<path fill="none" stroke="midnightblue" d="M267.076,-15.5C275.191,-15.5 283.747,-15.5 292.359,-15.5"/>
<polygon fill="midnightblue" stroke="midnightblue" points="292.472,-19.0001 302.472,-15.5 292.472,-12.0001 292.472,-19.0001"/>
</g>
<!-- Node324 -->
<g id="node4" class="node"><title>Node324</title>
<g id="a_node4"><a xlink:href="namespaceconstants__and__conversions.html#a9bb5e4e1e57429b60fb5be3ec64b680c" target="_top" xlink:title="Strip everything except numeric characters from a text string. ">
<polygon fill="white" stroke="black" points="491.076,-0.5 491.076,-30.5 643.442,-30.5 643.442,-0.5 491.076,-0.5"/>
<text text-anchor="start" x="499.076" y="-17.7" font-family="Helvetica,sans-Serif" font-size="11.00">constants_and_conversions</text>
<text text-anchor="middle" x="567.259" y="-6.7" font-family="Helvetica,sans-Serif" font-size="11.00">::keepnumeric</text>
</a>
</g>
</g>
<!-- Node323&#45;&gt;Node324 -->
<g id="edge3" class="edge"><title>Node323&#45;&gt;Node324</title>
<path fill="none" stroke="midnightblue" d="M455.158,-15.5C463.653,-15.5 472.355,-15.5 480.966,-15.5"/>
<polygon fill="midnightblue" stroke="midnightblue" points="481.016,-19.0001 491.016,-15.5 481.016,-12.0001 481.016,-19.0001"/>
</g>
</g>
</svg>
        <g id="navigator" transform="translate(0 0)" fill="#404254">
                <rect fill="#f2f5e9" fill-opacity="0.5" stroke="#606060" stroke-width=".5" x="0" y="0" width="60" height="60"/>
                <use id="zoomplus" xlink:href="#zoomPlus" x="17" y="9" onmousedown="handleZoom(evt,'in')"/>
                <use id="zoomminus" xlink:href="#zoomMin" x="42" y="9" onmousedown="handleZoom(evt,'out')"/>
                <use id="reset" xlink:href="#resetDef" x="30" y="36" onmousedown="handleReset()"/>
                <g id="arrowUp" xlink:href="#dirArrow" transform="translate(30 24)" onmousedown="handlePan(0,-1)">
                  <use xlink:href="#rim" fill="#404040">
                        <set attributeName="fill" to="#808080" begin="arrowUp.mouseover" end="arrowUp.mouseout"/>
                  </use>
                  <path fill="none" stroke="white" stroke-width="1.5" d="M0,-3.0v7 M-2.5,-0.5L0,-3.0L2.5,-0.5"/>
                </g>
                <g id="arrowRight" xlink:href="#dirArrow" transform="rotate(90) translate(36 -43)" onmousedown="handlePan(1,0)">
                  <use xlink:href="#rim" fill="#404040">
                        <set attributeName="fill" to="#808080" begin="arrowRight.mouseover" end="arrowRight.mouseout"/>
                  </use>
                  <path fill="none" stroke="white" stroke-width="1.5" d="M0,-3.0v7 M-2.5,-0.5L0,-3.0L2.5,-0.5"/>
                </g>
                <g id="arrowDown" xlink:href="#dirArrow" transform="rotate(180) translate(-30 -48)" onmousedown="handlePan(0,1)">
                  <use xlink:href="#rim" fill="#404040">
                        <set attributeName="fill" to="#808080" begin="arrowDown.mouseover" end="arrowDown.mouseout"/>
                  </use>
                  <path fill="none" stroke="white" stroke-width="1.5" d="M0,-3.0v7 M-2.5,-0.5L0,-3.0L2.5,-0.5"/>
                </g>
                <g id="arrowLeft" xlink:href="#dirArrow" transform="rotate(270) translate(-36 17)" onmousedown="handlePan(-1,0)">
                  <use xlink:href="#rim" fill="#404040">
                        <set attributeName="fill" to="#808080" begin="arrowLeft.mouseover" end="arrowLeft.mouseout"/>
                  </use>
                  <path fill="none" stroke="white" stroke-width="1.5" d="M0,-3.0v7 M-2.5,-0.5L0,-3.0L2.5,-0.5"/>
                </g>
        </g>
        <svg viewBox="0 0 15 15" width="100%" height="30px" preserveAspectRatio="xMaxYMin meet">
         <g id="arrow_out" transform="scale(0.3 0.3)">
          <a xlink:href="namespacemodel__domain_aa151e61c324bf88227703908041bee41_cgraph_org.svg" target="_base">
           <rect id="button" ry="5" rx="5" y="6" x="6" height="38" width="38"
                fill="#f2f5e9" fill-opacity="0.5" stroke="#606060" stroke-width="1.0"/>
           <path id="arrow"
             d="M 11.500037,31.436501 C 11.940474,20.09759 22.043105,11.32322 32.158766,21.979434 L 37.068811,17.246167 C 37.068811,17.246167 37.088388,32 37.088388,32 L 22.160133,31.978069 C 22.160133,31.978069 26.997745,27.140456 26.997745,27.140456 C 18.528582,18.264221 13.291696,25.230495 11.500037,31.436501 z"
             style="fill:#404040;"/>
          </a>
         </g>
        </svg>
</svg>
