<?xml version="1.0" encoding="UTF-8" standalone="no"?>
<!DOCTYPE svg PUBLIC "-//W3C//DTD SVG 1.1//EN"
 "http://www.w3.org/Graphics/SVG/1.1/DTD/svg11.dtd">
<!-- Generated by graphviz version 2.38.0 (20140413.2041)
 -->
<!-- Title: fog__monthly_grid::fog_monthly_grid_calculate Pages: 1 -->
<svg width="538pt" height="39pt"
 viewBox="0.00 0.00 537.70 39.00" xmlns="http://www.w3.org/2000/svg" xmlns:xlink="http://www.w3.org/1999/xlink">
<g id="graph0" class="graph" transform="scale(1 1) rotate(0) translate(4 35)">
<title>fog__monthly_grid::fog_monthly_grid_calculate</title>
<polygon fill="white" stroke="none" points="-4,4 -4,-35 533.702,-35 533.702,4 -4,4"/>
<!-- Node1 -->
<g id="node1" class="node"><title>Node1</title>
<polygon fill="#bfbfbf" stroke="black" points="0,-0.5 0,-30.5 149.917,-30.5 149.917,-0.5 0,-0.5"/>
<text text-anchor="start" x="8" y="-17.7" font-family="Helvetica,sans-Serif" font-size="11.00">fog__monthly_grid::</text>
<text text-anchor="middle" x="74.9587" y="-6.7" font-family="Helvetica,sans-Serif" font-size="11.00">fog_monthly_grid_calculate</text>
</g>
<!-- Node2 -->
<g id="node2" class="node"><title>Node2</title>
<g id="a_node2"><a xlink:href="namespacemodel__domain.html#ae877b5eae76f44562c1d97e09ae87ee8" target="_top" xlink:title="model_domain::model\l_calculate_fog_monthly_grid">
<polygon fill="white" stroke="black" points="185.917,-0.5 185.917,-30.5 341.953,-30.5 341.953,-0.5 185.917,-0.5"/>
<text text-anchor="start" x="193.917" y="-17.7" font-family="Helvetica,sans-Serif" font-size="11.00">model_domain::model</text>
<text text-anchor="middle" x="263.935" y="-6.7" font-family="Helvetica,sans-Serif" font-size="11.00">_calculate_fog_monthly_grid</text>
</a>
</g>
</g>
<!-- Node1&#45;&gt;Node2 -->
<g id="edge1" class="edge"><title>Node1&#45;&gt;Node2</title>
<path fill="none" stroke="midnightblue" d="M160.381,-15.5C168.844,-15.5 177.408,-15.5 185.791,-15.5"/>
<polygon fill="midnightblue" stroke="midnightblue" points="160.125,-12.0001 150.125,-15.5 160.125,-19.0001 160.125,-12.0001"/>
</g>
<!-- Node3 -->
<g id="node3" class="node"><title>Node3</title>
<g id="a_node3"><a xlink:href="namespacemodel__domain.html#aac78dbf26ba37cf86ebed4edd7acf89b" target="_top" xlink:title="model_domain::set_method\l_pointers_sub">
<polygon fill="white" stroke="black" points="377.953,-0.5 377.953,-30.5 529.702,-30.5 529.702,-0.5 377.953,-0.5"/>
<text text-anchor="start" x="385.953" y="-17.7" font-family="Helvetica,sans-Serif" font-size="11.00">model_domain::set_method</text>
<text text-anchor="middle" x="453.827" y="-6.7" font-family="Helvetica,sans-Serif" font-size="11.00">_pointers_sub</text>
</a>
</g>
</g>
<!-- Node2&#45;&gt;Node3 -->
<g id="edge2" class="edge"><title>Node2&#45;&gt;Node3</title>
<path fill="none" stroke="midnightblue" d="M352.425,-15.5C360.875,-15.5 369.394,-15.5 377.709,-15.5"/>
<polygon fill="midnightblue" stroke="midnightblue" points="352.171,-12.0001 342.171,-15.5 352.171,-19.0001 352.171,-12.0001"/>
</g>
</g>
</svg>
