<?xml version="1.0" encoding="UTF-8" standalone="no"?>
<!DOCTYPE svg PUBLIC "-//W3C//DTD SVG 1.1//EN"
 "http://www.w3.org/Graphics/SVG/1.1/DTD/svg11.dtd">
<!-- Generated by graphviz version 2.38.0 (20140413.2041)
 -->
<!-- Title: netcdf4_support::nf_get_variable_vector_short Pages: 1 -->
<svg width="516pt" height="39pt"
 viewBox="0.00 0.00 516.31 39.00" xmlns="http://www.w3.org/2000/svg" xmlns:xlink="http://www.w3.org/1999/xlink">
<g id="graph0" class="graph" transform="scale(1 1) rotate(0) translate(4 35)">
<title>netcdf4_support::nf_get_variable_vector_short</title>
<polygon fill="white" stroke="none" points="-4,4 -4,-35 512.309,-35 512.309,4 -4,4"/>
<!-- Node399 -->
<g id="node1" class="node"><title>Node399</title>
<polygon fill="#bfbfbf" stroke="black" points="0,-0.5 0,-30.5 148.693,-30.5 148.693,-0.5 0,-0.5"/>
<text text-anchor="start" x="8" y="-17.7" font-family="Helvetica,sans-Serif" font-size="11.00">netcdf4_support::nf</text>
<text text-anchor="middle" x="74.3464" y="-6.7" font-family="Helvetica,sans-Serif" font-size="11.00">_get_variable_vector_short</text>
</g>
<!-- Node400 -->
<g id="node2" class="node"><title>Node400</title>
<g id="a_node2"><a xlink:href="namespacenetcdf4__support.html#ac8c7276a5849ae6d17ffef1787e3f234" target="_top" xlink:title="netcdf4_support::nf_trap">
<polygon fill="white" stroke="black" points="184.693,-6 184.693,-25 319.942,-25 319.942,-6 184.693,-6"/>
<text text-anchor="middle" x="252.317" y="-12.2" font-family="Helvetica,sans-Serif" font-size="11.00">netcdf4_support::nf_trap</text>
</a>
</g>
</g>
<!-- Node399&#45;&gt;Node400 -->
<g id="edge1" class="edge"><title>Node399&#45;&gt;Node400</title>
<path fill="none" stroke="midnightblue" d="M148.7,-15.5C157.147,-15.5 165.78,-15.5 174.275,-15.5"/>
<polygon fill="midnightblue" stroke="midnightblue" points="174.546,-19.0001 184.546,-15.5 174.546,-12.0001 174.546,-19.0001"/>
</g>
<!-- Node401 -->
<g id="node3" class="node"><title>Node401</title>
<g id="a_node3"><a xlink:href="namespaceconstants__and__conversions.html#ac13fba285229deab77131132e6f62caf" target="_top" xlink:title="constants_and_conversions\l::char_ptr_to_fortran_string">
<polygon fill="white" stroke="black" points="355.942,-0.5 355.942,-30.5 508.309,-30.5 508.309,-0.5 355.942,-0.5"/>
<text text-anchor="start" x="363.942" y="-17.7" font-family="Helvetica,sans-Serif" font-size="11.00">constants_and_conversions</text>
<text text-anchor="middle" x="432.125" y="-6.7" font-family="Helvetica,sans-Serif" font-size="11.00">::char_ptr_to_fortran_string</text>
</a>
</g>
</g>
<!-- Node400&#45;&gt;Node401 -->
<g id="edge2" class="edge"><title>Node400&#45;&gt;Node401</title>
<path fill="none" stroke="midnightblue" d="M320.032,-15.5C328.39,-15.5 337.027,-15.5 345.622,-15.5"/>
<polygon fill="midnightblue" stroke="midnightblue" points="345.672,-19.0001 355.672,-15.5 345.672,-12.0001 345.672,-19.0001"/>
</g>
</g>
</svg>
