<?xml version="1.0" encoding="UTF-8" standalone="no"?>
<!DOCTYPE svg PUBLIC "-//W3C//DTD SVG 1.1//EN"
 "http://www.w3.org/Graphics/SVG/1.1/DTD/svg11.dtd">
<!-- Generated by graphviz version 2.38.0 (20140413.2041)
 -->
<!-- Title: solar_calculations::solar_declination_simple__delta Pages: 1 -->
<svg width="666pt" height="88pt"
 viewBox="0.00 0.00 666.15 88.00" xmlns="http://www.w3.org/2000/svg" xmlns:xlink="http://www.w3.org/1999/xlink">
<g id="graph0" class="graph" transform="scale(1 1) rotate(0) translate(4 84)">
<title>solar_calculations::solar_declination_simple__delta</title>
<polygon fill="white" stroke="none" points="-4,4 -4,-84 662.154,-84 662.154,4 -4,4"/>
<!-- Node10 -->
<g id="node1" class="node"><title>Node10</title>
<polygon fill="#bfbfbf" stroke="black" points="0,-19 0,-60 104.666,-60 104.666,-19 0,-19"/>
<text text-anchor="start" x="8" y="-47.2" font-family="Helvetica,sans-Serif" font-size="11.00">solar_calculations</text>
<text text-anchor="start" x="8" y="-36.2" font-family="Helvetica,sans-Serif" font-size="11.00">::solar_declination</text>
<text text-anchor="middle" x="52.333" y="-25.2" font-family="Helvetica,sans-Serif" font-size="11.00">_simple__delta</text>
</g>
<!-- Node11 -->
<g id="node2" class="node"><title>Node11</title>
<g id="a_node2"><a xlink:href="namespaceet____hargreaves__samani.html#a7e98ab45c36ffcbbd21626348162801c" target="_top" xlink:title="et__hargreaves_samani\l::et_hargreaves_calculate">
<polygon fill="white" stroke="black" points="140.666,-49.5 140.666,-79.5 282.634,-79.5 282.634,-49.5 140.666,-49.5"/>
<text text-anchor="start" x="148.666" y="-66.7" font-family="Helvetica,sans-Serif" font-size="11.00">et__hargreaves_samani</text>
<text text-anchor="middle" x="211.65" y="-55.7" font-family="Helvetica,sans-Serif" font-size="11.00">::et_hargreaves_calculate</text>
</a>
</g>
</g>
<!-- Node10&#45;&gt;Node11 -->
<g id="edge1" class="edge"><title>Node10&#45;&gt;Node11</title>
<path fill="none" stroke="midnightblue" d="M114.903,-49.2844C123.282,-50.6159 131.933,-51.9906 140.449,-53.3441"/>
<polygon fill="midnightblue" stroke="midnightblue" points="115.27,-45.7988 104.845,-47.6859 114.171,-52.7121 115.27,-45.7988"/>
</g>
<!-- Node14 -->
<g id="node5" class="node"><title>Node14</title>
<g id="a_node5"><a xlink:href="namespaceet____jensen__haise.html#a7de54d9f265eb6dd1857ed2e18f98d2a" target="_top" xlink:title="et__jensen_haise::et\l_jh_calculate">
<polygon fill="white" stroke="black" points="152.888,-0.5 152.888,-30.5 270.412,-30.5 270.412,-0.5 152.888,-0.5"/>
<text text-anchor="start" x="160.888" y="-17.7" font-family="Helvetica,sans-Serif" font-size="11.00">et__jensen_haise::et</text>
<text text-anchor="middle" x="211.65" y="-6.7" font-family="Helvetica,sans-Serif" font-size="11.00">_jh_calculate</text>
</a>
</g>
</g>
<!-- Node10&#45;&gt;Node14 -->
<g id="edge4" class="edge"><title>Node10&#45;&gt;Node14</title>
<path fill="none" stroke="midnightblue" d="M115.096,-30.0775C127.5,-28.1852 140.492,-26.2031 152.759,-24.3318"/>
<polygon fill="midnightblue" stroke="midnightblue" points="114.202,-26.6733 104.845,-31.6415 115.258,-33.5933 114.202,-26.6733"/>
</g>
<!-- Node12 -->
<g id="node3" class="node"><title>Node12</title>
<g id="a_node3"><a xlink:href="namespacemodel__domain.html#a37864c313f4ed6b63b5e90f4ef3f2e1f" target="_top" xlink:title="model_domain::model\l_calculate_et_hargreaves">
<polygon fill="white" stroke="black" points="323.533,-49.5 323.533,-79.5 465.506,-79.5 465.506,-49.5 323.533,-49.5"/>
<text text-anchor="start" x="331.533" y="-66.7" font-family="Helvetica,sans-Serif" font-size="11.00">model_domain::model</text>
<text text-anchor="middle" x="394.52" y="-55.7" font-family="Helvetica,sans-Serif" font-size="11.00">_calculate_et_hargreaves</text>
</a>
</g>
</g>
<!-- Node11&#45;&gt;Node12 -->
<g id="edge2" class="edge"><title>Node11&#45;&gt;Node12</title>
<path fill="none" stroke="midnightblue" d="M292.914,-64.5C303.067,-64.5 313.393,-64.5 323.371,-64.5"/>
<polygon fill="midnightblue" stroke="midnightblue" points="292.838,-61.0001 282.838,-64.5 292.838,-68.0001 292.838,-61.0001"/>
</g>
<!-- Node13 -->
<g id="node4" class="node"><title>Node13</title>
<g id="a_node4"><a xlink:href="namespacemodel__domain.html#aac78dbf26ba37cf86ebed4edd7acf89b" target="_top" xlink:title="model_domain::set_method\l_pointers_sub">
<polygon fill="white" stroke="black" points="506.405,-24.5 506.405,-54.5 658.154,-54.5 658.154,-24.5 506.405,-24.5"/>
<text text-anchor="start" x="514.405" y="-41.7" font-family="Helvetica,sans-Serif" font-size="11.00">model_domain::set_method</text>
<text text-anchor="middle" x="582.279" y="-30.7" font-family="Helvetica,sans-Serif" font-size="11.00">_pointers_sub</text>
</a>
</g>
</g>
<!-- Node12&#45;&gt;Node13 -->
<g id="edge3" class="edge"><title>Node12&#45;&gt;Node13</title>
<path fill="none" stroke="midnightblue" d="M475.792,-53.6967C485.923,-52.3332 496.258,-50.9423 506.303,-49.5905"/>
<polygon fill="midnightblue" stroke="midnightblue" points="475.191,-50.246 465.747,-55.0486 476.125,-57.1834 475.191,-50.246"/>
</g>
<!-- Node15 -->
<g id="node6" class="node"><title>Node15</title>
<g id="a_node6"><a xlink:href="namespacemodel__domain.html#aaa195a960abacf5088acc9ff3242847e" target="_top" xlink:title="model_domain::model\l_calculate_et_jensen_haise">
<polygon fill="white" stroke="black" points="318.634,-0.5 318.634,-30.5 470.405,-30.5 470.405,-0.5 318.634,-0.5"/>
<text text-anchor="start" x="326.634" y="-17.7" font-family="Helvetica,sans-Serif" font-size="11.00">model_domain::model</text>
<text text-anchor="middle" x="394.52" y="-6.7" font-family="Helvetica,sans-Serif" font-size="11.00">_calculate_et_jensen_haise</text>
</a>
</g>
</g>
<!-- Node14&#45;&gt;Node15 -->
<g id="edge5" class="edge"><title>Node14&#45;&gt;Node15</title>
<path fill="none" stroke="midnightblue" d="M281.015,-15.5C293.274,-15.5 306.109,-15.5 318.543,-15.5"/>
<polygon fill="midnightblue" stroke="midnightblue" points="280.874,-12.0001 270.874,-15.5 280.874,-19.0001 280.874,-12.0001"/>
</g>
<!-- Node15&#45;&gt;Node13 -->
<g id="edge6" class="edge"><title>Node15&#45;&gt;Node13</title>
<path fill="none" stroke="midnightblue" d="M480.557,-26.4867C489.14,-27.5957 497.814,-28.7163 506.281,-29.8103"/>
<polygon fill="midnightblue" stroke="midnightblue" points="480.906,-23.0028 470.54,-25.1925 480.009,-29.9451 480.906,-23.0028"/>
</g>
</g>
</svg>
