<?xml version="1.0" encoding="UTF-8" standalone="no"?>
<!DOCTYPE svg PUBLIC "-//W3C//DTD SVG 1.1//EN"
 "http://www.w3.org/Graphics/SVG/1.1/DTD/svg11.dtd">
<!-- Generated by graphviz version 2.38.0 (20140413.2041)
 -->
<!-- Title: datetime::day_of_year Pages: 1 -->
<svg width="307pt" height="66pt"
 viewBox="0.00 0.00 307.15 66.00" xmlns="http://www.w3.org/2000/svg" xmlns:xlink="http://www.w3.org/1999/xlink">
<g id="graph0" class="graph" transform="scale(1 1) rotate(0) translate(4 62)">
<title>datetime::day_of_year</title>
<polygon fill="white" stroke="none" points="-4,4 -4,-62 303.15,-62 303.15,4 -4,4"/>
<!-- Node1 -->
<g id="node1" class="node"><title>Node1</title>
<polygon fill="#bfbfbf" stroke="black" points="0,-19.5 0,-38.5 124.845,-38.5 124.845,-19.5 0,-19.5"/>
<text text-anchor="middle" x="62.4226" y="-25.7" font-family="Helvetica,sans-Serif" font-size="11.00">datetime::day_of_year</text>
</g>
<!-- Node2 -->
<g id="node2" class="node"><title>Node2</title>
<g id="a_node2"><a xlink:href="namespacedatetime.html#a9d8dbfe179e1cc628e1b7ccec684e13a" target="_top" xlink:title="datetime::gregorian_date">
<polygon fill="white" stroke="black" points="160.845,-38.5 160.845,-57.5 299.15,-57.5 299.15,-38.5 160.845,-38.5"/>
<text text-anchor="middle" x="229.998" y="-44.7" font-family="Helvetica,sans-Serif" font-size="11.00">datetime::gregorian_date</text>
</a>
</g>
</g>
<!-- Node1&#45;&gt;Node2 -->
<g id="edge1" class="edge"><title>Node1&#45;&gt;Node2</title>
<path fill="none" stroke="midnightblue" d="M125.077,-36.0749C133.403,-37.0304 142.036,-38.021 150.605,-39.0043"/>
<polygon fill="midnightblue" stroke="midnightblue" points="150.28,-42.4899 160.614,-40.1528 151.078,-35.5355 150.28,-42.4899"/>
</g>
<!-- Node3 -->
<g id="node3" class="node"><title>Node3</title>
<g id="a_node3"><a xlink:href="namespacedatetime.html#a9ac1a0a808a83a072ebc08cf0b3b4d8a" target="_top" xlink:title="datetime::julian_day">
<polygon fill="white" stroke="black" points="173.078,-0.5 173.078,-19.5 286.918,-19.5 286.918,-0.5 173.078,-0.5"/>
<text text-anchor="middle" x="229.998" y="-6.7" font-family="Helvetica,sans-Serif" font-size="11.00">datetime::julian_day</text>
</a>
</g>
</g>
<!-- Node1&#45;&gt;Node3 -->
<g id="edge2" class="edge"><title>Node1&#45;&gt;Node3</title>
<path fill="none" stroke="midnightblue" d="M125.077,-21.9251C137.36,-20.5156 150.308,-19.0297 162.738,-17.6034"/>
<polygon fill="midnightblue" stroke="midnightblue" points="163.496,-21.0395 173.032,-16.4222 162.698,-14.0851 163.496,-21.0395"/>
</g>
</g>
</svg>
