<?xml version="1.0" encoding="UTF-8" standalone="no"?>
<!DOCTYPE svg PUBLIC "-//W3C//DTD SVG 1.1//EN"
 "http://www.w3.org/Graphics/SVG/1.1/DTD/svg11.dtd">
<!-- Generated by graphviz version 2.38.0 (20140413.2041)
 -->
<!-- Title: runoff__gridded_values::runoff_gridded_values_initialize Pages: 1 -->
<svg width="436pt" height="67pt"
 viewBox="0.00 0.00 435.83 66.50" xmlns="http://www.w3.org/2000/svg" xmlns:xlink="http://www.w3.org/1999/xlink">
<g id="graph0" class="graph" transform="scale(1 1) rotate(0) translate(4 62.5)">
<title>runoff__gridded_values::runoff_gridded_values_initialize</title>
<polygon fill="white" stroke="none" points="-4,4 -4,-62.5 431.828,-62.5 431.828,4 -4,4"/>
<!-- Node1 -->
<g id="node1" class="node"><title>Node1</title>
<polygon fill="#bfbfbf" stroke="black" points="0,-17 0,-58 130.78,-58 130.78,-17 0,-17"/>
<text text-anchor="start" x="8" y="-45.2" font-family="Helvetica,sans-Serif" font-size="11.00">runoff__gridded_values</text>
<text text-anchor="start" x="8" y="-34.2" font-family="Helvetica,sans-Serif" font-size="11.00">::runoff_gridded_values</text>
<text text-anchor="middle" x="65.3901" y="-23.2" font-family="Helvetica,sans-Serif" font-size="11.00">_initialize</text>
</g>
<!-- Node2 -->
<g id="node2" class="node"><title>Node2</title>
<g id="a_node2"><a xlink:href="namespaceexceptions.html#a22a1bf2808fdc249e6b378ee3f221156" target="_top" xlink:title="exceptions::die">
<polygon fill="white" stroke="black" points="338.448,-28 338.448,-47 427.828,-47 427.828,-28 338.448,-28"/>
<text text-anchor="middle" x="383.138" y="-34.2" font-family="Helvetica,sans-Serif" font-size="11.00">exceptions::die</text>
</a>
</g>
</g>
<!-- Node1&#45;&gt;Node2 -->
<g id="edge1" class="edge"><title>Node1&#45;&gt;Node2</title>
<path fill="none" stroke="midnightblue" d="M130.918,-39.7132C142.841,-40.0412 155.186,-40.3268 166.78,-40.5 227.07,-41.4006 242.162,-41.6344 302.448,-40.5 310.806,-40.3427 319.653,-40.0928 328.295,-39.8026"/>
<polygon fill="midnightblue" stroke="midnightblue" points="328.435,-43.3 338.304,-39.4467 328.186,-36.3044 328.435,-43.3"/>
</g>
<!-- Node3 -->
<g id="node3" class="node"><title>Node3</title>
<g id="a_node3"><a xlink:href="namespacerunoff____gridded__values.html#a2727530636eb37b13a66e54c7f4acc1e" target="_top" xlink:title="runoff__gridded_values\l::read_runoff_ratio_table">
<polygon fill="white" stroke="black" points="166.78,-0.5 166.78,-30.5 302.448,-30.5 302.448,-0.5 166.78,-0.5"/>
<text text-anchor="start" x="174.78" y="-17.7" font-family="Helvetica,sans-Serif" font-size="11.00">runoff__gridded_values</text>
<text text-anchor="middle" x="234.614" y="-6.7" font-family="Helvetica,sans-Serif" font-size="11.00">::read_runoff_ratio_table</text>
</a>
</g>
</g>
<!-- Node1&#45;&gt;Node3 -->
<g id="edge2" class="edge"><title>Node1&#45;&gt;Node3</title>
<path fill="none" stroke="midnightblue" d="M131.043,-28.9942C139.433,-27.8905 148.091,-26.7514 156.656,-25.6247"/>
<polygon fill="midnightblue" stroke="midnightblue" points="157.187,-29.085 166.645,-24.3105 156.274,-22.1448 157.187,-29.085"/>
</g>
<!-- Node3&#45;&gt;Node2 -->
<g id="edge3" class="edge"><title>Node3&#45;&gt;Node2</title>
<path fill="none" stroke="midnightblue" d="M302.872,-25.5986C311.43,-26.8834 320.098,-28.1849 328.404,-29.432"/>
<polygon fill="midnightblue" stroke="midnightblue" points="327.916,-32.8979 338.325,-30.9216 328.956,-25.9755 327.916,-32.8979"/>
</g>
</g>
</svg>
