<?xml version="1.0" encoding="UTF-8" standalone="no"?>
<!DOCTYPE svg PUBLIC "-//W3C//DTD SVG 1.1//EN"
 "http://www.w3.org/Graphics/SVG/1.1/DTD/svg11.dtd">
<!-- Generated by graphviz version 2.38.0 (20140413.2041)
 -->
<!-- Title: model_initialize::initialize_latitude Pages: 1 -->
<!--zoomable 142 -->
<svg id="main" version="1.1" xmlns="http://www.w3.org/2000/svg" xmlns:xlink="http://www.w3.org/1999/xlink" xml:space="preserve" onload="init(evt)">
<style type="text/css"><![CDATA[
.edge:hover path { stroke: red; }
.edge:hover polygon { stroke: red; fill: red; }
]]></style>
<script type="text/javascript"><![CDATA[
var edges = document.getElementsByTagName('g');
if (edges && edges.length) {
  for (var i=0;i<edges.length;i++) {
    if (edges[i].id.substr(0,4)=='edge') {
      edges[i].setAttribute('class','edge');
    }
  }
}
]]></script>
        <defs>
                <circle id="rim" cx="0" cy="0" r="7"/>
                <circle id="rim2" cx="0" cy="0" r="3.5"/>
                <g id="zoomPlus">
                        <use xlink:href="#rim" fill="#404040">
                                <set attributeName="fill" to="#808080" begin="zoomplus.mouseover" end="zoomplus.mouseout"/>
                        </use>
                        <path d="M-4,0h8M0,-4v8" fill="none" stroke="white" stroke-width="1.5" pointer-events="none"/>
                </g>
                <g id="zoomMin">
                        <use xlink:href="#rim" fill="#404040">
                                <set attributeName="fill" to="#808080" begin="zoomminus.mouseover" end="zoomminus.mouseout"/>
                        </use>
                        <path d="M-4,0h8" fill="none" stroke="white" stroke-width="1.5" pointer-events="none"/>
                </g>
                <g id="dirArrow">
                        <path fill="none" stroke="white" stroke-width="1.5" d="M0,-3.0v7 M-2.5,-0.5L0,-3.0L2.5,-0.5"/>
                </g>
               <g id="resetDef">
                       <use xlink:href="#rim2" fill="#404040">
                               <set attributeName="fill" to="#808080" begin="reset.mouseover" end="reset.mouseout"/>
                       </use>
               </g>
        </defs>

<script type="text/javascript">
var viewWidth = 632;
var viewHeight = 142;
var sectionId = 'dynsection-35';
</script>
<script xlink:href="svgpan.js"/>
<svg id="graph" class="graph">
<g id="viewport">
<title>model_initialize::initialize_latitude</title>
<polygon fill="white" stroke="none" points="-4,4 -4,-138 628.429,-138 628.429,4 -4,4"/>
<!-- Node173 -->
<g id="node1" class="node"><title>Node173</title>
<polygon fill="#bfbfbf" stroke="black" points="0,-52 0,-82 136.447,-82 136.447,-52 0,-52"/>
<text text-anchor="start" x="8" y="-69.2" font-family="Helvetica,sans-Serif" font-size="11.00">model_initialize::initialize</text>
<text text-anchor="middle" x="68.2234" y="-58.2" font-family="Helvetica,sans-Serif" font-size="11.00">_latitude</text>
</g>
<!-- Node174 -->
<g id="node2" class="node"><title>Node174</title>
<g id="a_node2"><a xlink:href="namespacegrid.html#adfcb9064d9b58a49eb61093cd4809a43" target="_top" xlink:title="grid::grid_destroy">
<polygon fill="white" stroke="black" points="182.834,-114.5 182.834,-133.5 283.821,-133.5 283.821,-114.5 182.834,-114.5"/>
<text text-anchor="middle" x="233.328" y="-120.7" font-family="Helvetica,sans-Serif" font-size="11.00">grid::grid_destroy</text>
</a>
</g>
</g>
<!-- Node173&#45;&gt;Node174 -->
<g id="edge1" class="edge"><title>Node173&#45;&gt;Node174</title>
<path fill="none" stroke="midnightblue" d="M112.504,-82.1253C138.218,-91.1115 170.497,-102.392 195.072,-110.98"/>
<polygon fill="midnightblue" stroke="midnightblue" points="194.158,-114.368 204.753,-114.363 196.468,-107.76 194.158,-114.368"/>
</g>
<!-- Node175 -->
<g id="node3" class="node"><title>Node175</title>
<g id="a_node3"><a xlink:href="namespacegrid.html#ace8ea960868faf40cf79d5303f881ed8" target="_top" xlink:title="grid::grid_populatexy">
<polygon fill="white" stroke="black" points="348.234,-76.5 348.234,-95.5 466.355,-95.5 466.355,-76.5 348.234,-76.5"/>
<text text-anchor="middle" x="407.295" y="-82.7" font-family="Helvetica,sans-Serif" font-size="11.00">grid::grid_populatexy</text>
</a>
</g>
</g>
<!-- Node173&#45;&gt;Node175 -->
<g id="edge2" class="edge"><title>Node173&#45;&gt;Node175</title>
<path fill="none" stroke="midnightblue" d="M136.625,-70.7993C194.984,-74.0888 279.016,-78.8256 337.717,-82.1344"/>
<polygon fill="midnightblue" stroke="midnightblue" points="337.824,-85.6459 348.005,-82.7143 338.218,-78.657 337.824,-85.6459"/>
</g>
<!-- Node178 -->
<g id="node6" class="node"><title>Node178</title>
<g id="a_node6"><a xlink:href="namespacegrid.html#a6eb75c46ff6156376f88e567ac0e5271" target="_top" xlink:title="Call PROJ4 to transform coordinates. ">
<polygon fill="white" stroke="black" points="177.643,-38.5 177.643,-57.5 289.012,-57.5 289.012,-38.5 177.643,-38.5"/>
<text text-anchor="middle" x="233.328" y="-44.7" font-family="Helvetica,sans-Serif" font-size="11.00">grid::grid_transform</text>
</a>
</g>
</g>
<!-- Node173&#45;&gt;Node178 -->
<g id="edge5" class="edge"><title>Node173&#45;&gt;Node178</title>
<path fill="none" stroke="midnightblue" d="M136.506,-59.1623C146.773,-57.9663 157.351,-56.734 167.563,-55.5445"/>
<polygon fill="midnightblue" stroke="midnightblue" points="168.099,-59.0058 177.627,-54.3721 167.289,-52.0528 168.099,-59.0058"/>
</g>
<!-- Node180 -->
<g id="node8" class="node"><title>Node180</title>
<g id="a_node8"><a xlink:href="namespacegrid.html#a02803f7fe27d0354d3d16a15bd1338da" target="_top" xlink:title="grid::grid_writearcgrid">
<polygon fill="white" stroke="black" points="172.447,-0.5 172.447,-19.5 294.209,-19.5 294.209,-0.5 172.447,-0.5"/>
<text text-anchor="middle" x="233.328" y="-6.7" font-family="Helvetica,sans-Serif" font-size="11.00">grid::grid_writearcgrid</text>
</a>
</g>
</g>
<!-- Node173&#45;&gt;Node180 -->
<g id="edge8" class="edge"><title>Node173&#45;&gt;Node180</title>
<path fill="none" stroke="midnightblue" d="M108.777,-51.9601C127.932,-44.7994 151.309,-36.2399 172.447,-29 178.541,-26.9126 185.011,-24.7771 191.358,-22.7267"/>
<polygon fill="midnightblue" stroke="midnightblue" points="192.7,-25.9721 201.16,-19.5939 190.569,-19.3044 192.7,-25.9721"/>
</g>
<!-- Node176 -->
<g id="node4" class="node"><title>Node176</title>
<g id="a_node4"><a xlink:href="namespacegrid.html#ad3fbf6446fa8a58df8888c05b7165324" target="_top" xlink:title="grid::grid_getgridx">
<polygon fill="white" stroke="black" points="520.38,-95.5 520.38,-114.5 624.429,-114.5 624.429,-95.5 520.38,-95.5"/>
<text text-anchor="middle" x="572.405" y="-101.7" font-family="Helvetica,sans-Serif" font-size="11.00">grid::grid_getgridx</text>
</a>
</g>
</g>
<!-- Node175&#45;&gt;Node176 -->
<g id="edge3" class="edge"><title>Node175&#45;&gt;Node176</title>
<path fill="none" stroke="midnightblue" d="M466.72,-92.8058C480.77,-94.4423 495.818,-96.1952 509.999,-97.8471"/>
<polygon fill="midnightblue" stroke="midnightblue" points="509.807,-101.348 520.144,-99.0289 510.617,-94.3953 509.807,-101.348"/>
</g>
<!-- Node177 -->
<g id="node5" class="node"><title>Node177</title>
<g id="a_node5"><a xlink:href="namespacegrid.html#a93d74de05bc5c8aee4cb556f461be266" target="_top" xlink:title="grid::grid_getgridy">
<polygon fill="white" stroke="black" points="520.38,-57.5 520.38,-76.5 624.429,-76.5 624.429,-57.5 520.38,-57.5"/>
<text text-anchor="middle" x="572.405" y="-63.7" font-family="Helvetica,sans-Serif" font-size="11.00">grid::grid_getgridy</text>
</a>
</g>
</g>
<!-- Node175&#45;&gt;Node177 -->
<g id="edge4" class="edge"><title>Node175&#45;&gt;Node177</title>
<path fill="none" stroke="midnightblue" d="M466.72,-79.1942C480.77,-77.5577 495.818,-75.8048 509.999,-74.1529"/>
<polygon fill="midnightblue" stroke="midnightblue" points="510.617,-77.6047 520.144,-72.9711 509.807,-70.6517 510.617,-77.6047"/>
</g>
<!-- Node178&#45;&gt;Node175 -->
<g id="edge7" class="edge"><title>Node178&#45;&gt;Node175</title>
<path fill="none" stroke="midnightblue" d="M277.722,-57.589C300.722,-62.6713 329.16,-68.9554 353.439,-74.3203"/>
<polygon fill="midnightblue" stroke="midnightblue" points="352.693,-77.7398 363.212,-76.4799 354.203,-70.9046 352.693,-77.7398"/>
</g>
<!-- Node179 -->
<g id="node7" class="node"><title>Node179</title>
<g id="a_node7"><a xlink:href="namespacegrid.html#a4e234a7e1a3a1ba76a7c92bab7114bf7" target="_top" xlink:title="grid::grid_checkforproj4error">
<polygon fill="white" stroke="black" points="330.209,-38.5 330.209,-57.5 484.38,-57.5 484.38,-38.5 330.209,-38.5"/>
<text text-anchor="middle" x="407.295" y="-44.7" font-family="Helvetica,sans-Serif" font-size="11.00">grid::grid_checkforproj4error</text>
</a>
</g>
</g>
<!-- Node178&#45;&gt;Node179 -->
<g id="edge6" class="edge"><title>Node178&#45;&gt;Node179</title>
<path fill="none" stroke="midnightblue" d="M289.212,-48C299.045,-48 309.504,-48 319.971,-48"/>
<polygon fill="midnightblue" stroke="midnightblue" points="319.987,-51.5001 329.987,-48 319.987,-44.5001 319.987,-51.5001"/>
</g>
</g>
</svg>
        <g id="navigator" transform="translate(0 0)" fill="#404254">
                <rect fill="#f2f5e9" fill-opacity="0.5" stroke="#606060" stroke-width=".5" x="0" y="0" width="60" height="60"/>
                <use id="zoomplus" xlink:href="#zoomPlus" x="17" y="9" onmousedown="handleZoom(evt,'in')"/>
                <use id="zoomminus" xlink:href="#zoomMin" x="42" y="9" onmousedown="handleZoom(evt,'out')"/>
                <use id="reset" xlink:href="#resetDef" x="30" y="36" onmousedown="handleReset()"/>
                <g id="arrowUp" xlink:href="#dirArrow" transform="translate(30 24)" onmousedown="handlePan(0,-1)">
                  <use xlink:href="#rim" fill="#404040">
                        <set attributeName="fill" to="#808080" begin="arrowUp.mouseover" end="arrowUp.mouseout"/>
                  </use>
                  <path fill="none" stroke="white" stroke-width="1.5" d="M0,-3.0v7 M-2.5,-0.5L0,-3.0L2.5,-0.5"/>
                </g>
                <g id="arrowRight" xlink:href="#dirArrow" transform="rotate(90) translate(36 -43)" onmousedown="handlePan(1,0)">
                  <use xlink:href="#rim" fill="#404040">
                        <set attributeName="fill" to="#808080" begin="arrowRight.mouseover" end="arrowRight.mouseout"/>
                  </use>
                  <path fill="none" stroke="white" stroke-width="1.5" d="M0,-3.0v7 M-2.5,-0.5L0,-3.0L2.5,-0.5"/>
                </g>
                <g id="arrowDown" xlink:href="#dirArrow" transform="rotate(180) translate(-30 -48)" onmousedown="handlePan(0,1)">
                  <use xlink:href="#rim" fill="#404040">
                        <set attributeName="fill" to="#808080" begin="arrowDown.mouseover" end="arrowDown.mouseout"/>
                  </use>
                  <path fill="none" stroke="white" stroke-width="1.5" d="M0,-3.0v7 M-2.5,-0.5L0,-3.0L2.5,-0.5"/>
                </g>
                <g id="arrowLeft" xlink:href="#dirArrow" transform="rotate(270) translate(-36 17)" onmousedown="handlePan(-1,0)">
                  <use xlink:href="#rim" fill="#404040">
                        <set attributeName="fill" to="#808080" begin="arrowLeft.mouseover" end="arrowLeft.mouseout"/>
                  </use>
                  <path fill="none" stroke="white" stroke-width="1.5" d="M0,-3.0v7 M-2.5,-0.5L0,-3.0L2.5,-0.5"/>
                </g>
        </g>
        <svg viewBox="0 0 15 15" width="100%" height="30px" preserveAspectRatio="xMaxYMin meet">
         <g id="arrow_out" transform="scale(0.3 0.3)">
          <a xlink:href="namespacemodel__initialize_a63c6e7946b13f1ffe90ca3e2d7df1387_cgraph_org.svg" target="_base">
           <rect id="button" ry="5" rx="5" y="6" x="6" height="38" width="38"
                fill="#f2f5e9" fill-opacity="0.5" stroke="#606060" stroke-width="1.0"/>
           <path id="arrow"
             d="M 11.500037,31.436501 C 11.940474,20.09759 22.043105,11.32322 32.158766,21.979434 L 37.068811,17.246167 C 37.068811,17.246167 37.088388,32 37.088388,32 L 22.160133,31.978069 C 22.160133,31.978069 26.997745,27.140456 26.997745,27.140456 C 18.528582,18.264221 13.291696,25.230495 11.500037,31.436501 z"
             style="fill:#404040;"/>
          </a>
         </g>
        </svg>
</svg>
