<?xml version="1.0" encoding="UTF-8" standalone="no"?>
<!DOCTYPE svg PUBLIC "-//W3C//DTD SVG 1.1//EN"
 "http://www.w3.org/Graphics/SVG/1.1/DTD/svg11.dtd">
<!-- Generated by graphviz version 2.38.0 (20140413.2041)
 -->
<!-- Title: interception__gash::interception_gash_calculate Pages: 1 -->
<svg width="499pt" height="50pt"
 viewBox="0.00 0.00 499.20 50.00" xmlns="http://www.w3.org/2000/svg" xmlns:xlink="http://www.w3.org/1999/xlink">
<g id="graph0" class="graph" transform="scale(1 1) rotate(0) translate(4 46)">
<title>interception__gash::interception_gash_calculate</title>
<polygon fill="white" stroke="none" points="-4,4 -4,-46 495.196,-46 495.196,4 -4,4"/>
<!-- Node14 -->
<g id="node1" class="node"><title>Node14</title>
<polygon fill="#bfbfbf" stroke="black" points="0,-0.5 0,-41.5 108.958,-41.5 108.958,-0.5 0,-0.5"/>
<text text-anchor="start" x="8" y="-28.7" font-family="Helvetica,sans-Serif" font-size="11.00">interception__gash</text>
<text text-anchor="start" x="8" y="-17.7" font-family="Helvetica,sans-Serif" font-size="11.00">::interception_gash</text>
<text text-anchor="middle" x="54.4788" y="-6.7" font-family="Helvetica,sans-Serif" font-size="11.00">_calculate</text>
</g>
<!-- Node15 -->
<g id="node2" class="node"><title>Node15</title>
<g id="a_node2"><a xlink:href="namespacemodel__domain.html#ab738ffd1750d41b323b7ff8635fa1a4b" target="_top" xlink:title="model_domain::model\l_calculate_interception_gash">
<polygon fill="white" stroke="black" points="144.958,-6 144.958,-36 303.447,-36 303.447,-6 144.958,-6"/>
<text text-anchor="start" x="152.958" y="-23.2" font-family="Helvetica,sans-Serif" font-size="11.00">model_domain::model</text>
<text text-anchor="middle" x="224.202" y="-12.2" font-family="Helvetica,sans-Serif" font-size="11.00">_calculate_interception_gash</text>
</a>
</g>
</g>
<!-- Node14&#45;&gt;Node15 -->
<g id="edge1" class="edge"><title>Node14&#45;&gt;Node15</title>
<path fill="none" stroke="midnightblue" d="M119.094,-21C127.5,-21 136.195,-21 144.812,-21"/>
<polygon fill="midnightblue" stroke="midnightblue" points="119.009,-17.5001 109.009,-21 119.009,-24.5001 119.009,-17.5001"/>
</g>
<!-- Node16 -->
<g id="node3" class="node"><title>Node16</title>
<g id="a_node3"><a xlink:href="namespacemodel__domain.html#aac78dbf26ba37cf86ebed4edd7acf89b" target="_top" xlink:title="model_domain::set_method\l_pointers_sub">
<polygon fill="white" stroke="black" points="339.447,-6 339.447,-36 491.196,-36 491.196,-6 339.447,-6"/>
<text text-anchor="start" x="347.447" y="-23.2" font-family="Helvetica,sans-Serif" font-size="11.00">model_domain::set_method</text>
<text text-anchor="middle" x="415.322" y="-12.2" font-family="Helvetica,sans-Serif" font-size="11.00">_pointers_sub</text>
</a>
</g>
</g>
<!-- Node15&#45;&gt;Node16 -->
<g id="edge2" class="edge"><title>Node15&#45;&gt;Node16</title>
<path fill="none" stroke="midnightblue" d="M313.588,-21C322.232,-21 330.945,-21 339.436,-21"/>
<polygon fill="midnightblue" stroke="midnightblue" points="313.49,-17.5001 303.49,-21 313.49,-24.5001 313.49,-17.5001"/>
</g>
</g>
</svg>
