<?xml version="1.0" encoding="UTF-8" standalone="no"?>
<!DOCTYPE svg PUBLIC "-//W3C//DTD SVG 1.1//EN"
 "http://www.w3.org/Graphics/SVG/1.1/DTD/svg11.dtd">
<!-- Generated by graphviz version 2.38.0 (20140413.2041)
 -->
<!-- Title: netcdf4_support::nf_get_variable_vector_int Pages: 1 -->
<svg width="831pt" height="152pt"
 viewBox="0.00 0.00 831.33 151.50" xmlns="http://www.w3.org/2000/svg" xmlns:xlink="http://www.w3.org/1999/xlink">
<g id="graph0" class="graph" transform="scale(1 1) rotate(0) translate(4 147.5)">
<title>netcdf4_support::nf_get_variable_vector_int</title>
<polygon fill="white" stroke="none" points="-4,4 -4,-147.5 827.328,-147.5 827.328,4 -4,4"/>
<!-- Node435 -->
<g id="node1" class="node"><title>Node435</title>
<polygon fill="#bfbfbf" stroke="black" points="0,-52.5 0,-82.5 135.856,-82.5 135.856,-52.5 0,-52.5"/>
<text text-anchor="start" x="8" y="-69.7" font-family="Helvetica,sans-Serif" font-size="11.00">netcdf4_support::nf</text>
<text text-anchor="middle" x="67.928" y="-58.7" font-family="Helvetica,sans-Serif" font-size="11.00">_get_variable_vector_int</text>
</g>
<!-- Node436 -->
<g id="node2" class="node"><title>Node436</title>
<g id="a_node2"><a xlink:href="namespacenetcdf4__support.html#a3f9a545cd24a2c66040977e333152f3e" target="_top" xlink:title="netcdf4_support::nf\l_get_first_and_last">
<polygon fill="white" stroke="black" points="171.856,-52.5 171.856,-82.5 282.033,-82.5 282.033,-52.5 171.856,-52.5"/>
<text text-anchor="start" x="179.856" y="-69.7" font-family="Helvetica,sans-Serif" font-size="11.00">netcdf4_support::nf</text>
<text text-anchor="middle" x="226.944" y="-58.7" font-family="Helvetica,sans-Serif" font-size="11.00">_get_first_and_last</text>
</a>
</g>
</g>
<!-- Node435&#45;&gt;Node436 -->
<g id="edge1" class="edge"><title>Node435&#45;&gt;Node436</title>
<path fill="none" stroke="midnightblue" d="M146.019,-67.5C154.607,-67.5 163.217,-67.5 171.439,-67.5"/>
<polygon fill="midnightblue" stroke="midnightblue" points="145.973,-64.0001 135.972,-67.5 145.972,-71.0001 145.973,-64.0001"/>
</g>
<!-- Node437 -->
<g id="node3" class="node"><title>Node437</title>
<g id="a_node3"><a xlink:href="namespacenetcdf4__support.html#a8be734b602e654816c17b5e27d0fbffb" target="_top" xlink:title="netcdf4_support::netcdf\l_open_and_prepare_for\l_merging">
<polygon fill="white" stroke="black" points="332.408,-102 332.408,-143 466.454,-143 466.454,-102 332.408,-102"/>
<text text-anchor="start" x="340.408" y="-130.2" font-family="Helvetica,sans-Serif" font-size="11.00">netcdf4_support::netcdf</text>
<text text-anchor="start" x="340.408" y="-119.2" font-family="Helvetica,sans-Serif" font-size="11.00">_open_and_prepare_for</text>
<text text-anchor="middle" x="399.431" y="-108.2" font-family="Helvetica,sans-Serif" font-size="11.00">_merging</text>
</a>
</g>
</g>
<!-- Node436&#45;&gt;Node437 -->
<g id="edge2" class="edge"><title>Node436&#45;&gt;Node437</title>
<path fill="none" stroke="midnightblue" d="M284.338,-85.6928C300.451,-90.891 318.123,-96.5922 334.645,-101.922"/>
<polygon fill="midnightblue" stroke="midnightblue" points="285.122,-82.2683 274.531,-82.529 282.973,-88.9303 285.122,-82.2683"/>
</g>
<!-- Node438 -->
<g id="node4" class="node"><title>Node438</title>
<g id="a_node4"><a xlink:href="namespacenetcdf4__support.html#a6d3d402059d71a8bd24a01dc6116ff7d" target="_top" xlink:title="netcdf4_support::netcdf\l_open_and_prepare_as_input">
<polygon fill="white" stroke="black" points="318.033,-3.5 318.033,-33.5 480.83,-33.5 480.83,-3.5 318.033,-3.5"/>
<text text-anchor="start" x="326.033" y="-20.7" font-family="Helvetica,sans-Serif" font-size="11.00">netcdf4_support::netcdf</text>
<text text-anchor="middle" x="399.431" y="-9.7" font-family="Helvetica,sans-Serif" font-size="11.00">_open_and_prepare_as_input</text>
</a>
</g>
</g>
<!-- Node436&#45;&gt;Node438 -->
<g id="edge3" class="edge"><title>Node436&#45;&gt;Node438</title>
<path fill="none" stroke="midnightblue" d="M290.204,-49.6059C308.541,-44.3356 328.412,-38.6245 346.062,-33.5516"/>
<polygon fill="midnightblue" stroke="midnightblue" points="289.131,-46.2724 280.487,-52.3986 291.065,-53 289.131,-46.2724"/>
</g>
<!-- Node442 -->
<g id="node8" class="node"><title>Node442</title>
<g id="a_node8"><a xlink:href="namespacenetcdf4__support.html#a7b3b3cf3aab614eb336e12694c5d76ef" target="_top" xlink:title="netcdf4_support::netcdf\l_open_file">
<polygon fill="white" stroke="black" points="333.947,-52.5 333.947,-82.5 464.916,-82.5 464.916,-52.5 333.947,-52.5"/>
<text text-anchor="start" x="341.947" y="-69.7" font-family="Helvetica,sans-Serif" font-size="11.00">netcdf4_support::netcdf</text>
<text text-anchor="middle" x="399.431" y="-58.7" font-family="Helvetica,sans-Serif" font-size="11.00">_open_file</text>
</a>
</g>
</g>
<!-- Node436&#45;&gt;Node442 -->
<g id="edge8" class="edge"><title>Node436&#45;&gt;Node442</title>
<path fill="none" stroke="midnightblue" d="M292.525,-67.5C306.043,-67.5 320.299,-67.5 333.818,-67.5"/>
<polygon fill="midnightblue" stroke="midnightblue" points="292.356,-64.0001 282.356,-67.5 292.356,-71.0001 292.356,-64.0001"/>
</g>
<!-- Node439 -->
<g id="node5" class="node"><title>Node439</title>
<g id="a_node5"><a xlink:href="namespacedata__catalog__entry.html#aeb285131f87ed64deba0a9041a9c6405" target="_top" xlink:title="data_catalog_entry\l::getvalues_dynamic\l_netcdf_sub">
<polygon fill="white" stroke="black" points="539.155,-50 539.155,-91 655.433,-91 655.433,-50 539.155,-50"/>
<text text-anchor="start" x="547.155" y="-78.2" font-family="Helvetica,sans-Serif" font-size="11.00">data_catalog_entry</text>
<text text-anchor="start" x="547.155" y="-67.2" font-family="Helvetica,sans-Serif" font-size="11.00">::getvalues_dynamic</text>
<text text-anchor="middle" x="597.294" y="-56.2" font-family="Helvetica,sans-Serif" font-size="11.00">_netcdf_sub</text>
</a>
</g>
</g>
<!-- Node438&#45;&gt;Node439 -->
<g id="edge4" class="edge"><title>Node438&#45;&gt;Node439</title>
<path fill="none" stroke="midnightblue" d="M466.943,-36.1584C490.376,-42.3797 516.494,-49.3137 539.091,-55.3131"/>
<polygon fill="midnightblue" stroke="midnightblue" points="467.646,-32.7238 457.083,-33.5406 465.85,-39.4895 467.646,-32.7238"/>
</g>
<!-- Node441 -->
<g id="node7" class="node"><title>Node441</title>
<g id="a_node7"><a xlink:href="namespacedata__catalog__entry.html#ac3e1f0d9d9e146fbb77c0084e1e9fc14" target="_top" xlink:title="data_catalog_entry\l::getvalues_static_netcdf_sub">
<polygon fill="white" stroke="black" points="516.83,-0.5 516.83,-30.5 677.758,-30.5 677.758,-0.5 516.83,-0.5"/>
<text text-anchor="start" x="524.83" y="-17.7" font-family="Helvetica,sans-Serif" font-size="11.00">data_catalog_entry</text>
<text text-anchor="middle" x="597.294" y="-6.7" font-family="Helvetica,sans-Serif" font-size="11.00">::getvalues_static_netcdf_sub</text>
</a>
</g>
</g>
<!-- Node438&#45;&gt;Node441 -->
<g id="edge6" class="edge"><title>Node438&#45;&gt;Node441</title>
<path fill="none" stroke="midnightblue" d="M490.982,-17.1131C499.576,-16.9814 508.247,-16.8486 516.726,-16.7187"/>
<polygon fill="midnightblue" stroke="midnightblue" points="490.889,-13.614 480.944,-17.2668 490.997,-20.6131 490.889,-13.614"/>
</g>
<!-- Node440 -->
<g id="node6" class="node"><title>Node440</title>
<g id="a_node6"><a xlink:href="namespacedata__catalog__entry.html#a9e0a89ab19a5bfd61f2dfb8265648234" target="_top" xlink:title="data_catalog_entry\l::getvalues_sub">
<polygon fill="white" stroke="black" points="713.758,-27.5 713.758,-57.5 823.328,-57.5 823.328,-27.5 713.758,-27.5"/>
<text text-anchor="start" x="721.758" y="-44.7" font-family="Helvetica,sans-Serif" font-size="11.00">data_catalog_entry</text>
<text text-anchor="middle" x="768.543" y="-33.7" font-family="Helvetica,sans-Serif" font-size="11.00">::getvalues_sub</text>
</a>
</g>
</g>
<!-- Node439&#45;&gt;Node440 -->
<g id="edge5" class="edge"><title>Node439&#45;&gt;Node440</title>
<path fill="none" stroke="midnightblue" d="M665.897,-59.3161C681.796,-56.6858 698.531,-53.9172 713.73,-51.4027"/>
<polygon fill="midnightblue" stroke="midnightblue" points="664.889,-55.9351 655.594,-61.0205 666.031,-62.8413 664.889,-55.9351"/>
</g>
<!-- Node441&#45;&gt;Node440 -->
<g id="edge7" class="edge"><title>Node441&#45;&gt;Node440</title>
<path fill="none" stroke="midnightblue" d="M688.101,-29.8267C696.727,-31.2028 705.281,-32.5674 713.403,-33.8631"/>
<polygon fill="midnightblue" stroke="midnightblue" points="688.389,-26.3285 677.963,-28.2094 687.286,-33.2411 688.389,-26.3285"/>
</g>
<!-- Node442&#45;&gt;Node439 -->
<g id="edge9" class="edge"><title>Node442&#45;&gt;Node439</title>
<path fill="none" stroke="midnightblue" d="M475.325,-68.6471C496.426,-68.9703 519.039,-69.3167 538.937,-69.6215"/>
<polygon fill="midnightblue" stroke="midnightblue" points="475.159,-65.1443 465.107,-68.4906 475.052,-72.1435 475.159,-65.1443"/>
</g>
<!-- Node442&#45;&gt;Node441 -->
<g id="edge10" class="edge"><title>Node442&#45;&gt;Node441</title>
<path fill="none" stroke="midnightblue" d="M467.031,-49.8182C490.677,-43.5405 517.046,-36.5397 539.77,-30.5068"/>
<polygon fill="midnightblue" stroke="midnightblue" points="465.85,-46.5105 457.083,-52.4594 467.646,-53.2762 465.85,-46.5105"/>
</g>
</g>
</svg>
