<?xml version="1.0" encoding="UTF-8" standalone="no"?>
<!DOCTYPE svg PUBLIC "-//W3C//DTD SVG 1.1//EN"
 "http://www.w3.org/Graphics/SVG/1.1/DTD/svg11.dtd">
<!-- Generated by graphviz version 2.38.0 (20140413.2041)
 -->
<!-- Title: interception__gash::precipitation_at_saturation Pages: 1 -->
<svg width="682pt" height="50pt"
 viewBox="0.00 0.00 682.05 50.00" xmlns="http://www.w3.org/2000/svg" xmlns:xlink="http://www.w3.org/1999/xlink">
<g id="graph0" class="graph" transform="scale(1 1) rotate(0) translate(4 46)">
<title>interception__gash::precipitation_at_saturation</title>
<polygon fill="white" stroke="none" points="-4,4 -4,-46 678.052,-46 678.052,4 -4,4"/>
<!-- Node1 -->
<g id="node1" class="node"><title>Node1</title>
<polygon fill="#bfbfbf" stroke="black" points="0,-6 0,-36 151.142,-36 151.142,-6 0,-6"/>
<text text-anchor="start" x="8" y="-23.2" font-family="Helvetica,sans-Serif" font-size="11.00">interception__gash</text>
<text text-anchor="middle" x="75.571" y="-12.2" font-family="Helvetica,sans-Serif" font-size="11.00">::precipitation_at_saturation</text>
</g>
<!-- Node2 -->
<g id="node2" class="node"><title>Node2</title>
<g id="a_node2"><a xlink:href="namespaceinterception____gash.html#a419e65fd85d4c1f7b36c056dde2753e6" target="_top" xlink:title="Initialize the Gash interception algorithm. ">
<polygon fill="white" stroke="black" points="187.142,-0.5 187.142,-41.5 296.1,-41.5 296.1,-0.5 187.142,-0.5"/>
<text text-anchor="start" x="195.142" y="-28.7" font-family="Helvetica,sans-Serif" font-size="11.00">interception__gash</text>
<text text-anchor="start" x="195.142" y="-17.7" font-family="Helvetica,sans-Serif" font-size="11.00">::interception_gash</text>
<text text-anchor="middle" x="241.621" y="-6.7" font-family="Helvetica,sans-Serif" font-size="11.00">_initialize</text>
</a>
</g>
</g>
<!-- Node1&#45;&gt;Node2 -->
<g id="edge1" class="edge"><title>Node1&#45;&gt;Node2</title>
<path fill="none" stroke="midnightblue" d="M161.546,-21C170.195,-21 178.801,-21 186.978,-21"/>
<polygon fill="midnightblue" stroke="midnightblue" points="161.395,-17.5001 151.395,-21 161.395,-24.5001 161.395,-17.5001"/>
</g>
<!-- Node3 -->
<g id="node3" class="node"><title>Node3</title>
<g id="a_node3"><a xlink:href="namespacemodel__domain.html#ab12b607e458d5176b9989a39a0710ebe" target="_top" xlink:title="model_domain::model\l_initialize_interception_gash">
<polygon fill="white" stroke="black" points="332.1,-6 332.1,-36 486.303,-36 486.303,-6 332.1,-6"/>
<text text-anchor="start" x="340.1" y="-23.2" font-family="Helvetica,sans-Serif" font-size="11.00">model_domain::model</text>
<text text-anchor="middle" x="409.201" y="-12.2" font-family="Helvetica,sans-Serif" font-size="11.00">_initialize_interception_gash</text>
</a>
</g>
</g>
<!-- Node2&#45;&gt;Node3 -->
<g id="edge2" class="edge"><title>Node2&#45;&gt;Node3</title>
<path fill="none" stroke="midnightblue" d="M306.391,-21C314.728,-21 323.338,-21 331.856,-21"/>
<polygon fill="midnightblue" stroke="midnightblue" points="306.38,-17.5001 296.38,-21 306.38,-24.5001 306.38,-17.5001"/>
</g>
<!-- Node4 -->
<g id="node4" class="node"><title>Node4</title>
<g id="a_node4"><a xlink:href="namespacemodel__domain.html#aac78dbf26ba37cf86ebed4edd7acf89b" target="_top" xlink:title="model_domain::set_method\l_pointers_sub">
<polygon fill="white" stroke="black" points="522.303,-6 522.303,-36 674.052,-36 674.052,-6 522.303,-6"/>
<text text-anchor="start" x="530.303" y="-23.2" font-family="Helvetica,sans-Serif" font-size="11.00">model_domain::set_method</text>
<text text-anchor="middle" x="598.178" y="-12.2" font-family="Helvetica,sans-Serif" font-size="11.00">_pointers_sub</text>
</a>
</g>
</g>
<!-- Node3&#45;&gt;Node4 -->
<g id="edge3" class="edge"><title>Node3&#45;&gt;Node4</title>
<path fill="none" stroke="midnightblue" d="M496.754,-21C505.189,-21 513.7,-21 522.009,-21"/>
<polygon fill="midnightblue" stroke="midnightblue" points="496.522,-17.5001 486.522,-21 496.521,-24.5001 496.522,-17.5001"/>
</g>
</g>
</svg>
