<?xml version="1.0" encoding="UTF-8" standalone="no"?>
<!DOCTYPE svg PUBLIC "-//W3C//DTD SVG 1.1//EN"
 "http://www.w3.org/Graphics/SVG/1.1/DTD/svg11.dtd">
<!-- Generated by graphviz version 2.38.0 (20140413.2041)
 -->
<!-- Title: model_domain::model_initialize_crop_coefficient_fao56 Pages: 1 -->
<svg width="360pt" height="50pt"
 viewBox="0.00 0.00 360.35 50.00" xmlns="http://www.w3.org/2000/svg" xmlns:xlink="http://www.w3.org/1999/xlink">
<g id="graph0" class="graph" transform="scale(1 1) rotate(0) translate(4 46)">
<title>model_domain::model_initialize_crop_coefficient_fao56</title>
<polygon fill="white" stroke="none" points="-4,4 -4,-46 356.351,-46 356.351,4 -4,4"/>
<!-- Node1 -->
<g id="node1" class="node"><title>Node1</title>
<polygon fill="#bfbfbf" stroke="black" points="0,-6 0,-36 178.051,-36 178.051,-6 0,-6"/>
<text text-anchor="start" x="8" y="-23.2" font-family="Helvetica,sans-Serif" font-size="11.00">model_domain::model</text>
<text text-anchor="middle" x="89.0256" y="-12.2" font-family="Helvetica,sans-Serif" font-size="11.00">_initialize_crop_coefficient_fao56</text>
</g>
<!-- Node2 -->
<g id="node2" class="node"><title>Node2</title>
<g id="a_node2"><a xlink:href="namespacecrop__coefficients____fao56.html#a5feb6c6ffd397fd588cae5e15d514957" target="_top" xlink:title="crop_coefficients_\l_fao56::crop_coefficients\l_fao56_initialize">
<polygon fill="white" stroke="black" points="214.051,-0.5 214.051,-41.5 352.351,-41.5 352.351,-0.5 214.051,-0.5"/>
<text text-anchor="start" x="222.051" y="-28.7" font-family="Helvetica,sans-Serif" font-size="11.00">crop_coefficients_</text>
<text text-anchor="start" x="222.051" y="-17.7" font-family="Helvetica,sans-Serif" font-size="11.00">_fao56::crop_coefficients</text>
<text text-anchor="middle" x="283.201" y="-6.7" font-family="Helvetica,sans-Serif" font-size="11.00">_fao56_initialize</text>
</a>
</g>
</g>
<!-- Node1&#45;&gt;Node2 -->
<g id="edge1" class="edge"><title>Node1&#45;&gt;Node2</title>
<path fill="none" stroke="midnightblue" d="M178.239,-21C186.727,-21 195.298,-21 203.683,-21"/>
<polygon fill="midnightblue" stroke="midnightblue" points="203.803,-24.5001 213.802,-21 203.802,-17.5001 203.803,-24.5001"/>
</g>
</g>
</svg>
