<?xml version="1.0" encoding="UTF-8" standalone="no"?>
<!DOCTYPE svg PUBLIC "-//W3C//DTD SVG 1.1//EN"
 "http://www.w3.org/Graphics/SVG/1.1/DTD/svg11.dtd">
<!-- Generated by graphviz version 2.38.0 (20140413.2041)
 -->
<!-- Title: grid::grid_transform Pages: 1 -->
<svg width="730pt" height="100pt"
 viewBox="0.00 0.00 729.67 99.50" xmlns="http://www.w3.org/2000/svg" xmlns:xlink="http://www.w3.org/1999/xlink">
<g id="graph0" class="graph" transform="scale(1 1) rotate(0) translate(4 95.5)">
<title>grid::grid_transform</title>
<polygon fill="white" stroke="none" points="-4,4 -4,-95.5 725.675,-95.5 725.675,4 -4,4"/>
<!-- Node1 -->
<g id="node1" class="node"><title>Node1</title>
<polygon fill="#bfbfbf" stroke="black" points="0,-38.5 0,-57.5 111.369,-57.5 111.369,-38.5 0,-38.5"/>
<text text-anchor="middle" x="55.6846" y="-44.7" font-family="Helvetica,sans-Serif" font-size="11.00">grid::grid_transform</text>
</g>
<!-- Node2 -->
<g id="node2" class="node"><title>Node2</title>
<g id="a_node2"><a xlink:href="namespacemodel__initialize.html#a63c6e7946b13f1ffe90ca3e2d7df1387" target="_top" xlink:title="model_initialize::initialize\l_latitude">
<polygon fill="white" stroke="black" points="147.369,-61 147.369,-91 283.816,-91 283.816,-61 147.369,-61"/>
<text text-anchor="start" x="155.369" y="-78.2" font-family="Helvetica,sans-Serif" font-size="11.00">model_initialize::initialize</text>
<text text-anchor="middle" x="215.593" y="-67.2" font-family="Helvetica,sans-Serif" font-size="11.00">_latitude</text>
</a>
</g>
</g>
<!-- Node1&#45;&gt;Node2 -->
<g id="edge1" class="edge"><title>Node1&#45;&gt;Node2</title>
<path fill="none" stroke="midnightblue" d="M120.707,-59.3524C129.451,-60.9029 138.449,-62.4983 147.25,-64.0589"/>
<polygon fill="midnightblue" stroke="midnightblue" points="121.043,-55.8575 110.586,-57.5577 119.821,-62.75 121.043,-55.8575"/>
</g>
<!-- Node6 -->
<g id="node6" class="node"><title>Node6</title>
<g id="a_node6"><a xlink:href="namespacedata__catalog__entry.html#aacf51804adb730b5710c4060576a7948" target="_top" xlink:title="data_catalog_entry\l::transform_grid_to\l_grid_sub">
<polygon fill="white" stroke="black" points="160.808,-0.5 160.808,-41.5 270.377,-41.5 270.377,-0.5 160.808,-0.5"/>
<text text-anchor="start" x="168.808" y="-28.7" font-family="Helvetica,sans-Serif" font-size="11.00">data_catalog_entry</text>
<text text-anchor="start" x="168.808" y="-17.7" font-family="Helvetica,sans-Serif" font-size="11.00">::transform_grid_to</text>
<text text-anchor="middle" x="215.593" y="-6.7" font-family="Helvetica,sans-Serif" font-size="11.00">_grid_sub</text>
</a>
</g>
</g>
<!-- Node1&#45;&gt;Node6 -->
<g id="edge5" class="edge"><title>Node1&#45;&gt;Node6</title>
<path fill="none" stroke="midnightblue" d="M121.342,-36.9446C134.421,-34.7081 148.043,-32.3791 160.704,-30.2141"/>
<polygon fill="midnightblue" stroke="midnightblue" points="120.737,-33.4971 111.47,-38.6325 121.917,-40.3969 120.737,-33.4971"/>
</g>
<!-- Node3 -->
<g id="node3" class="node"><title>Node3</title>
<g id="a_node3"><a xlink:href="namespacemodel__initialize.html#a39e959b59f3ec67f64a1b37a5b30ebc2" target="_top" xlink:title="model_initialize::initialize\l_ancillary_values">
<polygon fill="white" stroke="black" points="319.816,-61 319.816,-91 456.263,-91 456.263,-61 319.816,-61"/>
<text text-anchor="start" x="327.816" y="-78.2" font-family="Helvetica,sans-Serif" font-size="11.00">model_initialize::initialize</text>
<text text-anchor="middle" x="388.039" y="-67.2" font-family="Helvetica,sans-Serif" font-size="11.00">_ancillary_values</text>
</a>
</g>
</g>
<!-- Node2&#45;&gt;Node3 -->
<g id="edge2" class="edge"><title>Node2&#45;&gt;Node3</title>
<path fill="none" stroke="midnightblue" d="M294.221,-76C302.694,-76 311.269,-76 319.605,-76"/>
<polygon fill="midnightblue" stroke="midnightblue" points="293.958,-72.5001 283.958,-76 293.958,-79.5001 293.958,-72.5001"/>
</g>
<!-- Node4 -->
<g id="node4" class="node"><title>Node4</title>
<g id="a_node4"><a xlink:href="namespacemodel__initialize.html#a46370bf2e9ea112d1f219277ba7fd3ce" target="_top" xlink:title="model_initialize::initialize_all">
<polygon fill="white" stroke="black" points="492.263,-66.5 492.263,-85.5 645.833,-85.5 645.833,-66.5 492.263,-66.5"/>
<text text-anchor="middle" x="569.048" y="-72.7" font-family="Helvetica,sans-Serif" font-size="11.00">model_initialize::initialize_all</text>
</a>
</g>
</g>
<!-- Node3&#45;&gt;Node4 -->
<g id="edge3" class="edge"><title>Node3&#45;&gt;Node4</title>
<path fill="none" stroke="midnightblue" d="M466.627,-76C475.037,-76 483.591,-76 491.982,-76"/>
<polygon fill="midnightblue" stroke="midnightblue" points="466.46,-72.5001 456.46,-76 466.46,-79.5001 466.46,-72.5001"/>
</g>
<!-- Node5 -->
<g id="node5" class="node"><title>Node5</title>
<g id="a_node5"><a xlink:href="main_8F90.html#a8ec2266d83cd6c0b762cbcbc92c0af3d" target="_top" xlink:title="Main program which references all other modules; execution begins here. ">
<polygon fill="white" stroke="black" points="681.833,-66.5 681.833,-85.5 721.675,-85.5 721.675,-66.5 681.833,-66.5"/>
<text text-anchor="middle" x="701.754" y="-72.7" font-family="Helvetica,sans-Serif" font-size="11.00">main</text>
</a>
</g>
</g>
<!-- Node4&#45;&gt;Node5 -->
<g id="edge4" class="edge"><title>Node4&#45;&gt;Node5</title>
<path fill="none" stroke="midnightblue" d="M656.172,-76C665.667,-76 674.509,-76 681.774,-76"/>
<polygon fill="midnightblue" stroke="midnightblue" points="656.08,-72.5001 646.08,-76 656.08,-79.5001 656.08,-72.5001"/>
</g>
</g>
</svg>
