<?xml version="1.0" encoding="UTF-8" standalone="no"?>
<!DOCTYPE svg PUBLIC "-//W3C//DTD SVG 1.1//EN"
 "http://www.w3.org/Graphics/SVG/1.1/DTD/svg11.dtd">
<!-- Generated by graphviz version 2.38.0 (20140413.2041)
 -->
<!-- Title: netcdf4_support::nf_julian_day_to_index Pages: 1 -->
<svg width="795pt" height="50pt"
 viewBox="0.00 0.00 794.63 50.00" xmlns="http://www.w3.org/2000/svg" xmlns:xlink="http://www.w3.org/1999/xlink">
<g id="graph0" class="graph" transform="scale(1 1) rotate(0) translate(4 46)">
<title>netcdf4_support::nf_julian_day_to_index</title>
<polygon fill="white" stroke="none" points="-4,4 -4,-46 790.633,-46 790.633,4 -4,4"/>
<!-- Node1 -->
<g id="node1" class="node"><title>Node1</title>
<polygon fill="#bfbfbf" stroke="black" points="0,-6 0,-36 119.361,-36 119.361,-6 0,-6"/>
<text text-anchor="start" x="8" y="-23.2" font-family="Helvetica,sans-Serif" font-size="11.00">netcdf4_support::nf</text>
<text text-anchor="middle" x="59.6807" y="-12.2" font-family="Helvetica,sans-Serif" font-size="11.00">_julian_day_to_index</text>
</g>
<!-- Node2 -->
<g id="node2" class="node"><title>Node2</title>
<g id="a_node2"><a xlink:href="namespacenetcdf4__support.html#ad9dc27ce4aee42f95a7cfc0f8c74166f" target="_top" xlink:title="netcdf4_support::nf\l_julian_day_to_index_adj">
<polygon fill="white" stroke="black" points="155.361,-6 155.361,-36 295.52,-36 295.52,-6 155.361,-6"/>
<text text-anchor="start" x="163.361" y="-23.2" font-family="Helvetica,sans-Serif" font-size="11.00">netcdf4_support::nf</text>
<text text-anchor="middle" x="225.44" y="-12.2" font-family="Helvetica,sans-Serif" font-size="11.00">_julian_day_to_index_adj</text>
</a>
</g>
</g>
<!-- Node1&#45;&gt;Node2 -->
<g id="edge1" class="edge"><title>Node1&#45;&gt;Node2</title>
<path fill="none" stroke="midnightblue" d="M129.87,-21C138.218,-21 146.746,-21 155.095,-21"/>
<polygon fill="midnightblue" stroke="midnightblue" points="129.802,-17.5001 119.802,-21 129.802,-24.5001 129.802,-17.5001"/>
</g>
<!-- Node3 -->
<g id="node3" class="node"><title>Node3</title>
<g id="a_node3"><a xlink:href="namespacenetcdf4__support.html#a58a573e1ab72881162967438f2f16416" target="_top" xlink:title="netcdf4_support::netcdf\l_update_time_starting_index">
<polygon fill="white" stroke="black" points="331.52,-6 331.52,-36 488.785,-36 488.785,-6 331.52,-6"/>
<text text-anchor="start" x="339.52" y="-23.2" font-family="Helvetica,sans-Serif" font-size="11.00">netcdf4_support::netcdf</text>
<text text-anchor="middle" x="410.152" y="-12.2" font-family="Helvetica,sans-Serif" font-size="11.00">_update_time_starting_index</text>
</a>
</g>
</g>
<!-- Node2&#45;&gt;Node3 -->
<g id="edge2" class="edge"><title>Node2&#45;&gt;Node3</title>
<path fill="none" stroke="midnightblue" d="M305.951,-21C314.364,-21 322.913,-21 331.306,-21"/>
<polygon fill="midnightblue" stroke="midnightblue" points="305.776,-17.5001 295.776,-21 305.776,-24.5001 305.776,-17.5001"/>
</g>
<!-- Node4 -->
<g id="node4" class="node"><title>Node4</title>
<g id="a_node4"><a xlink:href="namespacedata__catalog__entry.html#aeb285131f87ed64deba0a9041a9c6405" target="_top" xlink:title="data_catalog_entry\l::getvalues_dynamic\l_netcdf_sub">
<polygon fill="white" stroke="black" points="524.785,-0.5 524.785,-41.5 641.063,-41.5 641.063,-0.5 524.785,-0.5"/>
<text text-anchor="start" x="532.785" y="-28.7" font-family="Helvetica,sans-Serif" font-size="11.00">data_catalog_entry</text>
<text text-anchor="start" x="532.785" y="-17.7" font-family="Helvetica,sans-Serif" font-size="11.00">::getvalues_dynamic</text>
<text text-anchor="middle" x="582.924" y="-6.7" font-family="Helvetica,sans-Serif" font-size="11.00">_netcdf_sub</text>
</a>
</g>
</g>
<!-- Node3&#45;&gt;Node4 -->
<g id="edge3" class="edge"><title>Node3&#45;&gt;Node4</title>
<path fill="none" stroke="midnightblue" d="M499.162,-21C507.787,-21 516.376,-21 524.577,-21"/>
<polygon fill="midnightblue" stroke="midnightblue" points="499.042,-17.5001 489.042,-21 499.042,-24.5001 499.042,-17.5001"/>
</g>
<!-- Node5 -->
<g id="node5" class="node"><title>Node5</title>
<g id="a_node5"><a xlink:href="namespacedata__catalog__entry.html#a9e0a89ab19a5bfd61f2dfb8265648234" target="_top" xlink:title="data_catalog_entry\l::getvalues_sub">
<polygon fill="white" stroke="black" points="677.063,-6 677.063,-36 786.633,-36 786.633,-6 677.063,-6"/>
<text text-anchor="start" x="685.063" y="-23.2" font-family="Helvetica,sans-Serif" font-size="11.00">data_catalog_entry</text>
<text text-anchor="middle" x="731.848" y="-12.2" font-family="Helvetica,sans-Serif" font-size="11.00">::getvalues_sub</text>
</a>
</g>
</g>
<!-- Node4&#45;&gt;Node5 -->
<g id="edge4" class="edge"><title>Node4&#45;&gt;Node5</title>
<path fill="none" stroke="midnightblue" d="M651.185,-21C659.803,-21 668.536,-21 676.905,-21"/>
<polygon fill="midnightblue" stroke="midnightblue" points="651.149,-17.5001 641.149,-21 651.149,-24.5001 651.149,-17.5001"/>
</g>
</g>
</svg>
