<?xml version="1.0" encoding="UTF-8" standalone="no"?>
<!DOCTYPE svg PUBLIC "-//W3C//DTD SVG 1.1//EN"
 "http://www.w3.org/Graphics/SVG/1.1/DTD/svg11.dtd">
<!-- Generated by graphviz version 2.38.0 (20140413.2041)
 -->
<!-- Title: routing__d8::routing_d8_determine_solution_order Pages: 1 -->
<svg width="331pt" height="116pt"
 viewBox="0.00 0.00 330.98 115.50" xmlns="http://www.w3.org/2000/svg" xmlns:xlink="http://www.w3.org/1999/xlink">
<g id="graph0" class="graph" transform="scale(1 1) rotate(0) translate(4 111.5)">
<title>routing__d8::routing_d8_determine_solution_order</title>
<polygon fill="white" stroke="none" points="-4,4 -4,-111.5 326.977,-111.5 326.977,4 -4,4"/>
<!-- Node21 -->
<g id="node1" class="node"><title>Node21</title>
<polygon fill="#bfbfbf" stroke="black" points="0,-44.5 0,-74.5 165.214,-74.5 165.214,-44.5 0,-44.5"/>
<text text-anchor="start" x="8" y="-61.7" font-family="Helvetica,sans-Serif" font-size="11.00">routing__d8::routing</text>
<text text-anchor="middle" x="82.6072" y="-50.7" font-family="Helvetica,sans-Serif" font-size="11.00">_d8_determine_solution_order</text>
</g>
<!-- Node22 -->
<g id="node2" class="node"><title>Node22</title>
<g id="a_node2"><a xlink:href="namespacegrid.html#adfcb9064d9b58a49eb61093cd4809a43" target="_top" xlink:title="grid::grid_destroy">
<polygon fill="white" stroke="black" points="211.602,-88 211.602,-107 312.589,-107 312.589,-88 211.602,-88"/>
<text text-anchor="middle" x="262.095" y="-94.2" font-family="Helvetica,sans-Serif" font-size="11.00">grid::grid_destroy</text>
</a>
</g>
</g>
<!-- Node21&#45;&gt;Node22 -->
<g id="edge1" class="edge"><title>Node21&#45;&gt;Node22</title>
<path fill="none" stroke="midnightblue" d="M153.755,-74.5186C171.328,-78.281 189.92,-82.2614 206.604,-85.8334"/>
<polygon fill="midnightblue" stroke="midnightblue" points="206.208,-89.3279 216.719,-87.9991 207.673,-82.483 206.208,-89.3279"/>
</g>
<!-- Node23 -->
<g id="node3" class="node"><title>Node23</title>
<g id="a_node3"><a xlink:href="namespacegrid.html#a02803f7fe27d0354d3d16a15bd1338da" target="_top" xlink:title="grid::grid_writearcgrid">
<polygon fill="white" stroke="black" points="201.214,-50 201.214,-69 322.977,-69 322.977,-50 201.214,-50"/>
<text text-anchor="middle" x="262.095" y="-56.2" font-family="Helvetica,sans-Serif" font-size="11.00">grid::grid_writearcgrid</text>
</a>
</g>
</g>
<!-- Node21&#45;&gt;Node23 -->
<g id="edge2" class="edge"><title>Node21&#45;&gt;Node23</title>
<path fill="none" stroke="midnightblue" d="M165.338,-59.5C173.876,-59.5 182.501,-59.5 190.895,-59.5"/>
<polygon fill="midnightblue" stroke="midnightblue" points="190.996,-63.0001 200.996,-59.5 190.996,-56.0001 190.996,-63.0001"/>
</g>
<!-- Node24 -->
<g id="node4" class="node"><title>Node24</title>
<g id="a_node4"><a xlink:href="namespacerouting____d8.html#a8ff5176982b0ac8b08696510dad5b894" target="_top" xlink:title="routing__d8::routing\l_d8_get_index">
<polygon fill="white" stroke="black" points="205.17,-0.5 205.17,-30.5 319.021,-30.5 319.021,-0.5 205.17,-0.5"/>
<text text-anchor="start" x="213.17" y="-17.7" font-family="Helvetica,sans-Serif" font-size="11.00">routing__d8::routing</text>
<text text-anchor="middle" x="262.095" y="-6.7" font-family="Helvetica,sans-Serif" font-size="11.00">_d8_get_index</text>
</a>
</g>
</g>
<!-- Node21&#45;&gt;Node24 -->
<g id="edge3" class="edge"><title>Node21&#45;&gt;Node24</title>
<path fill="none" stroke="midnightblue" d="M144.192,-44.4808C160.492,-40.4399 178.206,-36.0486 194.8,-31.935"/>
<polygon fill="midnightblue" stroke="midnightblue" points="196.1,-35.2187 204.964,-29.4153 194.415,-28.4244 196.1,-35.2187"/>
</g>
</g>
</svg>
