<?xml version="1.0" encoding="UTF-8" standalone="no"?>
<!DOCTYPE svg PUBLIC "-//W3C//DTD SVG 1.1//EN"
 "http://www.w3.org/Graphics/SVG/1.1/DTD/svg11.dtd">
<!-- Generated by graphviz version 2.38.0 (20140413.2041)
 -->
<!-- Title: model_domain::model_initialize_soil_storage_max_gridded Pages: 1 -->
<svg width="322pt" height="50pt"
 viewBox="0.00 0.00 322.43 50.00" xmlns="http://www.w3.org/2000/svg" xmlns:xlink="http://www.w3.org/1999/xlink">
<g id="graph0" class="graph" transform="scale(1 1) rotate(0) translate(4 46)">
<title>model_domain::model_initialize_soil_storage_max_gridded</title>
<polygon fill="white" stroke="none" points="-4,4 -4,-46 318.426,-46 318.426,4 -4,4"/>
<!-- Node1 -->
<g id="node1" class="node"><title>Node1</title>
<polygon fill="#bfbfbf" stroke="black" points="0,-0.5 0,-41.5 126.677,-41.5 126.677,-0.5 0,-0.5"/>
<text text-anchor="start" x="8" y="-28.7" font-family="Helvetica,sans-Serif" font-size="11.00">model_domain::model</text>
<text text-anchor="start" x="8" y="-17.7" font-family="Helvetica,sans-Serif" font-size="11.00">_initialize_soil_storage</text>
<text text-anchor="middle" x="63.3384" y="-6.7" font-family="Helvetica,sans-Serif" font-size="11.00">_max_gridded</text>
</g>
<!-- Node2 -->
<g id="node2" class="node"><title>Node2</title>
<g id="a_node2"><a xlink:href="namespacemodel__domain.html#aac78dbf26ba37cf86ebed4edd7acf89b" target="_top" xlink:title="model_domain::set_method\l_pointers_sub">
<polygon fill="white" stroke="black" points="162.677,-6 162.677,-36 314.426,-36 314.426,-6 162.677,-6"/>
<text text-anchor="start" x="170.677" y="-23.2" font-family="Helvetica,sans-Serif" font-size="11.00">model_domain::set_method</text>
<text text-anchor="middle" x="238.551" y="-12.2" font-family="Helvetica,sans-Serif" font-size="11.00">_pointers_sub</text>
</a>
</g>
</g>
<!-- Node1&#45;&gt;Node2 -->
<g id="edge1" class="edge"><title>Node1&#45;&gt;Node2</title>
<path fill="none" stroke="midnightblue" d="M137.005,-21C145.404,-21 153.982,-21 162.412,-21"/>
<polygon fill="midnightblue" stroke="midnightblue" points="136.872,-17.5001 126.872,-21 136.872,-24.5001 136.872,-17.5001"/>
</g>
</g>
</svg>
