<?xml version="1.0" encoding="UTF-8" standalone="no"?>
<!DOCTYPE svg PUBLIC "-//W3C//DTD SVG 1.1//EN"
 "http://www.w3.org/Graphics/SVG/1.1/DTD/svg11.dtd">
<!-- Generated by graphviz version 2.38.0 (20140413.2041)
 -->
<!-- Title: data_catalog_entry::getvalues_constant_sub Pages: 1 -->
<svg width="294pt" height="39pt"
 viewBox="0.00 0.00 294.32 39.00" xmlns="http://www.w3.org/2000/svg" xmlns:xlink="http://www.w3.org/1999/xlink">
<g id="graph0" class="graph" transform="scale(1 1) rotate(0) translate(4 35)">
<title>data_catalog_entry::getvalues_constant_sub</title>
<polygon fill="white" stroke="none" points="-4,4 -4,-35 290.324,-35 290.324,4 -4,4"/>
<!-- Node90 -->
<g id="node1" class="node"><title>Node90</title>
<polygon fill="#bfbfbf" stroke="black" points="0,-0.5 0,-30.5 140.754,-30.5 140.754,-0.5 0,-0.5"/>
<text text-anchor="start" x="8" y="-17.7" font-family="Helvetica,sans-Serif" font-size="11.00">data_catalog_entry</text>
<text text-anchor="middle" x="70.3772" y="-6.7" font-family="Helvetica,sans-Serif" font-size="11.00">::getvalues_constant_sub</text>
</g>
<!-- Node91 -->
<g id="node2" class="node"><title>Node91</title>
<g id="a_node2"><a xlink:href="namespacedata__catalog__entry.html#a9e0a89ab19a5bfd61f2dfb8265648234" target="_top" xlink:title="data_catalog_entry\l::getvalues_sub">
<polygon fill="white" stroke="black" points="176.754,-0.5 176.754,-30.5 286.324,-30.5 286.324,-0.5 176.754,-0.5"/>
<text text-anchor="start" x="184.754" y="-17.7" font-family="Helvetica,sans-Serif" font-size="11.00">data_catalog_entry</text>
<text text-anchor="middle" x="231.539" y="-6.7" font-family="Helvetica,sans-Serif" font-size="11.00">::getvalues_sub</text>
</a>
</g>
</g>
<!-- Node90&#45;&gt;Node91 -->
<g id="edge1" class="edge"><title>Node90&#45;&gt;Node91</title>
<path fill="none" stroke="midnightblue" d="M151.241,-15.5C159.824,-15.5 168.402,-15.5 176.576,-15.5"/>
<polygon fill="midnightblue" stroke="midnightblue" points="151.188,-12.0001 141.188,-15.5 151.188,-19.0001 151.188,-12.0001"/>
</g>
</g>
</svg>
