<?xml version="1.0" encoding="UTF-8" standalone="no"?>
<!DOCTYPE svg PUBLIC "-//W3C//DTD SVG 1.1//EN"
 "http://www.w3.org/Graphics/SVG/1.1/DTD/svg11.dtd">
<!-- Generated by graphviz version 2.38.0 (20140413.2041)
 -->
<!-- Title: model_domain::model_calculate_et_daily_grid Pages: 1 -->
<svg width="330pt" height="39pt"
 viewBox="0.00 0.00 329.77 39.00" xmlns="http://www.w3.org/2000/svg" xmlns:xlink="http://www.w3.org/1999/xlink">
<g id="graph0" class="graph" transform="scale(1 1) rotate(0) translate(4 35)">
<title>model_domain::model_calculate_et_daily_grid</title>
<polygon fill="white" stroke="none" points="-4,4 -4,-35 325.773,-35 325.773,4 -4,4"/>
<!-- Node261 -->
<g id="node1" class="node"><title>Node261</title>
<polygon fill="#bfbfbf" stroke="black" points="0,-0.5 0,-30.5 134.024,-30.5 134.024,-0.5 0,-0.5"/>
<text text-anchor="start" x="8" y="-17.7" font-family="Helvetica,sans-Serif" font-size="11.00">model_domain::model</text>
<text text-anchor="middle" x="67.0122" y="-6.7" font-family="Helvetica,sans-Serif" font-size="11.00">_calculate_et_daily_grid</text>
</g>
<!-- Node262 -->
<g id="node2" class="node"><title>Node262</title>
<g id="a_node2"><a xlink:href="namespacemodel__domain.html#aac78dbf26ba37cf86ebed4edd7acf89b" target="_top" xlink:title="model_domain::set_method\l_pointers_sub">
<polygon fill="white" stroke="black" points="170.024,-0.5 170.024,-30.5 321.773,-30.5 321.773,-0.5 170.024,-0.5"/>
<text text-anchor="start" x="178.024" y="-17.7" font-family="Helvetica,sans-Serif" font-size="11.00">model_domain::set_method</text>
<text text-anchor="middle" x="245.899" y="-6.7" font-family="Helvetica,sans-Serif" font-size="11.00">_pointers_sub</text>
</a>
</g>
</g>
<!-- Node261&#45;&gt;Node262 -->
<g id="edge1" class="edge"><title>Node261&#45;&gt;Node262</title>
<path fill="none" stroke="midnightblue" d="M144.374,-15.5C152.852,-15.5 161.48,-15.5 169.94,-15.5"/>
<polygon fill="midnightblue" stroke="midnightblue" points="144.13,-12.0001 134.13,-15.5 144.13,-19.0001 144.13,-12.0001"/>
</g>
</g>
</svg>
