<?xml version="1.0" encoding="UTF-8" standalone="no"?>
<!DOCTYPE svg PUBLIC "-//W3C//DTD SVG 1.1//EN"
 "http://www.w3.org/Graphics/SVG/1.1/DTD/svg11.dtd">
<!-- Generated by graphviz version 2.38.0 (20140413.2041)
 -->
<!-- Title: grid::grid_destroy Pages: 1 -->
<svg width="914pt" height="443pt"
 viewBox="0.00 0.00 913.79 443.00" xmlns="http://www.w3.org/2000/svg" xmlns:xlink="http://www.w3.org/1999/xlink">
<g id="graph0" class="graph" transform="scale(1 1) rotate(0) translate(4 439)">
<title>grid::grid_destroy</title>
<polygon fill="white" stroke="none" points="-4,4 -4,-439 909.791,-439 909.791,4 -4,4"/>
<!-- Node10 -->
<g id="node1" class="node"><title>Node10</title>
<polygon fill="#bfbfbf" stroke="black" points="0,-202 0,-221 100.987,-221 100.987,-202 0,-202"/>
<text text-anchor="middle" x="50.4934" y="-208.2" font-family="Helvetica,sans-Serif" font-size="11.00">grid::grid_destroy</text>
</g>
<!-- Node11 -->
<g id="node2" class="node"><title>Node11</title>
<g id="a_node2"><a xlink:href="namespacemodel__initialize.html#aa14822f91bc376101bbb19e39f63705c" target="_top" xlink:title="model_initialize::create\l_rooting_depth_table">
<polygon fill="white" stroke="black" points="155.649,-404.5 155.649,-434.5 283.539,-434.5 283.539,-404.5 155.649,-404.5"/>
<text text-anchor="start" x="163.649" y="-421.7" font-family="Helvetica,sans-Serif" font-size="11.00">model_initialize::create</text>
<text text-anchor="middle" x="219.594" y="-410.7" font-family="Helvetica,sans-Serif" font-size="11.00">_rooting_depth_table</text>
</a>
</g>
</g>
<!-- Node10&#45;&gt;Node11 -->
<g id="edge1" class="edge"><title>Node10&#45;&gt;Node11</title>
<path fill="none" stroke="midnightblue" d="M55.1933,-231.209C63.2455,-268.609 85.8971,-350.095 136.987,-394.5 142.467,-399.263 148.839,-403.119 155.561,-406.24"/>
<polygon fill="midnightblue" stroke="midnightblue" points="58.5629,-230.214 53.1477,-221.107 51.7021,-231.603 58.5629,-230.214"/>
</g>
<!-- Node15 -->
<g id="node6" class="node"><title>Node15</title>
<g id="a_node6"><a xlink:href="namespacedata__catalog__entry.html#aeb285131f87ed64deba0a9041a9c6405" target="_top" xlink:title="data_catalog_entry\l::getvalues_dynamic\l_netcdf_sub">
<polygon fill="white" stroke="black" points="161.455,-344 161.455,-385 277.733,-385 277.733,-344 161.455,-344"/>
<text text-anchor="start" x="169.455" y="-372.2" font-family="Helvetica,sans-Serif" font-size="11.00">data_catalog_entry</text>
<text text-anchor="start" x="169.455" y="-361.2" font-family="Helvetica,sans-Serif" font-size="11.00">::getvalues_dynamic</text>
<text text-anchor="middle" x="219.594" y="-350.2" font-family="Helvetica,sans-Serif" font-size="11.00">_netcdf_sub</text>
</a>
</g>
</g>
<!-- Node10&#45;&gt;Node15 -->
<g id="edge5" class="edge"><title>Node10&#45;&gt;Node15</title>
<path fill="none" stroke="midnightblue" d="M60.0211,-230.412C72.9937,-257.179 100.126,-306.02 136.987,-334.5 144.273,-340.13 152.721,-344.78 161.362,-348.598"/>
<polygon fill="midnightblue" stroke="midnightblue" points="63.1711,-228.886 55.7517,-221.322 56.8352,-231.862 63.1711,-228.886"/>
</g>
<!-- Node17 -->
<g id="node8" class="node"><title>Node17</title>
<g id="a_node8"><a xlink:href="namespacedata__catalog__entry.html#a25575c8a43161050427bd7a7d471e83d" target="_top" xlink:title="data_catalog_entry\l::getvalues_gridded_sub">
<polygon fill="white" stroke="black" points="151.661,-294.5 151.661,-324.5 287.527,-324.5 287.527,-294.5 151.661,-294.5"/>
<text text-anchor="start" x="159.661" y="-311.7" font-family="Helvetica,sans-Serif" font-size="11.00">data_catalog_entry</text>
<text text-anchor="middle" x="219.594" y="-300.7" font-family="Helvetica,sans-Serif" font-size="11.00">::getvalues_gridded_sub</text>
</a>
</g>
</g>
<!-- Node10&#45;&gt;Node17 -->
<g id="edge7" class="edge"><title>Node10&#45;&gt;Node17</title>
<path fill="none" stroke="midnightblue" d="M66.9609,-228.613C82.967,-245.355 109.446,-270.464 136.987,-285.5 143.209,-288.897 149.966,-291.864 156.84,-294.442"/>
<polygon fill="midnightblue" stroke="midnightblue" points="69.3704,-226.066 59.9859,-221.148 64.2555,-230.845 69.3704,-226.066"/>
</g>
<!-- Node18 -->
<g id="node9" class="node"><title>Node18</title>
<g id="a_node9"><a xlink:href="namespacedata__catalog__entry.html#ac3e1f0d9d9e146fbb77c0084e1e9fc14" target="_top" xlink:title="data_catalog_entry\l::getvalues_static_netcdf_sub">
<polygon fill="white" stroke="black" points="139.13,-245.5 139.13,-275.5 300.058,-275.5 300.058,-245.5 139.13,-245.5"/>
<text text-anchor="start" x="147.13" y="-262.7" font-family="Helvetica,sans-Serif" font-size="11.00">data_catalog_entry</text>
<text text-anchor="middle" x="219.594" y="-251.7" font-family="Helvetica,sans-Serif" font-size="11.00">::getvalues_static_netcdf_sub</text>
</a>
</g>
</g>
<!-- Node10&#45;&gt;Node18 -->
<g id="edge9" class="edge"><title>Node10&#45;&gt;Node18</title>
<path fill="none" stroke="midnightblue" d="M93.9645,-223.954C116.285,-230.499 143.812,-238.571 167.315,-245.463"/>
<polygon fill="midnightblue" stroke="midnightblue" points="94.6896,-220.519 84.1088,-221.064 92.7198,-227.237 94.6896,-220.519"/>
</g>
<!-- Node19 -->
<g id="node10" class="node"><title>Node19</title>
<g id="a_node10"><a xlink:href="namespacemodel__initialize.html#a63c6e7946b13f1ffe90ca3e2d7df1387" target="_top" xlink:title="model_initialize::initialize\l_latitude">
<polygon fill="white" stroke="black" points="151.371,-196.5 151.371,-226.5 287.817,-226.5 287.817,-196.5 151.371,-196.5"/>
<text text-anchor="start" x="159.371" y="-213.7" font-family="Helvetica,sans-Serif" font-size="11.00">model_initialize::initialize</text>
<text text-anchor="middle" x="219.594" y="-202.7" font-family="Helvetica,sans-Serif" font-size="11.00">_latitude</text>
</a>
</g>
</g>
<!-- Node10&#45;&gt;Node19 -->
<g id="edge11" class="edge"><title>Node10&#45;&gt;Node19</title>
<path fill="none" stroke="midnightblue" d="M111.329,-211.5C124.242,-211.5 137.979,-211.5 151.159,-211.5"/>
<polygon fill="midnightblue" stroke="midnightblue" points="111.177,-208 101.177,-211.5 111.177,-215 111.177,-208"/>
</g>
<!-- Node21 -->
<g id="node12" class="node"><title>Node21</title>
<g id="a_node12"><a xlink:href="namespacemodel__initialize.html#ad4626f16ba0b3e433a90f89e29e4e491" target="_top" xlink:title="model_initialize::initialize\l_percent_canopy_cover">
<polygon fill="white" stroke="black" points="151.371,-147.5 151.371,-177.5 287.817,-177.5 287.817,-147.5 151.371,-147.5"/>
<text text-anchor="start" x="159.371" y="-164.7" font-family="Helvetica,sans-Serif" font-size="11.00">model_initialize::initialize</text>
<text text-anchor="middle" x="219.594" y="-153.7" font-family="Helvetica,sans-Serif" font-size="11.00">_percent_canopy_cover</text>
</a>
</g>
</g>
<!-- Node10&#45;&gt;Node21 -->
<g id="edge14" class="edge"><title>Node10&#45;&gt;Node21</title>
<path fill="none" stroke="midnightblue" d="M93.9645,-199.046C116.285,-192.501 143.812,-184.429 167.315,-177.537"/>
<polygon fill="midnightblue" stroke="midnightblue" points="92.7198,-195.763 84.1088,-201.936 94.6896,-202.481 92.7198,-195.763"/>
</g>
<!-- Node22 -->
<g id="node13" class="node"><title>Node22</title>
<g id="a_node13"><a xlink:href="namespacemodel__initialize.html#a98c8d4a3d9a346ffe0e344d86e7588f5" target="_top" xlink:title="model_initialize::initialize\l_percent_pervious">
<polygon fill="white" stroke="black" points="151.371,-98.5 151.371,-128.5 287.817,-128.5 287.817,-98.5 151.371,-98.5"/>
<text text-anchor="start" x="159.371" y="-115.7" font-family="Helvetica,sans-Serif" font-size="11.00">model_initialize::initialize</text>
<text text-anchor="middle" x="219.594" y="-104.7" font-family="Helvetica,sans-Serif" font-size="11.00">_percent_pervious</text>
</a>
</g>
</g>
<!-- Node10&#45;&gt;Node22 -->
<g id="edge16" class="edge"><title>Node10&#45;&gt;Node22</title>
<path fill="none" stroke="midnightblue" d="M66.9609,-194.387C82.967,-177.645 109.446,-152.536 136.987,-137.5 143.209,-134.103 149.966,-131.136 156.84,-128.558"/>
<polygon fill="midnightblue" stroke="midnightblue" points="64.2555,-192.155 59.9859,-201.852 69.3704,-196.934 64.2555,-192.155"/>
</g>
<!-- Node23 -->
<g id="node14" class="node"><title>Node23</title>
<g id="a_node14"><a xlink:href="namespacemodel__initialize.html#aff75bbdefdd2d6980b3e40d5864dee8f" target="_top" xlink:title="model_initialize::read\l_polygon_id">
<polygon fill="white" stroke="black" points="159.927,-49.5 159.927,-79.5 279.261,-79.5 279.261,-49.5 159.927,-49.5"/>
<text text-anchor="start" x="167.927" y="-66.7" font-family="Helvetica,sans-Serif" font-size="11.00">model_initialize::read</text>
<text text-anchor="middle" x="219.594" y="-55.7" font-family="Helvetica,sans-Serif" font-size="11.00">_polygon_id</text>
</a>
</g>
</g>
<!-- Node10&#45;&gt;Node23 -->
<g id="edge18" class="edge"><title>Node10&#45;&gt;Node23</title>
<path fill="none" stroke="midnightblue" d="M59.5842,-192.655C72.1746,-165.567 99.0164,-115.878 136.987,-88.5 143.815,-83.5768 151.648,-79.6562 159.7,-76.5357"/>
<polygon fill="midnightblue" stroke="midnightblue" points="56.3649,-191.281 55.4631,-201.837 62.7511,-194.147 56.3649,-191.281"/>
</g>
<!-- Node24 -->
<g id="node15" class="node"><title>Node24</title>
<g id="a_node15"><a xlink:href="namespacerouting____d8.html#ae2756c01d52d156a1b6c7ce48ca1e941" target="_top" xlink:title="routing__d8::routing\l_d8_determine_solution_order">
<polygon fill="white" stroke="black" points="136.987,-0.5 136.987,-30.5 302.201,-30.5 302.201,-0.5 136.987,-0.5"/>
<text text-anchor="start" x="144.987" y="-17.7" font-family="Helvetica,sans-Serif" font-size="11.00">routing__d8::routing</text>
<text text-anchor="middle" x="219.594" y="-6.7" font-family="Helvetica,sans-Serif" font-size="11.00">_d8_determine_solution_order</text>
</a>
</g>
</g>
<!-- Node10&#45;&gt;Node24 -->
<g id="edge19" class="edge"><title>Node10&#45;&gt;Node24</title>
<path fill="none" stroke="midnightblue" d="M55.8745,-191.439C64.762,-155.547 88.3359,-80.2928 136.987,-39.5 141.061,-36.0841 145.603,-33.1544 150.4,-30.6416"/>
<polygon fill="midnightblue" stroke="midnightblue" points="52.3637,-191.081 53.4918,-201.615 59.1794,-192.676 52.3637,-191.081"/>
</g>
<!-- Node12 -->
<g id="node3" class="node"><title>Node12</title>
<g id="a_node3"><a xlink:href="namespacemodel__initialize.html#ad5de643aae8f976ef39b44ec8276c528" target="_top" xlink:title="Initialize soils, landuse, and available water content values. ">
<polygon fill="white" stroke="black" points="338.201,-373.5 338.201,-403.5 528.472,-403.5 528.472,-373.5 338.201,-373.5"/>
<text text-anchor="start" x="346.201" y="-390.7" font-family="Helvetica,sans-Serif" font-size="11.00">model_initialize::initialize</text>
<text text-anchor="middle" x="433.336" y="-379.7" font-family="Helvetica,sans-Serif" font-size="11.00">_soils_landuse_awc_flowdir_values</text>
</a>
</g>
</g>
<!-- Node11&#45;&gt;Node12 -->
<g id="edge2" class="edge"><title>Node11&#45;&gt;Node12</title>
<path fill="none" stroke="midnightblue" d="M293.739,-408.791C307.966,-406.708 323.068,-404.497 337.868,-402.331"/>
<polygon fill="midnightblue" stroke="midnightblue" points="292.938,-405.371 283.55,-410.283 293.952,-412.297 292.938,-405.371"/>
</g>
<!-- Node13 -->
<g id="node4" class="node"><title>Node13</title>
<g id="a_node4"><a xlink:href="namespacemodel__initialize.html#a46370bf2e9ea112d1f219277ba7fd3ce" target="_top" xlink:title="model_initialize::initialize_all">
<polygon fill="white" stroke="black" points="564.472,-275 564.472,-294 718.042,-294 718.042,-275 564.472,-275"/>
<text text-anchor="middle" x="641.257" y="-281.2" font-family="Helvetica,sans-Serif" font-size="11.00">model_initialize::initialize_all</text>
</a>
</g>
</g>
<!-- Node12&#45;&gt;Node13 -->
<g id="edge3" class="edge"><title>Node12&#45;&gt;Node13</title>
<path fill="none" stroke="midnightblue" d="M473.298,-368.822C517.529,-346.483 587.873,-310.956 621.352,-294.048"/>
<polygon fill="midnightblue" stroke="midnightblue" points="471.627,-365.745 464.279,-373.378 474.783,-371.993 471.627,-365.745"/>
</g>
<!-- Node14 -->
<g id="node5" class="node"><title>Node14</title>
<g id="a_node5"><a xlink:href="main_8F90.html#a8ec2266d83cd6c0b762cbcbc92c0af3d" target="_top" xlink:title="Main program which references all other modules; execution begins here. ">
<polygon fill="white" stroke="black" points="809.995,-275 809.995,-294 849.837,-294 849.837,-275 809.995,-275"/>
<text text-anchor="middle" x="829.916" y="-281.2" font-family="Helvetica,sans-Serif" font-size="11.00">main</text>
</a>
</g>
</g>
<!-- Node13&#45;&gt;Node14 -->
<g id="edge4" class="edge"><title>Node13&#45;&gt;Node14</title>
<path fill="none" stroke="midnightblue" d="M728.465,-284.5C758.97,-284.5 790.496,-284.5 809.904,-284.5"/>
<polygon fill="midnightblue" stroke="midnightblue" points="728.178,-281 718.178,-284.5 728.178,-288 728.178,-281"/>
</g>
<!-- Node16 -->
<g id="node7" class="node"><title>Node16</title>
<g id="a_node7"><a xlink:href="namespacedata__catalog__entry.html#a9e0a89ab19a5bfd61f2dfb8265648234" target="_top" xlink:title="data_catalog_entry\l::getvalues_sub">
<polygon fill="white" stroke="black" points="378.552,-294.5 378.552,-324.5 488.121,-324.5 488.121,-294.5 378.552,-294.5"/>
<text text-anchor="start" x="386.552" y="-311.7" font-family="Helvetica,sans-Serif" font-size="11.00">data_catalog_entry</text>
<text text-anchor="middle" x="433.336" y="-300.7" font-family="Helvetica,sans-Serif" font-size="11.00">::getvalues_sub</text>
</a>
</g>
</g>
<!-- Node15&#45;&gt;Node16 -->
<g id="edge6" class="edge"><title>Node15&#45;&gt;Node16</title>
<path fill="none" stroke="midnightblue" d="M287.618,-347.091C316.853,-339.497 350.677,-330.711 378.27,-323.544"/>
<polygon fill="midnightblue" stroke="midnightblue" points="286.693,-343.714 277.895,-349.616 288.453,-350.49 286.693,-343.714"/>
</g>
<!-- Node17&#45;&gt;Node16 -->
<g id="edge8" class="edge"><title>Node17&#45;&gt;Node16</title>
<path fill="none" stroke="midnightblue" d="M297.717,-309.5C324.52,-309.5 353.983,-309.5 378.494,-309.5"/>
<polygon fill="midnightblue" stroke="midnightblue" points="297.591,-306 287.591,-309.5 297.591,-313 297.591,-306"/>
</g>
<!-- Node18&#45;&gt;Node16 -->
<g id="edge10" class="edge"><title>Node18&#45;&gt;Node16</title>
<path fill="none" stroke="midnightblue" d="M295.503,-277.835C322.899,-284.175 353.328,-291.216 378.521,-297.046"/>
<polygon fill="midnightblue" stroke="midnightblue" points="296.094,-274.379 285.563,-275.535 294.516,-281.199 296.094,-274.379"/>
</g>
<!-- Node20 -->
<g id="node11" class="node"><title>Node20</title>
<g id="a_node11"><a xlink:href="namespacemodel__initialize.html#a39e959b59f3ec67f64a1b37a5b30ebc2" target="_top" xlink:title="model_initialize::initialize\l_ancillary_values">
<polygon fill="white" stroke="black" points="365.113,-171.5 365.113,-201.5 501.56,-201.5 501.56,-171.5 365.113,-171.5"/>
<text text-anchor="start" x="373.113" y="-188.7" font-family="Helvetica,sans-Serif" font-size="11.00">model_initialize::initialize</text>
<text text-anchor="middle" x="433.336" y="-177.7" font-family="Helvetica,sans-Serif" font-size="11.00">_ancillary_values</text>
</a>
</g>
</g>
<!-- Node19&#45;&gt;Node20 -->
<g id="edge12" class="edge"><title>Node19&#45;&gt;Node20</title>
<path fill="none" stroke="midnightblue" d="M297.831,-202.381C319.791,-199.788 343.529,-196.985 364.861,-194.467"/>
<polygon fill="midnightblue" stroke="midnightblue" points="297.402,-198.907 287.882,-203.555 298.223,-205.859 297.402,-198.907"/>
</g>
<!-- Node20&#45;&gt;Node13 -->
<g id="edge13" class="edge"><title>Node20&#45;&gt;Node13</title>
<path fill="none" stroke="midnightblue" d="M475.282,-205.987C519.027,-226.805 586.575,-258.952 620.04,-274.879"/>
<polygon fill="midnightblue" stroke="midnightblue" points="476.594,-202.735 466.06,-201.598 473.586,-209.055 476.594,-202.735"/>
</g>
<!-- Node21&#45;&gt;Node20 -->
<g id="edge15" class="edge"><title>Node21&#45;&gt;Node20</title>
<path fill="none" stroke="midnightblue" d="M297.831,-171.254C319.791,-173.744 343.529,-176.434 364.861,-178.852"/>
<polygon fill="midnightblue" stroke="midnightblue" points="298.212,-167.775 287.882,-170.127 297.424,-174.731 298.212,-167.775"/>
</g>
<!-- Node22&#45;&gt;Node20 -->
<g id="edge17" class="edge"><title>Node22&#45;&gt;Node20</title>
<path fill="none" stroke="midnightblue" d="M283.713,-131.556C289.979,-133.5 296.228,-135.5 302.201,-137.5 333.678,-148.039 368.884,-161.392 394.733,-171.497"/>
<polygon fill="midnightblue" stroke="midnightblue" points="284.475,-128.129 273.889,-128.555 282.43,-134.824 284.475,-128.129"/>
</g>
<!-- Node25 -->
<g id="node16" class="node"><title>Node25</title>
<g id="a_node16"><a xlink:href="namespacerouting____d8.html#a0008fcb9bc5678e484885bc650fae726" target="_top" xlink:title="routing__d8::routing\l_d8_initialize">
<polygon fill="white" stroke="black" points="376.411,-0.5 376.411,-30.5 490.262,-30.5 490.262,-0.5 376.411,-0.5"/>
<text text-anchor="start" x="384.411" y="-17.7" font-family="Helvetica,sans-Serif" font-size="11.00">routing__d8::routing</text>
<text text-anchor="middle" x="433.336" y="-6.7" font-family="Helvetica,sans-Serif" font-size="11.00">_d8_initialize</text>
</a>
</g>
</g>
<!-- Node24&#45;&gt;Node25 -->
<g id="edge20" class="edge"><title>Node24&#45;&gt;Node25</title>
<path fill="none" stroke="midnightblue" d="M312.667,-15.5C334.306,-15.5 356.727,-15.5 376.232,-15.5"/>
<polygon fill="midnightblue" stroke="midnightblue" points="312.459,-12.0001 302.459,-15.5 312.459,-19.0001 312.459,-12.0001"/>
</g>
<!-- Node26 -->
<g id="node17" class="node"><title>Node26</title>
<g id="a_node17"><a xlink:href="namespacemodel__domain.html#a18aeded59e98fc5ba71f5b4d6b53d732" target="_top" xlink:title="model_domain::model\l_initialize_routing_d8">
<polygon fill="white" stroke="black" points="579.143,-0.5 579.143,-30.5 703.37,-30.5 703.37,-0.5 579.143,-0.5"/>
<text text-anchor="start" x="587.143" y="-17.7" font-family="Helvetica,sans-Serif" font-size="11.00">model_domain::model</text>
<text text-anchor="middle" x="641.257" y="-6.7" font-family="Helvetica,sans-Serif" font-size="11.00">_initialize_routing_d8</text>
</a>
</g>
</g>
<!-- Node25&#45;&gt;Node26 -->
<g id="edge21" class="edge"><title>Node25&#45;&gt;Node26</title>
<path fill="none" stroke="midnightblue" d="M500.513,-15.5C525.653,-15.5 554.162,-15.5 578.843,-15.5"/>
<polygon fill="midnightblue" stroke="midnightblue" points="500.333,-12.0001 490.333,-15.5 500.333,-19.0001 500.333,-12.0001"/>
</g>
<!-- Node27 -->
<g id="node18" class="node"><title>Node27</title>
<g id="a_node18"><a xlink:href="namespacemodel__domain.html#aac78dbf26ba37cf86ebed4edd7acf89b" target="_top" xlink:title="model_domain::set_method\l_pointers_sub">
<polygon fill="white" stroke="black" points="754.042,-0.5 754.042,-30.5 905.791,-30.5 905.791,-0.5 754.042,-0.5"/>
<text text-anchor="start" x="762.042" y="-17.7" font-family="Helvetica,sans-Serif" font-size="11.00">model_domain::set_method</text>
<text text-anchor="middle" x="829.916" y="-6.7" font-family="Helvetica,sans-Serif" font-size="11.00">_pointers_sub</text>
</a>
</g>
</g>
<!-- Node26&#45;&gt;Node27 -->
<g id="edge22" class="edge"><title>Node26&#45;&gt;Node27</title>
<path fill="none" stroke="midnightblue" d="M713.387,-15.5C726.665,-15.5 740.58,-15.5 753.969,-15.5"/>
<polygon fill="midnightblue" stroke="midnightblue" points="713.376,-12.0001 703.376,-15.5 713.376,-19.0001 713.376,-12.0001"/>
</g>
</g>
</svg>
