<?xml version="1.0" encoding="UTF-8" standalone="no"?>
<!DOCTYPE svg PUBLIC "-//W3C//DTD SVG 1.1//EN"
 "http://www.w3.org/Graphics/SVG/1.1/DTD/svg11.dtd">
<!-- Generated by graphviz version 2.38.0 (20140413.2041)
 -->
<!-- Title: netcdf4_support::nf_get_variable_vector_short Pages: 1 -->
<svg width="844pt" height="152pt"
 viewBox="0.00 0.00 844.17 151.50" xmlns="http://www.w3.org/2000/svg" xmlns:xlink="http://www.w3.org/1999/xlink">
<g id="graph0" class="graph" transform="scale(1 1) rotate(0) translate(4 147.5)">
<title>netcdf4_support::nf_get_variable_vector_short</title>
<polygon fill="white" stroke="none" points="-4,4 -4,-147.5 840.165,-147.5 840.165,4 -4,4"/>
<!-- Node402 -->
<g id="node1" class="node"><title>Node402</title>
<polygon fill="#bfbfbf" stroke="black" points="0,-52.5 0,-82.5 148.693,-82.5 148.693,-52.5 0,-52.5"/>
<text text-anchor="start" x="8" y="-69.7" font-family="Helvetica,sans-Serif" font-size="11.00">netcdf4_support::nf</text>
<text text-anchor="middle" x="74.3464" y="-58.7" font-family="Helvetica,sans-Serif" font-size="11.00">_get_variable_vector_short</text>
</g>
<!-- Node403 -->
<g id="node2" class="node"><title>Node403</title>
<g id="a_node2"><a xlink:href="namespacenetcdf4__support.html#a3f9a545cd24a2c66040977e333152f3e" target="_top" xlink:title="netcdf4_support::nf\l_get_first_and_last">
<polygon fill="white" stroke="black" points="184.693,-52.5 184.693,-82.5 294.87,-82.5 294.87,-52.5 184.693,-52.5"/>
<text text-anchor="start" x="192.693" y="-69.7" font-family="Helvetica,sans-Serif" font-size="11.00">netcdf4_support::nf</text>
<text text-anchor="middle" x="239.781" y="-58.7" font-family="Helvetica,sans-Serif" font-size="11.00">_get_first_and_last</text>
</a>
</g>
</g>
<!-- Node402&#45;&gt;Node403 -->
<g id="edge1" class="edge"><title>Node402&#45;&gt;Node403</title>
<path fill="none" stroke="midnightblue" d="M159.12,-67.5C167.803,-67.5 176.456,-67.5 184.684,-67.5"/>
<polygon fill="midnightblue" stroke="midnightblue" points="158.936,-64.0001 148.936,-67.5 158.936,-71.0001 158.936,-64.0001"/>
</g>
<!-- Node404 -->
<g id="node3" class="node"><title>Node404</title>
<g id="a_node3"><a xlink:href="namespacenetcdf4__support.html#a8be734b602e654816c17b5e27d0fbffb" target="_top" xlink:title="netcdf4_support::netcdf\l_open_and_prepare_for\l_merging">
<polygon fill="white" stroke="black" points="345.245,-102 345.245,-143 479.291,-143 479.291,-102 345.245,-102"/>
<text text-anchor="start" x="353.245" y="-130.2" font-family="Helvetica,sans-Serif" font-size="11.00">netcdf4_support::netcdf</text>
<text text-anchor="start" x="353.245" y="-119.2" font-family="Helvetica,sans-Serif" font-size="11.00">_open_and_prepare_for</text>
<text text-anchor="middle" x="412.268" y="-108.2" font-family="Helvetica,sans-Serif" font-size="11.00">_merging</text>
</a>
</g>
</g>
<!-- Node403&#45;&gt;Node404 -->
<g id="edge2" class="edge"><title>Node403&#45;&gt;Node404</title>
<path fill="none" stroke="midnightblue" d="M297.175,-85.6928C313.288,-90.891 330.96,-96.5922 347.482,-101.922"/>
<polygon fill="midnightblue" stroke="midnightblue" points="297.959,-82.2683 287.368,-82.529 295.81,-88.9303 297.959,-82.2683"/>
</g>
<!-- Node405 -->
<g id="node4" class="node"><title>Node405</title>
<g id="a_node4"><a xlink:href="namespacenetcdf4__support.html#a6d3d402059d71a8bd24a01dc6116ff7d" target="_top" xlink:title="netcdf4_support::netcdf\l_open_and_prepare_as_input">
<polygon fill="white" stroke="black" points="330.87,-3.5 330.87,-33.5 493.667,-33.5 493.667,-3.5 330.87,-3.5"/>
<text text-anchor="start" x="338.87" y="-20.7" font-family="Helvetica,sans-Serif" font-size="11.00">netcdf4_support::netcdf</text>
<text text-anchor="middle" x="412.268" y="-9.7" font-family="Helvetica,sans-Serif" font-size="11.00">_open_and_prepare_as_input</text>
</a>
</g>
</g>
<!-- Node403&#45;&gt;Node405 -->
<g id="edge3" class="edge"><title>Node403&#45;&gt;Node405</title>
<path fill="none" stroke="midnightblue" d="M303.041,-49.6059C321.378,-44.3356 341.249,-38.6245 358.899,-33.5516"/>
<polygon fill="midnightblue" stroke="midnightblue" points="301.968,-46.2724 293.324,-52.3986 303.902,-53 301.968,-46.2724"/>
</g>
<!-- Node409 -->
<g id="node8" class="node"><title>Node409</title>
<g id="a_node8"><a xlink:href="namespacenetcdf4__support.html#a7b3b3cf3aab614eb336e12694c5d76ef" target="_top" xlink:title="netcdf4_support::netcdf\l_open_file">
<polygon fill="white" stroke="black" points="346.784,-52.5 346.784,-82.5 477.752,-82.5 477.752,-52.5 346.784,-52.5"/>
<text text-anchor="start" x="354.784" y="-69.7" font-family="Helvetica,sans-Serif" font-size="11.00">netcdf4_support::netcdf</text>
<text text-anchor="middle" x="412.268" y="-58.7" font-family="Helvetica,sans-Serif" font-size="11.00">_open_file</text>
</a>
</g>
</g>
<!-- Node403&#45;&gt;Node409 -->
<g id="edge8" class="edge"><title>Node403&#45;&gt;Node409</title>
<path fill="none" stroke="midnightblue" d="M305.362,-67.5C318.88,-67.5 333.136,-67.5 346.655,-67.5"/>
<polygon fill="midnightblue" stroke="midnightblue" points="305.193,-64.0001 295.193,-67.5 305.193,-71.0001 305.193,-64.0001"/>
</g>
<!-- Node406 -->
<g id="node5" class="node"><title>Node406</title>
<g id="a_node5"><a xlink:href="namespacedata__catalog__entry.html#aeb285131f87ed64deba0a9041a9c6405" target="_top" xlink:title="data_catalog_entry\l::getvalues_dynamic\l_netcdf_sub">
<polygon fill="white" stroke="black" points="551.992,-50 551.992,-91 668.27,-91 668.27,-50 551.992,-50"/>
<text text-anchor="start" x="559.992" y="-78.2" font-family="Helvetica,sans-Serif" font-size="11.00">data_catalog_entry</text>
<text text-anchor="start" x="559.992" y="-67.2" font-family="Helvetica,sans-Serif" font-size="11.00">::getvalues_dynamic</text>
<text text-anchor="middle" x="610.131" y="-56.2" font-family="Helvetica,sans-Serif" font-size="11.00">_netcdf_sub</text>
</a>
</g>
</g>
<!-- Node405&#45;&gt;Node406 -->
<g id="edge4" class="edge"><title>Node405&#45;&gt;Node406</title>
<path fill="none" stroke="midnightblue" d="M479.78,-36.1584C503.213,-42.3797 529.331,-49.3137 551.928,-55.3131"/>
<polygon fill="midnightblue" stroke="midnightblue" points="480.483,-32.7238 469.92,-33.5406 478.687,-39.4895 480.483,-32.7238"/>
</g>
<!-- Node408 -->
<g id="node7" class="node"><title>Node408</title>
<g id="a_node7"><a xlink:href="namespacedata__catalog__entry.html#ac3e1f0d9d9e146fbb77c0084e1e9fc14" target="_top" xlink:title="data_catalog_entry\l::getvalues_static_netcdf_sub">
<polygon fill="white" stroke="black" points="529.667,-0.5 529.667,-30.5 690.595,-30.5 690.595,-0.5 529.667,-0.5"/>
<text text-anchor="start" x="537.667" y="-17.7" font-family="Helvetica,sans-Serif" font-size="11.00">data_catalog_entry</text>
<text text-anchor="middle" x="610.131" y="-6.7" font-family="Helvetica,sans-Serif" font-size="11.00">::getvalues_static_netcdf_sub</text>
</a>
</g>
</g>
<!-- Node405&#45;&gt;Node408 -->
<g id="edge6" class="edge"><title>Node405&#45;&gt;Node408</title>
<path fill="none" stroke="midnightblue" d="M503.819,-17.1131C512.413,-16.9814 521.083,-16.8486 529.563,-16.7187"/>
<polygon fill="midnightblue" stroke="midnightblue" points="503.726,-13.614 493.781,-17.2668 503.834,-20.6131 503.726,-13.614"/>
</g>
<!-- Node407 -->
<g id="node6" class="node"><title>Node407</title>
<g id="a_node6"><a xlink:href="namespacedata__catalog__entry.html#a9e0a89ab19a5bfd61f2dfb8265648234" target="_top" xlink:title="data_catalog_entry\l::getvalues_sub">
<polygon fill="white" stroke="black" points="726.595,-27.5 726.595,-57.5 836.165,-57.5 836.165,-27.5 726.595,-27.5"/>
<text text-anchor="start" x="734.595" y="-44.7" font-family="Helvetica,sans-Serif" font-size="11.00">data_catalog_entry</text>
<text text-anchor="middle" x="781.38" y="-33.7" font-family="Helvetica,sans-Serif" font-size="11.00">::getvalues_sub</text>
</a>
</g>
</g>
<!-- Node406&#45;&gt;Node407 -->
<g id="edge5" class="edge"><title>Node406&#45;&gt;Node407</title>
<path fill="none" stroke="midnightblue" d="M678.734,-59.3161C694.633,-56.6858 711.368,-53.9172 726.567,-51.4027"/>
<polygon fill="midnightblue" stroke="midnightblue" points="677.726,-55.9351 668.431,-61.0205 678.868,-62.8413 677.726,-55.9351"/>
</g>
<!-- Node408&#45;&gt;Node407 -->
<g id="edge7" class="edge"><title>Node408&#45;&gt;Node407</title>
<path fill="none" stroke="midnightblue" d="M700.938,-29.8267C709.564,-31.2028 718.118,-32.5674 726.24,-33.8631"/>
<polygon fill="midnightblue" stroke="midnightblue" points="701.226,-26.3285 690.8,-28.2094 700.123,-33.2411 701.226,-26.3285"/>
</g>
<!-- Node409&#45;&gt;Node406 -->
<g id="edge9" class="edge"><title>Node409&#45;&gt;Node406</title>
<path fill="none" stroke="midnightblue" d="M488.162,-68.6471C509.263,-68.9703 531.876,-69.3167 551.774,-69.6215"/>
<polygon fill="midnightblue" stroke="midnightblue" points="487.996,-65.1443 477.944,-68.4906 487.889,-72.1435 487.996,-65.1443"/>
</g>
<!-- Node409&#45;&gt;Node408 -->
<g id="edge10" class="edge"><title>Node409&#45;&gt;Node408</title>
<path fill="none" stroke="midnightblue" d="M479.868,-49.8182C503.514,-43.5405 529.883,-36.5397 552.607,-30.5068"/>
<polygon fill="midnightblue" stroke="midnightblue" points="478.687,-46.5105 469.92,-52.4594 480.483,-53.2762 478.687,-46.5105"/>
</g>
</g>
</svg>
