<?xml version="1.0" encoding="UTF-8" standalone="no"?>
<!DOCTYPE svg PUBLIC "-//W3C//DTD SVG 1.1//EN"
 "http://www.w3.org/Graphics/SVG/1.1/DTD/svg11.dtd">
<!-- Generated by graphviz version 2.38.0 (20140413.2041)
 -->
<!-- Title: netcdf4_support::nf_get_variable_array_as_vector_int Pages: 1 -->
<svg width="481pt" height="50pt"
 viewBox="0.00 0.00 480.84 50.00" xmlns="http://www.w3.org/2000/svg" xmlns:xlink="http://www.w3.org/1999/xlink">
<g id="graph0" class="graph" transform="scale(1 1) rotate(0) translate(4 46)">
<title>netcdf4_support::nf_get_variable_array_as_vector_int</title>
<polygon fill="white" stroke="none" points="-4,4 -4,-46 476.843,-46 476.843,4 -4,4"/>
<!-- Node1 -->
<g id="node1" class="node"><title>Node1</title>
<polygon fill="#bfbfbf" stroke="black" points="0,-0.5 0,-41.5 113.228,-41.5 113.228,-0.5 0,-0.5"/>
<text text-anchor="start" x="8" y="-28.7" font-family="Helvetica,sans-Serif" font-size="11.00">netcdf4_support::nf</text>
<text text-anchor="start" x="8" y="-17.7" font-family="Helvetica,sans-Serif" font-size="11.00">_get_variable_array</text>
<text text-anchor="middle" x="56.6138" y="-6.7" font-family="Helvetica,sans-Serif" font-size="11.00">_as_vector_int</text>
</g>
<!-- Node2 -->
<g id="node2" class="node"><title>Node2</title>
<g id="a_node2"><a xlink:href="namespacenetcdf4__support.html#ac8c7276a5849ae6d17ffef1787e3f234" target="_top" xlink:title="netcdf4_support::nf_trap">
<polygon fill="white" stroke="black" points="149.228,-11.5 149.228,-30.5 284.477,-30.5 284.477,-11.5 149.228,-11.5"/>
<text text-anchor="middle" x="216.852" y="-17.7" font-family="Helvetica,sans-Serif" font-size="11.00">netcdf4_support::nf_trap</text>
</a>
</g>
</g>
<!-- Node1&#45;&gt;Node2 -->
<g id="edge1" class="edge"><title>Node1&#45;&gt;Node2</title>
<path fill="none" stroke="midnightblue" d="M113.403,-21C121.717,-21 130.408,-21 139.063,-21"/>
<polygon fill="midnightblue" stroke="midnightblue" points="139.18,-24.5001 149.18,-21 139.18,-17.5001 139.18,-24.5001"/>
</g>
<!-- Node3 -->
<g id="node3" class="node"><title>Node3</title>
<g id="a_node3"><a xlink:href="namespaceconstants__and__conversions.html#ac13fba285229deab77131132e6f62caf" target="_top" xlink:title="constants_and_conversions\l::char_ptr_to_fortran_string">
<polygon fill="white" stroke="black" points="320.477,-6 320.477,-36 472.843,-36 472.843,-6 320.477,-6"/>
<text text-anchor="start" x="328.477" y="-23.2" font-family="Helvetica,sans-Serif" font-size="11.00">constants_and_conversions</text>
<text text-anchor="middle" x="396.66" y="-12.2" font-family="Helvetica,sans-Serif" font-size="11.00">::char_ptr_to_fortran_string</text>
</a>
</g>
</g>
<!-- Node2&#45;&gt;Node3 -->
<g id="edge2" class="edge"><title>Node2&#45;&gt;Node3</title>
<path fill="none" stroke="midnightblue" d="M284.567,-21C292.925,-21 301.562,-21 310.156,-21"/>
<polygon fill="midnightblue" stroke="midnightblue" points="310.207,-24.5001 320.207,-21 310.207,-17.5001 310.207,-24.5001"/>
</g>
</g>
</svg>
