<?xml version="1.0" encoding="UTF-8" standalone="no"?>
<!DOCTYPE svg PUBLIC "-//W3C//DTD SVG 1.1//EN"
 "http://www.w3.org/Graphics/SVG/1.1/DTD/svg11.dtd">
<!-- Generated by graphviz version 2.38.0 (20140413.2041)
 -->
<!-- Title: constants_and_conversions::is_numeric Pages: 1 -->
<svg width="651pt" height="39pt"
 viewBox="0.00 0.00 650.82 39.00" xmlns="http://www.w3.org/2000/svg" xmlns:xlink="http://www.w3.org/1999/xlink">
<g id="graph0" class="graph" transform="scale(1 1) rotate(0) translate(4 35)">
<title>constants_and_conversions::is_numeric</title>
<polygon fill="white" stroke="none" points="-4,4 -4,-35 646.825,-35 646.825,4 -4,4"/>
<!-- Node8 -->
<g id="node1" class="node"><title>Node8</title>
<polygon fill="#bfbfbf" stroke="black" points="0,-0.5 0,-30.5 152.367,-30.5 152.367,-0.5 0,-0.5"/>
<text text-anchor="start" x="8" y="-17.7" font-family="Helvetica,sans-Serif" font-size="11.00">constants_and_conversions</text>
<text text-anchor="middle" x="76.1833" y="-6.7" font-family="Helvetica,sans-Serif" font-size="11.00">::is_numeric</text>
</g>
<!-- Node9 -->
<g id="node2" class="node"><title>Node9</title>
<g id="a_node2"><a xlink:href="namespaceirrigation.html#a4967e74e2a8b2077014603a91e590ff3" target="_top" xlink:title="Estimate the irrigation water required to sustain plant growth. ">
<polygon fill="white" stroke="black" points="188.367,-0.5 188.367,-30.5 294.848,-30.5 294.848,-0.5 188.367,-0.5"/>
<text text-anchor="start" x="196.367" y="-17.7" font-family="Helvetica,sans-Serif" font-size="11.00">irrigation::irrigation</text>
<text text-anchor="middle" x="241.607" y="-6.7" font-family="Helvetica,sans-Serif" font-size="11.00">__initialize</text>
</a>
</g>
</g>
<!-- Node8&#45;&gt;Node9 -->
<g id="edge1" class="edge"><title>Node8&#45;&gt;Node9</title>
<path fill="none" stroke="midnightblue" d="M162.858,-15.5C171.527,-15.5 180.137,-15.5 188.295,-15.5"/>
<polygon fill="midnightblue" stroke="midnightblue" points="162.677,-12.0001 152.677,-15.5 162.677,-19.0001 162.677,-12.0001"/>
</g>
<!-- Node10 -->
<g id="node3" class="node"><title>Node10</title>
<g id="a_node3"><a xlink:href="namespacemodel__domain.html#aa151e61c324bf88227703908041bee41" target="_top" xlink:title="model_domain::model\l_initialize_irrigation">
<polygon fill="white" stroke="black" points="330.848,-0.5 330.848,-30.5 455.076,-30.5 455.076,-0.5 330.848,-0.5"/>
<text text-anchor="start" x="338.848" y="-17.7" font-family="Helvetica,sans-Serif" font-size="11.00">model_domain::model</text>
<text text-anchor="middle" x="392.962" y="-6.7" font-family="Helvetica,sans-Serif" font-size="11.00">_initialize_irrigation</text>
</a>
</g>
</g>
<!-- Node9&#45;&gt;Node10 -->
<g id="edge2" class="edge"><title>Node9&#45;&gt;Node10</title>
<path fill="none" stroke="midnightblue" d="M305.404,-15.5C313.826,-15.5 322.454,-15.5 330.846,-15.5"/>
<polygon fill="midnightblue" stroke="midnightblue" points="305.264,-12.0001 295.264,-15.5 305.264,-19.0001 305.264,-12.0001"/>
</g>
<!-- Node11 -->
<g id="node4" class="node"><title>Node11</title>
<g id="a_node4"><a xlink:href="namespacemodel__domain.html#aac78dbf26ba37cf86ebed4edd7acf89b" target="_top" xlink:title="model_domain::set_method\l_pointers_sub">
<polygon fill="white" stroke="black" points="491.076,-0.5 491.076,-30.5 642.825,-30.5 642.825,-0.5 491.076,-0.5"/>
<text text-anchor="start" x="499.076" y="-17.7" font-family="Helvetica,sans-Serif" font-size="11.00">model_domain::set_method</text>
<text text-anchor="middle" x="566.95" y="-6.7" font-family="Helvetica,sans-Serif" font-size="11.00">_pointers_sub</text>
</a>
</g>
</g>
<!-- Node10&#45;&gt;Node11 -->
<g id="edge3" class="edge"><title>Node10&#45;&gt;Node11</title>
<path fill="none" stroke="midnightblue" d="M465.273,-15.5C473.724,-15.5 482.371,-15.5 490.873,-15.5"/>
<polygon fill="midnightblue" stroke="midnightblue" points="465.083,-12.0001 455.083,-15.5 465.083,-19.0001 465.083,-12.0001"/>
</g>
</g>
</svg>
