<?xml version="1.0" encoding="UTF-8" standalone="no"?>
<!DOCTYPE svg PUBLIC "-//W3C//DTD SVG 1.1//EN"
 "http://www.w3.org/Graphics/SVG/1.1/DTD/svg11.dtd">
<!-- Generated by graphviz version 2.38.0 (20140413.2041)
 -->
<!-- Title: runoff__gridded_values::runoff_gridded_values_update_ratios Pages: 1 -->
<svg width="264pt" height="50pt"
 viewBox="0.00 0.00 264.16 50.00" xmlns="http://www.w3.org/2000/svg" xmlns:xlink="http://www.w3.org/1999/xlink">
<g id="graph0" class="graph" transform="scale(1 1) rotate(0) translate(4 46)">
<title>runoff__gridded_values::runoff_gridded_values_update_ratios</title>
<polygon fill="white" stroke="none" points="-4,4 -4,-46 260.16,-46 260.16,4 -4,4"/>
<!-- Node1 -->
<g id="node1" class="node"><title>Node1</title>
<polygon fill="#bfbfbf" stroke="black" points="0,-0.5 0,-41.5 130.78,-41.5 130.78,-0.5 0,-0.5"/>
<text text-anchor="start" x="8" y="-28.7" font-family="Helvetica,sans-Serif" font-size="11.00">runoff__gridded_values</text>
<text text-anchor="start" x="8" y="-17.7" font-family="Helvetica,sans-Serif" font-size="11.00">::runoff_gridded_values</text>
<text text-anchor="middle" x="65.3901" y="-6.7" font-family="Helvetica,sans-Serif" font-size="11.00">_update_ratios</text>
</g>
<!-- Node2 -->
<g id="node2" class="node"><title>Node2</title>
<g id="a_node2"><a xlink:href="namespaceexceptions.html#a22a1bf2808fdc249e6b378ee3f221156" target="_top" xlink:title="exceptions::die">
<polygon fill="white" stroke="black" points="166.78,-11.5 166.78,-30.5 256.16,-30.5 256.16,-11.5 166.78,-11.5"/>
<text text-anchor="middle" x="211.47" y="-17.7" font-family="Helvetica,sans-Serif" font-size="11.00">exceptions::die</text>
</a>
</g>
</g>
<!-- Node1&#45;&gt;Node2 -->
<g id="edge1" class="edge"><title>Node1&#45;&gt;Node2</title>
<path fill="none" stroke="midnightblue" d="M130.845,-21C139.474,-21 148.25,-21 156.671,-21"/>
<polygon fill="midnightblue" stroke="midnightblue" points="156.731,-24.5001 166.731,-21 156.731,-17.5001 156.731,-24.5001"/>
</g>
</g>
</svg>
