<?xml version="1.0" encoding="UTF-8" standalone="no"?>
<!DOCTYPE svg PUBLIC "-//W3C//DTD SVG 1.1//EN"
 "http://www.w3.org/Graphics/SVG/1.1/DTD/svg11.dtd">
<!-- Generated by graphviz version 2.38.0 (20140413.2041)
 -->
<!-- Title: netcdf4_support::netcdf_open_and_prepare_as_output Pages: 1 -->
<svg width="735pt" height="39pt"
 viewBox="0.00 0.00 734.66 39.00" xmlns="http://www.w3.org/2000/svg" xmlns:xlink="http://www.w3.org/1999/xlink">
<g id="graph0" class="graph" transform="scale(1 1) rotate(0) translate(4 35)">
<title>netcdf4_support::netcdf_open_and_prepare_as_output</title>
<polygon fill="white" stroke="none" points="-4,4 -4,-35 730.657,-35 730.657,4 -4,4"/>
<!-- Node1 -->
<g id="node1" class="node"><title>Node1</title>
<polygon fill="#bfbfbf" stroke="black" points="0,-0.5 0,-30.5 169.527,-30.5 169.527,-0.5 0,-0.5"/>
<text text-anchor="start" x="8" y="-17.7" font-family="Helvetica,sans-Serif" font-size="11.00">netcdf4_support::netcdf</text>
<text text-anchor="middle" x="84.7637" y="-6.7" font-family="Helvetica,sans-Serif" font-size="11.00">_open_and_prepare_as_output</text>
</g>
<!-- Node2 -->
<g id="node2" class="node"><title>Node2</title>
<g id="a_node2"><a xlink:href="namespacefog____monthly__grid.html#ac06ec0e265221edc2cb7bdcae6b6bb91" target="_top" xlink:title="Initialize the fog drip algorithm. ">
<polygon fill="white" stroke="black" points="205.527,-0.5 205.527,-30.5 351.159,-30.5 351.159,-0.5 205.527,-0.5"/>
<text text-anchor="start" x="213.527" y="-17.7" font-family="Helvetica,sans-Serif" font-size="11.00">fog__monthly_grid::</text>
<text text-anchor="middle" x="278.343" y="-6.7" font-family="Helvetica,sans-Serif" font-size="11.00">fog_monthly_grid_initialize</text>
</a>
</g>
</g>
<!-- Node1&#45;&gt;Node2 -->
<g id="edge1" class="edge"><title>Node1&#45;&gt;Node2</title>
<path fill="none" stroke="midnightblue" d="M179.844,-15.5C188.428,-15.5 197.029,-15.5 205.374,-15.5"/>
<polygon fill="midnightblue" stroke="midnightblue" points="179.793,-12.0001 169.793,-15.5 179.793,-19.0001 179.793,-12.0001"/>
</g>
<!-- Node3 -->
<g id="node3" class="node"><title>Node3</title>
<g id="a_node3"><a xlink:href="namespacemodel__domain.html#ad24a97a20a893d728e39930306e8b1d4" target="_top" xlink:title="model_domain::model\l_initialize_fog_monthly_grid">
<polygon fill="white" stroke="black" points="387.159,-0.5 387.159,-30.5 538.908,-30.5 538.908,-0.5 387.159,-0.5"/>
<text text-anchor="start" x="395.159" y="-17.7" font-family="Helvetica,sans-Serif" font-size="11.00">model_domain::model</text>
<text text-anchor="middle" x="463.033" y="-6.7" font-family="Helvetica,sans-Serif" font-size="11.00">_initialize_fog_monthly_grid</text>
</a>
</g>
</g>
<!-- Node2&#45;&gt;Node3 -->
<g id="edge2" class="edge"><title>Node2&#45;&gt;Node3</title>
<path fill="none" stroke="midnightblue" d="M361.315,-15.5C369.919,-15.5 378.634,-15.5 387.153,-15.5"/>
<polygon fill="midnightblue" stroke="midnightblue" points="361.285,-12.0001 351.285,-15.5 361.285,-19.0001 361.285,-12.0001"/>
</g>
<!-- Node4 -->
<g id="node4" class="node"><title>Node4</title>
<g id="a_node4"><a xlink:href="namespacemodel__domain.html#aac78dbf26ba37cf86ebed4edd7acf89b" target="_top" xlink:title="model_domain::set_method\l_pointers_sub">
<polygon fill="white" stroke="black" points="574.908,-0.5 574.908,-30.5 726.657,-30.5 726.657,-0.5 574.908,-0.5"/>
<text text-anchor="start" x="582.908" y="-17.7" font-family="Helvetica,sans-Serif" font-size="11.00">model_domain::set_method</text>
<text text-anchor="middle" x="650.782" y="-6.7" font-family="Helvetica,sans-Serif" font-size="11.00">_pointers_sub</text>
</a>
</g>
</g>
<!-- Node3&#45;&gt;Node4 -->
<g id="edge3" class="edge"><title>Node3&#45;&gt;Node4</title>
<path fill="none" stroke="midnightblue" d="M549.066,-15.5C557.649,-15.5 566.321,-15.5 574.788,-15.5"/>
<polygon fill="midnightblue" stroke="midnightblue" points="549.049,-12.0001 539.049,-15.5 549.049,-19.0001 549.049,-12.0001"/>
</g>
</g>
</svg>
