<?xml version="1.0" encoding="UTF-8" standalone="no"?>
<!DOCTYPE svg PUBLIC "-//W3C//DTD SVG 1.1//EN"
 "http://www.w3.org/Graphics/SVG/1.1/DTD/svg11.dtd">
<!-- Generated by graphviz version 2.38.0 (20140413.2041)
 -->
<!-- Title: netcdf4_support::netcdf_open_and_prepare_as_output_archive Pages: 1 -->
<!--zoomable 596 -->
<svg id="main" version="1.1" xmlns="http://www.w3.org/2000/svg" xmlns:xlink="http://www.w3.org/1999/xlink" xml:space="preserve" onload="init(evt)">
<style type="text/css"><![CDATA[
.edge:hover path { stroke: red; }
.edge:hover polygon { stroke: red; fill: red; }
]]></style>
<script type="text/javascript"><![CDATA[
var edges = document.getElementsByTagName('g');
if (edges && edges.length) {
  for (var i=0;i<edges.length;i++) {
    if (edges[i].id.substr(0,4)=='edge') {
      edges[i].setAttribute('class','edge');
    }
  }
}
]]></script>
        <defs>
                <circle id="rim" cx="0" cy="0" r="7"/>
                <circle id="rim2" cx="0" cy="0" r="3.5"/>
                <g id="zoomPlus">
                        <use xlink:href="#rim" fill="#404040">
                                <set attributeName="fill" to="#808080" begin="zoomplus.mouseover" end="zoomplus.mouseout"/>
                        </use>
                        <path d="M-4,0h8M0,-4v8" fill="none" stroke="white" stroke-width="1.5" pointer-events="none"/>
                </g>
                <g id="zoomMin">
                        <use xlink:href="#rim" fill="#404040">
                                <set attributeName="fill" to="#808080" begin="zoomminus.mouseover" end="zoomminus.mouseout"/>
                        </use>
                        <path d="M-4,0h8" fill="none" stroke="white" stroke-width="1.5" pointer-events="none"/>
                </g>
                <g id="dirArrow">
                        <path fill="none" stroke="white" stroke-width="1.5" d="M0,-3.0v7 M-2.5,-0.5L0,-3.0L2.5,-0.5"/>
                </g>
               <g id="resetDef">
                       <use xlink:href="#rim2" fill="#404040">
                               <set attributeName="fill" to="#808080" begin="reset.mouseover" end="reset.mouseout"/>
                       </use>
               </g>
        </defs>

<script type="text/javascript">
var viewWidth = 910;
var viewHeight = 596;
var sectionId = 'dynsection-10';
</script>
<script xlink:href="svgpan.js"/>
<svg id="graph" class="graph">
<g id="viewport">
<title>netcdf4_support::netcdf_open_and_prepare_as_output_archive</title>
<polygon fill="white" stroke="none" points="-4,4 -4,-592.034 905.617,-592.034 905.617,4 -4,4"/>
<!-- Node111 -->
<g id="node1" class="node"><title>Node111</title>
<polygon fill="#bfbfbf" stroke="black" points="0,-264 0,-305 169.527,-305 169.527,-264 0,-264"/>
<text text-anchor="start" x="8" y="-292.2" font-family="Helvetica,sans-Serif" font-size="11.00">netcdf4_support::netcdf</text>
<text text-anchor="start" x="8" y="-281.2" font-family="Helvetica,sans-Serif" font-size="11.00">_open_and_prepare_as_output</text>
<text text-anchor="middle" x="84.7637" y="-270.2" font-family="Helvetica,sans-Serif" font-size="11.00">_archive</text>
</g>
<!-- Node112 -->
<g id="node2" class="node"><title>Node112</title>
<g id="a_node2"><a xlink:href="namespacenetcdf4__support.html#ad6629f4108c3dcd35a20b03a0ef68ba5" target="_top" xlink:title="netcdf4_support::nf\l_create">
<polygon fill="white" stroke="black" points="224.493,-527.5 224.493,-557.5 334.669,-557.5 334.669,-527.5 224.493,-527.5"/>
<text text-anchor="start" x="232.493" y="-544.7" font-family="Helvetica,sans-Serif" font-size="11.00">netcdf4_support::nf</text>
<text text-anchor="middle" x="279.581" y="-533.7" font-family="Helvetica,sans-Serif" font-size="11.00">_create</text>
</a>
</g>
</g>
<!-- Node111&#45;&gt;Node112 -->
<g id="edge1" class="edge"><title>Node111&#45;&gt;Node112</title>
<path fill="none" stroke="midnightblue" d="M92.6597,-305.277C107.447,-347.168 145.79,-442.847 205.527,-502.5 213.361,-510.323 223.043,-517.044 232.768,-522.623"/>
<polygon fill="midnightblue" stroke="midnightblue" points="231.196,-525.752 241.658,-527.424 234.523,-519.593 231.196,-525.752"/>
</g>
<!-- Node116 -->
<g id="node6" class="node"><title>Node116</title>
<g id="a_node6"><a xlink:href="namespacenetcdf4__support.html#a42ab68a9a8bd8347f64339759a7c4714" target="_top" xlink:title="netcdf4_support::nf\l_define_deflate">
<polygon fill="white" stroke="black" points="410.73,-478.5 410.73,-508.5 520.906,-508.5 520.906,-478.5 410.73,-478.5"/>
<text text-anchor="start" x="418.73" y="-495.7" font-family="Helvetica,sans-Serif" font-size="11.00">netcdf4_support::nf</text>
<text text-anchor="middle" x="465.818" y="-484.7" font-family="Helvetica,sans-Serif" font-size="11.00">_define_deflate</text>
</a>
</g>
</g>
<!-- Node111&#45;&gt;Node116 -->
<g id="edge5" class="edge"><title>Node111&#45;&gt;Node116</title>
<path fill="none" stroke="midnightblue" d="M98.4892,-305.368C117.859,-335.357 157.596,-390.341 205.527,-420.5 265.521,-458.248 345.365,-476.887 400.524,-485.812"/>
<polygon fill="midnightblue" stroke="midnightblue" points="400.107,-489.289 410.526,-487.368 401.183,-482.372 400.107,-489.289"/>
</g>
<!-- Node117 -->
<g id="node7" class="node"><title>Node117</title>
<g id="a_node7"><a xlink:href="namespacenetcdf4__support.html#abc5c3dbf8acae163fbfcf84e4cee8ab4" target="_top" xlink:title="netcdf4_support::nf\l_define_dimensions">
<polygon fill="white" stroke="black" points="408.896,-429.5 408.896,-459.5 522.741,-459.5 522.741,-429.5 408.896,-429.5"/>
<text text-anchor="start" x="416.896" y="-446.7" font-family="Helvetica,sans-Serif" font-size="11.00">netcdf4_support::nf</text>
<text text-anchor="middle" x="465.818" y="-435.7" font-family="Helvetica,sans-Serif" font-size="11.00">_define_dimensions</text>
</a>
</g>
</g>
<!-- Node111&#45;&gt;Node117 -->
<g id="edge7" class="edge"><title>Node111&#45;&gt;Node117</title>
<path fill="none" stroke="midnightblue" d="M104.439,-305.051C126.4,-327.937 165.025,-364.355 205.527,-384.5 266.935,-415.043 344.303,-430.339 398.478,-437.8"/>
<polygon fill="midnightblue" stroke="midnightblue" points="398.281,-441.304 408.654,-439.147 399.199,-434.365 398.281,-441.304"/>
</g>
<!-- Node118 -->
<g id="node8" class="node"><title>Node118</title>
<g id="a_node8"><a xlink:href="namespacenetcdf4__support.html#a3e28f7c215b2a46ef88ce147905b5380" target="_top" xlink:title="netcdf4_support::nf\l_define_variables">
<polygon fill="white" stroke="black" points="410.73,-380.5 410.73,-410.5 520.906,-410.5 520.906,-380.5 410.73,-380.5"/>
<text text-anchor="start" x="418.73" y="-397.7" font-family="Helvetica,sans-Serif" font-size="11.00">netcdf4_support::nf</text>
<text text-anchor="middle" x="465.818" y="-386.7" font-family="Helvetica,sans-Serif" font-size="11.00">_define_variables</text>
</a>
</g>
</g>
<!-- Node111&#45;&gt;Node118 -->
<g id="edge9" class="edge"><title>Node111&#45;&gt;Node118</title>
<path fill="none" stroke="midnightblue" d="M113.744,-305.304C137.084,-321.587 171.851,-343.432 205.527,-355.5 269.576,-378.452 347.159,-388.238 400.676,-392.408"/>
<polygon fill="midnightblue" stroke="midnightblue" points="400.484,-395.903 410.714,-393.146 400.998,-388.922 400.484,-395.903"/>
</g>
<!-- Node119 -->
<g id="node9" class="node"><title>Node119</title>
<g id="a_node9"><a xlink:href="namespacenetcdf4__support.html#a805e940f20a61297b780e5db8d2f78b7" target="_top" xlink:title="netcdf4_support::nf\l_enddef">
<polygon fill="white" stroke="black" points="410.73,-331.5 410.73,-361.5 520.906,-361.5 520.906,-331.5 410.73,-331.5"/>
<text text-anchor="start" x="418.73" y="-348.7" font-family="Helvetica,sans-Serif" font-size="11.00">netcdf4_support::nf</text>
<text text-anchor="middle" x="465.818" y="-337.7" font-family="Helvetica,sans-Serif" font-size="11.00">_enddef</text>
</a>
</g>
</g>
<!-- Node111&#45;&gt;Node119 -->
<g id="edge11" class="edge"><title>Node111&#45;&gt;Node119</title>
<path fill="none" stroke="midnightblue" d="M125.079,-305.018C147.914,-315.877 177.607,-328.231 205.527,-334.5 270.76,-349.147 347.468,-350.847 400.442,-349.688"/>
<polygon fill="midnightblue" stroke="midnightblue" points="400.804,-353.18 410.71,-349.421 400.622,-346.182 400.804,-353.18"/>
</g>
<!-- Node120 -->
<g id="node10" class="node"><title>Node120</title>
<g id="a_node10"><a xlink:href="namespacenetcdf4__support.html#aa2e8f7506c9fd50f984f1de77bfdc55d" target="_top" xlink:title="netcdf4_support::nf\l_get_variable_id_and_type">
<polygon fill="white" stroke="black" points="205.527,-294.5 205.527,-324.5 353.635,-324.5 353.635,-294.5 205.527,-294.5"/>
<text text-anchor="start" x="213.527" y="-311.7" font-family="Helvetica,sans-Serif" font-size="11.00">netcdf4_support::nf</text>
<text text-anchor="middle" x="279.581" y="-300.7" font-family="Helvetica,sans-Serif" font-size="11.00">_get_variable_id_and_type</text>
</a>
</g>
</g>
<!-- Node111&#45;&gt;Node120 -->
<g id="edge13" class="edge"><title>Node111&#45;&gt;Node120</title>
<path fill="none" stroke="midnightblue" d="M169.775,-295.393C178.31,-296.499 186.976,-297.623 195.5,-298.728"/>
<polygon fill="midnightblue" stroke="midnightblue" points="195.058,-302.2 205.425,-300.015 195.958,-295.258 195.058,-302.2"/>
</g>
<!-- Node122 -->
<g id="node12" class="node"><title>Node122</title>
<g id="a_node12"><a xlink:href="namespacenetcdf4__support.html#a552fe7031185ea4d81868f4d62c44021" target="_top" xlink:title="netcdf4_support::nf\l_put_attributes">
<polygon fill="white" stroke="black" points="224.493,-245.5 224.493,-275.5 334.669,-275.5 334.669,-245.5 224.493,-245.5"/>
<text text-anchor="start" x="232.493" y="-262.7" font-family="Helvetica,sans-Serif" font-size="11.00">netcdf4_support::nf</text>
<text text-anchor="middle" x="279.581" y="-251.7" font-family="Helvetica,sans-Serif" font-size="11.00">_put_attributes</text>
</a>
</g>
</g>
<!-- Node111&#45;&gt;Node122 -->
<g id="edge15" class="edge"><title>Node111&#45;&gt;Node122</title>
<path fill="none" stroke="midnightblue" d="M169.775,-274.043C184.638,-272.193 199.901,-270.293 214.118,-268.524"/>
<polygon fill="midnightblue" stroke="midnightblue" points="214.774,-271.969 224.265,-267.261 213.909,-265.023 214.774,-271.969"/>
</g>
<!-- Node124 -->
<g id="node14" class="node"><title>Node124</title>
<g id="a_node14"><a xlink:href="namespacenetcdf4__support.html#a38ce80fb362cea1b8e76451f51e74330" target="_top" xlink:title="netcdf4_support::nf\l_put_x_and_y">
<polygon fill="white" stroke="black" points="224.493,-196.5 224.493,-226.5 334.669,-226.5 334.669,-196.5 224.493,-196.5"/>
<text text-anchor="start" x="232.493" y="-213.7" font-family="Helvetica,sans-Serif" font-size="11.00">netcdf4_support::nf</text>
<text text-anchor="middle" x="279.581" y="-202.7" font-family="Helvetica,sans-Serif" font-size="11.00">_put_x_and_y</text>
</a>
</g>
</g>
<!-- Node111&#45;&gt;Node124 -->
<g id="edge18" class="edge"><title>Node111&#45;&gt;Node124</title>
<path fill="none" stroke="midnightblue" d="M135.362,-263.957C156.836,-255.235 182.323,-245.114 205.527,-236.5 211.383,-234.326 217.527,-232.116 223.66,-229.954"/>
<polygon fill="midnightblue" stroke="midnightblue" points="224.959,-233.208 233.247,-226.608 222.652,-226.598 224.959,-233.208"/>
</g>
<!-- Node126 -->
<g id="node16" class="node"><title>Node126</title>
<g id="a_node16"><a xlink:href="namespacenetcdf4__support.html#a03ebce69c35f3bba94e0a1c50938952b" target="_top" xlink:title="netcdf4_support::nf\l_set_global_attributes">
<polygon fill="white" stroke="black" points="217.765,-147.5 217.765,-177.5 341.397,-177.5 341.397,-147.5 217.765,-147.5"/>
<text text-anchor="start" x="225.765" y="-164.7" font-family="Helvetica,sans-Serif" font-size="11.00">netcdf4_support::nf</text>
<text text-anchor="middle" x="279.581" y="-153.7" font-family="Helvetica,sans-Serif" font-size="11.00">_set_global_attributes</text>
</a>
</g>
</g>
<!-- Node111&#45;&gt;Node126 -->
<g id="edge21" class="edge"><title>Node111&#45;&gt;Node126</title>
<path fill="none" stroke="midnightblue" d="M106.587,-263.755C129.245,-242.162 167.363,-208.61 205.527,-187.5 209.393,-185.362 213.474,-183.36 217.65,-181.495"/>
<polygon fill="midnightblue" stroke="midnightblue" points="219.023,-184.714 226.9,-177.629 216.324,-178.256 219.023,-184.714"/>
</g>
<!-- Node127 -->
<g id="node17" class="node"><title>Node127</title>
<g id="a_node17"><a xlink:href="namespacenetcdf4__support.html#adfc0607f2466530b3171b1428e5f4d7b" target="_top" xlink:title="netcdf4_support::nf\l_set_standard_attributes">
<polygon fill="white" stroke="black" points="211.041,-98.5 211.041,-128.5 348.121,-128.5 348.121,-98.5 211.041,-98.5"/>
<text text-anchor="start" x="219.041" y="-115.7" font-family="Helvetica,sans-Serif" font-size="11.00">netcdf4_support::nf</text>
<text text-anchor="middle" x="279.581" y="-104.7" font-family="Helvetica,sans-Serif" font-size="11.00">_set_standard_attributes</text>
</a>
</g>
</g>
<!-- Node111&#45;&gt;Node127 -->
<g id="edge22" class="edge"><title>Node111&#45;&gt;Node127</title>
<path fill="none" stroke="midnightblue" d="M97.5569,-263.742C116.438,-232.289 156.376,-172.616 205.527,-138.5 208.366,-136.529 211.375,-134.702 214.489,-133.009"/>
<polygon fill="midnightblue" stroke="midnightblue" points="216.061,-136.136 223.495,-128.587 212.976,-129.853 216.061,-136.136"/>
</g>
<!-- Node128 -->
<g id="node18" class="node"><title>Node128</title>
<g id="a_node18"><a xlink:href="namespacenetcdf4__support.html#a00a0dc30e681bdc43764c0a3cad74075" target="_top" xlink:title="netcdf4_support::nf\l_set_standard_dimensions">
<polygon fill="white" stroke="black" points="205.844,-49.5 205.844,-79.5 353.318,-79.5 353.318,-49.5 205.844,-49.5"/>
<text text-anchor="start" x="213.844" y="-66.7" font-family="Helvetica,sans-Serif" font-size="11.00">netcdf4_support::nf</text>
<text text-anchor="middle" x="279.581" y="-55.7" font-family="Helvetica,sans-Serif" font-size="11.00">_set_standard_dimensions</text>
</a>
</g>
</g>
<!-- Node111&#45;&gt;Node128 -->
<g id="edge23" class="edge"><title>Node111&#45;&gt;Node128</title>
<path fill="none" stroke="midnightblue" d="M92.8773,-263.724C107.568,-223.872 145.039,-136.408 205.527,-88.5 207.136,-87.2256 208.816,-86.0178 210.551,-84.873"/>
<polygon fill="midnightblue" stroke="midnightblue" points="212.7,-87.6752 219.628,-79.6595 209.213,-81.6052 212.7,-87.6752"/>
</g>
<!-- Node129 -->
<g id="node19" class="node"><title>Node129</title>
<g id="a_node19"><a xlink:href="namespacenetcdf4__support.html#ab39abe545c42ab75fd342e7e90370a60" target="_top" xlink:title="netcdf4_support::nf\l_set_standard_variables">
<polygon fill="white" stroke="black" points="211.653,-0.5 211.653,-30.5 347.509,-30.5 347.509,-0.5 211.653,-0.5"/>
<text text-anchor="start" x="219.653" y="-17.7" font-family="Helvetica,sans-Serif" font-size="11.00">netcdf4_support::nf</text>
<text text-anchor="middle" x="279.581" y="-6.7" font-family="Helvetica,sans-Serif" font-size="11.00">_set_standard_variables</text>
</a>
</g>
</g>
<!-- Node111&#45;&gt;Node129 -->
<g id="edge24" class="edge"><title>Node111&#45;&gt;Node129</title>
<path fill="none" stroke="midnightblue" d="M90.1187,-263.74C101.032,-216.825 133.96,-101.862 205.527,-39.5 206.877,-38.3242 208.285,-37.2058 209.742,-36.1419"/>
<polygon fill="midnightblue" stroke="midnightblue" points="211.938,-38.8972 218.558,-30.6258 208.225,-32.9631 211.938,-38.8972"/>
</g>
<!-- Node113 -->
<g id="node3" class="node"><title>Node113</title>
<g id="a_node3"><a xlink:href="namespacenetcdf4__support.html#ac8c7276a5849ae6d17ffef1787e3f234" target="_top" xlink:title="netcdf4_support::nf_trap">
<polygon fill="white" stroke="black" points="578.001,-386 578.001,-405 713.25,-405 713.25,-386 578.001,-386"/>
<text text-anchor="middle" x="645.626" y="-392.2" font-family="Helvetica,sans-Serif" font-size="11.00">netcdf4_support::nf_trap</text>
</a>
</g>
</g>
<!-- Node112&#45;&gt;Node113 -->
<g id="edge2" class="edge"><title>Node112&#45;&gt;Node113</title>
<path fill="none" stroke="midnightblue" d="M314.962,-557.659C367.596,-578.386 469.646,-608.585 542.001,-567.5 600.622,-534.214 629.31,-452.705 639.784,-415.097"/>
<polygon fill="midnightblue" stroke="midnightblue" points="643.193,-415.895 642.364,-405.333 636.425,-414.107 643.193,-415.895"/>
</g>
<!-- Node115 -->
<g id="node5" class="node"><title>Node115</title>
<g id="a_node5"><a xlink:href="namespaceconstants__and__conversions.html#a7685661976b5b344a61522a38564dab2" target="_top" xlink:title="constants_and_conversions\l::fortran_to_c_string">
<polygon fill="white" stroke="black" points="389.635,-527.5 389.635,-557.5 542.001,-557.5 542.001,-527.5 389.635,-527.5"/>
<text text-anchor="start" x="397.635" y="-544.7" font-family="Helvetica,sans-Serif" font-size="11.00">constants_and_conversions</text>
<text text-anchor="middle" x="465.818" y="-533.7" font-family="Helvetica,sans-Serif" font-size="11.00">::fortran_to_c_string</text>
</a>
</g>
</g>
<!-- Node112&#45;&gt;Node115 -->
<g id="edge4" class="edge"><title>Node112&#45;&gt;Node115</title>
<path fill="none" stroke="midnightblue" d="M334.862,-542.5C348.747,-542.5 364.02,-542.5 379.065,-542.5"/>
<polygon fill="midnightblue" stroke="midnightblue" points="379.425,-546 389.425,-542.5 379.425,-539 379.425,-546"/>
</g>
<!-- Node114 -->
<g id="node4" class="node"><title>Node114</title>
<g id="a_node4"><a xlink:href="namespaceconstants__and__conversions.html#ac13fba285229deab77131132e6f62caf" target="_top" xlink:title="constants_and_conversions\l::char_ptr_to_fortran_string">
<polygon fill="white" stroke="black" points="749.25,-380.5 749.25,-410.5 901.617,-410.5 901.617,-380.5 749.25,-380.5"/>
<text text-anchor="start" x="757.25" y="-397.7" font-family="Helvetica,sans-Serif" font-size="11.00">constants_and_conversions</text>
<text text-anchor="middle" x="825.434" y="-386.7" font-family="Helvetica,sans-Serif" font-size="11.00">::char_ptr_to_fortran_string</text>
</a>
</g>
</g>
<!-- Node113&#45;&gt;Node114 -->
<g id="edge3" class="edge"><title>Node113&#45;&gt;Node114</title>
<path fill="none" stroke="midnightblue" d="M713.341,-395.5C721.699,-395.5 730.336,-395.5 738.93,-395.5"/>
<polygon fill="midnightblue" stroke="midnightblue" points="738.981,-399 748.981,-395.5 738.981,-392 738.981,-399"/>
</g>
<!-- Node116&#45;&gt;Node113 -->
<g id="edge6" class="edge"><title>Node116&#45;&gt;Node113</title>
<path fill="none" stroke="midnightblue" d="M521.036,-478.473C528.229,-475.823 535.394,-472.83 542.001,-469.5 573.611,-453.568 606.092,-428.37 625.82,-411.886"/>
<polygon fill="midnightblue" stroke="midnightblue" points="628.339,-414.339 633.697,-405.198 623.808,-409.002 628.339,-414.339"/>
</g>
<!-- Node117&#45;&gt;Node113 -->
<g id="edge8" class="edge"><title>Node117&#45;&gt;Node113</title>
<path fill="none" stroke="midnightblue" d="M521.617,-429.399C546.885,-422.435 576.484,-414.278 600.315,-407.711"/>
<polygon fill="midnightblue" stroke="midnightblue" points="601.435,-411.033 610.146,-405.002 599.575,-404.285 601.435,-411.033"/>
</g>
<!-- Node118&#45;&gt;Node113 -->
<g id="edge10" class="edge"><title>Node118&#45;&gt;Node113</title>
<path fill="none" stroke="midnightblue" d="M521.132,-395.5C535.794,-395.5 551.942,-395.5 567.59,-395.5"/>
<polygon fill="midnightblue" stroke="midnightblue" points="567.781,-399 577.78,-395.5 567.78,-392 567.781,-399"/>
</g>
<!-- Node119&#45;&gt;Node113 -->
<g id="edge12" class="edge"><title>Node119&#45;&gt;Node113</title>
<path fill="none" stroke="midnightblue" d="M521.132,-361.468C546.422,-368.437 576.136,-376.626 600.079,-383.224"/>
<polygon fill="midnightblue" stroke="midnightblue" points="599.387,-386.663 609.957,-385.946 601.246,-379.915 599.387,-386.663"/>
</g>
<!-- Node121 -->
<g id="node11" class="node"><title>Node121</title>
<g id="a_node11"><a xlink:href="namespaceexceptions.html#a84dd04476b06e0a398bfe6d106a82a4d" target="_top" xlink:title="exceptions::warn">
<polygon fill="white" stroke="black" points="416.547,-293 416.547,-312 515.09,-312 515.09,-293 416.547,-293"/>
<text text-anchor="middle" x="465.818" y="-299.2" font-family="Helvetica,sans-Serif" font-size="11.00">exceptions::warn</text>
</a>
</g>
</g>
<!-- Node120&#45;&gt;Node121 -->
<g id="edge14" class="edge"><title>Node120&#45;&gt;Node121</title>
<path fill="none" stroke="midnightblue" d="M353.661,-306.723C371.132,-306.06 389.559,-305.359 406.277,-304.724"/>
<polygon fill="midnightblue" stroke="midnightblue" points="406.581,-308.215 416.441,-304.338 406.315,-301.22 406.581,-308.215"/>
</g>
<!-- Node123 -->
<g id="node13" class="node"><title>Node123</title>
<g id="a_node13"><a xlink:href="namespacenetcdf4__support.html#ac357b1ab9f92cd64fde8c8863e4b0dfb" target="_top" xlink:title="netcdf4_support::nf\l_put_attribute">
<polygon fill="white" stroke="black" points="410.73,-243.5 410.73,-273.5 520.906,-273.5 520.906,-243.5 410.73,-243.5"/>
<text text-anchor="start" x="418.73" y="-260.7" font-family="Helvetica,sans-Serif" font-size="11.00">netcdf4_support::nf</text>
<text text-anchor="middle" x="465.818" y="-249.7" font-family="Helvetica,sans-Serif" font-size="11.00">_put_attribute</text>
</a>
</g>
</g>
<!-- Node122&#45;&gt;Node123 -->
<g id="edge16" class="edge"><title>Node122&#45;&gt;Node123</title>
<path fill="none" stroke="midnightblue" d="M334.862,-259.911C355.479,-259.687 379.157,-259.43 400.605,-259.197"/>
<polygon fill="midnightblue" stroke="midnightblue" points="400.646,-262.697 410.607,-259.088 400.57,-255.697 400.646,-262.697"/>
</g>
<!-- Node123&#45;&gt;Node113 -->
<g id="edge17" class="edge"><title>Node123&#45;&gt;Node113</title>
<path fill="none" stroke="midnightblue" d="M520.946,-272.763C528.304,-275.758 535.537,-279.311 542.001,-283.5 581.25,-308.937 615.369,-352.88 632.631,-377.482"/>
<polygon fill="midnightblue" stroke="midnightblue" points="629.853,-379.619 638.396,-385.885 635.625,-375.659 629.853,-379.619"/>
</g>
<!-- Node125 -->
<g id="node15" class="node"><title>Node125</title>
<g id="a_node15"><a xlink:href="namespacenetcdf4__support.html#a0c16d0db4e8e316fe30746454db8d269" target="_top" xlink:title="netcdf4_support::netcdf\l_put_variable_vector">
<polygon fill="white" stroke="black" points="400.334,-194.5 400.334,-224.5 531.302,-224.5 531.302,-194.5 400.334,-194.5"/>
<text text-anchor="start" x="408.334" y="-211.7" font-family="Helvetica,sans-Serif" font-size="11.00">netcdf4_support::netcdf</text>
<text text-anchor="middle" x="465.818" y="-200.7" font-family="Helvetica,sans-Serif" font-size="11.00">_put_variable_vector</text>
</a>
</g>
</g>
<!-- Node124&#45;&gt;Node125 -->
<g id="edge19" class="edge"><title>Node124&#45;&gt;Node125</title>
<path fill="none" stroke="midnightblue" d="M334.862,-210.911C352.147,-210.723 371.583,-210.512 390.053,-210.312"/>
<polygon fill="midnightblue" stroke="midnightblue" points="390.234,-213.81 400.195,-210.202 390.157,-206.81 390.234,-213.81"/>
</g>
<!-- Node125&#45;&gt;Node113 -->
<g id="edge20" class="edge"><title>Node125&#45;&gt;Node113</title>
<path fill="none" stroke="midnightblue" d="M525.517,-224.515C531.387,-227.31 537.011,-230.61 542.001,-234.5 591.538,-273.118 623.968,-342.778 637.476,-376.366"/>
<polygon fill="midnightblue" stroke="midnightblue" points="634.305,-377.869 641.194,-385.919 640.828,-375.33 634.305,-377.869"/>
</g>
</g>
</svg>
        <g id="navigator" transform="translate(0 0)" fill="#404254">
                <rect fill="#f2f5e9" fill-opacity="0.5" stroke="#606060" stroke-width=".5" x="0" y="0" width="60" height="60"/>
                <use id="zoomplus" xlink:href="#zoomPlus" x="17" y="9" onmousedown="handleZoom(evt,'in')"/>
                <use id="zoomminus" xlink:href="#zoomMin" x="42" y="9" onmousedown="handleZoom(evt,'out')"/>
                <use id="reset" xlink:href="#resetDef" x="30" y="36" onmousedown="handleReset()"/>
                <g id="arrowUp" xlink:href="#dirArrow" transform="translate(30 24)" onmousedown="handlePan(0,-1)">
                  <use xlink:href="#rim" fill="#404040">
                        <set attributeName="fill" to="#808080" begin="arrowUp.mouseover" end="arrowUp.mouseout"/>
                  </use>
                  <path fill="none" stroke="white" stroke-width="1.5" d="M0,-3.0v7 M-2.5,-0.5L0,-3.0L2.5,-0.5"/>
                </g>
                <g id="arrowRight" xlink:href="#dirArrow" transform="rotate(90) translate(36 -43)" onmousedown="handlePan(1,0)">
                  <use xlink:href="#rim" fill="#404040">
                        <set attributeName="fill" to="#808080" begin="arrowRight.mouseover" end="arrowRight.mouseout"/>
                  </use>
                  <path fill="none" stroke="white" stroke-width="1.5" d="M0,-3.0v7 M-2.5,-0.5L0,-3.0L2.5,-0.5"/>
                </g>
                <g id="arrowDown" xlink:href="#dirArrow" transform="rotate(180) translate(-30 -48)" onmousedown="handlePan(0,1)">
                  <use xlink:href="#rim" fill="#404040">
                        <set attributeName="fill" to="#808080" begin="arrowDown.mouseover" end="arrowDown.mouseout"/>
                  </use>
                  <path fill="none" stroke="white" stroke-width="1.5" d="M0,-3.0v7 M-2.5,-0.5L0,-3.0L2.5,-0.5"/>
                </g>
                <g id="arrowLeft" xlink:href="#dirArrow" transform="rotate(270) translate(-36 17)" onmousedown="handlePan(-1,0)">
                  <use xlink:href="#rim" fill="#404040">
                        <set attributeName="fill" to="#808080" begin="arrowLeft.mouseover" end="arrowLeft.mouseout"/>
                  </use>
                  <path fill="none" stroke="white" stroke-width="1.5" d="M0,-3.0v7 M-2.5,-0.5L0,-3.0L2.5,-0.5"/>
                </g>
        </g>
        <svg viewBox="0 0 15 15" width="100%" height="30px" preserveAspectRatio="xMaxYMin meet">
         <g id="arrow_out" transform="scale(0.3 0.3)">
          <a xlink:href="namespacenetcdf4__support_a6c0e12debd35545980fa63ade1094e93_cgraph_org.svg" target="_base">
           <rect id="button" ry="5" rx="5" y="6" x="6" height="38" width="38"
                fill="#f2f5e9" fill-opacity="0.5" stroke="#606060" stroke-width="1.0"/>
           <path id="arrow"
             d="M 11.500037,31.436501 C 11.940474,20.09759 22.043105,11.32322 32.158766,21.979434 L 37.068811,17.246167 C 37.068811,17.246167 37.088388,32 37.088388,32 L 22.160133,31.978069 C 22.160133,31.978069 26.997745,27.140456 26.997745,27.140456 C 18.528582,18.264221 13.291696,25.230495 11.500037,31.436501 z"
             style="fill:#404040;"/>
          </a>
         </g>
        </svg>
</svg>
