<?xml version="1.0" encoding="UTF-8" standalone="no"?>
<!DOCTYPE svg PUBLIC "-//W3C//DTD SVG 1.1//EN"
 "http://www.w3.org/Graphics/SVG/1.1/DTD/svg11.dtd">
<!-- Generated by graphviz version 2.38.0 (20140413.2041)
 -->
<!-- Title: data_catalog_entry::getvalues_gridded_sub Pages: 1 -->
<svg width="711pt" height="142pt"
 viewBox="0.00 0.00 710.76 142.00" xmlns="http://www.w3.org/2000/svg" xmlns:xlink="http://www.w3.org/1999/xlink">
<g id="graph0" class="graph" transform="scale(1 1) rotate(0) translate(4 138)">
<title>data_catalog_entry::getvalues_gridded_sub</title>
<polygon fill="white" stroke="none" points="-4,4 -4,-138 706.761,-138 706.761,4 -4,4"/>
<!-- Node97 -->
<g id="node1" class="node"><title>Node97</title>
<polygon fill="#bfbfbf" stroke="black" points="0,-71 0,-101 135.867,-101 135.867,-71 0,-71"/>
<text text-anchor="start" x="8" y="-88.2" font-family="Helvetica,sans-Serif" font-size="11.00">data_catalog_entry</text>
<text text-anchor="middle" x="67.9333" y="-77.2" font-family="Helvetica,sans-Serif" font-size="11.00">::getvalues_gridded_sub</text>
</g>
<!-- Node98 -->
<g id="node2" class="node"><title>Node98</title>
<g id="a_node2"><a xlink:href="namespacegrid.html#adfcb9064d9b58a49eb61093cd4809a43" target="_top" xlink:title="grid::grid_destroy">
<polygon fill="white" stroke="black" points="183.487,-114.5 183.487,-133.5 284.474,-133.5 284.474,-114.5 183.487,-114.5"/>
<text text-anchor="middle" x="233.98" y="-120.7" font-family="Helvetica,sans-Serif" font-size="11.00">grid::grid_destroy</text>
</a>
</g>
</g>
<!-- Node97&#45;&gt;Node98 -->
<g id="edge1" class="edge"><title>Node97&#45;&gt;Node98</title>
<path fill="none" stroke="midnightblue" d="M133.769,-101.019C149.785,-104.728 166.716,-108.65 181.969,-112.184"/>
<polygon fill="midnightblue" stroke="midnightblue" points="181.192,-115.596 191.723,-114.443 182.771,-108.777 181.192,-115.596"/>
</g>
<!-- Node99 -->
<g id="node3" class="node"><title>Node99</title>
<g id="a_node3"><a xlink:href="namespacegrid.html#a6668cfaf4657e4e5ebc2d49d0cdbb204" target="_top" xlink:title="grid::grid_read">
<polygon fill="white" stroke="black" points="190.515,-76.5 190.515,-95.5 277.446,-95.5 277.446,-76.5 190.515,-76.5"/>
<text text-anchor="middle" x="233.98" y="-82.7" font-family="Helvetica,sans-Serif" font-size="11.00">grid::grid_read</text>
</a>
</g>
</g>
<!-- Node97&#45;&gt;Node99 -->
<g id="edge2" class="edge"><title>Node97&#45;&gt;Node99</title>
<path fill="none" stroke="midnightblue" d="M136.131,-86C150.656,-86 165.823,-86 179.727,-86"/>
<polygon fill="midnightblue" stroke="midnightblue" points="180.082,-89.5001 190.082,-86 180.082,-82.5001 180.082,-89.5001"/>
</g>
<!-- Node103 -->
<g id="node7" class="node"><title>Node103</title>
<g id="a_node7"><a xlink:href="namespacegrid.html#a82580ae20a6d538ff34ef5d2263bf679" target="_top" xlink:title="grid::grid_readexisting">
<polygon fill="white" stroke="black" points="171.867,-38.5 171.867,-57.5 296.094,-57.5 296.094,-38.5 171.867,-38.5"/>
<text text-anchor="middle" x="233.98" y="-44.7" font-family="Helvetica,sans-Serif" font-size="11.00">grid::grid_readexisting</text>
</a>
</g>
</g>
<!-- Node97&#45;&gt;Node103 -->
<g id="edge7" class="edge"><title>Node97&#45;&gt;Node103</title>
<path fill="none" stroke="midnightblue" d="M133.769,-70.9814C149.785,-67.2715 166.716,-63.3496 181.969,-59.8164"/>
<polygon fill="midnightblue" stroke="midnightblue" points="182.771,-63.2233 191.723,-57.5568 181.192,-56.4038 182.771,-63.2233"/>
</g>
<!-- Node100 -->
<g id="node4" class="node"><title>Node100</title>
<g id="a_node4"><a xlink:href="namespacegrid.html#a1244933daa130a43754e6e0b1f29a4ba" target="_top" xlink:title="grid::grid_readarcgrid_fn">
<polygon fill="white" stroke="black" points="342.793,-114.5 342.793,-133.5 478.639,-133.5 478.639,-114.5 342.793,-114.5"/>
<text text-anchor="middle" x="410.716" y="-120.7" font-family="Helvetica,sans-Serif" font-size="11.00">grid::grid_readarcgrid_fn</text>
</a>
</g>
</g>
<!-- Node99&#45;&gt;Node100 -->
<g id="edge3" class="edge"><title>Node99&#45;&gt;Node100</title>
<path fill="none" stroke="midnightblue" d="M277.726,-95.2958C301.258,-100.413 330.694,-106.815 355.793,-112.273"/>
<polygon fill="midnightblue" stroke="midnightblue" points="355.378,-115.765 365.893,-114.47 356.866,-108.925 355.378,-115.765"/>
</g>
<!-- Node102 -->
<g id="node6" class="node"><title>Node102</title>
<g id="a_node6"><a xlink:href="namespacegrid.html#ad5fd78ff423561891920ae052dc9ccf7" target="_top" xlink:title="grid::grid_readsurfergrid_fn">
<polygon fill="white" stroke="black" points="336.375,-76.5 336.375,-95.5 485.057,-95.5 485.057,-76.5 336.375,-76.5"/>
<text text-anchor="middle" x="410.716" y="-82.7" font-family="Helvetica,sans-Serif" font-size="11.00">grid::grid_readsurfergrid_fn</text>
</a>
</g>
</g>
<!-- Node99&#45;&gt;Node102 -->
<g id="edge5" class="edge"><title>Node99&#45;&gt;Node102</title>
<path fill="none" stroke="midnightblue" d="M277.726,-86C292.284,-86 309.103,-86 325.756,-86"/>
<polygon fill="midnightblue" stroke="midnightblue" points="326.081,-89.5001 336.081,-86 326.081,-82.5001 326.081,-89.5001"/>
</g>
<!-- Node101 -->
<g id="node5" class="node"><title>Node101</title>
<g id="a_node5"><a xlink:href="namespacegrid.html#a16412abb2c65185817c6fa21595b05aa" target="_top" xlink:title="grid::grid_checkintegergridvalues">
<polygon fill="white" stroke="black" points="525.338,-57.5 525.338,-76.5 702.761,-76.5 702.761,-57.5 525.338,-57.5"/>
<text text-anchor="middle" x="614.049" y="-63.7" font-family="Helvetica,sans-Serif" font-size="11.00">grid::grid_checkintegergridvalues</text>
</a>
</g>
</g>
<!-- Node100&#45;&gt;Node101 -->
<g id="edge4" class="edge"><title>Node100&#45;&gt;Node101</title>
<path fill="none" stroke="midnightblue" d="M452.519,-114.483C464.426,-111.579 477.434,-108.282 489.338,-105 517.893,-97.1266 549.847,-87.2847 574.126,-79.5898"/>
<polygon fill="midnightblue" stroke="midnightblue" points="575.228,-82.9118 583.695,-76.5422 573.104,-76.2419 575.228,-82.9118"/>
</g>
<!-- Node102&#45;&gt;Node101 -->
<g id="edge6" class="edge"><title>Node102&#45;&gt;Node101</title>
<path fill="none" stroke="midnightblue" d="M485.257,-79.0599C494.945,-78.1456 504.996,-77.1971 515.012,-76.2519"/>
<polygon fill="midnightblue" stroke="midnightblue" points="515.375,-79.7333 525.002,-75.3091 514.717,-72.7642 515.375,-79.7333"/>
</g>
<!-- Node104 -->
<g id="node8" class="node"><title>Node104</title>
<g id="a_node8"><a xlink:href="namespacegrid.html#ab5ebfcb683f5e36ffbcd331146c51af3" target="_top" xlink:title="grid::grid_readarcgrid_sub">
<polygon fill="white" stroke="black" points="338.513,-38.5 338.513,-57.5 482.919,-57.5 482.919,-38.5 338.513,-38.5"/>
<text text-anchor="middle" x="410.716" y="-44.7" font-family="Helvetica,sans-Serif" font-size="11.00">grid::grid_readarcgrid_sub</text>
</a>
</g>
</g>
<!-- Node103&#45;&gt;Node104 -->
<g id="edge8" class="edge"><title>Node103&#45;&gt;Node104</title>
<path fill="none" stroke="midnightblue" d="M296.095,-48C306.461,-48 317.372,-48 328.163,-48"/>
<polygon fill="midnightblue" stroke="midnightblue" points="328.451,-51.5001 338.451,-48 328.451,-44.5001 328.451,-51.5001"/>
</g>
<!-- Node105 -->
<g id="node9" class="node"><title>Node105</title>
<g id="a_node9"><a xlink:href="namespacegrid.html#aee74303d2cef81de66150af260d41814" target="_top" xlink:title="grid::grid_readsurfergrid_sub">
<polygon fill="white" stroke="black" points="332.094,-0.5 332.094,-19.5 489.338,-19.5 489.338,-0.5 332.094,-0.5"/>
<text text-anchor="middle" x="410.716" y="-6.7" font-family="Helvetica,sans-Serif" font-size="11.00">grid::grid_readsurfergrid_sub</text>
</a>
</g>
</g>
<!-- Node103&#45;&gt;Node105 -->
<g id="edge10" class="edge"><title>Node103&#45;&gt;Node105</title>
<path fill="none" stroke="midnightblue" d="M279.074,-38.411C302.443,-33.3287 331.34,-27.0446 356.009,-21.6797"/>
<polygon fill="midnightblue" stroke="midnightblue" points="356.912,-25.0652 365.94,-19.5201 355.425,-18.2251 356.912,-25.0652"/>
</g>
<!-- Node104&#45;&gt;Node101 -->
<g id="edge9" class="edge"><title>Node104&#45;&gt;Node101</title>
<path fill="none" stroke="midnightblue" d="M482.982,-54.7254C493.461,-55.7144 504.407,-56.7473 515.307,-57.7759"/>
<polygon fill="midnightblue" stroke="midnightblue" points="515.004,-61.2629 525.289,-58.718 515.662,-54.2938 515.004,-61.2629"/>
</g>
<!-- Node105&#45;&gt;Node101 -->
<g id="edge11" class="edge"><title>Node105&#45;&gt;Node101</title>
<path fill="none" stroke="midnightblue" d="M452.519,-19.5174C464.426,-22.4215 477.434,-25.7179 489.338,-29 517.893,-36.8734 549.847,-46.7153 574.126,-54.4102"/>
<polygon fill="midnightblue" stroke="midnightblue" points="573.104,-57.7581 583.695,-57.4578 575.228,-51.0882 573.104,-57.7581"/>
</g>
</g>
</svg>
