<?xml version="1.0" encoding="UTF-8" standalone="no"?>
<!DOCTYPE svg PUBLIC "-//W3C//DTD SVG 1.1//EN"
 "http://www.w3.org/Graphics/SVG/1.1/DTD/svg11.dtd">
<!-- Generated by graphviz version 2.38.0 (20140413.2041)
 -->
<!-- Title: netcdf4_support::nf_define_dimensions Pages: 1 -->
<svg width="481pt" height="39pt"
 viewBox="0.00 0.00 481.46 39.00" xmlns="http://www.w3.org/2000/svg" xmlns:xlink="http://www.w3.org/1999/xlink">
<g id="graph0" class="graph" transform="scale(1 1) rotate(0) translate(4 35)">
<title>netcdf4_support::nf_define_dimensions</title>
<polygon fill="white" stroke="none" points="-4,4 -4,-35 477.461,-35 477.461,4 -4,4"/>
<!-- Node610 -->
<g id="node1" class="node"><title>Node610</title>
<polygon fill="#bfbfbf" stroke="black" points="0,-0.5 0,-30.5 113.845,-30.5 113.845,-0.5 0,-0.5"/>
<text text-anchor="start" x="8" y="-17.7" font-family="Helvetica,sans-Serif" font-size="11.00">netcdf4_support::nf</text>
<text text-anchor="middle" x="56.9226" y="-6.7" font-family="Helvetica,sans-Serif" font-size="11.00">_define_dimensions</text>
</g>
<!-- Node611 -->
<g id="node2" class="node"><title>Node611</title>
<g id="a_node2"><a xlink:href="namespacenetcdf4__support.html#ac8c7276a5849ae6d17ffef1787e3f234" target="_top" xlink:title="netcdf4_support::nf_trap">
<polygon fill="white" stroke="black" points="149.845,-6 149.845,-25 285.094,-25 285.094,-6 149.845,-6"/>
<text text-anchor="middle" x="217.47" y="-12.2" font-family="Helvetica,sans-Serif" font-size="11.00">netcdf4_support::nf_trap</text>
</a>
</g>
</g>
<!-- Node610&#45;&gt;Node611 -->
<g id="edge1" class="edge"><title>Node610&#45;&gt;Node611</title>
<path fill="none" stroke="midnightblue" d="M114.267,-15.5C122.519,-15.5 131.135,-15.5 139.711,-15.5"/>
<polygon fill="midnightblue" stroke="midnightblue" points="139.736,-19.0001 149.736,-15.5 139.736,-12.0001 139.736,-19.0001"/>
</g>
<!-- Node612 -->
<g id="node3" class="node"><title>Node612</title>
<g id="a_node3"><a xlink:href="namespaceconstants__and__conversions.html#ac13fba285229deab77131132e6f62caf" target="_top" xlink:title="constants_and_conversions\l::char_ptr_to_fortran_string">
<polygon fill="white" stroke="black" points="321.094,-0.5 321.094,-30.5 473.461,-30.5 473.461,-0.5 321.094,-0.5"/>
<text text-anchor="start" x="329.094" y="-17.7" font-family="Helvetica,sans-Serif" font-size="11.00">constants_and_conversions</text>
<text text-anchor="middle" x="397.278" y="-6.7" font-family="Helvetica,sans-Serif" font-size="11.00">::char_ptr_to_fortran_string</text>
</a>
</g>
</g>
<!-- Node611&#45;&gt;Node612 -->
<g id="edge2" class="edge"><title>Node611&#45;&gt;Node612</title>
<path fill="none" stroke="midnightblue" d="M285.185,-15.5C293.542,-15.5 302.179,-15.5 310.774,-15.5"/>
<polygon fill="midnightblue" stroke="midnightblue" points="310.825,-19.0001 320.825,-15.5 310.825,-12.0001 310.825,-19.0001"/>
</g>
</g>
</svg>
