<?xml version="1.0" encoding="UTF-8" standalone="no"?>
<!DOCTYPE svg PUBLIC "-//W3C//DTD SVG 1.1//EN"
 "http://www.w3.org/Graphics/SVG/1.1/DTD/svg11.dtd">
<!-- Generated by graphviz version 2.38.0 (20140413.2041)
 -->
<!-- Title: output::initialize_output Pages: 1 -->
<svg width="365pt" height="39pt"
 viewBox="0.00 0.00 365.24 39.00" xmlns="http://www.w3.org/2000/svg" xmlns:xlink="http://www.w3.org/1999/xlink">
<g id="graph0" class="graph" transform="scale(1 1) rotate(0) translate(4 35)">
<title>output::initialize_output</title>
<polygon fill="white" stroke="none" points="-4,4 -4,-35 361.236,-35 361.236,4 -4,4"/>
<!-- Node1 -->
<g id="node1" class="node"><title>Node1</title>
<polygon fill="#bfbfbf" stroke="black" points="0,-0.5 0,-30.5 91.8237,-30.5 91.8237,-0.5 0,-0.5"/>
<text text-anchor="start" x="8" y="-17.7" font-family="Helvetica,sans-Serif" font-size="11.00">output::initialize</text>
<text text-anchor="middle" x="45.9119" y="-6.7" font-family="Helvetica,sans-Serif" font-size="11.00">_output</text>
</g>
<!-- Node2 -->
<g id="node2" class="node"><title>Node2</title>
<g id="a_node2"><a xlink:href="namespacemodel__initialize.html#a46370bf2e9ea112d1f219277ba7fd3ce" target="_top" xlink:title="model_initialize::initialize_all">
<polygon fill="white" stroke="black" points="127.824,-6 127.824,-25 281.394,-25 281.394,-6 127.824,-6"/>
<text text-anchor="middle" x="204.609" y="-12.2" font-family="Helvetica,sans-Serif" font-size="11.00">model_initialize::initialize_all</text>
</a>
</g>
</g>
<!-- Node1&#45;&gt;Node2 -->
<g id="edge1" class="edge"><title>Node1&#45;&gt;Node2</title>
<path fill="none" stroke="midnightblue" d="M102.393,-15.5C110.592,-15.5 119.156,-15.5 127.683,-15.5"/>
<polygon fill="midnightblue" stroke="midnightblue" points="102.235,-12.0001 92.2351,-15.5 102.235,-19.0001 102.235,-12.0001"/>
</g>
<!-- Node3 -->
<g id="node3" class="node"><title>Node3</title>
<g id="a_node3"><a xlink:href="main_8F90.html#a8ec2266d83cd6c0b762cbcbc92c0af3d" target="_top" xlink:title="Main program which references all other modules; execution begins here. ">
<polygon fill="white" stroke="black" points="317.394,-6 317.394,-25 357.236,-25 357.236,-6 317.394,-6"/>
<text text-anchor="middle" x="337.315" y="-12.2" font-family="Helvetica,sans-Serif" font-size="11.00">main</text>
</a>
</g>
</g>
<!-- Node2&#45;&gt;Node3 -->
<g id="edge2" class="edge"><title>Node2&#45;&gt;Node3</title>
<path fill="none" stroke="midnightblue" d="M291.733,-15.5C301.228,-15.5 310.07,-15.5 317.335,-15.5"/>
<polygon fill="midnightblue" stroke="midnightblue" points="291.641,-12.0001 281.641,-15.5 291.641,-19.0001 291.641,-12.0001"/>
</g>
</g>
</svg>
