<?xml version="1.0" encoding="UTF-8" standalone="no"?>
<!DOCTYPE svg PUBLIC "-//W3C//DTD SVG 1.1//EN"
 "http://www.w3.org/Graphics/SVG/1.1/DTD/svg11.dtd">
<!-- Generated by graphviz version 2.38.0 (20140413.2041)
 -->
<!-- Title: netcdf4_support::nf_populate_attribute_struct Pages: 1 -->
<svg width="837pt" height="157pt"
 viewBox="0.00 0.00 837.46 157.00" xmlns="http://www.w3.org/2000/svg" xmlns:xlink="http://www.w3.org/1999/xlink">
<g id="graph0" class="graph" transform="scale(1 1) rotate(0) translate(4 153)">
<title>netcdf4_support::nf_populate_attribute_struct</title>
<polygon fill="white" stroke="none" points="-4,4 -4,-153 833.457,-153 833.457,4 -4,4"/>
<!-- Node330 -->
<g id="node1" class="node"><title>Node330</title>
<polygon fill="#bfbfbf" stroke="black" points="0,-55.5 0,-96.5 110.188,-96.5 110.188,-55.5 0,-55.5"/>
<text text-anchor="start" x="8" y="-83.7" font-family="Helvetica,sans-Serif" font-size="11.00">netcdf4_support::nf</text>
<text text-anchor="start" x="8" y="-72.7" font-family="Helvetica,sans-Serif" font-size="11.00">_populate_attribute</text>
<text text-anchor="middle" x="55.0938" y="-61.7" font-family="Helvetica,sans-Serif" font-size="11.00">_struct</text>
</g>
<!-- Node331 -->
<g id="node2" class="node"><title>Node331</title>
<g id="a_node2"><a xlink:href="namespacenetcdf4__support.html#a714886913deafdad6415f01eaab9bf39" target="_top" xlink:title="netcdf4_support::nf\l_populate_variable_struct">
<polygon fill="white" stroke="black" points="146.188,-61 146.188,-91 288.161,-91 288.161,-61 146.188,-61"/>
<text text-anchor="start" x="154.188" y="-78.2" font-family="Helvetica,sans-Serif" font-size="11.00">netcdf4_support::nf</text>
<text text-anchor="middle" x="217.174" y="-67.2" font-family="Helvetica,sans-Serif" font-size="11.00">_populate_variable_struct</text>
</a>
</g>
</g>
<!-- Node330&#45;&gt;Node331 -->
<g id="edge1" class="edge"><title>Node330&#45;&gt;Node331</title>
<path fill="none" stroke="midnightblue" d="M120.453,-76C128.906,-76 137.601,-76 146.143,-76"/>
<polygon fill="midnightblue" stroke="midnightblue" points="120.29,-72.5001 110.29,-76 120.29,-79.5001 120.29,-72.5001"/>
</g>
<!-- Node332 -->
<g id="node3" class="node"><title>Node332</title>
<g id="a_node3"><a xlink:href="namespacenetcdf4__support.html#a6d3d402059d71a8bd24a01dc6116ff7d" target="_top" xlink:title="netcdf4_support::netcdf\l_open_and_prepare_as_input">
<polygon fill="white" stroke="black" points="324.161,-61 324.161,-91 486.958,-91 486.958,-61 324.161,-61"/>
<text text-anchor="start" x="332.161" y="-78.2" font-family="Helvetica,sans-Serif" font-size="11.00">netcdf4_support::netcdf</text>
<text text-anchor="middle" x="405.56" y="-67.2" font-family="Helvetica,sans-Serif" font-size="11.00">_open_and_prepare_as_input</text>
</a>
</g>
</g>
<!-- Node331&#45;&gt;Node332 -->
<g id="edge2" class="edge"><title>Node331&#45;&gt;Node332</title>
<path fill="none" stroke="midnightblue" d="M298.594,-76C307.048,-76 315.644,-76 324.098,-76"/>
<polygon fill="midnightblue" stroke="midnightblue" points="298.373,-72.5001 288.373,-76 298.373,-79.5001 298.373,-72.5001"/>
</g>
<!-- Node336 -->
<g id="node7" class="node"><title>Node336</title>
<g id="a_node7"><a xlink:href="namespacenetcdf4__support.html#a8be734b602e654816c17b5e27d0fbffb" target="_top" xlink:title="netcdf4_support::netcdf\l_open_and_prepare_for\l_merging">
<polygon fill="white" stroke="black" points="338.537,-0.5 338.537,-41.5 472.583,-41.5 472.583,-0.5 338.537,-0.5"/>
<text text-anchor="start" x="346.537" y="-28.7" font-family="Helvetica,sans-Serif" font-size="11.00">netcdf4_support::netcdf</text>
<text text-anchor="start" x="346.537" y="-17.7" font-family="Helvetica,sans-Serif" font-size="11.00">_open_and_prepare_for</text>
<text text-anchor="middle" x="405.56" y="-6.7" font-family="Helvetica,sans-Serif" font-size="11.00">_merging</text>
</a>
</g>
</g>
<!-- Node331&#45;&gt;Node336 -->
<g id="edge7" class="edge"><title>Node331&#45;&gt;Node336</title>
<path fill="none" stroke="midnightblue" d="M278.837,-58.0994C297.844,-52.4905 318.916,-46.2725 338.29,-40.5555"/>
<polygon fill="midnightblue" stroke="midnightblue" points="277.706,-54.7838 269.105,-60.971 279.687,-61.4976 277.706,-54.7838"/>
</g>
<!-- Node337 -->
<g id="node8" class="node"><title>Node337</title>
<g id="a_node8"><a xlink:href="namespacenetcdf4__support.html#a7b3b3cf3aab614eb336e12694c5d76ef" target="_top" xlink:title="netcdf4_support::netcdf\l_open_file">
<polygon fill="white" stroke="black" points="340.076,-110 340.076,-140 471.044,-140 471.044,-110 340.076,-110"/>
<text text-anchor="start" x="348.076" y="-127.2" font-family="Helvetica,sans-Serif" font-size="11.00">netcdf4_support::netcdf</text>
<text text-anchor="middle" x="405.56" y="-116.2" font-family="Helvetica,sans-Serif" font-size="11.00">_open_file</text>
</a>
</g>
</g>
<!-- Node331&#45;&gt;Node337 -->
<g id="edge8" class="edge"><title>Node331&#45;&gt;Node337</title>
<path fill="none" stroke="midnightblue" d="M285.208,-93.6229C305.599,-98.9837 327.809,-104.823 347.479,-109.994"/>
<polygon fill="midnightblue" stroke="midnightblue" points="285.924,-90.1923 275.363,-91.0346 284.144,-96.9622 285.924,-90.1923"/>
</g>
<!-- Node333 -->
<g id="node4" class="node"><title>Node333</title>
<g id="a_node4"><a xlink:href="namespacedata__catalog__entry.html#aeb285131f87ed64deba0a9041a9c6405" target="_top" xlink:title="data_catalog_entry\l::getvalues_dynamic\l_netcdf_sub">
<polygon fill="white" stroke="black" points="545.283,-107.5 545.283,-148.5 661.562,-148.5 661.562,-107.5 545.283,-107.5"/>
<text text-anchor="start" x="553.283" y="-135.7" font-family="Helvetica,sans-Serif" font-size="11.00">data_catalog_entry</text>
<text text-anchor="start" x="553.283" y="-124.7" font-family="Helvetica,sans-Serif" font-size="11.00">::getvalues_dynamic</text>
<text text-anchor="middle" x="603.423" y="-113.7" font-family="Helvetica,sans-Serif" font-size="11.00">_netcdf_sub</text>
</a>
</g>
</g>
<!-- Node332&#45;&gt;Node333 -->
<g id="edge3" class="edge"><title>Node332&#45;&gt;Node333</title>
<path fill="none" stroke="midnightblue" d="M473.072,-93.6584C496.505,-99.8797 522.623,-106.814 545.22,-112.813"/>
<polygon fill="midnightblue" stroke="midnightblue" points="473.775,-90.2238 463.211,-91.0406 471.978,-96.9895 473.775,-90.2238"/>
</g>
<!-- Node335 -->
<g id="node6" class="node"><title>Node335</title>
<g id="a_node6"><a xlink:href="namespacedata__catalog__entry.html#ac3e1f0d9d9e146fbb77c0084e1e9fc14" target="_top" xlink:title="data_catalog_entry\l::getvalues_static_netcdf_sub">
<polygon fill="white" stroke="black" points="522.958,-58 522.958,-88 683.887,-88 683.887,-58 522.958,-58"/>
<text text-anchor="start" x="530.958" y="-75.2" font-family="Helvetica,sans-Serif" font-size="11.00">data_catalog_entry</text>
<text text-anchor="middle" x="603.423" y="-64.2" font-family="Helvetica,sans-Serif" font-size="11.00">::getvalues_static_netcdf_sub</text>
</a>
</g>
</g>
<!-- Node332&#45;&gt;Node335 -->
<g id="edge5" class="edge"><title>Node332&#45;&gt;Node335</title>
<path fill="none" stroke="midnightblue" d="M497.11,-74.6131C505.705,-74.4814 514.375,-74.3486 522.855,-74.2187"/>
<polygon fill="midnightblue" stroke="midnightblue" points="497.018,-71.114 487.073,-74.7668 497.125,-78.1131 497.018,-71.114"/>
</g>
<!-- Node334 -->
<g id="node5" class="node"><title>Node334</title>
<g id="a_node5"><a xlink:href="namespacedata__catalog__entry.html#a9e0a89ab19a5bfd61f2dfb8265648234" target="_top" xlink:title="data_catalog_entry\l::getvalues_sub">
<polygon fill="white" stroke="black" points="719.887,-85 719.887,-115 829.457,-115 829.457,-85 719.887,-85"/>
<text text-anchor="start" x="727.887" y="-102.2" font-family="Helvetica,sans-Serif" font-size="11.00">data_catalog_entry</text>
<text text-anchor="middle" x="774.672" y="-91.2" font-family="Helvetica,sans-Serif" font-size="11.00">::getvalues_sub</text>
</a>
</g>
</g>
<!-- Node333&#45;&gt;Node334 -->
<g id="edge4" class="edge"><title>Node333&#45;&gt;Node334</title>
<path fill="none" stroke="midnightblue" d="M672.025,-116.816C687.924,-114.186 704.659,-111.417 719.859,-108.903"/>
<polygon fill="midnightblue" stroke="midnightblue" points="671.017,-113.435 661.723,-118.52 672.16,-120.341 671.017,-113.435"/>
</g>
<!-- Node335&#45;&gt;Node334 -->
<g id="edge6" class="edge"><title>Node335&#45;&gt;Node334</title>
<path fill="none" stroke="midnightblue" d="M694.229,-87.3267C702.855,-88.7028 711.409,-90.0674 719.531,-91.3631"/>
<polygon fill="midnightblue" stroke="midnightblue" points="694.518,-83.8285 684.091,-85.7094 693.415,-90.7411 694.518,-83.8285"/>
</g>
<!-- Node337&#45;&gt;Node333 -->
<g id="edge9" class="edge"><title>Node337&#45;&gt;Node333</title>
<path fill="none" stroke="midnightblue" d="M481.454,-126.147C502.554,-126.47 525.167,-126.817 545.065,-127.121"/>
<polygon fill="midnightblue" stroke="midnightblue" points="481.288,-122.644 471.235,-125.991 481.181,-129.643 481.288,-122.644"/>
</g>
<!-- Node337&#45;&gt;Node335 -->
<g id="edge10" class="edge"><title>Node337&#45;&gt;Node335</title>
<path fill="none" stroke="midnightblue" d="M473.16,-107.318C496.805,-101.041 523.175,-94.0397 545.898,-88.0068"/>
<polygon fill="midnightblue" stroke="midnightblue" points="471.978,-104.011 463.211,-109.959 473.775,-110.776 471.978,-104.011"/>
</g>
</g>
</svg>
