<?xml version="1.0" encoding="UTF-8" standalone="no"?>
<!DOCTYPE svg PUBLIC "-//W3C//DTD SVG 1.1//EN"
 "http://www.w3.org/Graphics/SVG/1.1/DTD/svg11.dtd">
<!-- Generated by graphviz version 2.38.0 (20140413.2041)
 -->
<!-- Title: runoff__gridded_values::read_runoff_ratio_table Pages: 1 -->
<svg width="672pt" height="50pt"
 viewBox="0.00 0.00 672.31 50.00" xmlns="http://www.w3.org/2000/svg" xmlns:xlink="http://www.w3.org/1999/xlink">
<g id="graph0" class="graph" transform="scale(1 1) rotate(0) translate(4 46)">
<title>runoff__gridded_values::read_runoff_ratio_table</title>
<polygon fill="white" stroke="none" points="-4,4 -4,-46 668.309,-46 668.309,4 -4,4"/>
<!-- Node1 -->
<g id="node1" class="node"><title>Node1</title>
<polygon fill="#bfbfbf" stroke="black" points="0,-6 0,-36 135.668,-36 135.668,-6 0,-6"/>
<text text-anchor="start" x="8" y="-23.2" font-family="Helvetica,sans-Serif" font-size="11.00">runoff__gridded_values</text>
<text text-anchor="middle" x="67.834" y="-12.2" font-family="Helvetica,sans-Serif" font-size="11.00">::read_runoff_ratio_table</text>
</g>
<!-- Node2 -->
<g id="node2" class="node"><title>Node2</title>
<g id="a_node2"><a xlink:href="namespacerunoff____gridded__values.html#a3ac2987bbbdf8952bfb1457cad017b28" target="_top" xlink:title="Initialize the infiltration grid. ">
<polygon fill="white" stroke="black" points="171.668,-0.5 171.668,-41.5 302.448,-41.5 302.448,-0.5 171.668,-0.5"/>
<text text-anchor="start" x="179.668" y="-28.7" font-family="Helvetica,sans-Serif" font-size="11.00">runoff__gridded_values</text>
<text text-anchor="start" x="179.668" y="-17.7" font-family="Helvetica,sans-Serif" font-size="11.00">::runoff_gridded_values</text>
<text text-anchor="middle" x="237.058" y="-6.7" font-family="Helvetica,sans-Serif" font-size="11.00">_initialize</text>
</a>
</g>
</g>
<!-- Node1&#45;&gt;Node2 -->
<g id="edge1" class="edge"><title>Node1&#45;&gt;Node2</title>
<path fill="none" stroke="midnightblue" d="M146.142,-21C154.603,-21 163.151,-21 171.437,-21"/>
<polygon fill="midnightblue" stroke="midnightblue" points="145.887,-17.5001 135.887,-21 145.887,-24.5001 145.887,-17.5001"/>
</g>
<!-- Node3 -->
<g id="node3" class="node"><title>Node3</title>
<g id="a_node3"><a xlink:href="namespacemodel__domain.html#a88a992fcd1bcf220cdba23ee7f6db209" target="_top" xlink:title="model_domain::model\l_initialize_runoff_gridded\l_values">
<polygon fill="white" stroke="black" points="338.448,-0.5 338.448,-41.5 476.56,-41.5 476.56,-0.5 338.448,-0.5"/>
<text text-anchor="start" x="346.448" y="-28.7" font-family="Helvetica,sans-Serif" font-size="11.00">model_domain::model</text>
<text text-anchor="start" x="346.448" y="-17.7" font-family="Helvetica,sans-Serif" font-size="11.00">_initialize_runoff_gridded</text>
<text text-anchor="middle" x="407.504" y="-6.7" font-family="Helvetica,sans-Serif" font-size="11.00">_values</text>
</a>
</g>
</g>
<!-- Node2&#45;&gt;Node3 -->
<g id="edge2" class="edge"><title>Node2&#45;&gt;Node3</title>
<path fill="none" stroke="midnightblue" d="M312.95,-21C321.422,-21 330.022,-21 338.4,-21"/>
<polygon fill="midnightblue" stroke="midnightblue" points="312.702,-17.5001 302.702,-21 312.702,-24.5001 312.702,-17.5001"/>
</g>
<!-- Node4 -->
<g id="node4" class="node"><title>Node4</title>
<g id="a_node4"><a xlink:href="namespacemodel__domain.html#aac78dbf26ba37cf86ebed4edd7acf89b" target="_top" xlink:title="model_domain::set_method\l_pointers_sub">
<polygon fill="white" stroke="black" points="512.56,-6 512.56,-36 664.309,-36 664.309,-6 512.56,-6"/>
<text text-anchor="start" x="520.56" y="-23.2" font-family="Helvetica,sans-Serif" font-size="11.00">model_domain::set_method</text>
<text text-anchor="middle" x="588.435" y="-12.2" font-family="Helvetica,sans-Serif" font-size="11.00">_pointers_sub</text>
</a>
</g>
</g>
<!-- Node3&#45;&gt;Node4 -->
<g id="edge3" class="edge"><title>Node3&#45;&gt;Node4</title>
<path fill="none" stroke="midnightblue" d="M486.874,-21C495.319,-21 503.898,-21 512.303,-21"/>
<polygon fill="midnightblue" stroke="midnightblue" points="486.661,-17.5001 476.661,-21 486.66,-24.5001 486.661,-17.5001"/>
</g>
</g>
</svg>
