<?xml version="1.0" encoding="UTF-8" standalone="no"?>
<!DOCTYPE svg PUBLIC "-//W3C//DTD SVG 1.1//EN"
 "http://www.w3.org/Graphics/SVG/1.1/DTD/svg11.dtd">
<!-- Generated by graphviz version 2.38.0 (20140413.2041)
 -->
<!-- Title: netcdf4_support::nf_get_variable_slice_short Pages: 1 -->
<svg width="658pt" height="100pt"
 viewBox="0.00 0.00 658.21 99.50" xmlns="http://www.w3.org/2000/svg" xmlns:xlink="http://www.w3.org/1999/xlink">
<g id="graph0" class="graph" transform="scale(1 1) rotate(0) translate(4 95.5)">
<title>netcdf4_support::nf_get_variable_slice_short</title>
<polygon fill="white" stroke="none" points="-4,4 -4,-95.5 654.21,-95.5 654.21,4 -4,4"/>
<!-- Node1 -->
<g id="node1" class="node"><title>Node1</title>
<polygon fill="#bfbfbf" stroke="black" points="0,-27.5 0,-57.5 140.744,-57.5 140.744,-27.5 0,-27.5"/>
<text text-anchor="start" x="8" y="-44.7" font-family="Helvetica,sans-Serif" font-size="11.00">netcdf4_support::nf</text>
<text text-anchor="middle" x="70.3718" y="-33.7" font-family="Helvetica,sans-Serif" font-size="11.00">_get_variable_slice_short</text>
</g>
<!-- Node2 -->
<g id="node2" class="node"><title>Node2</title>
<g id="a_node2"><a xlink:href="namespacenetcdf4__support.html#a997d4ec63d37cb56378ab434c9b3075b" target="_top" xlink:title="netcdf4_support::netcdf\l_get_variable_slice">
<polygon fill="white" stroke="black" points="176.744,-27.5 176.744,-57.5 307.712,-57.5 307.712,-27.5 176.744,-27.5"/>
<text text-anchor="start" x="184.744" y="-44.7" font-family="Helvetica,sans-Serif" font-size="11.00">netcdf4_support::netcdf</text>
<text text-anchor="middle" x="242.228" y="-33.7" font-family="Helvetica,sans-Serif" font-size="11.00">_get_variable_slice</text>
</a>
</g>
</g>
<!-- Node1&#45;&gt;Node2 -->
<g id="edge1" class="edge"><title>Node1&#45;&gt;Node2</title>
<path fill="none" stroke="midnightblue" d="M150.997,-42.5C159.603,-42.5 168.282,-42.5 176.679,-42.5"/>
<polygon fill="midnightblue" stroke="midnightblue" points="150.949,-39.0001 140.949,-42.5 150.949,-46.0001 150.949,-39.0001"/>
</g>
<!-- Node3 -->
<g id="node3" class="node"><title>Node3</title>
<g id="a_node3"><a xlink:href="namespacedata__catalog__entry.html#aeb285131f87ed64deba0a9041a9c6405" target="_top" xlink:title="data_catalog_entry\l::getvalues_dynamic\l_netcdf_sub">
<polygon fill="white" stroke="black" points="366.037,-50 366.037,-91 482.315,-91 482.315,-50 366.037,-50"/>
<text text-anchor="start" x="374.037" y="-78.2" font-family="Helvetica,sans-Serif" font-size="11.00">data_catalog_entry</text>
<text text-anchor="start" x="374.037" y="-67.2" font-family="Helvetica,sans-Serif" font-size="11.00">::getvalues_dynamic</text>
<text text-anchor="middle" x="424.176" y="-56.2" font-family="Helvetica,sans-Serif" font-size="11.00">_netcdf_sub</text>
</a>
</g>
</g>
<!-- Node2&#45;&gt;Node3 -->
<g id="edge2" class="edge"><title>Node2&#45;&gt;Node3</title>
<path fill="none" stroke="midnightblue" d="M317.832,-54.1084C333.89,-56.607 350.621,-59.2105 365.897,-61.5874"/>
<polygon fill="midnightblue" stroke="midnightblue" points="318.358,-50.6483 307.939,-52.5691 317.282,-57.5651 318.358,-50.6483"/>
</g>
<!-- Node5 -->
<g id="node5" class="node"><title>Node5</title>
<g id="a_node5"><a xlink:href="namespacedata__catalog__entry.html#ac3e1f0d9d9e146fbb77c0084e1e9fc14" target="_top" xlink:title="data_catalog_entry\l::getvalues_static_netcdf_sub">
<polygon fill="white" stroke="black" points="343.712,-0.5 343.712,-30.5 504.64,-30.5 504.64,-0.5 343.712,-0.5"/>
<text text-anchor="start" x="351.712" y="-17.7" font-family="Helvetica,sans-Serif" font-size="11.00">data_catalog_entry</text>
<text text-anchor="middle" x="424.176" y="-6.7" font-family="Helvetica,sans-Serif" font-size="11.00">::getvalues_static_netcdf_sub</text>
</a>
</g>
</g>
<!-- Node2&#45;&gt;Node5 -->
<g id="edge4" class="edge"><title>Node2&#45;&gt;Node5</title>
<path fill="none" stroke="midnightblue" d="M317.841,-31.3048C326.367,-30.0256 335.082,-28.7179 343.669,-27.4296"/>
<polygon fill="midnightblue" stroke="midnightblue" points="317.309,-27.8454 307.939,-32.7905 318.348,-34.7679 317.309,-27.8454"/>
</g>
<!-- Node4 -->
<g id="node4" class="node"><title>Node4</title>
<g id="a_node4"><a xlink:href="namespacedata__catalog__entry.html#a9e0a89ab19a5bfd61f2dfb8265648234" target="_top" xlink:title="data_catalog_entry\l::getvalues_sub">
<polygon fill="white" stroke="black" points="540.64,-27.5 540.64,-57.5 650.21,-57.5 650.21,-27.5 540.64,-27.5"/>
<text text-anchor="start" x="548.64" y="-44.7" font-family="Helvetica,sans-Serif" font-size="11.00">data_catalog_entry</text>
<text text-anchor="middle" x="595.425" y="-33.7" font-family="Helvetica,sans-Serif" font-size="11.00">::getvalues_sub</text>
</a>
</g>
</g>
<!-- Node3&#45;&gt;Node4 -->
<g id="edge3" class="edge"><title>Node3&#45;&gt;Node4</title>
<path fill="none" stroke="midnightblue" d="M492.779,-59.3161C508.678,-56.6858 525.413,-53.9172 540.612,-51.4027"/>
<polygon fill="midnightblue" stroke="midnightblue" points="491.771,-55.9351 482.476,-61.0205 492.913,-62.8413 491.771,-55.9351"/>
</g>
<!-- Node5&#45;&gt;Node4 -->
<g id="edge5" class="edge"><title>Node5&#45;&gt;Node4</title>
<path fill="none" stroke="midnightblue" d="M514.982,-29.8267C523.609,-31.2028 532.163,-32.5674 540.284,-33.8631"/>
<polygon fill="midnightblue" stroke="midnightblue" points="515.271,-26.3285 504.845,-28.2094 514.168,-33.2411 515.271,-26.3285"/>
</g>
</g>
</svg>
