<?xml version="1.0" encoding="UTF-8" standalone="no"?>
<!DOCTYPE svg PUBLIC "-//W3C//DTD SVG 1.1//EN"
 "http://www.w3.org/Graphics/SVG/1.1/DTD/svg11.dtd">
<!-- Generated by graphviz version 2.38.0 (20140413.2041)
 -->
<!-- Title: model_initialize::initialize_start_and_end_dates Pages: 1 -->
<svg width="410pt" height="39pt"
 viewBox="0.00 0.00 409.86 39.00" xmlns="http://www.w3.org/2000/svg" xmlns:xlink="http://www.w3.org/1999/xlink">
<g id="graph0" class="graph" transform="scale(1 1) rotate(0) translate(4 35)">
<title>model_initialize::initialize_start_and_end_dates</title>
<polygon fill="white" stroke="none" points="-4,4 -4,-35 405.859,-35 405.859,4 -4,4"/>
<!-- Node160 -->
<g id="node1" class="node"><title>Node160</title>
<polygon fill="#bfbfbf" stroke="black" points="0,-0.5 0,-30.5 136.447,-30.5 136.447,-0.5 0,-0.5"/>
<text text-anchor="start" x="8" y="-17.7" font-family="Helvetica,sans-Serif" font-size="11.00">model_initialize::initialize</text>
<text text-anchor="middle" x="68.2234" y="-6.7" font-family="Helvetica,sans-Serif" font-size="11.00">_start_and_end_dates</text>
</g>
<!-- Node161 -->
<g id="node2" class="node"><title>Node161</title>
<g id="a_node2"><a xlink:href="namespacemodel__initialize.html#a46370bf2e9ea112d1f219277ba7fd3ce" target="_top" xlink:title="model_initialize::initialize_all">
<polygon fill="white" stroke="black" points="172.447,-6 172.447,-25 326.017,-25 326.017,-6 172.447,-6"/>
<text text-anchor="middle" x="249.232" y="-12.2" font-family="Helvetica,sans-Serif" font-size="11.00">model_initialize::initialize_all</text>
</a>
</g>
</g>
<!-- Node160&#45;&gt;Node161 -->
<g id="edge1" class="edge"><title>Node160&#45;&gt;Node161</title>
<path fill="none" stroke="midnightblue" d="M146.811,-15.5C155.221,-15.5 163.775,-15.5 172.167,-15.5"/>
<polygon fill="midnightblue" stroke="midnightblue" points="146.644,-12.0001 136.644,-15.5 146.644,-19.0001 146.644,-12.0001"/>
</g>
<!-- Node162 -->
<g id="node3" class="node"><title>Node162</title>
<g id="a_node3"><a xlink:href="main_8F90.html#a8ec2266d83cd6c0b762cbcbc92c0af3d" target="_top" xlink:title="Main program which references all other modules; execution begins here. ">
<polygon fill="white" stroke="black" points="362.017,-6 362.017,-25 401.859,-25 401.859,-6 362.017,-6"/>
<text text-anchor="middle" x="381.938" y="-12.2" font-family="Helvetica,sans-Serif" font-size="11.00">main</text>
</a>
</g>
</g>
<!-- Node161&#45;&gt;Node162 -->
<g id="edge2" class="edge"><title>Node161&#45;&gt;Node162</title>
<path fill="none" stroke="midnightblue" d="M336.356,-15.5C345.851,-15.5 354.693,-15.5 361.958,-15.5"/>
<polygon fill="midnightblue" stroke="midnightblue" points="336.264,-12.0001 326.264,-15.5 336.264,-19.0001 336.264,-12.0001"/>
</g>
</g>
</svg>
