<?xml version="1.0" encoding="UTF-8" standalone="no"?>
<!DOCTYPE svg PUBLIC "-//W3C//DTD SVG 1.1//EN"
 "http://www.w3.org/Graphics/SVG/1.1/DTD/svg11.dtd">
<!-- Generated by graphviz version 2.38.0 (20140413.2041)
 -->
<!-- Title: actual_et__thornthwaite_mather_eqns::thornthwaite_mather_soil_moisture Pages: 1 -->
<svg width="708pt" height="61pt"
 viewBox="0.00 0.00 708.33 61.00" xmlns="http://www.w3.org/2000/svg" xmlns:xlink="http://www.w3.org/1999/xlink">
<g id="graph0" class="graph" transform="scale(1 1) rotate(0) translate(4 57)">
<title>actual_et__thornthwaite_mather_eqns::thornthwaite_mather_soil_moisture</title>
<polygon fill="white" stroke="none" points="-4,4 -4,-57 704.328,-57 704.328,4 -4,4"/>
<!-- Node6 -->
<g id="node1" class="node"><title>Node6</title>
<polygon fill="#bfbfbf" stroke="black" points="0,-6 0,-47 152.361,-47 152.361,-6 0,-6"/>
<text text-anchor="start" x="8" y="-34.2" font-family="Helvetica,sans-Serif" font-size="11.00">actual_et__thornthwaite</text>
<text text-anchor="start" x="8" y="-23.2" font-family="Helvetica,sans-Serif" font-size="11.00">_mather_eqns::thornthwaite</text>
<text text-anchor="middle" x="76.1807" y="-12.2" font-family="Helvetica,sans-Serif" font-size="11.00">_mather_soil_moisture</text>
</g>
<!-- Node7 -->
<g id="node2" class="node"><title>Node7</title>
<g id="a_node2"><a xlink:href="namespaceactual__et____thornthwaite__mather__eqns.html#afb7a65ecb71917316483a79348712f96" target="_top" xlink:title="actual_et__thornthwaite\l_mather_eqns::calculate\l_actual_et_thornthwaite\l_mather_eqns">
<polygon fill="white" stroke="black" points="188.361,-0.5 188.361,-52.5 324.212,-52.5 324.212,-0.5 188.361,-0.5"/>
<text text-anchor="start" x="196.361" y="-39.7" font-family="Helvetica,sans-Serif" font-size="11.00">actual_et__thornthwaite</text>
<text text-anchor="start" x="196.361" y="-28.7" font-family="Helvetica,sans-Serif" font-size="11.00">_mather_eqns::calculate</text>
<text text-anchor="start" x="196.361" y="-17.7" font-family="Helvetica,sans-Serif" font-size="11.00">_actual_et_thornthwaite</text>
<text text-anchor="middle" x="256.287" y="-6.7" font-family="Helvetica,sans-Serif" font-size="11.00">_mather_eqns</text>
</a>
</g>
</g>
<!-- Node6&#45;&gt;Node7 -->
<g id="edge1" class="edge"><title>Node6&#45;&gt;Node7</title>
<path fill="none" stroke="midnightblue" d="M162.529,-26.5C171.144,-26.5 179.806,-26.5 188.191,-26.5"/>
<polygon fill="midnightblue" stroke="midnightblue" points="162.456,-23.0001 152.455,-26.5 162.455,-30.0001 162.456,-23.0001"/>
</g>
<!-- Node8 -->
<g id="node3" class="node"><title>Node8</title>
<g id="a_node3"><a xlink:href="namespacemodel__domain.html#a5ec52fa20f4e08cd60a0e93811993bba" target="_top" xlink:title="model_domain::model\l_calculate_actual_et\l_thornthwaite_mather_eqns">
<polygon fill="white" stroke="black" points="360.212,-6 360.212,-47 512.579,-47 512.579,-6 360.212,-6"/>
<text text-anchor="start" x="368.212" y="-34.2" font-family="Helvetica,sans-Serif" font-size="11.00">model_domain::model</text>
<text text-anchor="start" x="368.212" y="-23.2" font-family="Helvetica,sans-Serif" font-size="11.00">_calculate_actual_et</text>
<text text-anchor="middle" x="436.395" y="-12.2" font-family="Helvetica,sans-Serif" font-size="11.00">_thornthwaite_mather_eqns</text>
</a>
</g>
</g>
<!-- Node7&#45;&gt;Node8 -->
<g id="edge2" class="edge"><title>Node7&#45;&gt;Node8</title>
<path fill="none" stroke="midnightblue" d="M334.572,-26.5C343.012,-26.5 351.596,-26.5 360.013,-26.5"/>
<polygon fill="midnightblue" stroke="midnightblue" points="334.368,-23.0001 324.368,-26.5 334.368,-30.0001 334.368,-23.0001"/>
</g>
<!-- Node9 -->
<g id="node4" class="node"><title>Node9</title>
<g id="a_node4"><a xlink:href="namespacemodel__domain.html#aac78dbf26ba37cf86ebed4edd7acf89b" target="_top" xlink:title="model_domain::set_method\l_pointers_sub">
<polygon fill="white" stroke="black" points="548.579,-11.5 548.579,-41.5 700.328,-41.5 700.328,-11.5 548.579,-11.5"/>
<text text-anchor="start" x="556.579" y="-28.7" font-family="Helvetica,sans-Serif" font-size="11.00">model_domain::set_method</text>
<text text-anchor="middle" x="624.453" y="-17.7" font-family="Helvetica,sans-Serif" font-size="11.00">_pointers_sub</text>
</a>
</g>
</g>
<!-- Node8&#45;&gt;Node9 -->
<g id="edge3" class="edge"><title>Node8&#45;&gt;Node9</title>
<path fill="none" stroke="midnightblue" d="M522.823,-26.5C531.407,-26.5 540.078,-26.5 548.541,-26.5"/>
<polygon fill="midnightblue" stroke="midnightblue" points="522.804,-23.0001 512.804,-26.5 522.804,-30.0001 522.804,-23.0001"/>
</g>
</g>
</svg>
