<?xml version="1.0" encoding="UTF-8" standalone="no"?>
<!DOCTYPE svg PUBLIC "-//W3C//DTD SVG 1.1//EN"
 "http://www.w3.org/Graphics/SVG/1.1/DTD/svg11.dtd">
<!-- Generated by graphviz version 2.38.0 (20140413.2041)
 -->
<!-- Title: output::write_output Pages: 1 -->
<svg width="361pt" height="39pt"
 viewBox="0.00 0.00 360.97 39.00" xmlns="http://www.w3.org/2000/svg" xmlns:xlink="http://www.w3.org/1999/xlink">
<g id="graph0" class="graph" transform="scale(1 1) rotate(0) translate(4 35)">
<title>output::write_output</title>
<polygon fill="white" stroke="none" points="-4,4 -4,-35 356.971,-35 356.971,4 -4,4"/>
<!-- Node13 -->
<g id="node1" class="node"><title>Node13</title>
<polygon fill="#bfbfbf" stroke="black" points="0,-6 0,-25 112.621,-25 112.621,-6 0,-6"/>
<text text-anchor="middle" x="56.3103" y="-12.2" font-family="Helvetica,sans-Serif" font-size="11.00">output::write_output</text>
</g>
<!-- Node14 -->
<g id="node2" class="node"><title>Node14</title>
<g id="a_node2"><a xlink:href="namespacemodel__iterate.html#a05e7db04d04d173186649ed80748a6a8" target="_top" xlink:title="model_iterate::iterate\l_over_simulation_days">
<polygon fill="white" stroke="black" points="148.621,-0.5 148.621,-30.5 277.129,-30.5 277.129,-0.5 148.621,-0.5"/>
<text text-anchor="start" x="156.621" y="-17.7" font-family="Helvetica,sans-Serif" font-size="11.00">model_iterate::iterate</text>
<text text-anchor="middle" x="212.875" y="-6.7" font-family="Helvetica,sans-Serif" font-size="11.00">_over_simulation_days</text>
</a>
</g>
</g>
<!-- Node13&#45;&gt;Node14 -->
<g id="edge1" class="edge"><title>Node13&#45;&gt;Node14</title>
<path fill="none" stroke="midnightblue" d="M122.893,-15.5C131.371,-15.5 140.041,-15.5 148.483,-15.5"/>
<polygon fill="midnightblue" stroke="midnightblue" points="122.675,-12.0001 112.675,-15.5 122.675,-19.0001 122.675,-12.0001"/>
</g>
<!-- Node15 -->
<g id="node3" class="node"><title>Node15</title>
<g id="a_node3"><a xlink:href="main_8F90.html#a8ec2266d83cd6c0b762cbcbc92c0af3d" target="_top" xlink:title="Main program which references all other modules; execution begins here. ">
<polygon fill="white" stroke="black" points="313.129,-6 313.129,-25 352.971,-25 352.971,-6 313.129,-6"/>
<text text-anchor="middle" x="333.05" y="-12.2" font-family="Helvetica,sans-Serif" font-size="11.00">main</text>
</a>
</g>
</g>
<!-- Node14&#45;&gt;Node15 -->
<g id="edge2" class="edge"><title>Node14&#45;&gt;Node15</title>
<path fill="none" stroke="midnightblue" d="M287.711,-15.5C297.014,-15.5 305.796,-15.5 313.052,-15.5"/>
<polygon fill="midnightblue" stroke="midnightblue" points="287.459,-12.0001 277.459,-15.5 287.459,-19.0001 287.459,-12.0001"/>
</g>
</g>
</svg>
