<?xml version="1.0" encoding="UTF-8" standalone="no"?>
<!DOCTYPE svg PUBLIC "-//W3C//DTD SVG 1.1//EN"
 "http://www.w3.org/Graphics/SVG/1.1/DTD/svg11.dtd">
<!-- Generated by graphviz version 2.38.0 (20140413.2041)
 -->
<!-- Title: netcdf4_support::netcdf_open_and_prepare_as_input Pages: 1 -->
<!--zoomable 887 -->
<svg id="main" version="1.1" xmlns="http://www.w3.org/2000/svg" xmlns:xlink="http://www.w3.org/1999/xlink" xml:space="preserve" onload="init(evt)">
<style type="text/css"><![CDATA[
.edge:hover path { stroke: red; }
.edge:hover polygon { stroke: red; fill: red; }
]]></style>
<script type="text/javascript"><![CDATA[
var edges = document.getElementsByTagName('g');
if (edges && edges.length) {
  for (var i=0;i<edges.length;i++) {
    if (edges[i].id.substr(0,4)=='edge') {
      edges[i].setAttribute('class','edge');
    }
  }
}
]]></script>
        <defs>
                <circle id="rim" cx="0" cy="0" r="7"/>
                <circle id="rim2" cx="0" cy="0" r="3.5"/>
                <g id="zoomPlus">
                        <use xlink:href="#rim" fill="#404040">
                                <set attributeName="fill" to="#808080" begin="zoomplus.mouseover" end="zoomplus.mouseout"/>
                        </use>
                        <path d="M-4,0h8M0,-4v8" fill="none" stroke="white" stroke-width="1.5" pointer-events="none"/>
                </g>
                <g id="zoomMin">
                        <use xlink:href="#rim" fill="#404040">
                                <set attributeName="fill" to="#808080" begin="zoomminus.mouseover" end="zoomminus.mouseout"/>
                        </use>
                        <path d="M-4,0h8" fill="none" stroke="white" stroke-width="1.5" pointer-events="none"/>
                </g>
                <g id="dirArrow">
                        <path fill="none" stroke="white" stroke-width="1.5" d="M0,-3.0v7 M-2.5,-0.5L0,-3.0L2.5,-0.5"/>
                </g>
               <g id="resetDef">
                       <use xlink:href="#rim2" fill="#404040">
                               <set attributeName="fill" to="#808080" begin="reset.mouseover" end="reset.mouseout"/>
                       </use>
               </g>
        </defs>

<script type="text/javascript">
var viewWidth = 916;
var viewHeight = 887;
var sectionId = 'dynsection-8';
</script>
<script xlink:href="svgpan.js"/>
<svg id="graph" class="graph">
<g id="viewport">
<title>netcdf4_support::netcdf_open_and_prepare_as_input</title>
<polygon fill="white" stroke="none" points="-4,4 -4,-883 912.331,-883 912.331,4 -4,4"/>
<!-- Node77 -->
<g id="node1" class="node"><title>Node77</title>
<polygon fill="#bfbfbf" stroke="black" points="0,-377.5 0,-407.5 162.797,-407.5 162.797,-377.5 0,-377.5"/>
<text text-anchor="start" x="8" y="-394.7" font-family="Helvetica,sans-Serif" font-size="11.00">netcdf4_support::netcdf</text>
<text text-anchor="middle" x="81.3987" y="-383.7" font-family="Helvetica,sans-Serif" font-size="11.00">_open_and_prepare_as_input</text>
</g>
<!-- Node78 -->
<g id="node2" class="node"><title>Node78</title>
<g id="a_node2"><a xlink:href="namespacenetcdf4__support.html#ada0e720ee940ec9c0ec0f5f8b0de4fcd" target="_top" xlink:title="netcdf4_support::netcdf\l_coord_to_col_row">
<polygon fill="white" stroke="black" points="207.367,-804.5 207.367,-834.5 338.335,-834.5 338.335,-804.5 207.367,-804.5"/>
<text text-anchor="start" x="215.367" y="-821.7" font-family="Helvetica,sans-Serif" font-size="11.00">netcdf4_support::netcdf</text>
<text text-anchor="middle" x="272.851" y="-810.7" font-family="Helvetica,sans-Serif" font-size="11.00">_coord_to_col_row</text>
</a>
</g>
</g>
<!-- Node77&#45;&gt;Node78 -->
<g id="edge1" class="edge"><title>Node77&#45;&gt;Node78</title>
<path fill="none" stroke="midnightblue" d="M82.3934,-407.657C83.1848,-465.179 93.5299,-672.62 198.797,-789.5 202.066,-793.129 205.84,-796.33 209.915,-799.15"/>
<polygon fill="midnightblue" stroke="midnightblue" points="208.268,-802.244 218.637,-804.421 211.888,-796.253 208.268,-802.244"/>
</g>
<!-- Node81 -->
<g id="node5" class="node"><title>Node81</title>
<g id="a_node5"><a xlink:href="namespacenetcdf4__support.html#ae3647a050723866e061cd0b58a013985" target="_top" xlink:title="netcdf4_support::netcdf\l_dump_cdl">
<polygon fill="white" stroke="black" points="391.767,-760.5 391.767,-790.5 522.735,-790.5 522.735,-760.5 391.767,-760.5"/>
<text text-anchor="start" x="399.767" y="-777.7" font-family="Helvetica,sans-Serif" font-size="11.00">netcdf4_support::netcdf</text>
<text text-anchor="middle" x="457.251" y="-766.7" font-family="Helvetica,sans-Serif" font-size="11.00">_dump_cdl</text>
</a>
</g>
</g>
<!-- Node77&#45;&gt;Node81 -->
<g id="edge4" class="edge"><title>Node77&#45;&gt;Node81</title>
<path fill="none" stroke="midnightblue" d="M81.8307,-407.867C80.6461,-465.04 84.942,-666.763 198.797,-756.5 249.746,-796.656 325.383,-797.477 381.504,-790.607"/>
<polygon fill="midnightblue" stroke="midnightblue" points="382.296,-794.033 391.746,-789.242 381.371,-787.094 382.296,-794.033"/>
</g>
<!-- Node82 -->
<g id="node6" class="node"><title>Node82</title>
<g id="a_node6"><a xlink:href="namespacenetcdf4__support.html#ad118f90a290289cde5043fc1ec23bca1" target="_top" xlink:title="netcdf4_support::nf\l_calculate_time_range">
<polygon fill="white" stroke="black" points="209.51,-306.5 209.51,-336.5 336.192,-336.5 336.192,-306.5 209.51,-306.5"/>
<text text-anchor="start" x="217.51" y="-323.7" font-family="Helvetica,sans-Serif" font-size="11.00">netcdf4_support::nf</text>
<text text-anchor="middle" x="272.851" y="-312.7" font-family="Helvetica,sans-Serif" font-size="11.00">_calculate_time_range</text>
</a>
</g>
</g>
<!-- Node77&#45;&gt;Node82 -->
<g id="edge5" class="edge"><title>Node77&#45;&gt;Node82</title>
<path fill="none" stroke="midnightblue" d="M119.188,-377.453C142.006,-368.247 171.986,-356.379 198.797,-346.5 204.741,-344.31 210.979,-342.077 217.2,-339.891"/>
<polygon fill="midnightblue" stroke="midnightblue" points="218.625,-343.101 226.918,-336.508 216.324,-336.49 218.625,-343.101"/>
</g>
<!-- Node84 -->
<g id="node8" class="node"><title>Node84</title>
<g id="a_node8"><a xlink:href="namespacenetcdf4__support.html#a3f9a545cd24a2c66040977e333152f3e" target="_top" xlink:title="netcdf4_support::nf\l_get_first_and_last">
<polygon fill="white" stroke="black" points="217.763,-514.5 217.763,-544.5 327.939,-544.5 327.939,-514.5 217.763,-514.5"/>
<text text-anchor="start" x="225.763" y="-531.7" font-family="Helvetica,sans-Serif" font-size="11.00">netcdf4_support::nf</text>
<text text-anchor="middle" x="272.851" y="-520.7" font-family="Helvetica,sans-Serif" font-size="11.00">_get_first_and_last</text>
</a>
</g>
</g>
<!-- Node77&#45;&gt;Node84 -->
<g id="edge7" class="edge"><title>Node77&#45;&gt;Node84</title>
<path fill="none" stroke="midnightblue" d="M100.507,-407.592C123.034,-426.146 162.914,-458.274 198.797,-483.5 211.229,-492.24 225.273,-501.272 237.701,-508.995"/>
<polygon fill="midnightblue" stroke="midnightblue" points="236.07,-512.1 246.42,-514.363 239.74,-506.139 236.07,-512.1"/>
</g>
<!-- Node93 -->
<g id="node17" class="node"><title>Node93</title>
<g id="a_node17"><a xlink:href="namespacenetcdf4__support.html#ac2c621acfe944c1f5078aa90139612d9" target="_top" xlink:title="netcdf4_support::nf\l_get_scale_and_offset">
<polygon fill="white" stroke="black" points="209.599,-257.5 209.599,-287.5 336.104,-287.5 336.104,-257.5 209.599,-257.5"/>
<text text-anchor="start" x="217.599" y="-274.7" font-family="Helvetica,sans-Serif" font-size="11.00">netcdf4_support::nf</text>
<text text-anchor="middle" x="272.851" y="-263.7" font-family="Helvetica,sans-Serif" font-size="11.00">_get_scale_and_offset</text>
</a>
</g>
</g>
<!-- Node77&#45;&gt;Node93 -->
<g id="edge19" class="edge"><title>Node77&#45;&gt;Node93</title>
<path fill="none" stroke="midnightblue" d="M97.2813,-377.349C118.245,-356.753 158.439,-319.923 198.797,-297.5 202.659,-295.355 206.737,-293.347 210.911,-291.478"/>
<polygon fill="midnightblue" stroke="midnightblue" points="212.285,-294.697 220.158,-287.607 209.582,-288.24 212.285,-294.697"/>
</g>
<!-- Node94 -->
<g id="node18" class="node"><title>Node94</title>
<g id="a_node18"><a xlink:href="namespacenetcdf4__support.html#ae16cf16a822cf8bd9d17ec5459b5f2bb" target="_top" xlink:title="netcdf4_support::nf\l_get_time_units">
<polygon fill="white" stroke="black" points="217.763,-208.5 217.763,-238.5 327.939,-238.5 327.939,-208.5 217.763,-208.5"/>
<text text-anchor="start" x="225.763" y="-225.7" font-family="Helvetica,sans-Serif" font-size="11.00">netcdf4_support::nf</text>
<text text-anchor="middle" x="272.851" y="-214.7" font-family="Helvetica,sans-Serif" font-size="11.00">_get_time_units</text>
</a>
</g>
</g>
<!-- Node77&#45;&gt;Node94 -->
<g id="edge20" class="edge"><title>Node77&#45;&gt;Node94</title>
<path fill="none" stroke="midnightblue" d="M90.8403,-377.09C107.617,-347.848 147.958,-284.06 198.797,-248.5 201.832,-246.377 205.062,-244.422 208.411,-242.622"/>
<polygon fill="midnightblue" stroke="midnightblue" points="210.028,-245.728 217.497,-238.213 206.972,-239.43 210.028,-245.728"/>
</g>
<!-- Node95 -->
<g id="node19" class="node"><title>Node95</title>
<g id="a_node19"><a xlink:href="namespacenetcdf4__support.html#aad34f129a575be1774b4b709d5efba6c" target="_top" xlink:title="netcdf4_support::nf\l_get_time_vals">
<polygon fill="white" stroke="black" points="217.763,-577.5 217.763,-607.5 327.939,-607.5 327.939,-577.5 217.763,-577.5"/>
<text text-anchor="start" x="225.763" y="-594.7" font-family="Helvetica,sans-Serif" font-size="11.00">netcdf4_support::nf</text>
<text text-anchor="middle" x="272.851" y="-583.7" font-family="Helvetica,sans-Serif" font-size="11.00">_get_time_vals</text>
</a>
</g>
</g>
<!-- Node77&#45;&gt;Node95 -->
<g id="edge21" class="edge"><title>Node77&#45;&gt;Node95</title>
<path fill="none" stroke="midnightblue" d="M90.1274,-407.703C106.514,-438.709 147.485,-510.064 198.797,-554.5 206.823,-561.45 216.341,-567.566 225.809,-572.747"/>
<polygon fill="midnightblue" stroke="midnightblue" points="224.333,-575.924 234.821,-577.424 227.557,-569.711 224.333,-575.924"/>
</g>
<!-- Node96 -->
<g id="node20" class="node"><title>Node96</title>
<g id="a_node20"><a xlink:href="namespacenetcdf4__support.html#aa2e8f7506c9fd50f984f1de77bfdc55d" target="_top" xlink:title="netcdf4_support::nf\l_get_variable_id_and_type">
<polygon fill="white" stroke="black" points="198.797,-443.5 198.797,-473.5 346.905,-473.5 346.905,-443.5 198.797,-443.5"/>
<text text-anchor="start" x="206.797" y="-460.7" font-family="Helvetica,sans-Serif" font-size="11.00">netcdf4_support::nf</text>
<text text-anchor="middle" x="272.851" y="-449.7" font-family="Helvetica,sans-Serif" font-size="11.00">_get_variable_id_and_type</text>
</a>
</g>
</g>
<!-- Node77&#45;&gt;Node96 -->
<g id="edge23" class="edge"><title>Node77&#45;&gt;Node96</title>
<path fill="none" stroke="midnightblue" d="M125.863,-407.642C153.541,-417.284 189.574,-429.837 218.917,-440.059"/>
<polygon fill="midnightblue" stroke="midnightblue" points="217.994,-443.444 228.589,-443.429 220.297,-436.834 217.994,-443.444"/>
</g>
<!-- Node97 -->
<g id="node21" class="node"><title>Node97</title>
<g id="a_node21"><a xlink:href="namespacenetcdf4__support.html#a64c75b9bc2ca7a214b8ce3c6181b614d" target="_top" xlink:title="netcdf4_support::nf\l_get_x_and_y">
<polygon fill="white" stroke="black" points="217.763,-653.5 217.763,-683.5 327.939,-683.5 327.939,-653.5 217.763,-653.5"/>
<text text-anchor="start" x="225.763" y="-670.7" font-family="Helvetica,sans-Serif" font-size="11.00">netcdf4_support::nf</text>
<text text-anchor="middle" x="272.851" y="-659.7" font-family="Helvetica,sans-Serif" font-size="11.00">_get_x_and_y</text>
</a>
</g>
</g>
<!-- Node77&#45;&gt;Node97 -->
<g id="edge25" class="edge"><title>Node77&#45;&gt;Node97</title>
<path fill="none" stroke="midnightblue" d="M87.3437,-407.657C100.487,-446.197 139.39,-549.681 198.797,-617.5 209.066,-629.222 222.567,-639.617 235.166,-647.914"/>
<polygon fill="midnightblue" stroke="midnightblue" points="233.372,-650.92 243.693,-653.313 237.116,-645.006 233.372,-650.92"/>
</g>
<!-- Node98 -->
<g id="node22" class="node"><title>Node98</title>
<g id="a_node22"><a xlink:href="namespacenetcdf4__support.html#afd0ceb944d091a57059cc4e764647f6f" target="_top" xlink:title="netcdf4_support::nf\l_get_xyz_units">
<polygon fill="white" stroke="black" points="217.763,-159.5 217.763,-189.5 327.939,-189.5 327.939,-159.5 217.763,-159.5"/>
<text text-anchor="start" x="225.763" y="-176.7" font-family="Helvetica,sans-Serif" font-size="11.00">netcdf4_support::nf</text>
<text text-anchor="middle" x="272.851" y="-165.7" font-family="Helvetica,sans-Serif" font-size="11.00">_get_xyz_units</text>
</a>
</g>
</g>
<!-- Node77&#45;&gt;Node98 -->
<g id="edge27" class="edge"><title>Node77&#45;&gt;Node98</title>
<path fill="none" stroke="midnightblue" d="M87.4451,-377.255C100.191,-341.058 137.131,-249.256 198.797,-199.5 201.878,-197.014 205.22,-194.769 208.723,-192.743"/>
<polygon fill="midnightblue" stroke="midnightblue" points="210.397,-195.817 217.7,-188.142 207.205,-189.588 210.397,-195.817"/>
</g>
<!-- Node99 -->
<g id="node23" class="node"><title>Node99</title>
<g id="a_node23"><a xlink:href="namespacenetcdf4__support.html#a35f14663565a2db3b4cb3fc4d626fb11" target="_top" xlink:title="netcdf4_support::nf\l_open_file">
<polygon fill="white" stroke="black" points="217.763,-716.5 217.763,-746.5 327.939,-746.5 327.939,-716.5 217.763,-716.5"/>
<text text-anchor="start" x="225.763" y="-733.7" font-family="Helvetica,sans-Serif" font-size="11.00">netcdf4_support::nf</text>
<text text-anchor="middle" x="272.851" y="-722.7" font-family="Helvetica,sans-Serif" font-size="11.00">_open_file</text>
</a>
</g>
</g>
<!-- Node77&#45;&gt;Node99 -->
<g id="edge28" class="edge"><title>Node77&#45;&gt;Node99</title>
<path fill="none" stroke="midnightblue" d="M84.4109,-407.597C91.4799,-455.252 119.207,-604.577 198.797,-693.5 205.166,-700.616 213.185,-706.605 221.559,-711.571"/>
<polygon fill="midnightblue" stroke="midnightblue" points="219.907,-714.657 230.36,-716.381 223.264,-708.514 219.907,-714.657"/>
</g>
<!-- Node100 -->
<g id="node24" class="node"><title>Node100</title>
<g id="a_node24"><a xlink:href="namespacenetcdf4__support.html#acde440e1ad302ddd5efacb2aa46e4020" target="_top" xlink:title="netcdf4_support::nf\l_populate_dimension\l_struct">
<polygon fill="white" stroke="black" points="396.961,-367 396.961,-408 517.542,-408 517.542,-367 396.961,-367"/>
<text text-anchor="start" x="404.961" y="-395.2" font-family="Helvetica,sans-Serif" font-size="11.00">netcdf4_support::nf</text>
<text text-anchor="start" x="404.961" y="-384.2" font-family="Helvetica,sans-Serif" font-size="11.00">_populate_dimension</text>
<text text-anchor="middle" x="457.251" y="-373.2" font-family="Helvetica,sans-Serif" font-size="11.00">_struct</text>
</a>
</g>
</g>
<!-- Node77&#45;&gt;Node100 -->
<g id="edge31" class="edge"><title>Node77&#45;&gt;Node100</title>
<path fill="none" stroke="midnightblue" d="M162.874,-395.41C215.3,-396.812 285.178,-397.755 346.905,-395.5 359.789,-395.029 373.51,-394.248 386.724,-393.353"/>
<polygon fill="midnightblue" stroke="midnightblue" points="386.977,-396.843 396.707,-392.649 386.485,-389.861 386.977,-396.843"/>
</g>
<!-- Node102 -->
<g id="node26" class="node"><title>Node102</title>
<g id="a_node26"><a xlink:href="namespacenetcdf4__support.html#a714886913deafdad6415f01eaab9bf39" target="_top" xlink:title="netcdf4_support::nf\l_populate_variable_struct">
<polygon fill="white" stroke="black" points="201.864,-355.5 201.864,-385.5 343.838,-385.5 343.838,-355.5 201.864,-355.5"/>
<text text-anchor="start" x="209.864" y="-372.7" font-family="Helvetica,sans-Serif" font-size="11.00">netcdf4_support::nf</text>
<text text-anchor="middle" x="272.851" y="-361.7" font-family="Helvetica,sans-Serif" font-size="11.00">_populate_variable_struct</text>
</a>
</g>
</g>
<!-- Node77&#45;&gt;Node102 -->
<g id="edge34" class="edge"><title>Node77&#45;&gt;Node102</title>
<path fill="none" stroke="midnightblue" d="M163.018,-383.138C172.485,-382.039 182.144,-380.917 191.606,-379.818"/>
<polygon fill="midnightblue" stroke="midnightblue" points="192.248,-383.268 201.777,-378.637 191.44,-376.314 192.248,-383.268"/>
</g>
<!-- Node104 -->
<g id="node28" class="node"><title>Node104</title>
<g id="a_node28"><a xlink:href="namespacenetcdf4__support.html#ad4700c77a73aad3eebef236d3cfb8f07" target="_top" xlink:title="netcdf4_support::nf\l_return_native_coord\l_bounds">
<polygon fill="white" stroke="black" points="212.872,-99 212.872,-140 332.83,-140 332.83,-99 212.872,-99"/>
<text text-anchor="start" x="220.872" y="-127.2" font-family="Helvetica,sans-Serif" font-size="11.00">netcdf4_support::nf</text>
<text text-anchor="start" x="220.872" y="-116.2" font-family="Helvetica,sans-Serif" font-size="11.00">_return_native_coord</text>
<text text-anchor="middle" x="272.851" y="-105.2" font-family="Helvetica,sans-Serif" font-size="11.00">_bounds</text>
</a>
</g>
</g>
<!-- Node77&#45;&gt;Node104 -->
<g id="edge40" class="edge"><title>Node77&#45;&gt;Node104</title>
<path fill="none" stroke="midnightblue" d="M85.6104,-377.424C95.2741,-335.542 127.893,-216.47 198.797,-149.5 200.498,-147.894 202.297,-146.368 204.172,-144.92"/>
<polygon fill="midnightblue" stroke="midnightblue" points="206.514,-147.561 212.827,-139.053 202.586,-141.767 206.514,-147.561"/>
</g>
<!-- Node105 -->
<g id="node29" class="node"><title>Node105</title>
<g id="a_node29"><a xlink:href="namespacenetcdf4__support.html#af880cc183048ba8f2e4af3dcac8ae862" target="_top" xlink:title="netcdf4_support::nf\l_set_iteration_bounds">
<polygon fill="white" stroke="black" points="210.727,-49.5 210.727,-79.5 334.976,-79.5 334.976,-49.5 210.727,-49.5"/>
<text text-anchor="start" x="218.727" y="-66.7" font-family="Helvetica,sans-Serif" font-size="11.00">netcdf4_support::nf</text>
<text text-anchor="middle" x="272.851" y="-55.7" font-family="Helvetica,sans-Serif" font-size="11.00">_set_iteration_bounds</text>
</a>
</g>
</g>
<!-- Node77&#45;&gt;Node105 -->
<g id="edge41" class="edge"><title>Node77&#45;&gt;Node105</title>
<path fill="none" stroke="midnightblue" d="M83.7577,-377.466C88.9654,-328.691 111.96,-173.178 198.797,-89.5 200.444,-87.9129 202.196,-86.4263 204.032,-85.0339"/>
<polygon fill="midnightblue" stroke="midnightblue" points="206.063,-87.8886 212.55,-79.5122 202.255,-82.0147 206.063,-87.8886"/>
</g>
<!-- Node106 -->
<g id="node30" class="node"><title>Node106</title>
<g id="a_node30"><a xlink:href="namespacenetcdf4__support.html#a2fcb07227cc2ee946263d0196adb55dc" target="_top" xlink:title="netcdf4_support::nf\l_set_start_count_stride">
<polygon fill="white" stroke="black" points="207.678,-0.5 207.678,-30.5 338.024,-30.5 338.024,-0.5 207.678,-0.5"/>
<text text-anchor="start" x="215.678" y="-17.7" font-family="Helvetica,sans-Serif" font-size="11.00">netcdf4_support::nf</text>
<text text-anchor="middle" x="272.851" y="-6.7" font-family="Helvetica,sans-Serif" font-size="11.00">_set_start_count_stride</text>
</a>
</g>
</g>
<!-- Node77&#45;&gt;Node106 -->
<g id="edge42" class="edge"><title>Node77&#45;&gt;Node106</title>
<path fill="none" stroke="midnightblue" d="M82.782,-377.309C84.9767,-323.291 99.7261,-138.463 198.797,-39.5 199.754,-38.5447 200.749,-37.6275 201.778,-36.7468"/>
<polygon fill="midnightblue" stroke="midnightblue" points="204.158,-39.3472 210.258,-30.6846 200.088,-33.6525 204.158,-39.3472"/>
</g>
<!-- Node79 -->
<g id="node3" class="node"><title>Node79</title>
<g id="a_node3"><a xlink:href="namespaceexceptions.html#a22a1bf2808fdc249e6b378ee3f221156" target="_top" xlink:title="exceptions::die">
<polygon fill="white" stroke="black" points="412.561,-810 412.561,-829 501.941,-829 501.941,-810 412.561,-810"/>
<text text-anchor="middle" x="457.251" y="-816.2" font-family="Helvetica,sans-Serif" font-size="11.00">exceptions::die</text>
</a>
</g>
</g>
<!-- Node78&#45;&gt;Node79 -->
<g id="edge2" class="edge"><title>Node78&#45;&gt;Node79</title>
<path fill="none" stroke="midnightblue" d="M338.415,-819.5C359.273,-819.5 382.168,-819.5 402.185,-819.5"/>
<polygon fill="midnightblue" stroke="midnightblue" points="402.364,-823 412.364,-819.5 402.364,-816 402.364,-823"/>
</g>
<!-- Node80 -->
<g id="node4" class="node"><title>Node80</title>
<g id="a_node4"><a xlink:href="namespacenetcdf4__support.html#ac89586ef72d4dd0782811b6742e87270" target="_top" xlink:title="netcdf4_support::nf\l_return_index_double">
<polygon fill="white" stroke="black" points="396.042,-848.5 396.042,-878.5 518.46,-878.5 518.46,-848.5 396.042,-848.5"/>
<text text-anchor="start" x="404.042" y="-865.7" font-family="Helvetica,sans-Serif" font-size="11.00">netcdf4_support::nf</text>
<text text-anchor="middle" x="457.251" y="-854.7" font-family="Helvetica,sans-Serif" font-size="11.00">_return_index_double</text>
</a>
</g>
</g>
<!-- Node78&#45;&gt;Node80 -->
<g id="edge3" class="edge"><title>Node78&#45;&gt;Node80</title>
<path fill="none" stroke="midnightblue" d="M336.113,-834.519C352.095,-838.375 369.399,-842.549 385.764,-846.497"/>
<polygon fill="midnightblue" stroke="midnightblue" points="385.271,-849.978 395.812,-848.92 386.912,-843.173 385.271,-849.978"/>
</g>
<!-- Node83 -->
<g id="node7" class="node"><title>Node83</title>
<g id="a_node7"><a xlink:href="namespacedatetime.html#a9ac1a0a808a83a072ebc08cf0b3b4d8a" target="_top" xlink:title="datetime::julian_day">
<polygon fill="white" stroke="black" points="400.331,-193 400.331,-212 514.171,-212 514.171,-193 400.331,-193"/>
<text text-anchor="middle" x="457.251" y="-199.2" font-family="Helvetica,sans-Serif" font-size="11.00">datetime::julian_day</text>
</a>
</g>
</g>
<!-- Node82&#45;&gt;Node83 -->
<g id="edge6" class="edge"><title>Node82&#45;&gt;Node83</title>
<path fill="none" stroke="midnightblue" d="M333.82,-306.312C338.513,-303.807 342.955,-300.892 346.905,-297.5 373.748,-274.452 356.048,-249.532 382.905,-226.5 387.71,-222.379 393.241,-218.961 399.064,-216.128"/>
<polygon fill="midnightblue" stroke="midnightblue" points="400.576,-219.289 408.395,-212.14 397.825,-212.852 400.576,-219.289"/>
</g>
<!-- Node85 -->
<g id="node9" class="node"><title>Node85</title>
<g id="a_node9"><a xlink:href="namespacenetcdf4__support.html#a7138fa9ca363dd10d3601c64e7063f6a" target="_top" xlink:title="netcdf4_support::nf\l_return_dimsize">
<polygon fill="white" stroke="black" points="402.163,-563.5 402.163,-593.5 512.34,-593.5 512.34,-563.5 402.163,-563.5"/>
<text text-anchor="start" x="410.163" y="-580.7" font-family="Helvetica,sans-Serif" font-size="11.00">netcdf4_support::nf</text>
<text text-anchor="middle" x="457.251" y="-569.7" font-family="Helvetica,sans-Serif" font-size="11.00">_return_dimsize</text>
</a>
</g>
</g>
<!-- Node84&#45;&gt;Node85 -->
<g id="edge8" class="edge"><title>Node84&#45;&gt;Node85</title>
<path fill="none" stroke="midnightblue" d="M328.083,-544.069C348.209,-549.475 371.226,-555.659 392.149,-561.28"/>
<polygon fill="midnightblue" stroke="midnightblue" points="391.347,-564.688 401.913,-563.903 393.163,-557.928 391.347,-564.688"/>
</g>
<!-- Node86 -->
<g id="node10" class="node"><title>Node86</title>
<g id="a_node10"><a xlink:href="namespacenetcdf4__support.html#a15a33a5fbda012f0797b71099650b68d" target="_top" xlink:title="netcdf4_support::nf\l_get_variable_vector_short">
<polygon fill="white" stroke="black" points="382.905,-514.5 382.905,-544.5 531.598,-544.5 531.598,-514.5 382.905,-514.5"/>
<text text-anchor="start" x="390.905" y="-531.7" font-family="Helvetica,sans-Serif" font-size="11.00">netcdf4_support::nf</text>
<text text-anchor="middle" x="457.251" y="-520.7" font-family="Helvetica,sans-Serif" font-size="11.00">_get_variable_vector_short</text>
</a>
</g>
</g>
<!-- Node84&#45;&gt;Node86 -->
<g id="edge9" class="edge"><title>Node84&#45;&gt;Node86</title>
<path fill="none" stroke="midnightblue" d="M328.083,-529.5C341.991,-529.5 357.279,-529.5 372.303,-529.5"/>
<polygon fill="midnightblue" stroke="midnightblue" points="372.642,-533 382.642,-529.5 372.642,-526 372.642,-533"/>
</g>
<!-- Node89 -->
<g id="node13" class="node"><title>Node89</title>
<g id="a_node13"><a xlink:href="namespacenetcdf4__support.html#a075e4dfd64b2fa4af0d5412bb8d764b7" target="_top" xlink:title="netcdf4_support::nf\l_get_variable_vector_int">
<polygon fill="white" stroke="black" points="389.323,-465.5 389.323,-495.5 525.179,-495.5 525.179,-465.5 389.323,-465.5"/>
<text text-anchor="start" x="397.323" y="-482.7" font-family="Helvetica,sans-Serif" font-size="11.00">netcdf4_support::nf</text>
<text text-anchor="middle" x="457.251" y="-471.7" font-family="Helvetica,sans-Serif" font-size="11.00">_get_variable_vector_int</text>
</a>
</g>
</g>
<!-- Node84&#45;&gt;Node89 -->
<g id="edge12" class="edge"><title>Node84&#45;&gt;Node89</title>
<path fill="none" stroke="midnightblue" d="M328.083,-514.931C347.667,-509.67 369.987,-503.674 390.453,-498.176"/>
<polygon fill="midnightblue" stroke="midnightblue" points="391.582,-501.497 400.331,-495.522 389.766,-494.737 391.582,-501.497"/>
</g>
<!-- Node90 -->
<g id="node14" class="node"><title>Node90</title>
<g id="a_node14"><a xlink:href="namespacenetcdf4__support.html#a4714332166c986eb4acc7dda0aabe551" target="_top" xlink:title="netcdf4_support::nf\l_get_variable_vector_float">
<polygon fill="white" stroke="black" points="384.736,-612.5 384.736,-642.5 529.766,-642.5 529.766,-612.5 384.736,-612.5"/>
<text text-anchor="start" x="392.736" y="-629.7" font-family="Helvetica,sans-Serif" font-size="11.00">netcdf4_support::nf</text>
<text text-anchor="middle" x="457.251" y="-618.7" font-family="Helvetica,sans-Serif" font-size="11.00">_get_variable_vector_float</text>
</a>
</g>
</g>
<!-- Node84&#45;&gt;Node90 -->
<g id="edge14" class="edge"><title>Node84&#45;&gt;Node90</title>
<path fill="none" stroke="midnightblue" d="M306.661,-544.535C319.682,-551.125 334.482,-559.426 346.905,-568.5 364.925,-581.662 363.808,-591.955 382.905,-603.5 385.714,-605.198 388.657,-606.791 391.683,-608.284"/>
<polygon fill="midnightblue" stroke="midnightblue" points="390.402,-611.546 400.957,-612.463 393.279,-605.164 390.402,-611.546"/>
</g>
<!-- Node91 -->
<g id="node15" class="node"><title>Node91</title>
<g id="a_node15"><a xlink:href="namespacenetcdf4__support.html#a8e61a749fc18f3f802e6b886cdfb4f6c" target="_top" xlink:title="netcdf4_support::nf\l_get_variable_vector\l_double">
<polygon fill="white" stroke="black" points="398.191,-662 398.191,-703 516.312,-703 516.312,-662 398.191,-662"/>
<text text-anchor="start" x="406.191" y="-690.2" font-family="Helvetica,sans-Serif" font-size="11.00">netcdf4_support::nf</text>
<text text-anchor="start" x="406.191" y="-679.2" font-family="Helvetica,sans-Serif" font-size="11.00">_get_variable_vector</text>
<text text-anchor="middle" x="457.251" y="-668.2" font-family="Helvetica,sans-Serif" font-size="11.00">_double</text>
</a>
</g>
</g>
<!-- Node84&#45;&gt;Node91 -->
<g id="edge16" class="edge"><title>Node84&#45;&gt;Node91</title>
<path fill="none" stroke="midnightblue" d="M313.61,-544.626C325.488,-550.642 337.766,-558.544 346.905,-568.5 374.372,-598.422 353.946,-624.019 382.905,-652.5 384.974,-654.535 387.2,-656.438 389.543,-658.218"/>
<polygon fill="midnightblue" stroke="midnightblue" points="387.643,-661.158 397.903,-663.802 391.532,-655.337 387.643,-661.158"/>
</g>
<!-- Node92 -->
<g id="node16" class="node"><title>Node92</title>
<g id="a_node16"><a xlink:href="namespaceexceptions.html#a84dd04476b06e0a398bfe6d106a82a4d" target="_top" xlink:title="exceptions::warn">
<polygon fill="white" stroke="black" points="407.98,-427 407.98,-446 506.523,-446 506.523,-427 407.98,-427"/>
<text text-anchor="middle" x="457.251" y="-433.2" font-family="Helvetica,sans-Serif" font-size="11.00">exceptions::warn</text>
</a>
</g>
</g>
<!-- Node84&#45;&gt;Node92 -->
<g id="edge18" class="edge"><title>Node84&#45;&gt;Node92</title>
<path fill="none" stroke="midnightblue" d="M298.861,-514.45C313.123,-505.696 331.224,-494.291 346.905,-483.5 363.381,-472.162 364.938,-465.287 382.905,-456.5 388.585,-453.722 394.708,-451.284 400.908,-449.155"/>
<polygon fill="midnightblue" stroke="midnightblue" points="402.191,-452.42 410.664,-446.059 400.074,-445.747 402.191,-452.42"/>
</g>
<!-- Node87 -->
<g id="node11" class="node"><title>Node87</title>
<g id="a_node11"><a xlink:href="namespacenetcdf4__support.html#ac8c7276a5849ae6d17ffef1787e3f234" target="_top" xlink:title="netcdf4_support::nf_trap">
<polygon fill="white" stroke="black" points="576.156,-495 576.156,-514 711.406,-514 711.406,-495 576.156,-495"/>
<text text-anchor="middle" x="643.781" y="-501.2" font-family="Helvetica,sans-Serif" font-size="11.00">netcdf4_support::nf_trap</text>
</a>
</g>
</g>
<!-- Node86&#45;&gt;Node87 -->
<g id="edge10" class="edge"><title>Node86&#45;&gt;Node87</title>
<path fill="none" stroke="midnightblue" d="M531.712,-519.548C543.062,-518.01 554.808,-516.419 566.223,-514.872"/>
<polygon fill="midnightblue" stroke="midnightblue" points="566.712,-518.338 576.151,-513.527 565.772,-511.401 566.712,-518.338"/>
</g>
<!-- Node88 -->
<g id="node12" class="node"><title>Node88</title>
<g id="a_node12"><a xlink:href="namespaceconstants__and__conversions.html#ac13fba285229deab77131132e6f62caf" target="_top" xlink:title="constants_and_conversions\l::char_ptr_to_fortran_string">
<polygon fill="white" stroke="black" points="755.964,-489.5 755.964,-519.5 908.331,-519.5 908.331,-489.5 755.964,-489.5"/>
<text text-anchor="start" x="763.964" y="-506.7" font-family="Helvetica,sans-Serif" font-size="11.00">constants_and_conversions</text>
<text text-anchor="middle" x="832.148" y="-495.7" font-family="Helvetica,sans-Serif" font-size="11.00">::char_ptr_to_fortran_string</text>
</a>
</g>
</g>
<!-- Node87&#45;&gt;Node88 -->
<g id="edge11" class="edge"><title>Node87&#45;&gt;Node88</title>
<path fill="none" stroke="midnightblue" d="M711.537,-504.5C722.604,-504.5 734.214,-504.5 745.667,-504.5"/>
<polygon fill="midnightblue" stroke="midnightblue" points="745.674,-508 755.674,-504.5 745.674,-501 745.674,-508"/>
</g>
<!-- Node89&#45;&gt;Node87 -->
<g id="edge13" class="edge"><title>Node89&#45;&gt;Node87</title>
<path fill="none" stroke="midnightblue" d="M525.393,-489.232C538.532,-490.941 552.406,-492.746 565.835,-494.492"/>
<polygon fill="midnightblue" stroke="midnightblue" points="565.631,-497.995 575.998,-495.814 566.533,-491.054 565.631,-497.995"/>
</g>
<!-- Node90&#45;&gt;Node87 -->
<g id="edge15" class="edge"><title>Node90&#45;&gt;Node87</title>
<path fill="none" stroke="midnightblue" d="M513.016,-612.376C519.454,-609.79 525.79,-606.839 531.598,-603.5 570.538,-581.108 607.849,-543.491 627.796,-521.641"/>
<polygon fill="midnightblue" stroke="midnightblue" points="630.486,-523.885 634.558,-514.104 625.275,-519.21 630.486,-523.885"/>
</g>
<!-- Node91&#45;&gt;Node87 -->
<g id="edge17" class="edge"><title>Node91&#45;&gt;Node87</title>
<path fill="none" stroke="midnightblue" d="M516.359,-662.262C521.736,-659.362 526.915,-656.115 531.598,-652.5 579.115,-615.821 616.482,-553.877 633.214,-523.062"/>
<polygon fill="midnightblue" stroke="midnightblue" points="636.309,-524.697 637.908,-514.223 630.127,-521.413 636.309,-524.697"/>
</g>
<!-- Node95&#45;&gt;Node91 -->
<g id="edge22" class="edge"><title>Node95&#45;&gt;Node91</title>
<path fill="none" stroke="midnightblue" d="M299.415,-607.656C321.243,-620.331 353.656,-638.529 382.905,-652.5 386.676,-654.301 390.584,-656.097 394.545,-657.864"/>
<polygon fill="midnightblue" stroke="midnightblue" points="393.275,-661.129 403.84,-661.922 396.076,-654.714 393.275,-661.129"/>
</g>
<!-- Node96&#45;&gt;Node92 -->
<g id="edge24" class="edge"><title>Node96&#45;&gt;Node92</title>
<path fill="none" stroke="midnightblue" d="M346.989,-449.679C363.819,-447.649 381.503,-445.516 397.624,-443.571"/>
<polygon fill="midnightblue" stroke="midnightblue" points="398.459,-446.996 407.968,-442.324 397.621,-440.046 398.459,-446.996"/>
</g>
<!-- Node97&#45;&gt;Node91 -->
<g id="edge26" class="edge"><title>Node97&#45;&gt;Node91</title>
<path fill="none" stroke="midnightblue" d="M328.083,-672.663C346.863,-674.104 368.159,-675.739 387.924,-677.256"/>
<polygon fill="midnightblue" stroke="midnightblue" points="387.859,-680.761 398.098,-678.036 388.395,-673.781 387.859,-680.761"/>
</g>
<!-- Node99&#45;&gt;Node81 -->
<g id="edge30" class="edge"><title>Node99&#45;&gt;Node81</title>
<path fill="none" stroke="midnightblue" d="M328.083,-744.582C345.619,-748.812 365.35,-753.572 383.979,-758.066"/>
<polygon fill="midnightblue" stroke="midnightblue" points="383.355,-761.516 393.897,-760.458 384.997,-754.711 383.355,-761.516"/>
</g>
<!-- Node99&#45;&gt;Node87 -->
<g id="edge29" class="edge"><title>Node99&#45;&gt;Node87</title>
<path fill="none" stroke="midnightblue" d="M328.197,-741.763C383.906,-749.226 470.762,-752.075 531.598,-712.5 599.969,-668.023 629.256,-566.824 638.887,-524.107"/>
<polygon fill="midnightblue" stroke="midnightblue" points="642.35,-524.648 641.012,-514.138 635.504,-523.189 642.35,-524.648"/>
</g>
<!-- Node100&#45;&gt;Node87 -->
<g id="edge32" class="edge"><title>Node100&#45;&gt;Node87</title>
<path fill="none" stroke="midnightblue" d="M513.519,-408.164C519.739,-411.056 525.887,-414.184 531.598,-417.5 567.149,-438.145 603.845,-469.086 624.922,-487.967"/>
<polygon fill="midnightblue" stroke="midnightblue" points="622.693,-490.671 632.451,-494.797 627.396,-485.486 622.693,-490.671"/>
</g>
<!-- Node101 -->
<g id="node25" class="node"><title>Node101</title>
<g id="a_node25"><a xlink:href="namespaceconstants__and__conversions.html#adeac78899e44bc3d58e26397fa64e4a7" target="_top" xlink:title="constants_and_conversions\l::c_to_fortran_string">
<polygon fill="white" stroke="black" points="567.598,-274.5 567.598,-304.5 719.964,-304.5 719.964,-274.5 567.598,-274.5"/>
<text text-anchor="start" x="575.598" y="-291.7" font-family="Helvetica,sans-Serif" font-size="11.00">constants_and_conversions</text>
<text text-anchor="middle" x="643.781" y="-280.7" font-family="Helvetica,sans-Serif" font-size="11.00">::c_to_fortran_string</text>
</a>
</g>
</g>
<!-- Node100&#45;&gt;Node101 -->
<g id="edge33" class="edge"><title>Node100&#45;&gt;Node101</title>
<path fill="none" stroke="midnightblue" d="M496.935,-366.956C528.869,-349.996 573.91,-326.076 605.463,-309.319"/>
<polygon fill="midnightblue" stroke="midnightblue" points="607.197,-312.361 614.387,-304.579 603.914,-306.179 607.197,-312.361"/>
</g>
<!-- Node102&#45;&gt;Node87 -->
<g id="edge35" class="edge"><title>Node102&#45;&gt;Node87</title>
<path fill="none" stroke="midnightblue" d="M318.957,-355.465C372.655,-340.34 463.603,-323.675 531.598,-357.5 585.886,-384.507 620.723,-452.074 635.16,-485.359"/>
<polygon fill="midnightblue" stroke="midnightblue" points="632.047,-486.986 639.129,-494.866 638.506,-484.289 632.047,-486.986"/>
</g>
<!-- Node102&#45;&gt;Node101 -->
<g id="edge36" class="edge"><title>Node102&#45;&gt;Node101</title>
<path fill="none" stroke="midnightblue" d="M334.463,-355.435C338.961,-352.905 343.186,-349.95 346.905,-346.5 377.582,-318.039 348.115,-282.755 382.905,-259.5 450.048,-214.619 549.303,-246.564 603.662,-270.259"/>
<polygon fill="midnightblue" stroke="midnightblue" points="602.394,-273.527 612.951,-274.42 605.256,-267.138 602.394,-273.527"/>
</g>
<!-- Node103 -->
<g id="node27" class="node"><title>Node103</title>
<g id="a_node27"><a xlink:href="namespacenetcdf4__support.html#aa2d6e99c4cd59ef92c2878aa06c4a67e" target="_top" xlink:title="netcdf4_support::nf\l_populate_attribute\l_struct">
<polygon fill="white" stroke="black" points="402.157,-269 402.157,-310 512.345,-310 512.345,-269 402.157,-269"/>
<text text-anchor="start" x="410.157" y="-297.2" font-family="Helvetica,sans-Serif" font-size="11.00">netcdf4_support::nf</text>
<text text-anchor="start" x="410.157" y="-286.2" font-family="Helvetica,sans-Serif" font-size="11.00">_populate_attribute</text>
<text text-anchor="middle" x="457.251" y="-275.2" font-family="Helvetica,sans-Serif" font-size="11.00">_struct</text>
</a>
</g>
</g>
<!-- Node102&#45;&gt;Node103 -->
<g id="edge37" class="edge"><title>Node102&#45;&gt;Node103</title>
<path fill="none" stroke="midnightblue" d="M324.741,-355.468C332.283,-352.757 339.876,-349.749 346.905,-346.5 363.926,-338.632 366.421,-333.439 382.905,-324.5 388.988,-321.201 395.433,-317.882 401.877,-314.671"/>
<polygon fill="midnightblue" stroke="midnightblue" points="403.84,-317.606 411.276,-310.058 400.757,-311.322 403.84,-317.606"/>
</g>
<!-- Node103&#45;&gt;Node87 -->
<g id="edge38" class="edge"><title>Node103&#45;&gt;Node87</title>
<path fill="none" stroke="midnightblue" d="M511.079,-310.116C518.411,-314.249 525.507,-319.035 531.598,-324.5 584.12,-371.632 620.43,-449.402 635.279,-485.276"/>
<polygon fill="midnightblue" stroke="midnightblue" points="632.208,-487.019 639.193,-494.985 638.7,-484.401 632.208,-487.019"/>
</g>
<!-- Node103&#45;&gt;Node101 -->
<g id="edge39" class="edge"><title>Node103&#45;&gt;Node101</title>
<path fill="none" stroke="midnightblue" d="M512.618,-289.5C526.525,-289.5 541.822,-289.5 556.892,-289.5"/>
<polygon fill="midnightblue" stroke="midnightblue" points="557.268,-293 567.268,-289.5 557.268,-286 557.268,-293"/>
</g>
</g>
</svg>
        <g id="navigator" transform="translate(0 0)" fill="#404254">
                <rect fill="#f2f5e9" fill-opacity="0.5" stroke="#606060" stroke-width=".5" x="0" y="0" width="60" height="60"/>
                <use id="zoomplus" xlink:href="#zoomPlus" x="17" y="9" onmousedown="handleZoom(evt,'in')"/>
                <use id="zoomminus" xlink:href="#zoomMin" x="42" y="9" onmousedown="handleZoom(evt,'out')"/>
                <use id="reset" xlink:href="#resetDef" x="30" y="36" onmousedown="handleReset()"/>
                <g id="arrowUp" xlink:href="#dirArrow" transform="translate(30 24)" onmousedown="handlePan(0,-1)">
                  <use xlink:href="#rim" fill="#404040">
                        <set attributeName="fill" to="#808080" begin="arrowUp.mouseover" end="arrowUp.mouseout"/>
                  </use>
                  <path fill="none" stroke="white" stroke-width="1.5" d="M0,-3.0v7 M-2.5,-0.5L0,-3.0L2.5,-0.5"/>
                </g>
                <g id="arrowRight" xlink:href="#dirArrow" transform="rotate(90) translate(36 -43)" onmousedown="handlePan(1,0)">
                  <use xlink:href="#rim" fill="#404040">
                        <set attributeName="fill" to="#808080" begin="arrowRight.mouseover" end="arrowRight.mouseout"/>
                  </use>
                  <path fill="none" stroke="white" stroke-width="1.5" d="M0,-3.0v7 M-2.5,-0.5L0,-3.0L2.5,-0.5"/>
                </g>
                <g id="arrowDown" xlink:href="#dirArrow" transform="rotate(180) translate(-30 -48)" onmousedown="handlePan(0,1)">
                  <use xlink:href="#rim" fill="#404040">
                        <set attributeName="fill" to="#808080" begin="arrowDown.mouseover" end="arrowDown.mouseout"/>
                  </use>
                  <path fill="none" stroke="white" stroke-width="1.5" d="M0,-3.0v7 M-2.5,-0.5L0,-3.0L2.5,-0.5"/>
                </g>
                <g id="arrowLeft" xlink:href="#dirArrow" transform="rotate(270) translate(-36 17)" onmousedown="handlePan(-1,0)">
                  <use xlink:href="#rim" fill="#404040">
                        <set attributeName="fill" to="#808080" begin="arrowLeft.mouseover" end="arrowLeft.mouseout"/>
                  </use>
                  <path fill="none" stroke="white" stroke-width="1.5" d="M0,-3.0v7 M-2.5,-0.5L0,-3.0L2.5,-0.5"/>
                </g>
        </g>
        <svg viewBox="0 0 15 15" width="100%" height="30px" preserveAspectRatio="xMaxYMin meet">
         <g id="arrow_out" transform="scale(0.3 0.3)">
          <a xlink:href="namespacenetcdf4__support_a6d3d402059d71a8bd24a01dc6116ff7d_cgraph_org.svg" target="_base">
           <rect id="button" ry="5" rx="5" y="6" x="6" height="38" width="38"
                fill="#f2f5e9" fill-opacity="0.5" stroke="#606060" stroke-width="1.0"/>
           <path id="arrow"
             d="M 11.500037,31.436501 C 11.940474,20.09759 22.043105,11.32322 32.158766,21.979434 L 37.068811,17.246167 C 37.068811,17.246167 37.088388,32 37.088388,32 L 22.160133,31.978069 C 22.160133,31.978069 26.997745,27.140456 26.997745,27.140456 C 18.528582,18.264221 13.291696,25.230495 11.500037,31.436501 z"
             style="fill:#404040;"/>
          </a>
         </g>
        </svg>
</svg>
