<?xml version="1.0" encoding="UTF-8" standalone="no"?>
<!DOCTYPE svg PUBLIC "-//W3C//DTD SVG 1.1//EN"
 "http://www.w3.org/Graphics/SVG/1.1/DTD/svg11.dtd">
<!-- Generated by graphviz version 2.38.0 (20140413.2041)
 -->
<!-- Title: grid::grid_populatexy Pages: 1 -->
<svg width="906pt" height="167pt"
 viewBox="0.00 0.00 906.45 166.50" xmlns="http://www.w3.org/2000/svg" xmlns:xlink="http://www.w3.org/1999/xlink">
<g id="graph0" class="graph" transform="scale(1 1) rotate(0) translate(4 162.5)">
<title>grid::grid_populatexy</title>
<polygon fill="white" stroke="none" points="-4,4 -4,-162.5 902.445,-162.5 902.445,4 -4,4"/>
<!-- Node1 -->
<g id="node1" class="node"><title>Node1</title>
<polygon fill="#bfbfbf" stroke="black" points="0,-63 0,-82 118.121,-82 118.121,-63 0,-63"/>
<text text-anchor="middle" x="59.0603" y="-69.2" font-family="Helvetica,sans-Serif" font-size="11.00">grid::grid_populatexy</text>
</g>
<!-- Node2 -->
<g id="node2" class="node"><title>Node2</title>
<g id="a_node2"><a xlink:href="namespacegrid.html#afa350ce941557d82c522ed95e7758c44" target="_top" xlink:title="grid::grid_gridtogrid_int">
<polygon fill="white" stroke="black" points="156.876,-139 156.876,-158 285.384,-158 285.384,-139 156.876,-139"/>
<text text-anchor="middle" x="221.13" y="-145.2" font-family="Helvetica,sans-Serif" font-size="11.00">grid::grid_gridtogrid_int</text>
</a>
</g>
</g>
<!-- Node1&#45;&gt;Node2 -->
<g id="edge1" class="edge"><title>Node1&#45;&gt;Node2</title>
<path fill="none" stroke="midnightblue" d="M81.763,-87.9366C100.272,-100.531 127.964,-118.052 154.121,-129.5 162.423,-133.134 171.614,-136.285 180.434,-138.919"/>
<polygon fill="midnightblue" stroke="midnightblue" points="83.6774,-85.0051 73.4612,-82.198 79.697,-90.7633 83.6774,-85.0051"/>
</g>
<!-- Node4 -->
<g id="node4" class="node"><title>Node4</title>
<g id="a_node4"><a xlink:href="namespacegrid.html#a5d46ebd32a7a83ebf0ba59757bbf754a" target="_top" xlink:title="grid::grid_gridtogrid_sgl">
<polygon fill="white" stroke="black" points="155.654,-101 155.654,-120 286.606,-120 286.606,-101 155.654,-101"/>
<text text-anchor="middle" x="221.13" y="-107.2" font-family="Helvetica,sans-Serif" font-size="11.00">grid::grid_gridtogrid_sgl</text>
</a>
</g>
</g>
<!-- Node1&#45;&gt;Node4 -->
<g id="edge3" class="edge"><title>Node1&#45;&gt;Node4</title>
<path fill="none" stroke="midnightblue" d="M110.474,-84.468C132.905,-89.7931 158.951,-95.9762 180.028,-100.98"/>
<polygon fill="midnightblue" stroke="midnightblue" points="110.991,-80.9935 100.453,-82.089 109.374,-87.8042 110.991,-80.9935"/>
</g>
<!-- Node5 -->
<g id="node5" class="node"><title>Node5</title>
<g id="a_node5"><a xlink:href="namespacegrid.html#a565a676f138a2e48293c5bfadf0d539e" target="_top" xlink:title="grid::grid_gridtopoint_int">
<polygon fill="white" stroke="black" points="154.121,-63 154.121,-82 288.14,-82 288.14,-63 154.121,-63"/>
<text text-anchor="middle" x="221.13" y="-69.2" font-family="Helvetica,sans-Serif" font-size="11.00">grid::grid_gridtopoint_int</text>
</a>
</g>
</g>
<!-- Node1&#45;&gt;Node5 -->
<g id="edge5" class="edge"><title>Node1&#45;&gt;Node5</title>
<path fill="none" stroke="midnightblue" d="M128.519,-72.5C136.989,-72.5 145.636,-72.5 154.069,-72.5"/>
<polygon fill="midnightblue" stroke="midnightblue" points="128.302,-69.0001 118.302,-72.5 128.302,-76.0001 128.302,-69.0001"/>
</g>
<!-- Node6 -->
<g id="node6" class="node"><title>Node6</title>
<g id="a_node6"><a xlink:href="namespacegrid.html#a6eb75c46ff6156376f88e567ac0e5271" target="_top" xlink:title="Call PROJ4 to transform coordinates. ">
<polygon fill="white" stroke="black" points="165.446,-25 165.446,-44 276.815,-44 276.815,-25 165.446,-25"/>
<text text-anchor="middle" x="221.13" y="-31.2" font-family="Helvetica,sans-Serif" font-size="11.00">grid::grid_transform</text>
</a>
</g>
</g>
<!-- Node1&#45;&gt;Node6 -->
<g id="edge6" class="edge"><title>Node1&#45;&gt;Node6</title>
<path fill="none" stroke="midnightblue" d="M110.474,-60.532C132.905,-55.2069 158.951,-49.0238 180.028,-44.0201"/>
<polygon fill="midnightblue" stroke="midnightblue" points="109.374,-57.1958 100.453,-62.911 110.991,-64.0065 109.374,-57.1958"/>
</g>
<!-- Node7 -->
<g id="node7" class="node"><title>Node7</title>
<g id="a_node7"><a xlink:href="namespacemodel__initialize.html#a63c6e7946b13f1ffe90ca3e2d7df1387" target="_top" xlink:title="model_initialize::initialize\l_latitude">
<polygon fill="white" stroke="black" points="324.14,-0.5 324.14,-30.5 460.586,-30.5 460.586,-0.5 324.14,-0.5"/>
<text text-anchor="start" x="332.14" y="-17.7" font-family="Helvetica,sans-Serif" font-size="11.00">model_initialize::initialize</text>
<text text-anchor="middle" x="392.363" y="-6.7" font-family="Helvetica,sans-Serif" font-size="11.00">_latitude</text>
</a>
</g>
</g>
<!-- Node1&#45;&gt;Node7 -->
<g id="edge12" class="edge"><title>Node1&#45;&gt;Node7</title>
<path fill="none" stroke="midnightblue" d="M79.2289,-56.5179C97.2615,-42.6016 125.673,-23.4468 154.121,-15.5 209.856,0.0697272 275.873,-1.45075 324.098,-5.99206"/>
<polygon fill="midnightblue" stroke="midnightblue" points="76.9053,-53.8939 71.2556,-62.8568 81.2615,-59.3733 76.9053,-53.8939"/>
</g>
<!-- Node3 -->
<g id="node3" class="node"><title>Node3</title>
<g id="a_node3"><a xlink:href="namespacedata__catalog__entry.html#aacf51804adb730b5710c4060576a7948" target="_top" xlink:title="data_catalog_entry\l::transform_grid_to\l_grid_sub">
<polygon fill="white" stroke="black" points="337.578,-90 337.578,-131 447.148,-131 447.148,-90 337.578,-90"/>
<text text-anchor="start" x="345.578" y="-118.2" font-family="Helvetica,sans-Serif" font-size="11.00">data_catalog_entry</text>
<text text-anchor="start" x="345.578" y="-107.2" font-family="Helvetica,sans-Serif" font-size="11.00">::transform_grid_to</text>
<text text-anchor="middle" x="392.363" y="-96.2" font-family="Helvetica,sans-Serif" font-size="11.00">_grid_sub</text>
</a>
</g>
</g>
<!-- Node2&#45;&gt;Node3 -->
<g id="edge2" class="edge"><title>Node2&#45;&gt;Node3</title>
<path fill="none" stroke="midnightblue" d="M274.679,-136.701C294.625,-132.222 317.36,-127.117 337.431,-122.61"/>
<polygon fill="midnightblue" stroke="midnightblue" points="273.825,-133.305 264.835,-138.911 275.359,-140.135 273.825,-133.305"/>
</g>
<!-- Node4&#45;&gt;Node3 -->
<g id="edge4" class="edge"><title>Node4&#45;&gt;Node3</title>
<path fill="none" stroke="midnightblue" d="M297.354,-110.5C310.907,-110.5 324.786,-110.5 337.577,-110.5"/>
<polygon fill="midnightblue" stroke="midnightblue" points="297.076,-107 287.076,-110.5 297.076,-114 297.076,-107"/>
</g>
<!-- Node6&#45;&gt;Node3 -->
<g id="edge11" class="edge"><title>Node6&#45;&gt;Node3</title>
<path fill="none" stroke="midnightblue" d="M270.651,-47.1091C276.612,-49.0541 282.563,-51.1921 288.14,-53.5 312.541,-63.5986 338.561,-77.9932 358.372,-89.79"/>
<polygon fill="midnightblue" stroke="midnightblue" points="271.265,-43.6352 260.677,-44.022 269.195,-50.3223 271.265,-43.6352"/>
</g>
<!-- Node6&#45;&gt;Node7 -->
<g id="edge7" class="edge"><title>Node6&#45;&gt;Node7</title>
<path fill="none" stroke="midnightblue" d="M287.072,-27.2088C299.161,-25.8517 311.816,-24.4309 323.975,-23.0657"/>
<polygon fill="midnightblue" stroke="midnightblue" points="286.622,-23.7373 277.075,-28.3312 287.403,-30.6936 286.622,-23.7373"/>
</g>
<!-- Node8 -->
<g id="node8" class="node"><title>Node8</title>
<g id="a_node8"><a xlink:href="namespacemodel__initialize.html#a39e959b59f3ec67f64a1b37a5b30ebc2" target="_top" xlink:title="model_initialize::initialize\l_ancillary_values">
<polygon fill="white" stroke="black" points="496.586,-0.5 496.586,-30.5 633.033,-30.5 633.033,-0.5 496.586,-0.5"/>
<text text-anchor="start" x="504.586" y="-17.7" font-family="Helvetica,sans-Serif" font-size="11.00">model_initialize::initialize</text>
<text text-anchor="middle" x="564.81" y="-6.7" font-family="Helvetica,sans-Serif" font-size="11.00">_ancillary_values</text>
</a>
</g>
</g>
<!-- Node7&#45;&gt;Node8 -->
<g id="edge8" class="edge"><title>Node7&#45;&gt;Node8</title>
<path fill="none" stroke="midnightblue" d="M470.991,-15.5C479.465,-15.5 488.039,-15.5 496.376,-15.5"/>
<polygon fill="midnightblue" stroke="midnightblue" points="470.728,-12.0001 460.728,-15.5 470.728,-19.0001 470.728,-12.0001"/>
</g>
<!-- Node9 -->
<g id="node9" class="node"><title>Node9</title>
<g id="a_node9"><a xlink:href="namespacemodel__initialize.html#a46370bf2e9ea112d1f219277ba7fd3ce" target="_top" xlink:title="model_initialize::initialize_all">
<polygon fill="white" stroke="black" points="669.033,-6 669.033,-25 822.603,-25 822.603,-6 669.033,-6"/>
<text text-anchor="middle" x="745.818" y="-12.2" font-family="Helvetica,sans-Serif" font-size="11.00">model_initialize::initialize_all</text>
</a>
</g>
</g>
<!-- Node8&#45;&gt;Node9 -->
<g id="edge9" class="edge"><title>Node8&#45;&gt;Node9</title>
<path fill="none" stroke="midnightblue" d="M643.397,-15.5C651.808,-15.5 660.361,-15.5 668.753,-15.5"/>
<polygon fill="midnightblue" stroke="midnightblue" points="643.23,-12.0001 633.23,-15.5 643.23,-19.0001 643.23,-12.0001"/>
</g>
<!-- Node10 -->
<g id="node10" class="node"><title>Node10</title>
<g id="a_node10"><a xlink:href="main_8F90.html#a8ec2266d83cd6c0b762cbcbc92c0af3d" target="_top" xlink:title="Main program which references all other modules; execution begins here. ">
<polygon fill="white" stroke="black" points="858.603,-6 858.603,-25 898.445,-25 898.445,-6 858.603,-6"/>
<text text-anchor="middle" x="878.524" y="-12.2" font-family="Helvetica,sans-Serif" font-size="11.00">main</text>
</a>
</g>
</g>
<!-- Node9&#45;&gt;Node10 -->
<g id="edge10" class="edge"><title>Node9&#45;&gt;Node10</title>
<path fill="none" stroke="midnightblue" d="M832.943,-15.5C842.438,-15.5 851.28,-15.5 858.545,-15.5"/>
<polygon fill="midnightblue" stroke="midnightblue" points="832.85,-12.0001 822.85,-15.5 832.85,-19.0001 832.85,-12.0001"/>
</g>
</g>
</svg>
