<?xml version="1.0" encoding="UTF-8" standalone="no"?>
<!DOCTYPE svg PUBLIC "-//W3C//DTD SVG 1.1//EN"
 "http://www.w3.org/Graphics/SVG/1.1/DTD/svg11.dtd">
<!-- Generated by graphviz version 2.38.0 (20140413.2041)
 -->
<!-- Title: model_domain::model_initialize_soil_storage_max_internally_calculated Pages: 1 -->
<svg width="344pt" height="50pt"
 viewBox="0.00 0.00 344.44 50.00" xmlns="http://www.w3.org/2000/svg" xmlns:xlink="http://www.w3.org/1999/xlink">
<g id="graph0" class="graph" transform="scale(1 1) rotate(0) translate(4 46)">
<title>model_domain::model_initialize_soil_storage_max_internally_calculated</title>
<polygon fill="white" stroke="none" points="-4,4 -4,-46 340.437,-46 340.437,4 -4,4"/>
<!-- Node308 -->
<g id="node1" class="node"><title>Node308</title>
<polygon fill="#bfbfbf" stroke="black" points="0,-0.5 0,-41.5 148.688,-41.5 148.688,-0.5 0,-0.5"/>
<text text-anchor="start" x="8" y="-28.7" font-family="Helvetica,sans-Serif" font-size="11.00">model_domain::model</text>
<text text-anchor="start" x="8" y="-17.7" font-family="Helvetica,sans-Serif" font-size="11.00">_initialize_soil_storage</text>
<text text-anchor="middle" x="74.3438" y="-6.7" font-family="Helvetica,sans-Serif" font-size="11.00">_max_internally_calculated</text>
</g>
<!-- Node309 -->
<g id="node2" class="node"><title>Node309</title>
<g id="a_node2"><a xlink:href="namespacemodel__domain.html#aac78dbf26ba37cf86ebed4edd7acf89b" target="_top" xlink:title="model_domain::set_method\l_pointers_sub">
<polygon fill="white" stroke="black" points="184.688,-6 184.688,-36 336.437,-36 336.437,-6 184.688,-6"/>
<text text-anchor="start" x="192.688" y="-23.2" font-family="Helvetica,sans-Serif" font-size="11.00">model_domain::set_method</text>
<text text-anchor="middle" x="260.562" y="-12.2" font-family="Helvetica,sans-Serif" font-size="11.00">_pointers_sub</text>
</a>
</g>
</g>
<!-- Node308&#45;&gt;Node309 -->
<g id="edge1" class="edge"><title>Node308&#45;&gt;Node309</title>
<path fill="none" stroke="midnightblue" d="M159.199,-21C167.659,-21 176.213,-21 184.572,-21"/>
<polygon fill="midnightblue" stroke="midnightblue" points="158.946,-17.5001 148.946,-21 158.946,-24.5001 158.946,-17.5001"/>
</g>
</g>
</svg>
