<?xml version="1.0" encoding="UTF-8" standalone="no"?>
<!DOCTYPE svg PUBLIC "-//W3C//DTD SVG 1.1//EN"
 "http://www.w3.org/Graphics/SVG/1.1/DTD/svg11.dtd">
<!-- Generated by graphviz version 2.38.0 (20140413.2041)
 -->
<!-- Title: netcdf4_support::netcdf_open_and_prepare_as_input Pages: 1 -->
<svg width="513pt" height="100pt"
 viewBox="0.00 0.00 513.30 99.50" xmlns="http://www.w3.org/2000/svg" xmlns:xlink="http://www.w3.org/1999/xlink">
<g id="graph0" class="graph" transform="scale(1 1) rotate(0) translate(4 95.5)">
<title>netcdf4_support::netcdf_open_and_prepare_as_input</title>
<polygon fill="white" stroke="none" points="-4,4 -4,-95.5 509.295,-95.5 509.295,4 -4,4"/>
<!-- Node107 -->
<g id="node1" class="node"><title>Node107</title>
<polygon fill="#bfbfbf" stroke="black" points="0,-27.5 0,-57.5 162.797,-57.5 162.797,-27.5 0,-27.5"/>
<text text-anchor="start" x="8" y="-44.7" font-family="Helvetica,sans-Serif" font-size="11.00">netcdf4_support::netcdf</text>
<text text-anchor="middle" x="81.3987" y="-33.7" font-family="Helvetica,sans-Serif" font-size="11.00">_open_and_prepare_as_input</text>
</g>
<!-- Node108 -->
<g id="node2" class="node"><title>Node108</title>
<g id="a_node2"><a xlink:href="namespacedata__catalog__entry.html#aeb285131f87ed64deba0a9041a9c6405" target="_top" xlink:title="data_catalog_entry\l::getvalues_dynamic\l_netcdf_sub">
<polygon fill="white" stroke="black" points="221.122,-50 221.122,-91 337.401,-91 337.401,-50 221.122,-50"/>
<text text-anchor="start" x="229.122" y="-78.2" font-family="Helvetica,sans-Serif" font-size="11.00">data_catalog_entry</text>
<text text-anchor="start" x="229.122" y="-67.2" font-family="Helvetica,sans-Serif" font-size="11.00">::getvalues_dynamic</text>
<text text-anchor="middle" x="279.261" y="-56.2" font-family="Helvetica,sans-Serif" font-size="11.00">_netcdf_sub</text>
</a>
</g>
</g>
<!-- Node107&#45;&gt;Node108 -->
<g id="edge1" class="edge"><title>Node107&#45;&gt;Node108</title>
<path fill="none" stroke="midnightblue" d="M173.044,-55.4585C189.401,-57.7968 206.031,-60.1741 221.094,-62.3275"/>
<polygon fill="midnightblue" stroke="midnightblue" points="173.306,-51.9604 162.911,-54.0099 172.315,-58.8899 173.306,-51.9604"/>
</g>
<!-- Node110 -->
<g id="node4" class="node"><title>Node110</title>
<g id="a_node4"><a xlink:href="namespacedata__catalog__entry.html#ac3e1f0d9d9e146fbb77c0084e1e9fc14" target="_top" xlink:title="data_catalog_entry\l::getvalues_static_netcdf_sub">
<polygon fill="white" stroke="black" points="198.797,-0.5 198.797,-30.5 359.726,-30.5 359.726,-0.5 198.797,-0.5"/>
<text text-anchor="start" x="206.797" y="-17.7" font-family="Helvetica,sans-Serif" font-size="11.00">data_catalog_entry</text>
<text text-anchor="middle" x="279.261" y="-6.7" font-family="Helvetica,sans-Serif" font-size="11.00">::getvalues_static_netcdf_sub</text>
</a>
</g>
</g>
<!-- Node107&#45;&gt;Node110 -->
<g id="edge3" class="edge"><title>Node107&#45;&gt;Node110</title>
<path fill="none" stroke="midnightblue" d="M172.949,-30.0175C181.543,-28.8327 190.214,-27.6375 198.694,-26.4686"/>
<polygon fill="midnightblue" stroke="midnightblue" points="172.34,-26.5683 162.911,-31.4012 173.296,-33.5027 172.34,-26.5683"/>
</g>
<!-- Node109 -->
<g id="node3" class="node"><title>Node109</title>
<g id="a_node3"><a xlink:href="namespacedata__catalog__entry.html#a9e0a89ab19a5bfd61f2dfb8265648234" target="_top" xlink:title="data_catalog_entry\l::getvalues_sub">
<polygon fill="white" stroke="black" points="395.726,-27.5 395.726,-57.5 505.295,-57.5 505.295,-27.5 395.726,-27.5"/>
<text text-anchor="start" x="403.726" y="-44.7" font-family="Helvetica,sans-Serif" font-size="11.00">data_catalog_entry</text>
<text text-anchor="middle" x="450.51" y="-33.7" font-family="Helvetica,sans-Serif" font-size="11.00">::getvalues_sub</text>
</a>
</g>
</g>
<!-- Node108&#45;&gt;Node109 -->
<g id="edge2" class="edge"><title>Node108&#45;&gt;Node109</title>
<path fill="none" stroke="midnightblue" d="M347.864,-59.3161C363.763,-56.6858 380.498,-53.9172 395.697,-51.4027"/>
<polygon fill="midnightblue" stroke="midnightblue" points="346.856,-55.9351 337.561,-61.0205 347.999,-62.8413 346.856,-55.9351"/>
</g>
<!-- Node110&#45;&gt;Node109 -->
<g id="edge4" class="edge"><title>Node110&#45;&gt;Node109</title>
<path fill="none" stroke="midnightblue" d="M370.068,-29.8267C378.694,-31.2028 387.248,-32.5674 395.37,-33.8631"/>
<polygon fill="midnightblue" stroke="midnightblue" points="370.357,-26.3285 359.93,-28.2094 369.254,-33.2411 370.357,-26.3285"/>
</g>
</g>
</svg>
