<?xml version="1.0" encoding="UTF-8" standalone="no"?>
<!DOCTYPE svg PUBLIC "-//W3C//DTD SVG 1.1//EN"
 "http://www.w3.org/Graphics/SVG/1.1/DTD/svg11.dtd">
<!-- Generated by graphviz version 2.38.0 (20140413.2041)
 -->
<!-- Title: model_initialize::set_data_directory Pages: 1 -->
<svg width="385pt" height="39pt"
 viewBox="0.00 0.00 385.40 39.00" xmlns="http://www.w3.org/2000/svg" xmlns:xlink="http://www.w3.org/1999/xlink">
<g id="graph0" class="graph" transform="scale(1 1) rotate(0) translate(4 35)">
<title>model_initialize::set_data_directory</title>
<polygon fill="white" stroke="none" points="-4,4 -4,-35 381.404,-35 381.404,4 -4,4"/>
<!-- Node74 -->
<g id="node1" class="node"><title>Node74</title>
<polygon fill="#bfbfbf" stroke="black" points="0,-0.5 0,-30.5 111.992,-30.5 111.992,-0.5 0,-0.5"/>
<text text-anchor="start" x="8" y="-17.7" font-family="Helvetica,sans-Serif" font-size="11.00">model_initialize::set</text>
<text text-anchor="middle" x="55.9961" y="-6.7" font-family="Helvetica,sans-Serif" font-size="11.00">_data_directory</text>
</g>
<!-- Node75 -->
<g id="node2" class="node"><title>Node75</title>
<g id="a_node2"><a xlink:href="namespacemodel__initialize.html#a46370bf2e9ea112d1f219277ba7fd3ce" target="_top" xlink:title="model_initialize::initialize_all">
<polygon fill="white" stroke="black" points="147.992,-6 147.992,-25 301.562,-25 301.562,-6 147.992,-6"/>
<text text-anchor="middle" x="224.777" y="-12.2" font-family="Helvetica,sans-Serif" font-size="11.00">model_initialize::initialize_all</text>
</a>
</g>
</g>
<!-- Node74&#45;&gt;Node75 -->
<g id="edge1" class="edge"><title>Node74&#45;&gt;Node75</title>
<path fill="none" stroke="midnightblue" d="M122.204,-15.5C130.639,-15.5 139.335,-15.5 147.923,-15.5"/>
<polygon fill="midnightblue" stroke="midnightblue" points="122.069,-12.0001 112.069,-15.5 122.069,-19.0001 122.069,-12.0001"/>
</g>
<!-- Node76 -->
<g id="node3" class="node"><title>Node76</title>
<g id="a_node3"><a xlink:href="main_8F90.html#a8ec2266d83cd6c0b762cbcbc92c0af3d" target="_top" xlink:title="Main program which references all other modules; execution begins here. ">
<polygon fill="white" stroke="black" points="337.562,-6 337.562,-25 377.404,-25 377.404,-6 337.562,-6"/>
<text text-anchor="middle" x="357.483" y="-12.2" font-family="Helvetica,sans-Serif" font-size="11.00">main</text>
</a>
</g>
</g>
<!-- Node75&#45;&gt;Node76 -->
<g id="edge2" class="edge"><title>Node75&#45;&gt;Node76</title>
<path fill="none" stroke="midnightblue" d="M311.902,-15.5C321.397,-15.5 330.239,-15.5 337.504,-15.5"/>
<polygon fill="midnightblue" stroke="midnightblue" points="311.809,-12.0001 301.809,-15.5 311.809,-19.0001 311.809,-12.0001"/>
</g>
</g>
</svg>
