<?xml version="1.0" encoding="UTF-8" standalone="no"?>
<!DOCTYPE svg PUBLIC "-//W3C//DTD SVG 1.1//EN"
 "http://www.w3.org/Graphics/SVG/1.1/DTD/svg11.dtd">
<!-- Generated by graphviz version 2.38.0 (20140413.2041)
 -->
<!-- Title: runoff__curve_number::runoff_curve_number_initialize Pages: 1 -->
<svg width="487pt" height="50pt"
 viewBox="0.00 0.00 486.55 50.00" xmlns="http://www.w3.org/2000/svg" xmlns:xlink="http://www.w3.org/1999/xlink">
<g id="graph0" class="graph" transform="scale(1 1) rotate(0) translate(4 46)">
<title>runoff__curve_number::runoff_curve_number_initialize</title>
<polygon fill="white" stroke="none" points="-4,4 -4,-46 482.547,-46 482.547,4 -4,4"/>
<!-- Node1 -->
<g id="node1" class="node"><title>Node1</title>
<polygon fill="#bfbfbf" stroke="black" points="0,-0.5 0,-41.5 126.483,-41.5 126.483,-0.5 0,-0.5"/>
<text text-anchor="start" x="8" y="-28.7" font-family="Helvetica,sans-Serif" font-size="11.00">runoff__curve_number</text>
<text text-anchor="start" x="8" y="-17.7" font-family="Helvetica,sans-Serif" font-size="11.00">::runoff_curve_number</text>
<text text-anchor="middle" x="63.2417" y="-6.7" font-family="Helvetica,sans-Serif" font-size="11.00">_initialize</text>
</g>
<!-- Node2 -->
<g id="node2" class="node"><title>Node2</title>
<g id="a_node2"><a xlink:href="namespacemodel__domain.html#ab3c2e3c2dce1b8c5cb0ebd67d2964618" target="_top" xlink:title="model_domain::model\l_initialize_runoff_curve\l_number">
<polygon fill="white" stroke="black" points="162.483,-0.5 162.483,-41.5 290.798,-41.5 290.798,-0.5 162.483,-0.5"/>
<text text-anchor="start" x="170.483" y="-28.7" font-family="Helvetica,sans-Serif" font-size="11.00">model_domain::model</text>
<text text-anchor="start" x="170.483" y="-17.7" font-family="Helvetica,sans-Serif" font-size="11.00">_initialize_runoff_curve</text>
<text text-anchor="middle" x="226.641" y="-6.7" font-family="Helvetica,sans-Serif" font-size="11.00">_number</text>
</a>
</g>
</g>
<!-- Node1&#45;&gt;Node2 -->
<g id="edge1" class="edge"><title>Node1&#45;&gt;Node2</title>
<path fill="none" stroke="midnightblue" d="M136.907,-21C145.392,-21 153.996,-21 162.34,-21"/>
<polygon fill="midnightblue" stroke="midnightblue" points="136.643,-17.5001 126.643,-21 136.643,-24.5001 136.643,-17.5001"/>
</g>
<!-- Node3 -->
<g id="node3" class="node"><title>Node3</title>
<g id="a_node3"><a xlink:href="namespacemodel__domain.html#aac78dbf26ba37cf86ebed4edd7acf89b" target="_top" xlink:title="model_domain::set_method\l_pointers_sub">
<polygon fill="white" stroke="black" points="326.798,-6 326.798,-36 478.547,-36 478.547,-6 326.798,-6"/>
<text text-anchor="start" x="334.798" y="-23.2" font-family="Helvetica,sans-Serif" font-size="11.00">model_domain::set_method</text>
<text text-anchor="middle" x="402.673" y="-12.2" font-family="Helvetica,sans-Serif" font-size="11.00">_pointers_sub</text>
</a>
</g>
</g>
<!-- Node2&#45;&gt;Node3 -->
<g id="edge2" class="edge"><title>Node2&#45;&gt;Node3</title>
<path fill="none" stroke="midnightblue" d="M301.122,-21C309.539,-21 318.129,-21 326.566,-21"/>
<polygon fill="midnightblue" stroke="midnightblue" points="300.963,-17.5001 290.963,-21 300.963,-24.5001 300.963,-17.5001"/>
</g>
</g>
</svg>
