<?xml version="1.0" encoding="UTF-8" standalone="no"?>
<!DOCTYPE svg PUBLIC "-//W3C//DTD SVG 1.1//EN"
 "http://www.w3.org/Graphics/SVG/1.1/DTD/svg11.dtd">
<!-- Generated by graphviz version 2.38.0 (20140413.2041)
 -->
<!-- Title: grid::grid_checkintegergridvalues Pages: 1 -->
<svg width="856pt" height="142pt"
 viewBox="0.00 0.00 856.33 142.00" xmlns="http://www.w3.org/2000/svg" xmlns:xlink="http://www.w3.org/1999/xlink">
<g id="graph0" class="graph" transform="scale(1 1) rotate(0) translate(4 138)">
<title>grid::grid_checkintegergridvalues</title>
<polygon fill="white" stroke="none" points="-4,4 -4,-138 852.331,-138 852.331,4 -4,4"/>
<!-- Node1 -->
<g id="node1" class="node"><title>Node1</title>
<polygon fill="#bfbfbf" stroke="black" points="0,-57.5 0,-76.5 177.423,-76.5 177.423,-57.5 0,-57.5"/>
<text text-anchor="middle" x="88.7114" y="-63.7" font-family="Helvetica,sans-Serif" font-size="11.00">grid::grid_checkintegergridvalues</text>
</g>
<!-- Node2 -->
<g id="node2" class="node"><title>Node2</title>
<g id="a_node2"><a xlink:href="namespacegrid.html#a1244933daa130a43754e6e0b1f29a4ba" target="_top" xlink:title="grid::grid_readarcgrid_fn">
<polygon fill="white" stroke="black" points="224.122,-114.5 224.122,-133.5 359.967,-133.5 359.967,-114.5 224.122,-114.5"/>
<text text-anchor="middle" x="292.045" y="-120.7" font-family="Helvetica,sans-Serif" font-size="11.00">grid::grid_readarcgrid_fn</text>
</a>
</g>
</g>
<!-- Node1&#45;&gt;Node2 -->
<g id="edge1" class="edge"><title>Node1&#45;&gt;Node2</title>
<path fill="none" stroke="midnightblue" d="M128.635,-79.5898C152.914,-87.2847 184.867,-97.1266 213.423,-105 225.326,-108.282 238.335,-111.579 250.242,-114.483"/>
<polygon fill="midnightblue" stroke="midnightblue" points="129.657,-76.2419 119.066,-76.5422 127.532,-82.9118 129.657,-76.2419"/>
</g>
<!-- Node6 -->
<g id="node6" class="node"><title>Node6</title>
<g id="a_node6"><a xlink:href="namespacegrid.html#ab5ebfcb683f5e36ffbcd331146c51af3" target="_top" xlink:title="grid::grid_readarcgrid_sub">
<polygon fill="white" stroke="black" points="219.841,-38.5 219.841,-57.5 364.248,-57.5 364.248,-38.5 219.841,-38.5"/>
<text text-anchor="middle" x="292.045" y="-44.7" font-family="Helvetica,sans-Serif" font-size="11.00">grid::grid_readarcgrid_sub</text>
</a>
</g>
</g>
<!-- Node1&#45;&gt;Node6 -->
<g id="edge5" class="edge"><title>Node1&#45;&gt;Node6</title>
<path fill="none" stroke="midnightblue" d="M187.718,-57.751C198.474,-56.7359 209.271,-55.717 219.617,-54.7407"/>
<polygon fill="midnightblue" stroke="midnightblue" points="187.06,-54.2975 177.433,-58.7216 187.718,-61.2665 187.06,-54.2975"/>
</g>
<!-- Node8 -->
<g id="node8" class="node"><title>Node8</title>
<g id="a_node8"><a xlink:href="namespacegrid.html#ad5fd78ff423561891920ae052dc9ccf7" target="_top" xlink:title="grid::grid_readsurfergrid_fn">
<polygon fill="white" stroke="black" points="217.704,-76.5 217.704,-95.5 366.386,-95.5 366.386,-76.5 217.704,-76.5"/>
<text text-anchor="middle" x="292.045" y="-82.7" font-family="Helvetica,sans-Serif" font-size="11.00">grid::grid_readsurfergrid_fn</text>
</a>
</g>
</g>
<!-- Node1&#45;&gt;Node8 -->
<g id="edge8" class="edge"><title>Node1&#45;&gt;Node8</title>
<path fill="none" stroke="midnightblue" d="M187.49,-76.2275C197.575,-77.1792 207.698,-78.1345 217.455,-79.0553"/>
<polygon fill="midnightblue" stroke="midnightblue" points="187.718,-72.7335 177.433,-75.2784 187.06,-79.7025 187.718,-72.7335"/>
</g>
<!-- Node9 -->
<g id="node9" class="node"><title>Node9</title>
<g id="a_node9"><a xlink:href="namespacegrid.html#aee74303d2cef81de66150af260d41814" target="_top" xlink:title="grid::grid_readsurfergrid_sub">
<polygon fill="white" stroke="black" points="213.423,-0.5 213.423,-19.5 370.667,-19.5 370.667,-0.5 213.423,-0.5"/>
<text text-anchor="middle" x="292.045" y="-6.7" font-family="Helvetica,sans-Serif" font-size="11.00">grid::grid_readsurfergrid_sub</text>
</a>
</g>
</g>
<!-- Node1&#45;&gt;Node9 -->
<g id="edge10" class="edge"><title>Node1&#45;&gt;Node9</title>
<path fill="none" stroke="midnightblue" d="M128.635,-54.4102C152.914,-46.7153 184.867,-36.8734 213.423,-29 225.326,-25.7179 238.335,-22.4215 250.242,-19.5174"/>
<polygon fill="midnightblue" stroke="midnightblue" points="127.532,-51.0882 119.066,-57.4578 129.657,-57.7581 127.532,-51.0882"/>
</g>
<!-- Node3 -->
<g id="node3" class="node"><title>Node3</title>
<g id="a_node3"><a xlink:href="namespacegrid.html#a6668cfaf4657e4e5ebc2d49d0cdbb204" target="_top" xlink:title="grid::grid_read">
<polygon fill="white" stroke="black" points="425.315,-76.5 425.315,-95.5 512.246,-95.5 512.246,-76.5 425.315,-76.5"/>
<text text-anchor="middle" x="468.78" y="-82.7" font-family="Helvetica,sans-Serif" font-size="11.00">grid::grid_read</text>
</a>
</g>
</g>
<!-- Node2&#45;&gt;Node3 -->
<g id="edge2" class="edge"><title>Node2&#45;&gt;Node3</title>
<path fill="none" stroke="midnightblue" d="M347.242,-112.214C372.343,-106.755 401.734,-100.363 425.21,-95.2579"/>
<polygon fill="midnightblue" stroke="midnightblue" points="346.166,-108.866 337.138,-114.411 347.653,-115.706 346.166,-108.866"/>
</g>
<!-- Node4 -->
<g id="node4" class="node"><title>Node4</title>
<g id="a_node4"><a xlink:href="namespacedata__catalog__entry.html#a25575c8a43161050427bd7a7d471e83d" target="_top" xlink:title="data_catalog_entry\l::getvalues_gridded_sub">
<polygon fill="white" stroke="black" points="566.894,-52 566.894,-82 702.761,-82 702.761,-52 566.894,-52"/>
<text text-anchor="start" x="574.894" y="-69.2" font-family="Helvetica,sans-Serif" font-size="11.00">data_catalog_entry</text>
<text text-anchor="middle" x="634.827" y="-58.2" font-family="Helvetica,sans-Serif" font-size="11.00">::getvalues_gridded_sub</text>
</a>
</g>
</g>
<!-- Node3&#45;&gt;Node4 -->
<g id="edge3" class="edge"><title>Node3&#45;&gt;Node4</title>
<path fill="none" stroke="midnightblue" d="M522.482,-79.896C536.619,-78.2587 552.095,-76.4663 566.892,-74.7525"/>
<polygon fill="midnightblue" stroke="midnightblue" points="521.984,-76.4302 512.453,-81.0576 522.79,-83.3837 521.984,-76.4302"/>
</g>
<!-- Node5 -->
<g id="node5" class="node"><title>Node5</title>
<g id="a_node5"><a xlink:href="namespacedata__catalog__entry.html#a9e0a89ab19a5bfd61f2dfb8265648234" target="_top" xlink:title="data_catalog_entry\l::getvalues_sub">
<polygon fill="white" stroke="black" points="738.761,-52 738.761,-82 848.331,-82 848.331,-52 738.761,-52"/>
<text text-anchor="start" x="746.761" y="-69.2" font-family="Helvetica,sans-Serif" font-size="11.00">data_catalog_entry</text>
<text text-anchor="middle" x="793.546" y="-58.2" font-family="Helvetica,sans-Serif" font-size="11.00">::getvalues_sub</text>
</a>
</g>
</g>
<!-- Node4&#45;&gt;Node5 -->
<g id="edge4" class="edge"><title>Node4&#45;&gt;Node5</title>
<path fill="none" stroke="midnightblue" d="M713.474,-67C721.923,-67 730.383,-67 738.461,-67"/>
<polygon fill="midnightblue" stroke="midnightblue" points="713.2,-63.5001 703.2,-67 713.2,-70.5001 713.2,-63.5001"/>
</g>
<!-- Node7 -->
<g id="node7" class="node"><title>Node7</title>
<g id="a_node7"><a xlink:href="namespacegrid.html#a82580ae20a6d538ff34ef5d2263bf679" target="_top" xlink:title="grid::grid_readexisting">
<polygon fill="white" stroke="black" points="406.667,-38.5 406.667,-57.5 530.894,-57.5 530.894,-38.5 406.667,-38.5"/>
<text text-anchor="middle" x="468.78" y="-44.7" font-family="Helvetica,sans-Serif" font-size="11.00">grid::grid_readexisting</text>
</a>
</g>
</g>
<!-- Node6&#45;&gt;Node7 -->
<g id="edge6" class="edge"><title>Node6&#45;&gt;Node7</title>
<path fill="none" stroke="midnightblue" d="M374.594,-48C385.32,-48 396.163,-48 406.473,-48"/>
<polygon fill="midnightblue" stroke="midnightblue" points="374.368,-44.5001 364.368,-48 374.368,-51.5001 374.368,-44.5001"/>
</g>
<!-- Node7&#45;&gt;Node4 -->
<g id="edge7" class="edge"><title>Node7&#45;&gt;Node4</title>
<path fill="none" stroke="midnightblue" d="M541.466,-56.3026C549.853,-57.274 558.387,-58.2624 566.708,-59.2263"/>
<polygon fill="midnightblue" stroke="midnightblue" points="541.668,-52.8028 531.332,-55.129 540.863,-59.7563 541.668,-52.8028"/>
</g>
<!-- Node8&#45;&gt;Node3 -->
<g id="edge9" class="edge"><title>Node8&#45;&gt;Node3</title>
<path fill="none" stroke="midnightblue" d="M376.761,-86C393.493,-86 410.403,-86 425.033,-86"/>
<polygon fill="midnightblue" stroke="midnightblue" points="376.389,-82.5001 366.389,-86 376.389,-89.5001 376.389,-82.5001"/>
</g>
<!-- Node9&#45;&gt;Node7 -->
<g id="edge11" class="edge"><title>Node9&#45;&gt;Node7</title>
<path fill="none" stroke="midnightblue" d="M347.087,-21.7526C371.794,-27.1258 400.685,-33.4086 424.004,-38.4799"/>
<polygon fill="midnightblue" stroke="midnightblue" points="347.653,-18.2941 337.138,-19.589 346.166,-25.1342 347.653,-18.2941"/>
</g>
</g>
</svg>
