<?xml version="1.0" encoding="UTF-8" standalone="no"?>
<!DOCTYPE svg PUBLIC "-//W3C//DTD SVG 1.1//EN"
 "http://www.w3.org/Graphics/SVG/1.1/DTD/svg11.dtd">
<!-- Generated by graphviz version 2.38.0 (20140413.2041)
 -->
<!-- Title: direct_recharge__gridded_data::direct_recharge_initialize Pages: 1 -->
<svg width="284pt" height="50pt"
 viewBox="0.00 0.00 283.90 50.00" xmlns="http://www.w3.org/2000/svg" xmlns:xlink="http://www.w3.org/1999/xlink">
<g id="graph0" class="graph" transform="scale(1 1) rotate(0) translate(4 46)">
<title>direct_recharge__gridded_data::direct_recharge_initialize</title>
<polygon fill="white" stroke="none" points="-4,4 -4,-46 279.904,-46 279.904,4 -4,4"/>
<!-- Node1 -->
<g id="node1" class="node"><title>Node1</title>
<polygon fill="#bfbfbf" stroke="black" points="0,-0.5 0,-41.5 141.361,-41.5 141.361,-0.5 0,-0.5"/>
<text text-anchor="start" x="8" y="-28.7" font-family="Helvetica,sans-Serif" font-size="11.00">direct_recharge__gridded</text>
<text text-anchor="start" x="8" y="-17.7" font-family="Helvetica,sans-Serif" font-size="11.00">_data::direct_recharge</text>
<text text-anchor="middle" x="70.6807" y="-6.7" font-family="Helvetica,sans-Serif" font-size="11.00">_initialize</text>
</g>
<!-- Node2 -->
<g id="node2" class="node"><title>Node2</title>
<g id="a_node2"><a xlink:href="namespaceexceptions.html#a84dd04476b06e0a398bfe6d106a82a4d" target="_top" xlink:title="exceptions::warn">
<polygon fill="white" stroke="black" points="177.361,-11.5 177.361,-30.5 275.904,-30.5 275.904,-11.5 177.361,-11.5"/>
<text text-anchor="middle" x="226.633" y="-17.7" font-family="Helvetica,sans-Serif" font-size="11.00">exceptions::warn</text>
</a>
</g>
</g>
<!-- Node1&#45;&gt;Node2 -->
<g id="edge1" class="edge"><title>Node1&#45;&gt;Node2</title>
<path fill="none" stroke="midnightblue" d="M141.45,-21C150.047,-21 158.765,-21 167.17,-21"/>
<polygon fill="midnightblue" stroke="midnightblue" points="167.238,-24.5001 177.238,-21 167.238,-17.5001 167.238,-24.5001"/>
</g>
</g>
</svg>
