<?xml version="1.0" encoding="UTF-8" standalone="no"?>
<!DOCTYPE svg PUBLIC "-//W3C//DTD SVG 1.1//EN"
 "http://www.w3.org/Graphics/SVG/1.1/DTD/svg11.dtd">
<!-- Generated by graphviz version 2.38.0 (20140413.2041)
 -->
<!-- Title: model_domain::model_initialize_et_daily_grid Pages: 1 -->
<svg width="325pt" height="39pt"
 viewBox="0.00 0.00 325.49 39.00" xmlns="http://www.w3.org/2000/svg" xmlns:xlink="http://www.w3.org/1999/xlink">
<g id="graph0" class="graph" transform="scale(1 1) rotate(0) translate(4 35)">
<title>model_domain::model_initialize_et_daily_grid</title>
<polygon fill="white" stroke="none" points="-4,4 -4,-35 321.487,-35 321.487,4 -4,4"/>
<!-- Node257 -->
<g id="node1" class="node"><title>Node257</title>
<polygon fill="#bfbfbf" stroke="black" points="0,-0.5 0,-30.5 129.738,-30.5 129.738,-0.5 0,-0.5"/>
<text text-anchor="start" x="8" y="-17.7" font-family="Helvetica,sans-Serif" font-size="11.00">model_domain::model</text>
<text text-anchor="middle" x="64.8691" y="-6.7" font-family="Helvetica,sans-Serif" font-size="11.00">_initialize_et_daily_grid</text>
</g>
<!-- Node258 -->
<g id="node2" class="node"><title>Node258</title>
<g id="a_node2"><a xlink:href="namespacemodel__domain.html#aac78dbf26ba37cf86ebed4edd7acf89b" target="_top" xlink:title="model_domain::set_method\l_pointers_sub">
<polygon fill="white" stroke="black" points="165.738,-0.5 165.738,-30.5 317.487,-30.5 317.487,-0.5 165.738,-0.5"/>
<text text-anchor="start" x="173.738" y="-17.7" font-family="Helvetica,sans-Serif" font-size="11.00">model_domain::set_method</text>
<text text-anchor="middle" x="241.613" y="-6.7" font-family="Helvetica,sans-Serif" font-size="11.00">_pointers_sub</text>
</a>
</g>
</g>
<!-- Node257&#45;&gt;Node258 -->
<g id="edge1" class="edge"><title>Node257&#45;&gt;Node258</title>
<path fill="none" stroke="midnightblue" d="M140.123,-15.5C148.553,-15.5 157.149,-15.5 165.589,-15.5"/>
<polygon fill="midnightblue" stroke="midnightblue" points="139.945,-12.0001 129.945,-15.5 139.945,-19.0001 139.945,-12.0001"/>
</g>
</g>
</svg>
