<?xml version="1.0" encoding="UTF-8" standalone="no"?>
<!DOCTYPE svg PUBLIC "-//W3C//DTD SVG 1.1//EN"
 "http://www.w3.org/Graphics/SVG/1.1/DTD/svg11.dtd">
<!-- Generated by graphviz version 2.38.0 (20140413.2041)
 -->
<!-- Title: model_domain::model_calculate_interception_gash Pages: 1 -->
<svg width="354pt" height="39pt"
 viewBox="0.00 0.00 354.24 39.00" xmlns="http://www.w3.org/2000/svg" xmlns:xlink="http://www.w3.org/1999/xlink">
<g id="graph0" class="graph" transform="scale(1 1) rotate(0) translate(4 35)">
<title>model_domain::model_calculate_interception_gash</title>
<polygon fill="white" stroke="none" points="-4,4 -4,-35 350.239,-35 350.239,4 -4,4"/>
<!-- Node1 -->
<g id="node1" class="node"><title>Node1</title>
<polygon fill="#bfbfbf" stroke="black" points="0,-0.5 0,-30.5 158.49,-30.5 158.49,-0.5 0,-0.5"/>
<text text-anchor="start" x="8" y="-17.7" font-family="Helvetica,sans-Serif" font-size="11.00">model_domain::model</text>
<text text-anchor="middle" x="79.2449" y="-6.7" font-family="Helvetica,sans-Serif" font-size="11.00">_calculate_interception_gash</text>
</g>
<!-- Node2 -->
<g id="node2" class="node"><title>Node2</title>
<g id="a_node2"><a xlink:href="namespacemodel__domain.html#aac78dbf26ba37cf86ebed4edd7acf89b" target="_top" xlink:title="model_domain::set_method\l_pointers_sub">
<polygon fill="white" stroke="black" points="194.49,-0.5 194.49,-30.5 346.239,-30.5 346.239,-0.5 194.49,-0.5"/>
<text text-anchor="start" x="202.49" y="-17.7" font-family="Helvetica,sans-Serif" font-size="11.00">model_domain::set_method</text>
<text text-anchor="middle" x="270.364" y="-6.7" font-family="Helvetica,sans-Serif" font-size="11.00">_pointers_sub</text>
</a>
</g>
</g>
<!-- Node1&#45;&gt;Node2 -->
<g id="edge1" class="edge"><title>Node1&#45;&gt;Node2</title>
<path fill="none" stroke="midnightblue" d="M168.63,-15.5C177.274,-15.5 185.987,-15.5 194.479,-15.5"/>
<polygon fill="midnightblue" stroke="midnightblue" points="168.532,-12.0001 158.532,-15.5 168.532,-19.0001 168.532,-12.0001"/>
</g>
</g>
</svg>
