<?xml version="1.0" encoding="UTF-8" standalone="no"?>
<!DOCTYPE svg PUBLIC "-//W3C//DTD SVG 1.1//EN"
 "http://www.w3.org/Graphics/SVG/1.1/DTD/svg11.dtd">
<!-- Generated by graphviz version 2.38.0 (20140413.2041)
 -->
<!-- Title: precipitation__method_of_fragments::update_fragments Pages: 1 -->
<svg width="296pt" height="88pt"
 viewBox="0.00 0.00 296.15 88.00" xmlns="http://www.w3.org/2000/svg" xmlns:xlink="http://www.w3.org/1999/xlink">
<g id="graph0" class="graph" transform="scale(1 1) rotate(0) translate(4 84)">
<title>precipitation__method_of_fragments::update_fragments</title>
<polygon fill="white" stroke="none" points="-4,4 -4,-84 292.15,-84 292.15,4 -4,4"/>
<!-- Node25 -->
<g id="node1" class="node"><title>Node25</title>
<polygon fill="#bfbfbf" stroke="black" points="0,-24.5 0,-65.5 126.075,-65.5 126.075,-24.5 0,-24.5"/>
<text text-anchor="start" x="8" y="-52.7" font-family="Helvetica,sans-Serif" font-size="11.00">precipitation__method</text>
<text text-anchor="start" x="8" y="-41.7" font-family="Helvetica,sans-Serif" font-size="11.00">_of_fragments::update</text>
<text text-anchor="middle" x="63.0376" y="-30.7" font-family="Helvetica,sans-Serif" font-size="11.00">_fragments</text>
</g>
<!-- Node26 -->
<g id="node2" class="node"><title>Node26</title>
<g id="a_node2"><a xlink:href="namespaceexceptions.html#a22a1bf2808fdc249e6b378ee3f221156" target="_top" xlink:title="exceptions::die">
<polygon fill="white" stroke="black" points="180.423,-60.5 180.423,-79.5 269.803,-79.5 269.803,-60.5 180.423,-60.5"/>
<text text-anchor="middle" x="225.113" y="-66.7" font-family="Helvetica,sans-Serif" font-size="11.00">exceptions::die</text>
</a>
</g>
</g>
<!-- Node25&#45;&gt;Node26 -->
<g id="edge1" class="edge"><title>Node25&#45;&gt;Node26</title>
<path fill="none" stroke="midnightblue" d="M126.385,-54.7372C140.796,-56.9878 156.012,-59.3642 170.035,-61.5544"/>
<polygon fill="midnightblue" stroke="midnightblue" points="169.587,-65.0267 180.007,-63.1118 170.667,-58.1106 169.587,-65.0267"/>
</g>
<!-- Node27 -->
<g id="node3" class="node"><title>Node27</title>
<g id="a_node3"><a xlink:href="namespaceprecipitation____method__of__fragments.html#af58f294376d619358b6bc642bd766df4" target="_top" xlink:title="precipitation__method\l_of_fragments::update\l_random_values">
<polygon fill="white" stroke="black" points="162.075,-0.5 162.075,-41.5 288.15,-41.5 288.15,-0.5 162.075,-0.5"/>
<text text-anchor="start" x="170.075" y="-28.7" font-family="Helvetica,sans-Serif" font-size="11.00">precipitation__method</text>
<text text-anchor="start" x="170.075" y="-17.7" font-family="Helvetica,sans-Serif" font-size="11.00">_of_fragments::update</text>
<text text-anchor="middle" x="225.113" y="-6.7" font-family="Helvetica,sans-Serif" font-size="11.00">_random_values</text>
</a>
</g>
</g>
<!-- Node25&#45;&gt;Node27 -->
<g id="edge2" class="edge"><title>Node25&#45;&gt;Node27</title>
<path fill="none" stroke="midnightblue" d="M126.385,-35.6523C134.777,-34.3941 143.442,-33.0949 151.985,-31.814"/>
<polygon fill="midnightblue" stroke="midnightblue" points="152.565,-35.2664 161.935,-30.3222 151.527,-28.3437 152.565,-35.2664"/>
</g>
</g>
</svg>
